%TF.GenerationSoftware,KiCad,Pcbnew,7.0.7*%
%TF.CreationDate,2024-02-22T12:38:55+00:00*%
%TF.ProjectId,gaugeInterface_rev0,67617567-6549-46e7-9465-72666163655f,rev?*%
%TF.SameCoordinates,Original*%
%TF.FileFunction,Legend,Top*%
%TF.FilePolarity,Positive*%
%FSLAX46Y46*%
G04 Gerber Fmt 4.6, Leading zero omitted, Abs format (unit mm)*
G04 Created by KiCad (PCBNEW 7.0.7) date 2024-02-22 12:38:55*
%MOMM*%
%LPD*%
G01*
G04 APERTURE LIST*
%ADD10C,0.150000*%
%ADD11C,0.100000*%
%ADD12C,0.120000*%
G04 APERTURE END LIST*
D10*
X14369819Y-12663220D02*
X13369819Y-12663220D01*
X13369819Y-12663220D02*
X13369819Y-12425125D01*
X13369819Y-12425125D02*
X13417438Y-12282268D01*
X13417438Y-12282268D02*
X13512676Y-12187030D01*
X13512676Y-12187030D02*
X13607914Y-12139411D01*
X13607914Y-12139411D02*
X13798390Y-12091792D01*
X13798390Y-12091792D02*
X13941247Y-12091792D01*
X13941247Y-12091792D02*
X14131723Y-12139411D01*
X14131723Y-12139411D02*
X14226961Y-12187030D01*
X14226961Y-12187030D02*
X14322200Y-12282268D01*
X14322200Y-12282268D02*
X14369819Y-12425125D01*
X14369819Y-12425125D02*
X14369819Y-12663220D01*
X14274580Y-11091792D02*
X14322200Y-11139411D01*
X14322200Y-11139411D02*
X14369819Y-11282268D01*
X14369819Y-11282268D02*
X14369819Y-11377506D01*
X14369819Y-11377506D02*
X14322200Y-11520363D01*
X14322200Y-11520363D02*
X14226961Y-11615601D01*
X14226961Y-11615601D02*
X14131723Y-11663220D01*
X14131723Y-11663220D02*
X13941247Y-11710839D01*
X13941247Y-11710839D02*
X13798390Y-11710839D01*
X13798390Y-11710839D02*
X13607914Y-11663220D01*
X13607914Y-11663220D02*
X13512676Y-11615601D01*
X13512676Y-11615601D02*
X13417438Y-11520363D01*
X13417438Y-11520363D02*
X13369819Y-11377506D01*
X13369819Y-11377506D02*
X13369819Y-11282268D01*
X13369819Y-11282268D02*
X13417438Y-11139411D01*
X13417438Y-11139411D02*
X13465057Y-11091792D01*
X13417438Y-9377506D02*
X13369819Y-9472744D01*
X13369819Y-9472744D02*
X13369819Y-9615601D01*
X13369819Y-9615601D02*
X13417438Y-9758458D01*
X13417438Y-9758458D02*
X13512676Y-9853696D01*
X13512676Y-9853696D02*
X13607914Y-9901315D01*
X13607914Y-9901315D02*
X13798390Y-9948934D01*
X13798390Y-9948934D02*
X13941247Y-9948934D01*
X13941247Y-9948934D02*
X14131723Y-9901315D01*
X14131723Y-9901315D02*
X14226961Y-9853696D01*
X14226961Y-9853696D02*
X14322200Y-9758458D01*
X14322200Y-9758458D02*
X14369819Y-9615601D01*
X14369819Y-9615601D02*
X14369819Y-9520363D01*
X14369819Y-9520363D02*
X14322200Y-9377506D01*
X14322200Y-9377506D02*
X14274580Y-9329887D01*
X14274580Y-9329887D02*
X13941247Y-9329887D01*
X13941247Y-9329887D02*
X13941247Y-9520363D01*
X14369819Y-8901315D02*
X13369819Y-8901315D01*
X13369819Y-8901315D02*
X14369819Y-8329887D01*
X14369819Y-8329887D02*
X13369819Y-8329887D01*
X14369819Y-7853696D02*
X13369819Y-7853696D01*
X13369819Y-7853696D02*
X13369819Y-7615601D01*
X13369819Y-7615601D02*
X13417438Y-7472744D01*
X13417438Y-7472744D02*
X13512676Y-7377506D01*
X13512676Y-7377506D02*
X13607914Y-7329887D01*
X13607914Y-7329887D02*
X13798390Y-7282268D01*
X13798390Y-7282268D02*
X13941247Y-7282268D01*
X13941247Y-7282268D02*
X14131723Y-7329887D01*
X14131723Y-7329887D02*
X14226961Y-7377506D01*
X14226961Y-7377506D02*
X14322200Y-7472744D01*
X14322200Y-7472744D02*
X14369819Y-7615601D01*
X14369819Y-7615601D02*
X14369819Y-7853696D01*
X19322200Y-12710839D02*
X19369819Y-12567982D01*
X19369819Y-12567982D02*
X19369819Y-12329887D01*
X19369819Y-12329887D02*
X19322200Y-12234649D01*
X19322200Y-12234649D02*
X19274580Y-12187030D01*
X19274580Y-12187030D02*
X19179342Y-12139411D01*
X19179342Y-12139411D02*
X19084104Y-12139411D01*
X19084104Y-12139411D02*
X18988866Y-12187030D01*
X18988866Y-12187030D02*
X18941247Y-12234649D01*
X18941247Y-12234649D02*
X18893628Y-12329887D01*
X18893628Y-12329887D02*
X18846009Y-12520363D01*
X18846009Y-12520363D02*
X18798390Y-12615601D01*
X18798390Y-12615601D02*
X18750771Y-12663220D01*
X18750771Y-12663220D02*
X18655533Y-12710839D01*
X18655533Y-12710839D02*
X18560295Y-12710839D01*
X18560295Y-12710839D02*
X18465057Y-12663220D01*
X18465057Y-12663220D02*
X18417438Y-12615601D01*
X18417438Y-12615601D02*
X18369819Y-12520363D01*
X18369819Y-12520363D02*
X18369819Y-12282268D01*
X18369819Y-12282268D02*
X18417438Y-12139411D01*
X19369819Y-11710839D02*
X18369819Y-11710839D01*
X18417438Y-10710840D02*
X18369819Y-10806078D01*
X18369819Y-10806078D02*
X18369819Y-10948935D01*
X18369819Y-10948935D02*
X18417438Y-11091792D01*
X18417438Y-11091792D02*
X18512676Y-11187030D01*
X18512676Y-11187030D02*
X18607914Y-11234649D01*
X18607914Y-11234649D02*
X18798390Y-11282268D01*
X18798390Y-11282268D02*
X18941247Y-11282268D01*
X18941247Y-11282268D02*
X19131723Y-11234649D01*
X19131723Y-11234649D02*
X19226961Y-11187030D01*
X19226961Y-11187030D02*
X19322200Y-11091792D01*
X19322200Y-11091792D02*
X19369819Y-10948935D01*
X19369819Y-10948935D02*
X19369819Y-10853697D01*
X19369819Y-10853697D02*
X19322200Y-10710840D01*
X19322200Y-10710840D02*
X19274580Y-10663221D01*
X19274580Y-10663221D02*
X18941247Y-10663221D01*
X18941247Y-10663221D02*
X18941247Y-10853697D01*
X18417438Y-8948935D02*
X18369819Y-9044173D01*
X18369819Y-9044173D02*
X18369819Y-9187030D01*
X18369819Y-9187030D02*
X18417438Y-9329887D01*
X18417438Y-9329887D02*
X18512676Y-9425125D01*
X18512676Y-9425125D02*
X18607914Y-9472744D01*
X18607914Y-9472744D02*
X18798390Y-9520363D01*
X18798390Y-9520363D02*
X18941247Y-9520363D01*
X18941247Y-9520363D02*
X19131723Y-9472744D01*
X19131723Y-9472744D02*
X19226961Y-9425125D01*
X19226961Y-9425125D02*
X19322200Y-9329887D01*
X19322200Y-9329887D02*
X19369819Y-9187030D01*
X19369819Y-9187030D02*
X19369819Y-9091792D01*
X19369819Y-9091792D02*
X19322200Y-8948935D01*
X19322200Y-8948935D02*
X19274580Y-8901316D01*
X19274580Y-8901316D02*
X18941247Y-8901316D01*
X18941247Y-8901316D02*
X18941247Y-9091792D01*
X19369819Y-8472744D02*
X18369819Y-8472744D01*
X18369819Y-8472744D02*
X19369819Y-7901316D01*
X19369819Y-7901316D02*
X18369819Y-7901316D01*
X19369819Y-7425125D02*
X18369819Y-7425125D01*
X18369819Y-7425125D02*
X18369819Y-7187030D01*
X18369819Y-7187030D02*
X18417438Y-7044173D01*
X18417438Y-7044173D02*
X18512676Y-6948935D01*
X18512676Y-6948935D02*
X18607914Y-6901316D01*
X18607914Y-6901316D02*
X18798390Y-6853697D01*
X18798390Y-6853697D02*
X18941247Y-6853697D01*
X18941247Y-6853697D02*
X19131723Y-6901316D01*
X19131723Y-6901316D02*
X19226961Y-6948935D01*
X19226961Y-6948935D02*
X19322200Y-7044173D01*
X19322200Y-7044173D02*
X19369819Y-7187030D01*
X19369819Y-7187030D02*
X19369819Y-7425125D01*
X24369819Y-8663220D02*
X23369819Y-8663220D01*
X23369819Y-8663220D02*
X24369819Y-8091792D01*
X24369819Y-8091792D02*
X23369819Y-8091792D01*
X24274580Y-7044173D02*
X24322200Y-7091792D01*
X24322200Y-7091792D02*
X24369819Y-7234649D01*
X24369819Y-7234649D02*
X24369819Y-7329887D01*
X24369819Y-7329887D02*
X24322200Y-7472744D01*
X24322200Y-7472744D02*
X24226961Y-7567982D01*
X24226961Y-7567982D02*
X24131723Y-7615601D01*
X24131723Y-7615601D02*
X23941247Y-7663220D01*
X23941247Y-7663220D02*
X23798390Y-7663220D01*
X23798390Y-7663220D02*
X23607914Y-7615601D01*
X23607914Y-7615601D02*
X23512676Y-7567982D01*
X23512676Y-7567982D02*
X23417438Y-7472744D01*
X23417438Y-7472744D02*
X23369819Y-7329887D01*
X23369819Y-7329887D02*
X23369819Y-7234649D01*
X23369819Y-7234649D02*
X23417438Y-7091792D01*
X23417438Y-7091792D02*
X23465057Y-7044173D01*
X16822200Y-12710839D02*
X16869819Y-12567982D01*
X16869819Y-12567982D02*
X16869819Y-12329887D01*
X16869819Y-12329887D02*
X16822200Y-12234649D01*
X16822200Y-12234649D02*
X16774580Y-12187030D01*
X16774580Y-12187030D02*
X16679342Y-12139411D01*
X16679342Y-12139411D02*
X16584104Y-12139411D01*
X16584104Y-12139411D02*
X16488866Y-12187030D01*
X16488866Y-12187030D02*
X16441247Y-12234649D01*
X16441247Y-12234649D02*
X16393628Y-12329887D01*
X16393628Y-12329887D02*
X16346009Y-12520363D01*
X16346009Y-12520363D02*
X16298390Y-12615601D01*
X16298390Y-12615601D02*
X16250771Y-12663220D01*
X16250771Y-12663220D02*
X16155533Y-12710839D01*
X16155533Y-12710839D02*
X16060295Y-12710839D01*
X16060295Y-12710839D02*
X15965057Y-12663220D01*
X15965057Y-12663220D02*
X15917438Y-12615601D01*
X15917438Y-12615601D02*
X15869819Y-12520363D01*
X15869819Y-12520363D02*
X15869819Y-12282268D01*
X15869819Y-12282268D02*
X15917438Y-12139411D01*
X16869819Y-11710839D02*
X15869819Y-11710839D01*
X15917438Y-10710840D02*
X15869819Y-10806078D01*
X15869819Y-10806078D02*
X15869819Y-10948935D01*
X15869819Y-10948935D02*
X15917438Y-11091792D01*
X15917438Y-11091792D02*
X16012676Y-11187030D01*
X16012676Y-11187030D02*
X16107914Y-11234649D01*
X16107914Y-11234649D02*
X16298390Y-11282268D01*
X16298390Y-11282268D02*
X16441247Y-11282268D01*
X16441247Y-11282268D02*
X16631723Y-11234649D01*
X16631723Y-11234649D02*
X16726961Y-11187030D01*
X16726961Y-11187030D02*
X16822200Y-11091792D01*
X16822200Y-11091792D02*
X16869819Y-10948935D01*
X16869819Y-10948935D02*
X16869819Y-10853697D01*
X16869819Y-10853697D02*
X16822200Y-10710840D01*
X16822200Y-10710840D02*
X16774580Y-10663221D01*
X16774580Y-10663221D02*
X16441247Y-10663221D01*
X16441247Y-10663221D02*
X16441247Y-10853697D01*
X16869819Y-10234649D02*
X15869819Y-10234649D01*
X15869819Y-10234649D02*
X16869819Y-9663221D01*
X16869819Y-9663221D02*
X15869819Y-9663221D01*
X16584104Y-9234649D02*
X16584104Y-8758459D01*
X16869819Y-9329887D02*
X15869819Y-8996554D01*
X15869819Y-8996554D02*
X16869819Y-8663221D01*
X16869819Y-7853697D02*
X16869819Y-8329887D01*
X16869819Y-8329887D02*
X15869819Y-8329887D01*
X29369819Y-8663220D02*
X28369819Y-8663220D01*
X28369819Y-8663220D02*
X29369819Y-8091792D01*
X29369819Y-8091792D02*
X28369819Y-8091792D01*
X29274580Y-7044173D02*
X29322200Y-7091792D01*
X29322200Y-7091792D02*
X29369819Y-7234649D01*
X29369819Y-7234649D02*
X29369819Y-7329887D01*
X29369819Y-7329887D02*
X29322200Y-7472744D01*
X29322200Y-7472744D02*
X29226961Y-7567982D01*
X29226961Y-7567982D02*
X29131723Y-7615601D01*
X29131723Y-7615601D02*
X28941247Y-7663220D01*
X28941247Y-7663220D02*
X28798390Y-7663220D01*
X28798390Y-7663220D02*
X28607914Y-7615601D01*
X28607914Y-7615601D02*
X28512676Y-7567982D01*
X28512676Y-7567982D02*
X28417438Y-7472744D01*
X28417438Y-7472744D02*
X28369819Y-7329887D01*
X28369819Y-7329887D02*
X28369819Y-7234649D01*
X28369819Y-7234649D02*
X28417438Y-7091792D01*
X28417438Y-7091792D02*
X28465057Y-7044173D01*
X10965057Y-12710839D02*
X10917438Y-12663220D01*
X10917438Y-12663220D02*
X10869819Y-12567982D01*
X10869819Y-12567982D02*
X10869819Y-12329887D01*
X10869819Y-12329887D02*
X10917438Y-12234649D01*
X10917438Y-12234649D02*
X10965057Y-12187030D01*
X10965057Y-12187030D02*
X11060295Y-12139411D01*
X11060295Y-12139411D02*
X11155533Y-12139411D01*
X11155533Y-12139411D02*
X11298390Y-12187030D01*
X11298390Y-12187030D02*
X11869819Y-12758458D01*
X11869819Y-12758458D02*
X11869819Y-12139411D01*
X11203152Y-11282268D02*
X11869819Y-11282268D01*
X10822200Y-11520363D02*
X11536485Y-11758458D01*
X11536485Y-11758458D02*
X11536485Y-11139411D01*
X10869819Y-10901315D02*
X11869819Y-10567982D01*
X11869819Y-10567982D02*
X10869819Y-10234649D01*
X11869819Y-9139410D02*
X10869819Y-9139410D01*
X10869819Y-9139410D02*
X10869819Y-8901315D01*
X10869819Y-8901315D02*
X10917438Y-8758458D01*
X10917438Y-8758458D02*
X11012676Y-8663220D01*
X11012676Y-8663220D02*
X11107914Y-8615601D01*
X11107914Y-8615601D02*
X11298390Y-8567982D01*
X11298390Y-8567982D02*
X11441247Y-8567982D01*
X11441247Y-8567982D02*
X11631723Y-8615601D01*
X11631723Y-8615601D02*
X11726961Y-8663220D01*
X11726961Y-8663220D02*
X11822200Y-8758458D01*
X11822200Y-8758458D02*
X11869819Y-8901315D01*
X11869819Y-8901315D02*
X11869819Y-9139410D01*
X11774580Y-7567982D02*
X11822200Y-7615601D01*
X11822200Y-7615601D02*
X11869819Y-7758458D01*
X11869819Y-7758458D02*
X11869819Y-7853696D01*
X11869819Y-7853696D02*
X11822200Y-7996553D01*
X11822200Y-7996553D02*
X11726961Y-8091791D01*
X11726961Y-8091791D02*
X11631723Y-8139410D01*
X11631723Y-8139410D02*
X11441247Y-8187029D01*
X11441247Y-8187029D02*
X11298390Y-8187029D01*
X11298390Y-8187029D02*
X11107914Y-8139410D01*
X11107914Y-8139410D02*
X11012676Y-8091791D01*
X11012676Y-8091791D02*
X10917438Y-7996553D01*
X10917438Y-7996553D02*
X10869819Y-7853696D01*
X10869819Y-7853696D02*
X10869819Y-7758458D01*
X10869819Y-7758458D02*
X10917438Y-7615601D01*
X10917438Y-7615601D02*
X10965057Y-7567982D01*
X8527255Y-20949819D02*
X8622493Y-20949819D01*
X8622493Y-20949819D02*
X8717731Y-20997438D01*
X8717731Y-20997438D02*
X8765350Y-21045057D01*
X8765350Y-21045057D02*
X8812969Y-21140295D01*
X8812969Y-21140295D02*
X8860588Y-21330771D01*
X8860588Y-21330771D02*
X8860588Y-21568866D01*
X8860588Y-21568866D02*
X8812969Y-21759342D01*
X8812969Y-21759342D02*
X8765350Y-21854580D01*
X8765350Y-21854580D02*
X8717731Y-21902200D01*
X8717731Y-21902200D02*
X8622493Y-21949819D01*
X8622493Y-21949819D02*
X8527255Y-21949819D01*
X8527255Y-21949819D02*
X8432017Y-21902200D01*
X8432017Y-21902200D02*
X8384398Y-21854580D01*
X8384398Y-21854580D02*
X8336779Y-21759342D01*
X8336779Y-21759342D02*
X8289160Y-21568866D01*
X8289160Y-21568866D02*
X8289160Y-21330771D01*
X8289160Y-21330771D02*
X8336779Y-21140295D01*
X8336779Y-21140295D02*
X8384398Y-21045057D01*
X8384398Y-21045057D02*
X8432017Y-20997438D01*
X8432017Y-20997438D02*
X8527255Y-20949819D01*
X9289160Y-21568866D02*
X10051065Y-21568866D01*
X11051064Y-21949819D02*
X10479636Y-21949819D01*
X10765350Y-21949819D02*
X10765350Y-20949819D01*
X10765350Y-20949819D02*
X10670112Y-21092676D01*
X10670112Y-21092676D02*
X10574874Y-21187914D01*
X10574874Y-21187914D02*
X10479636Y-21235533D01*
X11670112Y-20949819D02*
X11765350Y-20949819D01*
X11765350Y-20949819D02*
X11860588Y-20997438D01*
X11860588Y-20997438D02*
X11908207Y-21045057D01*
X11908207Y-21045057D02*
X11955826Y-21140295D01*
X11955826Y-21140295D02*
X12003445Y-21330771D01*
X12003445Y-21330771D02*
X12003445Y-21568866D01*
X12003445Y-21568866D02*
X11955826Y-21759342D01*
X11955826Y-21759342D02*
X11908207Y-21854580D01*
X11908207Y-21854580D02*
X11860588Y-21902200D01*
X11860588Y-21902200D02*
X11765350Y-21949819D01*
X11765350Y-21949819D02*
X11670112Y-21949819D01*
X11670112Y-21949819D02*
X11574874Y-21902200D01*
X11574874Y-21902200D02*
X11527255Y-21854580D01*
X11527255Y-21854580D02*
X11479636Y-21759342D01*
X11479636Y-21759342D02*
X11432017Y-21568866D01*
X11432017Y-21568866D02*
X11432017Y-21330771D01*
X11432017Y-21330771D02*
X11479636Y-21140295D01*
X11479636Y-21140295D02*
X11527255Y-21045057D01*
X11527255Y-21045057D02*
X11574874Y-20997438D01*
X11574874Y-20997438D02*
X11670112Y-20949819D01*
X12289160Y-20949819D02*
X12622493Y-21949819D01*
X12622493Y-21949819D02*
X12955826Y-20949819D01*
X8527255Y-15869819D02*
X8622493Y-15869819D01*
X8622493Y-15869819D02*
X8717731Y-15917438D01*
X8717731Y-15917438D02*
X8765350Y-15965057D01*
X8765350Y-15965057D02*
X8812969Y-16060295D01*
X8812969Y-16060295D02*
X8860588Y-16250771D01*
X8860588Y-16250771D02*
X8860588Y-16488866D01*
X8860588Y-16488866D02*
X8812969Y-16679342D01*
X8812969Y-16679342D02*
X8765350Y-16774580D01*
X8765350Y-16774580D02*
X8717731Y-16822200D01*
X8717731Y-16822200D02*
X8622493Y-16869819D01*
X8622493Y-16869819D02*
X8527255Y-16869819D01*
X8527255Y-16869819D02*
X8432017Y-16822200D01*
X8432017Y-16822200D02*
X8384398Y-16774580D01*
X8384398Y-16774580D02*
X8336779Y-16679342D01*
X8336779Y-16679342D02*
X8289160Y-16488866D01*
X8289160Y-16488866D02*
X8289160Y-16250771D01*
X8289160Y-16250771D02*
X8336779Y-16060295D01*
X8336779Y-16060295D02*
X8384398Y-15965057D01*
X8384398Y-15965057D02*
X8432017Y-15917438D01*
X8432017Y-15917438D02*
X8527255Y-15869819D01*
X9289160Y-16488866D02*
X10051065Y-16488866D01*
X11003445Y-15869819D02*
X10527255Y-15869819D01*
X10527255Y-15869819D02*
X10479636Y-16346009D01*
X10479636Y-16346009D02*
X10527255Y-16298390D01*
X10527255Y-16298390D02*
X10622493Y-16250771D01*
X10622493Y-16250771D02*
X10860588Y-16250771D01*
X10860588Y-16250771D02*
X10955826Y-16298390D01*
X10955826Y-16298390D02*
X11003445Y-16346009D01*
X11003445Y-16346009D02*
X11051064Y-16441247D01*
X11051064Y-16441247D02*
X11051064Y-16679342D01*
X11051064Y-16679342D02*
X11003445Y-16774580D01*
X11003445Y-16774580D02*
X10955826Y-16822200D01*
X10955826Y-16822200D02*
X10860588Y-16869819D01*
X10860588Y-16869819D02*
X10622493Y-16869819D01*
X10622493Y-16869819D02*
X10527255Y-16822200D01*
X10527255Y-16822200D02*
X10479636Y-16774580D01*
X11336779Y-15869819D02*
X11670112Y-16869819D01*
X11670112Y-16869819D02*
X12003445Y-15869819D01*
X26869819Y-8663220D02*
X25869819Y-8663220D01*
X25869819Y-8663220D02*
X26869819Y-8091792D01*
X26869819Y-8091792D02*
X25869819Y-8091792D01*
X26774580Y-7044173D02*
X26822200Y-7091792D01*
X26822200Y-7091792D02*
X26869819Y-7234649D01*
X26869819Y-7234649D02*
X26869819Y-7329887D01*
X26869819Y-7329887D02*
X26822200Y-7472744D01*
X26822200Y-7472744D02*
X26726961Y-7567982D01*
X26726961Y-7567982D02*
X26631723Y-7615601D01*
X26631723Y-7615601D02*
X26441247Y-7663220D01*
X26441247Y-7663220D02*
X26298390Y-7663220D01*
X26298390Y-7663220D02*
X26107914Y-7615601D01*
X26107914Y-7615601D02*
X26012676Y-7567982D01*
X26012676Y-7567982D02*
X25917438Y-7472744D01*
X25917438Y-7472744D02*
X25869819Y-7329887D01*
X25869819Y-7329887D02*
X25869819Y-7234649D01*
X25869819Y-7234649D02*
X25917438Y-7091792D01*
X25917438Y-7091792D02*
X25965057Y-7044173D01*
X21869819Y-8663220D02*
X20869819Y-8663220D01*
X20869819Y-8663220D02*
X21869819Y-8091792D01*
X21869819Y-8091792D02*
X20869819Y-8091792D01*
X21774580Y-7044173D02*
X21822200Y-7091792D01*
X21822200Y-7091792D02*
X21869819Y-7234649D01*
X21869819Y-7234649D02*
X21869819Y-7329887D01*
X21869819Y-7329887D02*
X21822200Y-7472744D01*
X21822200Y-7472744D02*
X21726961Y-7567982D01*
X21726961Y-7567982D02*
X21631723Y-7615601D01*
X21631723Y-7615601D02*
X21441247Y-7663220D01*
X21441247Y-7663220D02*
X21298390Y-7663220D01*
X21298390Y-7663220D02*
X21107914Y-7615601D01*
X21107914Y-7615601D02*
X21012676Y-7567982D01*
X21012676Y-7567982D02*
X20917438Y-7472744D01*
X20917438Y-7472744D02*
X20869819Y-7329887D01*
X20869819Y-7329887D02*
X20869819Y-7234649D01*
X20869819Y-7234649D02*
X20917438Y-7091792D01*
X20917438Y-7091792D02*
X20965057Y-7044173D01*
X3369819Y-24091792D02*
X2893628Y-24425125D01*
X3369819Y-24663220D02*
X2369819Y-24663220D01*
X2369819Y-24663220D02*
X2369819Y-24282268D01*
X2369819Y-24282268D02*
X2417438Y-24187030D01*
X2417438Y-24187030D02*
X2465057Y-24139411D01*
X2465057Y-24139411D02*
X2560295Y-24091792D01*
X2560295Y-24091792D02*
X2703152Y-24091792D01*
X2703152Y-24091792D02*
X2798390Y-24139411D01*
X2798390Y-24139411D02*
X2846009Y-24187030D01*
X2846009Y-24187030D02*
X2893628Y-24282268D01*
X2893628Y-24282268D02*
X2893628Y-24663220D01*
X3084104Y-23710839D02*
X3084104Y-23234649D01*
X3369819Y-23806077D02*
X2369819Y-23472744D01*
X2369819Y-23472744D02*
X3369819Y-23139411D01*
X3369819Y-22806077D02*
X2369819Y-22806077D01*
X2369819Y-22806077D02*
X3369819Y-22234649D01*
X3369819Y-22234649D02*
X2369819Y-22234649D01*
X2417438Y-21234649D02*
X2369819Y-21329887D01*
X2369819Y-21329887D02*
X2369819Y-21472744D01*
X2369819Y-21472744D02*
X2417438Y-21615601D01*
X2417438Y-21615601D02*
X2512676Y-21710839D01*
X2512676Y-21710839D02*
X2607914Y-21758458D01*
X2607914Y-21758458D02*
X2798390Y-21806077D01*
X2798390Y-21806077D02*
X2941247Y-21806077D01*
X2941247Y-21806077D02*
X3131723Y-21758458D01*
X3131723Y-21758458D02*
X3226961Y-21710839D01*
X3226961Y-21710839D02*
X3322200Y-21615601D01*
X3322200Y-21615601D02*
X3369819Y-21472744D01*
X3369819Y-21472744D02*
X3369819Y-21377506D01*
X3369819Y-21377506D02*
X3322200Y-21234649D01*
X3322200Y-21234649D02*
X3274580Y-21187030D01*
X3274580Y-21187030D02*
X2941247Y-21187030D01*
X2941247Y-21187030D02*
X2941247Y-21377506D01*
X2846009Y-20758458D02*
X2846009Y-20425125D01*
X3369819Y-20282268D02*
X3369819Y-20758458D01*
X3369819Y-20758458D02*
X2369819Y-20758458D01*
X2369819Y-20758458D02*
X2369819Y-20282268D01*
X2369819Y-18806077D02*
X3084104Y-18806077D01*
X3084104Y-18806077D02*
X3226961Y-18853696D01*
X3226961Y-18853696D02*
X3322200Y-18948934D01*
X3322200Y-18948934D02*
X3369819Y-19091791D01*
X3369819Y-19091791D02*
X3369819Y-19187029D01*
X2369819Y-18329886D02*
X3179342Y-18329886D01*
X3179342Y-18329886D02*
X3274580Y-18282267D01*
X3274580Y-18282267D02*
X3322200Y-18234648D01*
X3322200Y-18234648D02*
X3369819Y-18139410D01*
X3369819Y-18139410D02*
X3369819Y-17948934D01*
X3369819Y-17948934D02*
X3322200Y-17853696D01*
X3322200Y-17853696D02*
X3274580Y-17806077D01*
X3274580Y-17806077D02*
X3179342Y-17758458D01*
X3179342Y-17758458D02*
X2369819Y-17758458D01*
X3369819Y-17282267D02*
X2369819Y-17282267D01*
X2369819Y-17282267D02*
X3084104Y-16948934D01*
X3084104Y-16948934D02*
X2369819Y-16615601D01*
X2369819Y-16615601D02*
X3369819Y-16615601D01*
X3369819Y-16139410D02*
X2369819Y-16139410D01*
X2369819Y-16139410D02*
X2369819Y-15758458D01*
X2369819Y-15758458D02*
X2417438Y-15663220D01*
X2417438Y-15663220D02*
X2465057Y-15615601D01*
X2465057Y-15615601D02*
X2560295Y-15567982D01*
X2560295Y-15567982D02*
X2703152Y-15567982D01*
X2703152Y-15567982D02*
X2798390Y-15615601D01*
X2798390Y-15615601D02*
X2846009Y-15663220D01*
X2846009Y-15663220D02*
X2893628Y-15758458D01*
X2893628Y-15758458D02*
X2893628Y-16139410D01*
X2846009Y-15139410D02*
X2846009Y-14806077D01*
X3369819Y-14663220D02*
X3369819Y-15139410D01*
X3369819Y-15139410D02*
X2369819Y-15139410D01*
X2369819Y-15139410D02*
X2369819Y-14663220D01*
X3369819Y-13663220D02*
X2893628Y-13996553D01*
X3369819Y-14234648D02*
X2369819Y-14234648D01*
X2369819Y-14234648D02*
X2369819Y-13853696D01*
X2369819Y-13853696D02*
X2417438Y-13758458D01*
X2417438Y-13758458D02*
X2465057Y-13710839D01*
X2465057Y-13710839D02*
X2560295Y-13663220D01*
X2560295Y-13663220D02*
X2703152Y-13663220D01*
X2703152Y-13663220D02*
X2798390Y-13710839D01*
X2798390Y-13710839D02*
X2846009Y-13758458D01*
X2846009Y-13758458D02*
X2893628Y-13853696D01*
X2893628Y-13853696D02*
X2893628Y-14234648D01*
X34238095Y-31254819D02*
X34238095Y-30254819D01*
X34238095Y-30731009D02*
X34809523Y-30731009D01*
X34809523Y-31254819D02*
X34809523Y-30254819D01*
X35190476Y-30254819D02*
X35809523Y-30254819D01*
X35809523Y-30254819D02*
X35476190Y-30635771D01*
X35476190Y-30635771D02*
X35619047Y-30635771D01*
X35619047Y-30635771D02*
X35714285Y-30683390D01*
X35714285Y-30683390D02*
X35761904Y-30731009D01*
X35761904Y-30731009D02*
X35809523Y-30826247D01*
X35809523Y-30826247D02*
X35809523Y-31064342D01*
X35809523Y-31064342D02*
X35761904Y-31159580D01*
X35761904Y-31159580D02*
X35714285Y-31207200D01*
X35714285Y-31207200D02*
X35619047Y-31254819D01*
X35619047Y-31254819D02*
X35333333Y-31254819D01*
X35333333Y-31254819D02*
X35238095Y-31207200D01*
X35238095Y-31207200D02*
X35190476Y-31159580D01*
X4238095Y-31254819D02*
X4238095Y-30254819D01*
X4238095Y-30731009D02*
X4809523Y-30731009D01*
X4809523Y-31254819D02*
X4809523Y-30254819D01*
X5714285Y-30588152D02*
X5714285Y-31254819D01*
X5476190Y-30207200D02*
X5238095Y-30921485D01*
X5238095Y-30921485D02*
X5857142Y-30921485D01*
X4238095Y-1254819D02*
X4238095Y-254819D01*
X4238095Y-731009D02*
X4809523Y-731009D01*
X4809523Y-1254819D02*
X4809523Y-254819D01*
X5809523Y-1254819D02*
X5238095Y-1254819D01*
X5523809Y-1254819D02*
X5523809Y-254819D01*
X5523809Y-254819D02*
X5428571Y-397676D01*
X5428571Y-397676D02*
X5333333Y-492914D01*
X5333333Y-492914D02*
X5238095Y-540533D01*
X5666666Y-13599819D02*
X5666666Y-14314104D01*
X5666666Y-14314104D02*
X5619047Y-14456961D01*
X5619047Y-14456961D02*
X5523809Y-14552200D01*
X5523809Y-14552200D02*
X5380952Y-14599819D01*
X5380952Y-14599819D02*
X5285714Y-14599819D01*
X6095238Y-13695057D02*
X6142857Y-13647438D01*
X6142857Y-13647438D02*
X6238095Y-13599819D01*
X6238095Y-13599819D02*
X6476190Y-13599819D01*
X6476190Y-13599819D02*
X6571428Y-13647438D01*
X6571428Y-13647438D02*
X6619047Y-13695057D01*
X6619047Y-13695057D02*
X6666666Y-13790295D01*
X6666666Y-13790295D02*
X6666666Y-13885533D01*
X6666666Y-13885533D02*
X6619047Y-14028390D01*
X6619047Y-14028390D02*
X6047619Y-14599819D01*
X6047619Y-14599819D02*
X6666666Y-14599819D01*
D11*
X19666666Y-957419D02*
X19666666Y-1671704D01*
X19666666Y-1671704D02*
X19619047Y-1814561D01*
X19619047Y-1814561D02*
X19523809Y-1909800D01*
X19523809Y-1909800D02*
X19380952Y-1957419D01*
X19380952Y-1957419D02*
X19285714Y-1957419D01*
X20047619Y-957419D02*
X20666666Y-957419D01*
X20666666Y-957419D02*
X20333333Y-1338371D01*
X20333333Y-1338371D02*
X20476190Y-1338371D01*
X20476190Y-1338371D02*
X20571428Y-1385990D01*
X20571428Y-1385990D02*
X20619047Y-1433609D01*
X20619047Y-1433609D02*
X20666666Y-1528847D01*
X20666666Y-1528847D02*
X20666666Y-1766942D01*
X20666666Y-1766942D02*
X20619047Y-1862180D01*
X20619047Y-1862180D02*
X20571428Y-1909800D01*
X20571428Y-1909800D02*
X20476190Y-1957419D01*
X20476190Y-1957419D02*
X20190476Y-1957419D01*
X20190476Y-1957419D02*
X20095238Y-1909800D01*
X20095238Y-1909800D02*
X20047619Y-1862180D01*
D10*
X34238095Y-1254819D02*
X34238095Y-254819D01*
X34238095Y-731009D02*
X34809523Y-731009D01*
X34809523Y-1254819D02*
X34809523Y-254819D01*
X35238095Y-350057D02*
X35285714Y-302438D01*
X35285714Y-302438D02*
X35380952Y-254819D01*
X35380952Y-254819D02*
X35619047Y-254819D01*
X35619047Y-254819D02*
X35714285Y-302438D01*
X35714285Y-302438D02*
X35761904Y-350057D01*
X35761904Y-350057D02*
X35809523Y-445295D01*
X35809523Y-445295D02*
X35809523Y-540533D01*
X35809523Y-540533D02*
X35761904Y-683390D01*
X35761904Y-683390D02*
X35190476Y-1254819D01*
X35190476Y-1254819D02*
X35809523Y-1254819D01*
X12044819Y-36523333D02*
X12759104Y-36523333D01*
X12759104Y-36523333D02*
X12901961Y-36570952D01*
X12901961Y-36570952D02*
X12997200Y-36666190D01*
X12997200Y-36666190D02*
X13044819Y-36809047D01*
X13044819Y-36809047D02*
X13044819Y-36904285D01*
X13044819Y-35523333D02*
X13044819Y-36094761D01*
X13044819Y-35809047D02*
X12044819Y-35809047D01*
X12044819Y-35809047D02*
X12187676Y-35904285D01*
X12187676Y-35904285D02*
X12282914Y-35999523D01*
X12282914Y-35999523D02*
X12330533Y-36094761D01*
X27234819Y-24666666D02*
X26758628Y-24999999D01*
X27234819Y-25238094D02*
X26234819Y-25238094D01*
X26234819Y-25238094D02*
X26234819Y-24857142D01*
X26234819Y-24857142D02*
X26282438Y-24761904D01*
X26282438Y-24761904D02*
X26330057Y-24714285D01*
X26330057Y-24714285D02*
X26425295Y-24666666D01*
X26425295Y-24666666D02*
X26568152Y-24666666D01*
X26568152Y-24666666D02*
X26663390Y-24714285D01*
X26663390Y-24714285D02*
X26711009Y-24761904D01*
X26711009Y-24761904D02*
X26758628Y-24857142D01*
X26758628Y-24857142D02*
X26758628Y-25238094D01*
X26330057Y-24285713D02*
X26282438Y-24238094D01*
X26282438Y-24238094D02*
X26234819Y-24142856D01*
X26234819Y-24142856D02*
X26234819Y-23904761D01*
X26234819Y-23904761D02*
X26282438Y-23809523D01*
X26282438Y-23809523D02*
X26330057Y-23761904D01*
X26330057Y-23761904D02*
X26425295Y-23714285D01*
X26425295Y-23714285D02*
X26520533Y-23714285D01*
X26520533Y-23714285D02*
X26663390Y-23761904D01*
X26663390Y-23761904D02*
X27234819Y-24333332D01*
X27234819Y-24333332D02*
X27234819Y-23714285D01*
X21933333Y-14674819D02*
X21600000Y-14198628D01*
X21361905Y-14674819D02*
X21361905Y-13674819D01*
X21361905Y-13674819D02*
X21742857Y-13674819D01*
X21742857Y-13674819D02*
X21838095Y-13722438D01*
X21838095Y-13722438D02*
X21885714Y-13770057D01*
X21885714Y-13770057D02*
X21933333Y-13865295D01*
X21933333Y-13865295D02*
X21933333Y-14008152D01*
X21933333Y-14008152D02*
X21885714Y-14103390D01*
X21885714Y-14103390D02*
X21838095Y-14151009D01*
X21838095Y-14151009D02*
X21742857Y-14198628D01*
X21742857Y-14198628D02*
X21361905Y-14198628D01*
X22885714Y-14674819D02*
X22314286Y-14674819D01*
X22600000Y-14674819D02*
X22600000Y-13674819D01*
X22600000Y-13674819D02*
X22504762Y-13817676D01*
X22504762Y-13817676D02*
X22409524Y-13912914D01*
X22409524Y-13912914D02*
X22314286Y-13960533D01*
D12*
%TO.C,J2*%
X4670000Y-15145000D02*
X6000000Y-15145000D01*
X4670000Y-16475000D02*
X4670000Y-15145000D01*
X4670000Y-17745000D02*
X4670000Y-22885000D01*
X4670000Y-17745000D02*
X7330000Y-17745000D01*
X4670000Y-22885000D02*
X7330000Y-22885000D01*
X7330000Y-17745000D02*
X7330000Y-22885000D01*
D11*
%TO.C,J3*%
X9610000Y-100000D02*
X30390000Y-100000D01*
X30390000Y-100000D02*
X30390000Y-6300000D01*
X30390000Y-6300000D02*
X9610000Y-6300000D01*
X9610000Y-6300000D02*
X9610000Y-100000D01*
D12*
%TO.C,J1*%
X13590000Y-38790000D02*
X13590000Y-37460000D01*
X14920000Y-38790000D02*
X13590000Y-38790000D01*
X16190000Y-38790000D02*
X26410000Y-38790000D01*
X16190000Y-38790000D02*
X16190000Y-36190000D01*
X26410000Y-38790000D02*
X26410000Y-33590000D01*
X13590000Y-36190000D02*
X13590000Y-33590000D01*
X16190000Y-36190000D02*
X13590000Y-36190000D01*
X13590000Y-33590000D02*
X26410000Y-33590000D01*
%TO.C,R2*%
X25860000Y-22972936D02*
X25860000Y-26027064D01*
X23140000Y-22972936D02*
X23140000Y-26027064D01*
%TO.C,R1*%
X20572936Y-15140000D02*
X23627064Y-15140000D01*
X20572936Y-17860000D02*
X23627064Y-17860000D01*
%TD*%
M02*
