%TF.GenerationSoftware,KiCad,Pcbnew,7.0.7*%
%TF.CreationDate,2024-02-22T12:38:55+00:00*%
%TF.ProjectId,gaugeInterface_rev0,67617567-6549-46e7-9465-72666163655f,rev?*%
%TF.SameCoordinates,Original*%
%TF.FileFunction,Soldermask,Top*%
%TF.FilePolarity,Negative*%
%FSLAX46Y46*%
G04 Gerber Fmt 4.6, Leading zero omitted, Abs format (unit mm)*
G04 Created by KiCad (PCBNEW 7.0.7) date 2024-02-22 12:38:55*
%MOMM*%
%LPD*%
G01*
G04 APERTURE LIST*
G04 Aperture macros list*
%AMRoundRect*
0 Rectangle with rounded corners*
0 $1 Rounding radius*
0 $2 $3 $4 $5 $6 $7 $8 $9 X,Y pos of 4 corners*
0 Add a 4 corners polygon primitive as box body*
4,1,4,$2,$3,$4,$5,$6,$7,$8,$9,$2,$3,0*
0 Add four circle primitives for the rounded corners*
1,1,$1+$1,$2,$3*
1,1,$1+$1,$4,$5*
1,1,$1+$1,$6,$7*
1,1,$1+$1,$8,$9*
0 Add four rect primitives between the rounded corners*
20,1,$1+$1,$2,$3,$4,$5,0*
20,1,$1+$1,$4,$5,$6,$7,0*
20,1,$1+$1,$6,$7,$8,$9,0*
20,1,$1+$1,$8,$9,$2,$3,0*%
G04 Aperture macros list end*
%ADD10C,0.800000*%
%ADD11C,6.400000*%
%ADD12R,1.700000X1.700000*%
%ADD13O,1.700000X1.700000*%
%ADD14C,1.600000*%
%ADD15RoundRect,0.249999X-1.075001X0.450001X-1.075001X-0.450001X1.075001X-0.450001X1.075001X0.450001X0*%
%ADD16RoundRect,0.249999X-0.450001X-1.075001X0.450001X-1.075001X0.450001X1.075001X-0.450001X1.075001X0*%
G04 APERTURE END LIST*
D10*
%TO.C,H3*%
X32600000Y-35000000D03*
X33302944Y-33302944D03*
X33302944Y-36697056D03*
X35000000Y-32600000D03*
D11*
X35000000Y-35000000D03*
D10*
X35000000Y-37400000D03*
X36697056Y-33302944D03*
X36697056Y-36697056D03*
X37400000Y-35000000D03*
%TD*%
%TO.C,H4*%
X2600000Y-35000000D03*
X3302944Y-33302944D03*
X3302944Y-36697056D03*
X5000000Y-32600000D03*
D11*
X5000000Y-35000000D03*
D10*
X5000000Y-37400000D03*
X6697056Y-33302944D03*
X6697056Y-36697056D03*
X7400000Y-35000000D03*
%TD*%
%TO.C,H1*%
X2600000Y-5000000D03*
X3302944Y-3302944D03*
X3302944Y-6697056D03*
X5000000Y-2600000D03*
D11*
X5000000Y-5000000D03*
D10*
X5000000Y-7400000D03*
X6697056Y-3302944D03*
X6697056Y-6697056D03*
X7400000Y-5000000D03*
%TD*%
D12*
%TO.C,J2*%
X6000000Y-16475000D03*
D13*
X6000000Y-19015000D03*
X6000000Y-21555000D03*
%TD*%
D14*
%TO.C,J3*%
X11110000Y-3200000D03*
X13650000Y-3200000D03*
X16190000Y-3200000D03*
X18730000Y-3200000D03*
X21270000Y-3200000D03*
X23810000Y-3200000D03*
X26350000Y-3200000D03*
X28890000Y-3200000D03*
%TD*%
D10*
%TO.C,H2*%
X32600000Y-5000000D03*
X33302944Y-3302944D03*
X33302944Y-6697056D03*
X35000000Y-2600000D03*
D11*
X35000000Y-5000000D03*
D10*
X35000000Y-7400000D03*
X36697056Y-3302944D03*
X36697056Y-6697056D03*
X37400000Y-5000000D03*
%TD*%
D12*
%TO.C,J1*%
X14920000Y-37460000D03*
D13*
X14920000Y-34920000D03*
X17460000Y-37460000D03*
X17460000Y-34920000D03*
X20000000Y-37460000D03*
X20000000Y-34920000D03*
X22540000Y-37460000D03*
X22540000Y-34920000D03*
X25080000Y-37460000D03*
X25080000Y-34920000D03*
%TD*%
D15*
%TO.C,R2*%
X24500000Y-22100000D03*
X24500000Y-26900000D03*
%TD*%
D16*
%TO.C,R1*%
X19700000Y-16500000D03*
X24500000Y-16500000D03*
%TD*%
M02*
