%TF.GenerationSoftware,KiCad,Pcbnew,7.0.7*%
%TF.CreationDate,2024-02-22T12:38:55+00:00*%
%TF.ProjectId,gaugeInterface_rev0,67617567-6549-46e7-9465-72666163655f,rev?*%
%TF.SameCoordinates,Original*%
%TF.FileFunction,Copper,L2,Bot*%
%TF.FilePolarity,Positive*%
%FSLAX46Y46*%
G04 Gerber Fmt 4.6, Leading zero omitted, Abs format (unit mm)*
G04 Created by KiCad (PCBNEW 7.0.7) date 2024-02-22 12:38:55*
%MOMM*%
%LPD*%
G01*
G04 APERTURE LIST*
%TA.AperFunction,ComponentPad*%
%ADD10C,0.800000*%
%TD*%
%TA.AperFunction,ComponentPad*%
%ADD11C,6.400000*%
%TD*%
%TA.AperFunction,ComponentPad*%
%ADD12R,1.700000X1.700000*%
%TD*%
%TA.AperFunction,ComponentPad*%
%ADD13O,1.700000X1.700000*%
%TD*%
%TA.AperFunction,ComponentPad*%
%ADD14C,1.600000*%
%TD*%
%TA.AperFunction,Conductor*%
%ADD15C,0.500000*%
%TD*%
G04 APERTURE END LIST*
D10*
%TO.P,H3,1,1*%
%TO.N,24VDC_GND*%
X32600000Y-35000000D03*
X33302944Y-33302944D03*
X33302944Y-36697056D03*
X35000000Y-32600000D03*
D11*
X35000000Y-35000000D03*
D10*
X35000000Y-37400000D03*
X36697056Y-33302944D03*
X36697056Y-36697056D03*
X37400000Y-35000000D03*
%TD*%
%TO.P,H4,1,1*%
%TO.N,24VDC_GND*%
X2600000Y-35000000D03*
X3302944Y-33302944D03*
X3302944Y-36697056D03*
X5000000Y-32600000D03*
D11*
X5000000Y-35000000D03*
D10*
X5000000Y-37400000D03*
X6697056Y-33302944D03*
X6697056Y-36697056D03*
X7400000Y-35000000D03*
%TD*%
%TO.P,H1,1,1*%
%TO.N,24VDC_GND*%
X2600000Y-5000000D03*
X3302944Y-3302944D03*
X3302944Y-6697056D03*
X5000000Y-2600000D03*
D11*
X5000000Y-5000000D03*
D10*
X5000000Y-7400000D03*
X6697056Y-3302944D03*
X6697056Y-6697056D03*
X7400000Y-5000000D03*
%TD*%
D12*
%TO.P,J2,1,Pin_1*%
%TO.N,gaugeSignal_raw*%
X6000000Y-16475000D03*
D13*
%TO.P,J2,2,Pin_2*%
%TO.N,arduinoSignal*%
X6000000Y-19015000D03*
%TO.P,J2,3,Pin_3*%
%TO.N,gaugeSignal_divided*%
X6000000Y-21555000D03*
%TD*%
D14*
%TO.P,J3,1,Pin_1*%
%TO.N,24VDC_HOT*%
X11110000Y-3200000D03*
%TO.P,J3,2,Pin_2*%
%TO.N,24VDC_GND*%
X13650000Y-3200000D03*
%TO.P,J3,3,Pin_3*%
%TO.N,gaugeSignal_raw*%
X16190000Y-3200000D03*
%TO.P,J3,4,Pin_4*%
%TO.N,arduinoGND*%
X18730000Y-3200000D03*
%TO.P,J3,5,Pin_5*%
%TO.N,unconnected-(J3-Pin_5-Pad5)*%
X21270000Y-3200000D03*
%TO.P,J3,6,Pin_6*%
%TO.N,unconnected-(J3-Pin_6-Pad6)*%
X23810000Y-3200000D03*
%TO.P,J3,7,Pin_7*%
%TO.N,unconnected-(J3-Pin_7-Pad7)*%
X26350000Y-3200000D03*
%TO.P,J3,8,Pin_8*%
%TO.N,unconnected-(J3-Pin_8-Pad8)*%
X28890000Y-3200000D03*
%TD*%
D10*
%TO.P,H2,1,1*%
%TO.N,24VDC_GND*%
X32600000Y-5000000D03*
X33302944Y-3302944D03*
X33302944Y-6697056D03*
X35000000Y-2600000D03*
D11*
X35000000Y-5000000D03*
D10*
X35000000Y-7400000D03*
X36697056Y-3302944D03*
X36697056Y-6697056D03*
X37400000Y-5000000D03*
%TD*%
D12*
%TO.P,J1,1,Pin_1*%
%TO.N,24VDC_HOT*%
X14920000Y-37460000D03*
D13*
%TO.P,J1,2,Pin_2*%
%TO.N,arduinoSignal*%
X14920000Y-34920000D03*
%TO.P,J1,3,Pin_3*%
%TO.N,24VDC_HOT*%
X17460000Y-37460000D03*
%TO.P,J1,4,Pin_4*%
%TO.N,arduinoGND*%
X17460000Y-34920000D03*
%TO.P,J1,5,Pin_5*%
%TO.N,24VDC_GND*%
X20000000Y-37460000D03*
%TO.P,J1,6,Pin_6*%
%TO.N,unconnected-(J1-Pin_6-Pad6)*%
X20000000Y-34920000D03*
%TO.P,J1,7,Pin_7*%
%TO.N,24VDC_GND*%
X22540000Y-37460000D03*
%TO.P,J1,8,Pin_8*%
%TO.N,unconnected-(J1-Pin_8-Pad8)*%
X22540000Y-34920000D03*
%TO.P,J1,9,Pin_9*%
%TO.N,unconnected-(J1-Pin_9-Pad9)*%
X25080000Y-37460000D03*
%TO.P,J1,10,Pin_10*%
%TO.N,unconnected-(J1-Pin_10-Pad10)*%
X25080000Y-34920000D03*
%TD*%
D15*
%TO.N,arduinoSignal*%
X12650000Y-22750000D02*
X12000000Y-22750000D01*
X14920000Y-31920000D02*
X14920000Y-34920000D01*
X12000000Y-22750000D02*
X11350000Y-22750000D01*
X6000000Y-19015000D02*
X10485000Y-19015000D01*
X12000000Y-25550000D02*
X11350000Y-25550000D01*
X12000000Y-28000000D02*
X12000000Y-29000000D01*
X11350000Y-23450000D02*
X12000000Y-23450000D01*
X11650000Y-22050000D02*
X12650000Y-22050000D01*
X12000000Y-24850000D02*
X12650000Y-24850000D01*
X11350000Y-24850000D02*
X12000000Y-24850000D01*
X12000000Y-26950000D02*
X11350000Y-26950000D01*
X12650000Y-25550000D02*
X12000000Y-25550000D01*
X10485000Y-19015000D02*
X12000000Y-20530000D01*
X11350000Y-26250000D02*
X12000000Y-26250000D01*
X12000000Y-23450000D02*
X12650000Y-23450000D01*
X12000000Y-20530000D02*
X12000000Y-21000000D01*
X11650000Y-21350000D02*
X11350000Y-21350000D01*
X12650000Y-24150000D02*
X12000000Y-24150000D01*
X12000000Y-24150000D02*
X11350000Y-24150000D01*
X12000000Y-26250000D02*
X12650000Y-26250000D01*
X12650000Y-26950000D02*
X12000000Y-26950000D01*
X11350000Y-22050000D02*
X11650000Y-22050000D01*
X12000000Y-29000000D02*
X14920000Y-31920000D01*
X11350000Y-27650000D02*
X11650000Y-27650000D01*
X13000000Y-26600000D02*
G75*
G03*
X12650000Y-26250000I-350000J0D01*
G01*
X11000000Y-21700000D02*
G75*
G03*
X11350000Y-22050000I350000J0D01*
G01*
X11000000Y-23100000D02*
G75*
G03*
X11350000Y-23450000I350000J0D01*
G01*
X11650000Y-21350000D02*
G75*
G03*
X12000000Y-21000000I0J350000D01*
G01*
X12650000Y-26950000D02*
G75*
G03*
X13000000Y-26600000I0J350000D01*
G01*
X11350000Y-24150000D02*
G75*
G03*
X11000000Y-24500000I0J-350000D01*
G01*
X11000000Y-25900000D02*
G75*
G03*
X11350000Y-26250000I350000J0D01*
G01*
X11350000Y-21350000D02*
G75*
G03*
X11000000Y-21700000I0J-350000D01*
G01*
X12650000Y-22750000D02*
G75*
G03*
X13000000Y-22400000I0J350000D01*
G01*
X13000000Y-25200000D02*
G75*
G03*
X12650000Y-24850000I-350000J0D01*
G01*
X11350000Y-26950000D02*
G75*
G03*
X11000000Y-27300000I0J-350000D01*
G01*
X11000000Y-24500000D02*
G75*
G03*
X11350000Y-24850000I350000J0D01*
G01*
X13000000Y-22400000D02*
G75*
G03*
X12650000Y-22050000I-350000J0D01*
G01*
X12650000Y-25550000D02*
G75*
G03*
X13000000Y-25200000I0J350000D01*
G01*
X12650000Y-24150000D02*
G75*
G03*
X13000000Y-23800000I0J350000D01*
G01*
X11350000Y-25550000D02*
G75*
G03*
X11000000Y-25900000I0J-350000D01*
G01*
X12000000Y-28000000D02*
G75*
G03*
X11650000Y-27650000I-350000J0D01*
G01*
X13000000Y-23800000D02*
G75*
G03*
X12650000Y-23450000I-350000J0D01*
G01*
X11000000Y-27300000D02*
G75*
G03*
X11350000Y-27650000I350000J0D01*
G01*
X11350000Y-22750000D02*
G75*
G03*
X11000000Y-23100000I0J-350000D01*
G01*
%TD*%
%TA.AperFunction,Conductor*%
%TO.N,24VDC_GND*%
G36*
X21993692Y-37229685D02*
G01*
X22039447Y-37282489D01*
X22049391Y-37351647D01*
X22045631Y-37368933D01*
X22040000Y-37388111D01*
X22040000Y-37531888D01*
X22045631Y-37551067D01*
X22045630Y-37620936D01*
X22007855Y-37679714D01*
X21944299Y-37708738D01*
X21926653Y-37710000D01*
X20613347Y-37710000D01*
X20546308Y-37690315D01*
X20500553Y-37637511D01*
X20490609Y-37568353D01*
X20494369Y-37551067D01*
X20500000Y-37531888D01*
X20500000Y-37388111D01*
X20494369Y-37368933D01*
X20494370Y-37299064D01*
X20532145Y-37240286D01*
X20595701Y-37211262D01*
X20613347Y-37210000D01*
X21926653Y-37210000D01*
X21993692Y-37229685D01*
G37*
%TD.AperFunction*%
%TA.AperFunction,Conductor*%
G36*
X6392586Y-36039033D02*
G01*
X6621915Y-36268362D01*
X6655400Y-36329685D01*
X6650416Y-36399377D01*
X6608544Y-36455310D01*
X6603126Y-36459144D01*
X6516816Y-36516815D01*
X6516815Y-36516816D01*
X6459144Y-36603126D01*
X6405532Y-36647930D01*
X6336207Y-36656637D01*
X6273180Y-36626482D01*
X6268362Y-36621915D01*
X6039033Y-36392586D01*
X6005548Y-36331263D01*
X6010532Y-36261571D01*
X6046180Y-36210617D01*
X6134870Y-36134870D01*
X6210617Y-36046180D01*
X6269121Y-36007990D01*
X6338989Y-36007490D01*
X6392586Y-36039033D01*
G37*
%TD.AperFunction*%
%TA.AperFunction,Conductor*%
G36*
X3738428Y-36010531D02*
G01*
X3789381Y-36046179D01*
X3865130Y-36134870D01*
X3901818Y-36166204D01*
X3953816Y-36210615D01*
X3992009Y-36269122D01*
X3992507Y-36338990D01*
X3960965Y-36392586D01*
X3731636Y-36621915D01*
X3670313Y-36655400D01*
X3600621Y-36650416D01*
X3544688Y-36608544D01*
X3540853Y-36603124D01*
X3531146Y-36588597D01*
X3483184Y-36516816D01*
X3400489Y-36461561D01*
X3400488Y-36461560D01*
X3396873Y-36459145D01*
X3352068Y-36405533D01*
X3343361Y-36336208D01*
X3373515Y-36273180D01*
X3378083Y-36268362D01*
X3607413Y-36039032D01*
X3668736Y-36005547D01*
X3738428Y-36010531D01*
G37*
%TD.AperFunction*%
%TA.AperFunction,Conductor*%
G36*
X6399377Y-33349582D02*
G01*
X6455310Y-33391454D01*
X6459145Y-33396873D01*
X6516816Y-33483184D01*
X6603124Y-33540853D01*
X6647930Y-33594465D01*
X6656637Y-33663790D01*
X6626483Y-33726817D01*
X6621915Y-33731636D01*
X6392586Y-33960965D01*
X6331263Y-33994450D01*
X6261571Y-33989466D01*
X6210615Y-33953816D01*
X6148856Y-33881506D01*
X6134870Y-33865130D01*
X6046179Y-33789381D01*
X6007989Y-33730878D01*
X6007489Y-33661010D01*
X6039032Y-33607413D01*
X6268362Y-33378083D01*
X6329685Y-33344598D01*
X6399377Y-33349582D01*
G37*
%TD.AperFunction*%
%TA.AperFunction,Conductor*%
G36*
X3726818Y-33373516D02*
G01*
X3731637Y-33378084D01*
X3960966Y-33607413D01*
X3994451Y-33668736D01*
X3989467Y-33738428D01*
X3953817Y-33789384D01*
X3865130Y-33865130D01*
X3789384Y-33953817D01*
X3730877Y-33992010D01*
X3661009Y-33992508D01*
X3607413Y-33960966D01*
X3378084Y-33731637D01*
X3344599Y-33670314D01*
X3349583Y-33600622D01*
X3391455Y-33544689D01*
X3396874Y-33540854D01*
X3400487Y-33538439D01*
X3400489Y-33538439D01*
X3483184Y-33483184D01*
X3538439Y-33400489D01*
X3538439Y-33400487D01*
X3540854Y-33396874D01*
X3594466Y-33352069D01*
X3663791Y-33343362D01*
X3726818Y-33373516D01*
G37*
%TD.AperFunction*%
%TA.AperFunction,Conductor*%
G36*
X36392586Y-36039033D02*
G01*
X36621915Y-36268362D01*
X36655400Y-36329685D01*
X36650416Y-36399377D01*
X36608544Y-36455310D01*
X36603126Y-36459144D01*
X36516816Y-36516815D01*
X36516815Y-36516816D01*
X36459144Y-36603126D01*
X36405532Y-36647930D01*
X36336207Y-36656637D01*
X36273180Y-36626482D01*
X36268362Y-36621915D01*
X36039033Y-36392586D01*
X36005548Y-36331263D01*
X36010532Y-36261571D01*
X36046180Y-36210617D01*
X36134870Y-36134870D01*
X36210617Y-36046180D01*
X36269121Y-36007990D01*
X36338989Y-36007490D01*
X36392586Y-36039033D01*
G37*
%TD.AperFunction*%
%TA.AperFunction,Conductor*%
G36*
X33738428Y-36010531D02*
G01*
X33789381Y-36046179D01*
X33865130Y-36134870D01*
X33901818Y-36166204D01*
X33953816Y-36210615D01*
X33992009Y-36269122D01*
X33992507Y-36338990D01*
X33960965Y-36392586D01*
X33731636Y-36621915D01*
X33670313Y-36655400D01*
X33600621Y-36650416D01*
X33544688Y-36608544D01*
X33540853Y-36603124D01*
X33531146Y-36588597D01*
X33483184Y-36516816D01*
X33400489Y-36461561D01*
X33400488Y-36461560D01*
X33396873Y-36459145D01*
X33352068Y-36405533D01*
X33343361Y-36336208D01*
X33373515Y-36273180D01*
X33378083Y-36268362D01*
X33607413Y-36039032D01*
X33668736Y-36005547D01*
X33738428Y-36010531D01*
G37*
%TD.AperFunction*%
%TA.AperFunction,Conductor*%
G36*
X36399377Y-33349582D02*
G01*
X36455310Y-33391454D01*
X36459145Y-33396873D01*
X36516816Y-33483184D01*
X36603124Y-33540853D01*
X36647930Y-33594465D01*
X36656637Y-33663790D01*
X36626483Y-33726817D01*
X36621915Y-33731636D01*
X36392586Y-33960965D01*
X36331263Y-33994450D01*
X36261571Y-33989466D01*
X36210615Y-33953816D01*
X36148856Y-33881506D01*
X36134870Y-33865130D01*
X36046179Y-33789381D01*
X36007989Y-33730878D01*
X36007489Y-33661010D01*
X36039032Y-33607413D01*
X36268362Y-33378083D01*
X36329685Y-33344598D01*
X36399377Y-33349582D01*
G37*
%TD.AperFunction*%
%TA.AperFunction,Conductor*%
G36*
X33726818Y-33373516D02*
G01*
X33731637Y-33378084D01*
X33960966Y-33607413D01*
X33994451Y-33668736D01*
X33989467Y-33738428D01*
X33953817Y-33789384D01*
X33865130Y-33865130D01*
X33789384Y-33953817D01*
X33730877Y-33992010D01*
X33661009Y-33992508D01*
X33607413Y-33960966D01*
X33378084Y-33731637D01*
X33344599Y-33670314D01*
X33349583Y-33600622D01*
X33391455Y-33544689D01*
X33396874Y-33540854D01*
X33400487Y-33538439D01*
X33400489Y-33538439D01*
X33483184Y-33483184D01*
X33538439Y-33400489D01*
X33538439Y-33400487D01*
X33540854Y-33396874D01*
X33594466Y-33352069D01*
X33663791Y-33343362D01*
X33726818Y-33373516D01*
G37*
%TD.AperFunction*%
%TA.AperFunction,Conductor*%
G36*
X6392586Y-6039033D02*
G01*
X6621915Y-6268362D01*
X6655400Y-6329685D01*
X6650416Y-6399377D01*
X6608544Y-6455310D01*
X6603126Y-6459144D01*
X6516816Y-6516815D01*
X6516815Y-6516816D01*
X6459144Y-6603126D01*
X6405532Y-6647930D01*
X6336207Y-6656637D01*
X6273180Y-6626482D01*
X6268362Y-6621915D01*
X6039033Y-6392586D01*
X6005548Y-6331263D01*
X6010532Y-6261571D01*
X6046180Y-6210617D01*
X6134870Y-6134870D01*
X6210617Y-6046180D01*
X6269121Y-6007990D01*
X6338989Y-6007490D01*
X6392586Y-6039033D01*
G37*
%TD.AperFunction*%
%TA.AperFunction,Conductor*%
G36*
X3738428Y-6010531D02*
G01*
X3789381Y-6046179D01*
X3865130Y-6134870D01*
X3928855Y-6189296D01*
X3953816Y-6210615D01*
X3992009Y-6269122D01*
X3992507Y-6338990D01*
X3960965Y-6392586D01*
X3731636Y-6621915D01*
X3670313Y-6655400D01*
X3600621Y-6650416D01*
X3544688Y-6608544D01*
X3540853Y-6603124D01*
X3483184Y-6516816D01*
X3396873Y-6459145D01*
X3352068Y-6405533D01*
X3343361Y-6336208D01*
X3373515Y-6273180D01*
X3378083Y-6268362D01*
X3607413Y-6039032D01*
X3668736Y-6005547D01*
X3738428Y-6010531D01*
G37*
%TD.AperFunction*%
%TA.AperFunction,Conductor*%
G36*
X6399377Y-3349582D02*
G01*
X6455310Y-3391454D01*
X6459145Y-3396873D01*
X6461560Y-3400488D01*
X6461561Y-3400489D01*
X6516816Y-3483184D01*
X6561811Y-3513249D01*
X6603124Y-3540853D01*
X6647930Y-3594465D01*
X6656637Y-3663790D01*
X6626483Y-3726817D01*
X6621915Y-3731636D01*
X6392586Y-3960965D01*
X6331263Y-3994450D01*
X6261571Y-3989466D01*
X6210615Y-3953816D01*
X6186406Y-3925471D01*
X6134870Y-3865130D01*
X6046179Y-3789381D01*
X6007989Y-3730878D01*
X6007489Y-3661010D01*
X6039032Y-3607413D01*
X6268362Y-3378083D01*
X6329685Y-3344598D01*
X6399377Y-3349582D01*
G37*
%TD.AperFunction*%
%TA.AperFunction,Conductor*%
G36*
X3726818Y-3373516D02*
G01*
X3731637Y-3378084D01*
X3960966Y-3607413D01*
X3994451Y-3668736D01*
X3989467Y-3738428D01*
X3953817Y-3789384D01*
X3865130Y-3865130D01*
X3789384Y-3953817D01*
X3730877Y-3992010D01*
X3661009Y-3992508D01*
X3607413Y-3960966D01*
X3378084Y-3731637D01*
X3344599Y-3670314D01*
X3349583Y-3600622D01*
X3391455Y-3544689D01*
X3396874Y-3540854D01*
X3400487Y-3538439D01*
X3400489Y-3538439D01*
X3483184Y-3483184D01*
X3538439Y-3400489D01*
X3538439Y-3400487D01*
X3540854Y-3396874D01*
X3594466Y-3352069D01*
X3663791Y-3343362D01*
X3726818Y-3373516D01*
G37*
%TD.AperFunction*%
%TA.AperFunction,Conductor*%
G36*
X36392586Y-6039033D02*
G01*
X36621915Y-6268362D01*
X36655400Y-6329685D01*
X36650416Y-6399377D01*
X36608544Y-6455310D01*
X36603126Y-6459144D01*
X36516816Y-6516815D01*
X36516815Y-6516816D01*
X36459144Y-6603126D01*
X36405532Y-6647930D01*
X36336207Y-6656637D01*
X36273180Y-6626482D01*
X36268362Y-6621915D01*
X36039033Y-6392586D01*
X36005548Y-6331263D01*
X36010532Y-6261571D01*
X36046180Y-6210617D01*
X36134870Y-6134870D01*
X36210617Y-6046180D01*
X36269121Y-6007990D01*
X36338989Y-6007490D01*
X36392586Y-6039033D01*
G37*
%TD.AperFunction*%
%TA.AperFunction,Conductor*%
G36*
X33738428Y-6010531D02*
G01*
X33789381Y-6046179D01*
X33865130Y-6134870D01*
X33928855Y-6189296D01*
X33953816Y-6210615D01*
X33992009Y-6269122D01*
X33992507Y-6338990D01*
X33960965Y-6392586D01*
X33731636Y-6621915D01*
X33670313Y-6655400D01*
X33600621Y-6650416D01*
X33544688Y-6608544D01*
X33540853Y-6603124D01*
X33483184Y-6516816D01*
X33396873Y-6459145D01*
X33352068Y-6405533D01*
X33343361Y-6336208D01*
X33373515Y-6273180D01*
X33378083Y-6268362D01*
X33607413Y-6039032D01*
X33668736Y-6005547D01*
X33738428Y-6010531D01*
G37*
%TD.AperFunction*%
%TA.AperFunction,Conductor*%
G36*
X36399377Y-3349582D02*
G01*
X36455310Y-3391454D01*
X36459145Y-3396873D01*
X36461560Y-3400488D01*
X36461561Y-3400489D01*
X36516816Y-3483184D01*
X36561811Y-3513249D01*
X36603124Y-3540853D01*
X36647930Y-3594465D01*
X36656637Y-3663790D01*
X36626483Y-3726817D01*
X36621915Y-3731636D01*
X36392586Y-3960965D01*
X36331263Y-3994450D01*
X36261571Y-3989466D01*
X36210615Y-3953816D01*
X36186406Y-3925471D01*
X36134870Y-3865130D01*
X36046179Y-3789381D01*
X36007989Y-3730878D01*
X36007489Y-3661010D01*
X36039032Y-3607413D01*
X36268362Y-3378083D01*
X36329685Y-3344598D01*
X36399377Y-3349582D01*
G37*
%TD.AperFunction*%
%TA.AperFunction,Conductor*%
G36*
X33726818Y-3373516D02*
G01*
X33731637Y-3378084D01*
X33960966Y-3607413D01*
X33994451Y-3668736D01*
X33989467Y-3738428D01*
X33953817Y-3789384D01*
X33865130Y-3865130D01*
X33789384Y-3953817D01*
X33730877Y-3992010D01*
X33661009Y-3992508D01*
X33607413Y-3960966D01*
X33378084Y-3731637D01*
X33344599Y-3670314D01*
X33349583Y-3600622D01*
X33391455Y-3544689D01*
X33396874Y-3540854D01*
X33400487Y-3538439D01*
X33400489Y-3538439D01*
X33483184Y-3483184D01*
X33538439Y-3400489D01*
X33538439Y-3400487D01*
X33540854Y-3396874D01*
X33594466Y-3352069D01*
X33663791Y-3343362D01*
X33726818Y-3373516D01*
G37*
%TD.AperFunction*%
%TA.AperFunction,Conductor*%
G36*
X37001619Y-584D02*
G01*
X37133628Y-7503D01*
X37317027Y-17803D01*
X37323212Y-18465D01*
X37475647Y-42608D01*
X37638194Y-70226D01*
X37643811Y-71453D01*
X37796693Y-112418D01*
X37889122Y-139046D01*
X37951724Y-157082D01*
X37956759Y-158769D01*
X38106183Y-216127D01*
X38254007Y-277358D01*
X38258412Y-279388D01*
X38324180Y-312899D01*
X38401921Y-352511D01*
X38477428Y-394241D01*
X38541480Y-429641D01*
X38545215Y-431882D01*
X38619487Y-480115D01*
X38680872Y-519980D01*
X38768357Y-582053D01*
X38810764Y-612142D01*
X38813886Y-614510D01*
X38938748Y-715621D01*
X38941034Y-717567D01*
X39058721Y-822738D01*
X39061248Y-825128D01*
X39174870Y-938750D01*
X39177260Y-941277D01*
X39282431Y-1058964D01*
X39284385Y-1061260D01*
X39385480Y-1186102D01*
X39387862Y-1189243D01*
X39480019Y-1319127D01*
X39533758Y-1401875D01*
X39568106Y-1454767D01*
X39570364Y-1458531D01*
X39647488Y-1598078D01*
X39720604Y-1741575D01*
X39722643Y-1745997D01*
X39783877Y-1893829D01*
X39841221Y-2043217D01*
X39842916Y-2048273D01*
X39887579Y-2203297D01*
X39928541Y-2356171D01*
X39929778Y-2361835D01*
X39957394Y-2524369D01*
X39981530Y-2676758D01*
X39982196Y-2682985D01*
X39992509Y-2866617D01*
X39999415Y-2998377D01*
X39999500Y-3001623D01*
X39999500Y-36998376D01*
X39999415Y-37001622D01*
X39992509Y-37133382D01*
X39982196Y-37317013D01*
X39981530Y-37323240D01*
X39957394Y-37475630D01*
X39929778Y-37638163D01*
X39928541Y-37643827D01*
X39887579Y-37796702D01*
X39842916Y-37951725D01*
X39841221Y-37956781D01*
X39783877Y-38106170D01*
X39722643Y-38254001D01*
X39720604Y-38258423D01*
X39647488Y-38401921D01*
X39570364Y-38541467D01*
X39568097Y-38545246D01*
X39480019Y-38680872D01*
X39387862Y-38810755D01*
X39385480Y-38813896D01*
X39284385Y-38938738D01*
X39282431Y-38941034D01*
X39177260Y-39058721D01*
X39174870Y-39061248D01*
X39061248Y-39174870D01*
X39058721Y-39177260D01*
X38941034Y-39282431D01*
X38938738Y-39284385D01*
X38813896Y-39385480D01*
X38810755Y-39387862D01*
X38680872Y-39480019D01*
X38545246Y-39568097D01*
X38541467Y-39570364D01*
X38401921Y-39647488D01*
X38258423Y-39720604D01*
X38254001Y-39722643D01*
X38106170Y-39783877D01*
X37956781Y-39841221D01*
X37951725Y-39842916D01*
X37796702Y-39887579D01*
X37643827Y-39928541D01*
X37638163Y-39929778D01*
X37475630Y-39957394D01*
X37323240Y-39981530D01*
X37317013Y-39982196D01*
X37133382Y-39992509D01*
X37001622Y-39999415D01*
X36998376Y-39999500D01*
X3001624Y-39999500D01*
X2998378Y-39999415D01*
X2866617Y-39992509D01*
X2682985Y-39982196D01*
X2676758Y-39981530D01*
X2524369Y-39957394D01*
X2361835Y-39929778D01*
X2356171Y-39928541D01*
X2203297Y-39887579D01*
X2048273Y-39842916D01*
X2043217Y-39841221D01*
X1893829Y-39783877D01*
X1745997Y-39722643D01*
X1741575Y-39720604D01*
X1598078Y-39647488D01*
X1458531Y-39570364D01*
X1454767Y-39568106D01*
X1401875Y-39533758D01*
X1319127Y-39480019D01*
X1189243Y-39387862D01*
X1186102Y-39385480D01*
X1061260Y-39284385D01*
X1058964Y-39282431D01*
X941277Y-39177260D01*
X938750Y-39174870D01*
X825128Y-39061248D01*
X822738Y-39058721D01*
X717567Y-38941034D01*
X715613Y-38938738D01*
X615946Y-38815659D01*
X614510Y-38813886D01*
X612136Y-38810755D01*
X611954Y-38810499D01*
X582053Y-38768357D01*
X519980Y-38680872D01*
X483119Y-38624112D01*
X431882Y-38545215D01*
X429641Y-38541480D01*
X394241Y-38477428D01*
X352511Y-38401921D01*
X312899Y-38324180D01*
X279388Y-38258412D01*
X277358Y-38254007D01*
X216122Y-38106170D01*
X158769Y-37956759D01*
X157082Y-37951724D01*
X112420Y-37796702D01*
X107316Y-37777652D01*
X71453Y-37643811D01*
X70226Y-37638194D01*
X42601Y-37475606D01*
X18465Y-37323212D01*
X17803Y-37317027D01*
X7490Y-37133382D01*
X584Y-37001620D01*
X500Y-36998377D01*
X500Y-35000000D01*
X1294922Y-35000000D01*
X1315219Y-35387287D01*
X1375886Y-35770323D01*
X1375887Y-35770330D01*
X1476262Y-36144936D01*
X1615244Y-36506994D01*
X1791310Y-36852543D01*
X2002531Y-37177793D01*
X2211095Y-37435350D01*
X2211096Y-37435350D01*
X2874250Y-36772195D01*
X2935573Y-36738710D01*
X3005264Y-36743694D01*
X3061198Y-36785565D01*
X3065033Y-36790985D01*
X3122704Y-36877296D01*
X3209012Y-36934965D01*
X3253818Y-36988577D01*
X3262525Y-37057902D01*
X3232371Y-37120929D01*
X3227803Y-37125748D01*
X2564648Y-37788902D01*
X2564649Y-37788904D01*
X2822206Y-37997468D01*
X3147456Y-38208689D01*
X3493005Y-38384755D01*
X3855063Y-38523737D01*
X4229669Y-38624112D01*
X4229676Y-38624113D01*
X4612712Y-38684780D01*
X4999999Y-38705078D01*
X5000001Y-38705078D01*
X5387287Y-38684780D01*
X5770323Y-38624113D01*
X5770330Y-38624112D01*
X6144936Y-38523737D01*
X6506994Y-38384755D01*
X6852543Y-38208689D01*
X7177783Y-37997476D01*
X7177785Y-37997475D01*
X7435349Y-37788902D01*
X6772196Y-37125749D01*
X6738711Y-37064426D01*
X6743695Y-36994734D01*
X6785567Y-36938801D01*
X6790986Y-36934966D01*
X6794599Y-36932551D01*
X6794601Y-36932551D01*
X6877296Y-36877296D01*
X6932551Y-36794601D01*
X6932551Y-36794599D01*
X6934966Y-36790986D01*
X6988578Y-36746181D01*
X7057903Y-36737474D01*
X7120930Y-36767628D01*
X7125749Y-36772196D01*
X7788902Y-37435349D01*
X7997475Y-37177785D01*
X7997476Y-37177783D01*
X8208689Y-36852543D01*
X8384755Y-36506994D01*
X8523737Y-36144936D01*
X8624112Y-35770330D01*
X8624113Y-35770323D01*
X8684780Y-35387287D01*
X8705078Y-35000000D01*
X8705078Y-34999999D01*
X8684780Y-34612712D01*
X8624113Y-34229676D01*
X8624112Y-34229669D01*
X8523737Y-33855063D01*
X8384755Y-33493005D01*
X8208689Y-33147456D01*
X7997468Y-32822206D01*
X7788904Y-32564649D01*
X7788902Y-32564648D01*
X7125748Y-33227803D01*
X7064425Y-33261288D01*
X6994733Y-33256304D01*
X6938800Y-33214432D01*
X6934965Y-33209012D01*
X6877296Y-33122704D01*
X6790985Y-33065033D01*
X6746180Y-33011421D01*
X6737473Y-32942096D01*
X6767627Y-32879068D01*
X6772195Y-32874250D01*
X7435350Y-32211096D01*
X7435350Y-32211095D01*
X7177793Y-32002531D01*
X6852543Y-31791310D01*
X6506994Y-31615244D01*
X6144936Y-31476262D01*
X5770330Y-31375887D01*
X5770323Y-31375886D01*
X5387287Y-31315219D01*
X5000001Y-31294922D01*
X4999999Y-31294922D01*
X4612712Y-31315219D01*
X4229676Y-31375886D01*
X4229669Y-31375887D01*
X3855063Y-31476262D01*
X3493005Y-31615244D01*
X3147456Y-31791310D01*
X2822206Y-32002531D01*
X2564648Y-32211095D01*
X2564648Y-32211096D01*
X3227803Y-32874251D01*
X3261288Y-32935574D01*
X3256304Y-33005266D01*
X3214432Y-33061199D01*
X3209013Y-33065034D01*
X3122704Y-33122704D01*
X3065034Y-33209013D01*
X3011422Y-33253818D01*
X2942097Y-33262525D01*
X2879069Y-33232370D01*
X2874251Y-33227803D01*
X2211096Y-32564648D01*
X2211095Y-32564648D01*
X2002531Y-32822206D01*
X1791310Y-33147456D01*
X1615244Y-33493005D01*
X1476262Y-33855063D01*
X1375887Y-34229669D01*
X1375886Y-34229676D01*
X1315219Y-34612712D01*
X1294922Y-34999999D01*
X1294922Y-35000000D01*
X500Y-35000000D01*
X500Y-21555000D01*
X4644341Y-21555000D01*
X4664936Y-21790403D01*
X4664938Y-21790413D01*
X4726094Y-22018655D01*
X4726096Y-22018659D01*
X4726097Y-22018663D01*
X4770592Y-22114082D01*
X4825965Y-22232830D01*
X4825967Y-22232834D01*
X4896547Y-22333632D01*
X4961505Y-22426401D01*
X5128599Y-22593495D01*
X5225384Y-22661264D01*
X5322165Y-22729032D01*
X5322167Y-22729033D01*
X5322170Y-22729035D01*
X5536337Y-22828903D01*
X5764592Y-22890063D01*
X5952918Y-22906539D01*
X5999999Y-22910659D01*
X6000000Y-22910659D01*
X6000001Y-22910659D01*
X6039234Y-22907226D01*
X6235408Y-22890063D01*
X6463663Y-22828903D01*
X6677830Y-22729035D01*
X6871401Y-22593495D01*
X7038495Y-22426401D01*
X7174035Y-22232830D01*
X7273903Y-22018663D01*
X7335063Y-21790408D01*
X7355659Y-21555000D01*
X7335063Y-21319592D01*
X7275228Y-21096281D01*
X7273905Y-21091344D01*
X7273904Y-21091343D01*
X7273903Y-21091337D01*
X7174035Y-20877171D01*
X7116554Y-20795078D01*
X7038494Y-20683597D01*
X6871402Y-20516506D01*
X6871396Y-20516501D01*
X6685842Y-20386575D01*
X6642217Y-20331998D01*
X6635023Y-20262500D01*
X6666546Y-20200145D01*
X6685842Y-20183425D01*
X6766842Y-20126708D01*
X6871401Y-20053495D01*
X7038495Y-19886401D01*
X7086126Y-19818376D01*
X7140704Y-19774751D01*
X7187701Y-19765500D01*
X10122770Y-19765500D01*
X10189809Y-19785185D01*
X10210451Y-19801819D01*
X10911063Y-20502431D01*
X10944548Y-20563754D01*
X10939564Y-20633446D01*
X10897692Y-20689379D01*
X10885382Y-20697499D01*
X10716369Y-20795078D01*
X10716366Y-20795080D01*
X10568855Y-20918855D01*
X10445080Y-21066366D01*
X10445078Y-21066369D01*
X10348800Y-21233127D01*
X10348797Y-21233134D01*
X10282937Y-21414082D01*
X10249500Y-21603716D01*
X10249500Y-21796283D01*
X10282937Y-21985917D01*
X10348797Y-22166865D01*
X10348800Y-22166872D01*
X10447601Y-22338000D01*
X10464074Y-22405900D01*
X10447601Y-22462000D01*
X10348800Y-22633127D01*
X10348797Y-22633134D01*
X10282937Y-22814082D01*
X10249500Y-23003716D01*
X10249500Y-23196283D01*
X10282937Y-23385917D01*
X10348797Y-23566865D01*
X10348800Y-23566872D01*
X10447601Y-23738000D01*
X10464074Y-23805900D01*
X10447601Y-23862000D01*
X10348800Y-24033127D01*
X10348797Y-24033134D01*
X10282937Y-24214082D01*
X10249500Y-24403716D01*
X10249500Y-24596283D01*
X10282937Y-24785917D01*
X10348797Y-24966865D01*
X10348800Y-24966872D01*
X10447601Y-25138000D01*
X10464074Y-25205900D01*
X10447601Y-25262000D01*
X10348800Y-25433127D01*
X10348797Y-25433134D01*
X10282937Y-25614082D01*
X10249500Y-25803716D01*
X10249500Y-25996283D01*
X10282937Y-26185917D01*
X10348797Y-26366865D01*
X10348800Y-26366872D01*
X10447601Y-26538000D01*
X10464074Y-26605900D01*
X10447601Y-26662000D01*
X10348800Y-26833127D01*
X10348797Y-26833134D01*
X10282937Y-27014082D01*
X10249500Y-27203716D01*
X10249500Y-27396283D01*
X10282937Y-27585917D01*
X10348797Y-27766865D01*
X10348800Y-27766872D01*
X10445078Y-27933630D01*
X10445080Y-27933633D01*
X10568855Y-28081144D01*
X10675475Y-28170608D01*
X10716368Y-28204921D01*
X10883132Y-28301202D01*
X11064082Y-28367062D01*
X11147032Y-28381688D01*
X11209635Y-28412714D01*
X11245525Y-28472661D01*
X11249500Y-28503804D01*
X11249500Y-28936294D01*
X11248191Y-28954263D01*
X11244710Y-28978025D01*
X11249264Y-29030064D01*
X11249500Y-29035470D01*
X11249500Y-29043709D01*
X11253306Y-29076274D01*
X11260000Y-29152791D01*
X11261461Y-29159867D01*
X11261403Y-29159878D01*
X11263034Y-29167237D01*
X11263092Y-29167224D01*
X11264757Y-29174250D01*
X11291025Y-29246424D01*
X11315185Y-29319331D01*
X11318236Y-29325874D01*
X11318182Y-29325898D01*
X11321470Y-29332688D01*
X11321521Y-29332663D01*
X11324761Y-29339113D01*
X11324762Y-29339114D01*
X11324763Y-29339117D01*
X11366965Y-29403283D01*
X11407287Y-29468655D01*
X11411766Y-29474319D01*
X11411719Y-29474356D01*
X11416482Y-29480202D01*
X11416528Y-29480164D01*
X11421173Y-29485700D01*
X11477018Y-29538386D01*
X14133181Y-32194548D01*
X14166666Y-32255871D01*
X14169500Y-32282229D01*
X14169500Y-33732298D01*
X14149815Y-33799337D01*
X14116625Y-33833872D01*
X14048595Y-33881507D01*
X13881505Y-34048597D01*
X13745965Y-34242169D01*
X13745964Y-34242171D01*
X13646098Y-34456335D01*
X13646094Y-34456344D01*
X13584938Y-34684586D01*
X13584936Y-34684596D01*
X13564341Y-34919999D01*
X13564341Y-34920000D01*
X13584936Y-35155403D01*
X13584938Y-35155413D01*
X13646094Y-35383655D01*
X13646096Y-35383659D01*
X13646097Y-35383663D01*
X13647787Y-35387287D01*
X13745965Y-35597830D01*
X13745967Y-35597834D01*
X13837553Y-35728631D01*
X13881501Y-35791396D01*
X13881506Y-35791402D01*
X14003430Y-35913326D01*
X14036915Y-35974649D01*
X14031931Y-36044341D01*
X13990059Y-36100274D01*
X13959083Y-36117189D01*
X13827669Y-36166203D01*
X13827664Y-36166206D01*
X13712455Y-36252452D01*
X13712452Y-36252455D01*
X13626206Y-36367664D01*
X13626202Y-36367671D01*
X13575908Y-36502517D01*
X13569501Y-36562116D01*
X13569500Y-36562135D01*
X13569500Y-38357870D01*
X13569501Y-38357876D01*
X13575908Y-38417483D01*
X13626202Y-38552328D01*
X13626206Y-38552335D01*
X13712452Y-38667544D01*
X13712455Y-38667547D01*
X13827664Y-38753793D01*
X13827671Y-38753797D01*
X13962517Y-38804091D01*
X13962516Y-38804091D01*
X13969444Y-38804835D01*
X14022127Y-38810500D01*
X15817872Y-38810499D01*
X15877483Y-38804091D01*
X16012331Y-38753796D01*
X16127546Y-38667546D01*
X16213796Y-38552331D01*
X16262810Y-38420916D01*
X16304681Y-38364984D01*
X16370145Y-38340566D01*
X16438418Y-38355417D01*
X16466673Y-38376569D01*
X16588599Y-38498495D01*
X16685384Y-38566264D01*
X16782165Y-38634032D01*
X16782167Y-38634033D01*
X16782170Y-38634035D01*
X16996337Y-38733903D01*
X17224592Y-38795063D01*
X17401034Y-38810500D01*
X17459999Y-38815659D01*
X17460000Y-38815659D01*
X17460001Y-38815659D01*
X17499234Y-38812226D01*
X17695408Y-38795063D01*
X17923663Y-38733903D01*
X18137830Y-38634035D01*
X18331401Y-38498495D01*
X18498495Y-38331401D01*
X18628730Y-38145405D01*
X18683307Y-38101781D01*
X18752805Y-38094587D01*
X18815160Y-38126110D01*
X18831879Y-38145405D01*
X18961890Y-38331078D01*
X19128917Y-38498105D01*
X19322421Y-38633600D01*
X19536507Y-38733429D01*
X19536516Y-38733433D01*
X19750000Y-38790634D01*
X19750000Y-38072301D01*
X19769685Y-38005262D01*
X19822489Y-37959507D01*
X19891647Y-37949563D01*
X19964237Y-37960000D01*
X19964238Y-37960000D01*
X20035762Y-37960000D01*
X20035763Y-37960000D01*
X20108353Y-37949563D01*
X20177512Y-37959507D01*
X20230315Y-38005262D01*
X20250000Y-38072301D01*
X20250000Y-38790633D01*
X20463483Y-38733433D01*
X20463492Y-38733429D01*
X20677578Y-38633600D01*
X20871082Y-38498105D01*
X21038105Y-38331082D01*
X21168425Y-38144968D01*
X21223002Y-38101344D01*
X21292501Y-38094151D01*
X21354855Y-38125673D01*
X21371575Y-38144968D01*
X21501894Y-38331082D01*
X21668917Y-38498105D01*
X21862421Y-38633600D01*
X22076507Y-38733429D01*
X22076516Y-38733433D01*
X22290000Y-38790634D01*
X22290000Y-38072301D01*
X22309685Y-38005262D01*
X22362489Y-37959507D01*
X22431647Y-37949563D01*
X22504237Y-37960000D01*
X22504238Y-37960000D01*
X22575762Y-37960000D01*
X22575763Y-37960000D01*
X22648353Y-37949563D01*
X22717512Y-37959507D01*
X22770315Y-38005262D01*
X22790000Y-38072301D01*
X22790000Y-38790633D01*
X23003483Y-38733433D01*
X23003492Y-38733429D01*
X23217578Y-38633600D01*
X23411082Y-38498105D01*
X23578105Y-38331082D01*
X23708119Y-38145405D01*
X23762696Y-38101781D01*
X23832195Y-38094588D01*
X23894549Y-38126110D01*
X23911269Y-38145405D01*
X24041505Y-38331401D01*
X24208599Y-38498495D01*
X24305384Y-38566264D01*
X24402165Y-38634032D01*
X24402167Y-38634033D01*
X24402170Y-38634035D01*
X24616337Y-38733903D01*
X24844592Y-38795063D01*
X25021034Y-38810500D01*
X25079999Y-38815659D01*
X25080000Y-38815659D01*
X25080001Y-38815659D01*
X25119234Y-38812226D01*
X25315408Y-38795063D01*
X25543663Y-38733903D01*
X25757830Y-38634035D01*
X25951401Y-38498495D01*
X26118495Y-38331401D01*
X26254035Y-38137830D01*
X26353903Y-37923663D01*
X26415063Y-37695408D01*
X26435659Y-37460000D01*
X26415063Y-37224592D01*
X26355319Y-37001622D01*
X26353905Y-36996344D01*
X26353904Y-36996343D01*
X26353903Y-36996337D01*
X26254035Y-36782171D01*
X26248731Y-36774595D01*
X26118494Y-36588597D01*
X25951402Y-36421506D01*
X25951396Y-36421501D01*
X25765842Y-36291575D01*
X25722217Y-36236998D01*
X25715023Y-36167500D01*
X25746546Y-36105145D01*
X25765842Y-36088425D01*
X25878054Y-36009853D01*
X25951401Y-35958495D01*
X26118495Y-35791401D01*
X26254035Y-35597830D01*
X26353903Y-35383663D01*
X26415063Y-35155408D01*
X26428660Y-35000000D01*
X31294922Y-35000000D01*
X31315219Y-35387287D01*
X31375886Y-35770323D01*
X31375887Y-35770330D01*
X31476262Y-36144936D01*
X31615244Y-36506994D01*
X31791310Y-36852543D01*
X32002531Y-37177793D01*
X32211095Y-37435350D01*
X32211096Y-37435350D01*
X32874250Y-36772195D01*
X32935573Y-36738710D01*
X33005264Y-36743694D01*
X33061198Y-36785565D01*
X33065033Y-36790985D01*
X33122704Y-36877296D01*
X33209012Y-36934965D01*
X33253818Y-36988577D01*
X33262525Y-37057902D01*
X33232371Y-37120929D01*
X33227803Y-37125748D01*
X32564648Y-37788902D01*
X32564649Y-37788904D01*
X32822206Y-37997468D01*
X33147456Y-38208689D01*
X33493005Y-38384755D01*
X33855063Y-38523737D01*
X34229669Y-38624112D01*
X34229676Y-38624113D01*
X34612712Y-38684780D01*
X34999999Y-38705078D01*
X35000001Y-38705078D01*
X35387287Y-38684780D01*
X35770323Y-38624113D01*
X35770330Y-38624112D01*
X36144936Y-38523737D01*
X36506994Y-38384755D01*
X36852543Y-38208689D01*
X37177783Y-37997476D01*
X37177785Y-37997475D01*
X37435349Y-37788902D01*
X36772196Y-37125749D01*
X36738711Y-37064426D01*
X36743695Y-36994734D01*
X36785567Y-36938801D01*
X36790986Y-36934966D01*
X36794599Y-36932551D01*
X36794601Y-36932551D01*
X36877296Y-36877296D01*
X36932551Y-36794601D01*
X36932551Y-36794599D01*
X36934966Y-36790986D01*
X36988578Y-36746181D01*
X37057903Y-36737474D01*
X37120930Y-36767628D01*
X37125749Y-36772196D01*
X37788902Y-37435349D01*
X37997475Y-37177785D01*
X37997476Y-37177783D01*
X38208689Y-36852543D01*
X38384755Y-36506994D01*
X38523737Y-36144936D01*
X38624112Y-35770330D01*
X38624113Y-35770323D01*
X38684780Y-35387287D01*
X38705078Y-35000000D01*
X38705078Y-34999999D01*
X38684780Y-34612712D01*
X38624113Y-34229676D01*
X38624112Y-34229669D01*
X38523737Y-33855063D01*
X38384755Y-33493005D01*
X38208689Y-33147456D01*
X37997468Y-32822206D01*
X37788904Y-32564649D01*
X37788902Y-32564648D01*
X37125748Y-33227803D01*
X37064425Y-33261288D01*
X36994733Y-33256304D01*
X36938800Y-33214432D01*
X36934965Y-33209012D01*
X36877296Y-33122704D01*
X36790985Y-33065033D01*
X36746180Y-33011421D01*
X36737473Y-32942096D01*
X36767627Y-32879068D01*
X36772195Y-32874250D01*
X37435350Y-32211096D01*
X37435350Y-32211095D01*
X37177793Y-32002531D01*
X36852543Y-31791310D01*
X36506994Y-31615244D01*
X36144936Y-31476262D01*
X35770330Y-31375887D01*
X35770323Y-31375886D01*
X35387287Y-31315219D01*
X35000001Y-31294922D01*
X34999999Y-31294922D01*
X34612712Y-31315219D01*
X34229676Y-31375886D01*
X34229669Y-31375887D01*
X33855063Y-31476262D01*
X33493005Y-31615244D01*
X33147456Y-31791310D01*
X32822206Y-32002531D01*
X32564648Y-32211095D01*
X32564648Y-32211096D01*
X33227803Y-32874251D01*
X33261288Y-32935574D01*
X33256304Y-33005266D01*
X33214432Y-33061199D01*
X33209013Y-33065034D01*
X33122704Y-33122704D01*
X33065034Y-33209013D01*
X33011422Y-33253818D01*
X32942097Y-33262525D01*
X32879069Y-33232370D01*
X32874251Y-33227803D01*
X32211096Y-32564648D01*
X32211095Y-32564648D01*
X32002531Y-32822206D01*
X31791310Y-33147456D01*
X31615244Y-33493005D01*
X31476262Y-33855063D01*
X31375887Y-34229669D01*
X31375886Y-34229676D01*
X31315219Y-34612712D01*
X31294922Y-34999999D01*
X31294922Y-35000000D01*
X26428660Y-35000000D01*
X26435659Y-34920000D01*
X26415063Y-34684592D01*
X26353903Y-34456337D01*
X26254035Y-34242171D01*
X26248425Y-34234158D01*
X26118494Y-34048597D01*
X25951402Y-33881506D01*
X25951395Y-33881501D01*
X25928016Y-33865131D01*
X25883374Y-33833872D01*
X25757834Y-33745967D01*
X25757830Y-33745965D01*
X25728521Y-33732298D01*
X25543663Y-33646097D01*
X25543659Y-33646096D01*
X25543655Y-33646094D01*
X25315413Y-33584938D01*
X25315403Y-33584936D01*
X25080001Y-33564341D01*
X25079999Y-33564341D01*
X24844596Y-33584936D01*
X24844586Y-33584938D01*
X24616344Y-33646094D01*
X24616335Y-33646098D01*
X24402171Y-33745964D01*
X24402169Y-33745965D01*
X24208597Y-33881505D01*
X24041505Y-34048597D01*
X23911575Y-34234158D01*
X23856998Y-34277783D01*
X23787500Y-34284977D01*
X23725145Y-34253454D01*
X23708425Y-34234158D01*
X23578494Y-34048597D01*
X23411402Y-33881506D01*
X23411395Y-33881501D01*
X23388016Y-33865131D01*
X23343374Y-33833872D01*
X23217834Y-33745967D01*
X23217830Y-33745965D01*
X23188521Y-33732298D01*
X23003663Y-33646097D01*
X23003659Y-33646096D01*
X23003655Y-33646094D01*
X22775413Y-33584938D01*
X22775403Y-33584936D01*
X22540001Y-33564341D01*
X22539999Y-33564341D01*
X22304596Y-33584936D01*
X22304586Y-33584938D01*
X22076344Y-33646094D01*
X22076335Y-33646098D01*
X21862171Y-33745964D01*
X21862169Y-33745965D01*
X21668597Y-33881505D01*
X21501505Y-34048597D01*
X21371575Y-34234158D01*
X21316998Y-34277783D01*
X21247500Y-34284977D01*
X21185145Y-34253454D01*
X21168425Y-34234158D01*
X21038494Y-34048597D01*
X20871402Y-33881506D01*
X20871395Y-33881501D01*
X20848016Y-33865131D01*
X20803374Y-33833872D01*
X20677834Y-33745967D01*
X20677830Y-33745965D01*
X20648521Y-33732298D01*
X20463663Y-33646097D01*
X20463659Y-33646096D01*
X20463655Y-33646094D01*
X20235413Y-33584938D01*
X20235403Y-33584936D01*
X20000001Y-33564341D01*
X19999999Y-33564341D01*
X19764596Y-33584936D01*
X19764586Y-33584938D01*
X19536344Y-33646094D01*
X19536335Y-33646098D01*
X19322171Y-33745964D01*
X19322169Y-33745965D01*
X19128597Y-33881505D01*
X18961505Y-34048597D01*
X18831575Y-34234158D01*
X18776998Y-34277783D01*
X18707500Y-34284977D01*
X18645145Y-34253454D01*
X18628425Y-34234158D01*
X18498494Y-34048597D01*
X18331402Y-33881506D01*
X18331395Y-33881501D01*
X18308016Y-33865131D01*
X18263374Y-33833872D01*
X18137834Y-33745967D01*
X18137830Y-33745965D01*
X18108521Y-33732298D01*
X17923663Y-33646097D01*
X17923659Y-33646096D01*
X17923655Y-33646094D01*
X17695413Y-33584938D01*
X17695403Y-33584936D01*
X17460001Y-33564341D01*
X17459999Y-33564341D01*
X17224596Y-33584936D01*
X17224586Y-33584938D01*
X16996344Y-33646094D01*
X16996335Y-33646098D01*
X16782171Y-33745964D01*
X16782169Y-33745965D01*
X16588597Y-33881505D01*
X16421505Y-34048597D01*
X16291575Y-34234158D01*
X16236998Y-34277783D01*
X16167500Y-34284977D01*
X16105145Y-34253454D01*
X16088425Y-34234158D01*
X15958494Y-34048597D01*
X15791404Y-33881507D01*
X15723375Y-33833872D01*
X15679751Y-33779294D01*
X15670500Y-33732298D01*
X15670500Y-31983705D01*
X15671809Y-31965735D01*
X15672129Y-31963547D01*
X15675289Y-31941977D01*
X15670735Y-31889931D01*
X15670500Y-31884528D01*
X15670500Y-31876297D01*
X15670500Y-31876291D01*
X15666693Y-31843724D01*
X15659999Y-31767203D01*
X15659999Y-31767201D01*
X15658539Y-31760129D01*
X15658597Y-31760116D01*
X15656965Y-31752757D01*
X15656906Y-31752772D01*
X15655242Y-31745753D01*
X15655241Y-31745745D01*
X15628974Y-31673576D01*
X15604814Y-31600666D01*
X15604809Y-31600659D01*
X15601760Y-31594118D01*
X15601815Y-31594091D01*
X15598533Y-31587313D01*
X15598480Y-31587340D01*
X15595235Y-31580880D01*
X15553028Y-31516708D01*
X15512710Y-31451342D01*
X15508234Y-31445682D01*
X15508281Y-31445644D01*
X15503519Y-31439799D01*
X15503474Y-31439838D01*
X15498834Y-31434308D01*
X15442964Y-31381596D01*
X12786819Y-28725451D01*
X12753334Y-28664128D01*
X12750500Y-28637770D01*
X12750500Y-27903721D01*
X12750500Y-27903719D01*
X12737152Y-27828020D01*
X12744896Y-27758584D01*
X12788952Y-27704355D01*
X12837736Y-27684374D01*
X12935918Y-27667062D01*
X13116868Y-27601202D01*
X13283632Y-27504921D01*
X13431144Y-27381144D01*
X13554921Y-27233632D01*
X13651202Y-27066868D01*
X13717062Y-26885918D01*
X13750500Y-26696281D01*
X13750500Y-26600000D01*
X13750500Y-26521119D01*
X13750500Y-26503719D01*
X13717062Y-26314082D01*
X13651202Y-26133132D01*
X13554921Y-25966368D01*
X13554920Y-25966367D01*
X13552399Y-25962000D01*
X13535926Y-25894100D01*
X13552399Y-25838000D01*
X13572193Y-25803716D01*
X13651202Y-25666868D01*
X13717062Y-25485918D01*
X13750500Y-25296281D01*
X13750500Y-25200000D01*
X13750500Y-25121119D01*
X13750500Y-25103719D01*
X13717062Y-24914082D01*
X13651202Y-24733132D01*
X13554921Y-24566368D01*
X13554920Y-24566367D01*
X13552399Y-24562000D01*
X13535926Y-24494100D01*
X13552399Y-24438000D01*
X13572193Y-24403716D01*
X13651202Y-24266868D01*
X13717062Y-24085918D01*
X13750500Y-23896281D01*
X13750500Y-23800000D01*
X13750500Y-23721119D01*
X13750500Y-23703719D01*
X13717062Y-23514082D01*
X13651202Y-23333132D01*
X13554921Y-23166368D01*
X13554920Y-23166367D01*
X13552399Y-23162000D01*
X13535926Y-23094100D01*
X13552399Y-23038000D01*
X13637810Y-22890063D01*
X13651202Y-22866868D01*
X13717062Y-22685918D01*
X13750500Y-22496281D01*
X13750500Y-22400000D01*
X13750500Y-22321119D01*
X13750500Y-22303719D01*
X13717062Y-22114082D01*
X13651202Y-21933132D01*
X13554921Y-21766368D01*
X13499232Y-21700000D01*
X13431144Y-21618855D01*
X13283633Y-21495080D01*
X13283632Y-21495079D01*
X13143341Y-21414082D01*
X13116872Y-21398800D01*
X13116869Y-21398799D01*
X13116868Y-21398798D01*
X12935918Y-21332938D01*
X12837735Y-21315625D01*
X12775132Y-21284598D01*
X12739242Y-21224651D01*
X12737152Y-21171980D01*
X12750500Y-21096281D01*
X12750500Y-21000000D01*
X12750500Y-20921119D01*
X12750500Y-20593704D01*
X12751809Y-20575736D01*
X12755289Y-20551974D01*
X12752138Y-20515970D01*
X12750735Y-20499931D01*
X12750500Y-20494528D01*
X12750500Y-20486297D01*
X12750500Y-20486291D01*
X12746693Y-20453724D01*
X12739999Y-20377203D01*
X12739999Y-20377201D01*
X12738539Y-20370129D01*
X12738597Y-20370116D01*
X12736965Y-20362757D01*
X12736906Y-20362772D01*
X12735242Y-20355753D01*
X12735241Y-20355745D01*
X12708974Y-20283576D01*
X12684814Y-20210666D01*
X12684809Y-20210659D01*
X12681760Y-20204118D01*
X12681815Y-20204091D01*
X12678533Y-20197313D01*
X12678480Y-20197340D01*
X12675235Y-20190880D01*
X12633028Y-20126708D01*
X12592710Y-20061342D01*
X12588234Y-20055682D01*
X12588281Y-20055644D01*
X12583519Y-20049799D01*
X12583474Y-20049838D01*
X12578834Y-20044309D01*
X12578832Y-20044307D01*
X12578830Y-20044304D01*
X12548061Y-20015275D01*
X12522965Y-19991597D01*
X11060729Y-18529361D01*
X11048949Y-18515730D01*
X11041482Y-18505701D01*
X11034612Y-18496472D01*
X11034610Y-18496470D01*
X10994587Y-18462886D01*
X10990612Y-18459244D01*
X10987690Y-18456322D01*
X10984780Y-18453411D01*
X10959040Y-18433059D01*
X10900209Y-18383694D01*
X10894180Y-18379729D01*
X10894212Y-18379680D01*
X10887853Y-18375628D01*
X10887822Y-18375679D01*
X10881680Y-18371891D01*
X10881678Y-18371890D01*
X10881677Y-18371889D01*
X10842474Y-18353608D01*
X10812058Y-18339424D01*
X10777894Y-18322267D01*
X10743433Y-18304960D01*
X10743431Y-18304959D01*
X10743430Y-18304959D01*
X10736645Y-18302489D01*
X10736665Y-18302433D01*
X10729549Y-18299959D01*
X10729531Y-18300015D01*
X10722671Y-18297742D01*
X10694841Y-18291996D01*
X10647434Y-18282207D01*
X10598472Y-18270603D01*
X10572719Y-18264499D01*
X10565547Y-18263661D01*
X10565553Y-18263601D01*
X10558055Y-18262835D01*
X10558050Y-18262895D01*
X10550860Y-18262265D01*
X10474083Y-18264500D01*
X7187701Y-18264500D01*
X7120662Y-18244815D01*
X7086126Y-18211623D01*
X7038496Y-18143600D01*
X7038495Y-18143599D01*
X6916567Y-18021671D01*
X6883084Y-17960351D01*
X6888068Y-17890659D01*
X6929939Y-17834725D01*
X6960915Y-17817810D01*
X7092331Y-17768796D01*
X7207546Y-17682546D01*
X7293796Y-17567331D01*
X7344091Y-17432483D01*
X7350500Y-17372873D01*
X7350499Y-15577128D01*
X7344091Y-15517517D01*
X7293796Y-15382669D01*
X7293795Y-15382668D01*
X7293793Y-15382664D01*
X7207547Y-15267455D01*
X7207544Y-15267452D01*
X7092335Y-15181206D01*
X7092328Y-15181202D01*
X6957482Y-15130908D01*
X6957483Y-15130908D01*
X6897883Y-15124501D01*
X6897881Y-15124500D01*
X6897873Y-15124500D01*
X6897864Y-15124500D01*
X5102129Y-15124500D01*
X5102123Y-15124501D01*
X5042516Y-15130908D01*
X4907671Y-15181202D01*
X4907664Y-15181206D01*
X4792455Y-15267452D01*
X4792452Y-15267455D01*
X4706206Y-15382664D01*
X4706202Y-15382671D01*
X4655908Y-15517517D01*
X4649501Y-15577116D01*
X4649501Y-15577123D01*
X4649500Y-15577135D01*
X4649500Y-17372870D01*
X4649501Y-17372876D01*
X4655908Y-17432483D01*
X4706202Y-17567328D01*
X4706206Y-17567335D01*
X4792452Y-17682544D01*
X4792455Y-17682547D01*
X4907664Y-17768793D01*
X4907671Y-17768797D01*
X5039081Y-17817810D01*
X5095015Y-17859681D01*
X5119432Y-17925145D01*
X5104580Y-17993418D01*
X5083430Y-18021673D01*
X4961503Y-18143600D01*
X4825965Y-18337169D01*
X4825964Y-18337171D01*
X4726098Y-18551335D01*
X4726094Y-18551344D01*
X4664938Y-18779586D01*
X4664936Y-18779596D01*
X4644341Y-19014999D01*
X4644341Y-19015000D01*
X4664936Y-19250403D01*
X4664938Y-19250413D01*
X4726094Y-19478655D01*
X4726096Y-19478659D01*
X4726097Y-19478663D01*
X4825965Y-19692829D01*
X4825965Y-19692830D01*
X4825967Y-19692834D01*
X4961501Y-19886395D01*
X4961506Y-19886402D01*
X5128597Y-20053493D01*
X5128603Y-20053498D01*
X5314158Y-20183425D01*
X5357783Y-20238002D01*
X5364977Y-20307500D01*
X5333454Y-20369855D01*
X5314158Y-20386575D01*
X5128597Y-20516505D01*
X4961505Y-20683597D01*
X4825965Y-20877169D01*
X4825964Y-20877171D01*
X4726098Y-21091335D01*
X4726094Y-21091344D01*
X4664938Y-21319586D01*
X4664936Y-21319596D01*
X4644341Y-21554999D01*
X4644341Y-21555000D01*
X500Y-21555000D01*
X500Y-5000000D01*
X1294922Y-5000000D01*
X1315219Y-5387287D01*
X1375886Y-5770323D01*
X1375887Y-5770330D01*
X1476262Y-6144936D01*
X1615244Y-6506994D01*
X1791310Y-6852543D01*
X2002531Y-7177793D01*
X2211095Y-7435350D01*
X2211096Y-7435350D01*
X2874250Y-6772195D01*
X2935573Y-6738710D01*
X3005264Y-6743694D01*
X3061198Y-6785565D01*
X3065033Y-6790985D01*
X3122704Y-6877296D01*
X3209012Y-6934965D01*
X3253818Y-6988577D01*
X3262525Y-7057902D01*
X3232371Y-7120929D01*
X3227803Y-7125748D01*
X2564648Y-7788902D01*
X2564649Y-7788904D01*
X2822206Y-7997468D01*
X3147456Y-8208689D01*
X3493005Y-8384755D01*
X3855063Y-8523737D01*
X4229669Y-8624112D01*
X4229676Y-8624113D01*
X4612712Y-8684780D01*
X4999999Y-8705078D01*
X5000001Y-8705078D01*
X5387287Y-8684780D01*
X5770323Y-8624113D01*
X5770330Y-8624112D01*
X6144936Y-8523737D01*
X6506994Y-8384755D01*
X6852543Y-8208689D01*
X7177783Y-7997476D01*
X7177785Y-7997475D01*
X7435349Y-7788902D01*
X6772196Y-7125749D01*
X6738711Y-7064426D01*
X6743695Y-6994734D01*
X6785567Y-6938801D01*
X6790986Y-6934966D01*
X6794599Y-6932551D01*
X6794601Y-6932551D01*
X6877296Y-6877296D01*
X6932551Y-6794601D01*
X6932551Y-6794599D01*
X6934966Y-6790986D01*
X6988578Y-6746181D01*
X7057903Y-6737474D01*
X7120930Y-6767628D01*
X7125749Y-6772196D01*
X7788902Y-7435349D01*
X7997475Y-7177785D01*
X7997476Y-7177783D01*
X8208689Y-6852543D01*
X8384755Y-6506994D01*
X8523737Y-6144936D01*
X8624112Y-5770330D01*
X8624113Y-5770323D01*
X8684780Y-5387287D01*
X8705078Y-5000000D01*
X31294922Y-5000000D01*
X31315219Y-5387287D01*
X31375886Y-5770323D01*
X31375887Y-5770330D01*
X31476262Y-6144936D01*
X31615244Y-6506994D01*
X31791310Y-6852543D01*
X32002531Y-7177793D01*
X32211095Y-7435350D01*
X32211096Y-7435350D01*
X32874250Y-6772195D01*
X32935573Y-6738710D01*
X33005264Y-6743694D01*
X33061198Y-6785565D01*
X33065033Y-6790985D01*
X33122704Y-6877296D01*
X33209012Y-6934965D01*
X33253818Y-6988577D01*
X33262525Y-7057902D01*
X33232371Y-7120929D01*
X33227803Y-7125748D01*
X32564648Y-7788902D01*
X32564649Y-7788904D01*
X32822206Y-7997468D01*
X33147456Y-8208689D01*
X33493005Y-8384755D01*
X33855063Y-8523737D01*
X34229669Y-8624112D01*
X34229676Y-8624113D01*
X34612712Y-8684780D01*
X34999999Y-8705078D01*
X35000001Y-8705078D01*
X35387287Y-8684780D01*
X35770323Y-8624113D01*
X35770330Y-8624112D01*
X36144936Y-8523737D01*
X36506994Y-8384755D01*
X36852543Y-8208689D01*
X37177783Y-7997476D01*
X37177785Y-7997475D01*
X37435349Y-7788902D01*
X36772196Y-7125749D01*
X36738711Y-7064426D01*
X36743695Y-6994734D01*
X36785567Y-6938801D01*
X36790986Y-6934966D01*
X36794599Y-6932551D01*
X36794601Y-6932551D01*
X36877296Y-6877296D01*
X36932551Y-6794601D01*
X36932551Y-6794599D01*
X36934966Y-6790986D01*
X36988578Y-6746181D01*
X37057903Y-6737474D01*
X37120930Y-6767628D01*
X37125749Y-6772196D01*
X37788902Y-7435349D01*
X37997475Y-7177785D01*
X37997476Y-7177783D01*
X38208689Y-6852543D01*
X38384755Y-6506994D01*
X38523737Y-6144936D01*
X38624112Y-5770330D01*
X38624113Y-5770323D01*
X38684780Y-5387287D01*
X38705078Y-5000000D01*
X38705078Y-4999999D01*
X38684780Y-4612712D01*
X38624113Y-4229676D01*
X38624112Y-4229669D01*
X38523737Y-3855063D01*
X38384755Y-3493005D01*
X38208689Y-3147456D01*
X37997468Y-2822206D01*
X37788904Y-2564649D01*
X37788902Y-2564648D01*
X37125748Y-3227803D01*
X37064425Y-3261288D01*
X36994733Y-3256304D01*
X36938800Y-3214432D01*
X36934965Y-3209012D01*
X36928943Y-3200000D01*
X36877296Y-3122704D01*
X36794601Y-3067449D01*
X36794600Y-3067448D01*
X36790985Y-3065033D01*
X36746180Y-3011421D01*
X36737473Y-2942096D01*
X36767627Y-2879068D01*
X36772195Y-2874250D01*
X37435350Y-2211096D01*
X37435350Y-2211095D01*
X37177793Y-2002531D01*
X36852543Y-1791310D01*
X36506994Y-1615244D01*
X36144936Y-1476262D01*
X35770330Y-1375887D01*
X35770323Y-1375886D01*
X35387287Y-1315219D01*
X35000001Y-1294922D01*
X34999999Y-1294922D01*
X34612712Y-1315219D01*
X34229676Y-1375886D01*
X34229669Y-1375887D01*
X33855063Y-1476262D01*
X33493005Y-1615244D01*
X33147456Y-1791310D01*
X32822206Y-2002531D01*
X32564648Y-2211095D01*
X32564648Y-2211096D01*
X33227803Y-2874251D01*
X33261288Y-2935574D01*
X33256304Y-3005266D01*
X33214432Y-3061199D01*
X33209013Y-3065034D01*
X33122704Y-3122704D01*
X33065034Y-3209013D01*
X33011422Y-3253818D01*
X32942097Y-3262525D01*
X32879069Y-3232370D01*
X32874251Y-3227803D01*
X32211096Y-2564648D01*
X32211095Y-2564648D01*
X32002531Y-2822206D01*
X31791310Y-3147456D01*
X31615244Y-3493005D01*
X31476262Y-3855063D01*
X31375887Y-4229669D01*
X31375886Y-4229676D01*
X31315219Y-4612712D01*
X31294922Y-4999999D01*
X31294922Y-5000000D01*
X8705078Y-5000000D01*
X8705078Y-4999999D01*
X8684780Y-4612712D01*
X8624113Y-4229676D01*
X8624112Y-4229669D01*
X8523737Y-3855063D01*
X8384755Y-3493005D01*
X8235462Y-3200001D01*
X9804532Y-3200001D01*
X9824364Y-3426686D01*
X9824366Y-3426697D01*
X9883258Y-3646488D01*
X9883261Y-3646497D01*
X9979431Y-3852732D01*
X9979432Y-3852734D01*
X10109954Y-4039141D01*
X10270858Y-4200045D01*
X10270861Y-4200047D01*
X10457266Y-4330568D01*
X10663504Y-4426739D01*
X10883308Y-4485635D01*
X11045230Y-4499801D01*
X11109998Y-4505468D01*
X11110000Y-4505468D01*
X11110002Y-4505468D01*
X11166672Y-4500509D01*
X11336692Y-4485635D01*
X11556496Y-4426739D01*
X11762734Y-4330568D01*
X11949139Y-4200047D01*
X12110047Y-4039139D01*
X12240568Y-3852734D01*
X12267895Y-3794129D01*
X12314064Y-3741695D01*
X12381257Y-3722542D01*
X12448139Y-3742757D01*
X12492657Y-3794133D01*
X12519865Y-3852481D01*
X12519866Y-3852483D01*
X12570973Y-3925471D01*
X12570973Y-3925472D01*
X13001481Y-3494963D01*
X13062804Y-3461478D01*
X13132495Y-3466462D01*
X13188429Y-3508333D01*
X13191514Y-3513249D01*
X13191549Y-3513225D01*
X13196441Y-3520156D01*
X13271592Y-3600622D01*
X13299638Y-3630652D01*
X13334698Y-3651973D01*
X13381749Y-3703623D01*
X13393407Y-3772513D01*
X13365970Y-3836770D01*
X13357950Y-3845601D01*
X12924526Y-4279025D01*
X12924526Y-4279026D01*
X12997512Y-4330131D01*
X12997516Y-4330133D01*
X13203673Y-4426265D01*
X13203682Y-4426269D01*
X13423389Y-4485139D01*
X13423400Y-4485141D01*
X13649998Y-4504966D01*
X13650002Y-4504966D01*
X13876599Y-4485141D01*
X13876610Y-4485139D01*
X14096317Y-4426269D01*
X14096331Y-4426264D01*
X14302478Y-4330136D01*
X14375472Y-4279025D01*
X13943165Y-3846719D01*
X13909680Y-3785396D01*
X13914664Y-3715705D01*
X13952589Y-3662852D01*
X14055739Y-3578934D01*
X14106052Y-3507655D01*
X14160793Y-3464239D01*
X14230318Y-3457309D01*
X14292553Y-3489067D01*
X14295037Y-3491483D01*
X14729025Y-3925472D01*
X14780133Y-3852482D01*
X14807341Y-3794135D01*
X14853513Y-3741696D01*
X14920707Y-3722543D01*
X14987588Y-3742758D01*
X15032105Y-3794132D01*
X15059432Y-3852734D01*
X15110363Y-3925471D01*
X15189954Y-4039141D01*
X15350858Y-4200045D01*
X15350861Y-4200047D01*
X15537266Y-4330568D01*
X15743504Y-4426739D01*
X15963308Y-4485635D01*
X16125230Y-4499801D01*
X16189998Y-4505468D01*
X16190000Y-4505468D01*
X16190002Y-4505468D01*
X16246672Y-4500509D01*
X16416692Y-4485635D01*
X16636496Y-4426739D01*
X16842734Y-4330568D01*
X17029139Y-4200047D01*
X17190047Y-4039139D01*
X17320568Y-3852734D01*
X17347618Y-3794724D01*
X17393790Y-3742285D01*
X17460983Y-3723133D01*
X17527865Y-3743348D01*
X17572382Y-3794725D01*
X17599429Y-3852728D01*
X17599432Y-3852734D01*
X17729954Y-4039141D01*
X17890858Y-4200045D01*
X17890861Y-4200047D01*
X18077266Y-4330568D01*
X18283504Y-4426739D01*
X18503308Y-4485635D01*
X18665230Y-4499801D01*
X18729998Y-4505468D01*
X18730000Y-4505468D01*
X18730002Y-4505468D01*
X18786672Y-4500509D01*
X18956692Y-4485635D01*
X19176496Y-4426739D01*
X19382734Y-4330568D01*
X19569139Y-4200047D01*
X19730047Y-4039139D01*
X19860568Y-3852734D01*
X19887618Y-3794724D01*
X19933790Y-3742285D01*
X20000983Y-3723133D01*
X20067865Y-3743348D01*
X20112382Y-3794725D01*
X20139429Y-3852728D01*
X20139432Y-3852734D01*
X20269954Y-4039141D01*
X20430858Y-4200045D01*
X20430861Y-4200047D01*
X20617266Y-4330568D01*
X20823504Y-4426739D01*
X21043308Y-4485635D01*
X21205230Y-4499801D01*
X21269998Y-4505468D01*
X21270000Y-4505468D01*
X21270002Y-4505468D01*
X21326672Y-4500509D01*
X21496692Y-4485635D01*
X21716496Y-4426739D01*
X21922734Y-4330568D01*
X22109139Y-4200047D01*
X22270047Y-4039139D01*
X22400568Y-3852734D01*
X22427618Y-3794724D01*
X22473790Y-3742285D01*
X22540983Y-3723133D01*
X22607865Y-3743348D01*
X22652382Y-3794725D01*
X22679429Y-3852728D01*
X22679432Y-3852734D01*
X22809954Y-4039141D01*
X22970858Y-4200045D01*
X22970861Y-4200047D01*
X23157266Y-4330568D01*
X23363504Y-4426739D01*
X23583308Y-4485635D01*
X23745230Y-4499801D01*
X23809998Y-4505468D01*
X23810000Y-4505468D01*
X23810002Y-4505468D01*
X23866672Y-4500509D01*
X24036692Y-4485635D01*
X24256496Y-4426739D01*
X24462734Y-4330568D01*
X24649139Y-4200047D01*
X24810047Y-4039139D01*
X24940568Y-3852734D01*
X24967618Y-3794724D01*
X25013790Y-3742285D01*
X25080983Y-3723133D01*
X25147865Y-3743348D01*
X25192382Y-3794725D01*
X25219429Y-3852728D01*
X25219432Y-3852734D01*
X25349954Y-4039141D01*
X25510858Y-4200045D01*
X25510861Y-4200047D01*
X25697266Y-4330568D01*
X25903504Y-4426739D01*
X26123308Y-4485635D01*
X26285230Y-4499801D01*
X26349998Y-4505468D01*
X26350000Y-4505468D01*
X26350002Y-4505468D01*
X26406672Y-4500509D01*
X26576692Y-4485635D01*
X26796496Y-4426739D01*
X27002734Y-4330568D01*
X27189139Y-4200047D01*
X27350047Y-4039139D01*
X27480568Y-3852734D01*
X27507618Y-3794724D01*
X27553790Y-3742285D01*
X27620983Y-3723133D01*
X27687865Y-3743348D01*
X27732382Y-3794725D01*
X27759429Y-3852728D01*
X27759432Y-3852734D01*
X27889954Y-4039141D01*
X28050858Y-4200045D01*
X28050861Y-4200047D01*
X28237266Y-4330568D01*
X28443504Y-4426739D01*
X28663308Y-4485635D01*
X28825230Y-4499801D01*
X28889998Y-4505468D01*
X28890000Y-4505468D01*
X28890002Y-4505468D01*
X28946672Y-4500509D01*
X29116692Y-4485635D01*
X29336496Y-4426739D01*
X29542734Y-4330568D01*
X29729139Y-4200047D01*
X29890047Y-4039139D01*
X30020568Y-3852734D01*
X30116739Y-3646496D01*
X30175635Y-3426692D01*
X30194205Y-3214432D01*
X30195468Y-3200001D01*
X30195468Y-3199998D01*
X30182602Y-3052944D01*
X30175635Y-2973308D01*
X30116739Y-2753504D01*
X30020568Y-2547266D01*
X29890047Y-2360861D01*
X29890045Y-2360858D01*
X29729141Y-2199954D01*
X29542734Y-2069432D01*
X29542732Y-2069431D01*
X29336497Y-1973261D01*
X29336488Y-1973258D01*
X29116697Y-1914366D01*
X29116693Y-1914365D01*
X29116692Y-1914365D01*
X29116691Y-1914364D01*
X29116686Y-1914364D01*
X28890002Y-1894532D01*
X28889998Y-1894532D01*
X28663313Y-1914364D01*
X28663302Y-1914366D01*
X28443511Y-1973258D01*
X28443502Y-1973261D01*
X28237267Y-2069431D01*
X28237265Y-2069432D01*
X28050858Y-2199954D01*
X27889954Y-2360858D01*
X27759432Y-2547265D01*
X27759431Y-2547267D01*
X27732382Y-2605275D01*
X27686209Y-2657714D01*
X27619016Y-2676866D01*
X27552135Y-2656650D01*
X27507618Y-2605275D01*
X27505158Y-2600000D01*
X27480568Y-2547266D01*
X27350047Y-2360861D01*
X27350045Y-2360858D01*
X27189141Y-2199954D01*
X27002734Y-2069432D01*
X27002732Y-2069431D01*
X26796497Y-1973261D01*
X26796488Y-1973258D01*
X26576697Y-1914366D01*
X26576693Y-1914365D01*
X26576692Y-1914365D01*
X26576691Y-1914364D01*
X26576686Y-1914364D01*
X26350002Y-1894532D01*
X26349998Y-1894532D01*
X26123313Y-1914364D01*
X26123302Y-1914366D01*
X25903511Y-1973258D01*
X25903502Y-1973261D01*
X25697267Y-2069431D01*
X25697265Y-2069432D01*
X25510858Y-2199954D01*
X25349954Y-2360858D01*
X25219432Y-2547265D01*
X25219431Y-2547267D01*
X25192382Y-2605275D01*
X25146209Y-2657714D01*
X25079016Y-2676866D01*
X25012135Y-2656650D01*
X24967618Y-2605275D01*
X24965158Y-2600000D01*
X24940568Y-2547266D01*
X24810047Y-2360861D01*
X24810045Y-2360858D01*
X24649141Y-2199954D01*
X24462734Y-2069432D01*
X24462732Y-2069431D01*
X24256497Y-1973261D01*
X24256488Y-1973258D01*
X24036697Y-1914366D01*
X24036693Y-1914365D01*
X24036692Y-1914365D01*
X24036691Y-1914364D01*
X24036686Y-1914364D01*
X23810002Y-1894532D01*
X23809998Y-1894532D01*
X23583313Y-1914364D01*
X23583302Y-1914366D01*
X23363511Y-1973258D01*
X23363502Y-1973261D01*
X23157267Y-2069431D01*
X23157265Y-2069432D01*
X22970858Y-2199954D01*
X22809954Y-2360858D01*
X22679432Y-2547265D01*
X22679431Y-2547267D01*
X22652382Y-2605275D01*
X22606209Y-2657714D01*
X22539016Y-2676866D01*
X22472135Y-2656650D01*
X22427618Y-2605275D01*
X22425158Y-2600000D01*
X22400568Y-2547266D01*
X22270047Y-2360861D01*
X22270045Y-2360858D01*
X22109141Y-2199954D01*
X21922734Y-2069432D01*
X21922732Y-2069431D01*
X21716497Y-1973261D01*
X21716488Y-1973258D01*
X21496697Y-1914366D01*
X21496693Y-1914365D01*
X21496692Y-1914365D01*
X21496691Y-1914364D01*
X21496686Y-1914364D01*
X21270002Y-1894532D01*
X21269998Y-1894532D01*
X21043313Y-1914364D01*
X21043302Y-1914366D01*
X20823511Y-1973258D01*
X20823502Y-1973261D01*
X20617267Y-2069431D01*
X20617265Y-2069432D01*
X20430858Y-2199954D01*
X20269954Y-2360858D01*
X20139432Y-2547265D01*
X20139431Y-2547267D01*
X20112382Y-2605275D01*
X20066209Y-2657714D01*
X19999016Y-2676866D01*
X19932135Y-2656650D01*
X19887618Y-2605275D01*
X19885158Y-2600000D01*
X19860568Y-2547266D01*
X19730047Y-2360861D01*
X19730045Y-2360858D01*
X19569141Y-2199954D01*
X19382734Y-2069432D01*
X19382732Y-2069431D01*
X19176497Y-1973261D01*
X19176488Y-1973258D01*
X18956697Y-1914366D01*
X18956693Y-1914365D01*
X18956692Y-1914365D01*
X18956691Y-1914364D01*
X18956686Y-1914364D01*
X18730002Y-1894532D01*
X18729998Y-1894532D01*
X18503313Y-1914364D01*
X18503302Y-1914366D01*
X18283511Y-1973258D01*
X18283502Y-1973261D01*
X18077267Y-2069431D01*
X18077265Y-2069432D01*
X17890858Y-2199954D01*
X17729954Y-2360858D01*
X17599432Y-2547265D01*
X17599431Y-2547267D01*
X17572382Y-2605275D01*
X17526209Y-2657714D01*
X17459016Y-2676866D01*
X17392135Y-2656650D01*
X17347618Y-2605275D01*
X17345158Y-2600000D01*
X17320568Y-2547266D01*
X17190047Y-2360861D01*
X17190045Y-2360858D01*
X17029141Y-2199954D01*
X16842734Y-2069432D01*
X16842732Y-2069431D01*
X16636497Y-1973261D01*
X16636488Y-1973258D01*
X16416697Y-1914366D01*
X16416693Y-1914365D01*
X16416692Y-1914365D01*
X16416691Y-1914364D01*
X16416686Y-1914364D01*
X16190002Y-1894532D01*
X16189998Y-1894532D01*
X15963313Y-1914364D01*
X15963302Y-1914366D01*
X15743511Y-1973258D01*
X15743502Y-1973261D01*
X15537267Y-2069431D01*
X15537265Y-2069432D01*
X15350858Y-2199954D01*
X15189954Y-2360858D01*
X15059433Y-2547264D01*
X15032106Y-2605867D01*
X14985933Y-2658306D01*
X14918739Y-2677457D01*
X14851858Y-2657241D01*
X14807342Y-2605865D01*
X14780135Y-2547520D01*
X14780131Y-2547512D01*
X14729025Y-2474526D01*
X14298517Y-2905035D01*
X14237194Y-2938520D01*
X14167502Y-2933536D01*
X14111569Y-2891664D01*
X14108486Y-2886750D01*
X14108451Y-2886775D01*
X14103558Y-2879843D01*
X14000360Y-2769346D01*
X14000358Y-2769345D01*
X13965300Y-2748026D01*
X13918248Y-2696375D01*
X13906590Y-2627485D01*
X13934027Y-2563228D01*
X13942047Y-2554397D01*
X14375472Y-2120973D01*
X14302483Y-2069866D01*
X14302481Y-2069865D01*
X14096326Y-1973734D01*
X14096317Y-1973730D01*
X13876610Y-1914860D01*
X13876599Y-1914858D01*
X13650002Y-1895034D01*
X13649998Y-1895034D01*
X13423400Y-1914858D01*
X13423389Y-1914860D01*
X13203682Y-1973730D01*
X13203673Y-1973734D01*
X12997513Y-2069868D01*
X12924527Y-2120972D01*
X12924526Y-2120973D01*
X13356834Y-2553280D01*
X13390319Y-2614603D01*
X13385335Y-2684294D01*
X13347408Y-2737149D01*
X13244261Y-2821066D01*
X13244260Y-2821067D01*
X13244258Y-2821069D01*
X13193947Y-2892344D01*
X13139205Y-2935761D01*
X13069680Y-2942690D01*
X13007445Y-2910931D01*
X13004962Y-2908516D01*
X12570973Y-2474526D01*
X12570972Y-2474527D01*
X12519869Y-2547511D01*
X12492657Y-2605867D01*
X12446484Y-2658306D01*
X12379290Y-2677457D01*
X12312409Y-2657241D01*
X12267893Y-2605865D01*
X12240682Y-2547512D01*
X12240568Y-2547266D01*
X12110047Y-2360861D01*
X12110045Y-2360858D01*
X11949141Y-2199954D01*
X11762734Y-2069432D01*
X11762732Y-2069431D01*
X11556497Y-1973261D01*
X11556488Y-1973258D01*
X11336697Y-1914366D01*
X11336693Y-1914365D01*
X11336692Y-1914365D01*
X11336691Y-1914364D01*
X11336686Y-1914364D01*
X11110002Y-1894532D01*
X11109998Y-1894532D01*
X10883313Y-1914364D01*
X10883302Y-1914366D01*
X10663511Y-1973258D01*
X10663502Y-1973261D01*
X10457267Y-2069431D01*
X10457265Y-2069432D01*
X10270858Y-2199954D01*
X10109954Y-2360858D01*
X9979432Y-2547265D01*
X9979431Y-2547267D01*
X9883261Y-2753502D01*
X9883258Y-2753511D01*
X9824366Y-2973302D01*
X9824364Y-2973313D01*
X9804532Y-3199998D01*
X9804532Y-3200001D01*
X8235462Y-3200001D01*
X8208689Y-3147456D01*
X7997468Y-2822206D01*
X7788904Y-2564649D01*
X7788902Y-2564648D01*
X7125748Y-3227803D01*
X7064425Y-3261288D01*
X6994733Y-3256304D01*
X6938800Y-3214432D01*
X6934965Y-3209012D01*
X6928943Y-3200000D01*
X6877296Y-3122704D01*
X6794601Y-3067449D01*
X6794600Y-3067448D01*
X6790985Y-3065033D01*
X6746180Y-3011421D01*
X6737473Y-2942096D01*
X6767627Y-2879068D01*
X6772195Y-2874250D01*
X7435350Y-2211096D01*
X7435350Y-2211095D01*
X7177793Y-2002531D01*
X6852543Y-1791310D01*
X6506994Y-1615244D01*
X6144936Y-1476262D01*
X5770330Y-1375887D01*
X5770323Y-1375886D01*
X5387287Y-1315219D01*
X5000001Y-1294922D01*
X4999999Y-1294922D01*
X4612712Y-1315219D01*
X4229676Y-1375886D01*
X4229669Y-1375887D01*
X3855063Y-1476262D01*
X3493005Y-1615244D01*
X3147456Y-1791310D01*
X2822206Y-2002531D01*
X2564648Y-2211095D01*
X2564648Y-2211096D01*
X3227803Y-2874251D01*
X3261288Y-2935574D01*
X3256304Y-3005266D01*
X3214432Y-3061199D01*
X3209013Y-3065034D01*
X3122704Y-3122704D01*
X3065034Y-3209013D01*
X3011422Y-3253818D01*
X2942097Y-3262525D01*
X2879069Y-3232370D01*
X2874251Y-3227803D01*
X2211096Y-2564648D01*
X2211095Y-2564648D01*
X2002531Y-2822206D01*
X1791310Y-3147456D01*
X1615244Y-3493005D01*
X1476262Y-3855063D01*
X1375887Y-4229669D01*
X1375886Y-4229676D01*
X1315219Y-4612712D01*
X1294922Y-4999999D01*
X1294922Y-5000000D01*
X500Y-5000000D01*
X500Y-3001622D01*
X585Y-2998376D01*
X7497Y-2866486D01*
X17803Y-2682968D01*
X18464Y-2676791D01*
X42611Y-2524331D01*
X70227Y-2361796D01*
X71451Y-2356196D01*
X112425Y-2203279D01*
X157083Y-2048268D01*
X158764Y-2043254D01*
X216127Y-1893815D01*
X277366Y-1745972D01*
X279379Y-1741606D01*
X352511Y-1598078D01*
X359688Y-1585090D01*
X429655Y-1458494D01*
X431867Y-1454808D01*
X519980Y-1319127D01*
X537154Y-1294922D01*
X612154Y-1189220D01*
X614486Y-1186143D01*
X715655Y-1061209D01*
X717537Y-1058998D01*
X822773Y-941239D01*
X825092Y-938787D01*
X938787Y-825092D01*
X941239Y-822773D01*
X1058998Y-717537D01*
X1061209Y-715655D01*
X1186143Y-614486D01*
X1189220Y-612154D01*
X1319127Y-519980D01*
X1329046Y-513537D01*
X1454808Y-431867D01*
X1458494Y-429655D01*
X1598078Y-352511D01*
X1610063Y-346403D01*
X1741606Y-279379D01*
X1745972Y-277366D01*
X1893815Y-216127D01*
X2043254Y-158764D01*
X2048268Y-157083D01*
X2203279Y-112425D01*
X2356196Y-71451D01*
X2361796Y-70227D01*
X2524284Y-42618D01*
X2676791Y-18464D01*
X2682968Y-17803D01*
X2866566Y-7493D01*
X2998380Y-584D01*
X3001622Y-500D01*
X36998378Y-500D01*
X37001619Y-584D01*
G37*
%TD.AperFunction*%
%TD*%
M02*
