M48
; DRILL file {KiCad 7.0.7} date 2024 February 22, Thursday 12:38:57
; FORMAT={-:-/ absolute / metric / decimal}
; #@! TF.CreationDate,2024-02-22T12:38:57+00:00
; #@! TF.GenerationSoftware,Kicad,Pcbnew,7.0.7
; #@! TF.FileFunction,MixedPlating,1,2
FMAT,2
METRIC
; #@! TA.AperFunction,Plated,PTH,ComponentDrill
T1C0.500
; #@! TA.AperFunction,Plated,PTH,ComponentDrill
T2C1.000
; #@! TA.AperFunction,Plated,PTH,ComponentDrill
T3C1.100
; #@! TA.AperFunction,Plated,PTH,ComponentDrill
T4C3.200
%
G90
G05
T1
X2.6Y-5.0
X2.6Y-35.0
X3.303Y-3.303
X3.303Y-6.697
X3.303Y-33.303
X3.303Y-36.697
X5.0Y-2.6
X5.0Y-7.4
X5.0Y-32.6
X5.0Y-37.4
X6.697Y-3.303
X6.697Y-6.697
X6.697Y-33.303
X6.697Y-36.697
X7.4Y-5.0
X7.4Y-35.0
X32.6Y-5.0
X32.6Y-35.0
X33.303Y-3.303
X33.303Y-6.697
X33.303Y-33.303
X33.303Y-36.697
X35.0Y-2.6
X35.0Y-7.4
X35.0Y-32.6
X35.0Y-37.4
X36.697Y-3.303
X36.697Y-6.697
X36.697Y-33.303
X36.697Y-36.697
X37.4Y-5.0
X37.4Y-35.0
T2
X6.0Y-16.475
X6.0Y-19.015
X6.0Y-21.555
X14.92Y-34.92
X14.92Y-37.46
X17.46Y-34.92
X17.46Y-37.46
X20.0Y-34.92
X20.0Y-37.46
X22.54Y-34.92
X22.54Y-37.46
X25.08Y-34.92
X25.08Y-37.46
T3
X11.11Y-3.2
X13.65Y-3.2
X16.19Y-3.2
X18.73Y-3.2
X21.27Y-3.2
X23.81Y-3.2
X26.35Y-3.2
X28.89Y-3.2
T4
X5.0Y-5.0
X5.0Y-35.0
X35.0Y-5.0
X35.0Y-35.0
T0
M30
