%TF.GenerationSoftware,KiCad,Pcbnew,7.0.7*%
%TF.CreationDate,2024-02-22T12:48:11+00:00*%
%TF.ProjectId,baseBoard_rev0,62617365-426f-4617-9264-5f726576302e,rev?*%
%TF.SameCoordinates,Original*%
%TF.FileFunction,Legend,Bot*%
%TF.FilePolarity,Positive*%
%FSLAX46Y46*%
G04 Gerber Fmt 4.6, Leading zero omitted, Abs format (unit mm)*
G04 Created by KiCad (PCBNEW 7.0.7) date 2024-02-22 12:48:11*
%MOMM*%
%LPD*%
G01*
G04 APERTURE LIST*
%ADD10C,0.150000*%
G04 APERTURE END LIST*
D10*
X56738095Y-98102200D02*
X56595238Y-98149819D01*
X56595238Y-98149819D02*
X56357143Y-98149819D01*
X56357143Y-98149819D02*
X56261905Y-98102200D01*
X56261905Y-98102200D02*
X56214286Y-98054580D01*
X56214286Y-98054580D02*
X56166667Y-97959342D01*
X56166667Y-97959342D02*
X56166667Y-97864104D01*
X56166667Y-97864104D02*
X56214286Y-97768866D01*
X56214286Y-97768866D02*
X56261905Y-97721247D01*
X56261905Y-97721247D02*
X56357143Y-97673628D01*
X56357143Y-97673628D02*
X56547619Y-97626009D01*
X56547619Y-97626009D02*
X56642857Y-97578390D01*
X56642857Y-97578390D02*
X56690476Y-97530771D01*
X56690476Y-97530771D02*
X56738095Y-97435533D01*
X56738095Y-97435533D02*
X56738095Y-97340295D01*
X56738095Y-97340295D02*
X56690476Y-97245057D01*
X56690476Y-97245057D02*
X56642857Y-97197438D01*
X56642857Y-97197438D02*
X56547619Y-97149819D01*
X56547619Y-97149819D02*
X56309524Y-97149819D01*
X56309524Y-97149819D02*
X56166667Y-97197438D01*
X55880952Y-97149819D02*
X55309524Y-97149819D01*
X55595238Y-98149819D02*
X55595238Y-97149819D01*
X54976190Y-97626009D02*
X54642857Y-97626009D01*
X54500000Y-98149819D02*
X54976190Y-98149819D01*
X54976190Y-98149819D02*
X54976190Y-97149819D01*
X54976190Y-97149819D02*
X54500000Y-97149819D01*
X54071428Y-98149819D02*
X54071428Y-97149819D01*
X53595238Y-97626009D02*
X53261905Y-97626009D01*
X53119048Y-98149819D02*
X53595238Y-98149819D01*
X53595238Y-98149819D02*
X53595238Y-97149819D01*
X53595238Y-97149819D02*
X53119048Y-97149819D01*
X52119048Y-98149819D02*
X52452381Y-97673628D01*
X52690476Y-98149819D02*
X52690476Y-97149819D01*
X52690476Y-97149819D02*
X52309524Y-97149819D01*
X52309524Y-97149819D02*
X52214286Y-97197438D01*
X52214286Y-97197438D02*
X52166667Y-97245057D01*
X52166667Y-97245057D02*
X52119048Y-97340295D01*
X52119048Y-97340295D02*
X52119048Y-97483152D01*
X52119048Y-97483152D02*
X52166667Y-97578390D01*
X52166667Y-97578390D02*
X52214286Y-97626009D01*
X52214286Y-97626009D02*
X52309524Y-97673628D01*
X52309524Y-97673628D02*
X52690476Y-97673628D01*
X51214286Y-98149819D02*
X51690476Y-98149819D01*
X51690476Y-98149819D02*
X51690476Y-97149819D01*
X50928571Y-97864104D02*
X50452381Y-97864104D01*
X51023809Y-98149819D02*
X50690476Y-97149819D01*
X50690476Y-97149819D02*
X50357143Y-98149819D01*
X49690476Y-97626009D02*
X49547619Y-97673628D01*
X49547619Y-97673628D02*
X49500000Y-97721247D01*
X49500000Y-97721247D02*
X49452381Y-97816485D01*
X49452381Y-97816485D02*
X49452381Y-97959342D01*
X49452381Y-97959342D02*
X49500000Y-98054580D01*
X49500000Y-98054580D02*
X49547619Y-98102200D01*
X49547619Y-98102200D02*
X49642857Y-98149819D01*
X49642857Y-98149819D02*
X50023809Y-98149819D01*
X50023809Y-98149819D02*
X50023809Y-97149819D01*
X50023809Y-97149819D02*
X49690476Y-97149819D01*
X49690476Y-97149819D02*
X49595238Y-97197438D01*
X49595238Y-97197438D02*
X49547619Y-97245057D01*
X49547619Y-97245057D02*
X49500000Y-97340295D01*
X49500000Y-97340295D02*
X49500000Y-97435533D01*
X49500000Y-97435533D02*
X49547619Y-97530771D01*
X49547619Y-97530771D02*
X49595238Y-97578390D01*
X49595238Y-97578390D02*
X49690476Y-97626009D01*
X49690476Y-97626009D02*
X50023809Y-97626009D01*
X48261904Y-98149819D02*
X48261904Y-97149819D01*
X48261904Y-97149819D02*
X47880952Y-97149819D01*
X47880952Y-97149819D02*
X47785714Y-97197438D01*
X47785714Y-97197438D02*
X47738095Y-97245057D01*
X47738095Y-97245057D02*
X47690476Y-97340295D01*
X47690476Y-97340295D02*
X47690476Y-97483152D01*
X47690476Y-97483152D02*
X47738095Y-97578390D01*
X47738095Y-97578390D02*
X47785714Y-97626009D01*
X47785714Y-97626009D02*
X47880952Y-97673628D01*
X47880952Y-97673628D02*
X48261904Y-97673628D01*
X47261904Y-98149819D02*
X47261904Y-97149819D01*
X47261904Y-97626009D02*
X46690476Y-97626009D01*
X46690476Y-98149819D02*
X46690476Y-97149819D01*
X46023809Y-97149819D02*
X45833333Y-97149819D01*
X45833333Y-97149819D02*
X45738095Y-97197438D01*
X45738095Y-97197438D02*
X45642857Y-97292676D01*
X45642857Y-97292676D02*
X45595238Y-97483152D01*
X45595238Y-97483152D02*
X45595238Y-97816485D01*
X45595238Y-97816485D02*
X45642857Y-98006961D01*
X45642857Y-98006961D02*
X45738095Y-98102200D01*
X45738095Y-98102200D02*
X45833333Y-98149819D01*
X45833333Y-98149819D02*
X46023809Y-98149819D01*
X46023809Y-98149819D02*
X46119047Y-98102200D01*
X46119047Y-98102200D02*
X46214285Y-98006961D01*
X46214285Y-98006961D02*
X46261904Y-97816485D01*
X46261904Y-97816485D02*
X46261904Y-97483152D01*
X46261904Y-97483152D02*
X46214285Y-97292676D01*
X46214285Y-97292676D02*
X46119047Y-97197438D01*
X46119047Y-97197438D02*
X46023809Y-97149819D01*
X45309523Y-97149819D02*
X44738095Y-97149819D01*
X45023809Y-98149819D02*
X45023809Y-97149819D01*
X44214285Y-97149819D02*
X44023809Y-97149819D01*
X44023809Y-97149819D02*
X43928571Y-97197438D01*
X43928571Y-97197438D02*
X43833333Y-97292676D01*
X43833333Y-97292676D02*
X43785714Y-97483152D01*
X43785714Y-97483152D02*
X43785714Y-97816485D01*
X43785714Y-97816485D02*
X43833333Y-98006961D01*
X43833333Y-98006961D02*
X43928571Y-98102200D01*
X43928571Y-98102200D02*
X44023809Y-98149819D01*
X44023809Y-98149819D02*
X44214285Y-98149819D01*
X44214285Y-98149819D02*
X44309523Y-98102200D01*
X44309523Y-98102200D02*
X44404761Y-98006961D01*
X44404761Y-98006961D02*
X44452380Y-97816485D01*
X44452380Y-97816485D02*
X44452380Y-97483152D01*
X44452380Y-97483152D02*
X44404761Y-97292676D01*
X44404761Y-97292676D02*
X44309523Y-97197438D01*
X44309523Y-97197438D02*
X44214285Y-97149819D01*
X42785714Y-98054580D02*
X42833333Y-98102200D01*
X42833333Y-98102200D02*
X42976190Y-98149819D01*
X42976190Y-98149819D02*
X43071428Y-98149819D01*
X43071428Y-98149819D02*
X43214285Y-98102200D01*
X43214285Y-98102200D02*
X43309523Y-98006961D01*
X43309523Y-98006961D02*
X43357142Y-97911723D01*
X43357142Y-97911723D02*
X43404761Y-97721247D01*
X43404761Y-97721247D02*
X43404761Y-97578390D01*
X43404761Y-97578390D02*
X43357142Y-97387914D01*
X43357142Y-97387914D02*
X43309523Y-97292676D01*
X43309523Y-97292676D02*
X43214285Y-97197438D01*
X43214285Y-97197438D02*
X43071428Y-97149819D01*
X43071428Y-97149819D02*
X42976190Y-97149819D01*
X42976190Y-97149819D02*
X42833333Y-97197438D01*
X42833333Y-97197438D02*
X42785714Y-97245057D01*
X42404761Y-97864104D02*
X41928571Y-97864104D01*
X42499999Y-98149819D02*
X42166666Y-97149819D01*
X42166666Y-97149819D02*
X41833333Y-98149819D01*
X41642856Y-97149819D02*
X41071428Y-97149819D01*
X41357142Y-98149819D02*
X41357142Y-97149819D01*
X40785713Y-97864104D02*
X40309523Y-97864104D01*
X40880951Y-98149819D02*
X40547618Y-97149819D01*
X40547618Y-97149819D02*
X40214285Y-98149819D01*
X39404761Y-98149819D02*
X39880951Y-98149819D01*
X39880951Y-98149819D02*
X39880951Y-97149819D01*
X38880951Y-97673628D02*
X38880951Y-98149819D01*
X39214284Y-97149819D02*
X38880951Y-97673628D01*
X38880951Y-97673628D02*
X38547618Y-97149819D01*
X38261903Y-98102200D02*
X38119046Y-98149819D01*
X38119046Y-98149819D02*
X37880951Y-98149819D01*
X37880951Y-98149819D02*
X37785713Y-98102200D01*
X37785713Y-98102200D02*
X37738094Y-98054580D01*
X37738094Y-98054580D02*
X37690475Y-97959342D01*
X37690475Y-97959342D02*
X37690475Y-97864104D01*
X37690475Y-97864104D02*
X37738094Y-97768866D01*
X37738094Y-97768866D02*
X37785713Y-97721247D01*
X37785713Y-97721247D02*
X37880951Y-97673628D01*
X37880951Y-97673628D02*
X38071427Y-97626009D01*
X38071427Y-97626009D02*
X38166665Y-97578390D01*
X38166665Y-97578390D02*
X38214284Y-97530771D01*
X38214284Y-97530771D02*
X38261903Y-97435533D01*
X38261903Y-97435533D02*
X38261903Y-97340295D01*
X38261903Y-97340295D02*
X38214284Y-97245057D01*
X38214284Y-97245057D02*
X38166665Y-97197438D01*
X38166665Y-97197438D02*
X38071427Y-97149819D01*
X38071427Y-97149819D02*
X37833332Y-97149819D01*
X37833332Y-97149819D02*
X37690475Y-97197438D01*
X37261903Y-98149819D02*
X37261903Y-97149819D01*
X36833332Y-98102200D02*
X36690475Y-98149819D01*
X36690475Y-98149819D02*
X36452380Y-98149819D01*
X36452380Y-98149819D02*
X36357142Y-98102200D01*
X36357142Y-98102200D02*
X36309523Y-98054580D01*
X36309523Y-98054580D02*
X36261904Y-97959342D01*
X36261904Y-97959342D02*
X36261904Y-97864104D01*
X36261904Y-97864104D02*
X36309523Y-97768866D01*
X36309523Y-97768866D02*
X36357142Y-97721247D01*
X36357142Y-97721247D02*
X36452380Y-97673628D01*
X36452380Y-97673628D02*
X36642856Y-97626009D01*
X36642856Y-97626009D02*
X36738094Y-97578390D01*
X36738094Y-97578390D02*
X36785713Y-97530771D01*
X36785713Y-97530771D02*
X36833332Y-97435533D01*
X36833332Y-97435533D02*
X36833332Y-97340295D01*
X36833332Y-97340295D02*
X36785713Y-97245057D01*
X36785713Y-97245057D02*
X36738094Y-97197438D01*
X36738094Y-97197438D02*
X36642856Y-97149819D01*
X36642856Y-97149819D02*
X36404761Y-97149819D01*
X36404761Y-97149819D02*
X36261904Y-97197438D01*
X35214284Y-97149819D02*
X34880951Y-98149819D01*
X34880951Y-98149819D02*
X34547618Y-97149819D01*
X33690475Y-98149819D02*
X34261903Y-98149819D01*
X33976189Y-98149819D02*
X33976189Y-97149819D01*
X33976189Y-97149819D02*
X34071427Y-97292676D01*
X34071427Y-97292676D02*
X34166665Y-97387914D01*
X34166665Y-97387914D02*
X34261903Y-97435533D01*
X33261903Y-98054580D02*
X33214284Y-98102200D01*
X33214284Y-98102200D02*
X33261903Y-98149819D01*
X33261903Y-98149819D02*
X33309522Y-98102200D01*
X33309522Y-98102200D02*
X33261903Y-98054580D01*
X33261903Y-98054580D02*
X33261903Y-98149819D01*
X32595237Y-97149819D02*
X32499999Y-97149819D01*
X32499999Y-97149819D02*
X32404761Y-97197438D01*
X32404761Y-97197438D02*
X32357142Y-97245057D01*
X32357142Y-97245057D02*
X32309523Y-97340295D01*
X32309523Y-97340295D02*
X32261904Y-97530771D01*
X32261904Y-97530771D02*
X32261904Y-97768866D01*
X32261904Y-97768866D02*
X32309523Y-97959342D01*
X32309523Y-97959342D02*
X32357142Y-98054580D01*
X32357142Y-98054580D02*
X32404761Y-98102200D01*
X32404761Y-98102200D02*
X32499999Y-98149819D01*
X32499999Y-98149819D02*
X32595237Y-98149819D01*
X32595237Y-98149819D02*
X32690475Y-98102200D01*
X32690475Y-98102200D02*
X32738094Y-98054580D01*
X32738094Y-98054580D02*
X32785713Y-97959342D01*
X32785713Y-97959342D02*
X32833332Y-97768866D01*
X32833332Y-97768866D02*
X32833332Y-97530771D01*
X32833332Y-97530771D02*
X32785713Y-97340295D01*
X32785713Y-97340295D02*
X32738094Y-97245057D01*
X32738094Y-97245057D02*
X32690475Y-97197438D01*
X32690475Y-97197438D02*
X32595237Y-97149819D01*
X55190475Y-99759819D02*
X55190475Y-99236009D01*
X55190475Y-99236009D02*
X55238094Y-99140771D01*
X55238094Y-99140771D02*
X55333332Y-99093152D01*
X55333332Y-99093152D02*
X55523808Y-99093152D01*
X55523808Y-99093152D02*
X55619046Y-99140771D01*
X55190475Y-99712200D02*
X55285713Y-99759819D01*
X55285713Y-99759819D02*
X55523808Y-99759819D01*
X55523808Y-99759819D02*
X55619046Y-99712200D01*
X55619046Y-99712200D02*
X55666665Y-99616961D01*
X55666665Y-99616961D02*
X55666665Y-99521723D01*
X55666665Y-99521723D02*
X55619046Y-99426485D01*
X55619046Y-99426485D02*
X55523808Y-99378866D01*
X55523808Y-99378866D02*
X55285713Y-99378866D01*
X55285713Y-99378866D02*
X55190475Y-99331247D01*
X54285713Y-99093152D02*
X54285713Y-99759819D01*
X54714284Y-99093152D02*
X54714284Y-99616961D01*
X54714284Y-99616961D02*
X54666665Y-99712200D01*
X54666665Y-99712200D02*
X54571427Y-99759819D01*
X54571427Y-99759819D02*
X54428570Y-99759819D01*
X54428570Y-99759819D02*
X54333332Y-99712200D01*
X54333332Y-99712200D02*
X54285713Y-99664580D01*
X53380951Y-99093152D02*
X53380951Y-99902676D01*
X53380951Y-99902676D02*
X53428570Y-99997914D01*
X53428570Y-99997914D02*
X53476189Y-100045533D01*
X53476189Y-100045533D02*
X53571427Y-100093152D01*
X53571427Y-100093152D02*
X53714284Y-100093152D01*
X53714284Y-100093152D02*
X53809522Y-100045533D01*
X53380951Y-99712200D02*
X53476189Y-99759819D01*
X53476189Y-99759819D02*
X53666665Y-99759819D01*
X53666665Y-99759819D02*
X53761903Y-99712200D01*
X53761903Y-99712200D02*
X53809522Y-99664580D01*
X53809522Y-99664580D02*
X53857141Y-99569342D01*
X53857141Y-99569342D02*
X53857141Y-99283628D01*
X53857141Y-99283628D02*
X53809522Y-99188390D01*
X53809522Y-99188390D02*
X53761903Y-99140771D01*
X53761903Y-99140771D02*
X53666665Y-99093152D01*
X53666665Y-99093152D02*
X53476189Y-99093152D01*
X53476189Y-99093152D02*
X53380951Y-99140771D01*
X52476189Y-99093152D02*
X52476189Y-99759819D01*
X52904760Y-99093152D02*
X52904760Y-99616961D01*
X52904760Y-99616961D02*
X52857141Y-99712200D01*
X52857141Y-99712200D02*
X52761903Y-99759819D01*
X52761903Y-99759819D02*
X52619046Y-99759819D01*
X52619046Y-99759819D02*
X52523808Y-99712200D01*
X52523808Y-99712200D02*
X52476189Y-99664580D01*
X52047617Y-99712200D02*
X51952379Y-99759819D01*
X51952379Y-99759819D02*
X51761903Y-99759819D01*
X51761903Y-99759819D02*
X51666665Y-99712200D01*
X51666665Y-99712200D02*
X51619046Y-99616961D01*
X51619046Y-99616961D02*
X51619046Y-99569342D01*
X51619046Y-99569342D02*
X51666665Y-99474104D01*
X51666665Y-99474104D02*
X51761903Y-99426485D01*
X51761903Y-99426485D02*
X51904760Y-99426485D01*
X51904760Y-99426485D02*
X51999998Y-99378866D01*
X51999998Y-99378866D02*
X52047617Y-99283628D01*
X52047617Y-99283628D02*
X52047617Y-99236009D01*
X52047617Y-99236009D02*
X51999998Y-99140771D01*
X51999998Y-99140771D02*
X51904760Y-99093152D01*
X51904760Y-99093152D02*
X51761903Y-99093152D01*
X51761903Y-99093152D02*
X51666665Y-99140771D01*
X51333331Y-99093152D02*
X50952379Y-99093152D01*
X51190474Y-98759819D02*
X51190474Y-99616961D01*
X51190474Y-99616961D02*
X51142855Y-99712200D01*
X51142855Y-99712200D02*
X51047617Y-99759819D01*
X51047617Y-99759819D02*
X50952379Y-99759819D01*
X50619045Y-99759819D02*
X50619045Y-99093152D01*
X50619045Y-98759819D02*
X50666664Y-98807438D01*
X50666664Y-98807438D02*
X50619045Y-98855057D01*
X50619045Y-98855057D02*
X50571426Y-98807438D01*
X50571426Y-98807438D02*
X50619045Y-98759819D01*
X50619045Y-98759819D02*
X50619045Y-98855057D01*
X50142855Y-99093152D02*
X50142855Y-99759819D01*
X50142855Y-99188390D02*
X50095236Y-99140771D01*
X50095236Y-99140771D02*
X49999998Y-99093152D01*
X49999998Y-99093152D02*
X49857141Y-99093152D01*
X49857141Y-99093152D02*
X49761903Y-99140771D01*
X49761903Y-99140771D02*
X49714284Y-99236009D01*
X49714284Y-99236009D02*
X49714284Y-99759819D01*
X49238093Y-99664580D02*
X49190474Y-99712200D01*
X49190474Y-99712200D02*
X49238093Y-99759819D01*
X49238093Y-99759819D02*
X49285712Y-99712200D01*
X49285712Y-99712200D02*
X49238093Y-99664580D01*
X49238093Y-99664580D02*
X49238093Y-99759819D01*
X48857141Y-99093152D02*
X48333332Y-99093152D01*
X48333332Y-99093152D02*
X48857141Y-99759819D01*
X48857141Y-99759819D02*
X48333332Y-99759819D01*
X47523808Y-99759819D02*
X47523808Y-99236009D01*
X47523808Y-99236009D02*
X47571427Y-99140771D01*
X47571427Y-99140771D02*
X47666665Y-99093152D01*
X47666665Y-99093152D02*
X47857141Y-99093152D01*
X47857141Y-99093152D02*
X47952379Y-99140771D01*
X47523808Y-99712200D02*
X47619046Y-99759819D01*
X47619046Y-99759819D02*
X47857141Y-99759819D01*
X47857141Y-99759819D02*
X47952379Y-99712200D01*
X47952379Y-99712200D02*
X47999998Y-99616961D01*
X47999998Y-99616961D02*
X47999998Y-99521723D01*
X47999998Y-99521723D02*
X47952379Y-99426485D01*
X47952379Y-99426485D02*
X47857141Y-99378866D01*
X47857141Y-99378866D02*
X47619046Y-99378866D01*
X47619046Y-99378866D02*
X47523808Y-99331247D01*
X47047617Y-99759819D02*
X47047617Y-99093152D01*
X47047617Y-98759819D02*
X47095236Y-98807438D01*
X47095236Y-98807438D02*
X47047617Y-98855057D01*
X47047617Y-98855057D02*
X46999998Y-98807438D01*
X46999998Y-98807438D02*
X47047617Y-98759819D01*
X47047617Y-98759819D02*
X47047617Y-98855057D01*
X46571427Y-99093152D02*
X46571427Y-99759819D01*
X46571427Y-99188390D02*
X46523808Y-99140771D01*
X46523808Y-99140771D02*
X46428570Y-99093152D01*
X46428570Y-99093152D02*
X46285713Y-99093152D01*
X46285713Y-99093152D02*
X46190475Y-99140771D01*
X46190475Y-99140771D02*
X46142856Y-99236009D01*
X46142856Y-99236009D02*
X46142856Y-99759819D01*
X45666665Y-99759819D02*
X45666665Y-99093152D01*
X45666665Y-98759819D02*
X45714284Y-98807438D01*
X45714284Y-98807438D02*
X45666665Y-98855057D01*
X45666665Y-98855057D02*
X45619046Y-98807438D01*
X45619046Y-98807438D02*
X45666665Y-98759819D01*
X45666665Y-98759819D02*
X45666665Y-98855057D01*
X45190475Y-99093152D02*
X45190475Y-99759819D01*
X45190475Y-99188390D02*
X45142856Y-99140771D01*
X45142856Y-99140771D02*
X45047618Y-99093152D01*
X45047618Y-99093152D02*
X44904761Y-99093152D01*
X44904761Y-99093152D02*
X44809523Y-99140771D01*
X44809523Y-99140771D02*
X44761904Y-99236009D01*
X44761904Y-99236009D02*
X44761904Y-99759819D01*
X43857142Y-99093152D02*
X43857142Y-99902676D01*
X43857142Y-99902676D02*
X43904761Y-99997914D01*
X43904761Y-99997914D02*
X43952380Y-100045533D01*
X43952380Y-100045533D02*
X44047618Y-100093152D01*
X44047618Y-100093152D02*
X44190475Y-100093152D01*
X44190475Y-100093152D02*
X44285713Y-100045533D01*
X43857142Y-99712200D02*
X43952380Y-99759819D01*
X43952380Y-99759819D02*
X44142856Y-99759819D01*
X44142856Y-99759819D02*
X44238094Y-99712200D01*
X44238094Y-99712200D02*
X44285713Y-99664580D01*
X44285713Y-99664580D02*
X44333332Y-99569342D01*
X44333332Y-99569342D02*
X44333332Y-99283628D01*
X44333332Y-99283628D02*
X44285713Y-99188390D01*
X44285713Y-99188390D02*
X44238094Y-99140771D01*
X44238094Y-99140771D02*
X44142856Y-99093152D01*
X44142856Y-99093152D02*
X43952380Y-99093152D01*
X43952380Y-99093152D02*
X43857142Y-99140771D01*
X42999999Y-99712200D02*
X43095237Y-99759819D01*
X43095237Y-99759819D02*
X43285713Y-99759819D01*
X43285713Y-99759819D02*
X43380951Y-99712200D01*
X43380951Y-99712200D02*
X43428570Y-99616961D01*
X43428570Y-99616961D02*
X43428570Y-99236009D01*
X43428570Y-99236009D02*
X43380951Y-99140771D01*
X43380951Y-99140771D02*
X43285713Y-99093152D01*
X43285713Y-99093152D02*
X43095237Y-99093152D01*
X43095237Y-99093152D02*
X42999999Y-99140771D01*
X42999999Y-99140771D02*
X42952380Y-99236009D01*
X42952380Y-99236009D02*
X42952380Y-99331247D01*
X42952380Y-99331247D02*
X43428570Y-99426485D01*
X42523808Y-99759819D02*
X42523808Y-99093152D01*
X42523808Y-99283628D02*
X42476189Y-99188390D01*
X42476189Y-99188390D02*
X42428570Y-99140771D01*
X42428570Y-99140771D02*
X42333332Y-99093152D01*
X42333332Y-99093152D02*
X42238094Y-99093152D01*
X41285713Y-99283628D02*
X41333332Y-99236009D01*
X41333332Y-99236009D02*
X41428570Y-99188390D01*
X41428570Y-99188390D02*
X41523808Y-99188390D01*
X41523808Y-99188390D02*
X41619046Y-99236009D01*
X41619046Y-99236009D02*
X41666665Y-99283628D01*
X41666665Y-99283628D02*
X41714284Y-99378866D01*
X41714284Y-99378866D02*
X41714284Y-99474104D01*
X41714284Y-99474104D02*
X41666665Y-99569342D01*
X41666665Y-99569342D02*
X41619046Y-99616961D01*
X41619046Y-99616961D02*
X41523808Y-99664580D01*
X41523808Y-99664580D02*
X41428570Y-99664580D01*
X41428570Y-99664580D02*
X41333332Y-99616961D01*
X41333332Y-99616961D02*
X41285713Y-99569342D01*
X41285713Y-99188390D02*
X41285713Y-99569342D01*
X41285713Y-99569342D02*
X41238094Y-99616961D01*
X41238094Y-99616961D02*
X41190475Y-99616961D01*
X41190475Y-99616961D02*
X41095236Y-99569342D01*
X41095236Y-99569342D02*
X41047617Y-99474104D01*
X41047617Y-99474104D02*
X41047617Y-99236009D01*
X41047617Y-99236009D02*
X41142856Y-99093152D01*
X41142856Y-99093152D02*
X41285713Y-98997914D01*
X41285713Y-98997914D02*
X41476189Y-98950295D01*
X41476189Y-98950295D02*
X41666665Y-98997914D01*
X41666665Y-98997914D02*
X41809522Y-99093152D01*
X41809522Y-99093152D02*
X41904760Y-99236009D01*
X41904760Y-99236009D02*
X41952379Y-99426485D01*
X41952379Y-99426485D02*
X41904760Y-99616961D01*
X41904760Y-99616961D02*
X41809522Y-99759819D01*
X41809522Y-99759819D02*
X41666665Y-99855057D01*
X41666665Y-99855057D02*
X41476189Y-99902676D01*
X41476189Y-99902676D02*
X41285713Y-99855057D01*
X41285713Y-99855057D02*
X41142856Y-99759819D01*
X40190475Y-99093152D02*
X40190475Y-99902676D01*
X40190475Y-99902676D02*
X40238094Y-99997914D01*
X40238094Y-99997914D02*
X40285713Y-100045533D01*
X40285713Y-100045533D02*
X40380951Y-100093152D01*
X40380951Y-100093152D02*
X40523808Y-100093152D01*
X40523808Y-100093152D02*
X40619046Y-100045533D01*
X40190475Y-99712200D02*
X40285713Y-99759819D01*
X40285713Y-99759819D02*
X40476189Y-99759819D01*
X40476189Y-99759819D02*
X40571427Y-99712200D01*
X40571427Y-99712200D02*
X40619046Y-99664580D01*
X40619046Y-99664580D02*
X40666665Y-99569342D01*
X40666665Y-99569342D02*
X40666665Y-99283628D01*
X40666665Y-99283628D02*
X40619046Y-99188390D01*
X40619046Y-99188390D02*
X40571427Y-99140771D01*
X40571427Y-99140771D02*
X40476189Y-99093152D01*
X40476189Y-99093152D02*
X40285713Y-99093152D01*
X40285713Y-99093152D02*
X40190475Y-99140771D01*
X39714284Y-99759819D02*
X39714284Y-99093152D01*
X39714284Y-99188390D02*
X39666665Y-99140771D01*
X39666665Y-99140771D02*
X39571427Y-99093152D01*
X39571427Y-99093152D02*
X39428570Y-99093152D01*
X39428570Y-99093152D02*
X39333332Y-99140771D01*
X39333332Y-99140771D02*
X39285713Y-99236009D01*
X39285713Y-99236009D02*
X39285713Y-99759819D01*
X39285713Y-99236009D02*
X39238094Y-99140771D01*
X39238094Y-99140771D02*
X39142856Y-99093152D01*
X39142856Y-99093152D02*
X38999999Y-99093152D01*
X38999999Y-99093152D02*
X38904760Y-99140771D01*
X38904760Y-99140771D02*
X38857141Y-99236009D01*
X38857141Y-99236009D02*
X38857141Y-99759819D01*
X37952380Y-99759819D02*
X37952380Y-99236009D01*
X37952380Y-99236009D02*
X37999999Y-99140771D01*
X37999999Y-99140771D02*
X38095237Y-99093152D01*
X38095237Y-99093152D02*
X38285713Y-99093152D01*
X38285713Y-99093152D02*
X38380951Y-99140771D01*
X37952380Y-99712200D02*
X38047618Y-99759819D01*
X38047618Y-99759819D02*
X38285713Y-99759819D01*
X38285713Y-99759819D02*
X38380951Y-99712200D01*
X38380951Y-99712200D02*
X38428570Y-99616961D01*
X38428570Y-99616961D02*
X38428570Y-99521723D01*
X38428570Y-99521723D02*
X38380951Y-99426485D01*
X38380951Y-99426485D02*
X38285713Y-99378866D01*
X38285713Y-99378866D02*
X38047618Y-99378866D01*
X38047618Y-99378866D02*
X37952380Y-99331247D01*
X37476189Y-99759819D02*
X37476189Y-99093152D01*
X37476189Y-98759819D02*
X37523808Y-98807438D01*
X37523808Y-98807438D02*
X37476189Y-98855057D01*
X37476189Y-98855057D02*
X37428570Y-98807438D01*
X37428570Y-98807438D02*
X37476189Y-98759819D01*
X37476189Y-98759819D02*
X37476189Y-98855057D01*
X36857142Y-99759819D02*
X36952380Y-99712200D01*
X36952380Y-99712200D02*
X36999999Y-99616961D01*
X36999999Y-99616961D02*
X36999999Y-98759819D01*
X36476189Y-99664580D02*
X36428570Y-99712200D01*
X36428570Y-99712200D02*
X36476189Y-99759819D01*
X36476189Y-99759819D02*
X36523808Y-99712200D01*
X36523808Y-99712200D02*
X36476189Y-99664580D01*
X36476189Y-99664580D02*
X36476189Y-99759819D01*
X35571428Y-99712200D02*
X35666666Y-99759819D01*
X35666666Y-99759819D02*
X35857142Y-99759819D01*
X35857142Y-99759819D02*
X35952380Y-99712200D01*
X35952380Y-99712200D02*
X35999999Y-99664580D01*
X35999999Y-99664580D02*
X36047618Y-99569342D01*
X36047618Y-99569342D02*
X36047618Y-99283628D01*
X36047618Y-99283628D02*
X35999999Y-99188390D01*
X35999999Y-99188390D02*
X35952380Y-99140771D01*
X35952380Y-99140771D02*
X35857142Y-99093152D01*
X35857142Y-99093152D02*
X35666666Y-99093152D01*
X35666666Y-99093152D02*
X35571428Y-99140771D01*
X34999999Y-99759819D02*
X35095237Y-99712200D01*
X35095237Y-99712200D02*
X35142856Y-99664580D01*
X35142856Y-99664580D02*
X35190475Y-99569342D01*
X35190475Y-99569342D02*
X35190475Y-99283628D01*
X35190475Y-99283628D02*
X35142856Y-99188390D01*
X35142856Y-99188390D02*
X35095237Y-99140771D01*
X35095237Y-99140771D02*
X34999999Y-99093152D01*
X34999999Y-99093152D02*
X34857142Y-99093152D01*
X34857142Y-99093152D02*
X34761904Y-99140771D01*
X34761904Y-99140771D02*
X34714285Y-99188390D01*
X34714285Y-99188390D02*
X34666666Y-99283628D01*
X34666666Y-99283628D02*
X34666666Y-99569342D01*
X34666666Y-99569342D02*
X34714285Y-99664580D01*
X34714285Y-99664580D02*
X34761904Y-99712200D01*
X34761904Y-99712200D02*
X34857142Y-99759819D01*
X34857142Y-99759819D02*
X34999999Y-99759819D01*
X34238094Y-99759819D02*
X34238094Y-99093152D01*
X34238094Y-99188390D02*
X34190475Y-99140771D01*
X34190475Y-99140771D02*
X34095237Y-99093152D01*
X34095237Y-99093152D02*
X33952380Y-99093152D01*
X33952380Y-99093152D02*
X33857142Y-99140771D01*
X33857142Y-99140771D02*
X33809523Y-99236009D01*
X33809523Y-99236009D02*
X33809523Y-99759819D01*
X33809523Y-99236009D02*
X33761904Y-99140771D01*
X33761904Y-99140771D02*
X33666666Y-99093152D01*
X33666666Y-99093152D02*
X33523809Y-99093152D01*
X33523809Y-99093152D02*
X33428570Y-99140771D01*
X33428570Y-99140771D02*
X33380951Y-99236009D01*
X33380951Y-99236009D02*
X33380951Y-99759819D01*
X65333334Y-101369819D02*
X65333334Y-100369819D01*
X64904763Y-101369819D02*
X64904763Y-100846009D01*
X64904763Y-100846009D02*
X64952382Y-100750771D01*
X64952382Y-100750771D02*
X65047620Y-100703152D01*
X65047620Y-100703152D02*
X65190477Y-100703152D01*
X65190477Y-100703152D02*
X65285715Y-100750771D01*
X65285715Y-100750771D02*
X65333334Y-100798390D01*
X64571429Y-100703152D02*
X64190477Y-100703152D01*
X64428572Y-100369819D02*
X64428572Y-101226961D01*
X64428572Y-101226961D02*
X64380953Y-101322200D01*
X64380953Y-101322200D02*
X64285715Y-101369819D01*
X64285715Y-101369819D02*
X64190477Y-101369819D01*
X64000000Y-100703152D02*
X63619048Y-100703152D01*
X63857143Y-100369819D02*
X63857143Y-101226961D01*
X63857143Y-101226961D02*
X63809524Y-101322200D01*
X63809524Y-101322200D02*
X63714286Y-101369819D01*
X63714286Y-101369819D02*
X63619048Y-101369819D01*
X63285714Y-100703152D02*
X63285714Y-101703152D01*
X63285714Y-100750771D02*
X63190476Y-100703152D01*
X63190476Y-100703152D02*
X63000000Y-100703152D01*
X63000000Y-100703152D02*
X62904762Y-100750771D01*
X62904762Y-100750771D02*
X62857143Y-100798390D01*
X62857143Y-100798390D02*
X62809524Y-100893628D01*
X62809524Y-100893628D02*
X62809524Y-101179342D01*
X62809524Y-101179342D02*
X62857143Y-101274580D01*
X62857143Y-101274580D02*
X62904762Y-101322200D01*
X62904762Y-101322200D02*
X63000000Y-101369819D01*
X63000000Y-101369819D02*
X63190476Y-101369819D01*
X63190476Y-101369819D02*
X63285714Y-101322200D01*
X62428571Y-101322200D02*
X62333333Y-101369819D01*
X62333333Y-101369819D02*
X62142857Y-101369819D01*
X62142857Y-101369819D02*
X62047619Y-101322200D01*
X62047619Y-101322200D02*
X62000000Y-101226961D01*
X62000000Y-101226961D02*
X62000000Y-101179342D01*
X62000000Y-101179342D02*
X62047619Y-101084104D01*
X62047619Y-101084104D02*
X62142857Y-101036485D01*
X62142857Y-101036485D02*
X62285714Y-101036485D01*
X62285714Y-101036485D02*
X62380952Y-100988866D01*
X62380952Y-100988866D02*
X62428571Y-100893628D01*
X62428571Y-100893628D02*
X62428571Y-100846009D01*
X62428571Y-100846009D02*
X62380952Y-100750771D01*
X62380952Y-100750771D02*
X62285714Y-100703152D01*
X62285714Y-100703152D02*
X62142857Y-100703152D01*
X62142857Y-100703152D02*
X62047619Y-100750771D01*
X61571428Y-101274580D02*
X61523809Y-101322200D01*
X61523809Y-101322200D02*
X61571428Y-101369819D01*
X61571428Y-101369819D02*
X61619047Y-101322200D01*
X61619047Y-101322200D02*
X61571428Y-101274580D01*
X61571428Y-101274580D02*
X61571428Y-101369819D01*
X61571428Y-100750771D02*
X61523809Y-100798390D01*
X61523809Y-100798390D02*
X61571428Y-100846009D01*
X61571428Y-100846009D02*
X61619047Y-100798390D01*
X61619047Y-100798390D02*
X61571428Y-100750771D01*
X61571428Y-100750771D02*
X61571428Y-100846009D01*
X60380953Y-100322200D02*
X61238095Y-101607914D01*
X59333334Y-100322200D02*
X60190476Y-101607914D01*
X58571429Y-100703152D02*
X58571429Y-101512676D01*
X58571429Y-101512676D02*
X58619048Y-101607914D01*
X58619048Y-101607914D02*
X58666667Y-101655533D01*
X58666667Y-101655533D02*
X58761905Y-101703152D01*
X58761905Y-101703152D02*
X58904762Y-101703152D01*
X58904762Y-101703152D02*
X59000000Y-101655533D01*
X58571429Y-101322200D02*
X58666667Y-101369819D01*
X58666667Y-101369819D02*
X58857143Y-101369819D01*
X58857143Y-101369819D02*
X58952381Y-101322200D01*
X58952381Y-101322200D02*
X59000000Y-101274580D01*
X59000000Y-101274580D02*
X59047619Y-101179342D01*
X59047619Y-101179342D02*
X59047619Y-100893628D01*
X59047619Y-100893628D02*
X59000000Y-100798390D01*
X59000000Y-100798390D02*
X58952381Y-100750771D01*
X58952381Y-100750771D02*
X58857143Y-100703152D01*
X58857143Y-100703152D02*
X58666667Y-100703152D01*
X58666667Y-100703152D02*
X58571429Y-100750771D01*
X58095238Y-101369819D02*
X58095238Y-100703152D01*
X58095238Y-100369819D02*
X58142857Y-100417438D01*
X58142857Y-100417438D02*
X58095238Y-100465057D01*
X58095238Y-100465057D02*
X58047619Y-100417438D01*
X58047619Y-100417438D02*
X58095238Y-100369819D01*
X58095238Y-100369819D02*
X58095238Y-100465057D01*
X57761905Y-100703152D02*
X57380953Y-100703152D01*
X57619048Y-100369819D02*
X57619048Y-101226961D01*
X57619048Y-101226961D02*
X57571429Y-101322200D01*
X57571429Y-101322200D02*
X57476191Y-101369819D01*
X57476191Y-101369819D02*
X57380953Y-101369819D01*
X57047619Y-101369819D02*
X57047619Y-100369819D01*
X56619048Y-101369819D02*
X56619048Y-100846009D01*
X56619048Y-100846009D02*
X56666667Y-100750771D01*
X56666667Y-100750771D02*
X56761905Y-100703152D01*
X56761905Y-100703152D02*
X56904762Y-100703152D01*
X56904762Y-100703152D02*
X57000000Y-100750771D01*
X57000000Y-100750771D02*
X57047619Y-100798390D01*
X55714286Y-100703152D02*
X55714286Y-101369819D01*
X56142857Y-100703152D02*
X56142857Y-101226961D01*
X56142857Y-101226961D02*
X56095238Y-101322200D01*
X56095238Y-101322200D02*
X56000000Y-101369819D01*
X56000000Y-101369819D02*
X55857143Y-101369819D01*
X55857143Y-101369819D02*
X55761905Y-101322200D01*
X55761905Y-101322200D02*
X55714286Y-101274580D01*
X55238095Y-101369819D02*
X55238095Y-100369819D01*
X55238095Y-100750771D02*
X55142857Y-100703152D01*
X55142857Y-100703152D02*
X54952381Y-100703152D01*
X54952381Y-100703152D02*
X54857143Y-100750771D01*
X54857143Y-100750771D02*
X54809524Y-100798390D01*
X54809524Y-100798390D02*
X54761905Y-100893628D01*
X54761905Y-100893628D02*
X54761905Y-101179342D01*
X54761905Y-101179342D02*
X54809524Y-101274580D01*
X54809524Y-101274580D02*
X54857143Y-101322200D01*
X54857143Y-101322200D02*
X54952381Y-101369819D01*
X54952381Y-101369819D02*
X55142857Y-101369819D01*
X55142857Y-101369819D02*
X55238095Y-101322200D01*
X54333333Y-101274580D02*
X54285714Y-101322200D01*
X54285714Y-101322200D02*
X54333333Y-101369819D01*
X54333333Y-101369819D02*
X54380952Y-101322200D01*
X54380952Y-101322200D02*
X54333333Y-101274580D01*
X54333333Y-101274580D02*
X54333333Y-101369819D01*
X53428572Y-101322200D02*
X53523810Y-101369819D01*
X53523810Y-101369819D02*
X53714286Y-101369819D01*
X53714286Y-101369819D02*
X53809524Y-101322200D01*
X53809524Y-101322200D02*
X53857143Y-101274580D01*
X53857143Y-101274580D02*
X53904762Y-101179342D01*
X53904762Y-101179342D02*
X53904762Y-100893628D01*
X53904762Y-100893628D02*
X53857143Y-100798390D01*
X53857143Y-100798390D02*
X53809524Y-100750771D01*
X53809524Y-100750771D02*
X53714286Y-100703152D01*
X53714286Y-100703152D02*
X53523810Y-100703152D01*
X53523810Y-100703152D02*
X53428572Y-100750771D01*
X52857143Y-101369819D02*
X52952381Y-101322200D01*
X52952381Y-101322200D02*
X53000000Y-101274580D01*
X53000000Y-101274580D02*
X53047619Y-101179342D01*
X53047619Y-101179342D02*
X53047619Y-100893628D01*
X53047619Y-100893628D02*
X53000000Y-100798390D01*
X53000000Y-100798390D02*
X52952381Y-100750771D01*
X52952381Y-100750771D02*
X52857143Y-100703152D01*
X52857143Y-100703152D02*
X52714286Y-100703152D01*
X52714286Y-100703152D02*
X52619048Y-100750771D01*
X52619048Y-100750771D02*
X52571429Y-100798390D01*
X52571429Y-100798390D02*
X52523810Y-100893628D01*
X52523810Y-100893628D02*
X52523810Y-101179342D01*
X52523810Y-101179342D02*
X52571429Y-101274580D01*
X52571429Y-101274580D02*
X52619048Y-101322200D01*
X52619048Y-101322200D02*
X52714286Y-101369819D01*
X52714286Y-101369819D02*
X52857143Y-101369819D01*
X52095238Y-101369819D02*
X52095238Y-100703152D01*
X52095238Y-100798390D02*
X52047619Y-100750771D01*
X52047619Y-100750771D02*
X51952381Y-100703152D01*
X51952381Y-100703152D02*
X51809524Y-100703152D01*
X51809524Y-100703152D02*
X51714286Y-100750771D01*
X51714286Y-100750771D02*
X51666667Y-100846009D01*
X51666667Y-100846009D02*
X51666667Y-101369819D01*
X51666667Y-100846009D02*
X51619048Y-100750771D01*
X51619048Y-100750771D02*
X51523810Y-100703152D01*
X51523810Y-100703152D02*
X51380953Y-100703152D01*
X51380953Y-100703152D02*
X51285714Y-100750771D01*
X51285714Y-100750771D02*
X51238095Y-100846009D01*
X51238095Y-100846009D02*
X51238095Y-101369819D01*
X50047620Y-100322200D02*
X50904762Y-101607914D01*
X49285715Y-101369819D02*
X49285715Y-100846009D01*
X49285715Y-100846009D02*
X49333334Y-100750771D01*
X49333334Y-100750771D02*
X49428572Y-100703152D01*
X49428572Y-100703152D02*
X49619048Y-100703152D01*
X49619048Y-100703152D02*
X49714286Y-100750771D01*
X49285715Y-101322200D02*
X49380953Y-101369819D01*
X49380953Y-101369819D02*
X49619048Y-101369819D01*
X49619048Y-101369819D02*
X49714286Y-101322200D01*
X49714286Y-101322200D02*
X49761905Y-101226961D01*
X49761905Y-101226961D02*
X49761905Y-101131723D01*
X49761905Y-101131723D02*
X49714286Y-101036485D01*
X49714286Y-101036485D02*
X49619048Y-100988866D01*
X49619048Y-100988866D02*
X49380953Y-100988866D01*
X49380953Y-100988866D02*
X49285715Y-100941247D01*
X48380953Y-100703152D02*
X48380953Y-101369819D01*
X48809524Y-100703152D02*
X48809524Y-101226961D01*
X48809524Y-101226961D02*
X48761905Y-101322200D01*
X48761905Y-101322200D02*
X48666667Y-101369819D01*
X48666667Y-101369819D02*
X48523810Y-101369819D01*
X48523810Y-101369819D02*
X48428572Y-101322200D01*
X48428572Y-101322200D02*
X48380953Y-101274580D01*
X47476191Y-100703152D02*
X47476191Y-101512676D01*
X47476191Y-101512676D02*
X47523810Y-101607914D01*
X47523810Y-101607914D02*
X47571429Y-101655533D01*
X47571429Y-101655533D02*
X47666667Y-101703152D01*
X47666667Y-101703152D02*
X47809524Y-101703152D01*
X47809524Y-101703152D02*
X47904762Y-101655533D01*
X47476191Y-101322200D02*
X47571429Y-101369819D01*
X47571429Y-101369819D02*
X47761905Y-101369819D01*
X47761905Y-101369819D02*
X47857143Y-101322200D01*
X47857143Y-101322200D02*
X47904762Y-101274580D01*
X47904762Y-101274580D02*
X47952381Y-101179342D01*
X47952381Y-101179342D02*
X47952381Y-100893628D01*
X47952381Y-100893628D02*
X47904762Y-100798390D01*
X47904762Y-100798390D02*
X47857143Y-100750771D01*
X47857143Y-100750771D02*
X47761905Y-100703152D01*
X47761905Y-100703152D02*
X47571429Y-100703152D01*
X47571429Y-100703152D02*
X47476191Y-100750771D01*
X46571429Y-100703152D02*
X46571429Y-101369819D01*
X47000000Y-100703152D02*
X47000000Y-101226961D01*
X47000000Y-101226961D02*
X46952381Y-101322200D01*
X46952381Y-101322200D02*
X46857143Y-101369819D01*
X46857143Y-101369819D02*
X46714286Y-101369819D01*
X46714286Y-101369819D02*
X46619048Y-101322200D01*
X46619048Y-101322200D02*
X46571429Y-101274580D01*
X46142857Y-101322200D02*
X46047619Y-101369819D01*
X46047619Y-101369819D02*
X45857143Y-101369819D01*
X45857143Y-101369819D02*
X45761905Y-101322200D01*
X45761905Y-101322200D02*
X45714286Y-101226961D01*
X45714286Y-101226961D02*
X45714286Y-101179342D01*
X45714286Y-101179342D02*
X45761905Y-101084104D01*
X45761905Y-101084104D02*
X45857143Y-101036485D01*
X45857143Y-101036485D02*
X46000000Y-101036485D01*
X46000000Y-101036485D02*
X46095238Y-100988866D01*
X46095238Y-100988866D02*
X46142857Y-100893628D01*
X46142857Y-100893628D02*
X46142857Y-100846009D01*
X46142857Y-100846009D02*
X46095238Y-100750771D01*
X46095238Y-100750771D02*
X46000000Y-100703152D01*
X46000000Y-100703152D02*
X45857143Y-100703152D01*
X45857143Y-100703152D02*
X45761905Y-100750771D01*
X45428571Y-100703152D02*
X45047619Y-100703152D01*
X45285714Y-100369819D02*
X45285714Y-101226961D01*
X45285714Y-101226961D02*
X45238095Y-101322200D01*
X45238095Y-101322200D02*
X45142857Y-101369819D01*
X45142857Y-101369819D02*
X45047619Y-101369819D01*
X44714285Y-101369819D02*
X44714285Y-100703152D01*
X44714285Y-100369819D02*
X44761904Y-100417438D01*
X44761904Y-100417438D02*
X44714285Y-100465057D01*
X44714285Y-100465057D02*
X44666666Y-100417438D01*
X44666666Y-100417438D02*
X44714285Y-100369819D01*
X44714285Y-100369819D02*
X44714285Y-100465057D01*
X44238095Y-100703152D02*
X44238095Y-101369819D01*
X44238095Y-100798390D02*
X44190476Y-100750771D01*
X44190476Y-100750771D02*
X44095238Y-100703152D01*
X44095238Y-100703152D02*
X43952381Y-100703152D01*
X43952381Y-100703152D02*
X43857143Y-100750771D01*
X43857143Y-100750771D02*
X43809524Y-100846009D01*
X43809524Y-100846009D02*
X43809524Y-101369819D01*
X43428571Y-100703152D02*
X42904762Y-100703152D01*
X42904762Y-100703152D02*
X43428571Y-101369819D01*
X43428571Y-101369819D02*
X42904762Y-101369819D01*
X42095238Y-101369819D02*
X42095238Y-100846009D01*
X42095238Y-100846009D02*
X42142857Y-100750771D01*
X42142857Y-100750771D02*
X42238095Y-100703152D01*
X42238095Y-100703152D02*
X42428571Y-100703152D01*
X42428571Y-100703152D02*
X42523809Y-100750771D01*
X42095238Y-101322200D02*
X42190476Y-101369819D01*
X42190476Y-101369819D02*
X42428571Y-101369819D01*
X42428571Y-101369819D02*
X42523809Y-101322200D01*
X42523809Y-101322200D02*
X42571428Y-101226961D01*
X42571428Y-101226961D02*
X42571428Y-101131723D01*
X42571428Y-101131723D02*
X42523809Y-101036485D01*
X42523809Y-101036485D02*
X42428571Y-100988866D01*
X42428571Y-100988866D02*
X42190476Y-100988866D01*
X42190476Y-100988866D02*
X42095238Y-100941247D01*
X41619047Y-101369819D02*
X41619047Y-100703152D01*
X41619047Y-100369819D02*
X41666666Y-100417438D01*
X41666666Y-100417438D02*
X41619047Y-100465057D01*
X41619047Y-100465057D02*
X41571428Y-100417438D01*
X41571428Y-100417438D02*
X41619047Y-100369819D01*
X41619047Y-100369819D02*
X41619047Y-100465057D01*
X41142857Y-100703152D02*
X41142857Y-101369819D01*
X41142857Y-100798390D02*
X41095238Y-100750771D01*
X41095238Y-100750771D02*
X41000000Y-100703152D01*
X41000000Y-100703152D02*
X40857143Y-100703152D01*
X40857143Y-100703152D02*
X40761905Y-100750771D01*
X40761905Y-100750771D02*
X40714286Y-100846009D01*
X40714286Y-100846009D02*
X40714286Y-101369819D01*
X40238095Y-101369819D02*
X40238095Y-100703152D01*
X40238095Y-100369819D02*
X40285714Y-100417438D01*
X40285714Y-100417438D02*
X40238095Y-100465057D01*
X40238095Y-100465057D02*
X40190476Y-100417438D01*
X40190476Y-100417438D02*
X40238095Y-100369819D01*
X40238095Y-100369819D02*
X40238095Y-100465057D01*
X39761905Y-100703152D02*
X39761905Y-101369819D01*
X39761905Y-100798390D02*
X39714286Y-100750771D01*
X39714286Y-100750771D02*
X39619048Y-100703152D01*
X39619048Y-100703152D02*
X39476191Y-100703152D01*
X39476191Y-100703152D02*
X39380953Y-100750771D01*
X39380953Y-100750771D02*
X39333334Y-100846009D01*
X39333334Y-100846009D02*
X39333334Y-101369819D01*
X38428572Y-100703152D02*
X38428572Y-101512676D01*
X38428572Y-101512676D02*
X38476191Y-101607914D01*
X38476191Y-101607914D02*
X38523810Y-101655533D01*
X38523810Y-101655533D02*
X38619048Y-101703152D01*
X38619048Y-101703152D02*
X38761905Y-101703152D01*
X38761905Y-101703152D02*
X38857143Y-101655533D01*
X38428572Y-101322200D02*
X38523810Y-101369819D01*
X38523810Y-101369819D02*
X38714286Y-101369819D01*
X38714286Y-101369819D02*
X38809524Y-101322200D01*
X38809524Y-101322200D02*
X38857143Y-101274580D01*
X38857143Y-101274580D02*
X38904762Y-101179342D01*
X38904762Y-101179342D02*
X38904762Y-100893628D01*
X38904762Y-100893628D02*
X38857143Y-100798390D01*
X38857143Y-100798390D02*
X38809524Y-100750771D01*
X38809524Y-100750771D02*
X38714286Y-100703152D01*
X38714286Y-100703152D02*
X38523810Y-100703152D01*
X38523810Y-100703152D02*
X38428572Y-100750771D01*
X37571429Y-101322200D02*
X37666667Y-101369819D01*
X37666667Y-101369819D02*
X37857143Y-101369819D01*
X37857143Y-101369819D02*
X37952381Y-101322200D01*
X37952381Y-101322200D02*
X38000000Y-101226961D01*
X38000000Y-101226961D02*
X38000000Y-100846009D01*
X38000000Y-100846009D02*
X37952381Y-100750771D01*
X37952381Y-100750771D02*
X37857143Y-100703152D01*
X37857143Y-100703152D02*
X37666667Y-100703152D01*
X37666667Y-100703152D02*
X37571429Y-100750771D01*
X37571429Y-100750771D02*
X37523810Y-100846009D01*
X37523810Y-100846009D02*
X37523810Y-100941247D01*
X37523810Y-100941247D02*
X38000000Y-101036485D01*
X37095238Y-101369819D02*
X37095238Y-100703152D01*
X37095238Y-100893628D02*
X37047619Y-100798390D01*
X37047619Y-100798390D02*
X37000000Y-100750771D01*
X37000000Y-100750771D02*
X36904762Y-100703152D01*
X36904762Y-100703152D02*
X36809524Y-100703152D01*
X36333333Y-101274580D02*
X36285714Y-101322200D01*
X36285714Y-101322200D02*
X36333333Y-101369819D01*
X36333333Y-101369819D02*
X36380952Y-101322200D01*
X36380952Y-101322200D02*
X36333333Y-101274580D01*
X36333333Y-101274580D02*
X36333333Y-101369819D01*
X36523809Y-100417438D02*
X36428571Y-100369819D01*
X36428571Y-100369819D02*
X36190476Y-100369819D01*
X36190476Y-100369819D02*
X36095238Y-100417438D01*
X36095238Y-100417438D02*
X36047619Y-100512676D01*
X36047619Y-100512676D02*
X36047619Y-100607914D01*
X36047619Y-100607914D02*
X36095238Y-100703152D01*
X36095238Y-100703152D02*
X36142857Y-100750771D01*
X36142857Y-100750771D02*
X36238095Y-100798390D01*
X36238095Y-100798390D02*
X36285714Y-100846009D01*
X36285714Y-100846009D02*
X36333333Y-100941247D01*
X36333333Y-100941247D02*
X36333333Y-100988866D01*
X35761904Y-100703152D02*
X35380952Y-100703152D01*
X35619047Y-100369819D02*
X35619047Y-101226961D01*
X35619047Y-101226961D02*
X35571428Y-101322200D01*
X35571428Y-101322200D02*
X35476190Y-101369819D01*
X35476190Y-101369819D02*
X35380952Y-101369819D01*
X34619047Y-101369819D02*
X34619047Y-100846009D01*
X34619047Y-100846009D02*
X34666666Y-100750771D01*
X34666666Y-100750771D02*
X34761904Y-100703152D01*
X34761904Y-100703152D02*
X34952380Y-100703152D01*
X34952380Y-100703152D02*
X35047618Y-100750771D01*
X34619047Y-101322200D02*
X34714285Y-101369819D01*
X34714285Y-101369819D02*
X34952380Y-101369819D01*
X34952380Y-101369819D02*
X35047618Y-101322200D01*
X35047618Y-101322200D02*
X35095237Y-101226961D01*
X35095237Y-101226961D02*
X35095237Y-101131723D01*
X35095237Y-101131723D02*
X35047618Y-101036485D01*
X35047618Y-101036485D02*
X34952380Y-100988866D01*
X34952380Y-100988866D02*
X34714285Y-100988866D01*
X34714285Y-100988866D02*
X34619047Y-100941247D01*
X34142856Y-101369819D02*
X34142856Y-100369819D01*
X34142856Y-100750771D02*
X34047618Y-100703152D01*
X34047618Y-100703152D02*
X33857142Y-100703152D01*
X33857142Y-100703152D02*
X33761904Y-100750771D01*
X33761904Y-100750771D02*
X33714285Y-100798390D01*
X33714285Y-100798390D02*
X33666666Y-100893628D01*
X33666666Y-100893628D02*
X33666666Y-101179342D01*
X33666666Y-101179342D02*
X33714285Y-101274580D01*
X33714285Y-101274580D02*
X33761904Y-101322200D01*
X33761904Y-101322200D02*
X33857142Y-101369819D01*
X33857142Y-101369819D02*
X34047618Y-101369819D01*
X34047618Y-101369819D02*
X34142856Y-101322200D01*
X33238094Y-100846009D02*
X32476190Y-100846009D01*
X32476190Y-101131723D02*
X33238094Y-101131723D01*
X31999999Y-101369819D02*
X31999999Y-100703152D01*
X31999999Y-100893628D02*
X31952380Y-100798390D01*
X31952380Y-100798390D02*
X31904761Y-100750771D01*
X31904761Y-100750771D02*
X31809523Y-100703152D01*
X31809523Y-100703152D02*
X31714285Y-100703152D01*
X30999999Y-101322200D02*
X31095237Y-101369819D01*
X31095237Y-101369819D02*
X31285713Y-101369819D01*
X31285713Y-101369819D02*
X31380951Y-101322200D01*
X31380951Y-101322200D02*
X31428570Y-101226961D01*
X31428570Y-101226961D02*
X31428570Y-100846009D01*
X31428570Y-100846009D02*
X31380951Y-100750771D01*
X31380951Y-100750771D02*
X31285713Y-100703152D01*
X31285713Y-100703152D02*
X31095237Y-100703152D01*
X31095237Y-100703152D02*
X30999999Y-100750771D01*
X30999999Y-100750771D02*
X30952380Y-100846009D01*
X30952380Y-100846009D02*
X30952380Y-100941247D01*
X30952380Y-100941247D02*
X31428570Y-101036485D01*
X30523808Y-100703152D02*
X30523808Y-101703152D01*
X30523808Y-100750771D02*
X30428570Y-100703152D01*
X30428570Y-100703152D02*
X30238094Y-100703152D01*
X30238094Y-100703152D02*
X30142856Y-100750771D01*
X30142856Y-100750771D02*
X30095237Y-100798390D01*
X30095237Y-100798390D02*
X30047618Y-100893628D01*
X30047618Y-100893628D02*
X30047618Y-101179342D01*
X30047618Y-101179342D02*
X30095237Y-101274580D01*
X30095237Y-101274580D02*
X30142856Y-101322200D01*
X30142856Y-101322200D02*
X30238094Y-101369819D01*
X30238094Y-101369819D02*
X30428570Y-101369819D01*
X30428570Y-101369819D02*
X30523808Y-101322200D01*
X29476189Y-101369819D02*
X29571427Y-101322200D01*
X29571427Y-101322200D02*
X29619046Y-101274580D01*
X29619046Y-101274580D02*
X29666665Y-101179342D01*
X29666665Y-101179342D02*
X29666665Y-100893628D01*
X29666665Y-100893628D02*
X29619046Y-100798390D01*
X29619046Y-100798390D02*
X29571427Y-100750771D01*
X29571427Y-100750771D02*
X29476189Y-100703152D01*
X29476189Y-100703152D02*
X29333332Y-100703152D01*
X29333332Y-100703152D02*
X29238094Y-100750771D01*
X29238094Y-100750771D02*
X29190475Y-100798390D01*
X29190475Y-100798390D02*
X29142856Y-100893628D01*
X29142856Y-100893628D02*
X29142856Y-101179342D01*
X29142856Y-101179342D02*
X29190475Y-101274580D01*
X29190475Y-101274580D02*
X29238094Y-101322200D01*
X29238094Y-101322200D02*
X29333332Y-101369819D01*
X29333332Y-101369819D02*
X29476189Y-101369819D01*
X28761903Y-101322200D02*
X28666665Y-101369819D01*
X28666665Y-101369819D02*
X28476189Y-101369819D01*
X28476189Y-101369819D02*
X28380951Y-101322200D01*
X28380951Y-101322200D02*
X28333332Y-101226961D01*
X28333332Y-101226961D02*
X28333332Y-101179342D01*
X28333332Y-101179342D02*
X28380951Y-101084104D01*
X28380951Y-101084104D02*
X28476189Y-101036485D01*
X28476189Y-101036485D02*
X28619046Y-101036485D01*
X28619046Y-101036485D02*
X28714284Y-100988866D01*
X28714284Y-100988866D02*
X28761903Y-100893628D01*
X28761903Y-100893628D02*
X28761903Y-100846009D01*
X28761903Y-100846009D02*
X28714284Y-100750771D01*
X28714284Y-100750771D02*
X28619046Y-100703152D01*
X28619046Y-100703152D02*
X28476189Y-100703152D01*
X28476189Y-100703152D02*
X28380951Y-100750771D01*
X27904760Y-101369819D02*
X27904760Y-100703152D01*
X27904760Y-100369819D02*
X27952379Y-100417438D01*
X27952379Y-100417438D02*
X27904760Y-100465057D01*
X27904760Y-100465057D02*
X27857141Y-100417438D01*
X27857141Y-100417438D02*
X27904760Y-100369819D01*
X27904760Y-100369819D02*
X27904760Y-100465057D01*
X27571427Y-100703152D02*
X27190475Y-100703152D01*
X27428570Y-100369819D02*
X27428570Y-101226961D01*
X27428570Y-101226961D02*
X27380951Y-101322200D01*
X27380951Y-101322200D02*
X27285713Y-101369819D01*
X27285713Y-101369819D02*
X27190475Y-101369819D01*
X26714284Y-101369819D02*
X26809522Y-101322200D01*
X26809522Y-101322200D02*
X26857141Y-101274580D01*
X26857141Y-101274580D02*
X26904760Y-101179342D01*
X26904760Y-101179342D02*
X26904760Y-100893628D01*
X26904760Y-100893628D02*
X26857141Y-100798390D01*
X26857141Y-100798390D02*
X26809522Y-100750771D01*
X26809522Y-100750771D02*
X26714284Y-100703152D01*
X26714284Y-100703152D02*
X26571427Y-100703152D01*
X26571427Y-100703152D02*
X26476189Y-100750771D01*
X26476189Y-100750771D02*
X26428570Y-100798390D01*
X26428570Y-100798390D02*
X26380951Y-100893628D01*
X26380951Y-100893628D02*
X26380951Y-101179342D01*
X26380951Y-101179342D02*
X26428570Y-101274580D01*
X26428570Y-101274580D02*
X26476189Y-101322200D01*
X26476189Y-101322200D02*
X26571427Y-101369819D01*
X26571427Y-101369819D02*
X26714284Y-101369819D01*
X25952379Y-101369819D02*
X25952379Y-100703152D01*
X25952379Y-100893628D02*
X25904760Y-100798390D01*
X25904760Y-100798390D02*
X25857141Y-100750771D01*
X25857141Y-100750771D02*
X25761903Y-100703152D01*
X25761903Y-100703152D02*
X25666665Y-100703152D01*
X25333331Y-101369819D02*
X25333331Y-100703152D01*
X25333331Y-100369819D02*
X25380950Y-100417438D01*
X25380950Y-100417438D02*
X25333331Y-100465057D01*
X25333331Y-100465057D02*
X25285712Y-100417438D01*
X25285712Y-100417438D02*
X25333331Y-100369819D01*
X25333331Y-100369819D02*
X25333331Y-100465057D01*
X24476189Y-101322200D02*
X24571427Y-101369819D01*
X24571427Y-101369819D02*
X24761903Y-101369819D01*
X24761903Y-101369819D02*
X24857141Y-101322200D01*
X24857141Y-101322200D02*
X24904760Y-101226961D01*
X24904760Y-101226961D02*
X24904760Y-100846009D01*
X24904760Y-100846009D02*
X24857141Y-100750771D01*
X24857141Y-100750771D02*
X24761903Y-100703152D01*
X24761903Y-100703152D02*
X24571427Y-100703152D01*
X24571427Y-100703152D02*
X24476189Y-100750771D01*
X24476189Y-100750771D02*
X24428570Y-100846009D01*
X24428570Y-100846009D02*
X24428570Y-100941247D01*
X24428570Y-100941247D02*
X24904760Y-101036485D01*
X24047617Y-101322200D02*
X23952379Y-101369819D01*
X23952379Y-101369819D02*
X23761903Y-101369819D01*
X23761903Y-101369819D02*
X23666665Y-101322200D01*
X23666665Y-101322200D02*
X23619046Y-101226961D01*
X23619046Y-101226961D02*
X23619046Y-101179342D01*
X23619046Y-101179342D02*
X23666665Y-101084104D01*
X23666665Y-101084104D02*
X23761903Y-101036485D01*
X23761903Y-101036485D02*
X23904760Y-101036485D01*
X23904760Y-101036485D02*
X23999998Y-100988866D01*
X23999998Y-100988866D02*
X24047617Y-100893628D01*
X24047617Y-100893628D02*
X24047617Y-100846009D01*
X24047617Y-100846009D02*
X23999998Y-100750771D01*
X23999998Y-100750771D02*
X23904760Y-100703152D01*
X23904760Y-100703152D02*
X23761903Y-100703152D01*
X23761903Y-100703152D02*
X23666665Y-100750771D01*
X110804285Y-136855104D02*
X110328095Y-136855104D01*
X110899523Y-137140819D02*
X110566190Y-136140819D01*
X110566190Y-136140819D02*
X110232857Y-137140819D01*
X109375714Y-137140819D02*
X109947142Y-137140819D01*
X109661428Y-137140819D02*
X109661428Y-136140819D01*
X109661428Y-136140819D02*
X109756666Y-136283676D01*
X109756666Y-136283676D02*
X109851904Y-136378914D01*
X109851904Y-136378914D02*
X109947142Y-136426533D01*
X48391905Y-130770180D02*
X48391905Y-131770180D01*
X48391905Y-131770180D02*
X48630000Y-131770180D01*
X48630000Y-131770180D02*
X48772857Y-131722561D01*
X48772857Y-131722561D02*
X48868095Y-131627323D01*
X48868095Y-131627323D02*
X48915714Y-131532085D01*
X48915714Y-131532085D02*
X48963333Y-131341609D01*
X48963333Y-131341609D02*
X48963333Y-131198752D01*
X48963333Y-131198752D02*
X48915714Y-131008276D01*
X48915714Y-131008276D02*
X48868095Y-130913038D01*
X48868095Y-130913038D02*
X48772857Y-130817800D01*
X48772857Y-130817800D02*
X48630000Y-130770180D01*
X48630000Y-130770180D02*
X48391905Y-130770180D01*
X49582381Y-131770180D02*
X49677619Y-131770180D01*
X49677619Y-131770180D02*
X49772857Y-131722561D01*
X49772857Y-131722561D02*
X49820476Y-131674942D01*
X49820476Y-131674942D02*
X49868095Y-131579704D01*
X49868095Y-131579704D02*
X49915714Y-131389228D01*
X49915714Y-131389228D02*
X49915714Y-131151133D01*
X49915714Y-131151133D02*
X49868095Y-130960657D01*
X49868095Y-130960657D02*
X49820476Y-130865419D01*
X49820476Y-130865419D02*
X49772857Y-130817800D01*
X49772857Y-130817800D02*
X49677619Y-130770180D01*
X49677619Y-130770180D02*
X49582381Y-130770180D01*
X49582381Y-130770180D02*
X49487143Y-130817800D01*
X49487143Y-130817800D02*
X49439524Y-130865419D01*
X49439524Y-130865419D02*
X49391905Y-130960657D01*
X49391905Y-130960657D02*
X49344286Y-131151133D01*
X49344286Y-131151133D02*
X49344286Y-131389228D01*
X49344286Y-131389228D02*
X49391905Y-131579704D01*
X49391905Y-131579704D02*
X49439524Y-131674942D01*
X49439524Y-131674942D02*
X49487143Y-131722561D01*
X49487143Y-131722561D02*
X49582381Y-131770180D01*
X50146000Y-114693580D02*
X50193619Y-114741200D01*
X50193619Y-114741200D02*
X50146000Y-114788819D01*
X50146000Y-114788819D02*
X50098381Y-114741200D01*
X50098381Y-114741200D02*
X50146000Y-114693580D01*
X50146000Y-114693580D02*
X50146000Y-114788819D01*
%TO.C,A1*%
X112630000Y-135670000D02*
X112630000Y-82330000D01*
X112630000Y-135670000D02*
X15094000Y-135670000D01*
X112630000Y-82330000D02*
X13570000Y-82330000D01*
X15094000Y-135670000D02*
X13570000Y-134146000D01*
X13570000Y-122970000D02*
X13570000Y-134146000D01*
X13570000Y-83600000D02*
X11030000Y-86140000D01*
X13570000Y-82330000D02*
X13570000Y-83600000D01*
X11030000Y-120430000D02*
X13570000Y-122970000D01*
X11030000Y-86140000D02*
X11030000Y-120430000D01*
%TD*%
M02*
