%TF.GenerationSoftware,KiCad,Pcbnew,7.0.7*%
%TF.CreationDate,2024-02-22T12:48:15+00:00*%
%TF.ProjectId,baseBoard_rev0,62617365-426f-4617-9264-5f726576302e,rev?*%
%TF.SameCoordinates,Original*%
%TF.FileFunction,Drillmap*%
%TF.FilePolarity,Positive*%
%FSLAX45Y45*%
G04 Gerber Fmt 4.5, Leading zero omitted, Abs format (unit mm)*
G04 Created by KiCad (PCBNEW 7.0.7) date 2024-02-22 12:48:15*
%MOMM*%
%LPD*%
G01*
G04 APERTURE LIST*
%ADD10C,0.100000*%
%ADD11C,0.200000*%
%ADD12C,0.040000*%
%ADD13C,0.050000*%
%ADD14C,0.101600*%
%ADD15C,0.120000*%
%ADD16C,0.130000*%
%ADD17C,0.320000*%
G04 APERTURE END LIST*
D10*
X19500000Y-15000000D02*
G75*
G03*
X20000000Y-14500000I0J500000D01*
G01*
X20000000Y-500000D02*
G75*
G03*
X19500000Y0I-500000J0D01*
G01*
X20000000Y-500000D02*
X20000000Y-14500000D01*
X0Y-14500000D02*
X0Y-500000D01*
X19500000Y-15000000D02*
X500000Y-15000000D01*
X500000Y0D02*
X19500000Y0D01*
X500000Y0D02*
G75*
G03*
X0Y-500000I0J-500000D01*
G01*
X0Y-14500000D02*
G75*
G03*
X500000Y-15000000I500000J0D01*
G01*
D11*
D12*
X1780000Y-4530000D02*
X1820000Y-4570000D01*
X1820000Y-4530000D02*
X1780000Y-4570000D01*
X2030000Y-4380000D02*
X2070000Y-4420000D01*
X2070000Y-4380000D02*
X2030000Y-4420000D01*
X2480000Y-7530000D02*
X2520000Y-7570000D01*
X2520000Y-7530000D02*
X2480000Y-7570000D01*
X2580000Y-7480000D02*
X2620000Y-7520000D01*
X2620000Y-7480000D02*
X2580000Y-7520000D01*
X2580000Y-7580000D02*
X2620000Y-7620000D01*
X2620000Y-7580000D02*
X2580000Y-7620000D01*
X2680000Y-7480000D02*
X2720000Y-7520000D01*
X2720000Y-7480000D02*
X2680000Y-7520000D01*
X2680000Y-7580000D02*
X2720000Y-7620000D01*
X2720000Y-7580000D02*
X2680000Y-7620000D01*
X2780000Y-7480000D02*
X2820000Y-7520000D01*
X2820000Y-7480000D02*
X2780000Y-7520000D01*
X2780000Y-7580000D02*
X2820000Y-7620000D01*
X2820000Y-7580000D02*
X2780000Y-7620000D01*
X2880000Y-7480000D02*
X2920000Y-7520000D01*
X2920000Y-7480000D02*
X2880000Y-7520000D01*
X2880000Y-7580000D02*
X2920000Y-7620000D01*
X2920000Y-7580000D02*
X2880000Y-7620000D01*
X2980000Y-7530000D02*
X3020000Y-7570000D01*
X3020000Y-7530000D02*
X2980000Y-7570000D01*
X3380000Y-4580000D02*
X3420000Y-4620000D01*
X3420000Y-4580000D02*
X3380000Y-4620000D01*
X3580000Y-4380000D02*
X3620000Y-4420000D01*
X3620000Y-4380000D02*
X3580000Y-4420000D01*
X4780000Y-4580000D02*
X4820000Y-4620000D01*
X4820000Y-4580000D02*
X4780000Y-4620000D01*
X5030000Y-4430000D02*
X5070000Y-4470000D01*
X5070000Y-4430000D02*
X5030000Y-4470000D01*
X6180000Y-4580000D02*
X6220000Y-4620000D01*
X6220000Y-4580000D02*
X6180000Y-4620000D01*
X6430000Y-4380000D02*
X6470000Y-4420000D01*
X6470000Y-4380000D02*
X6430000Y-4420000D01*
X7780000Y-4530000D02*
X7820000Y-4570000D01*
X7820000Y-4530000D02*
X7780000Y-4570000D01*
X8030000Y-4330000D02*
X8070000Y-4370000D01*
X8070000Y-4330000D02*
X8030000Y-4370000D01*
X9380000Y-2180000D02*
X9420000Y-2220000D01*
X9420000Y-2180000D02*
X9380000Y-2220000D01*
X9380000Y-2280000D02*
X9420000Y-2320000D01*
X9420000Y-2280000D02*
X9380000Y-2320000D01*
X9480000Y-2080000D02*
X9520000Y-2120000D01*
X9520000Y-2080000D02*
X9480000Y-2120000D01*
X9480000Y-2180000D02*
X9520000Y-2220000D01*
X9520000Y-2180000D02*
X9480000Y-2220000D01*
X9480000Y-2280000D02*
X9520000Y-2320000D01*
X9520000Y-2280000D02*
X9480000Y-2320000D01*
X9580000Y-1980000D02*
X9620000Y-2020000D01*
X9620000Y-1980000D02*
X9580000Y-2020000D01*
X9580000Y-2080000D02*
X9620000Y-2120000D01*
X9620000Y-2080000D02*
X9580000Y-2120000D01*
X9580000Y-2180000D02*
X9620000Y-2220000D01*
X9620000Y-2180000D02*
X9580000Y-2220000D01*
X9680000Y-1880000D02*
X9720000Y-1920000D01*
X9720000Y-1880000D02*
X9680000Y-1920000D01*
X9680000Y-1980000D02*
X9720000Y-2020000D01*
X9720000Y-1980000D02*
X9680000Y-2020000D01*
X9680000Y-2080000D02*
X9720000Y-2120000D01*
X9720000Y-2080000D02*
X9680000Y-2120000D01*
X9780000Y-1880000D02*
X9820000Y-1920000D01*
X9820000Y-1880000D02*
X9780000Y-1920000D01*
X9780000Y-1980000D02*
X9820000Y-2020000D01*
X9820000Y-1980000D02*
X9780000Y-2020000D01*
X10180000Y-4530000D02*
X10220000Y-4570000D01*
X10220000Y-4530000D02*
X10180000Y-4570000D01*
X10430000Y-4230000D02*
X10470000Y-4270000D01*
X10470000Y-4230000D02*
X10430000Y-4270000D01*
X10480000Y-1080000D02*
X10520000Y-1120000D01*
X10520000Y-1080000D02*
X10480000Y-1120000D01*
X10480000Y-1180000D02*
X10520000Y-1220000D01*
X10520000Y-1180000D02*
X10480000Y-1220000D01*
X10580000Y-980000D02*
X10620000Y-1020000D01*
X10620000Y-980000D02*
X10580000Y-1020000D01*
X10580000Y-1080000D02*
X10620000Y-1120000D01*
X10620000Y-1080000D02*
X10580000Y-1120000D01*
X10580000Y-1180000D02*
X10620000Y-1220000D01*
X10620000Y-1180000D02*
X10580000Y-1220000D01*
X10680000Y-880000D02*
X10720000Y-920000D01*
X10720000Y-880000D02*
X10680000Y-920000D01*
X10680000Y-980000D02*
X10720000Y-1020000D01*
X10720000Y-980000D02*
X10680000Y-1020000D01*
X10680000Y-1080000D02*
X10720000Y-1120000D01*
X10720000Y-1080000D02*
X10680000Y-1120000D01*
X10780000Y-780000D02*
X10820000Y-820000D01*
X10820000Y-780000D02*
X10780000Y-820000D01*
X10780000Y-880000D02*
X10820000Y-920000D01*
X10820000Y-880000D02*
X10780000Y-920000D01*
X10780000Y-980000D02*
X10820000Y-1020000D01*
X10820000Y-980000D02*
X10780000Y-1020000D01*
X10880000Y-780000D02*
X10920000Y-820000D01*
X10920000Y-780000D02*
X10880000Y-820000D01*
X10880000Y-880000D02*
X10920000Y-920000D01*
X10920000Y-880000D02*
X10880000Y-920000D01*
X11980000Y-9380000D02*
X12020000Y-9420000D01*
X12020000Y-9380000D02*
X11980000Y-9420000D01*
X12080000Y-9330000D02*
X12120000Y-9370000D01*
X12120000Y-9330000D02*
X12080000Y-9370000D01*
X12080000Y-9430000D02*
X12120000Y-9470000D01*
X12120000Y-9430000D02*
X12080000Y-9470000D01*
X12180000Y-9330000D02*
X12220000Y-9370000D01*
X12220000Y-9330000D02*
X12180000Y-9370000D01*
X12180000Y-9430000D02*
X12220000Y-9470000D01*
X12220000Y-9430000D02*
X12180000Y-9470000D01*
X12279619Y-9427674D02*
X12319619Y-9467674D01*
X12319619Y-9427674D02*
X12279619Y-9467674D01*
X12280000Y-9330000D02*
X12320000Y-9370000D01*
X12320000Y-9330000D02*
X12280000Y-9370000D01*
X12380000Y-9330000D02*
X12420000Y-9370000D01*
X12420000Y-9330000D02*
X12380000Y-9370000D01*
X12380000Y-9430000D02*
X12420000Y-9470000D01*
X12420000Y-9430000D02*
X12380000Y-9470000D01*
X12480000Y-9380000D02*
X12520000Y-9420000D01*
X12520000Y-9380000D02*
X12480000Y-9420000D01*
X14680000Y-6780000D02*
X14720000Y-6820000D01*
X14720000Y-6780000D02*
X14680000Y-6820000D01*
X14680000Y-7680000D02*
X14720000Y-7720000D01*
X14720000Y-7680000D02*
X14680000Y-7720000D01*
X14680000Y-8730000D02*
X14720000Y-8770000D01*
X14720000Y-8730000D02*
X14680000Y-8770000D01*
X14680000Y-9480000D02*
X14720000Y-9520000D01*
X14720000Y-9480000D02*
X14680000Y-9520000D01*
X16230000Y-5230000D02*
X16270000Y-5270000D01*
X16270000Y-5230000D02*
X16230000Y-5270000D01*
X16230000Y-6230000D02*
X16270000Y-6270000D01*
X16270000Y-6230000D02*
X16230000Y-6270000D01*
X16230000Y-7280000D02*
X16270000Y-7320000D01*
X16270000Y-7280000D02*
X16230000Y-7320000D01*
X16230000Y-8230000D02*
X16270000Y-8270000D01*
X16270000Y-8230000D02*
X16230000Y-8270000D01*
D13*
X285000Y-500000D02*
G75*
G03*
X285000Y-500000I-25000J0D01*
G01*
X285000Y-7500000D02*
G75*
G03*
X285000Y-7500000I-25000J0D01*
G01*
X285000Y-14500000D02*
G75*
G03*
X285000Y-14500000I-25000J0D01*
G01*
X355294Y-330294D02*
G75*
G03*
X355294Y-330294I-25000J0D01*
G01*
X355294Y-669706D02*
G75*
G03*
X355294Y-669706I-25000J0D01*
G01*
X355294Y-7330294D02*
G75*
G03*
X355294Y-7330294I-25000J0D01*
G01*
X355294Y-7669706D02*
G75*
G03*
X355294Y-7669706I-25000J0D01*
G01*
X355294Y-14330294D02*
G75*
G03*
X355294Y-14330294I-25000J0D01*
G01*
X355294Y-14669706D02*
G75*
G03*
X355294Y-14669706I-25000J0D01*
G01*
X525000Y-260000D02*
G75*
G03*
X525000Y-260000I-25000J0D01*
G01*
X525000Y-740000D02*
G75*
G03*
X525000Y-740000I-25000J0D01*
G01*
X525000Y-7260000D02*
G75*
G03*
X525000Y-7260000I-25000J0D01*
G01*
X525000Y-7740000D02*
G75*
G03*
X525000Y-7740000I-25000J0D01*
G01*
X525000Y-14260000D02*
G75*
G03*
X525000Y-14260000I-25000J0D01*
G01*
X525000Y-14740000D02*
G75*
G03*
X525000Y-14740000I-25000J0D01*
G01*
X694706Y-330294D02*
G75*
G03*
X694706Y-330294I-25000J0D01*
G01*
X694706Y-669706D02*
G75*
G03*
X694706Y-669706I-25000J0D01*
G01*
X694706Y-7330294D02*
G75*
G03*
X694706Y-7330294I-25000J0D01*
G01*
X694706Y-7669706D02*
G75*
G03*
X694706Y-7669706I-25000J0D01*
G01*
X694706Y-14330294D02*
G75*
G03*
X694706Y-14330294I-25000J0D01*
G01*
X694706Y-14669706D02*
G75*
G03*
X694706Y-14669706I-25000J0D01*
G01*
X765000Y-500000D02*
G75*
G03*
X765000Y-500000I-25000J0D01*
G01*
X765000Y-7500000D02*
G75*
G03*
X765000Y-7500000I-25000J0D01*
G01*
X765000Y-14500000D02*
G75*
G03*
X765000Y-14500000I-25000J0D01*
G01*
X9785000Y-500000D02*
G75*
G03*
X9785000Y-500000I-25000J0D01*
G01*
X9785000Y-7500000D02*
G75*
G03*
X9785000Y-7500000I-25000J0D01*
G01*
X9785000Y-14500000D02*
G75*
G03*
X9785000Y-14500000I-25000J0D01*
G01*
X9855294Y-330294D02*
G75*
G03*
X9855294Y-330294I-25000J0D01*
G01*
X9855294Y-669706D02*
G75*
G03*
X9855294Y-669706I-25000J0D01*
G01*
X9855294Y-7330294D02*
G75*
G03*
X9855294Y-7330294I-25000J0D01*
G01*
X9855294Y-7669706D02*
G75*
G03*
X9855294Y-7669706I-25000J0D01*
G01*
X9855294Y-14330294D02*
G75*
G03*
X9855294Y-14330294I-25000J0D01*
G01*
X9855294Y-14669706D02*
G75*
G03*
X9855294Y-14669706I-25000J0D01*
G01*
X10025000Y-260000D02*
G75*
G03*
X10025000Y-260000I-25000J0D01*
G01*
X10025000Y-740000D02*
G75*
G03*
X10025000Y-740000I-25000J0D01*
G01*
X10025000Y-7260000D02*
G75*
G03*
X10025000Y-7260000I-25000J0D01*
G01*
X10025000Y-7740000D02*
G75*
G03*
X10025000Y-7740000I-25000J0D01*
G01*
X10025000Y-14260000D02*
G75*
G03*
X10025000Y-14260000I-25000J0D01*
G01*
X10025000Y-14740000D02*
G75*
G03*
X10025000Y-14740000I-25000J0D01*
G01*
X10194706Y-330294D02*
G75*
G03*
X10194706Y-330294I-25000J0D01*
G01*
X10194706Y-669706D02*
G75*
G03*
X10194706Y-669706I-25000J0D01*
G01*
X10194706Y-7330294D02*
G75*
G03*
X10194706Y-7330294I-25000J0D01*
G01*
X10194706Y-7669706D02*
G75*
G03*
X10194706Y-7669706I-25000J0D01*
G01*
X10194706Y-14330294D02*
G75*
G03*
X10194706Y-14330294I-25000J0D01*
G01*
X10194706Y-14669706D02*
G75*
G03*
X10194706Y-14669706I-25000J0D01*
G01*
X10265000Y-500000D02*
G75*
G03*
X10265000Y-500000I-25000J0D01*
G01*
X10265000Y-7500000D02*
G75*
G03*
X10265000Y-7500000I-25000J0D01*
G01*
X10265000Y-14500000D02*
G75*
G03*
X10265000Y-14500000I-25000J0D01*
G01*
X11285000Y-500000D02*
G75*
G03*
X11285000Y-500000I-25000J0D01*
G01*
X11285000Y-3500000D02*
G75*
G03*
X11285000Y-3500000I-25000J0D01*
G01*
X11355294Y-330294D02*
G75*
G03*
X11355294Y-330294I-25000J0D01*
G01*
X11355294Y-669706D02*
G75*
G03*
X11355294Y-669706I-25000J0D01*
G01*
X11355294Y-3330294D02*
G75*
G03*
X11355294Y-3330294I-25000J0D01*
G01*
X11355294Y-3669706D02*
G75*
G03*
X11355294Y-3669706I-25000J0D01*
G01*
X11525000Y-260000D02*
G75*
G03*
X11525000Y-260000I-25000J0D01*
G01*
X11525000Y-740000D02*
G75*
G03*
X11525000Y-740000I-25000J0D01*
G01*
X11525000Y-3260000D02*
G75*
G03*
X11525000Y-3260000I-25000J0D01*
G01*
X11525000Y-3740000D02*
G75*
G03*
X11525000Y-3740000I-25000J0D01*
G01*
X11694706Y-330294D02*
G75*
G03*
X11694706Y-330294I-25000J0D01*
G01*
X11694706Y-669706D02*
G75*
G03*
X11694706Y-669706I-25000J0D01*
G01*
X11694706Y-3330294D02*
G75*
G03*
X11694706Y-3330294I-25000J0D01*
G01*
X11694706Y-3669706D02*
G75*
G03*
X11694706Y-3669706I-25000J0D01*
G01*
X11765000Y-500000D02*
G75*
G03*
X11765000Y-500000I-25000J0D01*
G01*
X11765000Y-3500000D02*
G75*
G03*
X11765000Y-3500000I-25000J0D01*
G01*
X14285000Y-500000D02*
G75*
G03*
X14285000Y-500000I-25000J0D01*
G01*
X14285000Y-3500000D02*
G75*
G03*
X14285000Y-3500000I-25000J0D01*
G01*
X14355294Y-330294D02*
G75*
G03*
X14355294Y-330294I-25000J0D01*
G01*
X14355294Y-669706D02*
G75*
G03*
X14355294Y-669706I-25000J0D01*
G01*
X14355294Y-3330294D02*
G75*
G03*
X14355294Y-3330294I-25000J0D01*
G01*
X14355294Y-3669706D02*
G75*
G03*
X14355294Y-3669706I-25000J0D01*
G01*
X14525000Y-260000D02*
G75*
G03*
X14525000Y-260000I-25000J0D01*
G01*
X14525000Y-740000D02*
G75*
G03*
X14525000Y-740000I-25000J0D01*
G01*
X14525000Y-3260000D02*
G75*
G03*
X14525000Y-3260000I-25000J0D01*
G01*
X14525000Y-3740000D02*
G75*
G03*
X14525000Y-3740000I-25000J0D01*
G01*
X14694706Y-330294D02*
G75*
G03*
X14694706Y-330294I-25000J0D01*
G01*
X14694706Y-669706D02*
G75*
G03*
X14694706Y-669706I-25000J0D01*
G01*
X14694706Y-3330294D02*
G75*
G03*
X14694706Y-3330294I-25000J0D01*
G01*
X14694706Y-3669706D02*
G75*
G03*
X14694706Y-3669706I-25000J0D01*
G01*
X14765000Y-500000D02*
G75*
G03*
X14765000Y-500000I-25000J0D01*
G01*
X14765000Y-3500000D02*
G75*
G03*
X14765000Y-3500000I-25000J0D01*
G01*
X15285000Y-500000D02*
G75*
G03*
X15285000Y-500000I-25000J0D01*
G01*
X15285000Y-4500000D02*
G75*
G03*
X15285000Y-4500000I-25000J0D01*
G01*
X15355294Y-330294D02*
G75*
G03*
X15355294Y-330294I-25000J0D01*
G01*
X15355294Y-669706D02*
G75*
G03*
X15355294Y-669706I-25000J0D01*
G01*
X15355294Y-4330294D02*
G75*
G03*
X15355294Y-4330294I-25000J0D01*
G01*
X15355294Y-4669706D02*
G75*
G03*
X15355294Y-4669706I-25000J0D01*
G01*
X15525000Y-260000D02*
G75*
G03*
X15525000Y-260000I-25000J0D01*
G01*
X15525000Y-740000D02*
G75*
G03*
X15525000Y-740000I-25000J0D01*
G01*
X15525000Y-4260000D02*
G75*
G03*
X15525000Y-4260000I-25000J0D01*
G01*
X15525000Y-4740000D02*
G75*
G03*
X15525000Y-4740000I-25000J0D01*
G01*
X15694706Y-330294D02*
G75*
G03*
X15694706Y-330294I-25000J0D01*
G01*
X15694706Y-669706D02*
G75*
G03*
X15694706Y-669706I-25000J0D01*
G01*
X15694706Y-4330294D02*
G75*
G03*
X15694706Y-4330294I-25000J0D01*
G01*
X15694706Y-4669706D02*
G75*
G03*
X15694706Y-4669706I-25000J0D01*
G01*
X15765000Y-500000D02*
G75*
G03*
X15765000Y-500000I-25000J0D01*
G01*
X15765000Y-4500000D02*
G75*
G03*
X15765000Y-4500000I-25000J0D01*
G01*
X19285000Y-500000D02*
G75*
G03*
X19285000Y-500000I-25000J0D01*
G01*
X19285000Y-4500000D02*
G75*
G03*
X19285000Y-4500000I-25000J0D01*
G01*
X19285000Y-7500000D02*
G75*
G03*
X19285000Y-7500000I-25000J0D01*
G01*
X19285000Y-14500000D02*
G75*
G03*
X19285000Y-14500000I-25000J0D01*
G01*
X19355294Y-330294D02*
G75*
G03*
X19355294Y-330294I-25000J0D01*
G01*
X19355294Y-669706D02*
G75*
G03*
X19355294Y-669706I-25000J0D01*
G01*
X19355294Y-4330294D02*
G75*
G03*
X19355294Y-4330294I-25000J0D01*
G01*
X19355294Y-4669706D02*
G75*
G03*
X19355294Y-4669706I-25000J0D01*
G01*
X19355294Y-7330294D02*
G75*
G03*
X19355294Y-7330294I-25000J0D01*
G01*
X19355294Y-7669706D02*
G75*
G03*
X19355294Y-7669706I-25000J0D01*
G01*
X19355294Y-14330294D02*
G75*
G03*
X19355294Y-14330294I-25000J0D01*
G01*
X19355294Y-14669706D02*
G75*
G03*
X19355294Y-14669706I-25000J0D01*
G01*
X19525000Y-260000D02*
G75*
G03*
X19525000Y-260000I-25000J0D01*
G01*
X19525000Y-740000D02*
G75*
G03*
X19525000Y-740000I-25000J0D01*
G01*
X19525000Y-4260000D02*
G75*
G03*
X19525000Y-4260000I-25000J0D01*
G01*
X19525000Y-4740000D02*
G75*
G03*
X19525000Y-4740000I-25000J0D01*
G01*
X19525000Y-7260000D02*
G75*
G03*
X19525000Y-7260000I-25000J0D01*
G01*
X19525000Y-7740000D02*
G75*
G03*
X19525000Y-7740000I-25000J0D01*
G01*
X19525000Y-14260000D02*
G75*
G03*
X19525000Y-14260000I-25000J0D01*
G01*
X19525000Y-14740000D02*
G75*
G03*
X19525000Y-14740000I-25000J0D01*
G01*
X19694706Y-330294D02*
G75*
G03*
X19694706Y-330294I-25000J0D01*
G01*
X19694706Y-669706D02*
G75*
G03*
X19694706Y-669706I-25000J0D01*
G01*
X19694706Y-4330294D02*
G75*
G03*
X19694706Y-4330294I-25000J0D01*
G01*
X19694706Y-4669706D02*
G75*
G03*
X19694706Y-4669706I-25000J0D01*
G01*
X19694706Y-7330294D02*
G75*
G03*
X19694706Y-7330294I-25000J0D01*
G01*
X19694706Y-7669706D02*
G75*
G03*
X19694706Y-7669706I-25000J0D01*
G01*
X19694706Y-14330294D02*
G75*
G03*
X19694706Y-14330294I-25000J0D01*
G01*
X19694706Y-14669706D02*
G75*
G03*
X19694706Y-14669706I-25000J0D01*
G01*
X19765000Y-500000D02*
G75*
G03*
X19765000Y-500000I-25000J0D01*
G01*
X19765000Y-4500000D02*
G75*
G03*
X19765000Y-4500000I-25000J0D01*
G01*
X19765000Y-7500000D02*
G75*
G03*
X19765000Y-7500000I-25000J0D01*
G01*
X19765000Y-14500000D02*
G75*
G03*
X19765000Y-14500000I-25000J0D01*
G01*
D10*
X487000Y-1577000D02*
X487000Y-1677000D01*
X437000Y-1627000D02*
X537000Y-1627000D01*
X487000Y-1831000D02*
X487000Y-1931000D01*
X437000Y-1881000D02*
X537000Y-1881000D01*
X487000Y-2085000D02*
X487000Y-2185000D01*
X437000Y-2135000D02*
X537000Y-2135000D01*
X1287000Y-815000D02*
X1287000Y-915000D01*
X1237000Y-865000D02*
X1337000Y-865000D01*
X1287000Y-1069000D02*
X1287000Y-1169000D01*
X1237000Y-1119000D02*
X1337000Y-1119000D01*
X1287000Y-1323000D02*
X1287000Y-1423000D01*
X1237000Y-1373000D02*
X1337000Y-1373000D01*
X1287000Y-1577000D02*
X1287000Y-1677000D01*
X1237000Y-1627000D02*
X1337000Y-1627000D01*
X1287000Y-1831000D02*
X1287000Y-1931000D01*
X1237000Y-1881000D02*
X1337000Y-1881000D01*
X1287000Y-2085000D02*
X1287000Y-2185000D01*
X1237000Y-2135000D02*
X1337000Y-2135000D01*
X1287000Y-3815000D02*
X1287000Y-3915000D01*
X1237000Y-3865000D02*
X1337000Y-3865000D01*
X1287000Y-4069000D02*
X1287000Y-4169000D01*
X1237000Y-4119000D02*
X1337000Y-4119000D01*
X1287000Y-4323000D02*
X1287000Y-4423000D01*
X1237000Y-4373000D02*
X1337000Y-4373000D01*
X1287000Y-4577000D02*
X1287000Y-4677000D01*
X1237000Y-4627000D02*
X1337000Y-4627000D01*
X1287000Y-4831000D02*
X1287000Y-4931000D01*
X1237000Y-4881000D02*
X1337000Y-4881000D01*
X1287000Y-5085000D02*
X1287000Y-5185000D01*
X1237000Y-5135000D02*
X1337000Y-5135000D01*
X1550000Y-14200000D02*
X1550000Y-14300000D01*
X1500000Y-14250000D02*
X1600000Y-14250000D01*
X1550000Y-14454000D02*
X1550000Y-14554000D01*
X1500000Y-14504000D02*
X1600000Y-14504000D01*
X2787000Y-3815000D02*
X2787000Y-3915000D01*
X2737000Y-3865000D02*
X2837000Y-3865000D01*
X2787000Y-4069000D02*
X2787000Y-4169000D01*
X2737000Y-4119000D02*
X2837000Y-4119000D01*
X2787000Y-4323000D02*
X2787000Y-4423000D01*
X2737000Y-4373000D02*
X2837000Y-4373000D01*
X2787000Y-4577000D02*
X2787000Y-4677000D01*
X2737000Y-4627000D02*
X2837000Y-4627000D01*
X2787000Y-4831000D02*
X2787000Y-4931000D01*
X2737000Y-4881000D02*
X2837000Y-4881000D01*
X2787000Y-5085000D02*
X2787000Y-5185000D01*
X2737000Y-5135000D02*
X2837000Y-5135000D01*
X2800000Y-815000D02*
X2800000Y-915000D01*
X2750000Y-865000D02*
X2850000Y-865000D01*
X2800000Y-1069000D02*
X2800000Y-1169000D01*
X2750000Y-1119000D02*
X2850000Y-1119000D01*
X2800000Y-1323000D02*
X2800000Y-1423000D01*
X2750000Y-1373000D02*
X2850000Y-1373000D01*
X2800000Y-1577000D02*
X2800000Y-1677000D01*
X2750000Y-1627000D02*
X2850000Y-1627000D01*
X2800000Y-1831000D02*
X2800000Y-1931000D01*
X2750000Y-1881000D02*
X2850000Y-1881000D01*
X2800000Y-2085000D02*
X2800000Y-2185000D01*
X2750000Y-2135000D02*
X2850000Y-2135000D01*
X4287000Y-3815000D02*
X4287000Y-3915000D01*
X4237000Y-3865000D02*
X4337000Y-3865000D01*
X4287000Y-4069000D02*
X4287000Y-4169000D01*
X4237000Y-4119000D02*
X4337000Y-4119000D01*
X4287000Y-4323000D02*
X4287000Y-4423000D01*
X4237000Y-4373000D02*
X4337000Y-4373000D01*
X4287000Y-4577000D02*
X4287000Y-4677000D01*
X4237000Y-4627000D02*
X4337000Y-4627000D01*
X4287000Y-4831000D02*
X4287000Y-4931000D01*
X4237000Y-4881000D02*
X4337000Y-4881000D01*
X4287000Y-5085000D02*
X4287000Y-5185000D01*
X4237000Y-5135000D02*
X4337000Y-5135000D01*
X4300000Y-815000D02*
X4300000Y-915000D01*
X4250000Y-865000D02*
X4350000Y-865000D01*
X4300000Y-1069000D02*
X4300000Y-1169000D01*
X4250000Y-1119000D02*
X4350000Y-1119000D01*
X4300000Y-1323000D02*
X4300000Y-1423000D01*
X4250000Y-1373000D02*
X4350000Y-1373000D01*
X4300000Y-1577000D02*
X4300000Y-1677000D01*
X4250000Y-1627000D02*
X4350000Y-1627000D01*
X4300000Y-1831000D02*
X4300000Y-1931000D01*
X4250000Y-1881000D02*
X4350000Y-1881000D01*
X4300000Y-2085000D02*
X4300000Y-2185000D01*
X4250000Y-2135000D02*
X4350000Y-2135000D01*
X5787000Y-3815000D02*
X5787000Y-3915000D01*
X5737000Y-3865000D02*
X5837000Y-3865000D01*
X5787000Y-4069000D02*
X5787000Y-4169000D01*
X5737000Y-4119000D02*
X5837000Y-4119000D01*
X5787000Y-4323000D02*
X5787000Y-4423000D01*
X5737000Y-4373000D02*
X5837000Y-4373000D01*
X5787000Y-4577000D02*
X5787000Y-4677000D01*
X5737000Y-4627000D02*
X5837000Y-4627000D01*
X5787000Y-4831000D02*
X5787000Y-4931000D01*
X5737000Y-4881000D02*
X5837000Y-4881000D01*
X5787000Y-5085000D02*
X5787000Y-5185000D01*
X5737000Y-5135000D02*
X5837000Y-5135000D01*
X5800000Y-815000D02*
X5800000Y-915000D01*
X5750000Y-865000D02*
X5850000Y-865000D01*
X5800000Y-1069000D02*
X5800000Y-1169000D01*
X5750000Y-1119000D02*
X5850000Y-1119000D01*
X5800000Y-1323000D02*
X5800000Y-1423000D01*
X5750000Y-1373000D02*
X5850000Y-1373000D01*
X5800000Y-1577000D02*
X5800000Y-1677000D01*
X5750000Y-1627000D02*
X5850000Y-1627000D01*
X5800000Y-1831000D02*
X5800000Y-1931000D01*
X5750000Y-1881000D02*
X5850000Y-1881000D01*
X5800000Y-2085000D02*
X5800000Y-2185000D01*
X5750000Y-2135000D02*
X5850000Y-2135000D01*
X7287000Y-3815000D02*
X7287000Y-3915000D01*
X7237000Y-3865000D02*
X7337000Y-3865000D01*
X7287000Y-4069000D02*
X7287000Y-4169000D01*
X7237000Y-4119000D02*
X7337000Y-4119000D01*
X7287000Y-4323000D02*
X7287000Y-4423000D01*
X7237000Y-4373000D02*
X7337000Y-4373000D01*
X7287000Y-4577000D02*
X7287000Y-4677000D01*
X7237000Y-4627000D02*
X7337000Y-4627000D01*
X7287000Y-4831000D02*
X7287000Y-4931000D01*
X7237000Y-4881000D02*
X7337000Y-4881000D01*
X7287000Y-5085000D02*
X7287000Y-5185000D01*
X7237000Y-5135000D02*
X7337000Y-5135000D01*
X7300000Y-815000D02*
X7300000Y-915000D01*
X7250000Y-865000D02*
X7350000Y-865000D01*
X7300000Y-1069000D02*
X7300000Y-1169000D01*
X7250000Y-1119000D02*
X7350000Y-1119000D01*
X7300000Y-1323000D02*
X7300000Y-1423000D01*
X7250000Y-1373000D02*
X7350000Y-1373000D01*
X7300000Y-1577000D02*
X7300000Y-1677000D01*
X7250000Y-1627000D02*
X7350000Y-1627000D01*
X7300000Y-1831000D02*
X7300000Y-1931000D01*
X7250000Y-1881000D02*
X7350000Y-1881000D01*
X7300000Y-2085000D02*
X7300000Y-2185000D01*
X7250000Y-2135000D02*
X7350000Y-2135000D01*
X8787000Y-3815000D02*
X8787000Y-3915000D01*
X8737000Y-3865000D02*
X8837000Y-3865000D01*
X8787000Y-4069000D02*
X8787000Y-4169000D01*
X8737000Y-4119000D02*
X8837000Y-4119000D01*
X8787000Y-4323000D02*
X8787000Y-4423000D01*
X8737000Y-4373000D02*
X8837000Y-4373000D01*
X8787000Y-4577000D02*
X8787000Y-4677000D01*
X8737000Y-4627000D02*
X8837000Y-4627000D01*
X8787000Y-4831000D02*
X8787000Y-4931000D01*
X8737000Y-4881000D02*
X8837000Y-4881000D01*
X8787000Y-5085000D02*
X8787000Y-5185000D01*
X8737000Y-5135000D02*
X8837000Y-5135000D01*
X8800000Y-815000D02*
X8800000Y-915000D01*
X8750000Y-865000D02*
X8850000Y-865000D01*
X8800000Y-1069000D02*
X8800000Y-1169000D01*
X8750000Y-1119000D02*
X8850000Y-1119000D01*
X8800000Y-1323000D02*
X8800000Y-1423000D01*
X8750000Y-1373000D02*
X8850000Y-1373000D01*
X8800000Y-1577000D02*
X8800000Y-1677000D01*
X8750000Y-1627000D02*
X8850000Y-1627000D01*
X8800000Y-1831000D02*
X8800000Y-1931000D01*
X8750000Y-1881000D02*
X8850000Y-1881000D01*
X8800000Y-2085000D02*
X8800000Y-2185000D01*
X8750000Y-2135000D02*
X8850000Y-2135000D01*
X12492000Y-4585000D02*
X12492000Y-4685000D01*
X12442000Y-4635000D02*
X12542000Y-4635000D01*
X12492000Y-4839000D02*
X12492000Y-4939000D01*
X12442000Y-4889000D02*
X12542000Y-4889000D01*
X12492000Y-5601000D02*
X12492000Y-5701000D01*
X12442000Y-5651000D02*
X12542000Y-5651000D01*
X12492000Y-5855000D02*
X12492000Y-5955000D01*
X12442000Y-5905000D02*
X12542000Y-5905000D01*
X12492000Y-6617000D02*
X12492000Y-6717000D01*
X12442000Y-6667000D02*
X12542000Y-6667000D01*
X12492000Y-6871000D02*
X12492000Y-6971000D01*
X12442000Y-6921000D02*
X12542000Y-6921000D01*
X12492000Y-7633000D02*
X12492000Y-7733000D01*
X12442000Y-7683000D02*
X12542000Y-7683000D01*
X12492000Y-7887000D02*
X12492000Y-7987000D01*
X12442000Y-7937000D02*
X12542000Y-7937000D01*
X12746000Y-4585000D02*
X12746000Y-4685000D01*
X12696000Y-4635000D02*
X12796000Y-4635000D01*
X12746000Y-4839000D02*
X12746000Y-4939000D01*
X12696000Y-4889000D02*
X12796000Y-4889000D01*
X12746000Y-5601000D02*
X12746000Y-5701000D01*
X12696000Y-5651000D02*
X12796000Y-5651000D01*
X12746000Y-5855000D02*
X12746000Y-5955000D01*
X12696000Y-5905000D02*
X12796000Y-5905000D01*
X12746000Y-6617000D02*
X12746000Y-6717000D01*
X12696000Y-6667000D02*
X12796000Y-6667000D01*
X12746000Y-6871000D02*
X12746000Y-6971000D01*
X12696000Y-6921000D02*
X12796000Y-6921000D01*
X12746000Y-7633000D02*
X12746000Y-7733000D01*
X12696000Y-7683000D02*
X12796000Y-7683000D01*
X12746000Y-7887000D02*
X12746000Y-7987000D01*
X12696000Y-7937000D02*
X12796000Y-7937000D01*
X13000000Y-4585000D02*
X13000000Y-4685000D01*
X12950000Y-4635000D02*
X13050000Y-4635000D01*
X13000000Y-4839000D02*
X13000000Y-4939000D01*
X12950000Y-4889000D02*
X13050000Y-4889000D01*
X13000000Y-5601000D02*
X13000000Y-5701000D01*
X12950000Y-5651000D02*
X13050000Y-5651000D01*
X13000000Y-5855000D02*
X13000000Y-5955000D01*
X12950000Y-5905000D02*
X13050000Y-5905000D01*
X13000000Y-6617000D02*
X13000000Y-6717000D01*
X12950000Y-6667000D02*
X13050000Y-6667000D01*
X13000000Y-6871000D02*
X13000000Y-6971000D01*
X12950000Y-6921000D02*
X13050000Y-6921000D01*
X13000000Y-7633000D02*
X13000000Y-7733000D01*
X12950000Y-7683000D02*
X13050000Y-7683000D01*
X13000000Y-7887000D02*
X13000000Y-7987000D01*
X12950000Y-7937000D02*
X13050000Y-7937000D01*
X13254000Y-4585000D02*
X13254000Y-4685000D01*
X13204000Y-4635000D02*
X13304000Y-4635000D01*
X13254000Y-4839000D02*
X13254000Y-4939000D01*
X13204000Y-4889000D02*
X13304000Y-4889000D01*
X13254000Y-5601000D02*
X13254000Y-5701000D01*
X13204000Y-5651000D02*
X13304000Y-5651000D01*
X13254000Y-5855000D02*
X13254000Y-5955000D01*
X13204000Y-5905000D02*
X13304000Y-5905000D01*
X13254000Y-6617000D02*
X13254000Y-6717000D01*
X13204000Y-6667000D02*
X13304000Y-6667000D01*
X13254000Y-6871000D02*
X13254000Y-6971000D01*
X13204000Y-6921000D02*
X13304000Y-6921000D01*
X13254000Y-7633000D02*
X13254000Y-7733000D01*
X13204000Y-7683000D02*
X13304000Y-7683000D01*
X13254000Y-7887000D02*
X13254000Y-7987000D01*
X13204000Y-7937000D02*
X13304000Y-7937000D01*
X13508000Y-4585000D02*
X13508000Y-4685000D01*
X13458000Y-4635000D02*
X13558000Y-4635000D01*
X13508000Y-4839000D02*
X13508000Y-4939000D01*
X13458000Y-4889000D02*
X13558000Y-4889000D01*
X13508000Y-5601000D02*
X13508000Y-5701000D01*
X13458000Y-5651000D02*
X13558000Y-5651000D01*
X13508000Y-5855000D02*
X13508000Y-5955000D01*
X13458000Y-5905000D02*
X13558000Y-5905000D01*
X13508000Y-6617000D02*
X13508000Y-6717000D01*
X13458000Y-6667000D02*
X13558000Y-6667000D01*
X13508000Y-6871000D02*
X13508000Y-6971000D01*
X13458000Y-6921000D02*
X13558000Y-6921000D01*
X13508000Y-7633000D02*
X13508000Y-7733000D01*
X13458000Y-7683000D02*
X13558000Y-7683000D01*
X13508000Y-7887000D02*
X13508000Y-7987000D01*
X13458000Y-7937000D02*
X13558000Y-7937000D01*
X15250000Y-10342000D02*
X15250000Y-10442000D01*
X15200000Y-10392000D02*
X15300000Y-10392000D01*
X15250000Y-10596000D02*
X15250000Y-10696000D01*
X15200000Y-10646000D02*
X15300000Y-10646000D01*
X15250000Y-10850000D02*
X15250000Y-10950000D01*
X15200000Y-10900000D02*
X15300000Y-10900000D01*
X15250000Y-11104000D02*
X15250000Y-11204000D01*
X15200000Y-11154000D02*
X15300000Y-11154000D01*
X16992000Y-5585000D02*
X16992000Y-5685000D01*
X16942000Y-5635000D02*
X17042000Y-5635000D01*
X16992000Y-5839000D02*
X16992000Y-5939000D01*
X16942000Y-5889000D02*
X17042000Y-5889000D01*
X16992000Y-6601000D02*
X16992000Y-6701000D01*
X16942000Y-6651000D02*
X17042000Y-6651000D01*
X16992000Y-6855000D02*
X16992000Y-6955000D01*
X16942000Y-6905000D02*
X17042000Y-6905000D01*
X16992000Y-7617000D02*
X16992000Y-7717000D01*
X16942000Y-7667000D02*
X17042000Y-7667000D01*
X16992000Y-7871000D02*
X16992000Y-7971000D01*
X16942000Y-7921000D02*
X17042000Y-7921000D01*
X16992000Y-8633000D02*
X16992000Y-8733000D01*
X16942000Y-8683000D02*
X17042000Y-8683000D01*
X16992000Y-8887000D02*
X16992000Y-8987000D01*
X16942000Y-8937000D02*
X17042000Y-8937000D01*
X17246000Y-5585000D02*
X17246000Y-5685000D01*
X17196000Y-5635000D02*
X17296000Y-5635000D01*
X17246000Y-5839000D02*
X17246000Y-5939000D01*
X17196000Y-5889000D02*
X17296000Y-5889000D01*
X17246000Y-6601000D02*
X17246000Y-6701000D01*
X17196000Y-6651000D02*
X17296000Y-6651000D01*
X17246000Y-6855000D02*
X17246000Y-6955000D01*
X17196000Y-6905000D02*
X17296000Y-6905000D01*
X17246000Y-7617000D02*
X17246000Y-7717000D01*
X17196000Y-7667000D02*
X17296000Y-7667000D01*
X17246000Y-7871000D02*
X17246000Y-7971000D01*
X17196000Y-7921000D02*
X17296000Y-7921000D01*
X17246000Y-8633000D02*
X17246000Y-8733000D01*
X17196000Y-8683000D02*
X17296000Y-8683000D01*
X17246000Y-8887000D02*
X17246000Y-8987000D01*
X17196000Y-8937000D02*
X17296000Y-8937000D01*
X17500000Y-5585000D02*
X17500000Y-5685000D01*
X17450000Y-5635000D02*
X17550000Y-5635000D01*
X17500000Y-5839000D02*
X17500000Y-5939000D01*
X17450000Y-5889000D02*
X17550000Y-5889000D01*
X17500000Y-6601000D02*
X17500000Y-6701000D01*
X17450000Y-6651000D02*
X17550000Y-6651000D01*
X17500000Y-6855000D02*
X17500000Y-6955000D01*
X17450000Y-6905000D02*
X17550000Y-6905000D01*
X17500000Y-7617000D02*
X17500000Y-7717000D01*
X17450000Y-7667000D02*
X17550000Y-7667000D01*
X17500000Y-7871000D02*
X17500000Y-7971000D01*
X17450000Y-7921000D02*
X17550000Y-7921000D01*
X17500000Y-8633000D02*
X17500000Y-8733000D01*
X17450000Y-8683000D02*
X17550000Y-8683000D01*
X17500000Y-8887000D02*
X17500000Y-8987000D01*
X17450000Y-8937000D02*
X17550000Y-8937000D01*
X17754000Y-5585000D02*
X17754000Y-5685000D01*
X17704000Y-5635000D02*
X17804000Y-5635000D01*
X17754000Y-5839000D02*
X17754000Y-5939000D01*
X17704000Y-5889000D02*
X17804000Y-5889000D01*
X17754000Y-6601000D02*
X17754000Y-6701000D01*
X17704000Y-6651000D02*
X17804000Y-6651000D01*
X17754000Y-6855000D02*
X17754000Y-6955000D01*
X17704000Y-6905000D02*
X17804000Y-6905000D01*
X17754000Y-7617000D02*
X17754000Y-7717000D01*
X17704000Y-7667000D02*
X17804000Y-7667000D01*
X17754000Y-7871000D02*
X17754000Y-7971000D01*
X17704000Y-7921000D02*
X17804000Y-7921000D01*
X17754000Y-8633000D02*
X17754000Y-8733000D01*
X17704000Y-8683000D02*
X17804000Y-8683000D01*
X17754000Y-8887000D02*
X17754000Y-8987000D01*
X17704000Y-8937000D02*
X17804000Y-8937000D01*
X18008000Y-5585000D02*
X18008000Y-5685000D01*
X17958000Y-5635000D02*
X18058000Y-5635000D01*
X18008000Y-5839000D02*
X18008000Y-5939000D01*
X17958000Y-5889000D02*
X18058000Y-5889000D01*
X18008000Y-6601000D02*
X18008000Y-6701000D01*
X17958000Y-6651000D02*
X18058000Y-6651000D01*
X18008000Y-6855000D02*
X18008000Y-6955000D01*
X17958000Y-6905000D02*
X18058000Y-6905000D01*
X18008000Y-7617000D02*
X18008000Y-7717000D01*
X17958000Y-7667000D02*
X18058000Y-7667000D01*
X18008000Y-7871000D02*
X18008000Y-7971000D01*
X17958000Y-7921000D02*
X18058000Y-7921000D01*
X18008000Y-8633000D02*
X18008000Y-8733000D01*
X17958000Y-8683000D02*
X18058000Y-8683000D01*
X18008000Y-8887000D02*
X18008000Y-8987000D01*
X17958000Y-8937000D02*
X18058000Y-8937000D01*
D14*
X1646921Y-9030921D02*
X1646921Y-8959079D01*
X1575079Y-8959079D01*
X1575079Y-9030921D01*
X1646921Y-9030921D01*
X1646921Y-9284921D02*
X1646921Y-9213079D01*
X1575079Y-9213079D01*
X1575079Y-9284921D01*
X1646921Y-9284921D01*
X1646921Y-9538921D02*
X1646921Y-9467079D01*
X1575079Y-9467079D01*
X1575079Y-9538921D01*
X1646921Y-9538921D01*
X1646921Y-9792921D02*
X1646921Y-9721079D01*
X1575079Y-9721079D01*
X1575079Y-9792921D01*
X1646921Y-9792921D01*
X1646921Y-10046921D02*
X1646921Y-9975079D01*
X1575079Y-9975079D01*
X1575079Y-10046921D01*
X1646921Y-10046921D01*
X1646921Y-10300921D02*
X1646921Y-10229079D01*
X1575079Y-10229079D01*
X1575079Y-10300921D01*
X1646921Y-10300921D01*
X1646921Y-10554921D02*
X1646921Y-10483079D01*
X1575079Y-10483079D01*
X1575079Y-10554921D01*
X1646921Y-10554921D01*
X1646921Y-10808921D02*
X1646921Y-10737079D01*
X1575079Y-10737079D01*
X1575079Y-10808921D01*
X1646921Y-10808921D01*
X1646921Y-11062921D02*
X1646921Y-10991079D01*
X1575079Y-10991079D01*
X1575079Y-11062921D01*
X1646921Y-11062921D01*
X1646921Y-11316921D02*
X1646921Y-11245079D01*
X1575079Y-11245079D01*
X1575079Y-11316921D01*
X1646921Y-11316921D01*
X1646921Y-11570921D02*
X1646921Y-11499079D01*
X1575079Y-11499079D01*
X1575079Y-11570921D01*
X1646921Y-11570921D01*
X1646921Y-11824921D02*
X1646921Y-11753079D01*
X1575079Y-11753079D01*
X1575079Y-11824921D01*
X1646921Y-11824921D01*
X1646921Y-12078921D02*
X1646921Y-12007079D01*
X1575079Y-12007079D01*
X1575079Y-12078921D01*
X1646921Y-12078921D01*
X1646921Y-12332921D02*
X1646921Y-12261079D01*
X1575079Y-12261079D01*
X1575079Y-12332921D01*
X1646921Y-12332921D01*
X1646921Y-12586921D02*
X1646921Y-12515079D01*
X1575079Y-12515079D01*
X1575079Y-12586921D01*
X1646921Y-12586921D01*
X1646921Y-12840921D02*
X1646921Y-12769079D01*
X1575079Y-12769079D01*
X1575079Y-12840921D01*
X1646921Y-12840921D01*
X1646921Y-13094921D02*
X1646921Y-13023079D01*
X1575079Y-13023079D01*
X1575079Y-13094921D01*
X1646921Y-13094921D01*
X1646921Y-13348921D02*
X1646921Y-13277079D01*
X1575079Y-13277079D01*
X1575079Y-13348921D01*
X1646921Y-13348921D01*
X1900921Y-9030921D02*
X1900921Y-8959079D01*
X1829079Y-8959079D01*
X1829079Y-9030921D01*
X1900921Y-9030921D01*
X1900921Y-9284921D02*
X1900921Y-9213079D01*
X1829079Y-9213079D01*
X1829079Y-9284921D01*
X1900921Y-9284921D01*
X1900921Y-9538921D02*
X1900921Y-9467079D01*
X1829079Y-9467079D01*
X1829079Y-9538921D01*
X1900921Y-9538921D01*
X1900921Y-9792921D02*
X1900921Y-9721079D01*
X1829079Y-9721079D01*
X1829079Y-9792921D01*
X1900921Y-9792921D01*
X1900921Y-10046921D02*
X1900921Y-9975079D01*
X1829079Y-9975079D01*
X1829079Y-10046921D01*
X1900921Y-10046921D01*
X1900921Y-10300921D02*
X1900921Y-10229079D01*
X1829079Y-10229079D01*
X1829079Y-10300921D01*
X1900921Y-10300921D01*
X1900921Y-10554921D02*
X1900921Y-10483079D01*
X1829079Y-10483079D01*
X1829079Y-10554921D01*
X1900921Y-10554921D01*
X1900921Y-10808921D02*
X1900921Y-10737079D01*
X1829079Y-10737079D01*
X1829079Y-10808921D01*
X1900921Y-10808921D01*
X1900921Y-11062921D02*
X1900921Y-10991079D01*
X1829079Y-10991079D01*
X1829079Y-11062921D01*
X1900921Y-11062921D01*
X1900921Y-11316921D02*
X1900921Y-11245079D01*
X1829079Y-11245079D01*
X1829079Y-11316921D01*
X1900921Y-11316921D01*
X1900921Y-11570921D02*
X1900921Y-11499079D01*
X1829079Y-11499079D01*
X1829079Y-11570921D01*
X1900921Y-11570921D01*
X1900921Y-11824921D02*
X1900921Y-11753079D01*
X1829079Y-11753079D01*
X1829079Y-11824921D01*
X1900921Y-11824921D01*
X1900921Y-12078921D02*
X1900921Y-12007079D01*
X1829079Y-12007079D01*
X1829079Y-12078921D01*
X1900921Y-12078921D01*
X1900921Y-12332921D02*
X1900921Y-12261079D01*
X1829079Y-12261079D01*
X1829079Y-12332921D01*
X1900921Y-12332921D01*
X1900921Y-12586921D02*
X1900921Y-12515079D01*
X1829079Y-12515079D01*
X1829079Y-12586921D01*
X1900921Y-12586921D01*
X1900921Y-12840921D02*
X1900921Y-12769079D01*
X1829079Y-12769079D01*
X1829079Y-12840921D01*
X1900921Y-12840921D01*
X1900921Y-13094921D02*
X1900921Y-13023079D01*
X1829079Y-13023079D01*
X1829079Y-13094921D01*
X1900921Y-13094921D01*
X1900921Y-13348921D02*
X1900921Y-13277079D01*
X1829079Y-13277079D01*
X1829079Y-13348921D01*
X1900921Y-13348921D01*
X2154921Y-8522921D02*
X2154921Y-8451079D01*
X2083079Y-8451079D01*
X2083079Y-8522921D01*
X2154921Y-8522921D01*
X2408921Y-8522921D02*
X2408921Y-8451079D01*
X2337079Y-8451079D01*
X2337079Y-8522921D01*
X2408921Y-8522921D01*
X2662921Y-8522921D02*
X2662921Y-8451079D01*
X2591079Y-8451079D01*
X2591079Y-8522921D01*
X2662921Y-8522921D01*
X2662921Y-13348921D02*
X2662921Y-13277079D01*
X2591079Y-13277079D01*
X2591079Y-13348921D01*
X2662921Y-13348921D01*
X2916921Y-8522921D02*
X2916921Y-8451079D01*
X2845079Y-8451079D01*
X2845079Y-8522921D01*
X2916921Y-8522921D01*
X2916921Y-13348921D02*
X2916921Y-13277079D01*
X2845079Y-13277079D01*
X2845079Y-13348921D01*
X2916921Y-13348921D01*
X3170921Y-8522921D02*
X3170921Y-8451079D01*
X3099079Y-8451079D01*
X3099079Y-8522921D01*
X3170921Y-8522921D01*
X3170921Y-13348921D02*
X3170921Y-13277079D01*
X3099079Y-13277079D01*
X3099079Y-13348921D01*
X3170921Y-13348921D01*
X3424921Y-8522921D02*
X3424921Y-8451079D01*
X3353079Y-8451079D01*
X3353079Y-8522921D01*
X3424921Y-8522921D01*
X3424921Y-13348921D02*
X3424921Y-13277079D01*
X3353079Y-13277079D01*
X3353079Y-13348921D01*
X3424921Y-13348921D01*
X3678921Y-8522921D02*
X3678921Y-8451079D01*
X3607079Y-8451079D01*
X3607079Y-8522921D01*
X3678921Y-8522921D01*
X3678921Y-13348921D02*
X3678921Y-13277079D01*
X3607079Y-13277079D01*
X3607079Y-13348921D01*
X3678921Y-13348921D01*
X3932921Y-8522921D02*
X3932921Y-8451079D01*
X3861079Y-8451079D01*
X3861079Y-8522921D01*
X3932921Y-8522921D01*
X3932921Y-13348921D02*
X3932921Y-13277079D01*
X3861079Y-13277079D01*
X3861079Y-13348921D01*
X3932921Y-13348921D01*
X4186921Y-13348921D02*
X4186921Y-13277079D01*
X4115079Y-13277079D01*
X4115079Y-13348921D01*
X4186921Y-13348921D01*
X4440921Y-8522921D02*
X4440921Y-8451079D01*
X4369079Y-8451079D01*
X4369079Y-8522921D01*
X4440921Y-8522921D01*
X4440921Y-13348921D02*
X4440921Y-13277079D01*
X4369079Y-13277079D01*
X4369079Y-13348921D01*
X4440921Y-13348921D01*
X4682221Y-10808921D02*
X4682221Y-10737079D01*
X4610379Y-10737079D01*
X4610379Y-10808921D01*
X4682221Y-10808921D01*
X4682221Y-11062921D02*
X4682221Y-10991079D01*
X4610379Y-10991079D01*
X4610379Y-11062921D01*
X4682221Y-11062921D01*
X4682221Y-11316921D02*
X4682221Y-11245079D01*
X4610379Y-11245079D01*
X4610379Y-11316921D01*
X4682221Y-11316921D01*
X4694921Y-8522921D02*
X4694921Y-8451079D01*
X4623079Y-8451079D01*
X4623079Y-8522921D01*
X4694921Y-8522921D01*
X4936221Y-10808921D02*
X4936221Y-10737079D01*
X4864379Y-10737079D01*
X4864379Y-10808921D01*
X4936221Y-10808921D01*
X4936221Y-11062921D02*
X4936221Y-10991079D01*
X4864379Y-10991079D01*
X4864379Y-11062921D01*
X4936221Y-11062921D01*
X4936221Y-11316921D02*
X4936221Y-11245079D01*
X4864379Y-11245079D01*
X4864379Y-11316921D01*
X4936221Y-11316921D01*
X4948921Y-8522921D02*
X4948921Y-8451079D01*
X4877079Y-8451079D01*
X4877079Y-8522921D01*
X4948921Y-8522921D01*
X4948921Y-13348921D02*
X4948921Y-13277079D01*
X4877079Y-13277079D01*
X4877079Y-13348921D01*
X4948921Y-13348921D01*
X5202921Y-8522921D02*
X5202921Y-8451079D01*
X5131079Y-8451079D01*
X5131079Y-8522921D01*
X5202921Y-8522921D01*
X5202921Y-13348921D02*
X5202921Y-13277079D01*
X5131079Y-13277079D01*
X5131079Y-13348921D01*
X5202921Y-13348921D01*
X5456921Y-8522921D02*
X5456921Y-8451079D01*
X5385079Y-8451079D01*
X5385079Y-8522921D01*
X5456921Y-8522921D01*
X5456921Y-13348921D02*
X5456921Y-13277079D01*
X5385079Y-13277079D01*
X5385079Y-13348921D01*
X5456921Y-13348921D01*
X5710921Y-8522921D02*
X5710921Y-8451079D01*
X5639079Y-8451079D01*
X5639079Y-8522921D01*
X5710921Y-8522921D01*
X5710921Y-13348921D02*
X5710921Y-13277079D01*
X5639079Y-13277079D01*
X5639079Y-13348921D01*
X5710921Y-13348921D01*
X5964921Y-8522921D02*
X5964921Y-8451079D01*
X5893079Y-8451079D01*
X5893079Y-8522921D01*
X5964921Y-8522921D01*
X5964921Y-13348921D02*
X5964921Y-13277079D01*
X5893079Y-13277079D01*
X5893079Y-13348921D01*
X5964921Y-13348921D01*
X6218921Y-8522921D02*
X6218921Y-8451079D01*
X6147079Y-8451079D01*
X6147079Y-8522921D01*
X6218921Y-8522921D01*
X6218921Y-13348921D02*
X6218921Y-13277079D01*
X6147079Y-13277079D01*
X6147079Y-13348921D01*
X6218921Y-13348921D01*
X6472921Y-13348921D02*
X6472921Y-13277079D01*
X6401079Y-13277079D01*
X6401079Y-13348921D01*
X6472921Y-13348921D01*
X6726921Y-8522921D02*
X6726921Y-8451079D01*
X6655079Y-8451079D01*
X6655079Y-8522921D01*
X6726921Y-8522921D01*
X6726921Y-13348921D02*
X6726921Y-13277079D01*
X6655079Y-13277079D01*
X6655079Y-13348921D01*
X6726921Y-13348921D01*
X6980921Y-8522921D02*
X6980921Y-8451079D01*
X6909079Y-8451079D01*
X6909079Y-8522921D01*
X6980921Y-8522921D01*
X7133321Y-13348921D02*
X7133321Y-13277079D01*
X7061479Y-13277079D01*
X7061479Y-13348921D01*
X7133321Y-13348921D01*
X7234921Y-8522921D02*
X7234921Y-8451079D01*
X7163079Y-8451079D01*
X7163079Y-8522921D01*
X7234921Y-8522921D01*
X7387321Y-13348921D02*
X7387321Y-13277079D01*
X7315479Y-13277079D01*
X7315479Y-13348921D01*
X7387321Y-13348921D01*
X7488921Y-8522921D02*
X7488921Y-8451079D01*
X7417079Y-8451079D01*
X7417079Y-8522921D01*
X7488921Y-8522921D01*
X7641321Y-13348921D02*
X7641321Y-13277079D01*
X7569479Y-13277079D01*
X7569479Y-13348921D01*
X7641321Y-13348921D01*
X7742921Y-8522921D02*
X7742921Y-8451079D01*
X7671079Y-8451079D01*
X7671079Y-8522921D01*
X7742921Y-8522921D01*
X7895321Y-13348921D02*
X7895321Y-13277079D01*
X7823479Y-13277079D01*
X7823479Y-13348921D01*
X7895321Y-13348921D01*
X7996921Y-8522921D02*
X7996921Y-8451079D01*
X7925079Y-8451079D01*
X7925079Y-8522921D01*
X7996921Y-8522921D01*
X8149321Y-13348921D02*
X8149321Y-13277079D01*
X8077479Y-13277079D01*
X8077479Y-13348921D01*
X8149321Y-13348921D01*
X8250921Y-8522921D02*
X8250921Y-8451079D01*
X8179079Y-8451079D01*
X8179079Y-8522921D01*
X8250921Y-8522921D01*
X8403321Y-13348921D02*
X8403321Y-13277079D01*
X8331479Y-13277079D01*
X8331479Y-13348921D01*
X8403321Y-13348921D01*
X8504921Y-8522921D02*
X8504921Y-8451079D01*
X8433079Y-8451079D01*
X8433079Y-8522921D01*
X8504921Y-8522921D01*
X8657321Y-13348921D02*
X8657321Y-13277079D01*
X8585479Y-13277079D01*
X8585479Y-13348921D01*
X8657321Y-13348921D01*
X8911321Y-13348921D02*
X8911321Y-13277079D01*
X8839479Y-13277079D01*
X8839479Y-13348921D01*
X8911321Y-13348921D01*
X9165321Y-13348921D02*
X9165321Y-13277079D01*
X9093479Y-13277079D01*
X9093479Y-13348921D01*
X9165321Y-13348921D01*
X9419321Y-13348921D02*
X9419321Y-13277079D01*
X9347479Y-13277079D01*
X9347479Y-13348921D01*
X9419321Y-13348921D01*
D15*
X14700000Y-12144000D02*
X14760000Y-12084000D01*
X14700000Y-12024000D01*
X14640000Y-12084000D01*
X14700000Y-12144000D01*
X14700000Y-13160000D02*
X14760000Y-13100000D01*
X14700000Y-13040000D01*
X14640000Y-13100000D01*
X14700000Y-13160000D01*
X14700000Y-14176000D02*
X14760000Y-14116000D01*
X14700000Y-14056000D01*
X14640000Y-14116000D01*
X14700000Y-14176000D01*
X16732000Y-12906000D02*
X16792000Y-12846000D01*
X16732000Y-12786000D01*
X16672000Y-12846000D01*
X16732000Y-12906000D01*
X16732000Y-13414000D02*
X16792000Y-13354000D01*
X16732000Y-13294000D01*
X16672000Y-13354000D01*
X16732000Y-13414000D01*
X16732000Y-14176000D02*
X16792000Y-14116000D01*
X16732000Y-14056000D01*
X16672000Y-14116000D01*
X16732000Y-14176000D01*
D16*
X19304500Y-12780500D02*
X19434500Y-12910500D01*
X19434500Y-12780500D02*
X19304500Y-12910500D01*
X19434500Y-12845500D02*
G75*
G03*
X19434500Y-12845500I-65000J0D01*
G01*
X19304500Y-13288500D02*
X19434500Y-13418500D01*
X19434500Y-13288500D02*
X19304500Y-13418500D01*
X19434500Y-13353500D02*
G75*
G03*
X19434500Y-13353500I-65000J0D01*
G01*
D17*
X340000Y-340000D02*
X660000Y-660000D01*
X660000Y-340000D02*
X340000Y-660000D01*
X500000Y-340000D02*
X500000Y-660000D01*
X340000Y-500000D02*
X660000Y-500000D01*
X340000Y-7340000D02*
X660000Y-7660000D01*
X660000Y-7340000D02*
X340000Y-7660000D01*
X500000Y-7340000D02*
X500000Y-7660000D01*
X340000Y-7500000D02*
X660000Y-7500000D01*
X340000Y-14340000D02*
X660000Y-14660000D01*
X660000Y-14340000D02*
X340000Y-14660000D01*
X500000Y-14340000D02*
X500000Y-14660000D01*
X340000Y-14500000D02*
X660000Y-14500000D01*
X9840000Y-340000D02*
X10160000Y-660000D01*
X10160000Y-340000D02*
X9840000Y-660000D01*
X10000000Y-340000D02*
X10000000Y-660000D01*
X9840000Y-500000D02*
X10160000Y-500000D01*
X9840000Y-7340000D02*
X10160000Y-7660000D01*
X10160000Y-7340000D02*
X9840000Y-7660000D01*
X10000000Y-7340000D02*
X10000000Y-7660000D01*
X9840000Y-7500000D02*
X10160000Y-7500000D01*
X9840000Y-14340000D02*
X10160000Y-14660000D01*
X10160000Y-14340000D02*
X9840000Y-14660000D01*
X10000000Y-14340000D02*
X10000000Y-14660000D01*
X9840000Y-14500000D02*
X10160000Y-14500000D01*
X11340000Y-340000D02*
X11660000Y-660000D01*
X11660000Y-340000D02*
X11340000Y-660000D01*
X11500000Y-340000D02*
X11500000Y-660000D01*
X11340000Y-500000D02*
X11660000Y-500000D01*
X11340000Y-3340000D02*
X11660000Y-3660000D01*
X11660000Y-3340000D02*
X11340000Y-3660000D01*
X11500000Y-3340000D02*
X11500000Y-3660000D01*
X11340000Y-3500000D02*
X11660000Y-3500000D01*
X14340000Y-340000D02*
X14660000Y-660000D01*
X14660000Y-340000D02*
X14340000Y-660000D01*
X14500000Y-340000D02*
X14500000Y-660000D01*
X14340000Y-500000D02*
X14660000Y-500000D01*
X14340000Y-3340000D02*
X14660000Y-3660000D01*
X14660000Y-3340000D02*
X14340000Y-3660000D01*
X14500000Y-3340000D02*
X14500000Y-3660000D01*
X14340000Y-3500000D02*
X14660000Y-3500000D01*
X15340000Y-340000D02*
X15660000Y-660000D01*
X15660000Y-340000D02*
X15340000Y-660000D01*
X15500000Y-340000D02*
X15500000Y-660000D01*
X15340000Y-500000D02*
X15660000Y-500000D01*
X15340000Y-4340000D02*
X15660000Y-4660000D01*
X15660000Y-4340000D02*
X15340000Y-4660000D01*
X15500000Y-4340000D02*
X15500000Y-4660000D01*
X15340000Y-4500000D02*
X15660000Y-4500000D01*
X19340000Y-340000D02*
X19660000Y-660000D01*
X19660000Y-340000D02*
X19340000Y-660000D01*
X19500000Y-340000D02*
X19500000Y-660000D01*
X19340000Y-500000D02*
X19660000Y-500000D01*
X19340000Y-4340000D02*
X19660000Y-4660000D01*
X19660000Y-4340000D02*
X19340000Y-4660000D01*
X19500000Y-4340000D02*
X19500000Y-4660000D01*
X19340000Y-4500000D02*
X19660000Y-4500000D01*
X19340000Y-7340000D02*
X19660000Y-7660000D01*
X19660000Y-7340000D02*
X19340000Y-7660000D01*
X19500000Y-7340000D02*
X19500000Y-7660000D01*
X19340000Y-7500000D02*
X19660000Y-7500000D01*
X19340000Y-14340000D02*
X19660000Y-14660000D01*
X19660000Y-14340000D02*
X19340000Y-14660000D01*
X19500000Y-14340000D02*
X19500000Y-14660000D01*
X19340000Y-14500000D02*
X19660000Y-14500000D01*
X1451000Y-8327000D02*
X1771000Y-8647000D01*
X1771000Y-8327000D02*
X1451000Y-8647000D01*
X1724138Y-8600138D02*
X1724138Y-8373862D01*
X1497862Y-8373862D01*
X1497862Y-8600138D01*
X1724138Y-8600138D01*
X2086000Y-13153000D02*
X2406000Y-13473000D01*
X2406000Y-13153000D02*
X2086000Y-13473000D01*
X2359138Y-13426138D02*
X2359138Y-13199862D01*
X2132862Y-13199862D01*
X2132862Y-13426138D01*
X2359138Y-13426138D01*
X4499000Y-8835000D02*
X4819000Y-9155000D01*
X4819000Y-8835000D02*
X4499000Y-9155000D01*
X4772138Y-9108138D02*
X4772138Y-8881862D01*
X4545862Y-8881862D01*
X4545862Y-9108138D01*
X4772138Y-9108138D01*
X4499000Y-11629000D02*
X4819000Y-11949000D01*
X4819000Y-11629000D02*
X4499000Y-11949000D01*
X4772138Y-11902138D02*
X4772138Y-11675862D01*
X4545862Y-11675862D01*
X4545862Y-11902138D01*
X4772138Y-11902138D01*
X9579000Y-13153000D02*
X9899000Y-13473000D01*
X9899000Y-13153000D02*
X9579000Y-13473000D01*
X9852138Y-13426138D02*
X9852138Y-13199862D01*
X9625862Y-13199862D01*
X9625862Y-13426138D01*
X9852138Y-13426138D01*
X9706000Y-8327000D02*
X10026000Y-8647000D01*
X10026000Y-8327000D02*
X9706000Y-8647000D01*
X9979138Y-8600138D02*
X9979138Y-8373862D01*
X9752862Y-8373862D01*
X9752862Y-8600138D01*
X9979138Y-8600138D01*
D11*
X255777Y-15316484D02*
X255777Y-15116484D01*
X255777Y-15116484D02*
X303396Y-15116484D01*
X303396Y-15116484D02*
X331967Y-15126008D01*
X331967Y-15126008D02*
X351015Y-15145055D01*
X351015Y-15145055D02*
X360539Y-15164103D01*
X360539Y-15164103D02*
X370062Y-15202198D01*
X370062Y-15202198D02*
X370062Y-15230769D01*
X370062Y-15230769D02*
X360539Y-15268865D01*
X360539Y-15268865D02*
X351015Y-15287912D01*
X351015Y-15287912D02*
X331967Y-15306960D01*
X331967Y-15306960D02*
X303396Y-15316484D01*
X303396Y-15316484D02*
X255777Y-15316484D01*
X455777Y-15316484D02*
X455777Y-15183150D01*
X455777Y-15221246D02*
X465301Y-15202198D01*
X465301Y-15202198D02*
X474824Y-15192674D01*
X474824Y-15192674D02*
X493872Y-15183150D01*
X493872Y-15183150D02*
X512920Y-15183150D01*
X579586Y-15316484D02*
X579586Y-15183150D01*
X579586Y-15116484D02*
X570063Y-15126008D01*
X570063Y-15126008D02*
X579586Y-15135531D01*
X579586Y-15135531D02*
X589110Y-15126008D01*
X589110Y-15126008D02*
X579586Y-15116484D01*
X579586Y-15116484D02*
X579586Y-15135531D01*
X703396Y-15316484D02*
X684348Y-15306960D01*
X684348Y-15306960D02*
X674824Y-15287912D01*
X674824Y-15287912D02*
X674824Y-15116484D01*
X808158Y-15316484D02*
X789110Y-15306960D01*
X789110Y-15306960D02*
X779586Y-15287912D01*
X779586Y-15287912D02*
X779586Y-15116484D01*
X1036729Y-15316484D02*
X1036729Y-15116484D01*
X1036729Y-15116484D02*
X1103396Y-15259341D01*
X1103396Y-15259341D02*
X1170063Y-15116484D01*
X1170063Y-15116484D02*
X1170063Y-15316484D01*
X1351015Y-15316484D02*
X1351015Y-15211722D01*
X1351015Y-15211722D02*
X1341491Y-15192674D01*
X1341491Y-15192674D02*
X1322444Y-15183150D01*
X1322444Y-15183150D02*
X1284348Y-15183150D01*
X1284348Y-15183150D02*
X1265301Y-15192674D01*
X1351015Y-15306960D02*
X1331967Y-15316484D01*
X1331967Y-15316484D02*
X1284348Y-15316484D01*
X1284348Y-15316484D02*
X1265301Y-15306960D01*
X1265301Y-15306960D02*
X1255777Y-15287912D01*
X1255777Y-15287912D02*
X1255777Y-15268865D01*
X1255777Y-15268865D02*
X1265301Y-15249817D01*
X1265301Y-15249817D02*
X1284348Y-15240293D01*
X1284348Y-15240293D02*
X1331967Y-15240293D01*
X1331967Y-15240293D02*
X1351015Y-15230769D01*
X1446253Y-15183150D02*
X1446253Y-15383150D01*
X1446253Y-15192674D02*
X1465301Y-15183150D01*
X1465301Y-15183150D02*
X1503396Y-15183150D01*
X1503396Y-15183150D02*
X1522443Y-15192674D01*
X1522443Y-15192674D02*
X1531967Y-15202198D01*
X1531967Y-15202198D02*
X1541491Y-15221246D01*
X1541491Y-15221246D02*
X1541491Y-15278388D01*
X1541491Y-15278388D02*
X1531967Y-15297436D01*
X1531967Y-15297436D02*
X1522443Y-15306960D01*
X1522443Y-15306960D02*
X1503396Y-15316484D01*
X1503396Y-15316484D02*
X1465301Y-15316484D01*
X1465301Y-15316484D02*
X1446253Y-15306960D01*
X1627205Y-15297436D02*
X1636729Y-15306960D01*
X1636729Y-15306960D02*
X1627205Y-15316484D01*
X1627205Y-15316484D02*
X1617682Y-15306960D01*
X1617682Y-15306960D02*
X1627205Y-15297436D01*
X1627205Y-15297436D02*
X1627205Y-15316484D01*
X1627205Y-15192674D02*
X1636729Y-15202198D01*
X1636729Y-15202198D02*
X1627205Y-15211722D01*
X1627205Y-15211722D02*
X1617682Y-15202198D01*
X1617682Y-15202198D02*
X1627205Y-15192674D01*
X1627205Y-15192674D02*
X1627205Y-15211722D01*
D12*
X-45000Y-15625000D02*
X-5000Y-15665000D01*
X-5000Y-15625000D02*
X-45000Y-15665000D01*
D11*
X293872Y-15536484D02*
X312920Y-15536484D01*
X312920Y-15536484D02*
X331967Y-15546008D01*
X331967Y-15546008D02*
X341491Y-15555531D01*
X341491Y-15555531D02*
X351015Y-15574579D01*
X351015Y-15574579D02*
X360539Y-15612674D01*
X360539Y-15612674D02*
X360539Y-15660293D01*
X360539Y-15660293D02*
X351015Y-15698388D01*
X351015Y-15698388D02*
X341491Y-15717436D01*
X341491Y-15717436D02*
X331967Y-15726960D01*
X331967Y-15726960D02*
X312920Y-15736484D01*
X312920Y-15736484D02*
X293872Y-15736484D01*
X293872Y-15736484D02*
X274824Y-15726960D01*
X274824Y-15726960D02*
X265301Y-15717436D01*
X265301Y-15717436D02*
X255777Y-15698388D01*
X255777Y-15698388D02*
X246253Y-15660293D01*
X246253Y-15660293D02*
X246253Y-15612674D01*
X246253Y-15612674D02*
X255777Y-15574579D01*
X255777Y-15574579D02*
X265301Y-15555531D01*
X265301Y-15555531D02*
X274824Y-15546008D01*
X274824Y-15546008D02*
X293872Y-15536484D01*
X446253Y-15717436D02*
X455777Y-15726960D01*
X455777Y-15726960D02*
X446253Y-15736484D01*
X446253Y-15736484D02*
X436729Y-15726960D01*
X436729Y-15726960D02*
X446253Y-15717436D01*
X446253Y-15717436D02*
X446253Y-15736484D01*
X627205Y-15603150D02*
X627205Y-15736484D01*
X579586Y-15526960D02*
X531967Y-15669817D01*
X531967Y-15669817D02*
X655777Y-15669817D01*
X770062Y-15536484D02*
X789110Y-15536484D01*
X789110Y-15536484D02*
X808158Y-15546008D01*
X808158Y-15546008D02*
X817682Y-15555531D01*
X817682Y-15555531D02*
X827205Y-15574579D01*
X827205Y-15574579D02*
X836729Y-15612674D01*
X836729Y-15612674D02*
X836729Y-15660293D01*
X836729Y-15660293D02*
X827205Y-15698388D01*
X827205Y-15698388D02*
X817682Y-15717436D01*
X817682Y-15717436D02*
X808158Y-15726960D01*
X808158Y-15726960D02*
X789110Y-15736484D01*
X789110Y-15736484D02*
X770062Y-15736484D01*
X770062Y-15736484D02*
X751015Y-15726960D01*
X751015Y-15726960D02*
X741491Y-15717436D01*
X741491Y-15717436D02*
X731967Y-15698388D01*
X731967Y-15698388D02*
X722443Y-15660293D01*
X722443Y-15660293D02*
X722443Y-15612674D01*
X722443Y-15612674D02*
X731967Y-15574579D01*
X731967Y-15574579D02*
X741491Y-15555531D01*
X741491Y-15555531D02*
X751015Y-15546008D01*
X751015Y-15546008D02*
X770062Y-15536484D01*
X960539Y-15536484D02*
X979586Y-15536484D01*
X979586Y-15536484D02*
X998634Y-15546008D01*
X998634Y-15546008D02*
X1008158Y-15555531D01*
X1008158Y-15555531D02*
X1017682Y-15574579D01*
X1017682Y-15574579D02*
X1027205Y-15612674D01*
X1027205Y-15612674D02*
X1027205Y-15660293D01*
X1027205Y-15660293D02*
X1017682Y-15698388D01*
X1017682Y-15698388D02*
X1008158Y-15717436D01*
X1008158Y-15717436D02*
X998634Y-15726960D01*
X998634Y-15726960D02*
X979586Y-15736484D01*
X979586Y-15736484D02*
X960539Y-15736484D01*
X960539Y-15736484D02*
X941491Y-15726960D01*
X941491Y-15726960D02*
X931967Y-15717436D01*
X931967Y-15717436D02*
X922443Y-15698388D01*
X922443Y-15698388D02*
X912920Y-15660293D01*
X912920Y-15660293D02*
X912920Y-15612674D01*
X912920Y-15612674D02*
X922443Y-15574579D01*
X922443Y-15574579D02*
X931967Y-15555531D01*
X931967Y-15555531D02*
X941491Y-15546008D01*
X941491Y-15546008D02*
X960539Y-15536484D01*
X1112920Y-15736484D02*
X1112920Y-15603150D01*
X1112920Y-15622198D02*
X1122444Y-15612674D01*
X1122444Y-15612674D02*
X1141491Y-15603150D01*
X1141491Y-15603150D02*
X1170063Y-15603150D01*
X1170063Y-15603150D02*
X1189110Y-15612674D01*
X1189110Y-15612674D02*
X1198634Y-15631722D01*
X1198634Y-15631722D02*
X1198634Y-15736484D01*
X1198634Y-15631722D02*
X1208158Y-15612674D01*
X1208158Y-15612674D02*
X1227205Y-15603150D01*
X1227205Y-15603150D02*
X1255777Y-15603150D01*
X1255777Y-15603150D02*
X1274825Y-15612674D01*
X1274825Y-15612674D02*
X1284348Y-15631722D01*
X1284348Y-15631722D02*
X1284348Y-15736484D01*
X1379586Y-15736484D02*
X1379586Y-15603150D01*
X1379586Y-15622198D02*
X1389110Y-15612674D01*
X1389110Y-15612674D02*
X1408158Y-15603150D01*
X1408158Y-15603150D02*
X1436729Y-15603150D01*
X1436729Y-15603150D02*
X1455777Y-15612674D01*
X1455777Y-15612674D02*
X1465301Y-15631722D01*
X1465301Y-15631722D02*
X1465301Y-15736484D01*
X1465301Y-15631722D02*
X1474824Y-15612674D01*
X1474824Y-15612674D02*
X1493872Y-15603150D01*
X1493872Y-15603150D02*
X1522443Y-15603150D01*
X1522443Y-15603150D02*
X1541491Y-15612674D01*
X1541491Y-15612674D02*
X1551015Y-15631722D01*
X1551015Y-15631722D02*
X1551015Y-15736484D01*
X1941491Y-15526960D02*
X1770063Y-15784103D01*
X2198634Y-15536484D02*
X2217682Y-15536484D01*
X2217682Y-15536484D02*
X2236729Y-15546008D01*
X2236729Y-15546008D02*
X2246253Y-15555531D01*
X2246253Y-15555531D02*
X2255777Y-15574579D01*
X2255777Y-15574579D02*
X2265301Y-15612674D01*
X2265301Y-15612674D02*
X2265301Y-15660293D01*
X2265301Y-15660293D02*
X2255777Y-15698388D01*
X2255777Y-15698388D02*
X2246253Y-15717436D01*
X2246253Y-15717436D02*
X2236729Y-15726960D01*
X2236729Y-15726960D02*
X2217682Y-15736484D01*
X2217682Y-15736484D02*
X2198634Y-15736484D01*
X2198634Y-15736484D02*
X2179587Y-15726960D01*
X2179587Y-15726960D02*
X2170063Y-15717436D01*
X2170063Y-15717436D02*
X2160539Y-15698388D01*
X2160539Y-15698388D02*
X2151015Y-15660293D01*
X2151015Y-15660293D02*
X2151015Y-15612674D01*
X2151015Y-15612674D02*
X2160539Y-15574579D01*
X2160539Y-15574579D02*
X2170063Y-15555531D01*
X2170063Y-15555531D02*
X2179587Y-15546008D01*
X2179587Y-15546008D02*
X2198634Y-15536484D01*
X2351015Y-15717436D02*
X2360539Y-15726960D01*
X2360539Y-15726960D02*
X2351015Y-15736484D01*
X2351015Y-15736484D02*
X2341491Y-15726960D01*
X2341491Y-15726960D02*
X2351015Y-15717436D01*
X2351015Y-15717436D02*
X2351015Y-15736484D01*
X2484348Y-15536484D02*
X2503396Y-15536484D01*
X2503396Y-15536484D02*
X2522444Y-15546008D01*
X2522444Y-15546008D02*
X2531968Y-15555531D01*
X2531968Y-15555531D02*
X2541491Y-15574579D01*
X2541491Y-15574579D02*
X2551015Y-15612674D01*
X2551015Y-15612674D02*
X2551015Y-15660293D01*
X2551015Y-15660293D02*
X2541491Y-15698388D01*
X2541491Y-15698388D02*
X2531968Y-15717436D01*
X2531968Y-15717436D02*
X2522444Y-15726960D01*
X2522444Y-15726960D02*
X2503396Y-15736484D01*
X2503396Y-15736484D02*
X2484348Y-15736484D01*
X2484348Y-15736484D02*
X2465301Y-15726960D01*
X2465301Y-15726960D02*
X2455777Y-15717436D01*
X2455777Y-15717436D02*
X2446253Y-15698388D01*
X2446253Y-15698388D02*
X2436729Y-15660293D01*
X2436729Y-15660293D02*
X2436729Y-15612674D01*
X2436729Y-15612674D02*
X2446253Y-15574579D01*
X2446253Y-15574579D02*
X2455777Y-15555531D01*
X2455777Y-15555531D02*
X2465301Y-15546008D01*
X2465301Y-15546008D02*
X2484348Y-15536484D01*
X2741491Y-15736484D02*
X2627206Y-15736484D01*
X2684348Y-15736484D02*
X2684348Y-15536484D01*
X2684348Y-15536484D02*
X2665301Y-15565055D01*
X2665301Y-15565055D02*
X2646253Y-15584103D01*
X2646253Y-15584103D02*
X2627206Y-15593627D01*
X2922444Y-15536484D02*
X2827206Y-15536484D01*
X2827206Y-15536484D02*
X2817682Y-15631722D01*
X2817682Y-15631722D02*
X2827206Y-15622198D01*
X2827206Y-15622198D02*
X2846253Y-15612674D01*
X2846253Y-15612674D02*
X2893872Y-15612674D01*
X2893872Y-15612674D02*
X2912920Y-15622198D01*
X2912920Y-15622198D02*
X2922444Y-15631722D01*
X2922444Y-15631722D02*
X2931967Y-15650769D01*
X2931967Y-15650769D02*
X2931967Y-15698388D01*
X2931967Y-15698388D02*
X2922444Y-15717436D01*
X2922444Y-15717436D02*
X2912920Y-15726960D01*
X2912920Y-15726960D02*
X2893872Y-15736484D01*
X2893872Y-15736484D02*
X2846253Y-15736484D01*
X2846253Y-15736484D02*
X2827206Y-15726960D01*
X2827206Y-15726960D02*
X2817682Y-15717436D01*
X2998634Y-15536484D02*
X3131967Y-15536484D01*
X3131967Y-15536484D02*
X3046253Y-15736484D01*
X3198634Y-15536484D02*
X3198634Y-15574579D01*
X3274825Y-15536484D02*
X3274825Y-15574579D01*
X3570063Y-15812674D02*
X3560539Y-15803150D01*
X3560539Y-15803150D02*
X3541491Y-15774579D01*
X3541491Y-15774579D02*
X3531968Y-15755531D01*
X3531968Y-15755531D02*
X3522444Y-15726960D01*
X3522444Y-15726960D02*
X3512920Y-15679341D01*
X3512920Y-15679341D02*
X3512920Y-15641246D01*
X3512920Y-15641246D02*
X3522444Y-15593627D01*
X3522444Y-15593627D02*
X3531968Y-15565055D01*
X3531968Y-15565055D02*
X3541491Y-15546008D01*
X3541491Y-15546008D02*
X3560539Y-15517436D01*
X3560539Y-15517436D02*
X3570063Y-15507912D01*
X3731968Y-15536484D02*
X3693872Y-15536484D01*
X3693872Y-15536484D02*
X3674825Y-15546008D01*
X3674825Y-15546008D02*
X3665301Y-15555531D01*
X3665301Y-15555531D02*
X3646253Y-15584103D01*
X3646253Y-15584103D02*
X3636729Y-15622198D01*
X3636729Y-15622198D02*
X3636729Y-15698388D01*
X3636729Y-15698388D02*
X3646253Y-15717436D01*
X3646253Y-15717436D02*
X3655777Y-15726960D01*
X3655777Y-15726960D02*
X3674825Y-15736484D01*
X3674825Y-15736484D02*
X3712920Y-15736484D01*
X3712920Y-15736484D02*
X3731968Y-15726960D01*
X3731968Y-15726960D02*
X3741491Y-15717436D01*
X3741491Y-15717436D02*
X3751015Y-15698388D01*
X3751015Y-15698388D02*
X3751015Y-15650769D01*
X3751015Y-15650769D02*
X3741491Y-15631722D01*
X3741491Y-15631722D02*
X3731968Y-15622198D01*
X3731968Y-15622198D02*
X3712920Y-15612674D01*
X3712920Y-15612674D02*
X3674825Y-15612674D01*
X3674825Y-15612674D02*
X3655777Y-15622198D01*
X3655777Y-15622198D02*
X3646253Y-15631722D01*
X3646253Y-15631722D02*
X3636729Y-15650769D01*
X3922444Y-15536484D02*
X3884348Y-15536484D01*
X3884348Y-15536484D02*
X3865301Y-15546008D01*
X3865301Y-15546008D02*
X3855777Y-15555531D01*
X3855777Y-15555531D02*
X3836729Y-15584103D01*
X3836729Y-15584103D02*
X3827206Y-15622198D01*
X3827206Y-15622198D02*
X3827206Y-15698388D01*
X3827206Y-15698388D02*
X3836729Y-15717436D01*
X3836729Y-15717436D02*
X3846253Y-15726960D01*
X3846253Y-15726960D02*
X3865301Y-15736484D01*
X3865301Y-15736484D02*
X3903396Y-15736484D01*
X3903396Y-15736484D02*
X3922444Y-15726960D01*
X3922444Y-15726960D02*
X3931968Y-15717436D01*
X3931968Y-15717436D02*
X3941491Y-15698388D01*
X3941491Y-15698388D02*
X3941491Y-15650769D01*
X3941491Y-15650769D02*
X3931968Y-15631722D01*
X3931968Y-15631722D02*
X3922444Y-15622198D01*
X3922444Y-15622198D02*
X3903396Y-15612674D01*
X3903396Y-15612674D02*
X3865301Y-15612674D01*
X3865301Y-15612674D02*
X3846253Y-15622198D01*
X3846253Y-15622198D02*
X3836729Y-15631722D01*
X3836729Y-15631722D02*
X3827206Y-15650769D01*
X4179587Y-15736484D02*
X4179587Y-15536484D01*
X4265301Y-15736484D02*
X4265301Y-15631722D01*
X4265301Y-15631722D02*
X4255777Y-15612674D01*
X4255777Y-15612674D02*
X4236730Y-15603150D01*
X4236730Y-15603150D02*
X4208158Y-15603150D01*
X4208158Y-15603150D02*
X4189110Y-15612674D01*
X4189110Y-15612674D02*
X4179587Y-15622198D01*
X4389111Y-15736484D02*
X4370063Y-15726960D01*
X4370063Y-15726960D02*
X4360539Y-15717436D01*
X4360539Y-15717436D02*
X4351015Y-15698388D01*
X4351015Y-15698388D02*
X4351015Y-15641246D01*
X4351015Y-15641246D02*
X4360539Y-15622198D01*
X4360539Y-15622198D02*
X4370063Y-15612674D01*
X4370063Y-15612674D02*
X4389111Y-15603150D01*
X4389111Y-15603150D02*
X4417682Y-15603150D01*
X4417682Y-15603150D02*
X4436730Y-15612674D01*
X4436730Y-15612674D02*
X4446253Y-15622198D01*
X4446253Y-15622198D02*
X4455777Y-15641246D01*
X4455777Y-15641246D02*
X4455777Y-15698388D01*
X4455777Y-15698388D02*
X4446253Y-15717436D01*
X4446253Y-15717436D02*
X4436730Y-15726960D01*
X4436730Y-15726960D02*
X4417682Y-15736484D01*
X4417682Y-15736484D02*
X4389111Y-15736484D01*
X4570063Y-15736484D02*
X4551015Y-15726960D01*
X4551015Y-15726960D02*
X4541492Y-15707912D01*
X4541492Y-15707912D02*
X4541492Y-15536484D01*
X4722444Y-15726960D02*
X4703396Y-15736484D01*
X4703396Y-15736484D02*
X4665301Y-15736484D01*
X4665301Y-15736484D02*
X4646253Y-15726960D01*
X4646253Y-15726960D02*
X4636730Y-15707912D01*
X4636730Y-15707912D02*
X4636730Y-15631722D01*
X4636730Y-15631722D02*
X4646253Y-15612674D01*
X4646253Y-15612674D02*
X4665301Y-15603150D01*
X4665301Y-15603150D02*
X4703396Y-15603150D01*
X4703396Y-15603150D02*
X4722444Y-15612674D01*
X4722444Y-15612674D02*
X4731968Y-15631722D01*
X4731968Y-15631722D02*
X4731968Y-15650769D01*
X4731968Y-15650769D02*
X4636730Y-15669817D01*
X4808158Y-15726960D02*
X4827206Y-15736484D01*
X4827206Y-15736484D02*
X4865301Y-15736484D01*
X4865301Y-15736484D02*
X4884349Y-15726960D01*
X4884349Y-15726960D02*
X4893873Y-15707912D01*
X4893873Y-15707912D02*
X4893873Y-15698388D01*
X4893873Y-15698388D02*
X4884349Y-15679341D01*
X4884349Y-15679341D02*
X4865301Y-15669817D01*
X4865301Y-15669817D02*
X4836730Y-15669817D01*
X4836730Y-15669817D02*
X4817682Y-15660293D01*
X4817682Y-15660293D02*
X4808158Y-15641246D01*
X4808158Y-15641246D02*
X4808158Y-15631722D01*
X4808158Y-15631722D02*
X4817682Y-15612674D01*
X4817682Y-15612674D02*
X4836730Y-15603150D01*
X4836730Y-15603150D02*
X4865301Y-15603150D01*
X4865301Y-15603150D02*
X4884349Y-15612674D01*
X4960539Y-15812674D02*
X4970063Y-15803150D01*
X4970063Y-15803150D02*
X4989111Y-15774579D01*
X4989111Y-15774579D02*
X4998634Y-15755531D01*
X4998634Y-15755531D02*
X5008158Y-15726960D01*
X5008158Y-15726960D02*
X5017682Y-15679341D01*
X5017682Y-15679341D02*
X5017682Y-15641246D01*
X5017682Y-15641246D02*
X5008158Y-15593627D01*
X5008158Y-15593627D02*
X4998634Y-15565055D01*
X4998634Y-15565055D02*
X4989111Y-15546008D01*
X4989111Y-15546008D02*
X4970063Y-15517436D01*
X4970063Y-15517436D02*
X4960539Y-15507912D01*
D13*
X-5000Y-15909000D02*
G75*
G03*
X-5000Y-15909000I-25000J0D01*
G01*
D11*
X293872Y-15800484D02*
X312920Y-15800484D01*
X312920Y-15800484D02*
X331967Y-15810008D01*
X331967Y-15810008D02*
X341491Y-15819531D01*
X341491Y-15819531D02*
X351015Y-15838579D01*
X351015Y-15838579D02*
X360539Y-15876674D01*
X360539Y-15876674D02*
X360539Y-15924293D01*
X360539Y-15924293D02*
X351015Y-15962388D01*
X351015Y-15962388D02*
X341491Y-15981436D01*
X341491Y-15981436D02*
X331967Y-15990960D01*
X331967Y-15990960D02*
X312920Y-16000484D01*
X312920Y-16000484D02*
X293872Y-16000484D01*
X293872Y-16000484D02*
X274824Y-15990960D01*
X274824Y-15990960D02*
X265301Y-15981436D01*
X265301Y-15981436D02*
X255777Y-15962388D01*
X255777Y-15962388D02*
X246253Y-15924293D01*
X246253Y-15924293D02*
X246253Y-15876674D01*
X246253Y-15876674D02*
X255777Y-15838579D01*
X255777Y-15838579D02*
X265301Y-15819531D01*
X265301Y-15819531D02*
X274824Y-15810008D01*
X274824Y-15810008D02*
X293872Y-15800484D01*
X446253Y-15981436D02*
X455777Y-15990960D01*
X455777Y-15990960D02*
X446253Y-16000484D01*
X446253Y-16000484D02*
X436729Y-15990960D01*
X436729Y-15990960D02*
X446253Y-15981436D01*
X446253Y-15981436D02*
X446253Y-16000484D01*
X636729Y-15800484D02*
X541491Y-15800484D01*
X541491Y-15800484D02*
X531967Y-15895722D01*
X531967Y-15895722D02*
X541491Y-15886198D01*
X541491Y-15886198D02*
X560539Y-15876674D01*
X560539Y-15876674D02*
X608158Y-15876674D01*
X608158Y-15876674D02*
X627205Y-15886198D01*
X627205Y-15886198D02*
X636729Y-15895722D01*
X636729Y-15895722D02*
X646253Y-15914769D01*
X646253Y-15914769D02*
X646253Y-15962388D01*
X646253Y-15962388D02*
X636729Y-15981436D01*
X636729Y-15981436D02*
X627205Y-15990960D01*
X627205Y-15990960D02*
X608158Y-16000484D01*
X608158Y-16000484D02*
X560539Y-16000484D01*
X560539Y-16000484D02*
X541491Y-15990960D01*
X541491Y-15990960D02*
X531967Y-15981436D01*
X770062Y-15800484D02*
X789110Y-15800484D01*
X789110Y-15800484D02*
X808158Y-15810008D01*
X808158Y-15810008D02*
X817682Y-15819531D01*
X817682Y-15819531D02*
X827205Y-15838579D01*
X827205Y-15838579D02*
X836729Y-15876674D01*
X836729Y-15876674D02*
X836729Y-15924293D01*
X836729Y-15924293D02*
X827205Y-15962388D01*
X827205Y-15962388D02*
X817682Y-15981436D01*
X817682Y-15981436D02*
X808158Y-15990960D01*
X808158Y-15990960D02*
X789110Y-16000484D01*
X789110Y-16000484D02*
X770062Y-16000484D01*
X770062Y-16000484D02*
X751015Y-15990960D01*
X751015Y-15990960D02*
X741491Y-15981436D01*
X741491Y-15981436D02*
X731967Y-15962388D01*
X731967Y-15962388D02*
X722443Y-15924293D01*
X722443Y-15924293D02*
X722443Y-15876674D01*
X722443Y-15876674D02*
X731967Y-15838579D01*
X731967Y-15838579D02*
X741491Y-15819531D01*
X741491Y-15819531D02*
X751015Y-15810008D01*
X751015Y-15810008D02*
X770062Y-15800484D01*
X960539Y-15800484D02*
X979586Y-15800484D01*
X979586Y-15800484D02*
X998634Y-15810008D01*
X998634Y-15810008D02*
X1008158Y-15819531D01*
X1008158Y-15819531D02*
X1017682Y-15838579D01*
X1017682Y-15838579D02*
X1027205Y-15876674D01*
X1027205Y-15876674D02*
X1027205Y-15924293D01*
X1027205Y-15924293D02*
X1017682Y-15962388D01*
X1017682Y-15962388D02*
X1008158Y-15981436D01*
X1008158Y-15981436D02*
X998634Y-15990960D01*
X998634Y-15990960D02*
X979586Y-16000484D01*
X979586Y-16000484D02*
X960539Y-16000484D01*
X960539Y-16000484D02*
X941491Y-15990960D01*
X941491Y-15990960D02*
X931967Y-15981436D01*
X931967Y-15981436D02*
X922443Y-15962388D01*
X922443Y-15962388D02*
X912920Y-15924293D01*
X912920Y-15924293D02*
X912920Y-15876674D01*
X912920Y-15876674D02*
X922443Y-15838579D01*
X922443Y-15838579D02*
X931967Y-15819531D01*
X931967Y-15819531D02*
X941491Y-15810008D01*
X941491Y-15810008D02*
X960539Y-15800484D01*
X1112920Y-16000484D02*
X1112920Y-15867150D01*
X1112920Y-15886198D02*
X1122444Y-15876674D01*
X1122444Y-15876674D02*
X1141491Y-15867150D01*
X1141491Y-15867150D02*
X1170063Y-15867150D01*
X1170063Y-15867150D02*
X1189110Y-15876674D01*
X1189110Y-15876674D02*
X1198634Y-15895722D01*
X1198634Y-15895722D02*
X1198634Y-16000484D01*
X1198634Y-15895722D02*
X1208158Y-15876674D01*
X1208158Y-15876674D02*
X1227205Y-15867150D01*
X1227205Y-15867150D02*
X1255777Y-15867150D01*
X1255777Y-15867150D02*
X1274825Y-15876674D01*
X1274825Y-15876674D02*
X1284348Y-15895722D01*
X1284348Y-15895722D02*
X1284348Y-16000484D01*
X1379586Y-16000484D02*
X1379586Y-15867150D01*
X1379586Y-15886198D02*
X1389110Y-15876674D01*
X1389110Y-15876674D02*
X1408158Y-15867150D01*
X1408158Y-15867150D02*
X1436729Y-15867150D01*
X1436729Y-15867150D02*
X1455777Y-15876674D01*
X1455777Y-15876674D02*
X1465301Y-15895722D01*
X1465301Y-15895722D02*
X1465301Y-16000484D01*
X1465301Y-15895722D02*
X1474824Y-15876674D01*
X1474824Y-15876674D02*
X1493872Y-15867150D01*
X1493872Y-15867150D02*
X1522443Y-15867150D01*
X1522443Y-15867150D02*
X1541491Y-15876674D01*
X1541491Y-15876674D02*
X1551015Y-15895722D01*
X1551015Y-15895722D02*
X1551015Y-16000484D01*
X1941491Y-15790960D02*
X1770063Y-16048103D01*
X2198634Y-15800484D02*
X2217682Y-15800484D01*
X2217682Y-15800484D02*
X2236729Y-15810008D01*
X2236729Y-15810008D02*
X2246253Y-15819531D01*
X2246253Y-15819531D02*
X2255777Y-15838579D01*
X2255777Y-15838579D02*
X2265301Y-15876674D01*
X2265301Y-15876674D02*
X2265301Y-15924293D01*
X2265301Y-15924293D02*
X2255777Y-15962388D01*
X2255777Y-15962388D02*
X2246253Y-15981436D01*
X2246253Y-15981436D02*
X2236729Y-15990960D01*
X2236729Y-15990960D02*
X2217682Y-16000484D01*
X2217682Y-16000484D02*
X2198634Y-16000484D01*
X2198634Y-16000484D02*
X2179587Y-15990960D01*
X2179587Y-15990960D02*
X2170063Y-15981436D01*
X2170063Y-15981436D02*
X2160539Y-15962388D01*
X2160539Y-15962388D02*
X2151015Y-15924293D01*
X2151015Y-15924293D02*
X2151015Y-15876674D01*
X2151015Y-15876674D02*
X2160539Y-15838579D01*
X2160539Y-15838579D02*
X2170063Y-15819531D01*
X2170063Y-15819531D02*
X2179587Y-15810008D01*
X2179587Y-15810008D02*
X2198634Y-15800484D01*
X2351015Y-15981436D02*
X2360539Y-15990960D01*
X2360539Y-15990960D02*
X2351015Y-16000484D01*
X2351015Y-16000484D02*
X2341491Y-15990960D01*
X2341491Y-15990960D02*
X2351015Y-15981436D01*
X2351015Y-15981436D02*
X2351015Y-16000484D01*
X2484348Y-15800484D02*
X2503396Y-15800484D01*
X2503396Y-15800484D02*
X2522444Y-15810008D01*
X2522444Y-15810008D02*
X2531968Y-15819531D01*
X2531968Y-15819531D02*
X2541491Y-15838579D01*
X2541491Y-15838579D02*
X2551015Y-15876674D01*
X2551015Y-15876674D02*
X2551015Y-15924293D01*
X2551015Y-15924293D02*
X2541491Y-15962388D01*
X2541491Y-15962388D02*
X2531968Y-15981436D01*
X2531968Y-15981436D02*
X2522444Y-15990960D01*
X2522444Y-15990960D02*
X2503396Y-16000484D01*
X2503396Y-16000484D02*
X2484348Y-16000484D01*
X2484348Y-16000484D02*
X2465301Y-15990960D01*
X2465301Y-15990960D02*
X2455777Y-15981436D01*
X2455777Y-15981436D02*
X2446253Y-15962388D01*
X2446253Y-15962388D02*
X2436729Y-15924293D01*
X2436729Y-15924293D02*
X2436729Y-15876674D01*
X2436729Y-15876674D02*
X2446253Y-15838579D01*
X2446253Y-15838579D02*
X2455777Y-15819531D01*
X2455777Y-15819531D02*
X2465301Y-15810008D01*
X2465301Y-15810008D02*
X2484348Y-15800484D01*
X2741491Y-16000484D02*
X2627206Y-16000484D01*
X2684348Y-16000484D02*
X2684348Y-15800484D01*
X2684348Y-15800484D02*
X2665301Y-15829055D01*
X2665301Y-15829055D02*
X2646253Y-15848103D01*
X2646253Y-15848103D02*
X2627206Y-15857627D01*
X2836729Y-16000484D02*
X2874825Y-16000484D01*
X2874825Y-16000484D02*
X2893872Y-15990960D01*
X2893872Y-15990960D02*
X2903396Y-15981436D01*
X2903396Y-15981436D02*
X2922444Y-15952865D01*
X2922444Y-15952865D02*
X2931967Y-15914769D01*
X2931967Y-15914769D02*
X2931967Y-15838579D01*
X2931967Y-15838579D02*
X2922444Y-15819531D01*
X2922444Y-15819531D02*
X2912920Y-15810008D01*
X2912920Y-15810008D02*
X2893872Y-15800484D01*
X2893872Y-15800484D02*
X2855777Y-15800484D01*
X2855777Y-15800484D02*
X2836729Y-15810008D01*
X2836729Y-15810008D02*
X2827206Y-15819531D01*
X2827206Y-15819531D02*
X2817682Y-15838579D01*
X2817682Y-15838579D02*
X2817682Y-15886198D01*
X2817682Y-15886198D02*
X2827206Y-15905246D01*
X2827206Y-15905246D02*
X2836729Y-15914769D01*
X2836729Y-15914769D02*
X2855777Y-15924293D01*
X2855777Y-15924293D02*
X2893872Y-15924293D01*
X2893872Y-15924293D02*
X2912920Y-15914769D01*
X2912920Y-15914769D02*
X2922444Y-15905246D01*
X2922444Y-15905246D02*
X2931967Y-15886198D01*
X2998634Y-15800484D02*
X3131967Y-15800484D01*
X3131967Y-15800484D02*
X3046253Y-16000484D01*
X3198634Y-15800484D02*
X3198634Y-15838579D01*
X3274825Y-15800484D02*
X3274825Y-15838579D01*
X3570063Y-16076674D02*
X3560539Y-16067150D01*
X3560539Y-16067150D02*
X3541491Y-16038579D01*
X3541491Y-16038579D02*
X3531968Y-16019531D01*
X3531968Y-16019531D02*
X3522444Y-15990960D01*
X3522444Y-15990960D02*
X3512920Y-15943341D01*
X3512920Y-15943341D02*
X3512920Y-15905246D01*
X3512920Y-15905246D02*
X3522444Y-15857627D01*
X3522444Y-15857627D02*
X3531968Y-15829055D01*
X3531968Y-15829055D02*
X3541491Y-15810008D01*
X3541491Y-15810008D02*
X3560539Y-15781436D01*
X3560539Y-15781436D02*
X3570063Y-15771912D01*
X3751015Y-16000484D02*
X3636729Y-16000484D01*
X3693872Y-16000484D02*
X3693872Y-15800484D01*
X3693872Y-15800484D02*
X3674825Y-15829055D01*
X3674825Y-15829055D02*
X3655777Y-15848103D01*
X3655777Y-15848103D02*
X3636729Y-15857627D01*
X3827206Y-15819531D02*
X3836729Y-15810008D01*
X3836729Y-15810008D02*
X3855777Y-15800484D01*
X3855777Y-15800484D02*
X3903396Y-15800484D01*
X3903396Y-15800484D02*
X3922444Y-15810008D01*
X3922444Y-15810008D02*
X3931968Y-15819531D01*
X3931968Y-15819531D02*
X3941491Y-15838579D01*
X3941491Y-15838579D02*
X3941491Y-15857627D01*
X3941491Y-15857627D02*
X3931968Y-15886198D01*
X3931968Y-15886198D02*
X3817682Y-16000484D01*
X3817682Y-16000484D02*
X3941491Y-16000484D01*
X4055777Y-15886198D02*
X4036729Y-15876674D01*
X4036729Y-15876674D02*
X4027206Y-15867150D01*
X4027206Y-15867150D02*
X4017682Y-15848103D01*
X4017682Y-15848103D02*
X4017682Y-15838579D01*
X4017682Y-15838579D02*
X4027206Y-15819531D01*
X4027206Y-15819531D02*
X4036729Y-15810008D01*
X4036729Y-15810008D02*
X4055777Y-15800484D01*
X4055777Y-15800484D02*
X4093872Y-15800484D01*
X4093872Y-15800484D02*
X4112920Y-15810008D01*
X4112920Y-15810008D02*
X4122444Y-15819531D01*
X4122444Y-15819531D02*
X4131968Y-15838579D01*
X4131968Y-15838579D02*
X4131968Y-15848103D01*
X4131968Y-15848103D02*
X4122444Y-15867150D01*
X4122444Y-15867150D02*
X4112920Y-15876674D01*
X4112920Y-15876674D02*
X4093872Y-15886198D01*
X4093872Y-15886198D02*
X4055777Y-15886198D01*
X4055777Y-15886198D02*
X4036729Y-15895722D01*
X4036729Y-15895722D02*
X4027206Y-15905246D01*
X4027206Y-15905246D02*
X4017682Y-15924293D01*
X4017682Y-15924293D02*
X4017682Y-15962388D01*
X4017682Y-15962388D02*
X4027206Y-15981436D01*
X4027206Y-15981436D02*
X4036729Y-15990960D01*
X4036729Y-15990960D02*
X4055777Y-16000484D01*
X4055777Y-16000484D02*
X4093872Y-16000484D01*
X4093872Y-16000484D02*
X4112920Y-15990960D01*
X4112920Y-15990960D02*
X4122444Y-15981436D01*
X4122444Y-15981436D02*
X4131968Y-15962388D01*
X4131968Y-15962388D02*
X4131968Y-15924293D01*
X4131968Y-15924293D02*
X4122444Y-15905246D01*
X4122444Y-15905246D02*
X4112920Y-15895722D01*
X4112920Y-15895722D02*
X4093872Y-15886198D01*
X4370063Y-16000484D02*
X4370063Y-15800484D01*
X4455777Y-16000484D02*
X4455777Y-15895722D01*
X4455777Y-15895722D02*
X4446253Y-15876674D01*
X4446253Y-15876674D02*
X4427206Y-15867150D01*
X4427206Y-15867150D02*
X4398634Y-15867150D01*
X4398634Y-15867150D02*
X4379587Y-15876674D01*
X4379587Y-15876674D02*
X4370063Y-15886198D01*
X4579587Y-16000484D02*
X4560539Y-15990960D01*
X4560539Y-15990960D02*
X4551015Y-15981436D01*
X4551015Y-15981436D02*
X4541492Y-15962388D01*
X4541492Y-15962388D02*
X4541492Y-15905246D01*
X4541492Y-15905246D02*
X4551015Y-15886198D01*
X4551015Y-15886198D02*
X4560539Y-15876674D01*
X4560539Y-15876674D02*
X4579587Y-15867150D01*
X4579587Y-15867150D02*
X4608158Y-15867150D01*
X4608158Y-15867150D02*
X4627206Y-15876674D01*
X4627206Y-15876674D02*
X4636730Y-15886198D01*
X4636730Y-15886198D02*
X4646253Y-15905246D01*
X4646253Y-15905246D02*
X4646253Y-15962388D01*
X4646253Y-15962388D02*
X4636730Y-15981436D01*
X4636730Y-15981436D02*
X4627206Y-15990960D01*
X4627206Y-15990960D02*
X4608158Y-16000484D01*
X4608158Y-16000484D02*
X4579587Y-16000484D01*
X4760539Y-16000484D02*
X4741492Y-15990960D01*
X4741492Y-15990960D02*
X4731968Y-15971912D01*
X4731968Y-15971912D02*
X4731968Y-15800484D01*
X4912920Y-15990960D02*
X4893873Y-16000484D01*
X4893873Y-16000484D02*
X4855777Y-16000484D01*
X4855777Y-16000484D02*
X4836730Y-15990960D01*
X4836730Y-15990960D02*
X4827206Y-15971912D01*
X4827206Y-15971912D02*
X4827206Y-15895722D01*
X4827206Y-15895722D02*
X4836730Y-15876674D01*
X4836730Y-15876674D02*
X4855777Y-15867150D01*
X4855777Y-15867150D02*
X4893873Y-15867150D01*
X4893873Y-15867150D02*
X4912920Y-15876674D01*
X4912920Y-15876674D02*
X4922444Y-15895722D01*
X4922444Y-15895722D02*
X4922444Y-15914769D01*
X4922444Y-15914769D02*
X4827206Y-15933817D01*
X4998634Y-15990960D02*
X5017682Y-16000484D01*
X5017682Y-16000484D02*
X5055777Y-16000484D01*
X5055777Y-16000484D02*
X5074825Y-15990960D01*
X5074825Y-15990960D02*
X5084349Y-15971912D01*
X5084349Y-15971912D02*
X5084349Y-15962388D01*
X5084349Y-15962388D02*
X5074825Y-15943341D01*
X5074825Y-15943341D02*
X5055777Y-15933817D01*
X5055777Y-15933817D02*
X5027206Y-15933817D01*
X5027206Y-15933817D02*
X5008158Y-15924293D01*
X5008158Y-15924293D02*
X4998634Y-15905246D01*
X4998634Y-15905246D02*
X4998634Y-15895722D01*
X4998634Y-15895722D02*
X5008158Y-15876674D01*
X5008158Y-15876674D02*
X5027206Y-15867150D01*
X5027206Y-15867150D02*
X5055777Y-15867150D01*
X5055777Y-15867150D02*
X5074825Y-15876674D01*
X5151015Y-16076674D02*
X5160539Y-16067150D01*
X5160539Y-16067150D02*
X5179587Y-16038579D01*
X5179587Y-16038579D02*
X5189111Y-16019531D01*
X5189111Y-16019531D02*
X5198634Y-15990960D01*
X5198634Y-15990960D02*
X5208158Y-15943341D01*
X5208158Y-15943341D02*
X5208158Y-15905246D01*
X5208158Y-15905246D02*
X5198634Y-15857627D01*
X5198634Y-15857627D02*
X5189111Y-15829055D01*
X5189111Y-15829055D02*
X5179587Y-15810008D01*
X5179587Y-15810008D02*
X5160539Y-15781436D01*
X5160539Y-15781436D02*
X5151015Y-15771912D01*
D10*
X-55000Y-16123000D02*
X-55000Y-16223000D01*
X-105000Y-16173000D02*
X-5000Y-16173000D01*
D11*
X360539Y-16264484D02*
X246253Y-16264484D01*
X303396Y-16264484D02*
X303396Y-16064484D01*
X303396Y-16064484D02*
X284348Y-16093055D01*
X284348Y-16093055D02*
X265301Y-16112103D01*
X265301Y-16112103D02*
X246253Y-16121627D01*
X446253Y-16245436D02*
X455777Y-16254960D01*
X455777Y-16254960D02*
X446253Y-16264484D01*
X446253Y-16264484D02*
X436729Y-16254960D01*
X436729Y-16254960D02*
X446253Y-16245436D01*
X446253Y-16245436D02*
X446253Y-16264484D01*
X579586Y-16064484D02*
X598634Y-16064484D01*
X598634Y-16064484D02*
X617682Y-16074008D01*
X617682Y-16074008D02*
X627205Y-16083531D01*
X627205Y-16083531D02*
X636729Y-16102579D01*
X636729Y-16102579D02*
X646253Y-16140674D01*
X646253Y-16140674D02*
X646253Y-16188293D01*
X646253Y-16188293D02*
X636729Y-16226388D01*
X636729Y-16226388D02*
X627205Y-16245436D01*
X627205Y-16245436D02*
X617682Y-16254960D01*
X617682Y-16254960D02*
X598634Y-16264484D01*
X598634Y-16264484D02*
X579586Y-16264484D01*
X579586Y-16264484D02*
X560539Y-16254960D01*
X560539Y-16254960D02*
X551015Y-16245436D01*
X551015Y-16245436D02*
X541491Y-16226388D01*
X541491Y-16226388D02*
X531967Y-16188293D01*
X531967Y-16188293D02*
X531967Y-16140674D01*
X531967Y-16140674D02*
X541491Y-16102579D01*
X541491Y-16102579D02*
X551015Y-16083531D01*
X551015Y-16083531D02*
X560539Y-16074008D01*
X560539Y-16074008D02*
X579586Y-16064484D01*
X770062Y-16064484D02*
X789110Y-16064484D01*
X789110Y-16064484D02*
X808158Y-16074008D01*
X808158Y-16074008D02*
X817682Y-16083531D01*
X817682Y-16083531D02*
X827205Y-16102579D01*
X827205Y-16102579D02*
X836729Y-16140674D01*
X836729Y-16140674D02*
X836729Y-16188293D01*
X836729Y-16188293D02*
X827205Y-16226388D01*
X827205Y-16226388D02*
X817682Y-16245436D01*
X817682Y-16245436D02*
X808158Y-16254960D01*
X808158Y-16254960D02*
X789110Y-16264484D01*
X789110Y-16264484D02*
X770062Y-16264484D01*
X770062Y-16264484D02*
X751015Y-16254960D01*
X751015Y-16254960D02*
X741491Y-16245436D01*
X741491Y-16245436D02*
X731967Y-16226388D01*
X731967Y-16226388D02*
X722443Y-16188293D01*
X722443Y-16188293D02*
X722443Y-16140674D01*
X722443Y-16140674D02*
X731967Y-16102579D01*
X731967Y-16102579D02*
X741491Y-16083531D01*
X741491Y-16083531D02*
X751015Y-16074008D01*
X751015Y-16074008D02*
X770062Y-16064484D01*
X960539Y-16064484D02*
X979586Y-16064484D01*
X979586Y-16064484D02*
X998634Y-16074008D01*
X998634Y-16074008D02*
X1008158Y-16083531D01*
X1008158Y-16083531D02*
X1017682Y-16102579D01*
X1017682Y-16102579D02*
X1027205Y-16140674D01*
X1027205Y-16140674D02*
X1027205Y-16188293D01*
X1027205Y-16188293D02*
X1017682Y-16226388D01*
X1017682Y-16226388D02*
X1008158Y-16245436D01*
X1008158Y-16245436D02*
X998634Y-16254960D01*
X998634Y-16254960D02*
X979586Y-16264484D01*
X979586Y-16264484D02*
X960539Y-16264484D01*
X960539Y-16264484D02*
X941491Y-16254960D01*
X941491Y-16254960D02*
X931967Y-16245436D01*
X931967Y-16245436D02*
X922443Y-16226388D01*
X922443Y-16226388D02*
X912920Y-16188293D01*
X912920Y-16188293D02*
X912920Y-16140674D01*
X912920Y-16140674D02*
X922443Y-16102579D01*
X922443Y-16102579D02*
X931967Y-16083531D01*
X931967Y-16083531D02*
X941491Y-16074008D01*
X941491Y-16074008D02*
X960539Y-16064484D01*
X1112920Y-16264484D02*
X1112920Y-16131150D01*
X1112920Y-16150198D02*
X1122444Y-16140674D01*
X1122444Y-16140674D02*
X1141491Y-16131150D01*
X1141491Y-16131150D02*
X1170063Y-16131150D01*
X1170063Y-16131150D02*
X1189110Y-16140674D01*
X1189110Y-16140674D02*
X1198634Y-16159722D01*
X1198634Y-16159722D02*
X1198634Y-16264484D01*
X1198634Y-16159722D02*
X1208158Y-16140674D01*
X1208158Y-16140674D02*
X1227205Y-16131150D01*
X1227205Y-16131150D02*
X1255777Y-16131150D01*
X1255777Y-16131150D02*
X1274825Y-16140674D01*
X1274825Y-16140674D02*
X1284348Y-16159722D01*
X1284348Y-16159722D02*
X1284348Y-16264484D01*
X1379586Y-16264484D02*
X1379586Y-16131150D01*
X1379586Y-16150198D02*
X1389110Y-16140674D01*
X1389110Y-16140674D02*
X1408158Y-16131150D01*
X1408158Y-16131150D02*
X1436729Y-16131150D01*
X1436729Y-16131150D02*
X1455777Y-16140674D01*
X1455777Y-16140674D02*
X1465301Y-16159722D01*
X1465301Y-16159722D02*
X1465301Y-16264484D01*
X1465301Y-16159722D02*
X1474824Y-16140674D01*
X1474824Y-16140674D02*
X1493872Y-16131150D01*
X1493872Y-16131150D02*
X1522443Y-16131150D01*
X1522443Y-16131150D02*
X1541491Y-16140674D01*
X1541491Y-16140674D02*
X1551015Y-16159722D01*
X1551015Y-16159722D02*
X1551015Y-16264484D01*
X1941491Y-16054960D02*
X1770063Y-16312103D01*
X2198634Y-16064484D02*
X2217682Y-16064484D01*
X2217682Y-16064484D02*
X2236729Y-16074008D01*
X2236729Y-16074008D02*
X2246253Y-16083531D01*
X2246253Y-16083531D02*
X2255777Y-16102579D01*
X2255777Y-16102579D02*
X2265301Y-16140674D01*
X2265301Y-16140674D02*
X2265301Y-16188293D01*
X2265301Y-16188293D02*
X2255777Y-16226388D01*
X2255777Y-16226388D02*
X2246253Y-16245436D01*
X2246253Y-16245436D02*
X2236729Y-16254960D01*
X2236729Y-16254960D02*
X2217682Y-16264484D01*
X2217682Y-16264484D02*
X2198634Y-16264484D01*
X2198634Y-16264484D02*
X2179587Y-16254960D01*
X2179587Y-16254960D02*
X2170063Y-16245436D01*
X2170063Y-16245436D02*
X2160539Y-16226388D01*
X2160539Y-16226388D02*
X2151015Y-16188293D01*
X2151015Y-16188293D02*
X2151015Y-16140674D01*
X2151015Y-16140674D02*
X2160539Y-16102579D01*
X2160539Y-16102579D02*
X2170063Y-16083531D01*
X2170063Y-16083531D02*
X2179587Y-16074008D01*
X2179587Y-16074008D02*
X2198634Y-16064484D01*
X2351015Y-16245436D02*
X2360539Y-16254960D01*
X2360539Y-16254960D02*
X2351015Y-16264484D01*
X2351015Y-16264484D02*
X2341491Y-16254960D01*
X2341491Y-16254960D02*
X2351015Y-16245436D01*
X2351015Y-16245436D02*
X2351015Y-16264484D01*
X2484348Y-16064484D02*
X2503396Y-16064484D01*
X2503396Y-16064484D02*
X2522444Y-16074008D01*
X2522444Y-16074008D02*
X2531968Y-16083531D01*
X2531968Y-16083531D02*
X2541491Y-16102579D01*
X2541491Y-16102579D02*
X2551015Y-16140674D01*
X2551015Y-16140674D02*
X2551015Y-16188293D01*
X2551015Y-16188293D02*
X2541491Y-16226388D01*
X2541491Y-16226388D02*
X2531968Y-16245436D01*
X2531968Y-16245436D02*
X2522444Y-16254960D01*
X2522444Y-16254960D02*
X2503396Y-16264484D01*
X2503396Y-16264484D02*
X2484348Y-16264484D01*
X2484348Y-16264484D02*
X2465301Y-16254960D01*
X2465301Y-16254960D02*
X2455777Y-16245436D01*
X2455777Y-16245436D02*
X2446253Y-16226388D01*
X2446253Y-16226388D02*
X2436729Y-16188293D01*
X2436729Y-16188293D02*
X2436729Y-16140674D01*
X2436729Y-16140674D02*
X2446253Y-16102579D01*
X2446253Y-16102579D02*
X2455777Y-16083531D01*
X2455777Y-16083531D02*
X2465301Y-16074008D01*
X2465301Y-16074008D02*
X2484348Y-16064484D01*
X2617682Y-16064484D02*
X2741491Y-16064484D01*
X2741491Y-16064484D02*
X2674825Y-16140674D01*
X2674825Y-16140674D02*
X2703396Y-16140674D01*
X2703396Y-16140674D02*
X2722444Y-16150198D01*
X2722444Y-16150198D02*
X2731968Y-16159722D01*
X2731968Y-16159722D02*
X2741491Y-16178769D01*
X2741491Y-16178769D02*
X2741491Y-16226388D01*
X2741491Y-16226388D02*
X2731968Y-16245436D01*
X2731968Y-16245436D02*
X2722444Y-16254960D01*
X2722444Y-16254960D02*
X2703396Y-16264484D01*
X2703396Y-16264484D02*
X2646253Y-16264484D01*
X2646253Y-16264484D02*
X2627206Y-16254960D01*
X2627206Y-16254960D02*
X2617682Y-16245436D01*
X2836729Y-16264484D02*
X2874825Y-16264484D01*
X2874825Y-16264484D02*
X2893872Y-16254960D01*
X2893872Y-16254960D02*
X2903396Y-16245436D01*
X2903396Y-16245436D02*
X2922444Y-16216865D01*
X2922444Y-16216865D02*
X2931967Y-16178769D01*
X2931967Y-16178769D02*
X2931967Y-16102579D01*
X2931967Y-16102579D02*
X2922444Y-16083531D01*
X2922444Y-16083531D02*
X2912920Y-16074008D01*
X2912920Y-16074008D02*
X2893872Y-16064484D01*
X2893872Y-16064484D02*
X2855777Y-16064484D01*
X2855777Y-16064484D02*
X2836729Y-16074008D01*
X2836729Y-16074008D02*
X2827206Y-16083531D01*
X2827206Y-16083531D02*
X2817682Y-16102579D01*
X2817682Y-16102579D02*
X2817682Y-16150198D01*
X2817682Y-16150198D02*
X2827206Y-16169246D01*
X2827206Y-16169246D02*
X2836729Y-16178769D01*
X2836729Y-16178769D02*
X2855777Y-16188293D01*
X2855777Y-16188293D02*
X2893872Y-16188293D01*
X2893872Y-16188293D02*
X2912920Y-16178769D01*
X2912920Y-16178769D02*
X2922444Y-16169246D01*
X2922444Y-16169246D02*
X2931967Y-16150198D01*
X3103396Y-16131150D02*
X3103396Y-16264484D01*
X3055777Y-16054960D02*
X3008158Y-16197817D01*
X3008158Y-16197817D02*
X3131967Y-16197817D01*
X3198634Y-16064484D02*
X3198634Y-16102579D01*
X3274825Y-16064484D02*
X3274825Y-16102579D01*
X3570063Y-16340674D02*
X3560539Y-16331150D01*
X3560539Y-16331150D02*
X3541491Y-16302579D01*
X3541491Y-16302579D02*
X3531968Y-16283531D01*
X3531968Y-16283531D02*
X3522444Y-16254960D01*
X3522444Y-16254960D02*
X3512920Y-16207341D01*
X3512920Y-16207341D02*
X3512920Y-16169246D01*
X3512920Y-16169246D02*
X3522444Y-16121627D01*
X3522444Y-16121627D02*
X3531968Y-16093055D01*
X3531968Y-16093055D02*
X3541491Y-16074008D01*
X3541491Y-16074008D02*
X3560539Y-16045436D01*
X3560539Y-16045436D02*
X3570063Y-16035912D01*
X3751015Y-16264484D02*
X3636729Y-16264484D01*
X3693872Y-16264484D02*
X3693872Y-16064484D01*
X3693872Y-16064484D02*
X3674825Y-16093055D01*
X3674825Y-16093055D02*
X3655777Y-16112103D01*
X3655777Y-16112103D02*
X3636729Y-16121627D01*
X3922444Y-16064484D02*
X3884348Y-16064484D01*
X3884348Y-16064484D02*
X3865301Y-16074008D01*
X3865301Y-16074008D02*
X3855777Y-16083531D01*
X3855777Y-16083531D02*
X3836729Y-16112103D01*
X3836729Y-16112103D02*
X3827206Y-16150198D01*
X3827206Y-16150198D02*
X3827206Y-16226388D01*
X3827206Y-16226388D02*
X3836729Y-16245436D01*
X3836729Y-16245436D02*
X3846253Y-16254960D01*
X3846253Y-16254960D02*
X3865301Y-16264484D01*
X3865301Y-16264484D02*
X3903396Y-16264484D01*
X3903396Y-16264484D02*
X3922444Y-16254960D01*
X3922444Y-16254960D02*
X3931968Y-16245436D01*
X3931968Y-16245436D02*
X3941491Y-16226388D01*
X3941491Y-16226388D02*
X3941491Y-16178769D01*
X3941491Y-16178769D02*
X3931968Y-16159722D01*
X3931968Y-16159722D02*
X3922444Y-16150198D01*
X3922444Y-16150198D02*
X3903396Y-16140674D01*
X3903396Y-16140674D02*
X3865301Y-16140674D01*
X3865301Y-16140674D02*
X3846253Y-16150198D01*
X3846253Y-16150198D02*
X3836729Y-16159722D01*
X3836729Y-16159722D02*
X3827206Y-16178769D01*
X4131968Y-16264484D02*
X4017682Y-16264484D01*
X4074825Y-16264484D02*
X4074825Y-16064484D01*
X4074825Y-16064484D02*
X4055777Y-16093055D01*
X4055777Y-16093055D02*
X4036729Y-16112103D01*
X4036729Y-16112103D02*
X4017682Y-16121627D01*
X4370063Y-16264484D02*
X4370063Y-16064484D01*
X4455777Y-16264484D02*
X4455777Y-16159722D01*
X4455777Y-16159722D02*
X4446253Y-16140674D01*
X4446253Y-16140674D02*
X4427206Y-16131150D01*
X4427206Y-16131150D02*
X4398634Y-16131150D01*
X4398634Y-16131150D02*
X4379587Y-16140674D01*
X4379587Y-16140674D02*
X4370063Y-16150198D01*
X4579587Y-16264484D02*
X4560539Y-16254960D01*
X4560539Y-16254960D02*
X4551015Y-16245436D01*
X4551015Y-16245436D02*
X4541492Y-16226388D01*
X4541492Y-16226388D02*
X4541492Y-16169246D01*
X4541492Y-16169246D02*
X4551015Y-16150198D01*
X4551015Y-16150198D02*
X4560539Y-16140674D01*
X4560539Y-16140674D02*
X4579587Y-16131150D01*
X4579587Y-16131150D02*
X4608158Y-16131150D01*
X4608158Y-16131150D02*
X4627206Y-16140674D01*
X4627206Y-16140674D02*
X4636730Y-16150198D01*
X4636730Y-16150198D02*
X4646253Y-16169246D01*
X4646253Y-16169246D02*
X4646253Y-16226388D01*
X4646253Y-16226388D02*
X4636730Y-16245436D01*
X4636730Y-16245436D02*
X4627206Y-16254960D01*
X4627206Y-16254960D02*
X4608158Y-16264484D01*
X4608158Y-16264484D02*
X4579587Y-16264484D01*
X4760539Y-16264484D02*
X4741492Y-16254960D01*
X4741492Y-16254960D02*
X4731968Y-16235912D01*
X4731968Y-16235912D02*
X4731968Y-16064484D01*
X4912920Y-16254960D02*
X4893873Y-16264484D01*
X4893873Y-16264484D02*
X4855777Y-16264484D01*
X4855777Y-16264484D02*
X4836730Y-16254960D01*
X4836730Y-16254960D02*
X4827206Y-16235912D01*
X4827206Y-16235912D02*
X4827206Y-16159722D01*
X4827206Y-16159722D02*
X4836730Y-16140674D01*
X4836730Y-16140674D02*
X4855777Y-16131150D01*
X4855777Y-16131150D02*
X4893873Y-16131150D01*
X4893873Y-16131150D02*
X4912920Y-16140674D01*
X4912920Y-16140674D02*
X4922444Y-16159722D01*
X4922444Y-16159722D02*
X4922444Y-16178769D01*
X4922444Y-16178769D02*
X4827206Y-16197817D01*
X4998634Y-16254960D02*
X5017682Y-16264484D01*
X5017682Y-16264484D02*
X5055777Y-16264484D01*
X5055777Y-16264484D02*
X5074825Y-16254960D01*
X5074825Y-16254960D02*
X5084349Y-16235912D01*
X5084349Y-16235912D02*
X5084349Y-16226388D01*
X5084349Y-16226388D02*
X5074825Y-16207341D01*
X5074825Y-16207341D02*
X5055777Y-16197817D01*
X5055777Y-16197817D02*
X5027206Y-16197817D01*
X5027206Y-16197817D02*
X5008158Y-16188293D01*
X5008158Y-16188293D02*
X4998634Y-16169246D01*
X4998634Y-16169246D02*
X4998634Y-16159722D01*
X4998634Y-16159722D02*
X5008158Y-16140674D01*
X5008158Y-16140674D02*
X5027206Y-16131150D01*
X5027206Y-16131150D02*
X5055777Y-16131150D01*
X5055777Y-16131150D02*
X5074825Y-16140674D01*
X5151015Y-16340674D02*
X5160539Y-16331150D01*
X5160539Y-16331150D02*
X5179587Y-16302579D01*
X5179587Y-16302579D02*
X5189111Y-16283531D01*
X5189111Y-16283531D02*
X5198634Y-16254960D01*
X5198634Y-16254960D02*
X5208158Y-16207341D01*
X5208158Y-16207341D02*
X5208158Y-16169246D01*
X5208158Y-16169246D02*
X5198634Y-16121627D01*
X5198634Y-16121627D02*
X5189111Y-16093055D01*
X5189111Y-16093055D02*
X5179587Y-16074008D01*
X5179587Y-16074008D02*
X5160539Y-16045436D01*
X5160539Y-16045436D02*
X5151015Y-16035912D01*
D14*
X-19879Y-16472921D02*
X-19879Y-16401079D01*
X-91721Y-16401079D01*
X-91721Y-16472921D01*
X-19879Y-16472921D01*
D11*
X360539Y-16528484D02*
X246253Y-16528484D01*
X303396Y-16528484D02*
X303396Y-16328484D01*
X303396Y-16328484D02*
X284348Y-16357055D01*
X284348Y-16357055D02*
X265301Y-16376103D01*
X265301Y-16376103D02*
X246253Y-16385627D01*
X446253Y-16509436D02*
X455777Y-16518960D01*
X455777Y-16518960D02*
X446253Y-16528484D01*
X446253Y-16528484D02*
X436729Y-16518960D01*
X436729Y-16518960D02*
X446253Y-16509436D01*
X446253Y-16509436D02*
X446253Y-16528484D01*
X579586Y-16328484D02*
X598634Y-16328484D01*
X598634Y-16328484D02*
X617682Y-16338008D01*
X617682Y-16338008D02*
X627205Y-16347531D01*
X627205Y-16347531D02*
X636729Y-16366579D01*
X636729Y-16366579D02*
X646253Y-16404674D01*
X646253Y-16404674D02*
X646253Y-16452293D01*
X646253Y-16452293D02*
X636729Y-16490388D01*
X636729Y-16490388D02*
X627205Y-16509436D01*
X627205Y-16509436D02*
X617682Y-16518960D01*
X617682Y-16518960D02*
X598634Y-16528484D01*
X598634Y-16528484D02*
X579586Y-16528484D01*
X579586Y-16528484D02*
X560539Y-16518960D01*
X560539Y-16518960D02*
X551015Y-16509436D01*
X551015Y-16509436D02*
X541491Y-16490388D01*
X541491Y-16490388D02*
X531967Y-16452293D01*
X531967Y-16452293D02*
X531967Y-16404674D01*
X531967Y-16404674D02*
X541491Y-16366579D01*
X541491Y-16366579D02*
X551015Y-16347531D01*
X551015Y-16347531D02*
X560539Y-16338008D01*
X560539Y-16338008D02*
X579586Y-16328484D01*
X836729Y-16528484D02*
X722443Y-16528484D01*
X779586Y-16528484D02*
X779586Y-16328484D01*
X779586Y-16328484D02*
X760539Y-16357055D01*
X760539Y-16357055D02*
X741491Y-16376103D01*
X741491Y-16376103D02*
X722443Y-16385627D01*
X1008158Y-16328484D02*
X970062Y-16328484D01*
X970062Y-16328484D02*
X951015Y-16338008D01*
X951015Y-16338008D02*
X941491Y-16347531D01*
X941491Y-16347531D02*
X922443Y-16376103D01*
X922443Y-16376103D02*
X912920Y-16414198D01*
X912920Y-16414198D02*
X912920Y-16490388D01*
X912920Y-16490388D02*
X922443Y-16509436D01*
X922443Y-16509436D02*
X931967Y-16518960D01*
X931967Y-16518960D02*
X951015Y-16528484D01*
X951015Y-16528484D02*
X989110Y-16528484D01*
X989110Y-16528484D02*
X1008158Y-16518960D01*
X1008158Y-16518960D02*
X1017682Y-16509436D01*
X1017682Y-16509436D02*
X1027205Y-16490388D01*
X1027205Y-16490388D02*
X1027205Y-16442769D01*
X1027205Y-16442769D02*
X1017682Y-16423722D01*
X1017682Y-16423722D02*
X1008158Y-16414198D01*
X1008158Y-16414198D02*
X989110Y-16404674D01*
X989110Y-16404674D02*
X951015Y-16404674D01*
X951015Y-16404674D02*
X931967Y-16414198D01*
X931967Y-16414198D02*
X922443Y-16423722D01*
X922443Y-16423722D02*
X912920Y-16442769D01*
X1112920Y-16528484D02*
X1112920Y-16395150D01*
X1112920Y-16414198D02*
X1122444Y-16404674D01*
X1122444Y-16404674D02*
X1141491Y-16395150D01*
X1141491Y-16395150D02*
X1170063Y-16395150D01*
X1170063Y-16395150D02*
X1189110Y-16404674D01*
X1189110Y-16404674D02*
X1198634Y-16423722D01*
X1198634Y-16423722D02*
X1198634Y-16528484D01*
X1198634Y-16423722D02*
X1208158Y-16404674D01*
X1208158Y-16404674D02*
X1227205Y-16395150D01*
X1227205Y-16395150D02*
X1255777Y-16395150D01*
X1255777Y-16395150D02*
X1274825Y-16404674D01*
X1274825Y-16404674D02*
X1284348Y-16423722D01*
X1284348Y-16423722D02*
X1284348Y-16528484D01*
X1379586Y-16528484D02*
X1379586Y-16395150D01*
X1379586Y-16414198D02*
X1389110Y-16404674D01*
X1389110Y-16404674D02*
X1408158Y-16395150D01*
X1408158Y-16395150D02*
X1436729Y-16395150D01*
X1436729Y-16395150D02*
X1455777Y-16404674D01*
X1455777Y-16404674D02*
X1465301Y-16423722D01*
X1465301Y-16423722D02*
X1465301Y-16528484D01*
X1465301Y-16423722D02*
X1474824Y-16404674D01*
X1474824Y-16404674D02*
X1493872Y-16395150D01*
X1493872Y-16395150D02*
X1522443Y-16395150D01*
X1522443Y-16395150D02*
X1541491Y-16404674D01*
X1541491Y-16404674D02*
X1551015Y-16423722D01*
X1551015Y-16423722D02*
X1551015Y-16528484D01*
X1941491Y-16318960D02*
X1770063Y-16576103D01*
X2198634Y-16328484D02*
X2217682Y-16328484D01*
X2217682Y-16328484D02*
X2236729Y-16338008D01*
X2236729Y-16338008D02*
X2246253Y-16347531D01*
X2246253Y-16347531D02*
X2255777Y-16366579D01*
X2255777Y-16366579D02*
X2265301Y-16404674D01*
X2265301Y-16404674D02*
X2265301Y-16452293D01*
X2265301Y-16452293D02*
X2255777Y-16490388D01*
X2255777Y-16490388D02*
X2246253Y-16509436D01*
X2246253Y-16509436D02*
X2236729Y-16518960D01*
X2236729Y-16518960D02*
X2217682Y-16528484D01*
X2217682Y-16528484D02*
X2198634Y-16528484D01*
X2198634Y-16528484D02*
X2179587Y-16518960D01*
X2179587Y-16518960D02*
X2170063Y-16509436D01*
X2170063Y-16509436D02*
X2160539Y-16490388D01*
X2160539Y-16490388D02*
X2151015Y-16452293D01*
X2151015Y-16452293D02*
X2151015Y-16404674D01*
X2151015Y-16404674D02*
X2160539Y-16366579D01*
X2160539Y-16366579D02*
X2170063Y-16347531D01*
X2170063Y-16347531D02*
X2179587Y-16338008D01*
X2179587Y-16338008D02*
X2198634Y-16328484D01*
X2351015Y-16509436D02*
X2360539Y-16518960D01*
X2360539Y-16518960D02*
X2351015Y-16528484D01*
X2351015Y-16528484D02*
X2341491Y-16518960D01*
X2341491Y-16518960D02*
X2351015Y-16509436D01*
X2351015Y-16509436D02*
X2351015Y-16528484D01*
X2484348Y-16328484D02*
X2503396Y-16328484D01*
X2503396Y-16328484D02*
X2522444Y-16338008D01*
X2522444Y-16338008D02*
X2531968Y-16347531D01*
X2531968Y-16347531D02*
X2541491Y-16366579D01*
X2541491Y-16366579D02*
X2551015Y-16404674D01*
X2551015Y-16404674D02*
X2551015Y-16452293D01*
X2551015Y-16452293D02*
X2541491Y-16490388D01*
X2541491Y-16490388D02*
X2531968Y-16509436D01*
X2531968Y-16509436D02*
X2522444Y-16518960D01*
X2522444Y-16518960D02*
X2503396Y-16528484D01*
X2503396Y-16528484D02*
X2484348Y-16528484D01*
X2484348Y-16528484D02*
X2465301Y-16518960D01*
X2465301Y-16518960D02*
X2455777Y-16509436D01*
X2455777Y-16509436D02*
X2446253Y-16490388D01*
X2446253Y-16490388D02*
X2436729Y-16452293D01*
X2436729Y-16452293D02*
X2436729Y-16404674D01*
X2436729Y-16404674D02*
X2446253Y-16366579D01*
X2446253Y-16366579D02*
X2455777Y-16347531D01*
X2455777Y-16347531D02*
X2465301Y-16338008D01*
X2465301Y-16338008D02*
X2484348Y-16328484D01*
X2722444Y-16395150D02*
X2722444Y-16528484D01*
X2674825Y-16318960D02*
X2627206Y-16461817D01*
X2627206Y-16461817D02*
X2751015Y-16461817D01*
X2865301Y-16328484D02*
X2884348Y-16328484D01*
X2884348Y-16328484D02*
X2903396Y-16338008D01*
X2903396Y-16338008D02*
X2912920Y-16347531D01*
X2912920Y-16347531D02*
X2922444Y-16366579D01*
X2922444Y-16366579D02*
X2931967Y-16404674D01*
X2931967Y-16404674D02*
X2931967Y-16452293D01*
X2931967Y-16452293D02*
X2922444Y-16490388D01*
X2922444Y-16490388D02*
X2912920Y-16509436D01*
X2912920Y-16509436D02*
X2903396Y-16518960D01*
X2903396Y-16518960D02*
X2884348Y-16528484D01*
X2884348Y-16528484D02*
X2865301Y-16528484D01*
X2865301Y-16528484D02*
X2846253Y-16518960D01*
X2846253Y-16518960D02*
X2836729Y-16509436D01*
X2836729Y-16509436D02*
X2827206Y-16490388D01*
X2827206Y-16490388D02*
X2817682Y-16452293D01*
X2817682Y-16452293D02*
X2817682Y-16404674D01*
X2817682Y-16404674D02*
X2827206Y-16366579D01*
X2827206Y-16366579D02*
X2836729Y-16347531D01*
X2836729Y-16347531D02*
X2846253Y-16338008D01*
X2846253Y-16338008D02*
X2865301Y-16328484D01*
X3055777Y-16328484D02*
X3074825Y-16328484D01*
X3074825Y-16328484D02*
X3093872Y-16338008D01*
X3093872Y-16338008D02*
X3103396Y-16347531D01*
X3103396Y-16347531D02*
X3112920Y-16366579D01*
X3112920Y-16366579D02*
X3122444Y-16404674D01*
X3122444Y-16404674D02*
X3122444Y-16452293D01*
X3122444Y-16452293D02*
X3112920Y-16490388D01*
X3112920Y-16490388D02*
X3103396Y-16509436D01*
X3103396Y-16509436D02*
X3093872Y-16518960D01*
X3093872Y-16518960D02*
X3074825Y-16528484D01*
X3074825Y-16528484D02*
X3055777Y-16528484D01*
X3055777Y-16528484D02*
X3036729Y-16518960D01*
X3036729Y-16518960D02*
X3027206Y-16509436D01*
X3027206Y-16509436D02*
X3017682Y-16490388D01*
X3017682Y-16490388D02*
X3008158Y-16452293D01*
X3008158Y-16452293D02*
X3008158Y-16404674D01*
X3008158Y-16404674D02*
X3017682Y-16366579D01*
X3017682Y-16366579D02*
X3027206Y-16347531D01*
X3027206Y-16347531D02*
X3036729Y-16338008D01*
X3036729Y-16338008D02*
X3055777Y-16328484D01*
X3198634Y-16328484D02*
X3198634Y-16366579D01*
X3274825Y-16328484D02*
X3274825Y-16366579D01*
X3570063Y-16604674D02*
X3560539Y-16595150D01*
X3560539Y-16595150D02*
X3541491Y-16566579D01*
X3541491Y-16566579D02*
X3531968Y-16547531D01*
X3531968Y-16547531D02*
X3522444Y-16518960D01*
X3522444Y-16518960D02*
X3512920Y-16471341D01*
X3512920Y-16471341D02*
X3512920Y-16433246D01*
X3512920Y-16433246D02*
X3522444Y-16385627D01*
X3522444Y-16385627D02*
X3531968Y-16357055D01*
X3531968Y-16357055D02*
X3541491Y-16338008D01*
X3541491Y-16338008D02*
X3560539Y-16309436D01*
X3560539Y-16309436D02*
X3570063Y-16299912D01*
X3655777Y-16528484D02*
X3693872Y-16528484D01*
X3693872Y-16528484D02*
X3712920Y-16518960D01*
X3712920Y-16518960D02*
X3722444Y-16509436D01*
X3722444Y-16509436D02*
X3741491Y-16480865D01*
X3741491Y-16480865D02*
X3751015Y-16442769D01*
X3751015Y-16442769D02*
X3751015Y-16366579D01*
X3751015Y-16366579D02*
X3741491Y-16347531D01*
X3741491Y-16347531D02*
X3731968Y-16338008D01*
X3731968Y-16338008D02*
X3712920Y-16328484D01*
X3712920Y-16328484D02*
X3674825Y-16328484D01*
X3674825Y-16328484D02*
X3655777Y-16338008D01*
X3655777Y-16338008D02*
X3646253Y-16347531D01*
X3646253Y-16347531D02*
X3636729Y-16366579D01*
X3636729Y-16366579D02*
X3636729Y-16414198D01*
X3636729Y-16414198D02*
X3646253Y-16433246D01*
X3646253Y-16433246D02*
X3655777Y-16442769D01*
X3655777Y-16442769D02*
X3674825Y-16452293D01*
X3674825Y-16452293D02*
X3712920Y-16452293D01*
X3712920Y-16452293D02*
X3731968Y-16442769D01*
X3731968Y-16442769D02*
X3741491Y-16433246D01*
X3741491Y-16433246D02*
X3751015Y-16414198D01*
X3827206Y-16347531D02*
X3836729Y-16338008D01*
X3836729Y-16338008D02*
X3855777Y-16328484D01*
X3855777Y-16328484D02*
X3903396Y-16328484D01*
X3903396Y-16328484D02*
X3922444Y-16338008D01*
X3922444Y-16338008D02*
X3931968Y-16347531D01*
X3931968Y-16347531D02*
X3941491Y-16366579D01*
X3941491Y-16366579D02*
X3941491Y-16385627D01*
X3941491Y-16385627D02*
X3931968Y-16414198D01*
X3931968Y-16414198D02*
X3817682Y-16528484D01*
X3817682Y-16528484D02*
X3941491Y-16528484D01*
X4179587Y-16528484D02*
X4179587Y-16328484D01*
X4265301Y-16528484D02*
X4265301Y-16423722D01*
X4265301Y-16423722D02*
X4255777Y-16404674D01*
X4255777Y-16404674D02*
X4236730Y-16395150D01*
X4236730Y-16395150D02*
X4208158Y-16395150D01*
X4208158Y-16395150D02*
X4189110Y-16404674D01*
X4189110Y-16404674D02*
X4179587Y-16414198D01*
X4389111Y-16528484D02*
X4370063Y-16518960D01*
X4370063Y-16518960D02*
X4360539Y-16509436D01*
X4360539Y-16509436D02*
X4351015Y-16490388D01*
X4351015Y-16490388D02*
X4351015Y-16433246D01*
X4351015Y-16433246D02*
X4360539Y-16414198D01*
X4360539Y-16414198D02*
X4370063Y-16404674D01*
X4370063Y-16404674D02*
X4389111Y-16395150D01*
X4389111Y-16395150D02*
X4417682Y-16395150D01*
X4417682Y-16395150D02*
X4436730Y-16404674D01*
X4436730Y-16404674D02*
X4446253Y-16414198D01*
X4446253Y-16414198D02*
X4455777Y-16433246D01*
X4455777Y-16433246D02*
X4455777Y-16490388D01*
X4455777Y-16490388D02*
X4446253Y-16509436D01*
X4446253Y-16509436D02*
X4436730Y-16518960D01*
X4436730Y-16518960D02*
X4417682Y-16528484D01*
X4417682Y-16528484D02*
X4389111Y-16528484D01*
X4570063Y-16528484D02*
X4551015Y-16518960D01*
X4551015Y-16518960D02*
X4541492Y-16499912D01*
X4541492Y-16499912D02*
X4541492Y-16328484D01*
X4722444Y-16518960D02*
X4703396Y-16528484D01*
X4703396Y-16528484D02*
X4665301Y-16528484D01*
X4665301Y-16528484D02*
X4646253Y-16518960D01*
X4646253Y-16518960D02*
X4636730Y-16499912D01*
X4636730Y-16499912D02*
X4636730Y-16423722D01*
X4636730Y-16423722D02*
X4646253Y-16404674D01*
X4646253Y-16404674D02*
X4665301Y-16395150D01*
X4665301Y-16395150D02*
X4703396Y-16395150D01*
X4703396Y-16395150D02*
X4722444Y-16404674D01*
X4722444Y-16404674D02*
X4731968Y-16423722D01*
X4731968Y-16423722D02*
X4731968Y-16442769D01*
X4731968Y-16442769D02*
X4636730Y-16461817D01*
X4808158Y-16518960D02*
X4827206Y-16528484D01*
X4827206Y-16528484D02*
X4865301Y-16528484D01*
X4865301Y-16528484D02*
X4884349Y-16518960D01*
X4884349Y-16518960D02*
X4893873Y-16499912D01*
X4893873Y-16499912D02*
X4893873Y-16490388D01*
X4893873Y-16490388D02*
X4884349Y-16471341D01*
X4884349Y-16471341D02*
X4865301Y-16461817D01*
X4865301Y-16461817D02*
X4836730Y-16461817D01*
X4836730Y-16461817D02*
X4817682Y-16452293D01*
X4817682Y-16452293D02*
X4808158Y-16433246D01*
X4808158Y-16433246D02*
X4808158Y-16423722D01*
X4808158Y-16423722D02*
X4817682Y-16404674D01*
X4817682Y-16404674D02*
X4836730Y-16395150D01*
X4836730Y-16395150D02*
X4865301Y-16395150D01*
X4865301Y-16395150D02*
X4884349Y-16404674D01*
X4960539Y-16604674D02*
X4970063Y-16595150D01*
X4970063Y-16595150D02*
X4989111Y-16566579D01*
X4989111Y-16566579D02*
X4998634Y-16547531D01*
X4998634Y-16547531D02*
X5008158Y-16518960D01*
X5008158Y-16518960D02*
X5017682Y-16471341D01*
X5017682Y-16471341D02*
X5017682Y-16433246D01*
X5017682Y-16433246D02*
X5008158Y-16385627D01*
X5008158Y-16385627D02*
X4998634Y-16357055D01*
X4998634Y-16357055D02*
X4989111Y-16338008D01*
X4989111Y-16338008D02*
X4970063Y-16309436D01*
X4970063Y-16309436D02*
X4960539Y-16299912D01*
D15*
X-65000Y-16761000D02*
X-5000Y-16701000D01*
X-65000Y-16641000D01*
X-125000Y-16701000D01*
X-65000Y-16761000D01*
D11*
X360539Y-16792484D02*
X246253Y-16792484D01*
X303396Y-16792484D02*
X303396Y-16592484D01*
X303396Y-16592484D02*
X284348Y-16621055D01*
X284348Y-16621055D02*
X265301Y-16640103D01*
X265301Y-16640103D02*
X246253Y-16649627D01*
X446253Y-16773436D02*
X455777Y-16782960D01*
X455777Y-16782960D02*
X446253Y-16792484D01*
X446253Y-16792484D02*
X436729Y-16782960D01*
X436729Y-16782960D02*
X446253Y-16773436D01*
X446253Y-16773436D02*
X446253Y-16792484D01*
X531967Y-16611531D02*
X541491Y-16602008D01*
X541491Y-16602008D02*
X560539Y-16592484D01*
X560539Y-16592484D02*
X608158Y-16592484D01*
X608158Y-16592484D02*
X627205Y-16602008D01*
X627205Y-16602008D02*
X636729Y-16611531D01*
X636729Y-16611531D02*
X646253Y-16630579D01*
X646253Y-16630579D02*
X646253Y-16649627D01*
X646253Y-16649627D02*
X636729Y-16678198D01*
X636729Y-16678198D02*
X522443Y-16792484D01*
X522443Y-16792484D02*
X646253Y-16792484D01*
X770062Y-16592484D02*
X789110Y-16592484D01*
X789110Y-16592484D02*
X808158Y-16602008D01*
X808158Y-16602008D02*
X817682Y-16611531D01*
X817682Y-16611531D02*
X827205Y-16630579D01*
X827205Y-16630579D02*
X836729Y-16668674D01*
X836729Y-16668674D02*
X836729Y-16716293D01*
X836729Y-16716293D02*
X827205Y-16754388D01*
X827205Y-16754388D02*
X817682Y-16773436D01*
X817682Y-16773436D02*
X808158Y-16782960D01*
X808158Y-16782960D02*
X789110Y-16792484D01*
X789110Y-16792484D02*
X770062Y-16792484D01*
X770062Y-16792484D02*
X751015Y-16782960D01*
X751015Y-16782960D02*
X741491Y-16773436D01*
X741491Y-16773436D02*
X731967Y-16754388D01*
X731967Y-16754388D02*
X722443Y-16716293D01*
X722443Y-16716293D02*
X722443Y-16668674D01*
X722443Y-16668674D02*
X731967Y-16630579D01*
X731967Y-16630579D02*
X741491Y-16611531D01*
X741491Y-16611531D02*
X751015Y-16602008D01*
X751015Y-16602008D02*
X770062Y-16592484D01*
X960539Y-16592484D02*
X979586Y-16592484D01*
X979586Y-16592484D02*
X998634Y-16602008D01*
X998634Y-16602008D02*
X1008158Y-16611531D01*
X1008158Y-16611531D02*
X1017682Y-16630579D01*
X1017682Y-16630579D02*
X1027205Y-16668674D01*
X1027205Y-16668674D02*
X1027205Y-16716293D01*
X1027205Y-16716293D02*
X1017682Y-16754388D01*
X1017682Y-16754388D02*
X1008158Y-16773436D01*
X1008158Y-16773436D02*
X998634Y-16782960D01*
X998634Y-16782960D02*
X979586Y-16792484D01*
X979586Y-16792484D02*
X960539Y-16792484D01*
X960539Y-16792484D02*
X941491Y-16782960D01*
X941491Y-16782960D02*
X931967Y-16773436D01*
X931967Y-16773436D02*
X922443Y-16754388D01*
X922443Y-16754388D02*
X912920Y-16716293D01*
X912920Y-16716293D02*
X912920Y-16668674D01*
X912920Y-16668674D02*
X922443Y-16630579D01*
X922443Y-16630579D02*
X931967Y-16611531D01*
X931967Y-16611531D02*
X941491Y-16602008D01*
X941491Y-16602008D02*
X960539Y-16592484D01*
X1112920Y-16792484D02*
X1112920Y-16659150D01*
X1112920Y-16678198D02*
X1122444Y-16668674D01*
X1122444Y-16668674D02*
X1141491Y-16659150D01*
X1141491Y-16659150D02*
X1170063Y-16659150D01*
X1170063Y-16659150D02*
X1189110Y-16668674D01*
X1189110Y-16668674D02*
X1198634Y-16687722D01*
X1198634Y-16687722D02*
X1198634Y-16792484D01*
X1198634Y-16687722D02*
X1208158Y-16668674D01*
X1208158Y-16668674D02*
X1227205Y-16659150D01*
X1227205Y-16659150D02*
X1255777Y-16659150D01*
X1255777Y-16659150D02*
X1274825Y-16668674D01*
X1274825Y-16668674D02*
X1284348Y-16687722D01*
X1284348Y-16687722D02*
X1284348Y-16792484D01*
X1379586Y-16792484D02*
X1379586Y-16659150D01*
X1379586Y-16678198D02*
X1389110Y-16668674D01*
X1389110Y-16668674D02*
X1408158Y-16659150D01*
X1408158Y-16659150D02*
X1436729Y-16659150D01*
X1436729Y-16659150D02*
X1455777Y-16668674D01*
X1455777Y-16668674D02*
X1465301Y-16687722D01*
X1465301Y-16687722D02*
X1465301Y-16792484D01*
X1465301Y-16687722D02*
X1474824Y-16668674D01*
X1474824Y-16668674D02*
X1493872Y-16659150D01*
X1493872Y-16659150D02*
X1522443Y-16659150D01*
X1522443Y-16659150D02*
X1541491Y-16668674D01*
X1541491Y-16668674D02*
X1551015Y-16687722D01*
X1551015Y-16687722D02*
X1551015Y-16792484D01*
X1941491Y-16582960D02*
X1770063Y-16840103D01*
X2198634Y-16592484D02*
X2217682Y-16592484D01*
X2217682Y-16592484D02*
X2236729Y-16602008D01*
X2236729Y-16602008D02*
X2246253Y-16611531D01*
X2246253Y-16611531D02*
X2255777Y-16630579D01*
X2255777Y-16630579D02*
X2265301Y-16668674D01*
X2265301Y-16668674D02*
X2265301Y-16716293D01*
X2265301Y-16716293D02*
X2255777Y-16754388D01*
X2255777Y-16754388D02*
X2246253Y-16773436D01*
X2246253Y-16773436D02*
X2236729Y-16782960D01*
X2236729Y-16782960D02*
X2217682Y-16792484D01*
X2217682Y-16792484D02*
X2198634Y-16792484D01*
X2198634Y-16792484D02*
X2179587Y-16782960D01*
X2179587Y-16782960D02*
X2170063Y-16773436D01*
X2170063Y-16773436D02*
X2160539Y-16754388D01*
X2160539Y-16754388D02*
X2151015Y-16716293D01*
X2151015Y-16716293D02*
X2151015Y-16668674D01*
X2151015Y-16668674D02*
X2160539Y-16630579D01*
X2160539Y-16630579D02*
X2170063Y-16611531D01*
X2170063Y-16611531D02*
X2179587Y-16602008D01*
X2179587Y-16602008D02*
X2198634Y-16592484D01*
X2351015Y-16773436D02*
X2360539Y-16782960D01*
X2360539Y-16782960D02*
X2351015Y-16792484D01*
X2351015Y-16792484D02*
X2341491Y-16782960D01*
X2341491Y-16782960D02*
X2351015Y-16773436D01*
X2351015Y-16773436D02*
X2351015Y-16792484D01*
X2484348Y-16592484D02*
X2503396Y-16592484D01*
X2503396Y-16592484D02*
X2522444Y-16602008D01*
X2522444Y-16602008D02*
X2531968Y-16611531D01*
X2531968Y-16611531D02*
X2541491Y-16630579D01*
X2541491Y-16630579D02*
X2551015Y-16668674D01*
X2551015Y-16668674D02*
X2551015Y-16716293D01*
X2551015Y-16716293D02*
X2541491Y-16754388D01*
X2541491Y-16754388D02*
X2531968Y-16773436D01*
X2531968Y-16773436D02*
X2522444Y-16782960D01*
X2522444Y-16782960D02*
X2503396Y-16792484D01*
X2503396Y-16792484D02*
X2484348Y-16792484D01*
X2484348Y-16792484D02*
X2465301Y-16782960D01*
X2465301Y-16782960D02*
X2455777Y-16773436D01*
X2455777Y-16773436D02*
X2446253Y-16754388D01*
X2446253Y-16754388D02*
X2436729Y-16716293D01*
X2436729Y-16716293D02*
X2436729Y-16668674D01*
X2436729Y-16668674D02*
X2446253Y-16630579D01*
X2446253Y-16630579D02*
X2455777Y-16611531D01*
X2455777Y-16611531D02*
X2465301Y-16602008D01*
X2465301Y-16602008D02*
X2484348Y-16592484D01*
X2722444Y-16659150D02*
X2722444Y-16792484D01*
X2674825Y-16582960D02*
X2627206Y-16725817D01*
X2627206Y-16725817D02*
X2751015Y-16725817D01*
X2808158Y-16592484D02*
X2941491Y-16592484D01*
X2941491Y-16592484D02*
X2855777Y-16792484D01*
X3008158Y-16611531D02*
X3017682Y-16602008D01*
X3017682Y-16602008D02*
X3036729Y-16592484D01*
X3036729Y-16592484D02*
X3084348Y-16592484D01*
X3084348Y-16592484D02*
X3103396Y-16602008D01*
X3103396Y-16602008D02*
X3112920Y-16611531D01*
X3112920Y-16611531D02*
X3122444Y-16630579D01*
X3122444Y-16630579D02*
X3122444Y-16649627D01*
X3122444Y-16649627D02*
X3112920Y-16678198D01*
X3112920Y-16678198D02*
X2998634Y-16792484D01*
X2998634Y-16792484D02*
X3122444Y-16792484D01*
X3198634Y-16592484D02*
X3198634Y-16630579D01*
X3274825Y-16592484D02*
X3274825Y-16630579D01*
X3570063Y-16868674D02*
X3560539Y-16859150D01*
X3560539Y-16859150D02*
X3541491Y-16830579D01*
X3541491Y-16830579D02*
X3531968Y-16811531D01*
X3531968Y-16811531D02*
X3522444Y-16782960D01*
X3522444Y-16782960D02*
X3512920Y-16735341D01*
X3512920Y-16735341D02*
X3512920Y-16697246D01*
X3512920Y-16697246D02*
X3522444Y-16649627D01*
X3522444Y-16649627D02*
X3531968Y-16621055D01*
X3531968Y-16621055D02*
X3541491Y-16602008D01*
X3541491Y-16602008D02*
X3560539Y-16573436D01*
X3560539Y-16573436D02*
X3570063Y-16563912D01*
X3731968Y-16592484D02*
X3693872Y-16592484D01*
X3693872Y-16592484D02*
X3674825Y-16602008D01*
X3674825Y-16602008D02*
X3665301Y-16611531D01*
X3665301Y-16611531D02*
X3646253Y-16640103D01*
X3646253Y-16640103D02*
X3636729Y-16678198D01*
X3636729Y-16678198D02*
X3636729Y-16754388D01*
X3636729Y-16754388D02*
X3646253Y-16773436D01*
X3646253Y-16773436D02*
X3655777Y-16782960D01*
X3655777Y-16782960D02*
X3674825Y-16792484D01*
X3674825Y-16792484D02*
X3712920Y-16792484D01*
X3712920Y-16792484D02*
X3731968Y-16782960D01*
X3731968Y-16782960D02*
X3741491Y-16773436D01*
X3741491Y-16773436D02*
X3751015Y-16754388D01*
X3751015Y-16754388D02*
X3751015Y-16706769D01*
X3751015Y-16706769D02*
X3741491Y-16687722D01*
X3741491Y-16687722D02*
X3731968Y-16678198D01*
X3731968Y-16678198D02*
X3712920Y-16668674D01*
X3712920Y-16668674D02*
X3674825Y-16668674D01*
X3674825Y-16668674D02*
X3655777Y-16678198D01*
X3655777Y-16678198D02*
X3646253Y-16687722D01*
X3646253Y-16687722D02*
X3636729Y-16706769D01*
X3989110Y-16792484D02*
X3989110Y-16592484D01*
X4074825Y-16792484D02*
X4074825Y-16687722D01*
X4074825Y-16687722D02*
X4065301Y-16668674D01*
X4065301Y-16668674D02*
X4046253Y-16659150D01*
X4046253Y-16659150D02*
X4017682Y-16659150D01*
X4017682Y-16659150D02*
X3998634Y-16668674D01*
X3998634Y-16668674D02*
X3989110Y-16678198D01*
X4198634Y-16792484D02*
X4179587Y-16782960D01*
X4179587Y-16782960D02*
X4170063Y-16773436D01*
X4170063Y-16773436D02*
X4160539Y-16754388D01*
X4160539Y-16754388D02*
X4160539Y-16697246D01*
X4160539Y-16697246D02*
X4170063Y-16678198D01*
X4170063Y-16678198D02*
X4179587Y-16668674D01*
X4179587Y-16668674D02*
X4198634Y-16659150D01*
X4198634Y-16659150D02*
X4227206Y-16659150D01*
X4227206Y-16659150D02*
X4246253Y-16668674D01*
X4246253Y-16668674D02*
X4255777Y-16678198D01*
X4255777Y-16678198D02*
X4265301Y-16697246D01*
X4265301Y-16697246D02*
X4265301Y-16754388D01*
X4265301Y-16754388D02*
X4255777Y-16773436D01*
X4255777Y-16773436D02*
X4246253Y-16782960D01*
X4246253Y-16782960D02*
X4227206Y-16792484D01*
X4227206Y-16792484D02*
X4198634Y-16792484D01*
X4379587Y-16792484D02*
X4360539Y-16782960D01*
X4360539Y-16782960D02*
X4351015Y-16763912D01*
X4351015Y-16763912D02*
X4351015Y-16592484D01*
X4531968Y-16782960D02*
X4512920Y-16792484D01*
X4512920Y-16792484D02*
X4474825Y-16792484D01*
X4474825Y-16792484D02*
X4455777Y-16782960D01*
X4455777Y-16782960D02*
X4446253Y-16763912D01*
X4446253Y-16763912D02*
X4446253Y-16687722D01*
X4446253Y-16687722D02*
X4455777Y-16668674D01*
X4455777Y-16668674D02*
X4474825Y-16659150D01*
X4474825Y-16659150D02*
X4512920Y-16659150D01*
X4512920Y-16659150D02*
X4531968Y-16668674D01*
X4531968Y-16668674D02*
X4541492Y-16687722D01*
X4541492Y-16687722D02*
X4541492Y-16706769D01*
X4541492Y-16706769D02*
X4446253Y-16725817D01*
X4617682Y-16782960D02*
X4636730Y-16792484D01*
X4636730Y-16792484D02*
X4674825Y-16792484D01*
X4674825Y-16792484D02*
X4693873Y-16782960D01*
X4693873Y-16782960D02*
X4703396Y-16763912D01*
X4703396Y-16763912D02*
X4703396Y-16754388D01*
X4703396Y-16754388D02*
X4693873Y-16735341D01*
X4693873Y-16735341D02*
X4674825Y-16725817D01*
X4674825Y-16725817D02*
X4646253Y-16725817D01*
X4646253Y-16725817D02*
X4627206Y-16716293D01*
X4627206Y-16716293D02*
X4617682Y-16697246D01*
X4617682Y-16697246D02*
X4617682Y-16687722D01*
X4617682Y-16687722D02*
X4627206Y-16668674D01*
X4627206Y-16668674D02*
X4646253Y-16659150D01*
X4646253Y-16659150D02*
X4674825Y-16659150D01*
X4674825Y-16659150D02*
X4693873Y-16668674D01*
X4770063Y-16868674D02*
X4779587Y-16859150D01*
X4779587Y-16859150D02*
X4798634Y-16830579D01*
X4798634Y-16830579D02*
X4808158Y-16811531D01*
X4808158Y-16811531D02*
X4817682Y-16782960D01*
X4817682Y-16782960D02*
X4827206Y-16735341D01*
X4827206Y-16735341D02*
X4827206Y-16697246D01*
X4827206Y-16697246D02*
X4817682Y-16649627D01*
X4817682Y-16649627D02*
X4808158Y-16621055D01*
X4808158Y-16621055D02*
X4798634Y-16602008D01*
X4798634Y-16602008D02*
X4779587Y-16573436D01*
X4779587Y-16573436D02*
X4770063Y-16563912D01*
D16*
X-135000Y-16900000D02*
X-5000Y-17030000D01*
X-5000Y-16900000D02*
X-135000Y-17030000D01*
X-5000Y-16965000D02*
G75*
G03*
X-5000Y-16965000I-65000J0D01*
G01*
D11*
X360539Y-17056484D02*
X246253Y-17056484D01*
X303396Y-17056484D02*
X303396Y-16856484D01*
X303396Y-16856484D02*
X284348Y-16885055D01*
X284348Y-16885055D02*
X265301Y-16904103D01*
X265301Y-16904103D02*
X246253Y-16913627D01*
X446253Y-17037436D02*
X455777Y-17046960D01*
X455777Y-17046960D02*
X446253Y-17056484D01*
X446253Y-17056484D02*
X436729Y-17046960D01*
X436729Y-17046960D02*
X446253Y-17037436D01*
X446253Y-17037436D02*
X446253Y-17056484D01*
X522443Y-16856484D02*
X646253Y-16856484D01*
X646253Y-16856484D02*
X579586Y-16932674D01*
X579586Y-16932674D02*
X608158Y-16932674D01*
X608158Y-16932674D02*
X627205Y-16942198D01*
X627205Y-16942198D02*
X636729Y-16951722D01*
X636729Y-16951722D02*
X646253Y-16970770D01*
X646253Y-16970770D02*
X646253Y-17018389D01*
X646253Y-17018389D02*
X636729Y-17037436D01*
X636729Y-17037436D02*
X627205Y-17046960D01*
X627205Y-17046960D02*
X608158Y-17056484D01*
X608158Y-17056484D02*
X551015Y-17056484D01*
X551015Y-17056484D02*
X531967Y-17046960D01*
X531967Y-17046960D02*
X522443Y-17037436D01*
X770062Y-16856484D02*
X789110Y-16856484D01*
X789110Y-16856484D02*
X808158Y-16866008D01*
X808158Y-16866008D02*
X817682Y-16875531D01*
X817682Y-16875531D02*
X827205Y-16894579D01*
X827205Y-16894579D02*
X836729Y-16932674D01*
X836729Y-16932674D02*
X836729Y-16980293D01*
X836729Y-16980293D02*
X827205Y-17018389D01*
X827205Y-17018389D02*
X817682Y-17037436D01*
X817682Y-17037436D02*
X808158Y-17046960D01*
X808158Y-17046960D02*
X789110Y-17056484D01*
X789110Y-17056484D02*
X770062Y-17056484D01*
X770062Y-17056484D02*
X751015Y-17046960D01*
X751015Y-17046960D02*
X741491Y-17037436D01*
X741491Y-17037436D02*
X731967Y-17018389D01*
X731967Y-17018389D02*
X722443Y-16980293D01*
X722443Y-16980293D02*
X722443Y-16932674D01*
X722443Y-16932674D02*
X731967Y-16894579D01*
X731967Y-16894579D02*
X741491Y-16875531D01*
X741491Y-16875531D02*
X751015Y-16866008D01*
X751015Y-16866008D02*
X770062Y-16856484D01*
X960539Y-16856484D02*
X979586Y-16856484D01*
X979586Y-16856484D02*
X998634Y-16866008D01*
X998634Y-16866008D02*
X1008158Y-16875531D01*
X1008158Y-16875531D02*
X1017682Y-16894579D01*
X1017682Y-16894579D02*
X1027205Y-16932674D01*
X1027205Y-16932674D02*
X1027205Y-16980293D01*
X1027205Y-16980293D02*
X1017682Y-17018389D01*
X1017682Y-17018389D02*
X1008158Y-17037436D01*
X1008158Y-17037436D02*
X998634Y-17046960D01*
X998634Y-17046960D02*
X979586Y-17056484D01*
X979586Y-17056484D02*
X960539Y-17056484D01*
X960539Y-17056484D02*
X941491Y-17046960D01*
X941491Y-17046960D02*
X931967Y-17037436D01*
X931967Y-17037436D02*
X922443Y-17018389D01*
X922443Y-17018389D02*
X912920Y-16980293D01*
X912920Y-16980293D02*
X912920Y-16932674D01*
X912920Y-16932674D02*
X922443Y-16894579D01*
X922443Y-16894579D02*
X931967Y-16875531D01*
X931967Y-16875531D02*
X941491Y-16866008D01*
X941491Y-16866008D02*
X960539Y-16856484D01*
X1112920Y-17056484D02*
X1112920Y-16923150D01*
X1112920Y-16942198D02*
X1122444Y-16932674D01*
X1122444Y-16932674D02*
X1141491Y-16923150D01*
X1141491Y-16923150D02*
X1170063Y-16923150D01*
X1170063Y-16923150D02*
X1189110Y-16932674D01*
X1189110Y-16932674D02*
X1198634Y-16951722D01*
X1198634Y-16951722D02*
X1198634Y-17056484D01*
X1198634Y-16951722D02*
X1208158Y-16932674D01*
X1208158Y-16932674D02*
X1227205Y-16923150D01*
X1227205Y-16923150D02*
X1255777Y-16923150D01*
X1255777Y-16923150D02*
X1274825Y-16932674D01*
X1274825Y-16932674D02*
X1284348Y-16951722D01*
X1284348Y-16951722D02*
X1284348Y-17056484D01*
X1379586Y-17056484D02*
X1379586Y-16923150D01*
X1379586Y-16942198D02*
X1389110Y-16932674D01*
X1389110Y-16932674D02*
X1408158Y-16923150D01*
X1408158Y-16923150D02*
X1436729Y-16923150D01*
X1436729Y-16923150D02*
X1455777Y-16932674D01*
X1455777Y-16932674D02*
X1465301Y-16951722D01*
X1465301Y-16951722D02*
X1465301Y-17056484D01*
X1465301Y-16951722D02*
X1474824Y-16932674D01*
X1474824Y-16932674D02*
X1493872Y-16923150D01*
X1493872Y-16923150D02*
X1522443Y-16923150D01*
X1522443Y-16923150D02*
X1541491Y-16932674D01*
X1541491Y-16932674D02*
X1551015Y-16951722D01*
X1551015Y-16951722D02*
X1551015Y-17056484D01*
X1941491Y-16846960D02*
X1770063Y-17104103D01*
X2198634Y-16856484D02*
X2217682Y-16856484D01*
X2217682Y-16856484D02*
X2236729Y-16866008D01*
X2236729Y-16866008D02*
X2246253Y-16875531D01*
X2246253Y-16875531D02*
X2255777Y-16894579D01*
X2255777Y-16894579D02*
X2265301Y-16932674D01*
X2265301Y-16932674D02*
X2265301Y-16980293D01*
X2265301Y-16980293D02*
X2255777Y-17018389D01*
X2255777Y-17018389D02*
X2246253Y-17037436D01*
X2246253Y-17037436D02*
X2236729Y-17046960D01*
X2236729Y-17046960D02*
X2217682Y-17056484D01*
X2217682Y-17056484D02*
X2198634Y-17056484D01*
X2198634Y-17056484D02*
X2179587Y-17046960D01*
X2179587Y-17046960D02*
X2170063Y-17037436D01*
X2170063Y-17037436D02*
X2160539Y-17018389D01*
X2160539Y-17018389D02*
X2151015Y-16980293D01*
X2151015Y-16980293D02*
X2151015Y-16932674D01*
X2151015Y-16932674D02*
X2160539Y-16894579D01*
X2160539Y-16894579D02*
X2170063Y-16875531D01*
X2170063Y-16875531D02*
X2179587Y-16866008D01*
X2179587Y-16866008D02*
X2198634Y-16856484D01*
X2351015Y-17037436D02*
X2360539Y-17046960D01*
X2360539Y-17046960D02*
X2351015Y-17056484D01*
X2351015Y-17056484D02*
X2341491Y-17046960D01*
X2341491Y-17046960D02*
X2351015Y-17037436D01*
X2351015Y-17037436D02*
X2351015Y-17056484D01*
X2484348Y-16856484D02*
X2503396Y-16856484D01*
X2503396Y-16856484D02*
X2522444Y-16866008D01*
X2522444Y-16866008D02*
X2531968Y-16875531D01*
X2531968Y-16875531D02*
X2541491Y-16894579D01*
X2541491Y-16894579D02*
X2551015Y-16932674D01*
X2551015Y-16932674D02*
X2551015Y-16980293D01*
X2551015Y-16980293D02*
X2541491Y-17018389D01*
X2541491Y-17018389D02*
X2531968Y-17037436D01*
X2531968Y-17037436D02*
X2522444Y-17046960D01*
X2522444Y-17046960D02*
X2503396Y-17056484D01*
X2503396Y-17056484D02*
X2484348Y-17056484D01*
X2484348Y-17056484D02*
X2465301Y-17046960D01*
X2465301Y-17046960D02*
X2455777Y-17037436D01*
X2455777Y-17037436D02*
X2446253Y-17018389D01*
X2446253Y-17018389D02*
X2436729Y-16980293D01*
X2436729Y-16980293D02*
X2436729Y-16932674D01*
X2436729Y-16932674D02*
X2446253Y-16894579D01*
X2446253Y-16894579D02*
X2455777Y-16875531D01*
X2455777Y-16875531D02*
X2465301Y-16866008D01*
X2465301Y-16866008D02*
X2484348Y-16856484D01*
X2731968Y-16856484D02*
X2636729Y-16856484D01*
X2636729Y-16856484D02*
X2627206Y-16951722D01*
X2627206Y-16951722D02*
X2636729Y-16942198D01*
X2636729Y-16942198D02*
X2655777Y-16932674D01*
X2655777Y-16932674D02*
X2703396Y-16932674D01*
X2703396Y-16932674D02*
X2722444Y-16942198D01*
X2722444Y-16942198D02*
X2731968Y-16951722D01*
X2731968Y-16951722D02*
X2741491Y-16970770D01*
X2741491Y-16970770D02*
X2741491Y-17018389D01*
X2741491Y-17018389D02*
X2731968Y-17037436D01*
X2731968Y-17037436D02*
X2722444Y-17046960D01*
X2722444Y-17046960D02*
X2703396Y-17056484D01*
X2703396Y-17056484D02*
X2655777Y-17056484D01*
X2655777Y-17056484D02*
X2636729Y-17046960D01*
X2636729Y-17046960D02*
X2627206Y-17037436D01*
X2931967Y-17056484D02*
X2817682Y-17056484D01*
X2874825Y-17056484D02*
X2874825Y-16856484D01*
X2874825Y-16856484D02*
X2855777Y-16885055D01*
X2855777Y-16885055D02*
X2836729Y-16904103D01*
X2836729Y-16904103D02*
X2817682Y-16913627D01*
X3008158Y-16875531D02*
X3017682Y-16866008D01*
X3017682Y-16866008D02*
X3036729Y-16856484D01*
X3036729Y-16856484D02*
X3084348Y-16856484D01*
X3084348Y-16856484D02*
X3103396Y-16866008D01*
X3103396Y-16866008D02*
X3112920Y-16875531D01*
X3112920Y-16875531D02*
X3122444Y-16894579D01*
X3122444Y-16894579D02*
X3122444Y-16913627D01*
X3122444Y-16913627D02*
X3112920Y-16942198D01*
X3112920Y-16942198D02*
X2998634Y-17056484D01*
X2998634Y-17056484D02*
X3122444Y-17056484D01*
X3198634Y-16856484D02*
X3198634Y-16894579D01*
X3274825Y-16856484D02*
X3274825Y-16894579D01*
X3570063Y-17132674D02*
X3560539Y-17123150D01*
X3560539Y-17123150D02*
X3541491Y-17094579D01*
X3541491Y-17094579D02*
X3531968Y-17075531D01*
X3531968Y-17075531D02*
X3522444Y-17046960D01*
X3522444Y-17046960D02*
X3512920Y-16999341D01*
X3512920Y-16999341D02*
X3512920Y-16961246D01*
X3512920Y-16961246D02*
X3522444Y-16913627D01*
X3522444Y-16913627D02*
X3531968Y-16885055D01*
X3531968Y-16885055D02*
X3541491Y-16866008D01*
X3541491Y-16866008D02*
X3560539Y-16837436D01*
X3560539Y-16837436D02*
X3570063Y-16827912D01*
X3636729Y-16875531D02*
X3646253Y-16866008D01*
X3646253Y-16866008D02*
X3665301Y-16856484D01*
X3665301Y-16856484D02*
X3712920Y-16856484D01*
X3712920Y-16856484D02*
X3731968Y-16866008D01*
X3731968Y-16866008D02*
X3741491Y-16875531D01*
X3741491Y-16875531D02*
X3751015Y-16894579D01*
X3751015Y-16894579D02*
X3751015Y-16913627D01*
X3751015Y-16913627D02*
X3741491Y-16942198D01*
X3741491Y-16942198D02*
X3627206Y-17056484D01*
X3627206Y-17056484D02*
X3751015Y-17056484D01*
X3989110Y-17056484D02*
X3989110Y-16856484D01*
X4074825Y-17056484D02*
X4074825Y-16951722D01*
X4074825Y-16951722D02*
X4065301Y-16932674D01*
X4065301Y-16932674D02*
X4046253Y-16923150D01*
X4046253Y-16923150D02*
X4017682Y-16923150D01*
X4017682Y-16923150D02*
X3998634Y-16932674D01*
X3998634Y-16932674D02*
X3989110Y-16942198D01*
X4198634Y-17056484D02*
X4179587Y-17046960D01*
X4179587Y-17046960D02*
X4170063Y-17037436D01*
X4170063Y-17037436D02*
X4160539Y-17018389D01*
X4160539Y-17018389D02*
X4160539Y-16961246D01*
X4160539Y-16961246D02*
X4170063Y-16942198D01*
X4170063Y-16942198D02*
X4179587Y-16932674D01*
X4179587Y-16932674D02*
X4198634Y-16923150D01*
X4198634Y-16923150D02*
X4227206Y-16923150D01*
X4227206Y-16923150D02*
X4246253Y-16932674D01*
X4246253Y-16932674D02*
X4255777Y-16942198D01*
X4255777Y-16942198D02*
X4265301Y-16961246D01*
X4265301Y-16961246D02*
X4265301Y-17018389D01*
X4265301Y-17018389D02*
X4255777Y-17037436D01*
X4255777Y-17037436D02*
X4246253Y-17046960D01*
X4246253Y-17046960D02*
X4227206Y-17056484D01*
X4227206Y-17056484D02*
X4198634Y-17056484D01*
X4379587Y-17056484D02*
X4360539Y-17046960D01*
X4360539Y-17046960D02*
X4351015Y-17027912D01*
X4351015Y-17027912D02*
X4351015Y-16856484D01*
X4531968Y-17046960D02*
X4512920Y-17056484D01*
X4512920Y-17056484D02*
X4474825Y-17056484D01*
X4474825Y-17056484D02*
X4455777Y-17046960D01*
X4455777Y-17046960D02*
X4446253Y-17027912D01*
X4446253Y-17027912D02*
X4446253Y-16951722D01*
X4446253Y-16951722D02*
X4455777Y-16932674D01*
X4455777Y-16932674D02*
X4474825Y-16923150D01*
X4474825Y-16923150D02*
X4512920Y-16923150D01*
X4512920Y-16923150D02*
X4531968Y-16932674D01*
X4531968Y-16932674D02*
X4541492Y-16951722D01*
X4541492Y-16951722D02*
X4541492Y-16970770D01*
X4541492Y-16970770D02*
X4446253Y-16989817D01*
X4617682Y-17046960D02*
X4636730Y-17056484D01*
X4636730Y-17056484D02*
X4674825Y-17056484D01*
X4674825Y-17056484D02*
X4693873Y-17046960D01*
X4693873Y-17046960D02*
X4703396Y-17027912D01*
X4703396Y-17027912D02*
X4703396Y-17018389D01*
X4703396Y-17018389D02*
X4693873Y-16999341D01*
X4693873Y-16999341D02*
X4674825Y-16989817D01*
X4674825Y-16989817D02*
X4646253Y-16989817D01*
X4646253Y-16989817D02*
X4627206Y-16980293D01*
X4627206Y-16980293D02*
X4617682Y-16961246D01*
X4617682Y-16961246D02*
X4617682Y-16951722D01*
X4617682Y-16951722D02*
X4627206Y-16932674D01*
X4627206Y-16932674D02*
X4646253Y-16923150D01*
X4646253Y-16923150D02*
X4674825Y-16923150D01*
X4674825Y-16923150D02*
X4693873Y-16932674D01*
X4770063Y-17132674D02*
X4779587Y-17123150D01*
X4779587Y-17123150D02*
X4798634Y-17094579D01*
X4798634Y-17094579D02*
X4808158Y-17075531D01*
X4808158Y-17075531D02*
X4817682Y-17046960D01*
X4817682Y-17046960D02*
X4827206Y-16999341D01*
X4827206Y-16999341D02*
X4827206Y-16961246D01*
X4827206Y-16961246D02*
X4817682Y-16913627D01*
X4817682Y-16913627D02*
X4808158Y-16885055D01*
X4808158Y-16885055D02*
X4798634Y-16866008D01*
X4798634Y-16866008D02*
X4779587Y-16837436D01*
X4779587Y-16837436D02*
X4770063Y-16827912D01*
X-205000Y-17129000D02*
X-5000Y-17329000D01*
X-5000Y-17129000D02*
X-205000Y-17329000D01*
X-105000Y-17129000D02*
X-105000Y-17329000D01*
X-205000Y-17229000D02*
X-5000Y-17229000D01*
X236729Y-17120484D02*
X360539Y-17120484D01*
X360539Y-17120484D02*
X293872Y-17196674D01*
X293872Y-17196674D02*
X322444Y-17196674D01*
X322444Y-17196674D02*
X341491Y-17206198D01*
X341491Y-17206198D02*
X351015Y-17215722D01*
X351015Y-17215722D02*
X360539Y-17234770D01*
X360539Y-17234770D02*
X360539Y-17282389D01*
X360539Y-17282389D02*
X351015Y-17301436D01*
X351015Y-17301436D02*
X341491Y-17310960D01*
X341491Y-17310960D02*
X322444Y-17320484D01*
X322444Y-17320484D02*
X265301Y-17320484D01*
X265301Y-17320484D02*
X246253Y-17310960D01*
X246253Y-17310960D02*
X236729Y-17301436D01*
X446253Y-17301436D02*
X455777Y-17310960D01*
X455777Y-17310960D02*
X446253Y-17320484D01*
X446253Y-17320484D02*
X436729Y-17310960D01*
X436729Y-17310960D02*
X446253Y-17301436D01*
X446253Y-17301436D02*
X446253Y-17320484D01*
X531967Y-17139531D02*
X541491Y-17130008D01*
X541491Y-17130008D02*
X560539Y-17120484D01*
X560539Y-17120484D02*
X608158Y-17120484D01*
X608158Y-17120484D02*
X627205Y-17130008D01*
X627205Y-17130008D02*
X636729Y-17139531D01*
X636729Y-17139531D02*
X646253Y-17158579D01*
X646253Y-17158579D02*
X646253Y-17177627D01*
X646253Y-17177627D02*
X636729Y-17206198D01*
X636729Y-17206198D02*
X522443Y-17320484D01*
X522443Y-17320484D02*
X646253Y-17320484D01*
X770062Y-17120484D02*
X789110Y-17120484D01*
X789110Y-17120484D02*
X808158Y-17130008D01*
X808158Y-17130008D02*
X817682Y-17139531D01*
X817682Y-17139531D02*
X827205Y-17158579D01*
X827205Y-17158579D02*
X836729Y-17196674D01*
X836729Y-17196674D02*
X836729Y-17244293D01*
X836729Y-17244293D02*
X827205Y-17282389D01*
X827205Y-17282389D02*
X817682Y-17301436D01*
X817682Y-17301436D02*
X808158Y-17310960D01*
X808158Y-17310960D02*
X789110Y-17320484D01*
X789110Y-17320484D02*
X770062Y-17320484D01*
X770062Y-17320484D02*
X751015Y-17310960D01*
X751015Y-17310960D02*
X741491Y-17301436D01*
X741491Y-17301436D02*
X731967Y-17282389D01*
X731967Y-17282389D02*
X722443Y-17244293D01*
X722443Y-17244293D02*
X722443Y-17196674D01*
X722443Y-17196674D02*
X731967Y-17158579D01*
X731967Y-17158579D02*
X741491Y-17139531D01*
X741491Y-17139531D02*
X751015Y-17130008D01*
X751015Y-17130008D02*
X770062Y-17120484D01*
X960539Y-17120484D02*
X979586Y-17120484D01*
X979586Y-17120484D02*
X998634Y-17130008D01*
X998634Y-17130008D02*
X1008158Y-17139531D01*
X1008158Y-17139531D02*
X1017682Y-17158579D01*
X1017682Y-17158579D02*
X1027205Y-17196674D01*
X1027205Y-17196674D02*
X1027205Y-17244293D01*
X1027205Y-17244293D02*
X1017682Y-17282389D01*
X1017682Y-17282389D02*
X1008158Y-17301436D01*
X1008158Y-17301436D02*
X998634Y-17310960D01*
X998634Y-17310960D02*
X979586Y-17320484D01*
X979586Y-17320484D02*
X960539Y-17320484D01*
X960539Y-17320484D02*
X941491Y-17310960D01*
X941491Y-17310960D02*
X931967Y-17301436D01*
X931967Y-17301436D02*
X922443Y-17282389D01*
X922443Y-17282389D02*
X912920Y-17244293D01*
X912920Y-17244293D02*
X912920Y-17196674D01*
X912920Y-17196674D02*
X922443Y-17158579D01*
X922443Y-17158579D02*
X931967Y-17139531D01*
X931967Y-17139531D02*
X941491Y-17130008D01*
X941491Y-17130008D02*
X960539Y-17120484D01*
X1112920Y-17320484D02*
X1112920Y-17187150D01*
X1112920Y-17206198D02*
X1122444Y-17196674D01*
X1122444Y-17196674D02*
X1141491Y-17187150D01*
X1141491Y-17187150D02*
X1170063Y-17187150D01*
X1170063Y-17187150D02*
X1189110Y-17196674D01*
X1189110Y-17196674D02*
X1198634Y-17215722D01*
X1198634Y-17215722D02*
X1198634Y-17320484D01*
X1198634Y-17215722D02*
X1208158Y-17196674D01*
X1208158Y-17196674D02*
X1227205Y-17187150D01*
X1227205Y-17187150D02*
X1255777Y-17187150D01*
X1255777Y-17187150D02*
X1274825Y-17196674D01*
X1274825Y-17196674D02*
X1284348Y-17215722D01*
X1284348Y-17215722D02*
X1284348Y-17320484D01*
X1379586Y-17320484D02*
X1379586Y-17187150D01*
X1379586Y-17206198D02*
X1389110Y-17196674D01*
X1389110Y-17196674D02*
X1408158Y-17187150D01*
X1408158Y-17187150D02*
X1436729Y-17187150D01*
X1436729Y-17187150D02*
X1455777Y-17196674D01*
X1455777Y-17196674D02*
X1465301Y-17215722D01*
X1465301Y-17215722D02*
X1465301Y-17320484D01*
X1465301Y-17215722D02*
X1474824Y-17196674D01*
X1474824Y-17196674D02*
X1493872Y-17187150D01*
X1493872Y-17187150D02*
X1522443Y-17187150D01*
X1522443Y-17187150D02*
X1541491Y-17196674D01*
X1541491Y-17196674D02*
X1551015Y-17215722D01*
X1551015Y-17215722D02*
X1551015Y-17320484D01*
X1941491Y-17110960D02*
X1770063Y-17368103D01*
X2198634Y-17120484D02*
X2217682Y-17120484D01*
X2217682Y-17120484D02*
X2236729Y-17130008D01*
X2236729Y-17130008D02*
X2246253Y-17139531D01*
X2246253Y-17139531D02*
X2255777Y-17158579D01*
X2255777Y-17158579D02*
X2265301Y-17196674D01*
X2265301Y-17196674D02*
X2265301Y-17244293D01*
X2265301Y-17244293D02*
X2255777Y-17282389D01*
X2255777Y-17282389D02*
X2246253Y-17301436D01*
X2246253Y-17301436D02*
X2236729Y-17310960D01*
X2236729Y-17310960D02*
X2217682Y-17320484D01*
X2217682Y-17320484D02*
X2198634Y-17320484D01*
X2198634Y-17320484D02*
X2179587Y-17310960D01*
X2179587Y-17310960D02*
X2170063Y-17301436D01*
X2170063Y-17301436D02*
X2160539Y-17282389D01*
X2160539Y-17282389D02*
X2151015Y-17244293D01*
X2151015Y-17244293D02*
X2151015Y-17196674D01*
X2151015Y-17196674D02*
X2160539Y-17158579D01*
X2160539Y-17158579D02*
X2170063Y-17139531D01*
X2170063Y-17139531D02*
X2179587Y-17130008D01*
X2179587Y-17130008D02*
X2198634Y-17120484D01*
X2351015Y-17301436D02*
X2360539Y-17310960D01*
X2360539Y-17310960D02*
X2351015Y-17320484D01*
X2351015Y-17320484D02*
X2341491Y-17310960D01*
X2341491Y-17310960D02*
X2351015Y-17301436D01*
X2351015Y-17301436D02*
X2351015Y-17320484D01*
X2551015Y-17320484D02*
X2436729Y-17320484D01*
X2493872Y-17320484D02*
X2493872Y-17120484D01*
X2493872Y-17120484D02*
X2474825Y-17149055D01*
X2474825Y-17149055D02*
X2455777Y-17168103D01*
X2455777Y-17168103D02*
X2436729Y-17177627D01*
X2627206Y-17139531D02*
X2636729Y-17130008D01*
X2636729Y-17130008D02*
X2655777Y-17120484D01*
X2655777Y-17120484D02*
X2703396Y-17120484D01*
X2703396Y-17120484D02*
X2722444Y-17130008D01*
X2722444Y-17130008D02*
X2731968Y-17139531D01*
X2731968Y-17139531D02*
X2741491Y-17158579D01*
X2741491Y-17158579D02*
X2741491Y-17177627D01*
X2741491Y-17177627D02*
X2731968Y-17206198D01*
X2731968Y-17206198D02*
X2617682Y-17320484D01*
X2617682Y-17320484D02*
X2741491Y-17320484D01*
X2912920Y-17120484D02*
X2874825Y-17120484D01*
X2874825Y-17120484D02*
X2855777Y-17130008D01*
X2855777Y-17130008D02*
X2846253Y-17139531D01*
X2846253Y-17139531D02*
X2827206Y-17168103D01*
X2827206Y-17168103D02*
X2817682Y-17206198D01*
X2817682Y-17206198D02*
X2817682Y-17282389D01*
X2817682Y-17282389D02*
X2827206Y-17301436D01*
X2827206Y-17301436D02*
X2836729Y-17310960D01*
X2836729Y-17310960D02*
X2855777Y-17320484D01*
X2855777Y-17320484D02*
X2893872Y-17320484D01*
X2893872Y-17320484D02*
X2912920Y-17310960D01*
X2912920Y-17310960D02*
X2922444Y-17301436D01*
X2922444Y-17301436D02*
X2931967Y-17282389D01*
X2931967Y-17282389D02*
X2931967Y-17234770D01*
X2931967Y-17234770D02*
X2922444Y-17215722D01*
X2922444Y-17215722D02*
X2912920Y-17206198D01*
X2912920Y-17206198D02*
X2893872Y-17196674D01*
X2893872Y-17196674D02*
X2855777Y-17196674D01*
X2855777Y-17196674D02*
X2836729Y-17206198D01*
X2836729Y-17206198D02*
X2827206Y-17215722D01*
X2827206Y-17215722D02*
X2817682Y-17234770D01*
X3055777Y-17120484D02*
X3074825Y-17120484D01*
X3074825Y-17120484D02*
X3093872Y-17130008D01*
X3093872Y-17130008D02*
X3103396Y-17139531D01*
X3103396Y-17139531D02*
X3112920Y-17158579D01*
X3112920Y-17158579D02*
X3122444Y-17196674D01*
X3122444Y-17196674D02*
X3122444Y-17244293D01*
X3122444Y-17244293D02*
X3112920Y-17282389D01*
X3112920Y-17282389D02*
X3103396Y-17301436D01*
X3103396Y-17301436D02*
X3093872Y-17310960D01*
X3093872Y-17310960D02*
X3074825Y-17320484D01*
X3074825Y-17320484D02*
X3055777Y-17320484D01*
X3055777Y-17320484D02*
X3036729Y-17310960D01*
X3036729Y-17310960D02*
X3027206Y-17301436D01*
X3027206Y-17301436D02*
X3017682Y-17282389D01*
X3017682Y-17282389D02*
X3008158Y-17244293D01*
X3008158Y-17244293D02*
X3008158Y-17196674D01*
X3008158Y-17196674D02*
X3017682Y-17158579D01*
X3017682Y-17158579D02*
X3027206Y-17139531D01*
X3027206Y-17139531D02*
X3036729Y-17130008D01*
X3036729Y-17130008D02*
X3055777Y-17120484D01*
X3198634Y-17120484D02*
X3198634Y-17158579D01*
X3274825Y-17120484D02*
X3274825Y-17158579D01*
X3570063Y-17396674D02*
X3560539Y-17387150D01*
X3560539Y-17387150D02*
X3541491Y-17358579D01*
X3541491Y-17358579D02*
X3531968Y-17339531D01*
X3531968Y-17339531D02*
X3522444Y-17310960D01*
X3522444Y-17310960D02*
X3512920Y-17263341D01*
X3512920Y-17263341D02*
X3512920Y-17225246D01*
X3512920Y-17225246D02*
X3522444Y-17177627D01*
X3522444Y-17177627D02*
X3531968Y-17149055D01*
X3531968Y-17149055D02*
X3541491Y-17130008D01*
X3541491Y-17130008D02*
X3560539Y-17101436D01*
X3560539Y-17101436D02*
X3570063Y-17091912D01*
X3751015Y-17320484D02*
X3636729Y-17320484D01*
X3693872Y-17320484D02*
X3693872Y-17120484D01*
X3693872Y-17120484D02*
X3674825Y-17149055D01*
X3674825Y-17149055D02*
X3655777Y-17168103D01*
X3655777Y-17168103D02*
X3636729Y-17177627D01*
X3922444Y-17120484D02*
X3884348Y-17120484D01*
X3884348Y-17120484D02*
X3865301Y-17130008D01*
X3865301Y-17130008D02*
X3855777Y-17139531D01*
X3855777Y-17139531D02*
X3836729Y-17168103D01*
X3836729Y-17168103D02*
X3827206Y-17206198D01*
X3827206Y-17206198D02*
X3827206Y-17282389D01*
X3827206Y-17282389D02*
X3836729Y-17301436D01*
X3836729Y-17301436D02*
X3846253Y-17310960D01*
X3846253Y-17310960D02*
X3865301Y-17320484D01*
X3865301Y-17320484D02*
X3903396Y-17320484D01*
X3903396Y-17320484D02*
X3922444Y-17310960D01*
X3922444Y-17310960D02*
X3931968Y-17301436D01*
X3931968Y-17301436D02*
X3941491Y-17282389D01*
X3941491Y-17282389D02*
X3941491Y-17234770D01*
X3941491Y-17234770D02*
X3931968Y-17215722D01*
X3931968Y-17215722D02*
X3922444Y-17206198D01*
X3922444Y-17206198D02*
X3903396Y-17196674D01*
X3903396Y-17196674D02*
X3865301Y-17196674D01*
X3865301Y-17196674D02*
X3846253Y-17206198D01*
X3846253Y-17206198D02*
X3836729Y-17215722D01*
X3836729Y-17215722D02*
X3827206Y-17234770D01*
X4179587Y-17320484D02*
X4179587Y-17120484D01*
X4265301Y-17320484D02*
X4265301Y-17215722D01*
X4265301Y-17215722D02*
X4255777Y-17196674D01*
X4255777Y-17196674D02*
X4236730Y-17187150D01*
X4236730Y-17187150D02*
X4208158Y-17187150D01*
X4208158Y-17187150D02*
X4189110Y-17196674D01*
X4189110Y-17196674D02*
X4179587Y-17206198D01*
X4389111Y-17320484D02*
X4370063Y-17310960D01*
X4370063Y-17310960D02*
X4360539Y-17301436D01*
X4360539Y-17301436D02*
X4351015Y-17282389D01*
X4351015Y-17282389D02*
X4351015Y-17225246D01*
X4351015Y-17225246D02*
X4360539Y-17206198D01*
X4360539Y-17206198D02*
X4370063Y-17196674D01*
X4370063Y-17196674D02*
X4389111Y-17187150D01*
X4389111Y-17187150D02*
X4417682Y-17187150D01*
X4417682Y-17187150D02*
X4436730Y-17196674D01*
X4436730Y-17196674D02*
X4446253Y-17206198D01*
X4446253Y-17206198D02*
X4455777Y-17225246D01*
X4455777Y-17225246D02*
X4455777Y-17282389D01*
X4455777Y-17282389D02*
X4446253Y-17301436D01*
X4446253Y-17301436D02*
X4436730Y-17310960D01*
X4436730Y-17310960D02*
X4417682Y-17320484D01*
X4417682Y-17320484D02*
X4389111Y-17320484D01*
X4570063Y-17320484D02*
X4551015Y-17310960D01*
X4551015Y-17310960D02*
X4541492Y-17291912D01*
X4541492Y-17291912D02*
X4541492Y-17120484D01*
X4722444Y-17310960D02*
X4703396Y-17320484D01*
X4703396Y-17320484D02*
X4665301Y-17320484D01*
X4665301Y-17320484D02*
X4646253Y-17310960D01*
X4646253Y-17310960D02*
X4636730Y-17291912D01*
X4636730Y-17291912D02*
X4636730Y-17215722D01*
X4636730Y-17215722D02*
X4646253Y-17196674D01*
X4646253Y-17196674D02*
X4665301Y-17187150D01*
X4665301Y-17187150D02*
X4703396Y-17187150D01*
X4703396Y-17187150D02*
X4722444Y-17196674D01*
X4722444Y-17196674D02*
X4731968Y-17215722D01*
X4731968Y-17215722D02*
X4731968Y-17234770D01*
X4731968Y-17234770D02*
X4636730Y-17253817D01*
X4808158Y-17310960D02*
X4827206Y-17320484D01*
X4827206Y-17320484D02*
X4865301Y-17320484D01*
X4865301Y-17320484D02*
X4884349Y-17310960D01*
X4884349Y-17310960D02*
X4893873Y-17291912D01*
X4893873Y-17291912D02*
X4893873Y-17282389D01*
X4893873Y-17282389D02*
X4884349Y-17263341D01*
X4884349Y-17263341D02*
X4865301Y-17253817D01*
X4865301Y-17253817D02*
X4836730Y-17253817D01*
X4836730Y-17253817D02*
X4817682Y-17244293D01*
X4817682Y-17244293D02*
X4808158Y-17225246D01*
X4808158Y-17225246D02*
X4808158Y-17215722D01*
X4808158Y-17215722D02*
X4817682Y-17196674D01*
X4817682Y-17196674D02*
X4836730Y-17187150D01*
X4836730Y-17187150D02*
X4865301Y-17187150D01*
X4865301Y-17187150D02*
X4884349Y-17196674D01*
X4960539Y-17396674D02*
X4970063Y-17387150D01*
X4970063Y-17387150D02*
X4989111Y-17358579D01*
X4989111Y-17358579D02*
X4998634Y-17339531D01*
X4998634Y-17339531D02*
X5008158Y-17310960D01*
X5008158Y-17310960D02*
X5017682Y-17263341D01*
X5017682Y-17263341D02*
X5017682Y-17225246D01*
X5017682Y-17225246D02*
X5008158Y-17177627D01*
X5008158Y-17177627D02*
X4998634Y-17149055D01*
X4998634Y-17149055D02*
X4989111Y-17130008D01*
X4989111Y-17130008D02*
X4970063Y-17101436D01*
X4970063Y-17101436D02*
X4960539Y-17091912D01*
X-205000Y-17449000D02*
X-5000Y-17649000D01*
X-5000Y-17449000D02*
X-205000Y-17649000D01*
X-34289Y-17619711D02*
X-34289Y-17478289D01*
X-175711Y-17478289D01*
X-175711Y-17619711D01*
X-34289Y-17619711D01*
X236729Y-17440484D02*
X360539Y-17440484D01*
X360539Y-17440484D02*
X293872Y-17516674D01*
X293872Y-17516674D02*
X322444Y-17516674D01*
X322444Y-17516674D02*
X341491Y-17526198D01*
X341491Y-17526198D02*
X351015Y-17535722D01*
X351015Y-17535722D02*
X360539Y-17554770D01*
X360539Y-17554770D02*
X360539Y-17602389D01*
X360539Y-17602389D02*
X351015Y-17621436D01*
X351015Y-17621436D02*
X341491Y-17630960D01*
X341491Y-17630960D02*
X322444Y-17640484D01*
X322444Y-17640484D02*
X265301Y-17640484D01*
X265301Y-17640484D02*
X246253Y-17630960D01*
X246253Y-17630960D02*
X236729Y-17621436D01*
X446253Y-17621436D02*
X455777Y-17630960D01*
X455777Y-17630960D02*
X446253Y-17640484D01*
X446253Y-17640484D02*
X436729Y-17630960D01*
X436729Y-17630960D02*
X446253Y-17621436D01*
X446253Y-17621436D02*
X446253Y-17640484D01*
X531967Y-17459531D02*
X541491Y-17450008D01*
X541491Y-17450008D02*
X560539Y-17440484D01*
X560539Y-17440484D02*
X608158Y-17440484D01*
X608158Y-17440484D02*
X627205Y-17450008D01*
X627205Y-17450008D02*
X636729Y-17459531D01*
X636729Y-17459531D02*
X646253Y-17478579D01*
X646253Y-17478579D02*
X646253Y-17497627D01*
X646253Y-17497627D02*
X636729Y-17526198D01*
X636729Y-17526198D02*
X522443Y-17640484D01*
X522443Y-17640484D02*
X646253Y-17640484D01*
X770062Y-17440484D02*
X789110Y-17440484D01*
X789110Y-17440484D02*
X808158Y-17450008D01*
X808158Y-17450008D02*
X817682Y-17459531D01*
X817682Y-17459531D02*
X827205Y-17478579D01*
X827205Y-17478579D02*
X836729Y-17516674D01*
X836729Y-17516674D02*
X836729Y-17564293D01*
X836729Y-17564293D02*
X827205Y-17602389D01*
X827205Y-17602389D02*
X817682Y-17621436D01*
X817682Y-17621436D02*
X808158Y-17630960D01*
X808158Y-17630960D02*
X789110Y-17640484D01*
X789110Y-17640484D02*
X770062Y-17640484D01*
X770062Y-17640484D02*
X751015Y-17630960D01*
X751015Y-17630960D02*
X741491Y-17621436D01*
X741491Y-17621436D02*
X731967Y-17602389D01*
X731967Y-17602389D02*
X722443Y-17564293D01*
X722443Y-17564293D02*
X722443Y-17516674D01*
X722443Y-17516674D02*
X731967Y-17478579D01*
X731967Y-17478579D02*
X741491Y-17459531D01*
X741491Y-17459531D02*
X751015Y-17450008D01*
X751015Y-17450008D02*
X770062Y-17440484D01*
X960539Y-17440484D02*
X979586Y-17440484D01*
X979586Y-17440484D02*
X998634Y-17450008D01*
X998634Y-17450008D02*
X1008158Y-17459531D01*
X1008158Y-17459531D02*
X1017682Y-17478579D01*
X1017682Y-17478579D02*
X1027205Y-17516674D01*
X1027205Y-17516674D02*
X1027205Y-17564293D01*
X1027205Y-17564293D02*
X1017682Y-17602389D01*
X1017682Y-17602389D02*
X1008158Y-17621436D01*
X1008158Y-17621436D02*
X998634Y-17630960D01*
X998634Y-17630960D02*
X979586Y-17640484D01*
X979586Y-17640484D02*
X960539Y-17640484D01*
X960539Y-17640484D02*
X941491Y-17630960D01*
X941491Y-17630960D02*
X931967Y-17621436D01*
X931967Y-17621436D02*
X922443Y-17602389D01*
X922443Y-17602389D02*
X912920Y-17564293D01*
X912920Y-17564293D02*
X912920Y-17516674D01*
X912920Y-17516674D02*
X922443Y-17478579D01*
X922443Y-17478579D02*
X931967Y-17459531D01*
X931967Y-17459531D02*
X941491Y-17450008D01*
X941491Y-17450008D02*
X960539Y-17440484D01*
X1112920Y-17640484D02*
X1112920Y-17507150D01*
X1112920Y-17526198D02*
X1122444Y-17516674D01*
X1122444Y-17516674D02*
X1141491Y-17507150D01*
X1141491Y-17507150D02*
X1170063Y-17507150D01*
X1170063Y-17507150D02*
X1189110Y-17516674D01*
X1189110Y-17516674D02*
X1198634Y-17535722D01*
X1198634Y-17535722D02*
X1198634Y-17640484D01*
X1198634Y-17535722D02*
X1208158Y-17516674D01*
X1208158Y-17516674D02*
X1227205Y-17507150D01*
X1227205Y-17507150D02*
X1255777Y-17507150D01*
X1255777Y-17507150D02*
X1274825Y-17516674D01*
X1274825Y-17516674D02*
X1284348Y-17535722D01*
X1284348Y-17535722D02*
X1284348Y-17640484D01*
X1379586Y-17640484D02*
X1379586Y-17507150D01*
X1379586Y-17526198D02*
X1389110Y-17516674D01*
X1389110Y-17516674D02*
X1408158Y-17507150D01*
X1408158Y-17507150D02*
X1436729Y-17507150D01*
X1436729Y-17507150D02*
X1455777Y-17516674D01*
X1455777Y-17516674D02*
X1465301Y-17535722D01*
X1465301Y-17535722D02*
X1465301Y-17640484D01*
X1465301Y-17535722D02*
X1474824Y-17516674D01*
X1474824Y-17516674D02*
X1493872Y-17507150D01*
X1493872Y-17507150D02*
X1522443Y-17507150D01*
X1522443Y-17507150D02*
X1541491Y-17516674D01*
X1541491Y-17516674D02*
X1551015Y-17535722D01*
X1551015Y-17535722D02*
X1551015Y-17640484D01*
X1941491Y-17430960D02*
X1770063Y-17688103D01*
X2198634Y-17440484D02*
X2217682Y-17440484D01*
X2217682Y-17440484D02*
X2236729Y-17450008D01*
X2236729Y-17450008D02*
X2246253Y-17459531D01*
X2246253Y-17459531D02*
X2255777Y-17478579D01*
X2255777Y-17478579D02*
X2265301Y-17516674D01*
X2265301Y-17516674D02*
X2265301Y-17564293D01*
X2265301Y-17564293D02*
X2255777Y-17602389D01*
X2255777Y-17602389D02*
X2246253Y-17621436D01*
X2246253Y-17621436D02*
X2236729Y-17630960D01*
X2236729Y-17630960D02*
X2217682Y-17640484D01*
X2217682Y-17640484D02*
X2198634Y-17640484D01*
X2198634Y-17640484D02*
X2179587Y-17630960D01*
X2179587Y-17630960D02*
X2170063Y-17621436D01*
X2170063Y-17621436D02*
X2160539Y-17602389D01*
X2160539Y-17602389D02*
X2151015Y-17564293D01*
X2151015Y-17564293D02*
X2151015Y-17516674D01*
X2151015Y-17516674D02*
X2160539Y-17478579D01*
X2160539Y-17478579D02*
X2170063Y-17459531D01*
X2170063Y-17459531D02*
X2179587Y-17450008D01*
X2179587Y-17450008D02*
X2198634Y-17440484D01*
X2351015Y-17621436D02*
X2360539Y-17630960D01*
X2360539Y-17630960D02*
X2351015Y-17640484D01*
X2351015Y-17640484D02*
X2341491Y-17630960D01*
X2341491Y-17630960D02*
X2351015Y-17621436D01*
X2351015Y-17621436D02*
X2351015Y-17640484D01*
X2551015Y-17640484D02*
X2436729Y-17640484D01*
X2493872Y-17640484D02*
X2493872Y-17440484D01*
X2493872Y-17440484D02*
X2474825Y-17469055D01*
X2474825Y-17469055D02*
X2455777Y-17488103D01*
X2455777Y-17488103D02*
X2436729Y-17497627D01*
X2627206Y-17459531D02*
X2636729Y-17450008D01*
X2636729Y-17450008D02*
X2655777Y-17440484D01*
X2655777Y-17440484D02*
X2703396Y-17440484D01*
X2703396Y-17440484D02*
X2722444Y-17450008D01*
X2722444Y-17450008D02*
X2731968Y-17459531D01*
X2731968Y-17459531D02*
X2741491Y-17478579D01*
X2741491Y-17478579D02*
X2741491Y-17497627D01*
X2741491Y-17497627D02*
X2731968Y-17526198D01*
X2731968Y-17526198D02*
X2617682Y-17640484D01*
X2617682Y-17640484D02*
X2741491Y-17640484D01*
X2912920Y-17440484D02*
X2874825Y-17440484D01*
X2874825Y-17440484D02*
X2855777Y-17450008D01*
X2855777Y-17450008D02*
X2846253Y-17459531D01*
X2846253Y-17459531D02*
X2827206Y-17488103D01*
X2827206Y-17488103D02*
X2817682Y-17526198D01*
X2817682Y-17526198D02*
X2817682Y-17602389D01*
X2817682Y-17602389D02*
X2827206Y-17621436D01*
X2827206Y-17621436D02*
X2836729Y-17630960D01*
X2836729Y-17630960D02*
X2855777Y-17640484D01*
X2855777Y-17640484D02*
X2893872Y-17640484D01*
X2893872Y-17640484D02*
X2912920Y-17630960D01*
X2912920Y-17630960D02*
X2922444Y-17621436D01*
X2922444Y-17621436D02*
X2931967Y-17602389D01*
X2931967Y-17602389D02*
X2931967Y-17554770D01*
X2931967Y-17554770D02*
X2922444Y-17535722D01*
X2922444Y-17535722D02*
X2912920Y-17526198D01*
X2912920Y-17526198D02*
X2893872Y-17516674D01*
X2893872Y-17516674D02*
X2855777Y-17516674D01*
X2855777Y-17516674D02*
X2836729Y-17526198D01*
X2836729Y-17526198D02*
X2827206Y-17535722D01*
X2827206Y-17535722D02*
X2817682Y-17554770D01*
X3055777Y-17440484D02*
X3074825Y-17440484D01*
X3074825Y-17440484D02*
X3093872Y-17450008D01*
X3093872Y-17450008D02*
X3103396Y-17459531D01*
X3103396Y-17459531D02*
X3112920Y-17478579D01*
X3112920Y-17478579D02*
X3122444Y-17516674D01*
X3122444Y-17516674D02*
X3122444Y-17564293D01*
X3122444Y-17564293D02*
X3112920Y-17602389D01*
X3112920Y-17602389D02*
X3103396Y-17621436D01*
X3103396Y-17621436D02*
X3093872Y-17630960D01*
X3093872Y-17630960D02*
X3074825Y-17640484D01*
X3074825Y-17640484D02*
X3055777Y-17640484D01*
X3055777Y-17640484D02*
X3036729Y-17630960D01*
X3036729Y-17630960D02*
X3027206Y-17621436D01*
X3027206Y-17621436D02*
X3017682Y-17602389D01*
X3017682Y-17602389D02*
X3008158Y-17564293D01*
X3008158Y-17564293D02*
X3008158Y-17516674D01*
X3008158Y-17516674D02*
X3017682Y-17478579D01*
X3017682Y-17478579D02*
X3027206Y-17459531D01*
X3027206Y-17459531D02*
X3036729Y-17450008D01*
X3036729Y-17450008D02*
X3055777Y-17440484D01*
X3198634Y-17440484D02*
X3198634Y-17478579D01*
X3274825Y-17440484D02*
X3274825Y-17478579D01*
X3570063Y-17716674D02*
X3560539Y-17707150D01*
X3560539Y-17707150D02*
X3541491Y-17678579D01*
X3541491Y-17678579D02*
X3531968Y-17659531D01*
X3531968Y-17659531D02*
X3522444Y-17630960D01*
X3522444Y-17630960D02*
X3512920Y-17583341D01*
X3512920Y-17583341D02*
X3512920Y-17545246D01*
X3512920Y-17545246D02*
X3522444Y-17497627D01*
X3522444Y-17497627D02*
X3531968Y-17469055D01*
X3531968Y-17469055D02*
X3541491Y-17450008D01*
X3541491Y-17450008D02*
X3560539Y-17421436D01*
X3560539Y-17421436D02*
X3570063Y-17411912D01*
X3731968Y-17440484D02*
X3693872Y-17440484D01*
X3693872Y-17440484D02*
X3674825Y-17450008D01*
X3674825Y-17450008D02*
X3665301Y-17459531D01*
X3665301Y-17459531D02*
X3646253Y-17488103D01*
X3646253Y-17488103D02*
X3636729Y-17526198D01*
X3636729Y-17526198D02*
X3636729Y-17602389D01*
X3636729Y-17602389D02*
X3646253Y-17621436D01*
X3646253Y-17621436D02*
X3655777Y-17630960D01*
X3655777Y-17630960D02*
X3674825Y-17640484D01*
X3674825Y-17640484D02*
X3712920Y-17640484D01*
X3712920Y-17640484D02*
X3731968Y-17630960D01*
X3731968Y-17630960D02*
X3741491Y-17621436D01*
X3741491Y-17621436D02*
X3751015Y-17602389D01*
X3751015Y-17602389D02*
X3751015Y-17554770D01*
X3751015Y-17554770D02*
X3741491Y-17535722D01*
X3741491Y-17535722D02*
X3731968Y-17526198D01*
X3731968Y-17526198D02*
X3712920Y-17516674D01*
X3712920Y-17516674D02*
X3674825Y-17516674D01*
X3674825Y-17516674D02*
X3655777Y-17526198D01*
X3655777Y-17526198D02*
X3646253Y-17535722D01*
X3646253Y-17535722D02*
X3636729Y-17554770D01*
X3989110Y-17640484D02*
X3989110Y-17440484D01*
X4074825Y-17640484D02*
X4074825Y-17535722D01*
X4074825Y-17535722D02*
X4065301Y-17516674D01*
X4065301Y-17516674D02*
X4046253Y-17507150D01*
X4046253Y-17507150D02*
X4017682Y-17507150D01*
X4017682Y-17507150D02*
X3998634Y-17516674D01*
X3998634Y-17516674D02*
X3989110Y-17526198D01*
X4198634Y-17640484D02*
X4179587Y-17630960D01*
X4179587Y-17630960D02*
X4170063Y-17621436D01*
X4170063Y-17621436D02*
X4160539Y-17602389D01*
X4160539Y-17602389D02*
X4160539Y-17545246D01*
X4160539Y-17545246D02*
X4170063Y-17526198D01*
X4170063Y-17526198D02*
X4179587Y-17516674D01*
X4179587Y-17516674D02*
X4198634Y-17507150D01*
X4198634Y-17507150D02*
X4227206Y-17507150D01*
X4227206Y-17507150D02*
X4246253Y-17516674D01*
X4246253Y-17516674D02*
X4255777Y-17526198D01*
X4255777Y-17526198D02*
X4265301Y-17545246D01*
X4265301Y-17545246D02*
X4265301Y-17602389D01*
X4265301Y-17602389D02*
X4255777Y-17621436D01*
X4255777Y-17621436D02*
X4246253Y-17630960D01*
X4246253Y-17630960D02*
X4227206Y-17640484D01*
X4227206Y-17640484D02*
X4198634Y-17640484D01*
X4379587Y-17640484D02*
X4360539Y-17630960D01*
X4360539Y-17630960D02*
X4351015Y-17611912D01*
X4351015Y-17611912D02*
X4351015Y-17440484D01*
X4531968Y-17630960D02*
X4512920Y-17640484D01*
X4512920Y-17640484D02*
X4474825Y-17640484D01*
X4474825Y-17640484D02*
X4455777Y-17630960D01*
X4455777Y-17630960D02*
X4446253Y-17611912D01*
X4446253Y-17611912D02*
X4446253Y-17535722D01*
X4446253Y-17535722D02*
X4455777Y-17516674D01*
X4455777Y-17516674D02*
X4474825Y-17507150D01*
X4474825Y-17507150D02*
X4512920Y-17507150D01*
X4512920Y-17507150D02*
X4531968Y-17516674D01*
X4531968Y-17516674D02*
X4541492Y-17535722D01*
X4541492Y-17535722D02*
X4541492Y-17554770D01*
X4541492Y-17554770D02*
X4446253Y-17573817D01*
X4617682Y-17630960D02*
X4636730Y-17640484D01*
X4636730Y-17640484D02*
X4674825Y-17640484D01*
X4674825Y-17640484D02*
X4693873Y-17630960D01*
X4693873Y-17630960D02*
X4703396Y-17611912D01*
X4703396Y-17611912D02*
X4703396Y-17602389D01*
X4703396Y-17602389D02*
X4693873Y-17583341D01*
X4693873Y-17583341D02*
X4674825Y-17573817D01*
X4674825Y-17573817D02*
X4646253Y-17573817D01*
X4646253Y-17573817D02*
X4627206Y-17564293D01*
X4627206Y-17564293D02*
X4617682Y-17545246D01*
X4617682Y-17545246D02*
X4617682Y-17535722D01*
X4617682Y-17535722D02*
X4627206Y-17516674D01*
X4627206Y-17516674D02*
X4646253Y-17507150D01*
X4646253Y-17507150D02*
X4674825Y-17507150D01*
X4674825Y-17507150D02*
X4693873Y-17516674D01*
X4770063Y-17716674D02*
X4779587Y-17707150D01*
X4779587Y-17707150D02*
X4798634Y-17678579D01*
X4798634Y-17678579D02*
X4808158Y-17659531D01*
X4808158Y-17659531D02*
X4817682Y-17630960D01*
X4817682Y-17630960D02*
X4827206Y-17583341D01*
X4827206Y-17583341D02*
X4827206Y-17545246D01*
X4827206Y-17545246D02*
X4817682Y-17497627D01*
X4817682Y-17497627D02*
X4808158Y-17469055D01*
X4808158Y-17469055D02*
X4798634Y-17450008D01*
X4798634Y-17450008D02*
X4779587Y-17421436D01*
X4779587Y-17421436D02*
X4770063Y-17411912D01*
X5131968Y-17716674D02*
X5122444Y-17707150D01*
X5122444Y-17707150D02*
X5103396Y-17678579D01*
X5103396Y-17678579D02*
X5093873Y-17659531D01*
X5093873Y-17659531D02*
X5084349Y-17630960D01*
X5084349Y-17630960D02*
X5074825Y-17583341D01*
X5074825Y-17583341D02*
X5074825Y-17545246D01*
X5074825Y-17545246D02*
X5084349Y-17497627D01*
X5084349Y-17497627D02*
X5093873Y-17469055D01*
X5093873Y-17469055D02*
X5103396Y-17450008D01*
X5103396Y-17450008D02*
X5122444Y-17421436D01*
X5122444Y-17421436D02*
X5131968Y-17411912D01*
X5208158Y-17507150D02*
X5208158Y-17640484D01*
X5208158Y-17526198D02*
X5217682Y-17516674D01*
X5217682Y-17516674D02*
X5236730Y-17507150D01*
X5236730Y-17507150D02*
X5265301Y-17507150D01*
X5265301Y-17507150D02*
X5284349Y-17516674D01*
X5284349Y-17516674D02*
X5293873Y-17535722D01*
X5293873Y-17535722D02*
X5293873Y-17640484D01*
X5417682Y-17640484D02*
X5398634Y-17630960D01*
X5398634Y-17630960D02*
X5389111Y-17621436D01*
X5389111Y-17621436D02*
X5379587Y-17602389D01*
X5379587Y-17602389D02*
X5379587Y-17545246D01*
X5379587Y-17545246D02*
X5389111Y-17526198D01*
X5389111Y-17526198D02*
X5398634Y-17516674D01*
X5398634Y-17516674D02*
X5417682Y-17507150D01*
X5417682Y-17507150D02*
X5446254Y-17507150D01*
X5446254Y-17507150D02*
X5465301Y-17516674D01*
X5465301Y-17516674D02*
X5474825Y-17526198D01*
X5474825Y-17526198D02*
X5484349Y-17545246D01*
X5484349Y-17545246D02*
X5484349Y-17602389D01*
X5484349Y-17602389D02*
X5474825Y-17621436D01*
X5474825Y-17621436D02*
X5465301Y-17630960D01*
X5465301Y-17630960D02*
X5446254Y-17640484D01*
X5446254Y-17640484D02*
X5417682Y-17640484D01*
X5541492Y-17507150D02*
X5617682Y-17507150D01*
X5570063Y-17440484D02*
X5570063Y-17611912D01*
X5570063Y-17611912D02*
X5579587Y-17630960D01*
X5579587Y-17630960D02*
X5598634Y-17640484D01*
X5598634Y-17640484D02*
X5617682Y-17640484D01*
X5836730Y-17507150D02*
X5836730Y-17707150D01*
X5836730Y-17516674D02*
X5855777Y-17507150D01*
X5855777Y-17507150D02*
X5893873Y-17507150D01*
X5893873Y-17507150D02*
X5912920Y-17516674D01*
X5912920Y-17516674D02*
X5922444Y-17526198D01*
X5922444Y-17526198D02*
X5931968Y-17545246D01*
X5931968Y-17545246D02*
X5931968Y-17602389D01*
X5931968Y-17602389D02*
X5922444Y-17621436D01*
X5922444Y-17621436D02*
X5912920Y-17630960D01*
X5912920Y-17630960D02*
X5893873Y-17640484D01*
X5893873Y-17640484D02*
X5855777Y-17640484D01*
X5855777Y-17640484D02*
X5836730Y-17630960D01*
X6046253Y-17640484D02*
X6027206Y-17630960D01*
X6027206Y-17630960D02*
X6017682Y-17611912D01*
X6017682Y-17611912D02*
X6017682Y-17440484D01*
X6208158Y-17640484D02*
X6208158Y-17535722D01*
X6208158Y-17535722D02*
X6198634Y-17516674D01*
X6198634Y-17516674D02*
X6179587Y-17507150D01*
X6179587Y-17507150D02*
X6141492Y-17507150D01*
X6141492Y-17507150D02*
X6122444Y-17516674D01*
X6208158Y-17630960D02*
X6189111Y-17640484D01*
X6189111Y-17640484D02*
X6141492Y-17640484D01*
X6141492Y-17640484D02*
X6122444Y-17630960D01*
X6122444Y-17630960D02*
X6112920Y-17611912D01*
X6112920Y-17611912D02*
X6112920Y-17592865D01*
X6112920Y-17592865D02*
X6122444Y-17573817D01*
X6122444Y-17573817D02*
X6141492Y-17564293D01*
X6141492Y-17564293D02*
X6189111Y-17564293D01*
X6189111Y-17564293D02*
X6208158Y-17554770D01*
X6274825Y-17507150D02*
X6351015Y-17507150D01*
X6303396Y-17440484D02*
X6303396Y-17611912D01*
X6303396Y-17611912D02*
X6312920Y-17630960D01*
X6312920Y-17630960D02*
X6331968Y-17640484D01*
X6331968Y-17640484D02*
X6351015Y-17640484D01*
X6493873Y-17630960D02*
X6474825Y-17640484D01*
X6474825Y-17640484D02*
X6436730Y-17640484D01*
X6436730Y-17640484D02*
X6417682Y-17630960D01*
X6417682Y-17630960D02*
X6408158Y-17611912D01*
X6408158Y-17611912D02*
X6408158Y-17535722D01*
X6408158Y-17535722D02*
X6417682Y-17516674D01*
X6417682Y-17516674D02*
X6436730Y-17507150D01*
X6436730Y-17507150D02*
X6474825Y-17507150D01*
X6474825Y-17507150D02*
X6493873Y-17516674D01*
X6493873Y-17516674D02*
X6503396Y-17535722D01*
X6503396Y-17535722D02*
X6503396Y-17554770D01*
X6503396Y-17554770D02*
X6408158Y-17573817D01*
X6674825Y-17640484D02*
X6674825Y-17440484D01*
X6674825Y-17630960D02*
X6655777Y-17640484D01*
X6655777Y-17640484D02*
X6617682Y-17640484D01*
X6617682Y-17640484D02*
X6598634Y-17630960D01*
X6598634Y-17630960D02*
X6589111Y-17621436D01*
X6589111Y-17621436D02*
X6579587Y-17602389D01*
X6579587Y-17602389D02*
X6579587Y-17545246D01*
X6579587Y-17545246D02*
X6589111Y-17526198D01*
X6589111Y-17526198D02*
X6598634Y-17516674D01*
X6598634Y-17516674D02*
X6617682Y-17507150D01*
X6617682Y-17507150D02*
X6655777Y-17507150D01*
X6655777Y-17507150D02*
X6674825Y-17516674D01*
X6751015Y-17716674D02*
X6760539Y-17707150D01*
X6760539Y-17707150D02*
X6779587Y-17678579D01*
X6779587Y-17678579D02*
X6789111Y-17659531D01*
X6789111Y-17659531D02*
X6798634Y-17630960D01*
X6798634Y-17630960D02*
X6808158Y-17583341D01*
X6808158Y-17583341D02*
X6808158Y-17545246D01*
X6808158Y-17545246D02*
X6798634Y-17497627D01*
X6798634Y-17497627D02*
X6789111Y-17469055D01*
X6789111Y-17469055D02*
X6779587Y-17450008D01*
X6779587Y-17450008D02*
X6760539Y-17421436D01*
X6760539Y-17421436D02*
X6751015Y-17411912D01*
M02*
