M48
; DRILL file {KiCad 7.0.7} date 2024 February 22, Thursday 12:48:14
; FORMAT={-:-/ absolute / metric / decimal}
; #@! TF.CreationDate,2024-02-22T12:48:14+00:00
; #@! TF.GenerationSoftware,Kicad,Pcbnew,7.0.7
; #@! TF.FileFunction,MixedPlating,1,2
FMAT,2
METRIC
; #@! TA.AperFunction,Plated,PTH,ViaDrill
T1C0.400
; #@! TA.AperFunction,Plated,PTH,ComponentDrill
T2C0.500
; #@! TA.AperFunction,Plated,PTH,ComponentDrill
T3C1.000
; #@! TA.AperFunction,Plated,PTH,ComponentDrill
T4C1.016
; #@! TA.AperFunction,Plated,PTH,ComponentDrill
T5C1.200
; #@! TA.AperFunction,Plated,PTH,ComponentDrill
T6C1.300
; #@! TA.AperFunction,Plated,PTH,ComponentDrill
T7C3.200
; #@! TA.AperFunction,NonPlated,NPTH,ComponentDrill
T8C3.200
%
G90
G05
T1
X18.0Y-45.5
X20.5Y-44.0
X25.0Y-75.5
X26.0Y-75.0
X26.0Y-76.0
X27.0Y-75.0
X27.0Y-76.0
X28.0Y-75.0
X28.0Y-76.0
X29.0Y-75.0
X29.0Y-76.0
X30.0Y-75.5
X34.0Y-46.0
X36.0Y-44.0
X48.0Y-46.0
X50.5Y-44.5
X62.0Y-46.0
X64.5Y-44.0
X78.0Y-45.5
X80.5Y-43.5
X94.0Y-22.0
X94.0Y-23.0
X95.0Y-21.0
X95.0Y-22.0
X95.0Y-23.0
X96.0Y-20.0
X96.0Y-21.0
X96.0Y-22.0
X97.0Y-19.0
X97.0Y-20.0
X97.0Y-21.0
X98.0Y-19.0
X98.0Y-20.0
X102.0Y-45.5
X104.5Y-42.5
X105.0Y-11.0
X105.0Y-12.0
X106.0Y-10.0
X106.0Y-11.0
X106.0Y-12.0
X107.0Y-9.0
X107.0Y-10.0
X107.0Y-11.0
X108.0Y-8.0
X108.0Y-9.0
X108.0Y-10.0
X109.0Y-8.0
X109.0Y-9.0
X120.0Y-94.0
X121.0Y-93.5
X121.0Y-94.5
X122.0Y-93.5
X122.0Y-94.5
X122.996Y-94.477
X123.0Y-93.5
X124.0Y-93.5
X124.0Y-94.5
X125.0Y-94.0
X147.0Y-68.0
X147.0Y-77.0
X147.0Y-87.5
X147.0Y-95.0
X162.5Y-52.5
X162.5Y-62.5
X162.5Y-73.0
X162.5Y-82.5
T2
X2.6Y-5.0
X2.6Y-75.0
X2.6Y-145.0
X3.303Y-3.303
X3.303Y-6.697
X3.303Y-73.303
X3.303Y-76.697
X3.303Y-143.303
X3.303Y-146.697
X5.0Y-2.6
X5.0Y-7.4
X5.0Y-72.6
X5.0Y-77.4
X5.0Y-142.6
X5.0Y-147.4
X6.697Y-3.303
X6.697Y-6.697
X6.697Y-73.303
X6.697Y-76.697
X6.697Y-143.303
X6.697Y-146.697
X7.4Y-5.0
X7.4Y-75.0
X7.4Y-145.0
X97.6Y-5.0
X97.6Y-75.0
X97.6Y-145.0
X98.303Y-3.303
X98.303Y-6.697
X98.303Y-73.303
X98.303Y-76.697
X98.303Y-143.303
X98.303Y-146.697
X100.0Y-2.6
X100.0Y-7.4
X100.0Y-72.6
X100.0Y-77.4
X100.0Y-142.6
X100.0Y-147.4
X101.697Y-3.303
X101.697Y-6.697
X101.697Y-73.303
X101.697Y-76.697
X101.697Y-143.303
X101.697Y-146.697
X102.4Y-5.0
X102.4Y-75.0
X102.4Y-145.0
X112.6Y-5.0
X112.6Y-35.0
X113.303Y-3.303
X113.303Y-6.697
X113.303Y-33.303
X113.303Y-36.697
X115.0Y-2.6
X115.0Y-7.4
X115.0Y-32.6
X115.0Y-37.4
X116.697Y-3.303
X116.697Y-6.697
X116.697Y-33.303
X116.697Y-36.697
X117.4Y-5.0
X117.4Y-35.0
X142.6Y-5.0
X142.6Y-35.0
X143.303Y-3.303
X143.303Y-6.697
X143.303Y-33.303
X143.303Y-36.697
X145.0Y-2.6
X145.0Y-7.4
X145.0Y-32.6
X145.0Y-37.4
X146.697Y-3.303
X146.697Y-6.697
X146.697Y-33.303
X146.697Y-36.697
X147.4Y-5.0
X147.4Y-35.0
X152.6Y-5.0
X152.6Y-45.0
X153.303Y-3.303
X153.303Y-6.697
X153.303Y-43.303
X153.303Y-46.697
X155.0Y-2.6
X155.0Y-7.4
X155.0Y-42.6
X155.0Y-47.4
X156.697Y-3.303
X156.697Y-6.697
X156.697Y-43.303
X156.697Y-46.697
X157.4Y-5.0
X157.4Y-45.0
X192.6Y-5.0
X192.6Y-45.0
X192.6Y-75.0
X192.6Y-145.0
X193.303Y-3.303
X193.303Y-6.697
X193.303Y-43.303
X193.303Y-46.697
X193.303Y-73.303
X193.303Y-76.697
X193.303Y-143.303
X193.303Y-146.697
X195.0Y-2.6
X195.0Y-7.4
X195.0Y-42.6
X195.0Y-47.4
X195.0Y-72.6
X195.0Y-77.4
X195.0Y-142.6
X195.0Y-147.4
X196.697Y-3.303
X196.697Y-6.697
X196.697Y-43.303
X196.697Y-46.697
X196.697Y-73.303
X196.697Y-76.697
X196.697Y-143.303
X196.697Y-146.697
X197.4Y-5.0
X197.4Y-45.0
X197.4Y-75.0
X197.4Y-145.0
T3
X4.87Y-16.27
X4.87Y-18.81
X4.87Y-21.35
X12.87Y-8.65
X12.87Y-11.19
X12.87Y-13.73
X12.87Y-16.27
X12.87Y-18.81
X12.87Y-21.35
X12.87Y-38.65
X12.87Y-41.19
X12.87Y-43.73
X12.87Y-46.27
X12.87Y-48.81
X12.87Y-51.35
X15.5Y-142.5
X15.5Y-145.04
X27.87Y-38.65
X27.87Y-41.19
X27.87Y-43.73
X27.87Y-46.27
X27.87Y-48.81
X27.87Y-51.35
X28.0Y-8.65
X28.0Y-11.19
X28.0Y-13.73
X28.0Y-16.27
X28.0Y-18.81
X28.0Y-21.35
X42.87Y-38.65
X42.87Y-41.19
X42.87Y-43.73
X42.87Y-46.27
X42.87Y-48.81
X42.87Y-51.35
X43.0Y-8.65
X43.0Y-11.19
X43.0Y-13.73
X43.0Y-16.27
X43.0Y-18.81
X43.0Y-21.35
X57.87Y-38.65
X57.87Y-41.19
X57.87Y-43.73
X57.87Y-46.27
X57.87Y-48.81
X57.87Y-51.35
X58.0Y-8.65
X58.0Y-11.19
X58.0Y-13.73
X58.0Y-16.27
X58.0Y-18.81
X58.0Y-21.35
X72.87Y-38.65
X72.87Y-41.19
X72.87Y-43.73
X72.87Y-46.27
X72.87Y-48.81
X72.87Y-51.35
X73.0Y-8.65
X73.0Y-11.19
X73.0Y-13.73
X73.0Y-16.27
X73.0Y-18.81
X73.0Y-21.35
X87.87Y-38.65
X87.87Y-41.19
X87.87Y-43.73
X87.87Y-46.27
X87.87Y-48.81
X87.87Y-51.35
X88.0Y-8.65
X88.0Y-11.19
X88.0Y-13.73
X88.0Y-16.27
X88.0Y-18.81
X88.0Y-21.35
X124.92Y-46.35
X124.92Y-48.89
X124.92Y-56.51
X124.92Y-59.05
X124.92Y-66.67
X124.92Y-69.21
X124.92Y-76.83
X124.92Y-79.37
X127.46Y-46.35
X127.46Y-48.89
X127.46Y-56.51
X127.46Y-59.05
X127.46Y-66.67
X127.46Y-69.21
X127.46Y-76.83
X127.46Y-79.37
X130.0Y-46.35
X130.0Y-48.89
X130.0Y-56.51
X130.0Y-59.05
X130.0Y-66.67
X130.0Y-69.21
X130.0Y-76.83
X130.0Y-79.37
X132.54Y-46.35
X132.54Y-48.89
X132.54Y-56.51
X132.54Y-59.05
X132.54Y-66.67
X132.54Y-69.21
X132.54Y-76.83
X132.54Y-79.37
X135.08Y-46.35
X135.08Y-48.89
X135.08Y-56.51
X135.08Y-59.05
X135.08Y-66.67
X135.08Y-69.21
X135.08Y-76.83
X135.08Y-79.37
X152.5Y-103.92
X152.5Y-106.46
X152.5Y-109.0
X152.5Y-111.54
X169.92Y-56.35
X169.92Y-58.89
X169.92Y-66.51
X169.92Y-69.05
X169.92Y-76.67
X169.92Y-79.21
X169.92Y-86.83
X169.92Y-89.37
X172.46Y-56.35
X172.46Y-58.89
X172.46Y-66.51
X172.46Y-69.05
X172.46Y-76.67
X172.46Y-79.21
X172.46Y-86.83
X172.46Y-89.37
X175.0Y-56.35
X175.0Y-58.89
X175.0Y-66.51
X175.0Y-69.05
X175.0Y-76.67
X175.0Y-79.21
X175.0Y-86.83
X175.0Y-89.37
X177.54Y-56.35
X177.54Y-58.89
X177.54Y-66.51
X177.54Y-69.05
X177.54Y-76.67
X177.54Y-79.21
X177.54Y-86.83
X177.54Y-89.37
X180.08Y-56.35
X180.08Y-58.89
X180.08Y-66.51
X180.08Y-69.05
X180.08Y-76.67
X180.08Y-79.21
X180.08Y-86.83
X180.08Y-89.37
T4
X16.11Y-89.95
X16.11Y-92.49
X16.11Y-95.03
X16.11Y-97.57
X16.11Y-100.11
X16.11Y-102.65
X16.11Y-105.19
X16.11Y-107.73
X16.11Y-110.27
X16.11Y-112.81
X16.11Y-115.35
X16.11Y-117.89
X16.11Y-120.43
X16.11Y-122.97
X16.11Y-125.51
X16.11Y-128.05
X16.11Y-130.59
X16.11Y-133.13
X18.65Y-89.95
X18.65Y-92.49
X18.65Y-95.03
X18.65Y-97.57
X18.65Y-100.11
X18.65Y-102.65
X18.65Y-105.19
X18.65Y-107.73
X18.65Y-110.27
X18.65Y-112.81
X18.65Y-115.35
X18.65Y-117.89
X18.65Y-120.43
X18.65Y-122.97
X18.65Y-125.51
X18.65Y-128.05
X18.65Y-130.59
X18.65Y-133.13
X21.19Y-84.87
X23.73Y-84.87
X26.27Y-84.87
X26.27Y-133.13
X28.81Y-84.87
X28.81Y-133.13
X31.35Y-84.87
X31.35Y-133.13
X33.89Y-84.87
X33.89Y-133.13
X36.43Y-84.87
X36.43Y-133.13
X38.97Y-84.87
X38.97Y-133.13
X41.51Y-133.13
X44.05Y-84.87
X44.05Y-133.13
X46.463Y-107.73
X46.463Y-110.27
X46.463Y-112.81
X46.59Y-84.87
X49.003Y-107.73
X49.003Y-110.27
X49.003Y-112.81
X49.13Y-84.87
X49.13Y-133.13
X51.67Y-84.87
X51.67Y-133.13
X54.21Y-84.87
X54.21Y-133.13
X56.75Y-84.87
X56.75Y-133.13
X59.29Y-84.87
X59.29Y-133.13
X61.83Y-84.87
X61.83Y-133.13
X64.37Y-133.13
X66.91Y-84.87
X66.91Y-133.13
X69.45Y-84.87
X70.974Y-133.13
X71.99Y-84.87
X73.514Y-133.13
X74.53Y-84.87
X76.054Y-133.13
X77.07Y-84.87
X78.594Y-133.13
X79.61Y-84.87
X81.134Y-133.13
X82.15Y-84.87
X83.674Y-133.13
X84.69Y-84.87
X86.214Y-133.13
X88.754Y-133.13
X91.294Y-133.13
X93.834Y-133.13
T5
X147.0Y-120.84
X147.0Y-131.0
X147.0Y-141.16
X167.32Y-128.46
X167.32Y-133.54
X167.32Y-141.16
T6
X193.695Y-128.455
X193.695Y-133.535
T7
X5.0Y-5.0
X5.0Y-75.0
X5.0Y-145.0
X100.0Y-5.0
X100.0Y-75.0
X100.0Y-145.0
X115.0Y-5.0
X115.0Y-35.0
X145.0Y-5.0
X145.0Y-35.0
X155.0Y-5.0
X155.0Y-45.0
X195.0Y-5.0
X195.0Y-45.0
X195.0Y-75.0
X195.0Y-145.0
T8
X16.11Y-84.87
X22.46Y-133.13
X46.59Y-89.95
X46.59Y-117.89
X97.39Y-133.13
X98.66Y-84.87
T0
M30
