%TF.GenerationSoftware,KiCad,Pcbnew,7.0.7*%
%TF.CreationDate,2024-02-22T12:37:55+00:00*%
%TF.ProjectId,massFlowControllerInterface_rev0,6d617373-466c-46f7-9743-6f6e74726f6c,rev?*%
%TF.SameCoordinates,Original*%
%TF.FileFunction,Soldermask,Bot*%
%TF.FilePolarity,Negative*%
%FSLAX46Y46*%
G04 Gerber Fmt 4.6, Leading zero omitted, Abs format (unit mm)*
G04 Created by KiCad (PCBNEW 7.0.7) date 2024-02-22 12:37:55*
%MOMM*%
%LPD*%
G01*
G04 APERTURE LIST*
%ADD10C,1.600000*%
%ADD11R,1.600000X1.600000*%
%ADD12O,1.600000X1.600000*%
%ADD13R,1.700000X1.700000*%
%ADD14O,1.700000X1.700000*%
%ADD15C,0.800000*%
%ADD16C,6.400000*%
G04 APERTURE END LIST*
D10*
%TO.C,J2*%
X13510000Y-3500000D03*
X16050000Y-3500000D03*
X18590000Y-3500000D03*
X21130000Y-3500000D03*
X23670000Y-3500000D03*
X26210000Y-3500000D03*
X28750000Y-3500000D03*
X31290000Y-3500000D03*
X33830000Y-3500000D03*
X36370000Y-3500000D03*
%TD*%
%TO.C,J4*%
X35000000Y-46190000D03*
X37540000Y-46190000D03*
%TD*%
D11*
%TO.C,U1*%
X7880000Y-24500000D03*
D12*
X10420000Y-24500000D03*
X12960000Y-24500000D03*
X15500000Y-24500000D03*
X15500000Y-16880000D03*
X12960000Y-16880000D03*
X10420000Y-16880000D03*
X7880000Y-16880000D03*
%TD*%
D13*
%TO.C,J1*%
X19920000Y-47460000D03*
D14*
X19920000Y-44920000D03*
X22460000Y-47460000D03*
X22460000Y-44920000D03*
X25000000Y-47460000D03*
X25000000Y-44920000D03*
X27540000Y-47460000D03*
X27540000Y-44920000D03*
X30080000Y-47460000D03*
X30080000Y-44920000D03*
%TD*%
D15*
%TO.C,H4*%
X2600000Y-45000000D03*
X3302944Y-43302944D03*
X3302944Y-46697056D03*
X5000000Y-42600000D03*
D16*
X5000000Y-45000000D03*
D15*
X5000000Y-47400000D03*
X6697056Y-43302944D03*
X6697056Y-46697056D03*
X7400000Y-45000000D03*
%TD*%
D13*
%TO.C,J3*%
X42460000Y-29000000D03*
D14*
X45000000Y-29000000D03*
X47540000Y-29000000D03*
%TD*%
D15*
%TO.C,H1*%
X2600000Y-5000000D03*
X3302944Y-3302944D03*
X3302944Y-6697056D03*
X5000000Y-2600000D03*
D16*
X5000000Y-5000000D03*
D15*
X5000000Y-7400000D03*
X6697056Y-3302944D03*
X6697056Y-6697056D03*
X7400000Y-5000000D03*
%TD*%
%TO.C,H2*%
X42600000Y-5000000D03*
X43302944Y-3302944D03*
X43302944Y-6697056D03*
X45000000Y-2600000D03*
D16*
X45000000Y-5000000D03*
D15*
X45000000Y-7400000D03*
X46697056Y-3302944D03*
X46697056Y-6697056D03*
X47400000Y-5000000D03*
%TD*%
D13*
%TO.C,J5*%
X42420000Y-36500000D03*
D14*
X44960000Y-36500000D03*
X47500000Y-36500000D03*
%TD*%
D15*
%TO.C,H3*%
X42600000Y-45000000D03*
X43302944Y-43302944D03*
X43302944Y-46697056D03*
X45000000Y-42600000D03*
D16*
X45000000Y-45000000D03*
D15*
X45000000Y-47400000D03*
X46697056Y-43302944D03*
X46697056Y-46697056D03*
X47400000Y-45000000D03*
%TD*%
M02*
