%TF.GenerationSoftware,KiCad,Pcbnew,7.0.7*%
%TF.CreationDate,2024-02-22T12:37:54+00:00*%
%TF.ProjectId,massFlowControllerInterface_rev0,6d617373-466c-46f7-9743-6f6e74726f6c,rev?*%
%TF.SameCoordinates,Original*%
%TF.FileFunction,Copper,L1,Top*%
%TF.FilePolarity,Positive*%
%FSLAX46Y46*%
G04 Gerber Fmt 4.6, Leading zero omitted, Abs format (unit mm)*
G04 Created by KiCad (PCBNEW 7.0.7) date 2024-02-22 12:37:54*
%MOMM*%
%LPD*%
G01*
G04 APERTURE LIST*
G04 Aperture macros list*
%AMRoundRect*
0 Rectangle with rounded corners*
0 $1 Rounding radius*
0 $2 $3 $4 $5 $6 $7 $8 $9 X,Y pos of 4 corners*
0 Add a 4 corners polygon primitive as box body*
4,1,4,$2,$3,$4,$5,$6,$7,$8,$9,$2,$3,0*
0 Add four circle primitives for the rounded corners*
1,1,$1+$1,$2,$3*
1,1,$1+$1,$4,$5*
1,1,$1+$1,$6,$7*
1,1,$1+$1,$8,$9*
0 Add four rect primitives between the rounded corners*
20,1,$1+$1,$2,$3,$4,$5,0*
20,1,$1+$1,$4,$5,$6,$7,0*
20,1,$1+$1,$6,$7,$8,$9,0*
20,1,$1+$1,$8,$9,$2,$3,0*%
G04 Aperture macros list end*
%TA.AperFunction,ComponentPad*%
%ADD10C,1.600000*%
%TD*%
%TA.AperFunction,SMDPad,CuDef*%
%ADD11RoundRect,0.249999X-0.450001X-1.075001X0.450001X-1.075001X0.450001X1.075001X-0.450001X1.075001X0*%
%TD*%
%TA.AperFunction,ComponentPad*%
%ADD12R,1.600000X1.600000*%
%TD*%
%TA.AperFunction,ComponentPad*%
%ADD13O,1.600000X1.600000*%
%TD*%
%TA.AperFunction,ComponentPad*%
%ADD14R,1.700000X1.700000*%
%TD*%
%TA.AperFunction,ComponentPad*%
%ADD15O,1.700000X1.700000*%
%TD*%
%TA.AperFunction,ComponentPad*%
%ADD16C,0.800000*%
%TD*%
%TA.AperFunction,ComponentPad*%
%ADD17C,6.400000*%
%TD*%
%TA.AperFunction,SMDPad,CuDef*%
%ADD18RoundRect,0.249999X0.450001X1.075001X-0.450001X1.075001X-0.450001X-1.075001X0.450001X-1.075001X0*%
%TD*%
%TA.AperFunction,SMDPad,CuDef*%
%ADD19RoundRect,0.250000X-0.337500X-0.475000X0.337500X-0.475000X0.337500X0.475000X-0.337500X0.475000X0*%
%TD*%
%TA.AperFunction,SMDPad,CuDef*%
%ADD20RoundRect,0.249999X1.075001X-0.450001X1.075001X0.450001X-1.075001X0.450001X-1.075001X-0.450001X0*%
%TD*%
%TA.AperFunction,ViaPad*%
%ADD21C,0.800000*%
%TD*%
%TA.AperFunction,Conductor*%
%ADD22C,0.500000*%
%TD*%
%TA.AperFunction,Conductor*%
%ADD23C,1.500000*%
%TD*%
%TA.AperFunction,Conductor*%
%ADD24C,0.750000*%
%TD*%
G04 APERTURE END LIST*
D10*
%TO.P,J2,1,Pin_1*%
%TO.N,unconnected-(J2-Pin_1-Pad1)*%
X13510000Y-3500000D03*
%TO.P,J2,2,Pin_2*%
%TO.N,MFC_actual*%
X16050000Y-3500000D03*
%TO.P,J2,3,Pin_3*%
%TO.N,24VDC_HOT*%
X18590000Y-3500000D03*
%TO.P,J2,4,Pin_4*%
%TO.N,unconnected-(J2-Pin_4-Pad4)*%
X21130000Y-3500000D03*
%TO.P,J2,5,Pin_5*%
%TO.N,24VDC_GND*%
X23670000Y-3500000D03*
%TO.P,J2,6,Pin_6*%
%TO.N,MFC_setpoint*%
X26210000Y-3500000D03*
%TO.P,J2,7,Pin_7*%
%TO.N,arduino_GND*%
X28750000Y-3500000D03*
%TO.P,J2,8,Pin_8*%
%TO.N,MFC_serialTX*%
X31290000Y-3500000D03*
%TO.P,J2,9,Pin_9*%
%TO.N,MFC_serialRX*%
X33830000Y-3500000D03*
%TO.P,J2,10,Pin_10*%
%TO.N,unconnected-(J2-Pin_10-Pad10)*%
X36370000Y-3500000D03*
%TD*%
%TO.P,J4,1,Pin_1*%
%TO.N,MFC_serialTX*%
X35000000Y-46190000D03*
%TO.P,J4,2,Pin_2*%
%TO.N,MFC_serialRX*%
X37540000Y-46190000D03*
%TD*%
D11*
%TO.P,R3,1*%
%TO.N,MFC_actual*%
X40500000Y-14000000D03*
%TO.P,R3,2*%
%TO.N,MFC_actual_divided*%
X45300000Y-14000000D03*
%TD*%
D12*
%TO.P,U1,1,BAL*%
%TO.N,unconnected-(U1-BAL-Pad1)*%
X7880000Y-24500000D03*
D13*
%TO.P,U1,2,-*%
%TO.N,Net-(U1--)*%
X10420000Y-24500000D03*
%TO.P,U1,3,+*%
%TO.N,MFC_setpoint_filtered*%
X12960000Y-24500000D03*
%TO.P,U1,4,V-*%
%TO.N,24VDC_GND*%
X15500000Y-24500000D03*
%TO.P,U1,5,COMP*%
%TO.N,unconnected-(U1-COMP-Pad5)*%
X15500000Y-16880000D03*
%TO.P,U1,6*%
%TO.N,MFC_setpoint_amplified*%
X12960000Y-16880000D03*
%TO.P,U1,7,V+*%
%TO.N,24VDC_HOT*%
X10420000Y-16880000D03*
%TO.P,U1,8,C/B*%
%TO.N,unconnected-(U1-C{slash}B-Pad8)*%
X7880000Y-16880000D03*
%TD*%
D14*
%TO.P,J1,1,Pin_1*%
%TO.N,24VDC_HOT*%
X19920000Y-47460000D03*
D15*
%TO.P,J1,2,Pin_2*%
%TO.N,MFC_setpoint_arduino*%
X19920000Y-44920000D03*
%TO.P,J1,3,Pin_3*%
%TO.N,24VDC_HOT*%
X22460000Y-47460000D03*
%TO.P,J1,4,Pin_4*%
%TO.N,arduino_GND*%
X22460000Y-44920000D03*
%TO.P,J1,5,Pin_5*%
%TO.N,24VDC_GND*%
X25000000Y-47460000D03*
%TO.P,J1,6,Pin_6*%
%TO.N,MFC_actual_arduino*%
X25000000Y-44920000D03*
%TO.P,J1,7,Pin_7*%
%TO.N,24VDC_GND*%
X27540000Y-47460000D03*
%TO.P,J1,8,Pin_8*%
%TO.N,MFC_serialRX*%
X27540000Y-44920000D03*
%TO.P,J1,9,Pin_9*%
%TO.N,unconnected-(J1-Pin_9-Pad9)*%
X30080000Y-47460000D03*
%TO.P,J1,10,Pin_10*%
%TO.N,MFC_serialTX*%
X30080000Y-44920000D03*
%TD*%
D16*
%TO.P,H4,1,1*%
%TO.N,24VDC_GND*%
X2600000Y-45000000D03*
X3302944Y-43302944D03*
X3302944Y-46697056D03*
X5000000Y-42600000D03*
D17*
X5000000Y-45000000D03*
D16*
X5000000Y-47400000D03*
X6697056Y-43302944D03*
X6697056Y-46697056D03*
X7400000Y-45000000D03*
%TD*%
D14*
%TO.P,J3,1,Pin_1*%
%TO.N,MFC_setpoint_amplified*%
X42460000Y-29000000D03*
D15*
%TO.P,J3,2,Pin_2*%
%TO.N,MFC_setpoint*%
X45000000Y-29000000D03*
%TO.P,J3,3,Pin_3*%
%TO.N,MFC_setpoint_filtered*%
X47540000Y-29000000D03*
%TD*%
D11*
%TO.P,R1,1*%
%TO.N,Net-(U1--)*%
X22700000Y-18000000D03*
%TO.P,R1,2*%
%TO.N,MFC_setpoint_amplified*%
X27500000Y-18000000D03*
%TD*%
%TO.P,R2,1*%
%TO.N,Net-(U1--)*%
X22700000Y-23000000D03*
%TO.P,R2,2*%
%TO.N,arduino_GND*%
X27500000Y-23000000D03*
%TD*%
D18*
%TO.P,R4,1*%
%TO.N,MFC_actual_divided*%
X45300000Y-20500000D03*
%TO.P,R4,2*%
%TO.N,arduino_GND*%
X40500000Y-20500000D03*
%TD*%
D19*
%TO.P,C1,1*%
%TO.N,MFC_setpoint_filtered*%
X23925000Y-30000000D03*
%TO.P,C1,2*%
%TO.N,arduino_GND*%
X26000000Y-30000000D03*
%TD*%
D16*
%TO.P,H1,1,1*%
%TO.N,24VDC_GND*%
X2600000Y-5000000D03*
X3302944Y-3302944D03*
X3302944Y-6697056D03*
X5000000Y-2600000D03*
D17*
X5000000Y-5000000D03*
D16*
X5000000Y-7400000D03*
X6697056Y-3302944D03*
X6697056Y-6697056D03*
X7400000Y-5000000D03*
%TD*%
D20*
%TO.P,R5,1*%
%TO.N,MFC_setpoint_arduino*%
X24000000Y-38900000D03*
%TO.P,R5,2*%
%TO.N,MFC_setpoint_filtered*%
X24000000Y-34100000D03*
%TD*%
D16*
%TO.P,H2,1,1*%
%TO.N,24VDC_GND*%
X42600000Y-5000000D03*
X43302944Y-3302944D03*
X43302944Y-6697056D03*
X45000000Y-2600000D03*
D17*
X45000000Y-5000000D03*
D16*
X45000000Y-7400000D03*
X46697056Y-3302944D03*
X46697056Y-6697056D03*
X47400000Y-5000000D03*
%TD*%
D14*
%TO.P,J5,1,Pin_1*%
%TO.N,MFC_actual*%
X42420000Y-36500000D03*
D15*
%TO.P,J5,2,Pin_2*%
%TO.N,MFC_actual_arduino*%
X44960000Y-36500000D03*
%TO.P,J5,3,Pin_3*%
%TO.N,MFC_actual_divided*%
X47500000Y-36500000D03*
%TD*%
D16*
%TO.P,H3,1,1*%
%TO.N,24VDC_GND*%
X42600000Y-45000000D03*
X43302944Y-43302944D03*
X43302944Y-46697056D03*
X45000000Y-42600000D03*
D17*
X45000000Y-45000000D03*
D16*
X45000000Y-47400000D03*
X46697056Y-43302944D03*
X46697056Y-46697056D03*
X47400000Y-45000000D03*
%TD*%
D21*
%TO.N,24VDC_GND*%
X15000000Y-10500000D03*
X30500000Y-7000000D03*
X6000000Y-11500000D03*
X13500000Y-12500000D03*
X5000000Y-12500000D03*
X7000000Y-12500000D03*
X15000000Y-12500000D03*
X13500000Y-10500000D03*
X7000000Y-10500000D03*
X38500000Y-7000000D03*
X5000000Y-10500000D03*
X12500000Y-11500000D03*
X4000000Y-11500000D03*
X16000000Y-11500000D03*
X14500000Y-11500000D03*
X8000000Y-11500000D03*
%TO.N,MFC_serialTX*%
X36500000Y-23000000D03*
X36500000Y-19000000D03*
%TO.N,MFC_serialRX*%
X37500000Y-23000000D03*
X37500000Y-19000000D03*
%TO.N,arduino_GND*%
X27500000Y-23000000D03*
X26000000Y-30000000D03*
X40500000Y-20500000D03*
%TO.N,MFC_actual*%
X40500000Y-14000000D03*
%TO.N,MFC_actual_divided*%
X45500000Y-20500000D03*
%TD*%
D22*
%TO.N,24VDC_GND*%
X30500000Y-7000000D02*
X38500000Y-7000000D01*
D23*
%TO.N,24VDC_HOT*%
X10420000Y-18080000D02*
X5000000Y-23500000D01*
X10420000Y-16880000D02*
X10420000Y-18080000D01*
X10460000Y-47460000D02*
X22460000Y-47460000D01*
X5000000Y-37500000D02*
X9500000Y-42000000D01*
X10420000Y-3580000D02*
X12500000Y-1500000D01*
X12500000Y-1500000D02*
X18500000Y-1500000D01*
X5000000Y-23500000D02*
X5000000Y-37500000D01*
X18590000Y-1590000D02*
X18590000Y-3500000D01*
X18500000Y-1500000D02*
X18590000Y-1590000D01*
X9500000Y-46500000D02*
X10460000Y-47460000D01*
X10420000Y-16880000D02*
X10420000Y-3580000D01*
X9500000Y-42000000D02*
X9500000Y-46500000D01*
D22*
%TO.N,MFC_serialTX*%
X36500000Y-19000000D02*
X36500000Y-23000000D01*
X30080000Y-44920000D02*
X33730000Y-44920000D01*
X33730000Y-44920000D02*
X35000000Y-46190000D01*
%TO.N,MFC_serialRX*%
X37540000Y-44040000D02*
X37540000Y-46190000D01*
X27540000Y-44920000D02*
X29460000Y-43000000D01*
X36500000Y-43000000D02*
X37540000Y-44040000D01*
X29460000Y-43000000D02*
X36500000Y-43000000D01*
X37500000Y-19000000D02*
X37500000Y-23000000D01*
%TO.N,MFC_setpoint_arduino*%
X19920000Y-43580000D02*
X24000000Y-39500000D01*
X24000000Y-39500000D02*
X24000000Y-38900000D01*
X19920000Y-44920000D02*
X19920000Y-43580000D01*
%TO.N,MFC_actual_arduino*%
X27920000Y-42000000D02*
X30000000Y-42000000D01*
X30000000Y-42000000D02*
X41000000Y-42000000D01*
X25000000Y-44920000D02*
X27920000Y-42000000D01*
X44960000Y-38040000D02*
X44960000Y-36500000D01*
X41000000Y-42000000D02*
X44960000Y-38040000D01*
%TO.N,MFC_actual*%
X21800000Y-10500000D02*
X32500000Y-10500000D01*
X32500000Y-10500000D02*
X36000000Y-14000000D01*
X16050000Y-3500000D02*
X16050000Y-4750000D01*
X36000000Y-14000000D02*
X40500000Y-14000000D01*
X16050000Y-4750000D02*
X21800000Y-10500000D01*
D24*
%TO.N,MFC_setpoint*%
X45000000Y-29000000D02*
X45000000Y-25000000D01*
X47500000Y-22500000D02*
X47500000Y-12500000D01*
X26210000Y-6210000D02*
X26210000Y-3500000D01*
X45000000Y-25000000D02*
X47500000Y-22500000D01*
X47500000Y-12500000D02*
X44500000Y-9500000D01*
X44500000Y-9500000D02*
X29500000Y-9500000D01*
X29500000Y-9500000D02*
X26210000Y-6210000D01*
D22*
%TO.N,MFC_setpoint_amplified*%
X27500000Y-15000000D02*
X27500000Y-18000000D01*
X12960000Y-16880000D02*
X12960000Y-15540000D01*
X12960000Y-15540000D02*
X14500000Y-14000000D01*
X38500000Y-29000000D02*
X42460000Y-29000000D01*
X14500000Y-14000000D02*
X26500000Y-14000000D01*
X26500000Y-14000000D02*
X27500000Y-15000000D01*
X27500000Y-18000000D02*
X38500000Y-29000000D01*
%TO.N,MFC_actual_divided*%
X45500000Y-14000000D02*
X45300000Y-14000000D01*
X45500000Y-20500000D02*
X45500000Y-14000000D01*
X45300000Y-20500000D02*
X45500000Y-20500000D01*
%TO.N,Net-(U1--)*%
X18000000Y-20500000D02*
X14420000Y-20500000D01*
X20500000Y-23000000D02*
X18000000Y-20500000D01*
X20500000Y-18000000D02*
X18000000Y-20500000D01*
X22700000Y-23000000D02*
X20500000Y-23000000D01*
X14420000Y-20500000D02*
X10420000Y-24500000D01*
X22700000Y-18000000D02*
X20500000Y-18000000D01*
%TO.N,MFC_setpoint_filtered*%
X18460000Y-30000000D02*
X12960000Y-24500000D01*
X23925000Y-30000000D02*
X24000000Y-29925000D01*
X34000000Y-27500000D02*
X39000000Y-32500000D01*
X25000000Y-27500000D02*
X34000000Y-27500000D01*
X24000000Y-28500000D02*
X25000000Y-27500000D01*
X23925000Y-30000000D02*
X23925000Y-34025000D01*
X23925000Y-30000000D02*
X18460000Y-30000000D01*
X23925000Y-34025000D02*
X24000000Y-34100000D01*
X44040000Y-32500000D02*
X47540000Y-29000000D01*
X39000000Y-32500000D02*
X44040000Y-32500000D01*
X24000000Y-29925000D02*
X24000000Y-28500000D01*
%TD*%
%TA.AperFunction,Conductor*%
%TO.N,24VDC_GND*%
G36*
X26993692Y-47229685D02*
G01*
X27039447Y-47282489D01*
X27049391Y-47351647D01*
X27045631Y-47368933D01*
X27040000Y-47388111D01*
X27040000Y-47531888D01*
X27045631Y-47551067D01*
X27045630Y-47620936D01*
X27007855Y-47679714D01*
X26944299Y-47708738D01*
X26926653Y-47710000D01*
X25613347Y-47710000D01*
X25546308Y-47690315D01*
X25500553Y-47637511D01*
X25490609Y-47568353D01*
X25494369Y-47551067D01*
X25500000Y-47531888D01*
X25500000Y-47388111D01*
X25494369Y-47368933D01*
X25494370Y-47299064D01*
X25532145Y-47240286D01*
X25595701Y-47211262D01*
X25613347Y-47210000D01*
X26926653Y-47210000D01*
X26993692Y-47229685D01*
G37*
%TD.AperFunction*%
%TA.AperFunction,Conductor*%
G36*
X26204809Y-14770185D02*
G01*
X26225451Y-14786819D01*
X26713181Y-15274548D01*
X26746666Y-15335871D01*
X26749500Y-15362229D01*
X26749500Y-16159361D01*
X26729815Y-16226400D01*
X26690597Y-16264899D01*
X26581347Y-16332285D01*
X26581343Y-16332288D01*
X26457289Y-16456342D01*
X26365187Y-16605662D01*
X26365185Y-16605667D01*
X26349397Y-16653313D01*
X26310001Y-16772202D01*
X26310001Y-16772203D01*
X26310000Y-16772203D01*
X26299500Y-16874982D01*
X26299500Y-19125017D01*
X26310000Y-19227796D01*
X26358773Y-19374982D01*
X26365186Y-19394335D01*
X26457288Y-19543656D01*
X26581344Y-19667712D01*
X26730665Y-19759814D01*
X26897202Y-19814999D01*
X26999990Y-19825500D01*
X26999995Y-19825500D01*
X28000005Y-19825500D01*
X28000010Y-19825500D01*
X28102798Y-19814999D01*
X28143485Y-19801516D01*
X28213314Y-19799113D01*
X28270172Y-19831540D01*
X37924267Y-29485634D01*
X37936048Y-29499266D01*
X37950390Y-29518530D01*
X37990420Y-29552119D01*
X37994392Y-29555759D01*
X38000223Y-29561590D01*
X38000222Y-29561590D01*
X38025944Y-29581927D01*
X38084786Y-29631302D01*
X38084794Y-29631306D01*
X38090824Y-29635273D01*
X38090790Y-29635323D01*
X38097137Y-29639366D01*
X38097169Y-29639316D01*
X38103318Y-29643108D01*
X38103320Y-29643109D01*
X38103323Y-29643111D01*
X38172930Y-29675569D01*
X38241567Y-29710040D01*
X38241576Y-29710042D01*
X38248355Y-29712510D01*
X38248334Y-29712567D01*
X38255451Y-29715040D01*
X38255470Y-29714984D01*
X38262330Y-29717257D01*
X38337532Y-29732784D01*
X38412279Y-29750500D01*
X38412288Y-29750500D01*
X38419452Y-29751338D01*
X38419445Y-29751397D01*
X38426946Y-29752163D01*
X38426952Y-29752104D01*
X38434140Y-29752733D01*
X38434143Y-29752732D01*
X38434144Y-29752733D01*
X38510898Y-29750500D01*
X40985501Y-29750500D01*
X41052540Y-29770185D01*
X41098295Y-29822989D01*
X41109501Y-29874500D01*
X41109501Y-29897876D01*
X41115908Y-29957483D01*
X41166202Y-30092328D01*
X41166206Y-30092335D01*
X41252452Y-30207544D01*
X41252455Y-30207547D01*
X41367664Y-30293793D01*
X41367671Y-30293797D01*
X41502517Y-30344091D01*
X41502516Y-30344091D01*
X41509444Y-30344835D01*
X41562127Y-30350500D01*
X43357872Y-30350499D01*
X43417483Y-30344091D01*
X43552331Y-30293796D01*
X43667546Y-30207546D01*
X43753796Y-30092331D01*
X43802810Y-29960916D01*
X43844681Y-29904984D01*
X43910145Y-29880566D01*
X43978418Y-29895417D01*
X44006673Y-29916569D01*
X44128599Y-30038495D01*
X44225384Y-30106265D01*
X44322165Y-30174032D01*
X44322167Y-30174033D01*
X44322170Y-30174035D01*
X44536337Y-30273903D01*
X44764592Y-30335063D01*
X44848174Y-30342375D01*
X44913242Y-30367827D01*
X44954221Y-30424418D01*
X44958099Y-30494180D01*
X44925047Y-30553584D01*
X43765451Y-31713181D01*
X43704128Y-31746666D01*
X43677770Y-31749500D01*
X39362229Y-31749500D01*
X39295190Y-31729815D01*
X39274548Y-31713181D01*
X36933570Y-29372203D01*
X34575729Y-27014361D01*
X34563949Y-27000730D01*
X34556482Y-26990701D01*
X34549612Y-26981472D01*
X34544323Y-26977034D01*
X34509587Y-26947886D01*
X34505612Y-26944244D01*
X34502690Y-26941322D01*
X34499780Y-26938411D01*
X34474040Y-26918059D01*
X34415209Y-26868694D01*
X34409180Y-26864729D01*
X34409212Y-26864680D01*
X34402853Y-26860628D01*
X34402822Y-26860679D01*
X34396680Y-26856891D01*
X34396678Y-26856890D01*
X34396677Y-26856889D01*
X34357474Y-26838608D01*
X34327058Y-26824424D01*
X34292894Y-26807267D01*
X34258433Y-26789960D01*
X34258431Y-26789959D01*
X34258430Y-26789959D01*
X34251645Y-26787489D01*
X34251665Y-26787433D01*
X34244549Y-26784959D01*
X34244531Y-26785015D01*
X34237671Y-26782742D01*
X34209841Y-26776996D01*
X34162434Y-26767207D01*
X34113472Y-26755603D01*
X34087719Y-26749499D01*
X34080547Y-26748661D01*
X34080553Y-26748601D01*
X34073055Y-26747835D01*
X34073050Y-26747895D01*
X34065860Y-26747265D01*
X33989083Y-26749500D01*
X25063705Y-26749500D01*
X25045735Y-26748191D01*
X25021972Y-26744710D01*
X24977512Y-26748601D01*
X24969931Y-26749264D01*
X24964530Y-26749500D01*
X24956289Y-26749500D01*
X24934579Y-26752037D01*
X24923724Y-26753306D01*
X24908419Y-26754644D01*
X24847199Y-26760001D01*
X24840132Y-26761460D01*
X24840120Y-26761404D01*
X24832763Y-26763035D01*
X24832777Y-26763092D01*
X24825743Y-26764759D01*
X24753575Y-26791025D01*
X24680675Y-26815181D01*
X24674126Y-26818236D01*
X24674101Y-26818183D01*
X24667308Y-26821471D01*
X24667334Y-26821523D01*
X24660880Y-26824764D01*
X24596708Y-26866971D01*
X24531347Y-26907285D01*
X24525683Y-26911765D01*
X24525647Y-26911719D01*
X24519798Y-26916484D01*
X24519835Y-26916528D01*
X24514310Y-26921164D01*
X24461598Y-26977034D01*
X23514358Y-27924272D01*
X23500729Y-27936051D01*
X23481468Y-27950390D01*
X23447898Y-27990397D01*
X23444253Y-27994376D01*
X23438409Y-28000222D01*
X23418059Y-28025959D01*
X23368695Y-28084789D01*
X23364729Y-28090819D01*
X23364682Y-28090788D01*
X23360630Y-28097147D01*
X23360679Y-28097177D01*
X23356889Y-28103321D01*
X23324424Y-28172941D01*
X23289960Y-28241566D01*
X23287488Y-28248357D01*
X23287432Y-28248336D01*
X23284960Y-28255450D01*
X23285015Y-28255469D01*
X23282742Y-28262327D01*
X23274975Y-28299946D01*
X23267207Y-28337565D01*
X23254001Y-28393284D01*
X23249498Y-28412286D01*
X23248661Y-28419454D01*
X23248601Y-28419447D01*
X23247835Y-28426945D01*
X23247895Y-28426951D01*
X23247265Y-28434140D01*
X23249500Y-28510916D01*
X23249500Y-28782491D01*
X23229815Y-28849530D01*
X23190598Y-28888029D01*
X23118844Y-28932287D01*
X22994789Y-29056342D01*
X22911981Y-29190597D01*
X22860033Y-29237321D01*
X22806442Y-29249500D01*
X18822229Y-29249500D01*
X18755190Y-29229815D01*
X18734548Y-29213181D01*
X15528338Y-26006970D01*
X15494853Y-25945647D01*
X15499837Y-25875955D01*
X15541709Y-25820022D01*
X15605212Y-25795761D01*
X15726599Y-25785141D01*
X15726610Y-25785139D01*
X15946317Y-25726269D01*
X15946326Y-25726265D01*
X16152482Y-25630134D01*
X16338820Y-25499657D01*
X16499657Y-25338820D01*
X16630134Y-25152482D01*
X16726265Y-24946326D01*
X16726269Y-24946317D01*
X16778872Y-24750000D01*
X16010576Y-24750000D01*
X15943537Y-24730315D01*
X15897782Y-24677511D01*
X15887838Y-24608353D01*
X15888103Y-24606603D01*
X15904986Y-24500003D01*
X15904986Y-24499996D01*
X15888103Y-24393397D01*
X15897058Y-24324104D01*
X15942054Y-24270652D01*
X16008806Y-24250013D01*
X16010576Y-24250000D01*
X16778872Y-24250000D01*
X16778872Y-24249999D01*
X16726269Y-24053682D01*
X16726265Y-24053673D01*
X16630134Y-23847517D01*
X16499657Y-23661179D01*
X16338820Y-23500342D01*
X16152482Y-23369865D01*
X15946328Y-23273734D01*
X15750000Y-23221127D01*
X15750000Y-23989424D01*
X15730315Y-24056463D01*
X15677511Y-24102218D01*
X15608353Y-24112162D01*
X15606602Y-24111897D01*
X15531486Y-24100000D01*
X15531481Y-24100000D01*
X15468519Y-24100000D01*
X15468512Y-24100000D01*
X15393396Y-24111897D01*
X15324103Y-24102942D01*
X15270651Y-24057946D01*
X15250012Y-23991194D01*
X15249999Y-23989424D01*
X15249999Y-23221127D01*
X15053671Y-23273734D01*
X14847517Y-23369865D01*
X14661179Y-23500342D01*
X14500342Y-23661179D01*
X14369867Y-23847515D01*
X14342657Y-23905867D01*
X14296484Y-23958306D01*
X14229290Y-23977457D01*
X14162409Y-23957241D01*
X14117893Y-23905865D01*
X14115391Y-23900500D01*
X14090568Y-23847266D01*
X13960047Y-23660861D01*
X13960045Y-23660858D01*
X13799141Y-23499954D01*
X13612734Y-23369432D01*
X13612732Y-23369431D01*
X13406497Y-23273261D01*
X13406488Y-23273258D01*
X13186697Y-23214366D01*
X13186687Y-23214364D01*
X13065671Y-23203777D01*
X13000603Y-23178324D01*
X12959624Y-23121734D01*
X12955746Y-23051972D01*
X12988796Y-22992570D01*
X14694547Y-21286819D01*
X14755871Y-21253334D01*
X14782229Y-21250500D01*
X17637770Y-21250500D01*
X17704809Y-21270185D01*
X17725451Y-21286819D01*
X19924270Y-23485638D01*
X19936051Y-23499270D01*
X19950388Y-23518528D01*
X19990409Y-23552111D01*
X19994397Y-23555766D01*
X20000216Y-23561585D01*
X20000220Y-23561588D01*
X20000223Y-23561591D01*
X20025959Y-23581940D01*
X20084786Y-23631302D01*
X20084787Y-23631302D01*
X20084789Y-23631304D01*
X20090818Y-23635270D01*
X20090785Y-23635319D01*
X20097147Y-23639372D01*
X20097179Y-23639321D01*
X20103319Y-23643108D01*
X20103323Y-23643111D01*
X20122660Y-23652128D01*
X20172941Y-23675575D01*
X20192632Y-23685464D01*
X20241567Y-23710040D01*
X20241569Y-23710040D01*
X20248357Y-23712511D01*
X20248336Y-23712567D01*
X20255457Y-23715043D01*
X20255476Y-23714986D01*
X20262322Y-23717254D01*
X20262327Y-23717257D01*
X20262332Y-23717258D01*
X20262335Y-23717259D01*
X20319626Y-23729088D01*
X20337565Y-23732792D01*
X20412279Y-23750500D01*
X20412282Y-23750500D01*
X20412286Y-23750501D01*
X20419453Y-23751339D01*
X20419446Y-23751398D01*
X20426944Y-23752164D01*
X20426950Y-23752105D01*
X20434139Y-23752734D01*
X20434143Y-23752733D01*
X20434144Y-23752734D01*
X20510917Y-23750500D01*
X21375500Y-23750500D01*
X21442539Y-23770185D01*
X21488294Y-23822989D01*
X21499500Y-23874500D01*
X21499500Y-24125017D01*
X21510000Y-24227796D01*
X21565185Y-24394332D01*
X21565187Y-24394337D01*
X21600069Y-24450890D01*
X21657288Y-24543656D01*
X21781344Y-24667712D01*
X21930665Y-24759814D01*
X22097202Y-24814999D01*
X22199990Y-24825500D01*
X22199995Y-24825500D01*
X23200005Y-24825500D01*
X23200010Y-24825500D01*
X23302798Y-24814999D01*
X23469335Y-24759814D01*
X23618656Y-24667712D01*
X23742712Y-24543656D01*
X23834814Y-24394335D01*
X23889999Y-24227798D01*
X23900499Y-24125017D01*
X26299500Y-24125017D01*
X26310000Y-24227796D01*
X26365185Y-24394332D01*
X26365187Y-24394337D01*
X26400069Y-24450890D01*
X26457288Y-24543656D01*
X26581344Y-24667712D01*
X26730665Y-24759814D01*
X26897202Y-24814999D01*
X26999990Y-24825500D01*
X26999995Y-24825500D01*
X28000005Y-24825500D01*
X28000010Y-24825500D01*
X28102798Y-24814999D01*
X28269335Y-24759814D01*
X28418656Y-24667712D01*
X28542712Y-24543656D01*
X28634814Y-24394335D01*
X28689999Y-24227798D01*
X28700500Y-24125010D01*
X28700500Y-21874990D01*
X28689999Y-21772202D01*
X28634814Y-21605665D01*
X28542712Y-21456344D01*
X28418656Y-21332288D01*
X28317971Y-21270185D01*
X28269337Y-21240187D01*
X28269332Y-21240185D01*
X28267863Y-21239698D01*
X28102798Y-21185001D01*
X28102796Y-21185000D01*
X28000017Y-21174500D01*
X28000010Y-21174500D01*
X26999990Y-21174500D01*
X26999982Y-21174500D01*
X26897203Y-21185000D01*
X26897202Y-21185001D01*
X26814669Y-21212349D01*
X26730667Y-21240185D01*
X26730662Y-21240187D01*
X26581342Y-21332289D01*
X26457289Y-21456342D01*
X26365187Y-21605662D01*
X26365185Y-21605667D01*
X26358773Y-21625017D01*
X26310001Y-21772202D01*
X26310001Y-21772203D01*
X26310000Y-21772203D01*
X26299500Y-21874982D01*
X26299500Y-24125017D01*
X23900499Y-24125017D01*
X23900500Y-24125010D01*
X23900500Y-21874990D01*
X23889999Y-21772202D01*
X23834814Y-21605665D01*
X23742712Y-21456344D01*
X23618656Y-21332288D01*
X23517971Y-21270185D01*
X23469337Y-21240187D01*
X23469332Y-21240185D01*
X23467863Y-21239698D01*
X23302798Y-21185001D01*
X23302796Y-21185000D01*
X23200017Y-21174500D01*
X23200010Y-21174500D01*
X22199990Y-21174500D01*
X22199982Y-21174500D01*
X22097203Y-21185000D01*
X22097202Y-21185001D01*
X22014669Y-21212349D01*
X21930667Y-21240185D01*
X21930662Y-21240187D01*
X21781342Y-21332289D01*
X21657289Y-21456342D01*
X21565187Y-21605662D01*
X21565185Y-21605667D01*
X21558773Y-21625017D01*
X21510001Y-21772202D01*
X21510001Y-21772203D01*
X21510000Y-21772203D01*
X21499500Y-21874982D01*
X21499500Y-22125500D01*
X21479815Y-22192539D01*
X21427011Y-22238294D01*
X21375500Y-22249500D01*
X20862229Y-22249500D01*
X20795190Y-22229815D01*
X20774548Y-22213181D01*
X19149048Y-20587681D01*
X19115563Y-20526358D01*
X19120547Y-20456666D01*
X19149048Y-20412319D01*
X20774549Y-18786819D01*
X20835872Y-18753334D01*
X20862230Y-18750500D01*
X21375500Y-18750500D01*
X21442539Y-18770185D01*
X21488294Y-18822989D01*
X21499500Y-18874500D01*
X21499500Y-19125017D01*
X21510000Y-19227796D01*
X21558773Y-19374982D01*
X21565186Y-19394335D01*
X21657288Y-19543656D01*
X21781344Y-19667712D01*
X21930665Y-19759814D01*
X22097202Y-19814999D01*
X22199990Y-19825500D01*
X22199995Y-19825500D01*
X23200005Y-19825500D01*
X23200010Y-19825500D01*
X23302798Y-19814999D01*
X23469335Y-19759814D01*
X23618656Y-19667712D01*
X23742712Y-19543656D01*
X23834814Y-19394335D01*
X23889999Y-19227798D01*
X23900500Y-19125010D01*
X23900500Y-16874990D01*
X23889999Y-16772202D01*
X23834814Y-16605665D01*
X23742712Y-16456344D01*
X23618656Y-16332288D01*
X23469335Y-16240186D01*
X23302798Y-16185001D01*
X23302796Y-16185000D01*
X23200017Y-16174500D01*
X23200010Y-16174500D01*
X22199990Y-16174500D01*
X22199982Y-16174500D01*
X22097203Y-16185000D01*
X22097202Y-16185001D01*
X22014669Y-16212349D01*
X21930667Y-16240185D01*
X21930662Y-16240187D01*
X21781342Y-16332289D01*
X21657289Y-16456342D01*
X21565187Y-16605662D01*
X21565185Y-16605667D01*
X21549397Y-16653313D01*
X21510001Y-16772202D01*
X21510001Y-16772203D01*
X21510000Y-16772203D01*
X21499500Y-16874982D01*
X21499500Y-17125500D01*
X21479815Y-17192539D01*
X21427011Y-17238294D01*
X21375500Y-17249500D01*
X20563705Y-17249500D01*
X20545735Y-17248191D01*
X20521972Y-17244710D01*
X20476533Y-17248686D01*
X20469931Y-17249264D01*
X20464530Y-17249500D01*
X20456289Y-17249500D01*
X20434579Y-17252037D01*
X20423724Y-17253306D01*
X20408419Y-17254644D01*
X20347199Y-17260001D01*
X20340132Y-17261460D01*
X20340120Y-17261404D01*
X20332763Y-17263035D01*
X20332777Y-17263092D01*
X20325743Y-17264759D01*
X20253575Y-17291025D01*
X20180675Y-17315181D01*
X20174126Y-17318236D01*
X20174101Y-17318183D01*
X20167308Y-17321471D01*
X20167334Y-17321523D01*
X20160880Y-17324764D01*
X20096708Y-17366971D01*
X20031347Y-17407285D01*
X20025683Y-17411765D01*
X20025647Y-17411719D01*
X20019798Y-17416484D01*
X20019835Y-17416528D01*
X20014310Y-17421164D01*
X19961597Y-17477035D01*
X17725451Y-19713181D01*
X17664128Y-19746666D01*
X17637770Y-19749500D01*
X14483705Y-19749500D01*
X14465735Y-19748191D01*
X14441972Y-19744710D01*
X14396890Y-19748655D01*
X14389933Y-19749264D01*
X14384532Y-19749500D01*
X14376287Y-19749500D01*
X14350222Y-19752546D01*
X14343705Y-19753308D01*
X14338403Y-19753771D01*
X14267201Y-19760001D01*
X14260134Y-19761461D01*
X14260122Y-19761404D01*
X14252753Y-19763038D01*
X14252767Y-19763095D01*
X14245739Y-19764760D01*
X14173568Y-19791027D01*
X14173568Y-19791028D01*
X14100665Y-19815186D01*
X14100663Y-19815186D01*
X14100660Y-19815188D01*
X14094123Y-19818236D01*
X14094098Y-19818184D01*
X14087310Y-19821470D01*
X14087336Y-19821521D01*
X14080885Y-19824761D01*
X14016723Y-19866961D01*
X13951346Y-19907285D01*
X13945682Y-19911765D01*
X13945646Y-19911719D01*
X13939798Y-19916484D01*
X13939835Y-19916528D01*
X13934310Y-19921164D01*
X13881614Y-19977017D01*
X10685348Y-23173282D01*
X10624025Y-23206767D01*
X10586861Y-23209129D01*
X10420003Y-23194532D01*
X10419998Y-23194532D01*
X10193313Y-23214364D01*
X10193302Y-23214366D01*
X9973511Y-23273258D01*
X9973502Y-23273261D01*
X9767267Y-23369431D01*
X9767265Y-23369432D01*
X9580858Y-23499954D01*
X9419954Y-23660858D01*
X9402725Y-23685464D01*
X9348147Y-23729088D01*
X9278648Y-23736280D01*
X9216294Y-23704757D01*
X9180882Y-23644526D01*
X9177861Y-23627591D01*
X9174091Y-23592516D01*
X9123797Y-23457671D01*
X9123793Y-23457664D01*
X9037547Y-23342455D01*
X9037544Y-23342452D01*
X8922335Y-23256206D01*
X8922328Y-23256202D01*
X8787482Y-23205908D01*
X8787483Y-23205908D01*
X8727883Y-23199501D01*
X8727881Y-23199500D01*
X8727873Y-23199500D01*
X8727865Y-23199500D01*
X7368335Y-23199500D01*
X7301296Y-23179815D01*
X7255541Y-23127011D01*
X7245597Y-23057853D01*
X7274622Y-22994297D01*
X7280654Y-22987819D01*
X9093973Y-21174500D01*
X11252127Y-19016345D01*
X11257287Y-19011733D01*
X11287666Y-18987508D01*
X11332645Y-18936023D01*
X11335462Y-18933010D01*
X11343945Y-18924529D01*
X11370951Y-18892180D01*
X11435765Y-18817996D01*
X11438004Y-18814248D01*
X11449266Y-18798374D01*
X11452069Y-18795018D01*
X11500691Y-18709326D01*
X11551215Y-18624764D01*
X11552744Y-18620687D01*
X11561006Y-18603028D01*
X11563154Y-18599244D01*
X11595695Y-18506244D01*
X11630307Y-18414024D01*
X11631085Y-18409735D01*
X11636057Y-18390896D01*
X11637498Y-18386782D01*
X11652912Y-18289460D01*
X11657309Y-18265231D01*
X11670500Y-18192550D01*
X11670500Y-18188175D01*
X11672027Y-18168777D01*
X11672711Y-18164459D01*
X11670499Y-18065952D01*
X11670499Y-17699031D01*
X11690184Y-17631994D01*
X11742988Y-17586239D01*
X11812146Y-17576295D01*
X11875702Y-17605320D01*
X11896074Y-17627910D01*
X11959954Y-17719141D01*
X12120858Y-17880045D01*
X12120861Y-17880047D01*
X12307266Y-18010568D01*
X12513504Y-18106739D01*
X12733308Y-18165635D01*
X12895230Y-18179801D01*
X12959998Y-18185468D01*
X12960000Y-18185468D01*
X12960002Y-18185468D01*
X13016673Y-18180509D01*
X13186692Y-18165635D01*
X13406496Y-18106739D01*
X13612734Y-18010568D01*
X13799139Y-17880047D01*
X13960047Y-17719139D01*
X14090568Y-17532734D01*
X14117618Y-17474724D01*
X14163790Y-17422285D01*
X14230983Y-17403133D01*
X14297865Y-17423348D01*
X14342382Y-17474725D01*
X14369429Y-17532728D01*
X14369432Y-17532734D01*
X14499954Y-17719141D01*
X14660858Y-17880045D01*
X14660861Y-17880047D01*
X14847266Y-18010568D01*
X15053504Y-18106739D01*
X15273308Y-18165635D01*
X15435230Y-18179801D01*
X15499998Y-18185468D01*
X15500000Y-18185468D01*
X15500002Y-18185468D01*
X15556672Y-18180509D01*
X15726692Y-18165635D01*
X15946496Y-18106739D01*
X16152734Y-18010568D01*
X16339139Y-17880047D01*
X16500047Y-17719139D01*
X16630568Y-17532734D01*
X16726739Y-17326496D01*
X16785635Y-17106692D01*
X16805468Y-16880000D01*
X16785635Y-16653308D01*
X16726739Y-16433504D01*
X16630568Y-16227266D01*
X16500047Y-16040861D01*
X16500045Y-16040858D01*
X16339141Y-15879954D01*
X16152734Y-15749432D01*
X16152732Y-15749431D01*
X15946497Y-15653261D01*
X15946488Y-15653258D01*
X15726697Y-15594366D01*
X15726693Y-15594365D01*
X15726692Y-15594365D01*
X15726691Y-15594364D01*
X15726686Y-15594364D01*
X15500002Y-15574532D01*
X15499998Y-15574532D01*
X15273313Y-15594364D01*
X15273302Y-15594366D01*
X15053511Y-15653258D01*
X15053502Y-15653261D01*
X14847267Y-15749431D01*
X14847265Y-15749432D01*
X14660858Y-15879954D01*
X14499954Y-16040858D01*
X14369432Y-16227265D01*
X14369431Y-16227267D01*
X14342382Y-16285275D01*
X14296209Y-16337714D01*
X14229016Y-16356866D01*
X14162135Y-16336650D01*
X14117618Y-16285275D01*
X14090568Y-16227266D01*
X13960047Y-16040861D01*
X13960045Y-16040858D01*
X13827958Y-15908771D01*
X13794473Y-15847448D01*
X13799457Y-15777756D01*
X13827958Y-15733409D01*
X14273011Y-15288357D01*
X14774548Y-14786819D01*
X14835872Y-14753334D01*
X14862230Y-14750500D01*
X26137770Y-14750500D01*
X26204809Y-14770185D01*
G37*
%TD.AperFunction*%
%TA.AperFunction,Conductor*%
G36*
X12164927Y-3706060D02*
G01*
X12220860Y-3747932D01*
X12241368Y-3790149D01*
X12283258Y-3946488D01*
X12283261Y-3946497D01*
X12379431Y-4152732D01*
X12379432Y-4152734D01*
X12509954Y-4339141D01*
X12670858Y-4500045D01*
X12670861Y-4500047D01*
X12857266Y-4630568D01*
X13063504Y-4726739D01*
X13283308Y-4785635D01*
X13445230Y-4799801D01*
X13509998Y-4805468D01*
X13510000Y-4805468D01*
X13510002Y-4805468D01*
X13566672Y-4800509D01*
X13736692Y-4785635D01*
X13956496Y-4726739D01*
X14162734Y-4630568D01*
X14349139Y-4500047D01*
X14510047Y-4339139D01*
X14640568Y-4152734D01*
X14667618Y-4094724D01*
X14713790Y-4042285D01*
X14780983Y-4023133D01*
X14847865Y-4043348D01*
X14892382Y-4094725D01*
X14919429Y-4152728D01*
X14919432Y-4152734D01*
X15049954Y-4339141D01*
X15210859Y-4500046D01*
X15246621Y-4525086D01*
X15290247Y-4579662D01*
X15299500Y-4626662D01*
X15299500Y-4686294D01*
X15298191Y-4704263D01*
X15294710Y-4728025D01*
X15299264Y-4780064D01*
X15299500Y-4785470D01*
X15299500Y-4793709D01*
X15303306Y-4826274D01*
X15310000Y-4902791D01*
X15311461Y-4909867D01*
X15311403Y-4909878D01*
X15313034Y-4917237D01*
X15313092Y-4917224D01*
X15314757Y-4924250D01*
X15341025Y-4996424D01*
X15365185Y-5069331D01*
X15368236Y-5075874D01*
X15368182Y-5075898D01*
X15371470Y-5082688D01*
X15371521Y-5082663D01*
X15374761Y-5089113D01*
X15374762Y-5089114D01*
X15374763Y-5089117D01*
X15416965Y-5153282D01*
X15416965Y-5153283D01*
X15457287Y-5218655D01*
X15461766Y-5224319D01*
X15461719Y-5224356D01*
X15466482Y-5230202D01*
X15466528Y-5230164D01*
X15471173Y-5235700D01*
X15527017Y-5288385D01*
X21224270Y-10985638D01*
X21236051Y-10999270D01*
X21250388Y-11018528D01*
X21290409Y-11052111D01*
X21294397Y-11055766D01*
X21300216Y-11061585D01*
X21300220Y-11061588D01*
X21300223Y-11061591D01*
X21325959Y-11081940D01*
X21384786Y-11131302D01*
X21384787Y-11131302D01*
X21384789Y-11131304D01*
X21390818Y-11135270D01*
X21390785Y-11135319D01*
X21397147Y-11139372D01*
X21397179Y-11139321D01*
X21403319Y-11143108D01*
X21403323Y-11143111D01*
X21438132Y-11159343D01*
X21472941Y-11175575D01*
X21541565Y-11210039D01*
X21541567Y-11210040D01*
X21541569Y-11210040D01*
X21548357Y-11212511D01*
X21548336Y-11212567D01*
X21555457Y-11215043D01*
X21555476Y-11214986D01*
X21562322Y-11217254D01*
X21562327Y-11217257D01*
X21562332Y-11217258D01*
X21562335Y-11217259D01*
X21637564Y-11232792D01*
X21637565Y-11232792D01*
X21712279Y-11250500D01*
X21712282Y-11250500D01*
X21712286Y-11250501D01*
X21719453Y-11251339D01*
X21719446Y-11251398D01*
X21726944Y-11252164D01*
X21726950Y-11252105D01*
X21734139Y-11252734D01*
X21734143Y-11252733D01*
X21734144Y-11252734D01*
X21810917Y-11250500D01*
X32137770Y-11250500D01*
X32204809Y-11270185D01*
X32225451Y-11286819D01*
X35424267Y-14485634D01*
X35436048Y-14499266D01*
X35450390Y-14518530D01*
X35490420Y-14552119D01*
X35494392Y-14555759D01*
X35500223Y-14561590D01*
X35525939Y-14581923D01*
X35584786Y-14631302D01*
X35584788Y-14631303D01*
X35590823Y-14635272D01*
X35590789Y-14635322D01*
X35597144Y-14639370D01*
X35597177Y-14639318D01*
X35603319Y-14643107D01*
X35603323Y-14643110D01*
X35672914Y-14675561D01*
X35741558Y-14710036D01*
X35741561Y-14710037D01*
X35741567Y-14710040D01*
X35741572Y-14710041D01*
X35748355Y-14712510D01*
X35748334Y-14712567D01*
X35755451Y-14715040D01*
X35755470Y-14714984D01*
X35762330Y-14717257D01*
X35837532Y-14732784D01*
X35912279Y-14750500D01*
X35912288Y-14750500D01*
X35919452Y-14751338D01*
X35919445Y-14751397D01*
X35926946Y-14752163D01*
X35926952Y-14752104D01*
X35934140Y-14752733D01*
X35934143Y-14752732D01*
X35934144Y-14752733D01*
X36010898Y-14750500D01*
X39175500Y-14750500D01*
X39242539Y-14770185D01*
X39288294Y-14822989D01*
X39299500Y-14874500D01*
X39299500Y-15125017D01*
X39310000Y-15227796D01*
X39337527Y-15310867D01*
X39365186Y-15394335D01*
X39457288Y-15543656D01*
X39581344Y-15667712D01*
X39730665Y-15759814D01*
X39897202Y-15814999D01*
X39999990Y-15825500D01*
X39999995Y-15825500D01*
X41000005Y-15825500D01*
X41000010Y-15825500D01*
X41102798Y-15814999D01*
X41269335Y-15759814D01*
X41418656Y-15667712D01*
X41542712Y-15543656D01*
X41634814Y-15394335D01*
X41689999Y-15227798D01*
X41700500Y-15125010D01*
X41700500Y-12874990D01*
X41689999Y-12772202D01*
X41634814Y-12605665D01*
X41542712Y-12456344D01*
X41418656Y-12332288D01*
X41269335Y-12240186D01*
X41102798Y-12185001D01*
X41102796Y-12185000D01*
X41000017Y-12174500D01*
X41000010Y-12174500D01*
X39999990Y-12174500D01*
X39999982Y-12174500D01*
X39897203Y-12185000D01*
X39897202Y-12185001D01*
X39824156Y-12209206D01*
X39730667Y-12240185D01*
X39730662Y-12240187D01*
X39581342Y-12332289D01*
X39457289Y-12456342D01*
X39365187Y-12605662D01*
X39365185Y-12605665D01*
X39365186Y-12605665D01*
X39310001Y-12772202D01*
X39310001Y-12772203D01*
X39310000Y-12772203D01*
X39299500Y-12874982D01*
X39299500Y-13125500D01*
X39279815Y-13192539D01*
X39227011Y-13238294D01*
X39175500Y-13249500D01*
X36362229Y-13249500D01*
X36295190Y-13229815D01*
X36274548Y-13213181D01*
X33648549Y-10587181D01*
X33615064Y-10525858D01*
X33620048Y-10456166D01*
X33661920Y-10400233D01*
X33727384Y-10375816D01*
X33736230Y-10375500D01*
X44085994Y-10375500D01*
X44153033Y-10395185D01*
X44173675Y-10411819D01*
X45724675Y-11962819D01*
X45758160Y-12024142D01*
X45753176Y-12093834D01*
X45711304Y-12149767D01*
X45645840Y-12174184D01*
X45636994Y-12174500D01*
X44799982Y-12174500D01*
X44697203Y-12185000D01*
X44697202Y-12185001D01*
X44624156Y-12209206D01*
X44530667Y-12240185D01*
X44530662Y-12240187D01*
X44381342Y-12332289D01*
X44257289Y-12456342D01*
X44165187Y-12605662D01*
X44165185Y-12605665D01*
X44165186Y-12605665D01*
X44110001Y-12772202D01*
X44110001Y-12772203D01*
X44110000Y-12772203D01*
X44099500Y-12874982D01*
X44099500Y-15125017D01*
X44110000Y-15227796D01*
X44137527Y-15310867D01*
X44165186Y-15394335D01*
X44257288Y-15543656D01*
X44381344Y-15667712D01*
X44530665Y-15759814D01*
X44652640Y-15800232D01*
X44664504Y-15804164D01*
X44721949Y-15843937D01*
X44748772Y-15908453D01*
X44749500Y-15921870D01*
X44749500Y-18578130D01*
X44729815Y-18645169D01*
X44677011Y-18690924D01*
X44664504Y-18695836D01*
X44530667Y-18740185D01*
X44530662Y-18740187D01*
X44381342Y-18832289D01*
X44257289Y-18956342D01*
X44165187Y-19105662D01*
X44165185Y-19105667D01*
X44158773Y-19125017D01*
X44110001Y-19272202D01*
X44110001Y-19272203D01*
X44110000Y-19272203D01*
X44099500Y-19374982D01*
X44099500Y-21625017D01*
X44110000Y-21727796D01*
X44110001Y-21727798D01*
X44165186Y-21894335D01*
X44257288Y-22043656D01*
X44381344Y-22167712D01*
X44530665Y-22259814D01*
X44697202Y-22314999D01*
X44799990Y-22325500D01*
X44799995Y-22325500D01*
X45800005Y-22325500D01*
X45800010Y-22325500D01*
X45902798Y-22314999D01*
X46069335Y-22259814D01*
X46218656Y-22167712D01*
X46342712Y-22043656D01*
X46394962Y-21958944D01*
X46446909Y-21912222D01*
X46515872Y-21900999D01*
X46579954Y-21928843D01*
X46618810Y-21986911D01*
X46624500Y-22024043D01*
X46624500Y-22085993D01*
X46604815Y-22153032D01*
X46588181Y-22173674D01*
X44407873Y-24353982D01*
X44404170Y-24357396D01*
X44360641Y-24394370D01*
X44310191Y-24460737D01*
X44257970Y-24525701D01*
X44257968Y-24525704D01*
X44257879Y-24525885D01*
X44245529Y-24545796D01*
X44245400Y-24545964D01*
X44245397Y-24545970D01*
X44224605Y-24590913D01*
X44210389Y-24621640D01*
X44191798Y-24659124D01*
X44173359Y-24696305D01*
X44173354Y-24696319D01*
X44173309Y-24696503D01*
X44165527Y-24718609D01*
X44165441Y-24718794D01*
X44165438Y-24718803D01*
X44147514Y-24800229D01*
X44127399Y-24881113D01*
X44127394Y-24881310D01*
X44124545Y-24904575D01*
X44124500Y-24904778D01*
X44124500Y-24988160D01*
X44122243Y-25071473D01*
X44122278Y-25071655D01*
X44124500Y-25095023D01*
X44124500Y-27914241D01*
X44104815Y-27981280D01*
X44088181Y-28001922D01*
X44006673Y-28083430D01*
X43945350Y-28116915D01*
X43875658Y-28111931D01*
X43819725Y-28070059D01*
X43802810Y-28039082D01*
X43753797Y-27907671D01*
X43753793Y-27907664D01*
X43667547Y-27792455D01*
X43667544Y-27792452D01*
X43552335Y-27706206D01*
X43552328Y-27706202D01*
X43417482Y-27655908D01*
X43417483Y-27655908D01*
X43357883Y-27649501D01*
X43357881Y-27649500D01*
X43357873Y-27649500D01*
X43357864Y-27649500D01*
X41562129Y-27649500D01*
X41562123Y-27649501D01*
X41502516Y-27655908D01*
X41367671Y-27706202D01*
X41367664Y-27706206D01*
X41252455Y-27792452D01*
X41252452Y-27792455D01*
X41166206Y-27907664D01*
X41166202Y-27907671D01*
X41115908Y-28042517D01*
X41109501Y-28102116D01*
X41109500Y-28102135D01*
X41109500Y-28125500D01*
X41089815Y-28192539D01*
X41037011Y-28238294D01*
X40985500Y-28249500D01*
X38862230Y-28249500D01*
X38795191Y-28229815D01*
X38774549Y-28213181D01*
X33561368Y-23000000D01*
X35594540Y-23000000D01*
X35614326Y-23188256D01*
X35614327Y-23188259D01*
X35672818Y-23368277D01*
X35672821Y-23368284D01*
X35767467Y-23532216D01*
X35860258Y-23635270D01*
X35894129Y-23672888D01*
X36047265Y-23784148D01*
X36047270Y-23784151D01*
X36220192Y-23861142D01*
X36220197Y-23861144D01*
X36405354Y-23900500D01*
X36405355Y-23900500D01*
X36594644Y-23900500D01*
X36594646Y-23900500D01*
X36779803Y-23861144D01*
X36949566Y-23785559D01*
X37018813Y-23776275D01*
X37050430Y-23785557D01*
X37220197Y-23861144D01*
X37405354Y-23900500D01*
X37405355Y-23900500D01*
X37594644Y-23900500D01*
X37594646Y-23900500D01*
X37779803Y-23861144D01*
X37952730Y-23784151D01*
X38105871Y-23672888D01*
X38232533Y-23532216D01*
X38327179Y-23368284D01*
X38385674Y-23188256D01*
X38405460Y-23000000D01*
X38385674Y-22811744D01*
X38327179Y-22631716D01*
X38327178Y-22631714D01*
X38267113Y-22527677D01*
X38250500Y-22465677D01*
X38250500Y-21625017D01*
X39299500Y-21625017D01*
X39310000Y-21727796D01*
X39310001Y-21727798D01*
X39365186Y-21894335D01*
X39457288Y-22043656D01*
X39581344Y-22167712D01*
X39730665Y-22259814D01*
X39897202Y-22314999D01*
X39999990Y-22325500D01*
X39999995Y-22325500D01*
X41000005Y-22325500D01*
X41000010Y-22325500D01*
X41102798Y-22314999D01*
X41269335Y-22259814D01*
X41418656Y-22167712D01*
X41542712Y-22043656D01*
X41634814Y-21894335D01*
X41689999Y-21727798D01*
X41700500Y-21625010D01*
X41700500Y-19374990D01*
X41689999Y-19272202D01*
X41634814Y-19105665D01*
X41542712Y-18956344D01*
X41418656Y-18832288D01*
X41317971Y-18770185D01*
X41269337Y-18740187D01*
X41269332Y-18740185D01*
X41267863Y-18739698D01*
X41102798Y-18685001D01*
X41102796Y-18685000D01*
X41000017Y-18674500D01*
X41000010Y-18674500D01*
X39999990Y-18674500D01*
X39999982Y-18674500D01*
X39897203Y-18685000D01*
X39897202Y-18685001D01*
X39823794Y-18709326D01*
X39730667Y-18740185D01*
X39730662Y-18740187D01*
X39581342Y-18832289D01*
X39457289Y-18956342D01*
X39365187Y-19105662D01*
X39365185Y-19105667D01*
X39358773Y-19125017D01*
X39310001Y-19272202D01*
X39310001Y-19272203D01*
X39310000Y-19272203D01*
X39299500Y-19374982D01*
X39299500Y-21625017D01*
X38250500Y-21625017D01*
X38250500Y-19534321D01*
X38267113Y-19472321D01*
X38327179Y-19368284D01*
X38385674Y-19188256D01*
X38405460Y-19000000D01*
X38385674Y-18811744D01*
X38327179Y-18631716D01*
X38232533Y-18467784D01*
X38105871Y-18327112D01*
X38105870Y-18327111D01*
X37952734Y-18215851D01*
X37952729Y-18215848D01*
X37779807Y-18138857D01*
X37779802Y-18138855D01*
X37634000Y-18107865D01*
X37594646Y-18099500D01*
X37405354Y-18099500D01*
X37372897Y-18106398D01*
X37220197Y-18138855D01*
X37220192Y-18138857D01*
X37050436Y-18214439D01*
X36981186Y-18223724D01*
X36949564Y-18214439D01*
X36779807Y-18138857D01*
X36779802Y-18138855D01*
X36634000Y-18107865D01*
X36594646Y-18099500D01*
X36405354Y-18099500D01*
X36372897Y-18106398D01*
X36220197Y-18138855D01*
X36220192Y-18138857D01*
X36047270Y-18215848D01*
X36047265Y-18215851D01*
X35894129Y-18327111D01*
X35767466Y-18467785D01*
X35672821Y-18631715D01*
X35672818Y-18631722D01*
X35618672Y-18798367D01*
X35614326Y-18811744D01*
X35594540Y-19000000D01*
X35614326Y-19188256D01*
X35614327Y-19188259D01*
X35672818Y-19368277D01*
X35672821Y-19368284D01*
X35732887Y-19472321D01*
X35749500Y-19534321D01*
X35749500Y-22465677D01*
X35732887Y-22527677D01*
X35672821Y-22631714D01*
X35614327Y-22811740D01*
X35614326Y-22811744D01*
X35594540Y-23000000D01*
X33561368Y-23000000D01*
X28736819Y-18175451D01*
X28703334Y-18114128D01*
X28700500Y-18087770D01*
X28700500Y-16874995D01*
X28700499Y-16874982D01*
X28689999Y-16772203D01*
X28689999Y-16772202D01*
X28634814Y-16605665D01*
X28542712Y-16456344D01*
X28418656Y-16332288D01*
X28418652Y-16332285D01*
X28309403Y-16264899D01*
X28262678Y-16212951D01*
X28250500Y-16159361D01*
X28250500Y-15063706D01*
X28251809Y-15045734D01*
X28255289Y-15021977D01*
X28255289Y-15021975D01*
X28251270Y-14976051D01*
X28250734Y-14969929D01*
X28250499Y-14964520D01*
X28250499Y-14964272D01*
X28250500Y-14956291D01*
X28246693Y-14923724D01*
X28239999Y-14847203D01*
X28239999Y-14847201D01*
X28238539Y-14840129D01*
X28238597Y-14840116D01*
X28236965Y-14832757D01*
X28236906Y-14832772D01*
X28235242Y-14825753D01*
X28235241Y-14825745D01*
X28208974Y-14753576D01*
X28184814Y-14680666D01*
X28184809Y-14680659D01*
X28181760Y-14674118D01*
X28181815Y-14674091D01*
X28178533Y-14667313D01*
X28178480Y-14667340D01*
X28175235Y-14660880D01*
X28133028Y-14596708D01*
X28106594Y-14553852D01*
X28092712Y-14531345D01*
X28092711Y-14531344D01*
X28092710Y-14531342D01*
X28088234Y-14525682D01*
X28088281Y-14525644D01*
X28083519Y-14519799D01*
X28083474Y-14519838D01*
X28078834Y-14514309D01*
X28078832Y-14514307D01*
X28078830Y-14514304D01*
X28048061Y-14485275D01*
X28022965Y-14461597D01*
X27075729Y-13514361D01*
X27063949Y-13500730D01*
X27056482Y-13490701D01*
X27049612Y-13481472D01*
X27044323Y-13477034D01*
X27009587Y-13447886D01*
X27005612Y-13444244D01*
X27002690Y-13441322D01*
X26999780Y-13438411D01*
X26974040Y-13418059D01*
X26915209Y-13368694D01*
X26909180Y-13364729D01*
X26909212Y-13364680D01*
X26902853Y-13360628D01*
X26902822Y-13360679D01*
X26896680Y-13356891D01*
X26896678Y-13356890D01*
X26896677Y-13356889D01*
X26857474Y-13338608D01*
X26827058Y-13324424D01*
X26792894Y-13307267D01*
X26758433Y-13289960D01*
X26758431Y-13289959D01*
X26758430Y-13289959D01*
X26751645Y-13287489D01*
X26751665Y-13287433D01*
X26744549Y-13284959D01*
X26744531Y-13285015D01*
X26737671Y-13282742D01*
X26709841Y-13276996D01*
X26662434Y-13267207D01*
X26613472Y-13255603D01*
X26587719Y-13249499D01*
X26580547Y-13248661D01*
X26580553Y-13248601D01*
X26573055Y-13247835D01*
X26573050Y-13247895D01*
X26565860Y-13247265D01*
X26489083Y-13249500D01*
X14563705Y-13249500D01*
X14545735Y-13248191D01*
X14521972Y-13244710D01*
X14477512Y-13248601D01*
X14469931Y-13249264D01*
X14464530Y-13249500D01*
X14456289Y-13249500D01*
X14434579Y-13252037D01*
X14423724Y-13253306D01*
X14408419Y-13254645D01*
X14347199Y-13260001D01*
X14340132Y-13261460D01*
X14340120Y-13261404D01*
X14332763Y-13263035D01*
X14332777Y-13263092D01*
X14325743Y-13264759D01*
X14253575Y-13291025D01*
X14180675Y-13315181D01*
X14174126Y-13318236D01*
X14174101Y-13318183D01*
X14167308Y-13321471D01*
X14167334Y-13321523D01*
X14160880Y-13324764D01*
X14096708Y-13366971D01*
X14031347Y-13407285D01*
X14025683Y-13411765D01*
X14025647Y-13411719D01*
X14019798Y-13416484D01*
X14019835Y-13416528D01*
X14014310Y-13421164D01*
X13961598Y-13477034D01*
X12474358Y-14964272D01*
X12460729Y-14976051D01*
X12441468Y-14990390D01*
X12407898Y-15030397D01*
X12404253Y-15034376D01*
X12398409Y-15040222D01*
X12378059Y-15065959D01*
X12328695Y-15124789D01*
X12324729Y-15130819D01*
X12324682Y-15130788D01*
X12320630Y-15137147D01*
X12320679Y-15137177D01*
X12316889Y-15143321D01*
X12284424Y-15212941D01*
X12249960Y-15281566D01*
X12247488Y-15288357D01*
X12247432Y-15288336D01*
X12244960Y-15295450D01*
X12245015Y-15295469D01*
X12242742Y-15302327D01*
X12235816Y-15335871D01*
X12227207Y-15377565D01*
X12215054Y-15428843D01*
X12209498Y-15452286D01*
X12208661Y-15459454D01*
X12208601Y-15459447D01*
X12207835Y-15466945D01*
X12207895Y-15466951D01*
X12207265Y-15474140D01*
X12209500Y-15550916D01*
X12209500Y-15753336D01*
X12189815Y-15820375D01*
X12156625Y-15854910D01*
X12120863Y-15879951D01*
X11959951Y-16040862D01*
X11896074Y-16132090D01*
X11841497Y-16175715D01*
X11771999Y-16182909D01*
X11709644Y-16151386D01*
X11674230Y-16091157D01*
X11670499Y-16060967D01*
X11670499Y-10375500D01*
X11670499Y-4149331D01*
X11690184Y-4082296D01*
X11706809Y-4061663D01*
X12033912Y-3734560D01*
X12095235Y-3701076D01*
X12164927Y-3706060D01*
G37*
%TD.AperFunction*%
%TA.AperFunction,Conductor*%
G36*
X24272469Y-3749362D02*
G01*
X24278949Y-3755395D01*
X24749025Y-4225472D01*
X24800133Y-4152482D01*
X24827341Y-4094135D01*
X24873513Y-4041696D01*
X24940707Y-4022543D01*
X25007588Y-4042758D01*
X25052105Y-4094132D01*
X25079432Y-4152734D01*
X25122938Y-4214869D01*
X25209951Y-4339137D01*
X25209952Y-4339138D01*
X25209953Y-4339139D01*
X25298182Y-4427368D01*
X25331666Y-4488689D01*
X25334500Y-4515048D01*
X25334500Y-6171897D01*
X25334295Y-6176931D01*
X25329660Y-6233843D01*
X25340914Y-6316441D01*
X25349927Y-6399316D01*
X25349929Y-6399327D01*
X25349990Y-6399506D01*
X25355340Y-6422331D01*
X25355366Y-6422525D01*
X25355369Y-6422536D01*
X25384119Y-6500794D01*
X25410730Y-6579774D01*
X25410734Y-6579782D01*
X25410832Y-6579945D01*
X25420969Y-6601099D01*
X25421036Y-6601283D01*
X25421038Y-6601286D01*
X25421039Y-6601288D01*
X25465940Y-6671536D01*
X25508911Y-6742954D01*
X25509042Y-6743092D01*
X25523495Y-6761579D01*
X25523602Y-6761747D01*
X25582552Y-6820696D01*
X25639871Y-6881207D01*
X25640028Y-6881314D01*
X25658121Y-6896265D01*
X28299675Y-9537819D01*
X28333160Y-9599142D01*
X28328176Y-9668834D01*
X28286304Y-9724767D01*
X28220840Y-9749184D01*
X28211994Y-9749500D01*
X22162230Y-9749500D01*
X22095191Y-9729815D01*
X22074549Y-9713181D01*
X16962958Y-4601590D01*
X16929473Y-4540267D01*
X16934457Y-4470575D01*
X16962956Y-4426229D01*
X17050047Y-4339139D01*
X17180568Y-4152734D01*
X17207618Y-4094724D01*
X17253790Y-4042285D01*
X17320983Y-4023133D01*
X17387865Y-4043348D01*
X17432382Y-4094725D01*
X17459429Y-4152728D01*
X17459432Y-4152734D01*
X17589954Y-4339141D01*
X17750858Y-4500045D01*
X17750861Y-4500047D01*
X17937266Y-4630568D01*
X18143504Y-4726739D01*
X18363308Y-4785635D01*
X18525230Y-4799801D01*
X18589998Y-4805468D01*
X18590000Y-4805468D01*
X18590002Y-4805468D01*
X18646672Y-4800509D01*
X18816692Y-4785635D01*
X19036496Y-4726739D01*
X19242734Y-4630568D01*
X19429139Y-4500047D01*
X19590047Y-4339139D01*
X19720568Y-4152734D01*
X19747618Y-4094724D01*
X19793790Y-4042285D01*
X19860983Y-4023133D01*
X19927865Y-4043348D01*
X19972382Y-4094725D01*
X19999429Y-4152728D01*
X19999432Y-4152734D01*
X20129954Y-4339141D01*
X20290858Y-4500045D01*
X20290861Y-4500047D01*
X20477266Y-4630568D01*
X20683504Y-4726739D01*
X20903308Y-4785635D01*
X21065230Y-4799801D01*
X21129998Y-4805468D01*
X21130000Y-4805468D01*
X21130002Y-4805468D01*
X21186672Y-4800509D01*
X21356692Y-4785635D01*
X21576496Y-4726739D01*
X21782734Y-4630568D01*
X21969139Y-4500047D01*
X22130047Y-4339139D01*
X22260568Y-4152734D01*
X22287895Y-4094129D01*
X22334064Y-4041695D01*
X22401257Y-4022542D01*
X22468139Y-4042757D01*
X22512657Y-4094133D01*
X22539865Y-4152481D01*
X22539866Y-4152483D01*
X22590973Y-4225471D01*
X22590973Y-4225472D01*
X23061049Y-3755395D01*
X23122372Y-3721910D01*
X23192063Y-3726894D01*
X23247997Y-3768765D01*
X23253045Y-3776036D01*
X23288238Y-3830797D01*
X23403602Y-3930759D01*
X23401293Y-3933422D01*
X23436006Y-3973499D01*
X23445935Y-4042660D01*
X23416898Y-4106210D01*
X23410882Y-4112669D01*
X22944526Y-4579025D01*
X22944526Y-4579026D01*
X23017512Y-4630131D01*
X23017516Y-4630133D01*
X23223673Y-4726265D01*
X23223682Y-4726269D01*
X23443389Y-4785139D01*
X23443400Y-4785141D01*
X23669998Y-4804966D01*
X23670002Y-4804966D01*
X23896599Y-4785141D01*
X23896610Y-4785139D01*
X24116317Y-4726269D01*
X24116331Y-4726264D01*
X24322478Y-4630136D01*
X24395472Y-4579025D01*
X23929116Y-4112669D01*
X23895631Y-4051346D01*
X23900615Y-3981654D01*
X23937641Y-3932193D01*
X23936398Y-3930759D01*
X23943100Y-3924952D01*
X24051761Y-3830798D01*
X24086955Y-3776034D01*
X24139754Y-3730283D01*
X24208913Y-3720338D01*
X24272469Y-3749362D01*
G37*
%TD.AperFunction*%
%TA.AperFunction,Conductor*%
G36*
X12520068Y-15622D02*
G01*
X12546907Y-2359D01*
X12568301Y-500D01*
X18529143Y-500D01*
X18564605Y-10912D01*
X18585973Y-1522D01*
X18601860Y-500D01*
X46998378Y-500D01*
X47001619Y-584D01*
X47133628Y-7503D01*
X47317027Y-17803D01*
X47323212Y-18465D01*
X47475647Y-42608D01*
X47638194Y-70226D01*
X47643811Y-71453D01*
X47796693Y-112418D01*
X47889122Y-139046D01*
X47951724Y-157082D01*
X47956759Y-158769D01*
X48106183Y-216127D01*
X48254007Y-277358D01*
X48258412Y-279388D01*
X48324180Y-312899D01*
X48401921Y-352511D01*
X48477428Y-394241D01*
X48541480Y-429641D01*
X48545215Y-431882D01*
X48625839Y-484240D01*
X48680872Y-519980D01*
X48725864Y-551903D01*
X48810764Y-612142D01*
X48813886Y-614510D01*
X48938748Y-715621D01*
X48941034Y-717567D01*
X49058721Y-822738D01*
X49061248Y-825128D01*
X49174870Y-938750D01*
X49177260Y-941277D01*
X49282431Y-1058964D01*
X49284385Y-1061260D01*
X49385480Y-1186102D01*
X49387862Y-1189243D01*
X49480019Y-1319127D01*
X49519478Y-1379887D01*
X49568106Y-1454767D01*
X49570364Y-1458531D01*
X49647488Y-1598078D01*
X49720604Y-1741575D01*
X49722643Y-1745997D01*
X49783877Y-1893829D01*
X49841221Y-2043217D01*
X49842916Y-2048273D01*
X49887579Y-2203297D01*
X49928541Y-2356171D01*
X49929778Y-2361835D01*
X49957394Y-2524369D01*
X49981530Y-2676758D01*
X49982196Y-2682985D01*
X49992509Y-2866617D01*
X49999415Y-2998377D01*
X49999500Y-3001623D01*
X49999500Y-46998376D01*
X49999415Y-47001622D01*
X49992509Y-47133382D01*
X49982196Y-47317013D01*
X49981530Y-47323240D01*
X49957394Y-47475630D01*
X49929778Y-47638163D01*
X49928541Y-47643827D01*
X49887579Y-47796702D01*
X49842916Y-47951725D01*
X49841221Y-47956781D01*
X49783877Y-48106170D01*
X49722643Y-48254001D01*
X49720604Y-48258423D01*
X49647488Y-48401921D01*
X49570364Y-48541467D01*
X49568097Y-48545246D01*
X49480019Y-48680872D01*
X49387862Y-48810755D01*
X49385480Y-48813896D01*
X49284385Y-48938738D01*
X49282431Y-48941034D01*
X49177260Y-49058721D01*
X49174870Y-49061248D01*
X49061248Y-49174870D01*
X49058721Y-49177260D01*
X48941034Y-49282431D01*
X48938738Y-49284385D01*
X48813896Y-49385480D01*
X48810755Y-49387862D01*
X48680872Y-49480019D01*
X48545246Y-49568097D01*
X48541467Y-49570364D01*
X48401921Y-49647488D01*
X48258423Y-49720604D01*
X48254001Y-49722643D01*
X48106170Y-49783877D01*
X47956781Y-49841221D01*
X47951725Y-49842916D01*
X47796702Y-49887579D01*
X47643827Y-49928541D01*
X47638163Y-49929778D01*
X47475630Y-49957394D01*
X47323240Y-49981530D01*
X47317013Y-49982196D01*
X47133382Y-49992509D01*
X47001622Y-49999415D01*
X46998376Y-49999500D01*
X3001624Y-49999500D01*
X2998378Y-49999415D01*
X2866617Y-49992509D01*
X2682985Y-49982196D01*
X2676758Y-49981530D01*
X2524369Y-49957394D01*
X2361835Y-49929778D01*
X2356171Y-49928541D01*
X2203297Y-49887579D01*
X2048273Y-49842916D01*
X2043217Y-49841221D01*
X1893829Y-49783877D01*
X1745997Y-49722643D01*
X1741575Y-49720604D01*
X1598078Y-49647488D01*
X1458531Y-49570364D01*
X1454767Y-49568106D01*
X1401875Y-49533758D01*
X1319127Y-49480019D01*
X1189243Y-49387862D01*
X1186102Y-49385480D01*
X1061260Y-49284385D01*
X1058964Y-49282431D01*
X941277Y-49177260D01*
X938750Y-49174870D01*
X825128Y-49061248D01*
X822738Y-49058721D01*
X717567Y-48941034D01*
X715613Y-48938738D01*
X615946Y-48815659D01*
X614510Y-48813886D01*
X612136Y-48810755D01*
X611954Y-48810499D01*
X582053Y-48768357D01*
X519980Y-48680872D01*
X483119Y-48624112D01*
X431882Y-48545215D01*
X429641Y-48541480D01*
X393321Y-48475763D01*
X352511Y-48401921D01*
X299205Y-48297304D01*
X279388Y-48258412D01*
X277358Y-48254007D01*
X216122Y-48106170D01*
X158769Y-47956759D01*
X157082Y-47951724D01*
X112420Y-47796702D01*
X110331Y-47788904D01*
X71453Y-47643811D01*
X70226Y-47638194D01*
X42601Y-47475606D01*
X18465Y-47323212D01*
X17803Y-47317027D01*
X7490Y-47133382D01*
X584Y-47001620D01*
X500Y-46998377D01*
X500Y-45000000D01*
X1294922Y-45000000D01*
X1315219Y-45387287D01*
X1375886Y-45770323D01*
X1375887Y-45770330D01*
X1476262Y-46144936D01*
X1615244Y-46506994D01*
X1791310Y-46852543D01*
X2002531Y-47177793D01*
X2211095Y-47435350D01*
X2211096Y-47435350D01*
X3607413Y-46039032D01*
X3668736Y-46005547D01*
X3738427Y-46010531D01*
X3789381Y-46046179D01*
X3865130Y-46134870D01*
X3901818Y-46166204D01*
X3953816Y-46210615D01*
X3992009Y-46269122D01*
X3992507Y-46338990D01*
X3960965Y-46392586D01*
X2564648Y-47788903D01*
X2564649Y-47788904D01*
X2822206Y-47997468D01*
X3147456Y-48208689D01*
X3493005Y-48384755D01*
X3855063Y-48523737D01*
X4229669Y-48624112D01*
X4229676Y-48624113D01*
X4612712Y-48684780D01*
X4999999Y-48705078D01*
X5000001Y-48705078D01*
X5387287Y-48684780D01*
X5770323Y-48624113D01*
X5770330Y-48624112D01*
X6144936Y-48523737D01*
X6506994Y-48384755D01*
X6852543Y-48208689D01*
X7177783Y-47997476D01*
X7177785Y-47997475D01*
X7435349Y-47788902D01*
X6039033Y-46392586D01*
X6005548Y-46331263D01*
X6010532Y-46261571D01*
X6046180Y-46210617D01*
X6134870Y-46134870D01*
X6210617Y-46046180D01*
X6269121Y-46007990D01*
X6338989Y-46007490D01*
X6392586Y-46039033D01*
X7788902Y-47435349D01*
X7997475Y-47177785D01*
X7997475Y-47177783D01*
X8130618Y-46972761D01*
X8183638Y-46927258D01*
X8252843Y-46917643D01*
X8316260Y-46946970D01*
X8346333Y-46986495D01*
X8367253Y-47029935D01*
X8407993Y-47119626D01*
X8407994Y-47119629D01*
X8410483Y-47123221D01*
X8420269Y-47140026D01*
X8422166Y-47143965D01*
X8422174Y-47143979D01*
X8480078Y-47223676D01*
X8536180Y-47304655D01*
X8539273Y-47307748D01*
X8551907Y-47322539D01*
X8554478Y-47326078D01*
X8554481Y-47326081D01*
X8625679Y-47394153D01*
X9523642Y-48292116D01*
X9528279Y-48297304D01*
X9552492Y-48327666D01*
X9603967Y-48372639D01*
X9607000Y-48375474D01*
X9615471Y-48383945D01*
X9615475Y-48383949D01*
X9615479Y-48383952D01*
X9647817Y-48410949D01*
X9722001Y-48475763D01*
X9725750Y-48478003D01*
X9741624Y-48489265D01*
X9744981Y-48492068D01*
X9830659Y-48540683D01*
X9915236Y-48591215D01*
X9919327Y-48592750D01*
X9936955Y-48600996D01*
X9940755Y-48603153D01*
X10033746Y-48635692D01*
X10125976Y-48670307D01*
X10128565Y-48670776D01*
X10130274Y-48671087D01*
X10149089Y-48676053D01*
X10153217Y-48677498D01*
X10199195Y-48684780D01*
X10250527Y-48692910D01*
X10347450Y-48710500D01*
X10347453Y-48710500D01*
X10351828Y-48710500D01*
X10371231Y-48712028D01*
X10372938Y-48712297D01*
X10375540Y-48712710D01*
X10474002Y-48710500D01*
X18728561Y-48710500D01*
X18795600Y-48730185D01*
X18802872Y-48735233D01*
X18827668Y-48753795D01*
X18827671Y-48753797D01*
X18962517Y-48804091D01*
X18962516Y-48804091D01*
X18969444Y-48804835D01*
X19022127Y-48810500D01*
X20817872Y-48810499D01*
X20877483Y-48804091D01*
X21012331Y-48753796D01*
X21037127Y-48735233D01*
X21102592Y-48710816D01*
X21111439Y-48710500D01*
X21918659Y-48710500D01*
X21971063Y-48722118D01*
X21996330Y-48733900D01*
X21996332Y-48733900D01*
X21996337Y-48733903D01*
X21996342Y-48733904D01*
X21996344Y-48733905D01*
X22051285Y-48748626D01*
X22224592Y-48795063D01*
X22401034Y-48810500D01*
X22459999Y-48815659D01*
X22460000Y-48815659D01*
X22460001Y-48815659D01*
X22499234Y-48812226D01*
X22695408Y-48795063D01*
X22923663Y-48733903D01*
X23137830Y-48634035D01*
X23331401Y-48498495D01*
X23498495Y-48331401D01*
X23628730Y-48145405D01*
X23683307Y-48101781D01*
X23752805Y-48094587D01*
X23815160Y-48126110D01*
X23831879Y-48145405D01*
X23961890Y-48331078D01*
X24128917Y-48498105D01*
X24322421Y-48633600D01*
X24536507Y-48733429D01*
X24536516Y-48733433D01*
X24750000Y-48790634D01*
X24750000Y-48072301D01*
X24769685Y-48005262D01*
X24822489Y-47959507D01*
X24891647Y-47949563D01*
X24964237Y-47960000D01*
X24964238Y-47960000D01*
X25035762Y-47960000D01*
X25035763Y-47960000D01*
X25108353Y-47949563D01*
X25177512Y-47959507D01*
X25230315Y-48005262D01*
X25250000Y-48072301D01*
X25250000Y-48790633D01*
X25463483Y-48733433D01*
X25463492Y-48733429D01*
X25677578Y-48633600D01*
X25871082Y-48498105D01*
X26038105Y-48331082D01*
X26168425Y-48144968D01*
X26223002Y-48101344D01*
X26292501Y-48094151D01*
X26354855Y-48125673D01*
X26371575Y-48144968D01*
X26501894Y-48331082D01*
X26668917Y-48498105D01*
X26862421Y-48633600D01*
X27076507Y-48733429D01*
X27076516Y-48733433D01*
X27290000Y-48790634D01*
X27290000Y-48072301D01*
X27309685Y-48005262D01*
X27362489Y-47959507D01*
X27431647Y-47949563D01*
X27504237Y-47960000D01*
X27504238Y-47960000D01*
X27575762Y-47960000D01*
X27575763Y-47960000D01*
X27648353Y-47949563D01*
X27717512Y-47959507D01*
X27770315Y-48005262D01*
X27790000Y-48072301D01*
X27790000Y-48790633D01*
X28003483Y-48733433D01*
X28003492Y-48733429D01*
X28217578Y-48633600D01*
X28411082Y-48498105D01*
X28578105Y-48331082D01*
X28708119Y-48145405D01*
X28762696Y-48101781D01*
X28832195Y-48094588D01*
X28894549Y-48126110D01*
X28911269Y-48145405D01*
X29041505Y-48331401D01*
X29208599Y-48498495D01*
X29305384Y-48566264D01*
X29402165Y-48634032D01*
X29402167Y-48634033D01*
X29402170Y-48634035D01*
X29616337Y-48733903D01*
X29616343Y-48733904D01*
X29616344Y-48733905D01*
X29671285Y-48748626D01*
X29844592Y-48795063D01*
X30021034Y-48810500D01*
X30079999Y-48815659D01*
X30080000Y-48815659D01*
X30080001Y-48815659D01*
X30119234Y-48812226D01*
X30315408Y-48795063D01*
X30543663Y-48733903D01*
X30757830Y-48634035D01*
X30951401Y-48498495D01*
X31118495Y-48331401D01*
X31254035Y-48137830D01*
X31353903Y-47923663D01*
X31415063Y-47695408D01*
X31435659Y-47460000D01*
X31415063Y-47224592D01*
X31355319Y-47001622D01*
X31353905Y-46996344D01*
X31353904Y-46996343D01*
X31353903Y-46996337D01*
X31254035Y-46782171D01*
X31248731Y-46774595D01*
X31118494Y-46588597D01*
X30951402Y-46421506D01*
X30951396Y-46421501D01*
X30765842Y-46291575D01*
X30722217Y-46236998D01*
X30715023Y-46167500D01*
X30746546Y-46105145D01*
X30765842Y-46088425D01*
X30837139Y-46038502D01*
X30951401Y-45958495D01*
X31118495Y-45791401D01*
X31166126Y-45723376D01*
X31220704Y-45679751D01*
X31267701Y-45670500D01*
X33367770Y-45670500D01*
X33434809Y-45690185D01*
X33455451Y-45706819D01*
X33673282Y-45924650D01*
X33706767Y-45985973D01*
X33709129Y-46023137D01*
X33694532Y-46189996D01*
X33694532Y-46190001D01*
X33714364Y-46416686D01*
X33714366Y-46416697D01*
X33773258Y-46636488D01*
X33773261Y-46636497D01*
X33869431Y-46842732D01*
X33869432Y-46842734D01*
X33999954Y-47029141D01*
X34160858Y-47190045D01*
X34160861Y-47190047D01*
X34347266Y-47320568D01*
X34553504Y-47416739D01*
X34773308Y-47475635D01*
X34935230Y-47489801D01*
X34999998Y-47495468D01*
X35000000Y-47495468D01*
X35000002Y-47495468D01*
X35056673Y-47490509D01*
X35226692Y-47475635D01*
X35446496Y-47416739D01*
X35652734Y-47320568D01*
X35839139Y-47190047D01*
X36000047Y-47029139D01*
X36130568Y-46842734D01*
X36157618Y-46784724D01*
X36203790Y-46732285D01*
X36270983Y-46713133D01*
X36337865Y-46733348D01*
X36382382Y-46784725D01*
X36409429Y-46842728D01*
X36409432Y-46842734D01*
X36539954Y-47029141D01*
X36700858Y-47190045D01*
X36700861Y-47190047D01*
X36887266Y-47320568D01*
X37093504Y-47416739D01*
X37313308Y-47475635D01*
X37475230Y-47489801D01*
X37539998Y-47495468D01*
X37540000Y-47495468D01*
X37540002Y-47495468D01*
X37596673Y-47490509D01*
X37766692Y-47475635D01*
X37986496Y-47416739D01*
X38192734Y-47320568D01*
X38379139Y-47190047D01*
X38540047Y-47029139D01*
X38670568Y-46842734D01*
X38766739Y-46636496D01*
X38825635Y-46416692D01*
X38845468Y-46190000D01*
X38825635Y-45963308D01*
X38766739Y-45743504D01*
X38670568Y-45537266D01*
X38563015Y-45383663D01*
X38540048Y-45350862D01*
X38540044Y-45350858D01*
X38379139Y-45189953D01*
X38374373Y-45186615D01*
X38343375Y-45164910D01*
X38299751Y-45110332D01*
X38290500Y-45063336D01*
X38290500Y-45000000D01*
X41294922Y-45000000D01*
X41315219Y-45387287D01*
X41375886Y-45770323D01*
X41375887Y-45770330D01*
X41476262Y-46144936D01*
X41615244Y-46506994D01*
X41791310Y-46852543D01*
X42002531Y-47177793D01*
X42211095Y-47435350D01*
X42211096Y-47435350D01*
X43607413Y-46039032D01*
X43668736Y-46005547D01*
X43738427Y-46010531D01*
X43789381Y-46046179D01*
X43865130Y-46134870D01*
X43901818Y-46166204D01*
X43953816Y-46210615D01*
X43992009Y-46269122D01*
X43992507Y-46338990D01*
X43960965Y-46392586D01*
X42564648Y-47788903D01*
X42564649Y-47788904D01*
X42822206Y-47997468D01*
X43147456Y-48208689D01*
X43493005Y-48384755D01*
X43855063Y-48523737D01*
X44229669Y-48624112D01*
X44229676Y-48624113D01*
X44612712Y-48684780D01*
X44999999Y-48705078D01*
X45000001Y-48705078D01*
X45387287Y-48684780D01*
X45770323Y-48624113D01*
X45770330Y-48624112D01*
X46144936Y-48523737D01*
X46506994Y-48384755D01*
X46852543Y-48208689D01*
X47177783Y-47997476D01*
X47177785Y-47997475D01*
X47435349Y-47788902D01*
X46039033Y-46392586D01*
X46005548Y-46331263D01*
X46010532Y-46261571D01*
X46046180Y-46210617D01*
X46134870Y-46134870D01*
X46210617Y-46046180D01*
X46269121Y-46007990D01*
X46338989Y-46007490D01*
X46392586Y-46039033D01*
X47788902Y-47435349D01*
X47997475Y-47177785D01*
X47997476Y-47177783D01*
X48208689Y-46852543D01*
X48384755Y-46506994D01*
X48523737Y-46144936D01*
X48624112Y-45770330D01*
X48624113Y-45770323D01*
X48684780Y-45387287D01*
X48705078Y-45000000D01*
X48705078Y-44999999D01*
X48684780Y-44612712D01*
X48624113Y-44229676D01*
X48624112Y-44229669D01*
X48523737Y-43855063D01*
X48384755Y-43493005D01*
X48208689Y-43147456D01*
X47997468Y-42822206D01*
X47788904Y-42564649D01*
X47788903Y-42564648D01*
X46392586Y-43960965D01*
X46331263Y-43994450D01*
X46261571Y-43989466D01*
X46210615Y-43953816D01*
X46153726Y-43887208D01*
X46134870Y-43865130D01*
X46046179Y-43789381D01*
X46007989Y-43730878D01*
X46007489Y-43661010D01*
X46039032Y-43607413D01*
X47435350Y-42211096D01*
X47435350Y-42211095D01*
X47177793Y-42002531D01*
X46852543Y-41791310D01*
X46506994Y-41615244D01*
X46144936Y-41476262D01*
X45770330Y-41375887D01*
X45770323Y-41375886D01*
X45387287Y-41315219D01*
X45000001Y-41294922D01*
X44999999Y-41294922D01*
X44612712Y-41315219D01*
X44229676Y-41375886D01*
X44229669Y-41375887D01*
X43855063Y-41476262D01*
X43493005Y-41615244D01*
X43147456Y-41791310D01*
X42822206Y-42002531D01*
X42564648Y-42211095D01*
X42564648Y-42211096D01*
X43960966Y-43607413D01*
X43994451Y-43668736D01*
X43989467Y-43738428D01*
X43953817Y-43789384D01*
X43865130Y-43865130D01*
X43789384Y-43953817D01*
X43730877Y-43992010D01*
X43661009Y-43992508D01*
X43607413Y-43960966D01*
X42211096Y-42564648D01*
X42211095Y-42564648D01*
X42002531Y-42822206D01*
X41791310Y-43147456D01*
X41615244Y-43493005D01*
X41476262Y-43855063D01*
X41375887Y-44229669D01*
X41375886Y-44229676D01*
X41315219Y-44612712D01*
X41294922Y-44999999D01*
X41294922Y-45000000D01*
X38290500Y-45000000D01*
X38290500Y-44103705D01*
X38291809Y-44085735D01*
X38295289Y-44061974D01*
X38290736Y-44009939D01*
X38290500Y-44004532D01*
X38290500Y-43996296D01*
X38290500Y-43996291D01*
X38286691Y-43963705D01*
X38279998Y-43887203D01*
X38279995Y-43887194D01*
X38278538Y-43880135D01*
X38278598Y-43880122D01*
X38276966Y-43872764D01*
X38276908Y-43872778D01*
X38275241Y-43865747D01*
X38275241Y-43865745D01*
X38248969Y-43793563D01*
X38241223Y-43770185D01*
X38224815Y-43720668D01*
X38221762Y-43714121D01*
X38221815Y-43714095D01*
X38218531Y-43707311D01*
X38218479Y-43707338D01*
X38215236Y-43700882D01*
X38173034Y-43636716D01*
X38132714Y-43571347D01*
X38128234Y-43565681D01*
X38128280Y-43565643D01*
X38123519Y-43559799D01*
X38123474Y-43559838D01*
X38118834Y-43554308D01*
X38062982Y-43501613D01*
X37523549Y-42962181D01*
X37490064Y-42900858D01*
X37495048Y-42831167D01*
X37536919Y-42775233D01*
X37602384Y-42750816D01*
X37611230Y-42750500D01*
X40936295Y-42750500D01*
X40954265Y-42751809D01*
X40978023Y-42755289D01*
X41030068Y-42750735D01*
X41035470Y-42750500D01*
X41043704Y-42750500D01*
X41043709Y-42750500D01*
X41055327Y-42749141D01*
X41076276Y-42746693D01*
X41089028Y-42745577D01*
X41152797Y-42739999D01*
X41152805Y-42739996D01*
X41159866Y-42738539D01*
X41159878Y-42738598D01*
X41167243Y-42736965D01*
X41167229Y-42736906D01*
X41174246Y-42735241D01*
X41174255Y-42735241D01*
X41246423Y-42708974D01*
X41319334Y-42684814D01*
X41319343Y-42684807D01*
X41325882Y-42681760D01*
X41325908Y-42681816D01*
X41332690Y-42678532D01*
X41332663Y-42678478D01*
X41339106Y-42675240D01*
X41339117Y-42675237D01*
X41403283Y-42633034D01*
X41468656Y-42592712D01*
X41468662Y-42592705D01*
X41474325Y-42588229D01*
X41474363Y-42588277D01*
X41480200Y-42583522D01*
X41480161Y-42583475D01*
X41485696Y-42578830D01*
X41538385Y-42522983D01*
X44392035Y-39669332D01*
X45445642Y-38615724D01*
X45459271Y-38603947D01*
X45478530Y-38589610D01*
X45512101Y-38549601D01*
X45515761Y-38545606D01*
X45521590Y-38539778D01*
X45541941Y-38514039D01*
X45547948Y-38506879D01*
X45591302Y-38455214D01*
X45591306Y-38455205D01*
X45595274Y-38449175D01*
X45595325Y-38449208D01*
X45599372Y-38442856D01*
X45599320Y-38442824D01*
X45603112Y-38436675D01*
X45635575Y-38367058D01*
X45661897Y-38314646D01*
X45670040Y-38298433D01*
X45670042Y-38298421D01*
X45672509Y-38291646D01*
X45672567Y-38291667D01*
X45675043Y-38284546D01*
X45674986Y-38284527D01*
X45677255Y-38277680D01*
X45677256Y-38277675D01*
X45677257Y-38277673D01*
X45692791Y-38202437D01*
X45710500Y-38127721D01*
X45710500Y-38127719D01*
X45711339Y-38120548D01*
X45711398Y-38120554D01*
X45712164Y-38113054D01*
X45712105Y-38113049D01*
X45712734Y-38105859D01*
X45710500Y-38029082D01*
X45710500Y-37687700D01*
X45730185Y-37620661D01*
X45763375Y-37586126D01*
X45831401Y-37538495D01*
X45998495Y-37371401D01*
X46128424Y-37185842D01*
X46183002Y-37142217D01*
X46252500Y-37135023D01*
X46314855Y-37166546D01*
X46331575Y-37185842D01*
X46461500Y-37371395D01*
X46461505Y-37371401D01*
X46628599Y-37538495D01*
X46713757Y-37598123D01*
X46822165Y-37674032D01*
X46822167Y-37674033D01*
X46822170Y-37674035D01*
X47036337Y-37773903D01*
X47264592Y-37835063D01*
X47441034Y-37850500D01*
X47499999Y-37855659D01*
X47500000Y-37855659D01*
X47500001Y-37855659D01*
X47558966Y-37850500D01*
X47735408Y-37835063D01*
X47963663Y-37773903D01*
X48177830Y-37674035D01*
X48371401Y-37538495D01*
X48538495Y-37371401D01*
X48674035Y-37177830D01*
X48773903Y-36963663D01*
X48835063Y-36735408D01*
X48855659Y-36500000D01*
X48835063Y-36264592D01*
X48773903Y-36036337D01*
X48674035Y-35822171D01*
X48668425Y-35814158D01*
X48538494Y-35628597D01*
X48371402Y-35461506D01*
X48371395Y-35461501D01*
X48177834Y-35325967D01*
X48177830Y-35325965D01*
X48123218Y-35300499D01*
X47963663Y-35226097D01*
X47963659Y-35226096D01*
X47963655Y-35226094D01*
X47735413Y-35164938D01*
X47735403Y-35164936D01*
X47500001Y-35144341D01*
X47499999Y-35144341D01*
X47264596Y-35164936D01*
X47264586Y-35164938D01*
X47036344Y-35226094D01*
X47036335Y-35226098D01*
X46822171Y-35325964D01*
X46822169Y-35325965D01*
X46628597Y-35461505D01*
X46461505Y-35628597D01*
X46331575Y-35814158D01*
X46276998Y-35857783D01*
X46207500Y-35864977D01*
X46145145Y-35833454D01*
X46128425Y-35814158D01*
X45998494Y-35628597D01*
X45831402Y-35461506D01*
X45831395Y-35461501D01*
X45637834Y-35325967D01*
X45637830Y-35325965D01*
X45583218Y-35300499D01*
X45423663Y-35226097D01*
X45423659Y-35226096D01*
X45423655Y-35226094D01*
X45195413Y-35164938D01*
X45195403Y-35164936D01*
X44960001Y-35144341D01*
X44959999Y-35144341D01*
X44724596Y-35164936D01*
X44724586Y-35164938D01*
X44496344Y-35226094D01*
X44496335Y-35226098D01*
X44282171Y-35325964D01*
X44282169Y-35325965D01*
X44088600Y-35461503D01*
X43966673Y-35583430D01*
X43905350Y-35616914D01*
X43835658Y-35611930D01*
X43779725Y-35570058D01*
X43762810Y-35539081D01*
X43713797Y-35407671D01*
X43713793Y-35407664D01*
X43627547Y-35292455D01*
X43627544Y-35292452D01*
X43512335Y-35206206D01*
X43512328Y-35206202D01*
X43377482Y-35155908D01*
X43377483Y-35155908D01*
X43317883Y-35149501D01*
X43317881Y-35149500D01*
X43317873Y-35149500D01*
X43317864Y-35149500D01*
X41522129Y-35149500D01*
X41522123Y-35149501D01*
X41462516Y-35155908D01*
X41327671Y-35206202D01*
X41327664Y-35206206D01*
X41212455Y-35292452D01*
X41212452Y-35292455D01*
X41126206Y-35407664D01*
X41126202Y-35407671D01*
X41075908Y-35542517D01*
X41069501Y-35602116D01*
X41069500Y-35602135D01*
X41069500Y-37397870D01*
X41069501Y-37397876D01*
X41075908Y-37457483D01*
X41126202Y-37592328D01*
X41126206Y-37592335D01*
X41212452Y-37707544D01*
X41212455Y-37707547D01*
X41327664Y-37793793D01*
X41327671Y-37793797D01*
X41462517Y-37844091D01*
X41462516Y-37844091D01*
X41469444Y-37844835D01*
X41522127Y-37850500D01*
X43317872Y-37850499D01*
X43377483Y-37844091D01*
X43512331Y-37793796D01*
X43627546Y-37707546D01*
X43713796Y-37592331D01*
X43762810Y-37460916D01*
X43804681Y-37404984D01*
X43870145Y-37380566D01*
X43938418Y-37395417D01*
X43966670Y-37416566D01*
X44088599Y-37538495D01*
X44150782Y-37582036D01*
X44194407Y-37636610D01*
X44201601Y-37706109D01*
X44170079Y-37768464D01*
X44167340Y-37771291D01*
X40725451Y-41213181D01*
X40664128Y-41246666D01*
X40637770Y-41249500D01*
X27983705Y-41249500D01*
X27965735Y-41248191D01*
X27941972Y-41244710D01*
X27896533Y-41248686D01*
X27889931Y-41249264D01*
X27884530Y-41249500D01*
X27876289Y-41249500D01*
X27854579Y-41252037D01*
X27843724Y-41253306D01*
X27828419Y-41254645D01*
X27767199Y-41260001D01*
X27760132Y-41261460D01*
X27760120Y-41261404D01*
X27752763Y-41263035D01*
X27752777Y-41263092D01*
X27745743Y-41264759D01*
X27673575Y-41291025D01*
X27600675Y-41315181D01*
X27594126Y-41318236D01*
X27594101Y-41318183D01*
X27587308Y-41321471D01*
X27587334Y-41321523D01*
X27580880Y-41324764D01*
X27516708Y-41366971D01*
X27451347Y-41407285D01*
X27445683Y-41411765D01*
X27445647Y-41411719D01*
X27439798Y-41416484D01*
X27439835Y-41416528D01*
X27434310Y-41421164D01*
X27381597Y-41477035D01*
X25311500Y-43547130D01*
X25250177Y-43580615D01*
X25213012Y-43582977D01*
X25000002Y-43564341D01*
X24999999Y-43564341D01*
X24764596Y-43584936D01*
X24764586Y-43584938D01*
X24536344Y-43646094D01*
X24536335Y-43646098D01*
X24322171Y-43745964D01*
X24322169Y-43745965D01*
X24128597Y-43881505D01*
X23961505Y-44048597D01*
X23831575Y-44234158D01*
X23776998Y-44277783D01*
X23707500Y-44284977D01*
X23645145Y-44253454D01*
X23628425Y-44234158D01*
X23498494Y-44048597D01*
X23331402Y-43881506D01*
X23331395Y-43881501D01*
X23318937Y-43872778D01*
X23259511Y-43831167D01*
X23137834Y-43745967D01*
X23137830Y-43745965D01*
X23105476Y-43730878D01*
X22923663Y-43646097D01*
X22923659Y-43646096D01*
X22923655Y-43646094D01*
X22695413Y-43584938D01*
X22695403Y-43584936D01*
X22460001Y-43564341D01*
X22459999Y-43564341D01*
X22224596Y-43584936D01*
X22224586Y-43584938D01*
X21996344Y-43646094D01*
X21996335Y-43646098D01*
X21782171Y-43745964D01*
X21782169Y-43745965D01*
X21588597Y-43881505D01*
X21421505Y-44048597D01*
X21291575Y-44234158D01*
X21236998Y-44277783D01*
X21167500Y-44284977D01*
X21105145Y-44253454D01*
X21088425Y-44234158D01*
X20958496Y-44048600D01*
X20899362Y-43989466D01*
X20823310Y-43913414D01*
X20789827Y-43852094D01*
X20794811Y-43782402D01*
X20823310Y-43738056D01*
X24424548Y-40136819D01*
X24485871Y-40103334D01*
X24512229Y-40100500D01*
X25125005Y-40100500D01*
X25125010Y-40100500D01*
X25227798Y-40089999D01*
X25394335Y-40034814D01*
X25543656Y-39942712D01*
X25667712Y-39818656D01*
X25759814Y-39669335D01*
X25814999Y-39502798D01*
X25825500Y-39400010D01*
X25825500Y-38399990D01*
X25814999Y-38297202D01*
X25759814Y-38130665D01*
X25667712Y-37981344D01*
X25543656Y-37857288D01*
X25408471Y-37773905D01*
X25394337Y-37765187D01*
X25394332Y-37765185D01*
X25392863Y-37764698D01*
X25227798Y-37710001D01*
X25227796Y-37710000D01*
X25125017Y-37699500D01*
X25125010Y-37699500D01*
X22874990Y-37699500D01*
X22874982Y-37699500D01*
X22772203Y-37710000D01*
X22772202Y-37710001D01*
X22729389Y-37724188D01*
X22605667Y-37765185D01*
X22605662Y-37765187D01*
X22456342Y-37857289D01*
X22332289Y-37981342D01*
X22240187Y-38130662D01*
X22240185Y-38130665D01*
X22240186Y-38130665D01*
X22185001Y-38297202D01*
X22185001Y-38297203D01*
X22185000Y-38297203D01*
X22174500Y-38399982D01*
X22174500Y-39400017D01*
X22185000Y-39502796D01*
X22240185Y-39669332D01*
X22240187Y-39669337D01*
X22332289Y-39818657D01*
X22388450Y-39874818D01*
X22421935Y-39936141D01*
X22416951Y-40005833D01*
X22388450Y-40050180D01*
X19434358Y-43004272D01*
X19420729Y-43016051D01*
X19401468Y-43030390D01*
X19367898Y-43070397D01*
X19364253Y-43074376D01*
X19358409Y-43080222D01*
X19338059Y-43105959D01*
X19288695Y-43164789D01*
X19284729Y-43170819D01*
X19284682Y-43170788D01*
X19280630Y-43177147D01*
X19280679Y-43177177D01*
X19276889Y-43183321D01*
X19244424Y-43252941D01*
X19209960Y-43321566D01*
X19207488Y-43328357D01*
X19207432Y-43328336D01*
X19204960Y-43335450D01*
X19205015Y-43335469D01*
X19202742Y-43342327D01*
X19197769Y-43366415D01*
X19187207Y-43417565D01*
X19174001Y-43473284D01*
X19169498Y-43492286D01*
X19168661Y-43499454D01*
X19168601Y-43499447D01*
X19167835Y-43506945D01*
X19167895Y-43506951D01*
X19167265Y-43514140D01*
X19169500Y-43590916D01*
X19169500Y-43732298D01*
X19149815Y-43799337D01*
X19116625Y-43833872D01*
X19048595Y-43881507D01*
X18881505Y-44048597D01*
X18745965Y-44242169D01*
X18745964Y-44242171D01*
X18646098Y-44456335D01*
X18646094Y-44456344D01*
X18584938Y-44684586D01*
X18584936Y-44684596D01*
X18564341Y-44919999D01*
X18564341Y-44920000D01*
X18584936Y-45155403D01*
X18584938Y-45155413D01*
X18646094Y-45383655D01*
X18646096Y-45383659D01*
X18646097Y-45383663D01*
X18717724Y-45537267D01*
X18745965Y-45597830D01*
X18745967Y-45597834D01*
X18822280Y-45706819D01*
X18881501Y-45791396D01*
X18881506Y-45791402D01*
X19003430Y-45913326D01*
X19036915Y-45974649D01*
X19031931Y-46044341D01*
X18990059Y-46100274D01*
X18959083Y-46117189D01*
X18827669Y-46166203D01*
X18827668Y-46166204D01*
X18802872Y-46184767D01*
X18737408Y-46209184D01*
X18728561Y-46209500D01*
X11029336Y-46209500D01*
X10962297Y-46189815D01*
X10941655Y-46173181D01*
X10786819Y-46018345D01*
X10753334Y-45957022D01*
X10750500Y-45930664D01*
X10750500Y-42073706D01*
X10750889Y-42066767D01*
X10755238Y-42028173D01*
X10750639Y-41959967D01*
X10750500Y-41955812D01*
X10750500Y-41943849D01*
X10750500Y-41943845D01*
X10746722Y-41901876D01*
X10740096Y-41803588D01*
X10739027Y-41799348D01*
X10735768Y-41780169D01*
X10735377Y-41775812D01*
X10709166Y-41680840D01*
X10685096Y-41585316D01*
X10683290Y-41581340D01*
X10676654Y-41563039D01*
X10675493Y-41558830D01*
X10632749Y-41470071D01*
X10592007Y-41380374D01*
X10589517Y-41376780D01*
X10579725Y-41359964D01*
X10577831Y-41356030D01*
X10519921Y-41276322D01*
X10463826Y-41195354D01*
X10463823Y-41195350D01*
X10463820Y-41195346D01*
X10460729Y-41192255D01*
X10448093Y-41177461D01*
X10445521Y-41173921D01*
X10445519Y-41173919D01*
X10374320Y-41105846D01*
X6286819Y-37018344D01*
X6253334Y-36957021D01*
X6250500Y-36930663D01*
X6250500Y-24069335D01*
X6270185Y-24002296D01*
X6286815Y-23981658D01*
X6367820Y-23900653D01*
X6429142Y-23867169D01*
X6498834Y-23872153D01*
X6554767Y-23914025D01*
X6579184Y-23979489D01*
X6579500Y-23988335D01*
X6579500Y-25347870D01*
X6579501Y-25347876D01*
X6585908Y-25407483D01*
X6636202Y-25542328D01*
X6636206Y-25542335D01*
X6722452Y-25657544D01*
X6722455Y-25657547D01*
X6837664Y-25743793D01*
X6837671Y-25743797D01*
X6972517Y-25794091D01*
X6972516Y-25794091D01*
X6979444Y-25794835D01*
X7032127Y-25800500D01*
X8727872Y-25800499D01*
X8787483Y-25794091D01*
X8922331Y-25743796D01*
X9037546Y-25657546D01*
X9123796Y-25542331D01*
X9174091Y-25407483D01*
X9177862Y-25372401D01*
X9204599Y-25307855D01*
X9261990Y-25268006D01*
X9331816Y-25265511D01*
X9391905Y-25301163D01*
X9402726Y-25314536D01*
X9419956Y-25339143D01*
X9580858Y-25500045D01*
X9580861Y-25500047D01*
X9767266Y-25630568D01*
X9973504Y-25726739D01*
X10193308Y-25785635D01*
X10355230Y-25799801D01*
X10419998Y-25805468D01*
X10420000Y-25805468D01*
X10420002Y-25805468D01*
X10476807Y-25800498D01*
X10646692Y-25785635D01*
X10866496Y-25726739D01*
X11072734Y-25630568D01*
X11259139Y-25500047D01*
X11420047Y-25339139D01*
X11550568Y-25152734D01*
X11577618Y-25094724D01*
X11623790Y-25042285D01*
X11690983Y-25023133D01*
X11757865Y-25043348D01*
X11802382Y-25094725D01*
X11829429Y-25152728D01*
X11829432Y-25152734D01*
X11959954Y-25339141D01*
X12120858Y-25500045D01*
X12120861Y-25500047D01*
X12307266Y-25630568D01*
X12513504Y-25726739D01*
X12733308Y-25785635D01*
X12895230Y-25799801D01*
X12959998Y-25805468D01*
X12960000Y-25805468D01*
X12960001Y-25805468D01*
X12980062Y-25803712D01*
X13126861Y-25790869D01*
X13195359Y-25804635D01*
X13225348Y-25826716D01*
X17884267Y-30485634D01*
X17896048Y-30499266D01*
X17910390Y-30518530D01*
X17950420Y-30552119D01*
X17954392Y-30555759D01*
X17960224Y-30561591D01*
X17960227Y-30561594D01*
X17985947Y-30581931D01*
X18044788Y-30631304D01*
X18050818Y-30635270D01*
X18050785Y-30635319D01*
X18057143Y-30639369D01*
X18057175Y-30639319D01*
X18063320Y-30643109D01*
X18063323Y-30643111D01*
X18132936Y-30675572D01*
X18201567Y-30710040D01*
X18201572Y-30710041D01*
X18208361Y-30712513D01*
X18208340Y-30712570D01*
X18215455Y-30715043D01*
X18215475Y-30714986D01*
X18222330Y-30717258D01*
X18297558Y-30732790D01*
X18372279Y-30750500D01*
X18372289Y-30750500D01*
X18379452Y-30751338D01*
X18379444Y-30751397D01*
X18386945Y-30752164D01*
X18386951Y-30752105D01*
X18394140Y-30752734D01*
X18394144Y-30752733D01*
X18394145Y-30752734D01*
X18470918Y-30750500D01*
X22806442Y-30750500D01*
X22873481Y-30770185D01*
X22911979Y-30809401D01*
X22974469Y-30910713D01*
X22994789Y-30943657D01*
X23118845Y-31067713D01*
X23124513Y-31072195D01*
X23123070Y-31074019D01*
X23162320Y-31117654D01*
X23174500Y-31171248D01*
X23174500Y-32775500D01*
X23154815Y-32842539D01*
X23102011Y-32888294D01*
X23050500Y-32899500D01*
X22874982Y-32899500D01*
X22772203Y-32910000D01*
X22772202Y-32910001D01*
X22689669Y-32937349D01*
X22605667Y-32965185D01*
X22605662Y-32965187D01*
X22456342Y-33057289D01*
X22332289Y-33181342D01*
X22240187Y-33330662D01*
X22240185Y-33330665D01*
X22240186Y-33330665D01*
X22185001Y-33497202D01*
X22185001Y-33497203D01*
X22185000Y-33497203D01*
X22174500Y-33599982D01*
X22174500Y-34600017D01*
X22185000Y-34702796D01*
X22185001Y-34702798D01*
X22240186Y-34869335D01*
X22332288Y-35018656D01*
X22456344Y-35142712D01*
X22605665Y-35234814D01*
X22772202Y-35289999D01*
X22874990Y-35300500D01*
X22874995Y-35300500D01*
X25125005Y-35300500D01*
X25125010Y-35300500D01*
X25227798Y-35289999D01*
X25394335Y-35234814D01*
X25543656Y-35142712D01*
X25667712Y-35018656D01*
X25759814Y-34869335D01*
X25814999Y-34702798D01*
X25825500Y-34600010D01*
X25825500Y-33599990D01*
X25814999Y-33497202D01*
X25759814Y-33330665D01*
X25667712Y-33181344D01*
X25543656Y-33057288D01*
X25394335Y-32965186D01*
X25227798Y-32910001D01*
X25227796Y-32910000D01*
X25125017Y-32899500D01*
X25125010Y-32899500D01*
X24799500Y-32899500D01*
X24732461Y-32879815D01*
X24686706Y-32827011D01*
X24675500Y-32775500D01*
X24675500Y-31171248D01*
X24695185Y-31104209D01*
X24726496Y-31073471D01*
X24725487Y-31072195D01*
X24731154Y-31067713D01*
X24731153Y-31067713D01*
X24731156Y-31067712D01*
X24855212Y-30943656D01*
X24856961Y-30940819D01*
X24858669Y-30939283D01*
X24859693Y-30937989D01*
X24859914Y-30938163D01*
X24908906Y-30894096D01*
X24977868Y-30882872D01*
X25041951Y-30910713D01*
X25068037Y-30940817D01*
X25069788Y-30943656D01*
X25193844Y-31067712D01*
X25343166Y-31159814D01*
X25509703Y-31214999D01*
X25612491Y-31225500D01*
X26387508Y-31225499D01*
X26387516Y-31225498D01*
X26387519Y-31225498D01*
X26443802Y-31219748D01*
X26490297Y-31214999D01*
X26656834Y-31159814D01*
X26806156Y-31067712D01*
X26930212Y-30943656D01*
X27022314Y-30794334D01*
X27077499Y-30627797D01*
X27088000Y-30525009D01*
X27087999Y-29474992D01*
X27077499Y-29372203D01*
X27022314Y-29205666D01*
X26930212Y-29056344D01*
X26806156Y-28932288D01*
X26656834Y-28840186D01*
X26490297Y-28785001D01*
X26490295Y-28785000D01*
X26387510Y-28774500D01*
X25612498Y-28774500D01*
X25612480Y-28774501D01*
X25509703Y-28785000D01*
X25509700Y-28785001D01*
X25343168Y-28840185D01*
X25343163Y-28840187D01*
X25193842Y-28932289D01*
X25069788Y-29056343D01*
X25069782Y-29056351D01*
X25068031Y-29059190D01*
X25066323Y-29060725D01*
X25065307Y-29062011D01*
X25065087Y-29061837D01*
X25016079Y-29105910D01*
X24947115Y-29117125D01*
X24883036Y-29089275D01*
X24856959Y-29059176D01*
X24855212Y-29056344D01*
X24786819Y-28987951D01*
X24753334Y-28926628D01*
X24750500Y-28900270D01*
X24750500Y-28862229D01*
X24770185Y-28795190D01*
X24786819Y-28774548D01*
X25274548Y-28286819D01*
X25335871Y-28253334D01*
X25362229Y-28250500D01*
X33637770Y-28250500D01*
X33704809Y-28270185D01*
X33725451Y-28286819D01*
X38424270Y-32985638D01*
X38436051Y-32999270D01*
X38450388Y-33018528D01*
X38450389Y-33018529D01*
X38450390Y-33018530D01*
X38459472Y-33026150D01*
X38490409Y-33052111D01*
X38494397Y-33055766D01*
X38500216Y-33061585D01*
X38500220Y-33061588D01*
X38500223Y-33061591D01*
X38525959Y-33081940D01*
X38584786Y-33131302D01*
X38584787Y-33131302D01*
X38584789Y-33131304D01*
X38590818Y-33135270D01*
X38590785Y-33135319D01*
X38597147Y-33139372D01*
X38597179Y-33139321D01*
X38603319Y-33143108D01*
X38603323Y-33143111D01*
X38638132Y-33159343D01*
X38672941Y-33175575D01*
X38691336Y-33184813D01*
X38741567Y-33210040D01*
X38741569Y-33210040D01*
X38748357Y-33212511D01*
X38748336Y-33212567D01*
X38755457Y-33215043D01*
X38755476Y-33214986D01*
X38762322Y-33217254D01*
X38762327Y-33217257D01*
X38762332Y-33217258D01*
X38762335Y-33217259D01*
X38837565Y-33232792D01*
X38912279Y-33250500D01*
X38912282Y-33250500D01*
X38912286Y-33250501D01*
X38919453Y-33251339D01*
X38919446Y-33251398D01*
X38926944Y-33252164D01*
X38926950Y-33252105D01*
X38934139Y-33252734D01*
X38934143Y-33252733D01*
X38934144Y-33252734D01*
X39010917Y-33250500D01*
X43976295Y-33250500D01*
X43994265Y-33251809D01*
X44018023Y-33255289D01*
X44070068Y-33250735D01*
X44075470Y-33250500D01*
X44083704Y-33250500D01*
X44083709Y-33250500D01*
X44095327Y-33249141D01*
X44116276Y-33246693D01*
X44129028Y-33245577D01*
X44192797Y-33239999D01*
X44192805Y-33239996D01*
X44199866Y-33238539D01*
X44199878Y-33238598D01*
X44207243Y-33236965D01*
X44207229Y-33236906D01*
X44214246Y-33235241D01*
X44214255Y-33235241D01*
X44286423Y-33208974D01*
X44359334Y-33184814D01*
X44359343Y-33184807D01*
X44365882Y-33181760D01*
X44365908Y-33181816D01*
X44372690Y-33178532D01*
X44372663Y-33178478D01*
X44379106Y-33175240D01*
X44379117Y-33175237D01*
X44443283Y-33133034D01*
X44508656Y-33092712D01*
X44508662Y-33092705D01*
X44514325Y-33088229D01*
X44514362Y-33088277D01*
X44520204Y-33083518D01*
X44520164Y-33083471D01*
X44525691Y-33078832D01*
X44525696Y-33078830D01*
X44547456Y-33055766D01*
X44578386Y-33022981D01*
X44825867Y-32775500D01*
X47228498Y-30372867D01*
X47289819Y-30339384D01*
X47326983Y-30337022D01*
X47469861Y-30349522D01*
X47539999Y-30355659D01*
X47540000Y-30355659D01*
X47540001Y-30355659D01*
X47598966Y-30350500D01*
X47775408Y-30335063D01*
X48003663Y-30273903D01*
X48217830Y-30174035D01*
X48411401Y-30038495D01*
X48578495Y-29871401D01*
X48714035Y-29677830D01*
X48813903Y-29463663D01*
X48875063Y-29235408D01*
X48895659Y-29000000D01*
X48875063Y-28764592D01*
X48813903Y-28536337D01*
X48714035Y-28322171D01*
X48708425Y-28314158D01*
X48578494Y-28128597D01*
X48411402Y-27961506D01*
X48411395Y-27961501D01*
X48217834Y-27825967D01*
X48217830Y-27825965D01*
X48217828Y-27825964D01*
X48003663Y-27726097D01*
X48003659Y-27726096D01*
X48003655Y-27726094D01*
X47775413Y-27664938D01*
X47775403Y-27664936D01*
X47540001Y-27644341D01*
X47539999Y-27644341D01*
X47304596Y-27664936D01*
X47304586Y-27664938D01*
X47076344Y-27726094D01*
X47076335Y-27726098D01*
X46862171Y-27825964D01*
X46862169Y-27825965D01*
X46668597Y-27961505D01*
X46501505Y-28128597D01*
X46371575Y-28314158D01*
X46316998Y-28357783D01*
X46247500Y-28364977D01*
X46185145Y-28333454D01*
X46168425Y-28314158D01*
X46038496Y-28128600D01*
X45911818Y-28001921D01*
X45878334Y-27940598D01*
X45875500Y-27914240D01*
X45875500Y-25414005D01*
X45895185Y-25346966D01*
X45911814Y-25326329D01*
X48092142Y-23146000D01*
X48095810Y-23142618D01*
X48139357Y-23105631D01*
X48189808Y-23039262D01*
X48242030Y-22974297D01*
X48242109Y-22974138D01*
X48254489Y-22954177D01*
X48254602Y-22954029D01*
X48289610Y-22878359D01*
X48326641Y-22803693D01*
X48326685Y-22803514D01*
X48334484Y-22781363D01*
X48334562Y-22781197D01*
X48338786Y-22762010D01*
X48352485Y-22699771D01*
X48355825Y-22686337D01*
X48372600Y-22618889D01*
X48372604Y-22618715D01*
X48375461Y-22595391D01*
X48375500Y-22595216D01*
X48375500Y-22511840D01*
X48377757Y-22428527D01*
X48377720Y-22428334D01*
X48375500Y-22404975D01*
X48375500Y-12538110D01*
X48375705Y-12533075D01*
X48377203Y-12514672D01*
X48380340Y-12476152D01*
X48369083Y-12393537D01*
X48360073Y-12310684D01*
X48360014Y-12310509D01*
X48354656Y-12287649D01*
X48354631Y-12287463D01*
X48325880Y-12209206D01*
X48299267Y-12130220D01*
X48299266Y-12130218D01*
X48299172Y-12130061D01*
X48289025Y-12108887D01*
X48288961Y-12108712D01*
X48244059Y-12038463D01*
X48201089Y-11967046D01*
X48200955Y-11966904D01*
X48186504Y-11948419D01*
X48186400Y-11948256D01*
X48127447Y-11889303D01*
X48070129Y-11828793D01*
X48069970Y-11828685D01*
X48051877Y-11813733D01*
X45146011Y-8907867D01*
X45142608Y-8904176D01*
X45136847Y-8897394D01*
X45108452Y-8833556D01*
X45119078Y-8764499D01*
X45165352Y-8712150D01*
X45224869Y-8693292D01*
X45387287Y-8684780D01*
X45770323Y-8624113D01*
X45770330Y-8624112D01*
X46144936Y-8523737D01*
X46506994Y-8384755D01*
X46852543Y-8208689D01*
X47177783Y-7997476D01*
X47177785Y-7997475D01*
X47435349Y-7788902D01*
X46039033Y-6392586D01*
X46005548Y-6331263D01*
X46010532Y-6261571D01*
X46046180Y-6210617D01*
X46134870Y-6134870D01*
X46210617Y-6046180D01*
X46269121Y-6007990D01*
X46338989Y-6007490D01*
X46392586Y-6039033D01*
X47788902Y-7435349D01*
X47997475Y-7177785D01*
X47997476Y-7177783D01*
X48208689Y-6852543D01*
X48384755Y-6506994D01*
X48523737Y-6144936D01*
X48624112Y-5770330D01*
X48624113Y-5770323D01*
X48684780Y-5387287D01*
X48705078Y-5000000D01*
X48705078Y-4999999D01*
X48684780Y-4612712D01*
X48624113Y-4229676D01*
X48624112Y-4229669D01*
X48523737Y-3855063D01*
X48384755Y-3493005D01*
X48208689Y-3147456D01*
X47997468Y-2822206D01*
X47788904Y-2564649D01*
X47788903Y-2564648D01*
X46392586Y-3960965D01*
X46331263Y-3994450D01*
X46261571Y-3989466D01*
X46210615Y-3953816D01*
X46185963Y-3924952D01*
X46134870Y-3865130D01*
X46046179Y-3789381D01*
X46007989Y-3730878D01*
X46007489Y-3661010D01*
X46039032Y-3607413D01*
X47435350Y-2211096D01*
X47435350Y-2211095D01*
X47177793Y-2002531D01*
X46852543Y-1791310D01*
X46506994Y-1615244D01*
X46144936Y-1476262D01*
X45770330Y-1375887D01*
X45770323Y-1375886D01*
X45387287Y-1315219D01*
X45000001Y-1294922D01*
X44999999Y-1294922D01*
X44612712Y-1315219D01*
X44229676Y-1375886D01*
X44229669Y-1375887D01*
X43855063Y-1476262D01*
X43493005Y-1615244D01*
X43147456Y-1791310D01*
X42822206Y-2002531D01*
X42564648Y-2211095D01*
X42564648Y-2211096D01*
X43960966Y-3607413D01*
X43994451Y-3668736D01*
X43989467Y-3738428D01*
X43953817Y-3789384D01*
X43865130Y-3865130D01*
X43789384Y-3953817D01*
X43730877Y-3992010D01*
X43661009Y-3992508D01*
X43607413Y-3960966D01*
X42211096Y-2564648D01*
X42211095Y-2564648D01*
X42002531Y-2822206D01*
X41791310Y-3147456D01*
X41615244Y-3493005D01*
X41476262Y-3855063D01*
X41375887Y-4229669D01*
X41375886Y-4229676D01*
X41315219Y-4612712D01*
X41294922Y-4999999D01*
X41294922Y-5000000D01*
X41315219Y-5387287D01*
X41375886Y-5770323D01*
X41375887Y-5770330D01*
X41476262Y-6144936D01*
X41615244Y-6506994D01*
X41791310Y-6852543D01*
X42002531Y-7177793D01*
X42211095Y-7435350D01*
X42211096Y-7435350D01*
X43607413Y-6039032D01*
X43668736Y-6005547D01*
X43738427Y-6010531D01*
X43789381Y-6046179D01*
X43865130Y-6134870D01*
X43928855Y-6189296D01*
X43953816Y-6210615D01*
X43992009Y-6269122D01*
X43992507Y-6338990D01*
X43960965Y-6392586D01*
X42564648Y-7788903D01*
X42564649Y-7788904D01*
X42822206Y-7997468D01*
X43147456Y-8208689D01*
X43493014Y-8384759D01*
X43495967Y-8386074D01*
X43495898Y-8386228D01*
X43495902Y-8386231D01*
X43495863Y-8386306D01*
X43495647Y-8386792D01*
X43548485Y-8427134D01*
X43572280Y-8492826D01*
X43556782Y-8560956D01*
X43506911Y-8609890D01*
X43448518Y-8624500D01*
X29914006Y-8624500D01*
X29846967Y-8604815D01*
X29826325Y-8588181D01*
X27121819Y-5883675D01*
X27088334Y-5822352D01*
X27085500Y-5795994D01*
X27085500Y-5218655D01*
X27085500Y-4515044D01*
X27105184Y-4448009D01*
X27121812Y-4427372D01*
X27210047Y-4339139D01*
X27340568Y-4152734D01*
X27367618Y-4094724D01*
X27413790Y-4042285D01*
X27480983Y-4023133D01*
X27547865Y-4043348D01*
X27592382Y-4094725D01*
X27619429Y-4152728D01*
X27619432Y-4152734D01*
X27749954Y-4339141D01*
X27910858Y-4500045D01*
X27910861Y-4500047D01*
X28097266Y-4630568D01*
X28303504Y-4726739D01*
X28523308Y-4785635D01*
X28685230Y-4799801D01*
X28749998Y-4805468D01*
X28750000Y-4805468D01*
X28750002Y-4805468D01*
X28806672Y-4800509D01*
X28976692Y-4785635D01*
X29196496Y-4726739D01*
X29402734Y-4630568D01*
X29589139Y-4500047D01*
X29750047Y-4339139D01*
X29880568Y-4152734D01*
X29907618Y-4094724D01*
X29953790Y-4042285D01*
X30020983Y-4023133D01*
X30087865Y-4043348D01*
X30132382Y-4094725D01*
X30159429Y-4152728D01*
X30159432Y-4152734D01*
X30289954Y-4339141D01*
X30450858Y-4500045D01*
X30450861Y-4500047D01*
X30637266Y-4630568D01*
X30843504Y-4726739D01*
X31063308Y-4785635D01*
X31225230Y-4799801D01*
X31289998Y-4805468D01*
X31290000Y-4805468D01*
X31290002Y-4805468D01*
X31346672Y-4800509D01*
X31516692Y-4785635D01*
X31736496Y-4726739D01*
X31942734Y-4630568D01*
X32129139Y-4500047D01*
X32290047Y-4339139D01*
X32420568Y-4152734D01*
X32447618Y-4094724D01*
X32493790Y-4042285D01*
X32560983Y-4023133D01*
X32627865Y-4043348D01*
X32672382Y-4094725D01*
X32699429Y-4152728D01*
X32699432Y-4152734D01*
X32829954Y-4339141D01*
X32990858Y-4500045D01*
X32990861Y-4500047D01*
X33177266Y-4630568D01*
X33383504Y-4726739D01*
X33603308Y-4785635D01*
X33765230Y-4799801D01*
X33829998Y-4805468D01*
X33830000Y-4805468D01*
X33830002Y-4805468D01*
X33886672Y-4800509D01*
X34056692Y-4785635D01*
X34276496Y-4726739D01*
X34482734Y-4630568D01*
X34669139Y-4500047D01*
X34830047Y-4339139D01*
X34960568Y-4152734D01*
X34987618Y-4094724D01*
X35033790Y-4042285D01*
X35100983Y-4023133D01*
X35167865Y-4043348D01*
X35212382Y-4094725D01*
X35239429Y-4152728D01*
X35239432Y-4152734D01*
X35369954Y-4339141D01*
X35530858Y-4500045D01*
X35530861Y-4500047D01*
X35717266Y-4630568D01*
X35923504Y-4726739D01*
X36143308Y-4785635D01*
X36305230Y-4799801D01*
X36369998Y-4805468D01*
X36370000Y-4805468D01*
X36370002Y-4805468D01*
X36426672Y-4800509D01*
X36596692Y-4785635D01*
X36816496Y-4726739D01*
X37022734Y-4630568D01*
X37209139Y-4500047D01*
X37370047Y-4339139D01*
X37500568Y-4152734D01*
X37596739Y-3946496D01*
X37655635Y-3726692D01*
X37675468Y-3500000D01*
X37655635Y-3273308D01*
X37600244Y-3066585D01*
X37596741Y-3053511D01*
X37596738Y-3053502D01*
X37572546Y-3001622D01*
X37500568Y-2847266D01*
X37370047Y-2660861D01*
X37370045Y-2660858D01*
X37209141Y-2499954D01*
X37022734Y-2369432D01*
X37022732Y-2369431D01*
X36816497Y-2273261D01*
X36816488Y-2273258D01*
X36596697Y-2214366D01*
X36596693Y-2214365D01*
X36596692Y-2214365D01*
X36596691Y-2214364D01*
X36596686Y-2214364D01*
X36370002Y-2194532D01*
X36369998Y-2194532D01*
X36143313Y-2214364D01*
X36143302Y-2214366D01*
X35923511Y-2273258D01*
X35923502Y-2273261D01*
X35717267Y-2369431D01*
X35717265Y-2369432D01*
X35530858Y-2499954D01*
X35369954Y-2660858D01*
X35239432Y-2847265D01*
X35239430Y-2847268D01*
X35212380Y-2905277D01*
X35166207Y-2957715D01*
X35099013Y-2976866D01*
X35032132Y-2956649D01*
X34987619Y-2905277D01*
X34960568Y-2847266D01*
X34929509Y-2802908D01*
X34830045Y-2660858D01*
X34669141Y-2499954D01*
X34482734Y-2369432D01*
X34482732Y-2369431D01*
X34276497Y-2273261D01*
X34276488Y-2273258D01*
X34056697Y-2214366D01*
X34056693Y-2214365D01*
X34056692Y-2214365D01*
X34056691Y-2214364D01*
X34056686Y-2214364D01*
X33830002Y-2194532D01*
X33829998Y-2194532D01*
X33603313Y-2214364D01*
X33603302Y-2214366D01*
X33383511Y-2273258D01*
X33383502Y-2273261D01*
X33177267Y-2369431D01*
X33177265Y-2369432D01*
X32990858Y-2499954D01*
X32829954Y-2660858D01*
X32699432Y-2847265D01*
X32699431Y-2847267D01*
X32672382Y-2905275D01*
X32626209Y-2957714D01*
X32559016Y-2976866D01*
X32492135Y-2956650D01*
X32447618Y-2905275D01*
X32439250Y-2887329D01*
X32420568Y-2847266D01*
X32290047Y-2660861D01*
X32290045Y-2660858D01*
X32129141Y-2499954D01*
X31942734Y-2369432D01*
X31942732Y-2369431D01*
X31736497Y-2273261D01*
X31736488Y-2273258D01*
X31516697Y-2214366D01*
X31516693Y-2214365D01*
X31516692Y-2214365D01*
X31516691Y-2214364D01*
X31516686Y-2214364D01*
X31290002Y-2194532D01*
X31289998Y-2194532D01*
X31063313Y-2214364D01*
X31063302Y-2214366D01*
X30843511Y-2273258D01*
X30843502Y-2273261D01*
X30637267Y-2369431D01*
X30637265Y-2369432D01*
X30450858Y-2499954D01*
X30289954Y-2660858D01*
X30159432Y-2847265D01*
X30159431Y-2847267D01*
X30132382Y-2905275D01*
X30086209Y-2957714D01*
X30019016Y-2976866D01*
X29952135Y-2956650D01*
X29907618Y-2905275D01*
X29899250Y-2887329D01*
X29880568Y-2847266D01*
X29750047Y-2660861D01*
X29750045Y-2660858D01*
X29589141Y-2499954D01*
X29402734Y-2369432D01*
X29402732Y-2369431D01*
X29196497Y-2273261D01*
X29196488Y-2273258D01*
X28976697Y-2214366D01*
X28976693Y-2214365D01*
X28976692Y-2214365D01*
X28976691Y-2214364D01*
X28976686Y-2214364D01*
X28750002Y-2194532D01*
X28749998Y-2194532D01*
X28523313Y-2214364D01*
X28523302Y-2214366D01*
X28303511Y-2273258D01*
X28303502Y-2273261D01*
X28097267Y-2369431D01*
X28097265Y-2369432D01*
X27910858Y-2499954D01*
X27749954Y-2660858D01*
X27619432Y-2847265D01*
X27619431Y-2847267D01*
X27592382Y-2905275D01*
X27546209Y-2957714D01*
X27479016Y-2976866D01*
X27412135Y-2956650D01*
X27367618Y-2905275D01*
X27359250Y-2887329D01*
X27340568Y-2847266D01*
X27210047Y-2660861D01*
X27210045Y-2660858D01*
X27049141Y-2499954D01*
X26862734Y-2369432D01*
X26862732Y-2369431D01*
X26656497Y-2273261D01*
X26656488Y-2273258D01*
X26436697Y-2214366D01*
X26436693Y-2214365D01*
X26436692Y-2214365D01*
X26436691Y-2214364D01*
X26436686Y-2214364D01*
X26210002Y-2194532D01*
X26209998Y-2194532D01*
X25983313Y-2214364D01*
X25983302Y-2214366D01*
X25763511Y-2273258D01*
X25763502Y-2273261D01*
X25557267Y-2369431D01*
X25557265Y-2369432D01*
X25370858Y-2499954D01*
X25209954Y-2660858D01*
X25079434Y-2847263D01*
X25079432Y-2847266D01*
X25052383Y-2905274D01*
X25052106Y-2905867D01*
X25005933Y-2958306D01*
X24938739Y-2977457D01*
X24871858Y-2957241D01*
X24827342Y-2905865D01*
X24800135Y-2847520D01*
X24800131Y-2847512D01*
X24749025Y-2774526D01*
X24278949Y-3244603D01*
X24217626Y-3278088D01*
X24147934Y-3273104D01*
X24092001Y-3231232D01*
X24086952Y-3223961D01*
X24051761Y-3169202D01*
X23943100Y-3075048D01*
X23943099Y-3075047D01*
X23936398Y-3069241D01*
X23938698Y-3066585D01*
X23903960Y-3026428D01*
X23894074Y-2957261D01*
X23923152Y-2893729D01*
X23929116Y-2887329D01*
X24395472Y-2420973D01*
X24322483Y-2369866D01*
X24322481Y-2369865D01*
X24116326Y-2273734D01*
X24116317Y-2273730D01*
X23896610Y-2214860D01*
X23896599Y-2214858D01*
X23670002Y-2195034D01*
X23669998Y-2195034D01*
X23443400Y-2214858D01*
X23443389Y-2214860D01*
X23223682Y-2273730D01*
X23223673Y-2273734D01*
X23017513Y-2369868D01*
X22944526Y-2420973D01*
X23410883Y-2887330D01*
X23444368Y-2948653D01*
X23439384Y-3018345D01*
X23402357Y-3067805D01*
X23403602Y-3069241D01*
X23288237Y-3169203D01*
X23253046Y-3223962D01*
X23200242Y-3269717D01*
X23131084Y-3279661D01*
X23067528Y-3250636D01*
X23061050Y-3244604D01*
X22590973Y-2774526D01*
X22590972Y-2774527D01*
X22539869Y-2847511D01*
X22512657Y-2905867D01*
X22466484Y-2958306D01*
X22399290Y-2977457D01*
X22332409Y-2957241D01*
X22287893Y-2905865D01*
X22287617Y-2905274D01*
X22260568Y-2847266D01*
X22130047Y-2660861D01*
X22130045Y-2660858D01*
X21969141Y-2499954D01*
X21782734Y-2369432D01*
X21782732Y-2369431D01*
X21576497Y-2273261D01*
X21576488Y-2273258D01*
X21356697Y-2214366D01*
X21356693Y-2214365D01*
X21356692Y-2214365D01*
X21356691Y-2214364D01*
X21356686Y-2214364D01*
X21130002Y-2194532D01*
X21129998Y-2194532D01*
X20903313Y-2214364D01*
X20903302Y-2214366D01*
X20683511Y-2273258D01*
X20683502Y-2273261D01*
X20477267Y-2369431D01*
X20477265Y-2369432D01*
X20290858Y-2499954D01*
X20129954Y-2660858D01*
X20066075Y-2752089D01*
X20011499Y-2795714D01*
X19942000Y-2802908D01*
X19879645Y-2771386D01*
X19844231Y-2711156D01*
X19840500Y-2680966D01*
X19840500Y-1663696D01*
X19840889Y-1656758D01*
X19845237Y-1618172D01*
X19840639Y-1549976D01*
X19840500Y-1545821D01*
X19840500Y-1533850D01*
X19840500Y-1533845D01*
X19836721Y-1491858D01*
X19830096Y-1393588D01*
X19829027Y-1389348D01*
X19825768Y-1370169D01*
X19825377Y-1365812D01*
X19799166Y-1270840D01*
X19775096Y-1175316D01*
X19773290Y-1171340D01*
X19766654Y-1153039D01*
X19765493Y-1148830D01*
X19722749Y-1060071D01*
X19682007Y-970374D01*
X19679517Y-966780D01*
X19669725Y-949964D01*
X19667831Y-946030D01*
X19609921Y-866322D01*
X19553826Y-785354D01*
X19553823Y-785350D01*
X19553820Y-785346D01*
X19550729Y-782255D01*
X19538093Y-767461D01*
X19535521Y-763921D01*
X19535519Y-763919D01*
X19464320Y-695846D01*
X19436356Y-667882D01*
X19431719Y-662693D01*
X19407507Y-632332D01*
X19356031Y-587359D01*
X19352997Y-584523D01*
X19344529Y-576055D01*
X19312181Y-549049D01*
X19237996Y-484235D01*
X19234241Y-481991D01*
X19218373Y-470732D01*
X19215019Y-467932D01*
X19215018Y-467931D01*
X19215013Y-467927D01*
X19147536Y-429641D01*
X19129340Y-419316D01*
X19044764Y-368785D01*
X19044761Y-368783D01*
X19040669Y-367248D01*
X19023044Y-359002D01*
X19019245Y-356846D01*
X18926253Y-324307D01*
X18834029Y-289694D01*
X18834019Y-289691D01*
X18829723Y-288912D01*
X18810918Y-283949D01*
X18806784Y-282502D01*
X18806779Y-282501D01*
X18709472Y-267089D01*
X18612550Y-249500D01*
X18612547Y-249500D01*
X18608172Y-249500D01*
X18588775Y-247973D01*
X18584460Y-247290D01*
X18584458Y-247290D01*
X18582457Y-246973D01*
X18568750Y-240474D01*
X18564078Y-243477D01*
X18531925Y-248468D01*
X18485978Y-249500D01*
X12573697Y-249500D01*
X12566758Y-249110D01*
X12554417Y-247720D01*
X12519639Y-233106D01*
X12503502Y-243477D01*
X12476909Y-248219D01*
X12475546Y-248310D01*
X12459976Y-249360D01*
X12455823Y-249500D01*
X12443838Y-249500D01*
X12401856Y-253278D01*
X12303590Y-259903D01*
X12299349Y-260972D01*
X12280176Y-264230D01*
X12275813Y-264622D01*
X12275804Y-264624D01*
X12180840Y-290833D01*
X12085315Y-314903D01*
X12085312Y-314904D01*
X12081319Y-316718D01*
X12063059Y-323338D01*
X12058850Y-324500D01*
X12058835Y-324505D01*
X12058830Y-324507D01*
X12058825Y-324509D01*
X12058826Y-324509D01*
X11970070Y-367250D01*
X11880375Y-407991D01*
X11876775Y-410486D01*
X11859971Y-420271D01*
X11856031Y-422168D01*
X11856028Y-422170D01*
X11776323Y-480078D01*
X11695349Y-536177D01*
X11695343Y-536182D01*
X11692239Y-539286D01*
X11677465Y-551903D01*
X11673928Y-554473D01*
X11673921Y-554478D01*
X11605846Y-625679D01*
X9587885Y-2643639D01*
X9582699Y-2648274D01*
X9552337Y-2672488D01*
X9552333Y-2672492D01*
X9507365Y-2723960D01*
X9504521Y-2727003D01*
X9496064Y-2735461D01*
X9496054Y-2735472D01*
X9469049Y-2767818D01*
X9404234Y-2842004D01*
X9404230Y-2842010D01*
X9401981Y-2845774D01*
X9390746Y-2861608D01*
X9387934Y-2864977D01*
X9377606Y-2883177D01*
X9339316Y-2950659D01*
X9311321Y-2997514D01*
X9288783Y-3035238D01*
X9287247Y-3039332D01*
X9279008Y-3056945D01*
X9276850Y-3060747D01*
X9276846Y-3060757D01*
X9244307Y-3153746D01*
X9209694Y-3245970D01*
X9209689Y-3245988D01*
X9208909Y-3250288D01*
X9203952Y-3269069D01*
X9202503Y-3273209D01*
X9202502Y-3273215D01*
X9187089Y-3370527D01*
X9169500Y-3467448D01*
X9169500Y-3471827D01*
X9167973Y-3491229D01*
X9167289Y-3495540D01*
X9169500Y-3594021D01*
X9169500Y-16060966D01*
X9149815Y-16128005D01*
X9097011Y-16173760D01*
X9027853Y-16183704D01*
X8964297Y-16154679D01*
X8943925Y-16132089D01*
X8880045Y-16040858D01*
X8719141Y-15879954D01*
X8532734Y-15749432D01*
X8532732Y-15749431D01*
X8326497Y-15653261D01*
X8326488Y-15653258D01*
X8106697Y-15594366D01*
X8106693Y-15594365D01*
X8106692Y-15594365D01*
X8106691Y-15594364D01*
X8106686Y-15594364D01*
X7880002Y-15574532D01*
X7879998Y-15574532D01*
X7653313Y-15594364D01*
X7653302Y-15594366D01*
X7433511Y-15653258D01*
X7433502Y-15653261D01*
X7227267Y-15749431D01*
X7227265Y-15749432D01*
X7040858Y-15879954D01*
X6879954Y-16040858D01*
X6749432Y-16227265D01*
X6749431Y-16227267D01*
X6653261Y-16433502D01*
X6653258Y-16433511D01*
X6594366Y-16653302D01*
X6594364Y-16653313D01*
X6574532Y-16879998D01*
X6574532Y-16880001D01*
X6594364Y-17106686D01*
X6594366Y-17106697D01*
X6653258Y-17326488D01*
X6653261Y-17326497D01*
X6749431Y-17532732D01*
X6749432Y-17532734D01*
X6879954Y-17719141D01*
X7040858Y-17880045D01*
X7040861Y-17880047D01*
X7227266Y-18010568D01*
X7433504Y-18106739D01*
X7653308Y-18165635D01*
X7815230Y-18179801D01*
X7879998Y-18185468D01*
X7880000Y-18185468D01*
X7880002Y-18185468D01*
X7936673Y-18180509D01*
X8106692Y-18165635D01*
X8286962Y-18117332D01*
X8356812Y-18118995D01*
X8414674Y-18158158D01*
X8442178Y-18222386D01*
X8430591Y-18291288D01*
X8406736Y-18324788D01*
X4167885Y-22563639D01*
X4162699Y-22568274D01*
X4132337Y-22592488D01*
X4132333Y-22592492D01*
X4087365Y-22643960D01*
X4084521Y-22647003D01*
X4076064Y-22655461D01*
X4076054Y-22655472D01*
X4049049Y-22687818D01*
X3984234Y-22762004D01*
X3984230Y-22762010D01*
X3981981Y-22765774D01*
X3970746Y-22781608D01*
X3967934Y-22784977D01*
X3957606Y-22803177D01*
X3919316Y-22870659D01*
X3914716Y-22878359D01*
X3868783Y-22955238D01*
X3867247Y-22959332D01*
X3859008Y-22976945D01*
X3856850Y-22980747D01*
X3856846Y-22980757D01*
X3824307Y-23073746D01*
X3789694Y-23165970D01*
X3789689Y-23165988D01*
X3788909Y-23170288D01*
X3783952Y-23189069D01*
X3782503Y-23193209D01*
X3782502Y-23193215D01*
X3767089Y-23290527D01*
X3749500Y-23387448D01*
X3749500Y-23391827D01*
X3747973Y-23411229D01*
X3747289Y-23415540D01*
X3749500Y-23514021D01*
X3749500Y-37426293D01*
X3749110Y-37433231D01*
X3746792Y-37453804D01*
X3744762Y-37471823D01*
X3744761Y-37471831D01*
X3749359Y-37540013D01*
X3749500Y-37544186D01*
X3749500Y-37556156D01*
X3753277Y-37598124D01*
X3759903Y-37696407D01*
X3759903Y-37696412D01*
X3760972Y-37700652D01*
X3764230Y-37719824D01*
X3764623Y-37724190D01*
X3790835Y-37819165D01*
X3814903Y-37914681D01*
X3816715Y-37918670D01*
X3823340Y-37936944D01*
X3824504Y-37941162D01*
X3824507Y-37941170D01*
X3867253Y-38029935D01*
X3907993Y-38119626D01*
X3907994Y-38119629D01*
X3910483Y-38123221D01*
X3920269Y-38140026D01*
X3922166Y-38143965D01*
X3922174Y-38143979D01*
X3980078Y-38223676D01*
X4036180Y-38304655D01*
X4039273Y-38307748D01*
X4051907Y-38322539D01*
X4054478Y-38326078D01*
X4054481Y-38326081D01*
X4125679Y-38394153D01*
X8213180Y-42481654D01*
X8246665Y-42542977D01*
X8249499Y-42569335D01*
X8249499Y-42791681D01*
X8229814Y-42858720D01*
X8177010Y-42904475D01*
X8107852Y-42914419D01*
X8044296Y-42885394D01*
X8021505Y-42859218D01*
X7997467Y-42822204D01*
X7788904Y-42564649D01*
X7788903Y-42564648D01*
X6392586Y-43960965D01*
X6331263Y-43994450D01*
X6261571Y-43989466D01*
X6210615Y-43953816D01*
X6153726Y-43887208D01*
X6134870Y-43865130D01*
X6046179Y-43789381D01*
X6007989Y-43730878D01*
X6007489Y-43661010D01*
X6039032Y-43607413D01*
X7435350Y-42211096D01*
X7435350Y-42211095D01*
X7177793Y-42002531D01*
X6852543Y-41791310D01*
X6506994Y-41615244D01*
X6144936Y-41476262D01*
X5770330Y-41375887D01*
X5770323Y-41375886D01*
X5387287Y-41315219D01*
X5000001Y-41294922D01*
X4999999Y-41294922D01*
X4612712Y-41315219D01*
X4229676Y-41375886D01*
X4229669Y-41375887D01*
X3855063Y-41476262D01*
X3493005Y-41615244D01*
X3147456Y-41791310D01*
X2822206Y-42002531D01*
X2564648Y-42211095D01*
X2564648Y-42211096D01*
X3960966Y-43607413D01*
X3994451Y-43668736D01*
X3989467Y-43738428D01*
X3953817Y-43789384D01*
X3865130Y-43865130D01*
X3789384Y-43953817D01*
X3730877Y-43992010D01*
X3661009Y-43992508D01*
X3607413Y-43960966D01*
X2211096Y-42564648D01*
X2211095Y-42564648D01*
X2002531Y-42822206D01*
X1791310Y-43147456D01*
X1615244Y-43493005D01*
X1476262Y-43855063D01*
X1375887Y-44229669D01*
X1375886Y-44229676D01*
X1315219Y-44612712D01*
X1294922Y-44999999D01*
X1294922Y-45000000D01*
X500Y-45000000D01*
X500Y-5000000D01*
X1294922Y-5000000D01*
X1315219Y-5387287D01*
X1375886Y-5770323D01*
X1375887Y-5770330D01*
X1476262Y-6144936D01*
X1615244Y-6506994D01*
X1791310Y-6852543D01*
X2002531Y-7177793D01*
X2211095Y-7435350D01*
X2211096Y-7435350D01*
X3607413Y-6039032D01*
X3668736Y-6005547D01*
X3738427Y-6010531D01*
X3789381Y-6046179D01*
X3865130Y-6134870D01*
X3928855Y-6189296D01*
X3953816Y-6210615D01*
X3992009Y-6269122D01*
X3992507Y-6338990D01*
X3960965Y-6392586D01*
X2564648Y-7788903D01*
X2564649Y-7788904D01*
X2822206Y-7997468D01*
X3147456Y-8208689D01*
X3493005Y-8384755D01*
X3855063Y-8523737D01*
X4229669Y-8624112D01*
X4229676Y-8624113D01*
X4612712Y-8684780D01*
X4999999Y-8705078D01*
X5000001Y-8705078D01*
X5387287Y-8684780D01*
X5770323Y-8624113D01*
X5770330Y-8624112D01*
X6144936Y-8523737D01*
X6506994Y-8384755D01*
X6852543Y-8208689D01*
X7177783Y-7997476D01*
X7177785Y-7997475D01*
X7435349Y-7788902D01*
X6039033Y-6392586D01*
X6005548Y-6331263D01*
X6010532Y-6261571D01*
X6046180Y-6210617D01*
X6134870Y-6134870D01*
X6210617Y-6046180D01*
X6269121Y-6007990D01*
X6338989Y-6007490D01*
X6392586Y-6039033D01*
X7788902Y-7435349D01*
X7997475Y-7177785D01*
X7997476Y-7177783D01*
X8208689Y-6852543D01*
X8384755Y-6506994D01*
X8523737Y-6144936D01*
X8624112Y-5770330D01*
X8624113Y-5770323D01*
X8684780Y-5387287D01*
X8705078Y-5000000D01*
X8705078Y-4999999D01*
X8684780Y-4612712D01*
X8624113Y-4229676D01*
X8624112Y-4229669D01*
X8523737Y-3855063D01*
X8384755Y-3493005D01*
X8208689Y-3147456D01*
X7997468Y-2822206D01*
X7788904Y-2564649D01*
X7788903Y-2564648D01*
X6392586Y-3960965D01*
X6331263Y-3994450D01*
X6261571Y-3989466D01*
X6210615Y-3953816D01*
X6185963Y-3924952D01*
X6134870Y-3865130D01*
X6046179Y-3789381D01*
X6007989Y-3730878D01*
X6007489Y-3661010D01*
X6039032Y-3607413D01*
X7435350Y-2211096D01*
X7435350Y-2211095D01*
X7177793Y-2002531D01*
X6852543Y-1791310D01*
X6506994Y-1615244D01*
X6144936Y-1476262D01*
X5770330Y-1375887D01*
X5770323Y-1375886D01*
X5387287Y-1315219D01*
X5000001Y-1294922D01*
X4999999Y-1294922D01*
X4612712Y-1315219D01*
X4229676Y-1375886D01*
X4229669Y-1375887D01*
X3855063Y-1476262D01*
X3493005Y-1615244D01*
X3147456Y-1791310D01*
X2822206Y-2002531D01*
X2564648Y-2211095D01*
X2564648Y-2211096D01*
X3960966Y-3607413D01*
X3994451Y-3668736D01*
X3989467Y-3738428D01*
X3953817Y-3789384D01*
X3865130Y-3865130D01*
X3789384Y-3953817D01*
X3730877Y-3992010D01*
X3661009Y-3992508D01*
X3607413Y-3960966D01*
X2211096Y-2564648D01*
X2211095Y-2564648D01*
X2002531Y-2822206D01*
X1791310Y-3147456D01*
X1615244Y-3493005D01*
X1476262Y-3855063D01*
X1375887Y-4229669D01*
X1375886Y-4229676D01*
X1315219Y-4612712D01*
X1294922Y-4999999D01*
X1294922Y-5000000D01*
X500Y-5000000D01*
X500Y-3001622D01*
X585Y-2998376D01*
X5433Y-2905867D01*
X7497Y-2866486D01*
X17803Y-2682968D01*
X18464Y-2676791D01*
X42611Y-2524331D01*
X70227Y-2361796D01*
X71451Y-2356196D01*
X112425Y-2203279D01*
X157083Y-2048268D01*
X158764Y-2043254D01*
X216127Y-1893815D01*
X277366Y-1745972D01*
X279379Y-1741606D01*
X352511Y-1598078D01*
X388008Y-1533850D01*
X429655Y-1458494D01*
X431867Y-1454808D01*
X519980Y-1319127D01*
X554242Y-1270839D01*
X612154Y-1189220D01*
X614486Y-1186143D01*
X715655Y-1061209D01*
X717537Y-1058998D01*
X822773Y-941239D01*
X825092Y-938787D01*
X938787Y-825092D01*
X941239Y-822773D01*
X1058998Y-717537D01*
X1061209Y-715655D01*
X1186143Y-614486D01*
X1189220Y-612154D01*
X1319127Y-519980D01*
X1329046Y-513537D01*
X1454808Y-431867D01*
X1458494Y-429655D01*
X1598078Y-352511D01*
X1610063Y-346403D01*
X1741606Y-279379D01*
X1745972Y-277366D01*
X1893815Y-216127D01*
X2043254Y-158764D01*
X2048268Y-157083D01*
X2203279Y-112425D01*
X2356196Y-71451D01*
X2361796Y-70227D01*
X2524284Y-42618D01*
X2676791Y-18464D01*
X2682968Y-17803D01*
X2866566Y-7493D01*
X2998380Y-584D01*
X3001622Y-500D01*
X12468567Y-500D01*
X12520068Y-15622D01*
G37*
%TD.AperFunction*%
%TD*%
M02*
