%TF.GenerationSoftware,KiCad,Pcbnew,7.0.7*%
%TF.CreationDate,2024-02-22T12:37:55+00:00*%
%TF.ProjectId,massFlowControllerInterface_rev0,6d617373-466c-46f7-9743-6f6e74726f6c,rev?*%
%TF.SameCoordinates,Original*%
%TF.FileFunction,Legend,Top*%
%TF.FilePolarity,Positive*%
%FSLAX46Y46*%
G04 Gerber Fmt 4.6, Leading zero omitted, Abs format (unit mm)*
G04 Created by KiCad (PCBNEW 7.0.7) date 2024-02-22 12:37:55*
%MOMM*%
%LPD*%
G01*
G04 APERTURE LIST*
%ADD10C,0.150000*%
%ADD11C,0.100000*%
%ADD12C,0.120000*%
G04 APERTURE END LIST*
D10*
X36869819Y-8663220D02*
X35869819Y-8663220D01*
X35869819Y-8663220D02*
X36869819Y-8091792D01*
X36869819Y-8091792D02*
X35869819Y-8091792D01*
X36774580Y-7044173D02*
X36822200Y-7091792D01*
X36822200Y-7091792D02*
X36869819Y-7234649D01*
X36869819Y-7234649D02*
X36869819Y-7329887D01*
X36869819Y-7329887D02*
X36822200Y-7472744D01*
X36822200Y-7472744D02*
X36726961Y-7567982D01*
X36726961Y-7567982D02*
X36631723Y-7615601D01*
X36631723Y-7615601D02*
X36441247Y-7663220D01*
X36441247Y-7663220D02*
X36298390Y-7663220D01*
X36298390Y-7663220D02*
X36107914Y-7615601D01*
X36107914Y-7615601D02*
X36012676Y-7567982D01*
X36012676Y-7567982D02*
X35917438Y-7472744D01*
X35917438Y-7472744D02*
X35869819Y-7329887D01*
X35869819Y-7329887D02*
X35869819Y-7234649D01*
X35869819Y-7234649D02*
X35917438Y-7091792D01*
X35917438Y-7091792D02*
X35965057Y-7044173D01*
X21619819Y-8663220D02*
X20619819Y-8663220D01*
X20619819Y-8663220D02*
X21619819Y-8091792D01*
X21619819Y-8091792D02*
X20619819Y-8091792D01*
X21524580Y-7044173D02*
X21572200Y-7091792D01*
X21572200Y-7091792D02*
X21619819Y-7234649D01*
X21619819Y-7234649D02*
X21619819Y-7329887D01*
X21619819Y-7329887D02*
X21572200Y-7472744D01*
X21572200Y-7472744D02*
X21476961Y-7567982D01*
X21476961Y-7567982D02*
X21381723Y-7615601D01*
X21381723Y-7615601D02*
X21191247Y-7663220D01*
X21191247Y-7663220D02*
X21048390Y-7663220D01*
X21048390Y-7663220D02*
X20857914Y-7615601D01*
X20857914Y-7615601D02*
X20762676Y-7567982D01*
X20762676Y-7567982D02*
X20667438Y-7472744D01*
X20667438Y-7472744D02*
X20619819Y-7329887D01*
X20619819Y-7329887D02*
X20619819Y-7234649D01*
X20619819Y-7234649D02*
X20667438Y-7091792D01*
X20667438Y-7091792D02*
X20715057Y-7044173D01*
X34322200Y-14410839D02*
X34369819Y-14267982D01*
X34369819Y-14267982D02*
X34369819Y-14029887D01*
X34369819Y-14029887D02*
X34322200Y-13934649D01*
X34322200Y-13934649D02*
X34274580Y-13887030D01*
X34274580Y-13887030D02*
X34179342Y-13839411D01*
X34179342Y-13839411D02*
X34084104Y-13839411D01*
X34084104Y-13839411D02*
X33988866Y-13887030D01*
X33988866Y-13887030D02*
X33941247Y-13934649D01*
X33941247Y-13934649D02*
X33893628Y-14029887D01*
X33893628Y-14029887D02*
X33846009Y-14220363D01*
X33846009Y-14220363D02*
X33798390Y-14315601D01*
X33798390Y-14315601D02*
X33750771Y-14363220D01*
X33750771Y-14363220D02*
X33655533Y-14410839D01*
X33655533Y-14410839D02*
X33560295Y-14410839D01*
X33560295Y-14410839D02*
X33465057Y-14363220D01*
X33465057Y-14363220D02*
X33417438Y-14315601D01*
X33417438Y-14315601D02*
X33369819Y-14220363D01*
X33369819Y-14220363D02*
X33369819Y-13982268D01*
X33369819Y-13982268D02*
X33417438Y-13839411D01*
X33846009Y-13410839D02*
X33846009Y-13077506D01*
X34369819Y-12934649D02*
X34369819Y-13410839D01*
X34369819Y-13410839D02*
X33369819Y-13410839D01*
X33369819Y-13410839D02*
X33369819Y-12934649D01*
X34369819Y-11934649D02*
X33893628Y-12267982D01*
X34369819Y-12506077D02*
X33369819Y-12506077D01*
X33369819Y-12506077D02*
X33369819Y-12125125D01*
X33369819Y-12125125D02*
X33417438Y-12029887D01*
X33417438Y-12029887D02*
X33465057Y-11982268D01*
X33465057Y-11982268D02*
X33560295Y-11934649D01*
X33560295Y-11934649D02*
X33703152Y-11934649D01*
X33703152Y-11934649D02*
X33798390Y-11982268D01*
X33798390Y-11982268D02*
X33846009Y-12029887D01*
X33846009Y-12029887D02*
X33893628Y-12125125D01*
X33893628Y-12125125D02*
X33893628Y-12506077D01*
X34369819Y-11506077D02*
X33369819Y-11506077D01*
X34084104Y-11077506D02*
X34084104Y-10601316D01*
X34369819Y-11172744D02*
X33369819Y-10839411D01*
X33369819Y-10839411D02*
X34369819Y-10506078D01*
X34369819Y-9696554D02*
X34369819Y-10172744D01*
X34369819Y-10172744D02*
X33369819Y-10172744D01*
X34369819Y-8029887D02*
X33893628Y-8363220D01*
X34369819Y-8601315D02*
X33369819Y-8601315D01*
X33369819Y-8601315D02*
X33369819Y-8220363D01*
X33369819Y-8220363D02*
X33417438Y-8125125D01*
X33417438Y-8125125D02*
X33465057Y-8077506D01*
X33465057Y-8077506D02*
X33560295Y-8029887D01*
X33560295Y-8029887D02*
X33703152Y-8029887D01*
X33703152Y-8029887D02*
X33798390Y-8077506D01*
X33798390Y-8077506D02*
X33846009Y-8125125D01*
X33846009Y-8125125D02*
X33893628Y-8220363D01*
X33893628Y-8220363D02*
X33893628Y-8601315D01*
X33369819Y-7696553D02*
X34369819Y-7029887D01*
X33369819Y-7029887D02*
X34369819Y-7696553D01*
X37822200Y-41910839D02*
X37869819Y-41767982D01*
X37869819Y-41767982D02*
X37869819Y-41529887D01*
X37869819Y-41529887D02*
X37822200Y-41434649D01*
X37822200Y-41434649D02*
X37774580Y-41387030D01*
X37774580Y-41387030D02*
X37679342Y-41339411D01*
X37679342Y-41339411D02*
X37584104Y-41339411D01*
X37584104Y-41339411D02*
X37488866Y-41387030D01*
X37488866Y-41387030D02*
X37441247Y-41434649D01*
X37441247Y-41434649D02*
X37393628Y-41529887D01*
X37393628Y-41529887D02*
X37346009Y-41720363D01*
X37346009Y-41720363D02*
X37298390Y-41815601D01*
X37298390Y-41815601D02*
X37250771Y-41863220D01*
X37250771Y-41863220D02*
X37155533Y-41910839D01*
X37155533Y-41910839D02*
X37060295Y-41910839D01*
X37060295Y-41910839D02*
X36965057Y-41863220D01*
X36965057Y-41863220D02*
X36917438Y-41815601D01*
X36917438Y-41815601D02*
X36869819Y-41720363D01*
X36869819Y-41720363D02*
X36869819Y-41482268D01*
X36869819Y-41482268D02*
X36917438Y-41339411D01*
X37346009Y-40910839D02*
X37346009Y-40577506D01*
X37869819Y-40434649D02*
X37869819Y-40910839D01*
X37869819Y-40910839D02*
X36869819Y-40910839D01*
X36869819Y-40910839D02*
X36869819Y-40434649D01*
X37869819Y-39434649D02*
X37393628Y-39767982D01*
X37869819Y-40006077D02*
X36869819Y-40006077D01*
X36869819Y-40006077D02*
X36869819Y-39625125D01*
X36869819Y-39625125D02*
X36917438Y-39529887D01*
X36917438Y-39529887D02*
X36965057Y-39482268D01*
X36965057Y-39482268D02*
X37060295Y-39434649D01*
X37060295Y-39434649D02*
X37203152Y-39434649D01*
X37203152Y-39434649D02*
X37298390Y-39482268D01*
X37298390Y-39482268D02*
X37346009Y-39529887D01*
X37346009Y-39529887D02*
X37393628Y-39625125D01*
X37393628Y-39625125D02*
X37393628Y-40006077D01*
X37869819Y-39006077D02*
X36869819Y-39006077D01*
X37584104Y-38577506D02*
X37584104Y-38101316D01*
X37869819Y-38672744D02*
X36869819Y-38339411D01*
X36869819Y-38339411D02*
X37869819Y-38006078D01*
X37869819Y-37196554D02*
X37869819Y-37672744D01*
X37869819Y-37672744D02*
X36869819Y-37672744D01*
X37869819Y-35529887D02*
X37393628Y-35863220D01*
X37869819Y-36101315D02*
X36869819Y-36101315D01*
X36869819Y-36101315D02*
X36869819Y-35720363D01*
X36869819Y-35720363D02*
X36917438Y-35625125D01*
X36917438Y-35625125D02*
X36965057Y-35577506D01*
X36965057Y-35577506D02*
X37060295Y-35529887D01*
X37060295Y-35529887D02*
X37203152Y-35529887D01*
X37203152Y-35529887D02*
X37298390Y-35577506D01*
X37298390Y-35577506D02*
X37346009Y-35625125D01*
X37346009Y-35625125D02*
X37393628Y-35720363D01*
X37393628Y-35720363D02*
X37393628Y-36101315D01*
X36869819Y-35196553D02*
X37869819Y-34529887D01*
X36869819Y-34529887D02*
X37869819Y-35196553D01*
X18155057Y-15910839D02*
X18107438Y-15863220D01*
X18107438Y-15863220D02*
X18059819Y-15767982D01*
X18059819Y-15767982D02*
X18059819Y-15529887D01*
X18059819Y-15529887D02*
X18107438Y-15434649D01*
X18107438Y-15434649D02*
X18155057Y-15387030D01*
X18155057Y-15387030D02*
X18250295Y-15339411D01*
X18250295Y-15339411D02*
X18345533Y-15339411D01*
X18345533Y-15339411D02*
X18488390Y-15387030D01*
X18488390Y-15387030D02*
X19059819Y-15958458D01*
X19059819Y-15958458D02*
X19059819Y-15339411D01*
X18393152Y-14482268D02*
X19059819Y-14482268D01*
X18012200Y-14720363D02*
X18726485Y-14958458D01*
X18726485Y-14958458D02*
X18726485Y-14339411D01*
X18059819Y-14101315D02*
X19059819Y-13767982D01*
X19059819Y-13767982D02*
X18059819Y-13434649D01*
X19059819Y-12339410D02*
X18059819Y-12339410D01*
X18059819Y-12339410D02*
X18059819Y-12101315D01*
X18059819Y-12101315D02*
X18107438Y-11958458D01*
X18107438Y-11958458D02*
X18202676Y-11863220D01*
X18202676Y-11863220D02*
X18297914Y-11815601D01*
X18297914Y-11815601D02*
X18488390Y-11767982D01*
X18488390Y-11767982D02*
X18631247Y-11767982D01*
X18631247Y-11767982D02*
X18821723Y-11815601D01*
X18821723Y-11815601D02*
X18916961Y-11863220D01*
X18916961Y-11863220D02*
X19012200Y-11958458D01*
X19012200Y-11958458D02*
X19059819Y-12101315D01*
X19059819Y-12101315D02*
X19059819Y-12339410D01*
X18964580Y-10767982D02*
X19012200Y-10815601D01*
X19012200Y-10815601D02*
X19059819Y-10958458D01*
X19059819Y-10958458D02*
X19059819Y-11053696D01*
X19059819Y-11053696D02*
X19012200Y-11196553D01*
X19012200Y-11196553D02*
X18916961Y-11291791D01*
X18916961Y-11291791D02*
X18821723Y-11339410D01*
X18821723Y-11339410D02*
X18631247Y-11387029D01*
X18631247Y-11387029D02*
X18488390Y-11387029D01*
X18488390Y-11387029D02*
X18297914Y-11339410D01*
X18297914Y-11339410D02*
X18202676Y-11291791D01*
X18202676Y-11291791D02*
X18107438Y-11196553D01*
X18107438Y-11196553D02*
X18059819Y-11053696D01*
X18059819Y-11053696D02*
X18059819Y-10958458D01*
X18059819Y-10958458D02*
X18107438Y-10815601D01*
X18107438Y-10815601D02*
X18155057Y-10767982D01*
X19059819Y-9577505D02*
X18059819Y-9577505D01*
X18536009Y-9577505D02*
X18536009Y-9006077D01*
X19059819Y-9006077D02*
X18059819Y-9006077D01*
X18059819Y-8339410D02*
X18059819Y-8148934D01*
X18059819Y-8148934D02*
X18107438Y-8053696D01*
X18107438Y-8053696D02*
X18202676Y-7958458D01*
X18202676Y-7958458D02*
X18393152Y-7910839D01*
X18393152Y-7910839D02*
X18726485Y-7910839D01*
X18726485Y-7910839D02*
X18916961Y-7958458D01*
X18916961Y-7958458D02*
X19012200Y-8053696D01*
X19012200Y-8053696D02*
X19059819Y-8148934D01*
X19059819Y-8148934D02*
X19059819Y-8339410D01*
X19059819Y-8339410D02*
X19012200Y-8434648D01*
X19012200Y-8434648D02*
X18916961Y-8529886D01*
X18916961Y-8529886D02*
X18726485Y-8577505D01*
X18726485Y-8577505D02*
X18393152Y-8577505D01*
X18393152Y-8577505D02*
X18202676Y-8529886D01*
X18202676Y-8529886D02*
X18107438Y-8434648D01*
X18107438Y-8434648D02*
X18059819Y-8339410D01*
X18059819Y-7625124D02*
X18059819Y-7053696D01*
X19059819Y-7339410D02*
X18059819Y-7339410D01*
X31822200Y-14210839D02*
X31869819Y-14067982D01*
X31869819Y-14067982D02*
X31869819Y-13829887D01*
X31869819Y-13829887D02*
X31822200Y-13734649D01*
X31822200Y-13734649D02*
X31774580Y-13687030D01*
X31774580Y-13687030D02*
X31679342Y-13639411D01*
X31679342Y-13639411D02*
X31584104Y-13639411D01*
X31584104Y-13639411D02*
X31488866Y-13687030D01*
X31488866Y-13687030D02*
X31441247Y-13734649D01*
X31441247Y-13734649D02*
X31393628Y-13829887D01*
X31393628Y-13829887D02*
X31346009Y-14020363D01*
X31346009Y-14020363D02*
X31298390Y-14115601D01*
X31298390Y-14115601D02*
X31250771Y-14163220D01*
X31250771Y-14163220D02*
X31155533Y-14210839D01*
X31155533Y-14210839D02*
X31060295Y-14210839D01*
X31060295Y-14210839D02*
X30965057Y-14163220D01*
X30965057Y-14163220D02*
X30917438Y-14115601D01*
X30917438Y-14115601D02*
X30869819Y-14020363D01*
X30869819Y-14020363D02*
X30869819Y-13782268D01*
X30869819Y-13782268D02*
X30917438Y-13639411D01*
X31346009Y-13210839D02*
X31346009Y-12877506D01*
X31869819Y-12734649D02*
X31869819Y-13210839D01*
X31869819Y-13210839D02*
X30869819Y-13210839D01*
X30869819Y-13210839D02*
X30869819Y-12734649D01*
X31869819Y-11734649D02*
X31393628Y-12067982D01*
X31869819Y-12306077D02*
X30869819Y-12306077D01*
X30869819Y-12306077D02*
X30869819Y-11925125D01*
X30869819Y-11925125D02*
X30917438Y-11829887D01*
X30917438Y-11829887D02*
X30965057Y-11782268D01*
X30965057Y-11782268D02*
X31060295Y-11734649D01*
X31060295Y-11734649D02*
X31203152Y-11734649D01*
X31203152Y-11734649D02*
X31298390Y-11782268D01*
X31298390Y-11782268D02*
X31346009Y-11829887D01*
X31346009Y-11829887D02*
X31393628Y-11925125D01*
X31393628Y-11925125D02*
X31393628Y-12306077D01*
X31869819Y-11306077D02*
X30869819Y-11306077D01*
X31584104Y-10877506D02*
X31584104Y-10401316D01*
X31869819Y-10972744D02*
X30869819Y-10639411D01*
X30869819Y-10639411D02*
X31869819Y-10306078D01*
X31869819Y-9496554D02*
X31869819Y-9972744D01*
X31869819Y-9972744D02*
X30869819Y-9972744D01*
X30869819Y-8544172D02*
X30869819Y-7972744D01*
X31869819Y-8258458D02*
X30869819Y-8258458D01*
X30869819Y-7734648D02*
X31869819Y-7067982D01*
X30869819Y-7067982D02*
X31869819Y-7734648D01*
X26869819Y-13163220D02*
X25869819Y-13163220D01*
X25869819Y-13163220D02*
X26584104Y-12829887D01*
X26584104Y-12829887D02*
X25869819Y-12496554D01*
X25869819Y-12496554D02*
X26869819Y-12496554D01*
X26346009Y-11687030D02*
X26346009Y-12020363D01*
X26869819Y-12020363D02*
X25869819Y-12020363D01*
X25869819Y-12020363D02*
X25869819Y-11544173D01*
X26774580Y-10591792D02*
X26822200Y-10639411D01*
X26822200Y-10639411D02*
X26869819Y-10782268D01*
X26869819Y-10782268D02*
X26869819Y-10877506D01*
X26869819Y-10877506D02*
X26822200Y-11020363D01*
X26822200Y-11020363D02*
X26726961Y-11115601D01*
X26726961Y-11115601D02*
X26631723Y-11163220D01*
X26631723Y-11163220D02*
X26441247Y-11210839D01*
X26441247Y-11210839D02*
X26298390Y-11210839D01*
X26298390Y-11210839D02*
X26107914Y-11163220D01*
X26107914Y-11163220D02*
X26012676Y-11115601D01*
X26012676Y-11115601D02*
X25917438Y-11020363D01*
X25917438Y-11020363D02*
X25869819Y-10877506D01*
X25869819Y-10877506D02*
X25869819Y-10782268D01*
X25869819Y-10782268D02*
X25917438Y-10639411D01*
X25917438Y-10639411D02*
X25965057Y-10591792D01*
X26822200Y-9448934D02*
X26869819Y-9306077D01*
X26869819Y-9306077D02*
X26869819Y-9067982D01*
X26869819Y-9067982D02*
X26822200Y-8972744D01*
X26822200Y-8972744D02*
X26774580Y-8925125D01*
X26774580Y-8925125D02*
X26679342Y-8877506D01*
X26679342Y-8877506D02*
X26584104Y-8877506D01*
X26584104Y-8877506D02*
X26488866Y-8925125D01*
X26488866Y-8925125D02*
X26441247Y-8972744D01*
X26441247Y-8972744D02*
X26393628Y-9067982D01*
X26393628Y-9067982D02*
X26346009Y-9258458D01*
X26346009Y-9258458D02*
X26298390Y-9353696D01*
X26298390Y-9353696D02*
X26250771Y-9401315D01*
X26250771Y-9401315D02*
X26155533Y-9448934D01*
X26155533Y-9448934D02*
X26060295Y-9448934D01*
X26060295Y-9448934D02*
X25965057Y-9401315D01*
X25965057Y-9401315D02*
X25917438Y-9353696D01*
X25917438Y-9353696D02*
X25869819Y-9258458D01*
X25869819Y-9258458D02*
X25869819Y-9020363D01*
X25869819Y-9020363D02*
X25917438Y-8877506D01*
X26346009Y-8448934D02*
X26346009Y-8115601D01*
X26869819Y-7972744D02*
X26869819Y-8448934D01*
X26869819Y-8448934D02*
X25869819Y-8448934D01*
X25869819Y-8448934D02*
X25869819Y-7972744D01*
X25869819Y-7687029D02*
X25869819Y-7115601D01*
X26869819Y-7401315D02*
X25869819Y-7401315D01*
X35322200Y-41710839D02*
X35369819Y-41567982D01*
X35369819Y-41567982D02*
X35369819Y-41329887D01*
X35369819Y-41329887D02*
X35322200Y-41234649D01*
X35322200Y-41234649D02*
X35274580Y-41187030D01*
X35274580Y-41187030D02*
X35179342Y-41139411D01*
X35179342Y-41139411D02*
X35084104Y-41139411D01*
X35084104Y-41139411D02*
X34988866Y-41187030D01*
X34988866Y-41187030D02*
X34941247Y-41234649D01*
X34941247Y-41234649D02*
X34893628Y-41329887D01*
X34893628Y-41329887D02*
X34846009Y-41520363D01*
X34846009Y-41520363D02*
X34798390Y-41615601D01*
X34798390Y-41615601D02*
X34750771Y-41663220D01*
X34750771Y-41663220D02*
X34655533Y-41710839D01*
X34655533Y-41710839D02*
X34560295Y-41710839D01*
X34560295Y-41710839D02*
X34465057Y-41663220D01*
X34465057Y-41663220D02*
X34417438Y-41615601D01*
X34417438Y-41615601D02*
X34369819Y-41520363D01*
X34369819Y-41520363D02*
X34369819Y-41282268D01*
X34369819Y-41282268D02*
X34417438Y-41139411D01*
X34846009Y-40710839D02*
X34846009Y-40377506D01*
X35369819Y-40234649D02*
X35369819Y-40710839D01*
X35369819Y-40710839D02*
X34369819Y-40710839D01*
X34369819Y-40710839D02*
X34369819Y-40234649D01*
X35369819Y-39234649D02*
X34893628Y-39567982D01*
X35369819Y-39806077D02*
X34369819Y-39806077D01*
X34369819Y-39806077D02*
X34369819Y-39425125D01*
X34369819Y-39425125D02*
X34417438Y-39329887D01*
X34417438Y-39329887D02*
X34465057Y-39282268D01*
X34465057Y-39282268D02*
X34560295Y-39234649D01*
X34560295Y-39234649D02*
X34703152Y-39234649D01*
X34703152Y-39234649D02*
X34798390Y-39282268D01*
X34798390Y-39282268D02*
X34846009Y-39329887D01*
X34846009Y-39329887D02*
X34893628Y-39425125D01*
X34893628Y-39425125D02*
X34893628Y-39806077D01*
X35369819Y-38806077D02*
X34369819Y-38806077D01*
X35084104Y-38377506D02*
X35084104Y-37901316D01*
X35369819Y-38472744D02*
X34369819Y-38139411D01*
X34369819Y-38139411D02*
X35369819Y-37806078D01*
X35369819Y-36996554D02*
X35369819Y-37472744D01*
X35369819Y-37472744D02*
X34369819Y-37472744D01*
X34369819Y-36044172D02*
X34369819Y-35472744D01*
X35369819Y-35758458D02*
X34369819Y-35758458D01*
X34369819Y-35234648D02*
X35369819Y-34567982D01*
X34369819Y-34567982D02*
X35369819Y-35234648D01*
X29322200Y-12910839D02*
X29369819Y-12767982D01*
X29369819Y-12767982D02*
X29369819Y-12529887D01*
X29369819Y-12529887D02*
X29322200Y-12434649D01*
X29322200Y-12434649D02*
X29274580Y-12387030D01*
X29274580Y-12387030D02*
X29179342Y-12339411D01*
X29179342Y-12339411D02*
X29084104Y-12339411D01*
X29084104Y-12339411D02*
X28988866Y-12387030D01*
X28988866Y-12387030D02*
X28941247Y-12434649D01*
X28941247Y-12434649D02*
X28893628Y-12529887D01*
X28893628Y-12529887D02*
X28846009Y-12720363D01*
X28846009Y-12720363D02*
X28798390Y-12815601D01*
X28798390Y-12815601D02*
X28750771Y-12863220D01*
X28750771Y-12863220D02*
X28655533Y-12910839D01*
X28655533Y-12910839D02*
X28560295Y-12910839D01*
X28560295Y-12910839D02*
X28465057Y-12863220D01*
X28465057Y-12863220D02*
X28417438Y-12815601D01*
X28417438Y-12815601D02*
X28369819Y-12720363D01*
X28369819Y-12720363D02*
X28369819Y-12482268D01*
X28369819Y-12482268D02*
X28417438Y-12339411D01*
X29369819Y-11910839D02*
X28369819Y-11910839D01*
X28417438Y-10910840D02*
X28369819Y-11006078D01*
X28369819Y-11006078D02*
X28369819Y-11148935D01*
X28369819Y-11148935D02*
X28417438Y-11291792D01*
X28417438Y-11291792D02*
X28512676Y-11387030D01*
X28512676Y-11387030D02*
X28607914Y-11434649D01*
X28607914Y-11434649D02*
X28798390Y-11482268D01*
X28798390Y-11482268D02*
X28941247Y-11482268D01*
X28941247Y-11482268D02*
X29131723Y-11434649D01*
X29131723Y-11434649D02*
X29226961Y-11387030D01*
X29226961Y-11387030D02*
X29322200Y-11291792D01*
X29322200Y-11291792D02*
X29369819Y-11148935D01*
X29369819Y-11148935D02*
X29369819Y-11053697D01*
X29369819Y-11053697D02*
X29322200Y-10910840D01*
X29322200Y-10910840D02*
X29274580Y-10863221D01*
X29274580Y-10863221D02*
X28941247Y-10863221D01*
X28941247Y-10863221D02*
X28941247Y-11053697D01*
X28417438Y-9148935D02*
X28369819Y-9244173D01*
X28369819Y-9244173D02*
X28369819Y-9387030D01*
X28369819Y-9387030D02*
X28417438Y-9529887D01*
X28417438Y-9529887D02*
X28512676Y-9625125D01*
X28512676Y-9625125D02*
X28607914Y-9672744D01*
X28607914Y-9672744D02*
X28798390Y-9720363D01*
X28798390Y-9720363D02*
X28941247Y-9720363D01*
X28941247Y-9720363D02*
X29131723Y-9672744D01*
X29131723Y-9672744D02*
X29226961Y-9625125D01*
X29226961Y-9625125D02*
X29322200Y-9529887D01*
X29322200Y-9529887D02*
X29369819Y-9387030D01*
X29369819Y-9387030D02*
X29369819Y-9291792D01*
X29369819Y-9291792D02*
X29322200Y-9148935D01*
X29322200Y-9148935D02*
X29274580Y-9101316D01*
X29274580Y-9101316D02*
X28941247Y-9101316D01*
X28941247Y-9101316D02*
X28941247Y-9291792D01*
X29369819Y-8672744D02*
X28369819Y-8672744D01*
X28369819Y-8672744D02*
X29369819Y-8101316D01*
X29369819Y-8101316D02*
X28369819Y-8101316D01*
X29369819Y-7625125D02*
X28369819Y-7625125D01*
X28369819Y-7625125D02*
X28369819Y-7387030D01*
X28369819Y-7387030D02*
X28417438Y-7244173D01*
X28417438Y-7244173D02*
X28512676Y-7148935D01*
X28512676Y-7148935D02*
X28607914Y-7101316D01*
X28607914Y-7101316D02*
X28798390Y-7053697D01*
X28798390Y-7053697D02*
X28941247Y-7053697D01*
X28941247Y-7053697D02*
X29131723Y-7101316D01*
X29131723Y-7101316D02*
X29226961Y-7148935D01*
X29226961Y-7148935D02*
X29322200Y-7244173D01*
X29322200Y-7244173D02*
X29369819Y-7387030D01*
X29369819Y-7387030D02*
X29369819Y-7625125D01*
X23275057Y-16010839D02*
X23227438Y-15963220D01*
X23227438Y-15963220D02*
X23179819Y-15867982D01*
X23179819Y-15867982D02*
X23179819Y-15629887D01*
X23179819Y-15629887D02*
X23227438Y-15534649D01*
X23227438Y-15534649D02*
X23275057Y-15487030D01*
X23275057Y-15487030D02*
X23370295Y-15439411D01*
X23370295Y-15439411D02*
X23465533Y-15439411D01*
X23465533Y-15439411D02*
X23608390Y-15487030D01*
X23608390Y-15487030D02*
X24179819Y-16058458D01*
X24179819Y-16058458D02*
X24179819Y-15439411D01*
X23513152Y-14582268D02*
X24179819Y-14582268D01*
X23132200Y-14820363D02*
X23846485Y-15058458D01*
X23846485Y-15058458D02*
X23846485Y-14439411D01*
X23179819Y-14201315D02*
X24179819Y-13867982D01*
X24179819Y-13867982D02*
X23179819Y-13534649D01*
X24179819Y-12439410D02*
X23179819Y-12439410D01*
X23179819Y-12439410D02*
X23179819Y-12201315D01*
X23179819Y-12201315D02*
X23227438Y-12058458D01*
X23227438Y-12058458D02*
X23322676Y-11963220D01*
X23322676Y-11963220D02*
X23417914Y-11915601D01*
X23417914Y-11915601D02*
X23608390Y-11867982D01*
X23608390Y-11867982D02*
X23751247Y-11867982D01*
X23751247Y-11867982D02*
X23941723Y-11915601D01*
X23941723Y-11915601D02*
X24036961Y-11963220D01*
X24036961Y-11963220D02*
X24132200Y-12058458D01*
X24132200Y-12058458D02*
X24179819Y-12201315D01*
X24179819Y-12201315D02*
X24179819Y-12439410D01*
X24084580Y-10867982D02*
X24132200Y-10915601D01*
X24132200Y-10915601D02*
X24179819Y-11058458D01*
X24179819Y-11058458D02*
X24179819Y-11153696D01*
X24179819Y-11153696D02*
X24132200Y-11296553D01*
X24132200Y-11296553D02*
X24036961Y-11391791D01*
X24036961Y-11391791D02*
X23941723Y-11439410D01*
X23941723Y-11439410D02*
X23751247Y-11487029D01*
X23751247Y-11487029D02*
X23608390Y-11487029D01*
X23608390Y-11487029D02*
X23417914Y-11439410D01*
X23417914Y-11439410D02*
X23322676Y-11391791D01*
X23322676Y-11391791D02*
X23227438Y-11296553D01*
X23227438Y-11296553D02*
X23179819Y-11153696D01*
X23179819Y-11153696D02*
X23179819Y-11058458D01*
X23179819Y-11058458D02*
X23227438Y-10915601D01*
X23227438Y-10915601D02*
X23275057Y-10867982D01*
X23227438Y-9153696D02*
X23179819Y-9248934D01*
X23179819Y-9248934D02*
X23179819Y-9391791D01*
X23179819Y-9391791D02*
X23227438Y-9534648D01*
X23227438Y-9534648D02*
X23322676Y-9629886D01*
X23322676Y-9629886D02*
X23417914Y-9677505D01*
X23417914Y-9677505D02*
X23608390Y-9725124D01*
X23608390Y-9725124D02*
X23751247Y-9725124D01*
X23751247Y-9725124D02*
X23941723Y-9677505D01*
X23941723Y-9677505D02*
X24036961Y-9629886D01*
X24036961Y-9629886D02*
X24132200Y-9534648D01*
X24132200Y-9534648D02*
X24179819Y-9391791D01*
X24179819Y-9391791D02*
X24179819Y-9296553D01*
X24179819Y-9296553D02*
X24132200Y-9153696D01*
X24132200Y-9153696D02*
X24084580Y-9106077D01*
X24084580Y-9106077D02*
X23751247Y-9106077D01*
X23751247Y-9106077D02*
X23751247Y-9296553D01*
X24179819Y-8677505D02*
X23179819Y-8677505D01*
X23179819Y-8677505D02*
X24179819Y-8106077D01*
X24179819Y-8106077D02*
X23179819Y-8106077D01*
X24179819Y-7629886D02*
X23179819Y-7629886D01*
X23179819Y-7629886D02*
X23179819Y-7391791D01*
X23179819Y-7391791D02*
X23227438Y-7248934D01*
X23227438Y-7248934D02*
X23322676Y-7153696D01*
X23322676Y-7153696D02*
X23417914Y-7106077D01*
X23417914Y-7106077D02*
X23608390Y-7058458D01*
X23608390Y-7058458D02*
X23751247Y-7058458D01*
X23751247Y-7058458D02*
X23941723Y-7106077D01*
X23941723Y-7106077D02*
X24036961Y-7153696D01*
X24036961Y-7153696D02*
X24132200Y-7248934D01*
X24132200Y-7248934D02*
X24179819Y-7391791D01*
X24179819Y-7391791D02*
X24179819Y-7629886D01*
X13869819Y-8763220D02*
X12869819Y-8763220D01*
X12869819Y-8763220D02*
X13869819Y-8191792D01*
X13869819Y-8191792D02*
X12869819Y-8191792D01*
X13774580Y-7144173D02*
X13822200Y-7191792D01*
X13822200Y-7191792D02*
X13869819Y-7334649D01*
X13869819Y-7334649D02*
X13869819Y-7429887D01*
X13869819Y-7429887D02*
X13822200Y-7572744D01*
X13822200Y-7572744D02*
X13726961Y-7667982D01*
X13726961Y-7667982D02*
X13631723Y-7715601D01*
X13631723Y-7715601D02*
X13441247Y-7763220D01*
X13441247Y-7763220D02*
X13298390Y-7763220D01*
X13298390Y-7763220D02*
X13107914Y-7715601D01*
X13107914Y-7715601D02*
X13012676Y-7667982D01*
X13012676Y-7667982D02*
X12917438Y-7572744D01*
X12917438Y-7572744D02*
X12869819Y-7429887D01*
X12869819Y-7429887D02*
X12869819Y-7334649D01*
X12869819Y-7334649D02*
X12917438Y-7191792D01*
X12917438Y-7191792D02*
X12965057Y-7144173D01*
X16539819Y-12863220D02*
X15539819Y-12863220D01*
X15539819Y-12863220D02*
X16254104Y-12529887D01*
X16254104Y-12529887D02*
X15539819Y-12196554D01*
X15539819Y-12196554D02*
X16539819Y-12196554D01*
X16016009Y-11387030D02*
X16016009Y-11720363D01*
X16539819Y-11720363D02*
X15539819Y-11720363D01*
X15539819Y-11720363D02*
X15539819Y-11244173D01*
X16444580Y-10291792D02*
X16492200Y-10339411D01*
X16492200Y-10339411D02*
X16539819Y-10482268D01*
X16539819Y-10482268D02*
X16539819Y-10577506D01*
X16539819Y-10577506D02*
X16492200Y-10720363D01*
X16492200Y-10720363D02*
X16396961Y-10815601D01*
X16396961Y-10815601D02*
X16301723Y-10863220D01*
X16301723Y-10863220D02*
X16111247Y-10910839D01*
X16111247Y-10910839D02*
X15968390Y-10910839D01*
X15968390Y-10910839D02*
X15777914Y-10863220D01*
X15777914Y-10863220D02*
X15682676Y-10815601D01*
X15682676Y-10815601D02*
X15587438Y-10720363D01*
X15587438Y-10720363D02*
X15539819Y-10577506D01*
X15539819Y-10577506D02*
X15539819Y-10482268D01*
X15539819Y-10482268D02*
X15587438Y-10339411D01*
X15587438Y-10339411D02*
X15635057Y-10291792D01*
X16492200Y-9148934D02*
X16539819Y-9006077D01*
X16539819Y-9006077D02*
X16539819Y-8767982D01*
X16539819Y-8767982D02*
X16492200Y-8672744D01*
X16492200Y-8672744D02*
X16444580Y-8625125D01*
X16444580Y-8625125D02*
X16349342Y-8577506D01*
X16349342Y-8577506D02*
X16254104Y-8577506D01*
X16254104Y-8577506D02*
X16158866Y-8625125D01*
X16158866Y-8625125D02*
X16111247Y-8672744D01*
X16111247Y-8672744D02*
X16063628Y-8767982D01*
X16063628Y-8767982D02*
X16016009Y-8958458D01*
X16016009Y-8958458D02*
X15968390Y-9053696D01*
X15968390Y-9053696D02*
X15920771Y-9101315D01*
X15920771Y-9101315D02*
X15825533Y-9148934D01*
X15825533Y-9148934D02*
X15730295Y-9148934D01*
X15730295Y-9148934D02*
X15635057Y-9101315D01*
X15635057Y-9101315D02*
X15587438Y-9053696D01*
X15587438Y-9053696D02*
X15539819Y-8958458D01*
X15539819Y-8958458D02*
X15539819Y-8720363D01*
X15539819Y-8720363D02*
X15587438Y-8577506D01*
X16539819Y-8148934D02*
X15539819Y-8148934D01*
X15587438Y-7148935D02*
X15539819Y-7244173D01*
X15539819Y-7244173D02*
X15539819Y-7387030D01*
X15539819Y-7387030D02*
X15587438Y-7529887D01*
X15587438Y-7529887D02*
X15682676Y-7625125D01*
X15682676Y-7625125D02*
X15777914Y-7672744D01*
X15777914Y-7672744D02*
X15968390Y-7720363D01*
X15968390Y-7720363D02*
X16111247Y-7720363D01*
X16111247Y-7720363D02*
X16301723Y-7672744D01*
X16301723Y-7672744D02*
X16396961Y-7625125D01*
X16396961Y-7625125D02*
X16492200Y-7529887D01*
X16492200Y-7529887D02*
X16539819Y-7387030D01*
X16539819Y-7387030D02*
X16539819Y-7291792D01*
X16539819Y-7291792D02*
X16492200Y-7148935D01*
X16492200Y-7148935D02*
X16444580Y-7101316D01*
X16444580Y-7101316D02*
X16111247Y-7101316D01*
X16111247Y-7101316D02*
X16111247Y-7291792D01*
D11*
X23666666Y-4957419D02*
X23666666Y-5671704D01*
X23666666Y-5671704D02*
X23619047Y-5814561D01*
X23619047Y-5814561D02*
X23523809Y-5909800D01*
X23523809Y-5909800D02*
X23380952Y-5957419D01*
X23380952Y-5957419D02*
X23285714Y-5957419D01*
X24095238Y-5052657D02*
X24142857Y-5005038D01*
X24142857Y-5005038D02*
X24238095Y-4957419D01*
X24238095Y-4957419D02*
X24476190Y-4957419D01*
X24476190Y-4957419D02*
X24571428Y-5005038D01*
X24571428Y-5005038D02*
X24619047Y-5052657D01*
X24619047Y-5052657D02*
X24666666Y-5147895D01*
X24666666Y-5147895D02*
X24666666Y-5243133D01*
X24666666Y-5243133D02*
X24619047Y-5385990D01*
X24619047Y-5385990D02*
X24047619Y-5957419D01*
X24047619Y-5957419D02*
X24666666Y-5957419D01*
X39666666Y-45957419D02*
X39666666Y-46671704D01*
X39666666Y-46671704D02*
X39619047Y-46814561D01*
X39619047Y-46814561D02*
X39523809Y-46909800D01*
X39523809Y-46909800D02*
X39380952Y-46957419D01*
X39380952Y-46957419D02*
X39285714Y-46957419D01*
X40571428Y-46290752D02*
X40571428Y-46957419D01*
X40333333Y-45909800D02*
X40095238Y-46624085D01*
X40095238Y-46624085D02*
X40714285Y-46624085D01*
D10*
X42733333Y-12174819D02*
X42400000Y-11698628D01*
X42161905Y-12174819D02*
X42161905Y-11174819D01*
X42161905Y-11174819D02*
X42542857Y-11174819D01*
X42542857Y-11174819D02*
X42638095Y-11222438D01*
X42638095Y-11222438D02*
X42685714Y-11270057D01*
X42685714Y-11270057D02*
X42733333Y-11365295D01*
X42733333Y-11365295D02*
X42733333Y-11508152D01*
X42733333Y-11508152D02*
X42685714Y-11603390D01*
X42685714Y-11603390D02*
X42638095Y-11651009D01*
X42638095Y-11651009D02*
X42542857Y-11698628D01*
X42542857Y-11698628D02*
X42161905Y-11698628D01*
X43066667Y-11174819D02*
X43685714Y-11174819D01*
X43685714Y-11174819D02*
X43352381Y-11555771D01*
X43352381Y-11555771D02*
X43495238Y-11555771D01*
X43495238Y-11555771D02*
X43590476Y-11603390D01*
X43590476Y-11603390D02*
X43638095Y-11651009D01*
X43638095Y-11651009D02*
X43685714Y-11746247D01*
X43685714Y-11746247D02*
X43685714Y-11984342D01*
X43685714Y-11984342D02*
X43638095Y-12079580D01*
X43638095Y-12079580D02*
X43590476Y-12127200D01*
X43590476Y-12127200D02*
X43495238Y-12174819D01*
X43495238Y-12174819D02*
X43209524Y-12174819D01*
X43209524Y-12174819D02*
X43114286Y-12127200D01*
X43114286Y-12127200D02*
X43066667Y-12079580D01*
X5004819Y-21451904D02*
X5814342Y-21451904D01*
X5814342Y-21451904D02*
X5909580Y-21404285D01*
X5909580Y-21404285D02*
X5957200Y-21356666D01*
X5957200Y-21356666D02*
X6004819Y-21261428D01*
X6004819Y-21261428D02*
X6004819Y-21070952D01*
X6004819Y-21070952D02*
X5957200Y-20975714D01*
X5957200Y-20975714D02*
X5909580Y-20928095D01*
X5909580Y-20928095D02*
X5814342Y-20880476D01*
X5814342Y-20880476D02*
X5004819Y-20880476D01*
X6004819Y-19880476D02*
X6004819Y-20451904D01*
X6004819Y-20166190D02*
X5004819Y-20166190D01*
X5004819Y-20166190D02*
X5147676Y-20261428D01*
X5147676Y-20261428D02*
X5242914Y-20356666D01*
X5242914Y-20356666D02*
X5290533Y-20451904D01*
X17044819Y-46523333D02*
X17759104Y-46523333D01*
X17759104Y-46523333D02*
X17901961Y-46570952D01*
X17901961Y-46570952D02*
X17997200Y-46666190D01*
X17997200Y-46666190D02*
X18044819Y-46809047D01*
X18044819Y-46809047D02*
X18044819Y-46904285D01*
X18044819Y-45523333D02*
X18044819Y-46094761D01*
X18044819Y-45809047D02*
X17044819Y-45809047D01*
X17044819Y-45809047D02*
X17187676Y-45904285D01*
X17187676Y-45904285D02*
X17282914Y-45999523D01*
X17282914Y-45999523D02*
X17330533Y-46094761D01*
X4238095Y-41254819D02*
X4238095Y-40254819D01*
X4238095Y-40731009D02*
X4809523Y-40731009D01*
X4809523Y-41254819D02*
X4809523Y-40254819D01*
X5714285Y-40588152D02*
X5714285Y-41254819D01*
X5476190Y-40207200D02*
X5238095Y-40921485D01*
X5238095Y-40921485D02*
X5857142Y-40921485D01*
X39584819Y-29333333D02*
X40299104Y-29333333D01*
X40299104Y-29333333D02*
X40441961Y-29380952D01*
X40441961Y-29380952D02*
X40537200Y-29476190D01*
X40537200Y-29476190D02*
X40584819Y-29619047D01*
X40584819Y-29619047D02*
X40584819Y-29714285D01*
X39584819Y-28952380D02*
X39584819Y-28333333D01*
X39584819Y-28333333D02*
X39965771Y-28666666D01*
X39965771Y-28666666D02*
X39965771Y-28523809D01*
X39965771Y-28523809D02*
X40013390Y-28428571D01*
X40013390Y-28428571D02*
X40061009Y-28380952D01*
X40061009Y-28380952D02*
X40156247Y-28333333D01*
X40156247Y-28333333D02*
X40394342Y-28333333D01*
X40394342Y-28333333D02*
X40489580Y-28380952D01*
X40489580Y-28380952D02*
X40537200Y-28428571D01*
X40537200Y-28428571D02*
X40584819Y-28523809D01*
X40584819Y-28523809D02*
X40584819Y-28809523D01*
X40584819Y-28809523D02*
X40537200Y-28904761D01*
X40537200Y-28904761D02*
X40489580Y-28952380D01*
X29833333Y-18454819D02*
X29500000Y-17978628D01*
X29261905Y-18454819D02*
X29261905Y-17454819D01*
X29261905Y-17454819D02*
X29642857Y-17454819D01*
X29642857Y-17454819D02*
X29738095Y-17502438D01*
X29738095Y-17502438D02*
X29785714Y-17550057D01*
X29785714Y-17550057D02*
X29833333Y-17645295D01*
X29833333Y-17645295D02*
X29833333Y-17788152D01*
X29833333Y-17788152D02*
X29785714Y-17883390D01*
X29785714Y-17883390D02*
X29738095Y-17931009D01*
X29738095Y-17931009D02*
X29642857Y-17978628D01*
X29642857Y-17978628D02*
X29261905Y-17978628D01*
X30785714Y-18454819D02*
X30214286Y-18454819D01*
X30500000Y-18454819D02*
X30500000Y-17454819D01*
X30500000Y-17454819D02*
X30404762Y-17597676D01*
X30404762Y-17597676D02*
X30309524Y-17692914D01*
X30309524Y-17692914D02*
X30214286Y-17740533D01*
X29833333Y-23454819D02*
X29500000Y-22978628D01*
X29261905Y-23454819D02*
X29261905Y-22454819D01*
X29261905Y-22454819D02*
X29642857Y-22454819D01*
X29642857Y-22454819D02*
X29738095Y-22502438D01*
X29738095Y-22502438D02*
X29785714Y-22550057D01*
X29785714Y-22550057D02*
X29833333Y-22645295D01*
X29833333Y-22645295D02*
X29833333Y-22788152D01*
X29833333Y-22788152D02*
X29785714Y-22883390D01*
X29785714Y-22883390D02*
X29738095Y-22931009D01*
X29738095Y-22931009D02*
X29642857Y-22978628D01*
X29642857Y-22978628D02*
X29261905Y-22978628D01*
X30214286Y-22550057D02*
X30261905Y-22502438D01*
X30261905Y-22502438D02*
X30357143Y-22454819D01*
X30357143Y-22454819D02*
X30595238Y-22454819D01*
X30595238Y-22454819D02*
X30690476Y-22502438D01*
X30690476Y-22502438D02*
X30738095Y-22550057D01*
X30738095Y-22550057D02*
X30785714Y-22645295D01*
X30785714Y-22645295D02*
X30785714Y-22740533D01*
X30785714Y-22740533D02*
X30738095Y-22883390D01*
X30738095Y-22883390D02*
X30166667Y-23454819D01*
X30166667Y-23454819D02*
X30785714Y-23454819D01*
X42733333Y-23234819D02*
X42400000Y-22758628D01*
X42161905Y-23234819D02*
X42161905Y-22234819D01*
X42161905Y-22234819D02*
X42542857Y-22234819D01*
X42542857Y-22234819D02*
X42638095Y-22282438D01*
X42638095Y-22282438D02*
X42685714Y-22330057D01*
X42685714Y-22330057D02*
X42733333Y-22425295D01*
X42733333Y-22425295D02*
X42733333Y-22568152D01*
X42733333Y-22568152D02*
X42685714Y-22663390D01*
X42685714Y-22663390D02*
X42638095Y-22711009D01*
X42638095Y-22711009D02*
X42542857Y-22758628D01*
X42542857Y-22758628D02*
X42161905Y-22758628D01*
X43590476Y-22568152D02*
X43590476Y-23234819D01*
X43352381Y-22187200D02*
X43114286Y-22901485D01*
X43114286Y-22901485D02*
X43733333Y-22901485D01*
X24795833Y-28679580D02*
X24748214Y-28727200D01*
X24748214Y-28727200D02*
X24605357Y-28774819D01*
X24605357Y-28774819D02*
X24510119Y-28774819D01*
X24510119Y-28774819D02*
X24367262Y-28727200D01*
X24367262Y-28727200D02*
X24272024Y-28631961D01*
X24272024Y-28631961D02*
X24224405Y-28536723D01*
X24224405Y-28536723D02*
X24176786Y-28346247D01*
X24176786Y-28346247D02*
X24176786Y-28203390D01*
X24176786Y-28203390D02*
X24224405Y-28012914D01*
X24224405Y-28012914D02*
X24272024Y-27917676D01*
X24272024Y-27917676D02*
X24367262Y-27822438D01*
X24367262Y-27822438D02*
X24510119Y-27774819D01*
X24510119Y-27774819D02*
X24605357Y-27774819D01*
X24605357Y-27774819D02*
X24748214Y-27822438D01*
X24748214Y-27822438D02*
X24795833Y-27870057D01*
X25748214Y-28774819D02*
X25176786Y-28774819D01*
X25462500Y-28774819D02*
X25462500Y-27774819D01*
X25462500Y-27774819D02*
X25367262Y-27917676D01*
X25367262Y-27917676D02*
X25272024Y-28012914D01*
X25272024Y-28012914D02*
X25176786Y-28060533D01*
X4238095Y-1254819D02*
X4238095Y-254819D01*
X4238095Y-731009D02*
X4809523Y-731009D01*
X4809523Y-1254819D02*
X4809523Y-254819D01*
X5809523Y-1254819D02*
X5238095Y-1254819D01*
X5523809Y-1254819D02*
X5523809Y-254819D01*
X5523809Y-254819D02*
X5428571Y-397676D01*
X5428571Y-397676D02*
X5333333Y-492914D01*
X5333333Y-492914D02*
X5238095Y-540533D01*
X22174819Y-36666666D02*
X21698628Y-36999999D01*
X22174819Y-37238094D02*
X21174819Y-37238094D01*
X21174819Y-37238094D02*
X21174819Y-36857142D01*
X21174819Y-36857142D02*
X21222438Y-36761904D01*
X21222438Y-36761904D02*
X21270057Y-36714285D01*
X21270057Y-36714285D02*
X21365295Y-36666666D01*
X21365295Y-36666666D02*
X21508152Y-36666666D01*
X21508152Y-36666666D02*
X21603390Y-36714285D01*
X21603390Y-36714285D02*
X21651009Y-36761904D01*
X21651009Y-36761904D02*
X21698628Y-36857142D01*
X21698628Y-36857142D02*
X21698628Y-37238094D01*
X21174819Y-35761904D02*
X21174819Y-36238094D01*
X21174819Y-36238094D02*
X21651009Y-36285713D01*
X21651009Y-36285713D02*
X21603390Y-36238094D01*
X21603390Y-36238094D02*
X21555771Y-36142856D01*
X21555771Y-36142856D02*
X21555771Y-35904761D01*
X21555771Y-35904761D02*
X21603390Y-35809523D01*
X21603390Y-35809523D02*
X21651009Y-35761904D01*
X21651009Y-35761904D02*
X21746247Y-35714285D01*
X21746247Y-35714285D02*
X21984342Y-35714285D01*
X21984342Y-35714285D02*
X22079580Y-35761904D01*
X22079580Y-35761904D02*
X22127200Y-35809523D01*
X22127200Y-35809523D02*
X22174819Y-35904761D01*
X22174819Y-35904761D02*
X22174819Y-36142856D01*
X22174819Y-36142856D02*
X22127200Y-36238094D01*
X22127200Y-36238094D02*
X22079580Y-36285713D01*
X44238095Y-1254819D02*
X44238095Y-254819D01*
X44238095Y-731009D02*
X44809523Y-731009D01*
X44809523Y-1254819D02*
X44809523Y-254819D01*
X45238095Y-350057D02*
X45285714Y-302438D01*
X45285714Y-302438D02*
X45380952Y-254819D01*
X45380952Y-254819D02*
X45619047Y-254819D01*
X45619047Y-254819D02*
X45714285Y-302438D01*
X45714285Y-302438D02*
X45761904Y-350057D01*
X45761904Y-350057D02*
X45809523Y-445295D01*
X45809523Y-445295D02*
X45809523Y-540533D01*
X45809523Y-540533D02*
X45761904Y-683390D01*
X45761904Y-683390D02*
X45190476Y-1254819D01*
X45190476Y-1254819D02*
X45809523Y-1254819D01*
X39544819Y-36833333D02*
X40259104Y-36833333D01*
X40259104Y-36833333D02*
X40401961Y-36880952D01*
X40401961Y-36880952D02*
X40497200Y-36976190D01*
X40497200Y-36976190D02*
X40544819Y-37119047D01*
X40544819Y-37119047D02*
X40544819Y-37214285D01*
X39544819Y-35880952D02*
X39544819Y-36357142D01*
X39544819Y-36357142D02*
X40021009Y-36404761D01*
X40021009Y-36404761D02*
X39973390Y-36357142D01*
X39973390Y-36357142D02*
X39925771Y-36261904D01*
X39925771Y-36261904D02*
X39925771Y-36023809D01*
X39925771Y-36023809D02*
X39973390Y-35928571D01*
X39973390Y-35928571D02*
X40021009Y-35880952D01*
X40021009Y-35880952D02*
X40116247Y-35833333D01*
X40116247Y-35833333D02*
X40354342Y-35833333D01*
X40354342Y-35833333D02*
X40449580Y-35880952D01*
X40449580Y-35880952D02*
X40497200Y-35928571D01*
X40497200Y-35928571D02*
X40544819Y-36023809D01*
X40544819Y-36023809D02*
X40544819Y-36261904D01*
X40544819Y-36261904D02*
X40497200Y-36357142D01*
X40497200Y-36357142D02*
X40449580Y-36404761D01*
X44238095Y-41254819D02*
X44238095Y-40254819D01*
X44238095Y-40731009D02*
X44809523Y-40731009D01*
X44809523Y-41254819D02*
X44809523Y-40254819D01*
X45190476Y-40254819D02*
X45809523Y-40254819D01*
X45809523Y-40254819D02*
X45476190Y-40635771D01*
X45476190Y-40635771D02*
X45619047Y-40635771D01*
X45619047Y-40635771D02*
X45714285Y-40683390D01*
X45714285Y-40683390D02*
X45761904Y-40731009D01*
X45761904Y-40731009D02*
X45809523Y-40826247D01*
X45809523Y-40826247D02*
X45809523Y-41064342D01*
X45809523Y-41064342D02*
X45761904Y-41159580D01*
X45761904Y-41159580D02*
X45714285Y-41207200D01*
X45714285Y-41207200D02*
X45619047Y-41254819D01*
X45619047Y-41254819D02*
X45333333Y-41254819D01*
X45333333Y-41254819D02*
X45238095Y-41207200D01*
X45238095Y-41207200D02*
X45190476Y-41159580D01*
D11*
%TO.C,J2*%
X12000000Y-360000D02*
X37880000Y-360000D01*
X37880000Y-360000D02*
X37880000Y-6660000D01*
X37880000Y-6660000D02*
X12000000Y-6660000D01*
X12000000Y-6660000D02*
X12000000Y-360000D01*
%TO.C,J4*%
X33490000Y-43050000D02*
X39050000Y-43050000D01*
X39050000Y-43050000D02*
X39050000Y-49350000D01*
X39050000Y-49350000D02*
X33490000Y-49350000D01*
X33490000Y-49350000D02*
X33490000Y-43050000D01*
D12*
%TO.C,R3*%
X41372936Y-12640000D02*
X44427064Y-12640000D01*
X41372936Y-15360000D02*
X44427064Y-15360000D01*
%TO.C,U1*%
X6550000Y-23340000D02*
X16830000Y-23340000D01*
X16830000Y-23340000D02*
X16830000Y-18040000D01*
X6550000Y-21690000D02*
X6550000Y-23340000D01*
X6550000Y-18040000D02*
X6550000Y-19690000D01*
X16830000Y-18040000D02*
X6550000Y-18040000D01*
X6550000Y-21690000D02*
G75*
G03*
X6550000Y-19690000I0J1000000D01*
G01*
%TO.C,J1*%
X18590000Y-48790000D02*
X18590000Y-47460000D01*
X19920000Y-48790000D02*
X18590000Y-48790000D01*
X21190000Y-48790000D02*
X31410000Y-48790000D01*
X21190000Y-48790000D02*
X21190000Y-46190000D01*
X31410000Y-48790000D02*
X31410000Y-43590000D01*
X18590000Y-46190000D02*
X18590000Y-43590000D01*
X21190000Y-46190000D02*
X18590000Y-46190000D01*
X18590000Y-43590000D02*
X31410000Y-43590000D01*
%TO.C,J3*%
X41130000Y-30330000D02*
X41130000Y-29000000D01*
X42460000Y-30330000D02*
X41130000Y-30330000D01*
X43730000Y-30330000D02*
X48870000Y-30330000D01*
X43730000Y-30330000D02*
X43730000Y-27670000D01*
X48870000Y-30330000D02*
X48870000Y-27670000D01*
X43730000Y-27670000D02*
X48870000Y-27670000D01*
%TO.C,R1*%
X23572936Y-16640000D02*
X26627064Y-16640000D01*
X23572936Y-19360000D02*
X26627064Y-19360000D01*
%TO.C,R2*%
X23572936Y-21640000D02*
X26627064Y-21640000D01*
X23572936Y-24360000D02*
X26627064Y-24360000D01*
%TO.C,R4*%
X44427064Y-21860000D02*
X41372936Y-21860000D01*
X44427064Y-19140000D02*
X41372936Y-19140000D01*
%TO.C,C1*%
X24701248Y-29265000D02*
X25223752Y-29265000D01*
X24701248Y-30735000D02*
X25223752Y-30735000D01*
%TO.C,R5*%
X22640000Y-38027064D02*
X22640000Y-34972936D01*
X25360000Y-38027064D02*
X25360000Y-34972936D01*
%TO.C,J5*%
X41090000Y-37830000D02*
X41090000Y-36500000D01*
X42420000Y-37830000D02*
X41090000Y-37830000D01*
X43690000Y-37830000D02*
X48830000Y-37830000D01*
X43690000Y-37830000D02*
X43690000Y-35170000D01*
X48830000Y-37830000D02*
X48830000Y-35170000D01*
X43690000Y-35170000D02*
X48830000Y-35170000D01*
%TD*%
M02*
