M48
; DRILL file {KiCad 7.0.7} date 2024 February 22, Thursday 12:37:59
; FORMAT={-:-/ absolute / metric / decimal}
; #@! TF.CreationDate,2024-02-22T12:37:59+00:00
; #@! TF.GenerationSoftware,Kicad,Pcbnew,7.0.7
; #@! TF.FileFunction,MixedPlating,1,2
FMAT,2
METRIC
; #@! TA.AperFunction,Plated,PTH,ViaDrill
T1C0.400
; #@! TA.AperFunction,Plated,PTH,ComponentDrill
T2C0.500
; #@! TA.AperFunction,Plated,PTH,ComponentDrill
T3C0.800
; #@! TA.AperFunction,Plated,PTH,ComponentDrill
T4C1.000
; #@! TA.AperFunction,Plated,PTH,ComponentDrill
T5C3.200
%
G90
G05
T1
X4.0Y-11.5
X5.0Y-10.5
X5.0Y-12.5
X6.0Y-11.5
X7.0Y-10.5
X7.0Y-12.5
X8.0Y-11.5
X12.5Y-11.5
X13.5Y-10.5
X13.5Y-12.5
X14.5Y-11.5
X15.0Y-10.5
X15.0Y-12.5
X16.0Y-11.5
X26.0Y-30.0
X27.5Y-23.0
X30.5Y-7.0
X36.5Y-19.0
X36.5Y-23.0
X37.5Y-19.0
X37.5Y-23.0
X38.5Y-7.0
X40.5Y-14.0
X40.5Y-20.5
X45.5Y-20.5
T2
X2.6Y-5.0
X2.6Y-45.0
X3.303Y-3.303
X3.303Y-6.697
X3.303Y-43.303
X3.303Y-46.697
X5.0Y-2.6
X5.0Y-7.4
X5.0Y-42.6
X5.0Y-47.4
X6.697Y-3.303
X6.697Y-6.697
X6.697Y-43.303
X6.697Y-46.697
X7.4Y-5.0
X7.4Y-45.0
X42.6Y-5.0
X42.6Y-45.0
X43.303Y-3.303
X43.303Y-6.697
X43.303Y-43.303
X43.303Y-46.697
X45.0Y-2.6
X45.0Y-7.4
X45.0Y-42.6
X45.0Y-47.4
X46.697Y-3.303
X46.697Y-6.697
X46.697Y-43.303
X46.697Y-46.697
X47.4Y-5.0
X47.4Y-45.0
T3
X7.88Y-16.88
X7.88Y-24.5
X10.42Y-16.88
X10.42Y-24.5
X12.96Y-16.88
X12.96Y-24.5
X15.5Y-16.88
X15.5Y-24.5
T4
X13.51Y-3.5
X16.05Y-3.5
X18.59Y-3.5
X19.92Y-44.92
X19.92Y-47.46
X21.13Y-3.5
X22.46Y-44.92
X22.46Y-47.46
X23.67Y-3.5
X25.0Y-44.92
X25.0Y-47.46
X26.21Y-3.5
X27.54Y-44.92
X27.54Y-47.46
X28.75Y-3.5
X30.08Y-44.92
X30.08Y-47.46
X31.29Y-3.5
X33.83Y-3.5
X35.0Y-46.19
X36.37Y-3.5
X37.54Y-46.19
X42.42Y-36.5
X42.46Y-29.0
X44.96Y-36.5
X45.0Y-29.0
X47.5Y-36.5
X47.54Y-29.0
T5
X5.0Y-5.0
X5.0Y-45.0
X45.0Y-5.0
X45.0Y-45.0
T0
M30
