%TF.GenerationSoftware,KiCad,Pcbnew,7.0.7*%
%TF.CreationDate,2024-02-22T12:37:55+00:00*%
%TF.ProjectId,massFlowControllerInterface_rev0,6d617373-466c-46f7-9743-6f6e74726f6c,rev?*%
%TF.SameCoordinates,Original*%
%TF.FileFunction,Soldermask,Top*%
%TF.FilePolarity,Negative*%
%FSLAX46Y46*%
G04 Gerber Fmt 4.6, Leading zero omitted, Abs format (unit mm)*
G04 Created by KiCad (PCBNEW 7.0.7) date 2024-02-22 12:37:55*
%MOMM*%
%LPD*%
G01*
G04 APERTURE LIST*
G04 Aperture macros list*
%AMRoundRect*
0 Rectangle with rounded corners*
0 $1 Rounding radius*
0 $2 $3 $4 $5 $6 $7 $8 $9 X,Y pos of 4 corners*
0 Add a 4 corners polygon primitive as box body*
4,1,4,$2,$3,$4,$5,$6,$7,$8,$9,$2,$3,0*
0 Add four circle primitives for the rounded corners*
1,1,$1+$1,$2,$3*
1,1,$1+$1,$4,$5*
1,1,$1+$1,$6,$7*
1,1,$1+$1,$8,$9*
0 Add four rect primitives between the rounded corners*
20,1,$1+$1,$2,$3,$4,$5,0*
20,1,$1+$1,$4,$5,$6,$7,0*
20,1,$1+$1,$6,$7,$8,$9,0*
20,1,$1+$1,$8,$9,$2,$3,0*%
G04 Aperture macros list end*
%ADD10C,1.600000*%
%ADD11RoundRect,0.249999X-0.450001X-1.075001X0.450001X-1.075001X0.450001X1.075001X-0.450001X1.075001X0*%
%ADD12R,1.600000X1.600000*%
%ADD13O,1.600000X1.600000*%
%ADD14R,1.700000X1.700000*%
%ADD15O,1.700000X1.700000*%
%ADD16C,0.800000*%
%ADD17C,6.400000*%
%ADD18RoundRect,0.249999X0.450001X1.075001X-0.450001X1.075001X-0.450001X-1.075001X0.450001X-1.075001X0*%
%ADD19RoundRect,0.250000X-0.337500X-0.475000X0.337500X-0.475000X0.337500X0.475000X-0.337500X0.475000X0*%
%ADD20RoundRect,0.249999X1.075001X-0.450001X1.075001X0.450001X-1.075001X0.450001X-1.075001X-0.450001X0*%
G04 APERTURE END LIST*
D10*
%TO.C,J2*%
X13510000Y-3500000D03*
X16050000Y-3500000D03*
X18590000Y-3500000D03*
X21130000Y-3500000D03*
X23670000Y-3500000D03*
X26210000Y-3500000D03*
X28750000Y-3500000D03*
X31290000Y-3500000D03*
X33830000Y-3500000D03*
X36370000Y-3500000D03*
%TD*%
%TO.C,J4*%
X35000000Y-46190000D03*
X37540000Y-46190000D03*
%TD*%
D11*
%TO.C,R3*%
X40500000Y-14000000D03*
X45300000Y-14000000D03*
%TD*%
D12*
%TO.C,U1*%
X7880000Y-24500000D03*
D13*
X10420000Y-24500000D03*
X12960000Y-24500000D03*
X15500000Y-24500000D03*
X15500000Y-16880000D03*
X12960000Y-16880000D03*
X10420000Y-16880000D03*
X7880000Y-16880000D03*
%TD*%
D14*
%TO.C,J1*%
X19920000Y-47460000D03*
D15*
X19920000Y-44920000D03*
X22460000Y-47460000D03*
X22460000Y-44920000D03*
X25000000Y-47460000D03*
X25000000Y-44920000D03*
X27540000Y-47460000D03*
X27540000Y-44920000D03*
X30080000Y-47460000D03*
X30080000Y-44920000D03*
%TD*%
D16*
%TO.C,H4*%
X2600000Y-45000000D03*
X3302944Y-43302944D03*
X3302944Y-46697056D03*
X5000000Y-42600000D03*
D17*
X5000000Y-45000000D03*
D16*
X5000000Y-47400000D03*
X6697056Y-43302944D03*
X6697056Y-46697056D03*
X7400000Y-45000000D03*
%TD*%
D14*
%TO.C,J3*%
X42460000Y-29000000D03*
D15*
X45000000Y-29000000D03*
X47540000Y-29000000D03*
%TD*%
D11*
%TO.C,R1*%
X22700000Y-18000000D03*
X27500000Y-18000000D03*
%TD*%
%TO.C,R2*%
X22700000Y-23000000D03*
X27500000Y-23000000D03*
%TD*%
D18*
%TO.C,R4*%
X45300000Y-20500000D03*
X40500000Y-20500000D03*
%TD*%
D19*
%TO.C,C1*%
X23925000Y-30000000D03*
X26000000Y-30000000D03*
%TD*%
D16*
%TO.C,H1*%
X2600000Y-5000000D03*
X3302944Y-3302944D03*
X3302944Y-6697056D03*
X5000000Y-2600000D03*
D17*
X5000000Y-5000000D03*
D16*
X5000000Y-7400000D03*
X6697056Y-3302944D03*
X6697056Y-6697056D03*
X7400000Y-5000000D03*
%TD*%
D20*
%TO.C,R5*%
X24000000Y-38900000D03*
X24000000Y-34100000D03*
%TD*%
D16*
%TO.C,H2*%
X42600000Y-5000000D03*
X43302944Y-3302944D03*
X43302944Y-6697056D03*
X45000000Y-2600000D03*
D17*
X45000000Y-5000000D03*
D16*
X45000000Y-7400000D03*
X46697056Y-3302944D03*
X46697056Y-6697056D03*
X47400000Y-5000000D03*
%TD*%
D14*
%TO.C,J5*%
X42420000Y-36500000D03*
D15*
X44960000Y-36500000D03*
X47500000Y-36500000D03*
%TD*%
D16*
%TO.C,H3*%
X42600000Y-45000000D03*
X43302944Y-43302944D03*
X43302944Y-46697056D03*
X45000000Y-42600000D03*
D17*
X45000000Y-45000000D03*
D16*
X45000000Y-47400000D03*
X46697056Y-43302944D03*
X46697056Y-46697056D03*
X47400000Y-45000000D03*
%TD*%
M02*
