%TF.GenerationSoftware,KiCad,Pcbnew,7.0.7*%
%TF.CreationDate,2024-02-22T12:36:16+00:00*%
%TF.ProjectId,solenoidInterface_rev0,736f6c65-6e6f-4696-9449-6e7465726661,rev?*%
%TF.SameCoordinates,Original*%
%TF.FileFunction,Legend,Bot*%
%TF.FilePolarity,Positive*%
%FSLAX46Y46*%
G04 Gerber Fmt 4.6, Leading zero omitted, Abs format (unit mm)*
G04 Created by KiCad (PCBNEW 7.0.7) date 2024-02-22 12:36:16*
%MOMM*%
%LPD*%
G01*
G04 APERTURE LIST*
%ADD10C,0.150000*%
%ADD11C,0.120000*%
G04 APERTURE END LIST*
D10*
X6234819Y-21933333D02*
X5758628Y-21600000D01*
X6234819Y-21361905D02*
X5234819Y-21361905D01*
X5234819Y-21361905D02*
X5234819Y-21742857D01*
X5234819Y-21742857D02*
X5282438Y-21838095D01*
X5282438Y-21838095D02*
X5330057Y-21885714D01*
X5330057Y-21885714D02*
X5425295Y-21933333D01*
X5425295Y-21933333D02*
X5568152Y-21933333D01*
X5568152Y-21933333D02*
X5663390Y-21885714D01*
X5663390Y-21885714D02*
X5711009Y-21838095D01*
X5711009Y-21838095D02*
X5758628Y-21742857D01*
X5758628Y-21742857D02*
X5758628Y-21361905D01*
X5234819Y-22266667D02*
X5234819Y-22885714D01*
X5234819Y-22885714D02*
X5615771Y-22552381D01*
X5615771Y-22552381D02*
X5615771Y-22695238D01*
X5615771Y-22695238D02*
X5663390Y-22790476D01*
X5663390Y-22790476D02*
X5711009Y-22838095D01*
X5711009Y-22838095D02*
X5806247Y-22885714D01*
X5806247Y-22885714D02*
X6044342Y-22885714D01*
X6044342Y-22885714D02*
X6139580Y-22838095D01*
X6139580Y-22838095D02*
X6187200Y-22790476D01*
X6187200Y-22790476D02*
X6234819Y-22695238D01*
X6234819Y-22695238D02*
X6234819Y-22409524D01*
X6234819Y-22409524D02*
X6187200Y-22314286D01*
X6187200Y-22314286D02*
X6139580Y-22266667D01*
X26734819Y-16308333D02*
X26258628Y-15975000D01*
X26734819Y-15736905D02*
X25734819Y-15736905D01*
X25734819Y-15736905D02*
X25734819Y-16117857D01*
X25734819Y-16117857D02*
X25782438Y-16213095D01*
X25782438Y-16213095D02*
X25830057Y-16260714D01*
X25830057Y-16260714D02*
X25925295Y-16308333D01*
X25925295Y-16308333D02*
X26068152Y-16308333D01*
X26068152Y-16308333D02*
X26163390Y-16260714D01*
X26163390Y-16260714D02*
X26211009Y-16213095D01*
X26211009Y-16213095D02*
X26258628Y-16117857D01*
X26258628Y-16117857D02*
X26258628Y-15736905D01*
X26734819Y-17260714D02*
X26734819Y-16689286D01*
X26734819Y-16975000D02*
X25734819Y-16975000D01*
X25734819Y-16975000D02*
X25877676Y-16879762D01*
X25877676Y-16879762D02*
X25972914Y-16784524D01*
X25972914Y-16784524D02*
X26020533Y-16689286D01*
D11*
%TO.C,R3*%
X2140000Y-23627064D02*
X2140000Y-20572936D01*
X4860000Y-23627064D02*
X4860000Y-20572936D01*
%TO.C,R1*%
X22640000Y-18002064D02*
X22640000Y-14947936D01*
X25360000Y-18002064D02*
X25360000Y-14947936D01*
%TD*%
M02*
