%TF.GenerationSoftware,KiCad,Pcbnew,7.0.7*%
%TF.CreationDate,2024-02-22T12:36:25+00:00*%
%TF.ProjectId,solenoidInterface_rev0,736f6c65-6e6f-4696-9449-6e7465726661,rev?*%
%TF.SameCoordinates,Original*%
%TF.FileFunction,Drillmap*%
%TF.FilePolarity,Positive*%
%FSLAX45Y45*%
G04 Gerber Fmt 4.5, Leading zero omitted, Abs format (unit mm)*
G04 Created by KiCad (PCBNEW 7.0.7) date 2024-02-22 12:36:25*
%MOMM*%
%LPD*%
G01*
G04 APERTURE LIST*
%ADD10C,0.100000*%
%ADD11C,0.200000*%
%ADD12C,0.050000*%
%ADD13C,0.080000*%
%ADD14C,0.090000*%
%ADD15C,0.110000*%
%ADD16C,0.250000*%
G04 APERTURE END LIST*
D10*
X0Y-3200000D02*
X0Y-300000D01*
X3000000Y-300000D02*
G75*
G03*
X2700000Y0I-300000J0D01*
G01*
X300000Y0D02*
X2700000Y0D01*
X300000Y0D02*
G75*
G03*
X0Y-300000I0J-300000D01*
G01*
X2700000Y-3500000D02*
X300000Y-3500000D01*
X2700000Y-3500000D02*
G75*
G03*
X3000000Y-3200000I0J300000D01*
G01*
X3000000Y-300000D02*
X3000000Y-3200000D01*
X0Y-3200000D02*
G75*
G03*
X300000Y-3500000I300000J0D01*
G01*
D11*
D12*
X87500Y-275000D02*
X137500Y-325000D01*
X137500Y-275000D02*
X87500Y-325000D01*
X87500Y-3175000D02*
X137500Y-3225000D01*
X137500Y-3175000D02*
X87500Y-3225000D01*
X142418Y-142418D02*
X192417Y-192417D01*
X192417Y-142418D02*
X142418Y-192417D01*
X142418Y-407582D02*
X192417Y-457582D01*
X192417Y-407582D02*
X142418Y-457582D01*
X142418Y-3042417D02*
X192417Y-3092417D01*
X192417Y-3042417D02*
X142418Y-3092417D01*
X142418Y-3307582D02*
X192417Y-3357582D01*
X192417Y-3307582D02*
X142418Y-3357582D01*
X275000Y-87500D02*
X325000Y-137500D01*
X325000Y-87500D02*
X275000Y-137500D01*
X275000Y-462500D02*
X325000Y-512500D01*
X325000Y-462500D02*
X275000Y-512500D01*
X275000Y-2987500D02*
X325000Y-3037500D01*
X325000Y-2987500D02*
X275000Y-3037500D01*
X275000Y-3362500D02*
X325000Y-3412500D01*
X325000Y-3362500D02*
X275000Y-3412500D01*
X407582Y-142418D02*
X457582Y-192417D01*
X457582Y-142418D02*
X407582Y-192417D01*
X407582Y-407582D02*
X457582Y-457582D01*
X457582Y-407582D02*
X407582Y-457582D01*
X407582Y-3042417D02*
X457582Y-3092417D01*
X457582Y-3042417D02*
X407582Y-3092417D01*
X407582Y-3307582D02*
X457582Y-3357582D01*
X457582Y-3307582D02*
X407582Y-3357582D01*
X462500Y-275000D02*
X512500Y-325000D01*
X512500Y-275000D02*
X462500Y-325000D01*
X462500Y-3175000D02*
X512500Y-3225000D01*
X512500Y-3175000D02*
X462500Y-3225000D01*
X2487500Y-275000D02*
X2537500Y-325000D01*
X2537500Y-275000D02*
X2487500Y-325000D01*
X2487500Y-3175000D02*
X2537500Y-3225000D01*
X2537500Y-3175000D02*
X2487500Y-3225000D01*
X2542418Y-142418D02*
X2592418Y-192417D01*
X2592418Y-142418D02*
X2542418Y-192417D01*
X2542418Y-407582D02*
X2592418Y-457582D01*
X2592418Y-407582D02*
X2542418Y-457582D01*
X2542418Y-3042417D02*
X2592418Y-3092417D01*
X2592418Y-3042417D02*
X2542418Y-3092417D01*
X2542418Y-3307582D02*
X2592418Y-3357582D01*
X2592418Y-3307582D02*
X2542418Y-3357582D01*
X2675000Y-87500D02*
X2725000Y-137500D01*
X2725000Y-87500D02*
X2675000Y-137500D01*
X2675000Y-462500D02*
X2725000Y-512500D01*
X2725000Y-462500D02*
X2675000Y-512500D01*
X2675000Y-2987500D02*
X2725000Y-3037500D01*
X2725000Y-2987500D02*
X2675000Y-3037500D01*
X2675000Y-3362500D02*
X2725000Y-3412500D01*
X2725000Y-3362500D02*
X2675000Y-3412500D01*
X2807582Y-142418D02*
X2857582Y-192417D01*
X2857582Y-142418D02*
X2807582Y-192417D01*
X2807582Y-407582D02*
X2857582Y-457582D01*
X2857582Y-407582D02*
X2807582Y-457582D01*
X2807582Y-3042417D02*
X2857582Y-3092417D01*
X2857582Y-3042417D02*
X2807582Y-3092417D01*
X2807582Y-3307582D02*
X2857582Y-3357582D01*
X2857582Y-3307582D02*
X2807582Y-3357582D01*
X2862500Y-275000D02*
X2912500Y-325000D01*
X2912500Y-275000D02*
X2862500Y-325000D01*
X2862500Y-3175000D02*
X2912500Y-3225000D01*
X2912500Y-3175000D02*
X2862500Y-3225000D01*
D13*
X2078000Y-1392000D02*
G75*
G03*
X2078000Y-1392000I-40000J0D01*
G01*
X2078000Y-1646000D02*
G75*
G03*
X2078000Y-1646000I-40000J0D01*
G01*
X2078000Y-1900000D02*
G75*
G03*
X2078000Y-1900000I-40000J0D01*
G01*
X2840000Y-1392000D02*
G75*
G03*
X2840000Y-1392000I-40000J0D01*
G01*
X2840000Y-1646000D02*
G75*
G03*
X2840000Y-1646000I-40000J0D01*
G01*
X2840000Y-1900000D02*
G75*
G03*
X2840000Y-1900000I-40000J0D01*
G01*
D14*
X272500Y-1355000D02*
X272500Y-1445000D01*
X227500Y-1400000D02*
X317500Y-1400000D01*
X526500Y-1355000D02*
X526500Y-1445000D01*
X481500Y-1400000D02*
X571500Y-1400000D01*
X919000Y-1405000D02*
X919000Y-1495000D01*
X874000Y-1450000D02*
X964000Y-1450000D01*
X1681000Y-1405000D02*
X1681000Y-1495000D01*
X1636000Y-1450000D02*
X1726000Y-1450000D01*
D10*
X900356Y-2435356D02*
X900356Y-2364644D01*
X829644Y-2364644D01*
X829644Y-2435356D01*
X900356Y-2435356D01*
X1154356Y-2435356D02*
X1154356Y-2364644D01*
X1083644Y-2364644D01*
X1083644Y-2435356D01*
X1154356Y-2435356D01*
X1408356Y-2435356D02*
X1408356Y-2364644D01*
X1337644Y-2364644D01*
X1337644Y-2435356D01*
X1408356Y-2435356D01*
X1662356Y-2435356D02*
X1662356Y-2364644D01*
X1591644Y-2364644D01*
X1591644Y-2435356D01*
X1662356Y-2435356D01*
X1916356Y-2435356D02*
X1916356Y-2364644D01*
X1845644Y-2364644D01*
X1845644Y-2435356D01*
X1916356Y-2435356D01*
X2170356Y-2435356D02*
X2170356Y-2364644D01*
X2099644Y-2364644D01*
X2099644Y-2435356D01*
X2170356Y-2435356D01*
D15*
X865000Y-375000D02*
X920000Y-320000D01*
X865000Y-265000D01*
X810000Y-320000D01*
X865000Y-375000D01*
X1119000Y-375000D02*
X1174000Y-320000D01*
X1119000Y-265000D01*
X1064000Y-320000D01*
X1119000Y-375000D01*
X1373000Y-375000D02*
X1428000Y-320000D01*
X1373000Y-265000D01*
X1318000Y-320000D01*
X1373000Y-375000D01*
X1627000Y-375000D02*
X1682000Y-320000D01*
X1627000Y-265000D01*
X1572000Y-320000D01*
X1627000Y-375000D01*
X1881000Y-375000D02*
X1936000Y-320000D01*
X1881000Y-265000D01*
X1826000Y-320000D01*
X1881000Y-375000D01*
X2135000Y-375000D02*
X2190000Y-320000D01*
X2135000Y-265000D01*
X2080000Y-320000D01*
X2135000Y-375000D01*
D16*
X175000Y-175000D02*
X425000Y-425000D01*
X425000Y-175000D02*
X175000Y-425000D01*
X425000Y-300000D02*
G75*
G03*
X425000Y-300000I-125000J0D01*
G01*
X175000Y-3075000D02*
X425000Y-3325000D01*
X425000Y-3075000D02*
X175000Y-3325000D01*
X425000Y-3200000D02*
G75*
G03*
X425000Y-3200000I-125000J0D01*
G01*
X2575000Y-175000D02*
X2825000Y-425000D01*
X2825000Y-175000D02*
X2575000Y-425000D01*
X2825000Y-300000D02*
G75*
G03*
X2825000Y-300000I-125000J0D01*
G01*
X2575000Y-3075000D02*
X2825000Y-3325000D01*
X2825000Y-3075000D02*
X2575000Y-3325000D01*
X2825000Y-3200000D02*
G75*
G03*
X2825000Y-3200000I-125000J0D01*
G01*
D11*
X255777Y-3816484D02*
X255777Y-3616484D01*
X255777Y-3616484D02*
X303396Y-3616484D01*
X303396Y-3616484D02*
X331967Y-3626008D01*
X331967Y-3626008D02*
X351015Y-3645055D01*
X351015Y-3645055D02*
X360539Y-3664103D01*
X360539Y-3664103D02*
X370062Y-3702198D01*
X370062Y-3702198D02*
X370062Y-3730769D01*
X370062Y-3730769D02*
X360539Y-3768865D01*
X360539Y-3768865D02*
X351015Y-3787912D01*
X351015Y-3787912D02*
X331967Y-3806960D01*
X331967Y-3806960D02*
X303396Y-3816484D01*
X303396Y-3816484D02*
X255777Y-3816484D01*
X455777Y-3816484D02*
X455777Y-3683150D01*
X455777Y-3721246D02*
X465301Y-3702198D01*
X465301Y-3702198D02*
X474824Y-3692674D01*
X474824Y-3692674D02*
X493872Y-3683150D01*
X493872Y-3683150D02*
X512920Y-3683150D01*
X579586Y-3816484D02*
X579586Y-3683150D01*
X579586Y-3616484D02*
X570063Y-3626008D01*
X570063Y-3626008D02*
X579586Y-3635531D01*
X579586Y-3635531D02*
X589110Y-3626008D01*
X589110Y-3626008D02*
X579586Y-3616484D01*
X579586Y-3616484D02*
X579586Y-3635531D01*
X703396Y-3816484D02*
X684348Y-3806960D01*
X684348Y-3806960D02*
X674824Y-3787912D01*
X674824Y-3787912D02*
X674824Y-3616484D01*
X808158Y-3816484D02*
X789110Y-3806960D01*
X789110Y-3806960D02*
X779586Y-3787912D01*
X779586Y-3787912D02*
X779586Y-3616484D01*
X1036729Y-3816484D02*
X1036729Y-3616484D01*
X1036729Y-3616484D02*
X1103396Y-3759341D01*
X1103396Y-3759341D02*
X1170063Y-3616484D01*
X1170063Y-3616484D02*
X1170063Y-3816484D01*
X1351015Y-3816484D02*
X1351015Y-3711722D01*
X1351015Y-3711722D02*
X1341491Y-3692674D01*
X1341491Y-3692674D02*
X1322444Y-3683150D01*
X1322444Y-3683150D02*
X1284348Y-3683150D01*
X1284348Y-3683150D02*
X1265301Y-3692674D01*
X1351015Y-3806960D02*
X1331967Y-3816484D01*
X1331967Y-3816484D02*
X1284348Y-3816484D01*
X1284348Y-3816484D02*
X1265301Y-3806960D01*
X1265301Y-3806960D02*
X1255777Y-3787912D01*
X1255777Y-3787912D02*
X1255777Y-3768865D01*
X1255777Y-3768865D02*
X1265301Y-3749817D01*
X1265301Y-3749817D02*
X1284348Y-3740293D01*
X1284348Y-3740293D02*
X1331967Y-3740293D01*
X1331967Y-3740293D02*
X1351015Y-3730769D01*
X1446253Y-3683150D02*
X1446253Y-3883150D01*
X1446253Y-3692674D02*
X1465301Y-3683150D01*
X1465301Y-3683150D02*
X1503396Y-3683150D01*
X1503396Y-3683150D02*
X1522443Y-3692674D01*
X1522443Y-3692674D02*
X1531967Y-3702198D01*
X1531967Y-3702198D02*
X1541491Y-3721246D01*
X1541491Y-3721246D02*
X1541491Y-3778388D01*
X1541491Y-3778388D02*
X1531967Y-3797436D01*
X1531967Y-3797436D02*
X1522443Y-3806960D01*
X1522443Y-3806960D02*
X1503396Y-3816484D01*
X1503396Y-3816484D02*
X1465301Y-3816484D01*
X1465301Y-3816484D02*
X1446253Y-3806960D01*
X1627205Y-3797436D02*
X1636729Y-3806960D01*
X1636729Y-3806960D02*
X1627205Y-3816484D01*
X1627205Y-3816484D02*
X1617682Y-3806960D01*
X1617682Y-3806960D02*
X1627205Y-3797436D01*
X1627205Y-3797436D02*
X1627205Y-3816484D01*
X1627205Y-3692674D02*
X1636729Y-3702198D01*
X1636729Y-3702198D02*
X1627205Y-3711722D01*
X1627205Y-3711722D02*
X1617682Y-3702198D01*
X1617682Y-3702198D02*
X1627205Y-3692674D01*
X1627205Y-3692674D02*
X1627205Y-3711722D01*
D12*
X-55000Y-4120000D02*
X-5000Y-4170000D01*
X-5000Y-4120000D02*
X-55000Y-4170000D01*
D11*
X293872Y-4036484D02*
X312920Y-4036484D01*
X312920Y-4036484D02*
X331967Y-4046008D01*
X331967Y-4046008D02*
X341491Y-4055531D01*
X341491Y-4055531D02*
X351015Y-4074579D01*
X351015Y-4074579D02*
X360539Y-4112674D01*
X360539Y-4112674D02*
X360539Y-4160293D01*
X360539Y-4160293D02*
X351015Y-4198389D01*
X351015Y-4198389D02*
X341491Y-4217436D01*
X341491Y-4217436D02*
X331967Y-4226960D01*
X331967Y-4226960D02*
X312920Y-4236484D01*
X312920Y-4236484D02*
X293872Y-4236484D01*
X293872Y-4236484D02*
X274824Y-4226960D01*
X274824Y-4226960D02*
X265301Y-4217436D01*
X265301Y-4217436D02*
X255777Y-4198389D01*
X255777Y-4198389D02*
X246253Y-4160293D01*
X246253Y-4160293D02*
X246253Y-4112674D01*
X246253Y-4112674D02*
X255777Y-4074579D01*
X255777Y-4074579D02*
X265301Y-4055531D01*
X265301Y-4055531D02*
X274824Y-4046008D01*
X274824Y-4046008D02*
X293872Y-4036484D01*
X446253Y-4217436D02*
X455777Y-4226960D01*
X455777Y-4226960D02*
X446253Y-4236484D01*
X446253Y-4236484D02*
X436729Y-4226960D01*
X436729Y-4226960D02*
X446253Y-4217436D01*
X446253Y-4217436D02*
X446253Y-4236484D01*
X636729Y-4036484D02*
X541491Y-4036484D01*
X541491Y-4036484D02*
X531967Y-4131722D01*
X531967Y-4131722D02*
X541491Y-4122198D01*
X541491Y-4122198D02*
X560539Y-4112674D01*
X560539Y-4112674D02*
X608158Y-4112674D01*
X608158Y-4112674D02*
X627205Y-4122198D01*
X627205Y-4122198D02*
X636729Y-4131722D01*
X636729Y-4131722D02*
X646253Y-4150769D01*
X646253Y-4150769D02*
X646253Y-4198389D01*
X646253Y-4198389D02*
X636729Y-4217436D01*
X636729Y-4217436D02*
X627205Y-4226960D01*
X627205Y-4226960D02*
X608158Y-4236484D01*
X608158Y-4236484D02*
X560539Y-4236484D01*
X560539Y-4236484D02*
X541491Y-4226960D01*
X541491Y-4226960D02*
X531967Y-4217436D01*
X770062Y-4036484D02*
X789110Y-4036484D01*
X789110Y-4036484D02*
X808158Y-4046008D01*
X808158Y-4046008D02*
X817682Y-4055531D01*
X817682Y-4055531D02*
X827205Y-4074579D01*
X827205Y-4074579D02*
X836729Y-4112674D01*
X836729Y-4112674D02*
X836729Y-4160293D01*
X836729Y-4160293D02*
X827205Y-4198389D01*
X827205Y-4198389D02*
X817682Y-4217436D01*
X817682Y-4217436D02*
X808158Y-4226960D01*
X808158Y-4226960D02*
X789110Y-4236484D01*
X789110Y-4236484D02*
X770062Y-4236484D01*
X770062Y-4236484D02*
X751015Y-4226960D01*
X751015Y-4226960D02*
X741491Y-4217436D01*
X741491Y-4217436D02*
X731967Y-4198389D01*
X731967Y-4198389D02*
X722443Y-4160293D01*
X722443Y-4160293D02*
X722443Y-4112674D01*
X722443Y-4112674D02*
X731967Y-4074579D01*
X731967Y-4074579D02*
X741491Y-4055531D01*
X741491Y-4055531D02*
X751015Y-4046008D01*
X751015Y-4046008D02*
X770062Y-4036484D01*
X960539Y-4036484D02*
X979586Y-4036484D01*
X979586Y-4036484D02*
X998634Y-4046008D01*
X998634Y-4046008D02*
X1008158Y-4055531D01*
X1008158Y-4055531D02*
X1017682Y-4074579D01*
X1017682Y-4074579D02*
X1027205Y-4112674D01*
X1027205Y-4112674D02*
X1027205Y-4160293D01*
X1027205Y-4160293D02*
X1017682Y-4198389D01*
X1017682Y-4198389D02*
X1008158Y-4217436D01*
X1008158Y-4217436D02*
X998634Y-4226960D01*
X998634Y-4226960D02*
X979586Y-4236484D01*
X979586Y-4236484D02*
X960539Y-4236484D01*
X960539Y-4236484D02*
X941491Y-4226960D01*
X941491Y-4226960D02*
X931967Y-4217436D01*
X931967Y-4217436D02*
X922443Y-4198389D01*
X922443Y-4198389D02*
X912920Y-4160293D01*
X912920Y-4160293D02*
X912920Y-4112674D01*
X912920Y-4112674D02*
X922443Y-4074579D01*
X922443Y-4074579D02*
X931967Y-4055531D01*
X931967Y-4055531D02*
X941491Y-4046008D01*
X941491Y-4046008D02*
X960539Y-4036484D01*
X1112920Y-4236484D02*
X1112920Y-4103150D01*
X1112920Y-4122198D02*
X1122444Y-4112674D01*
X1122444Y-4112674D02*
X1141491Y-4103150D01*
X1141491Y-4103150D02*
X1170063Y-4103150D01*
X1170063Y-4103150D02*
X1189110Y-4112674D01*
X1189110Y-4112674D02*
X1198634Y-4131722D01*
X1198634Y-4131722D02*
X1198634Y-4236484D01*
X1198634Y-4131722D02*
X1208158Y-4112674D01*
X1208158Y-4112674D02*
X1227205Y-4103150D01*
X1227205Y-4103150D02*
X1255777Y-4103150D01*
X1255777Y-4103150D02*
X1274825Y-4112674D01*
X1274825Y-4112674D02*
X1284348Y-4131722D01*
X1284348Y-4131722D02*
X1284348Y-4236484D01*
X1379586Y-4236484D02*
X1379586Y-4103150D01*
X1379586Y-4122198D02*
X1389110Y-4112674D01*
X1389110Y-4112674D02*
X1408158Y-4103150D01*
X1408158Y-4103150D02*
X1436729Y-4103150D01*
X1436729Y-4103150D02*
X1455777Y-4112674D01*
X1455777Y-4112674D02*
X1465301Y-4131722D01*
X1465301Y-4131722D02*
X1465301Y-4236484D01*
X1465301Y-4131722D02*
X1474824Y-4112674D01*
X1474824Y-4112674D02*
X1493872Y-4103150D01*
X1493872Y-4103150D02*
X1522443Y-4103150D01*
X1522443Y-4103150D02*
X1541491Y-4112674D01*
X1541491Y-4112674D02*
X1551015Y-4131722D01*
X1551015Y-4131722D02*
X1551015Y-4236484D01*
X1941491Y-4026960D02*
X1770063Y-4284103D01*
X2198634Y-4036484D02*
X2217682Y-4036484D01*
X2217682Y-4036484D02*
X2236729Y-4046008D01*
X2236729Y-4046008D02*
X2246253Y-4055531D01*
X2246253Y-4055531D02*
X2255777Y-4074579D01*
X2255777Y-4074579D02*
X2265301Y-4112674D01*
X2265301Y-4112674D02*
X2265301Y-4160293D01*
X2265301Y-4160293D02*
X2255777Y-4198389D01*
X2255777Y-4198389D02*
X2246253Y-4217436D01*
X2246253Y-4217436D02*
X2236729Y-4226960D01*
X2236729Y-4226960D02*
X2217682Y-4236484D01*
X2217682Y-4236484D02*
X2198634Y-4236484D01*
X2198634Y-4236484D02*
X2179587Y-4226960D01*
X2179587Y-4226960D02*
X2170063Y-4217436D01*
X2170063Y-4217436D02*
X2160539Y-4198389D01*
X2160539Y-4198389D02*
X2151015Y-4160293D01*
X2151015Y-4160293D02*
X2151015Y-4112674D01*
X2151015Y-4112674D02*
X2160539Y-4074579D01*
X2160539Y-4074579D02*
X2170063Y-4055531D01*
X2170063Y-4055531D02*
X2179587Y-4046008D01*
X2179587Y-4046008D02*
X2198634Y-4036484D01*
X2351015Y-4217436D02*
X2360539Y-4226960D01*
X2360539Y-4226960D02*
X2351015Y-4236484D01*
X2351015Y-4236484D02*
X2341491Y-4226960D01*
X2341491Y-4226960D02*
X2351015Y-4217436D01*
X2351015Y-4217436D02*
X2351015Y-4236484D01*
X2484348Y-4036484D02*
X2503396Y-4036484D01*
X2503396Y-4036484D02*
X2522444Y-4046008D01*
X2522444Y-4046008D02*
X2531968Y-4055531D01*
X2531968Y-4055531D02*
X2541491Y-4074579D01*
X2541491Y-4074579D02*
X2551015Y-4112674D01*
X2551015Y-4112674D02*
X2551015Y-4160293D01*
X2551015Y-4160293D02*
X2541491Y-4198389D01*
X2541491Y-4198389D02*
X2531968Y-4217436D01*
X2531968Y-4217436D02*
X2522444Y-4226960D01*
X2522444Y-4226960D02*
X2503396Y-4236484D01*
X2503396Y-4236484D02*
X2484348Y-4236484D01*
X2484348Y-4236484D02*
X2465301Y-4226960D01*
X2465301Y-4226960D02*
X2455777Y-4217436D01*
X2455777Y-4217436D02*
X2446253Y-4198389D01*
X2446253Y-4198389D02*
X2436729Y-4160293D01*
X2436729Y-4160293D02*
X2436729Y-4112674D01*
X2436729Y-4112674D02*
X2446253Y-4074579D01*
X2446253Y-4074579D02*
X2455777Y-4055531D01*
X2455777Y-4055531D02*
X2465301Y-4046008D01*
X2465301Y-4046008D02*
X2484348Y-4036484D01*
X2741491Y-4236484D02*
X2627206Y-4236484D01*
X2684348Y-4236484D02*
X2684348Y-4036484D01*
X2684348Y-4036484D02*
X2665301Y-4065055D01*
X2665301Y-4065055D02*
X2646253Y-4084103D01*
X2646253Y-4084103D02*
X2627206Y-4093627D01*
X2836729Y-4236484D02*
X2874825Y-4236484D01*
X2874825Y-4236484D02*
X2893872Y-4226960D01*
X2893872Y-4226960D02*
X2903396Y-4217436D01*
X2903396Y-4217436D02*
X2922444Y-4188865D01*
X2922444Y-4188865D02*
X2931967Y-4150769D01*
X2931967Y-4150769D02*
X2931967Y-4074579D01*
X2931967Y-4074579D02*
X2922444Y-4055531D01*
X2922444Y-4055531D02*
X2912920Y-4046008D01*
X2912920Y-4046008D02*
X2893872Y-4036484D01*
X2893872Y-4036484D02*
X2855777Y-4036484D01*
X2855777Y-4036484D02*
X2836729Y-4046008D01*
X2836729Y-4046008D02*
X2827206Y-4055531D01*
X2827206Y-4055531D02*
X2817682Y-4074579D01*
X2817682Y-4074579D02*
X2817682Y-4122198D01*
X2817682Y-4122198D02*
X2827206Y-4141246D01*
X2827206Y-4141246D02*
X2836729Y-4150769D01*
X2836729Y-4150769D02*
X2855777Y-4160293D01*
X2855777Y-4160293D02*
X2893872Y-4160293D01*
X2893872Y-4160293D02*
X2912920Y-4150769D01*
X2912920Y-4150769D02*
X2922444Y-4141246D01*
X2922444Y-4141246D02*
X2931967Y-4122198D01*
X2998634Y-4036484D02*
X3131967Y-4036484D01*
X3131967Y-4036484D02*
X3046253Y-4236484D01*
X3198634Y-4036484D02*
X3198634Y-4074579D01*
X3274825Y-4036484D02*
X3274825Y-4074579D01*
X3570063Y-4312674D02*
X3560539Y-4303150D01*
X3560539Y-4303150D02*
X3541491Y-4274579D01*
X3541491Y-4274579D02*
X3531968Y-4255531D01*
X3531968Y-4255531D02*
X3522444Y-4226960D01*
X3522444Y-4226960D02*
X3512920Y-4179341D01*
X3512920Y-4179341D02*
X3512920Y-4141246D01*
X3512920Y-4141246D02*
X3522444Y-4093627D01*
X3522444Y-4093627D02*
X3531968Y-4065055D01*
X3531968Y-4065055D02*
X3541491Y-4046008D01*
X3541491Y-4046008D02*
X3560539Y-4017436D01*
X3560539Y-4017436D02*
X3570063Y-4007912D01*
X3627206Y-4036484D02*
X3751015Y-4036484D01*
X3751015Y-4036484D02*
X3684348Y-4112674D01*
X3684348Y-4112674D02*
X3712920Y-4112674D01*
X3712920Y-4112674D02*
X3731968Y-4122198D01*
X3731968Y-4122198D02*
X3741491Y-4131722D01*
X3741491Y-4131722D02*
X3751015Y-4150769D01*
X3751015Y-4150769D02*
X3751015Y-4198389D01*
X3751015Y-4198389D02*
X3741491Y-4217436D01*
X3741491Y-4217436D02*
X3731968Y-4226960D01*
X3731968Y-4226960D02*
X3712920Y-4236484D01*
X3712920Y-4236484D02*
X3655777Y-4236484D01*
X3655777Y-4236484D02*
X3636729Y-4226960D01*
X3636729Y-4226960D02*
X3627206Y-4217436D01*
X3827206Y-4055531D02*
X3836729Y-4046008D01*
X3836729Y-4046008D02*
X3855777Y-4036484D01*
X3855777Y-4036484D02*
X3903396Y-4036484D01*
X3903396Y-4036484D02*
X3922444Y-4046008D01*
X3922444Y-4046008D02*
X3931968Y-4055531D01*
X3931968Y-4055531D02*
X3941491Y-4074579D01*
X3941491Y-4074579D02*
X3941491Y-4093627D01*
X3941491Y-4093627D02*
X3931968Y-4122198D01*
X3931968Y-4122198D02*
X3817682Y-4236484D01*
X3817682Y-4236484D02*
X3941491Y-4236484D01*
X4179587Y-4236484D02*
X4179587Y-4036484D01*
X4265301Y-4236484D02*
X4265301Y-4131722D01*
X4265301Y-4131722D02*
X4255777Y-4112674D01*
X4255777Y-4112674D02*
X4236730Y-4103150D01*
X4236730Y-4103150D02*
X4208158Y-4103150D01*
X4208158Y-4103150D02*
X4189110Y-4112674D01*
X4189110Y-4112674D02*
X4179587Y-4122198D01*
X4389111Y-4236484D02*
X4370063Y-4226960D01*
X4370063Y-4226960D02*
X4360539Y-4217436D01*
X4360539Y-4217436D02*
X4351015Y-4198389D01*
X4351015Y-4198389D02*
X4351015Y-4141246D01*
X4351015Y-4141246D02*
X4360539Y-4122198D01*
X4360539Y-4122198D02*
X4370063Y-4112674D01*
X4370063Y-4112674D02*
X4389111Y-4103150D01*
X4389111Y-4103150D02*
X4417682Y-4103150D01*
X4417682Y-4103150D02*
X4436730Y-4112674D01*
X4436730Y-4112674D02*
X4446253Y-4122198D01*
X4446253Y-4122198D02*
X4455777Y-4141246D01*
X4455777Y-4141246D02*
X4455777Y-4198389D01*
X4455777Y-4198389D02*
X4446253Y-4217436D01*
X4446253Y-4217436D02*
X4436730Y-4226960D01*
X4436730Y-4226960D02*
X4417682Y-4236484D01*
X4417682Y-4236484D02*
X4389111Y-4236484D01*
X4570063Y-4236484D02*
X4551015Y-4226960D01*
X4551015Y-4226960D02*
X4541492Y-4207912D01*
X4541492Y-4207912D02*
X4541492Y-4036484D01*
X4722444Y-4226960D02*
X4703396Y-4236484D01*
X4703396Y-4236484D02*
X4665301Y-4236484D01*
X4665301Y-4236484D02*
X4646253Y-4226960D01*
X4646253Y-4226960D02*
X4636730Y-4207912D01*
X4636730Y-4207912D02*
X4636730Y-4131722D01*
X4636730Y-4131722D02*
X4646253Y-4112674D01*
X4646253Y-4112674D02*
X4665301Y-4103150D01*
X4665301Y-4103150D02*
X4703396Y-4103150D01*
X4703396Y-4103150D02*
X4722444Y-4112674D01*
X4722444Y-4112674D02*
X4731968Y-4131722D01*
X4731968Y-4131722D02*
X4731968Y-4150769D01*
X4731968Y-4150769D02*
X4636730Y-4169817D01*
X4808158Y-4226960D02*
X4827206Y-4236484D01*
X4827206Y-4236484D02*
X4865301Y-4236484D01*
X4865301Y-4236484D02*
X4884349Y-4226960D01*
X4884349Y-4226960D02*
X4893873Y-4207912D01*
X4893873Y-4207912D02*
X4893873Y-4198389D01*
X4893873Y-4198389D02*
X4884349Y-4179341D01*
X4884349Y-4179341D02*
X4865301Y-4169817D01*
X4865301Y-4169817D02*
X4836730Y-4169817D01*
X4836730Y-4169817D02*
X4817682Y-4160293D01*
X4817682Y-4160293D02*
X4808158Y-4141246D01*
X4808158Y-4141246D02*
X4808158Y-4131722D01*
X4808158Y-4131722D02*
X4817682Y-4112674D01*
X4817682Y-4112674D02*
X4836730Y-4103150D01*
X4836730Y-4103150D02*
X4865301Y-4103150D01*
X4865301Y-4103150D02*
X4884349Y-4112674D01*
X4960539Y-4312674D02*
X4970063Y-4303150D01*
X4970063Y-4303150D02*
X4989111Y-4274579D01*
X4989111Y-4274579D02*
X4998634Y-4255531D01*
X4998634Y-4255531D02*
X5008158Y-4226960D01*
X5008158Y-4226960D02*
X5017682Y-4179341D01*
X5017682Y-4179341D02*
X5017682Y-4141246D01*
X5017682Y-4141246D02*
X5008158Y-4093627D01*
X5008158Y-4093627D02*
X4998634Y-4065055D01*
X4998634Y-4065055D02*
X4989111Y-4046008D01*
X4989111Y-4046008D02*
X4970063Y-4017436D01*
X4970063Y-4017436D02*
X4960539Y-4007912D01*
D13*
X-5000Y-4409000D02*
G75*
G03*
X-5000Y-4409000I-40000J0D01*
G01*
D11*
X293872Y-4300484D02*
X312920Y-4300484D01*
X312920Y-4300484D02*
X331967Y-4310008D01*
X331967Y-4310008D02*
X341491Y-4319531D01*
X341491Y-4319531D02*
X351015Y-4338579D01*
X351015Y-4338579D02*
X360539Y-4376674D01*
X360539Y-4376674D02*
X360539Y-4424293D01*
X360539Y-4424293D02*
X351015Y-4462389D01*
X351015Y-4462389D02*
X341491Y-4481436D01*
X341491Y-4481436D02*
X331967Y-4490960D01*
X331967Y-4490960D02*
X312920Y-4500484D01*
X312920Y-4500484D02*
X293872Y-4500484D01*
X293872Y-4500484D02*
X274824Y-4490960D01*
X274824Y-4490960D02*
X265301Y-4481436D01*
X265301Y-4481436D02*
X255777Y-4462389D01*
X255777Y-4462389D02*
X246253Y-4424293D01*
X246253Y-4424293D02*
X246253Y-4376674D01*
X246253Y-4376674D02*
X255777Y-4338579D01*
X255777Y-4338579D02*
X265301Y-4319531D01*
X265301Y-4319531D02*
X274824Y-4310008D01*
X274824Y-4310008D02*
X293872Y-4300484D01*
X446253Y-4481436D02*
X455777Y-4490960D01*
X455777Y-4490960D02*
X446253Y-4500484D01*
X446253Y-4500484D02*
X436729Y-4490960D01*
X436729Y-4490960D02*
X446253Y-4481436D01*
X446253Y-4481436D02*
X446253Y-4500484D01*
X570063Y-4386198D02*
X551015Y-4376674D01*
X551015Y-4376674D02*
X541491Y-4367150D01*
X541491Y-4367150D02*
X531967Y-4348103D01*
X531967Y-4348103D02*
X531967Y-4338579D01*
X531967Y-4338579D02*
X541491Y-4319531D01*
X541491Y-4319531D02*
X551015Y-4310008D01*
X551015Y-4310008D02*
X570063Y-4300484D01*
X570063Y-4300484D02*
X608158Y-4300484D01*
X608158Y-4300484D02*
X627205Y-4310008D01*
X627205Y-4310008D02*
X636729Y-4319531D01*
X636729Y-4319531D02*
X646253Y-4338579D01*
X646253Y-4338579D02*
X646253Y-4348103D01*
X646253Y-4348103D02*
X636729Y-4367150D01*
X636729Y-4367150D02*
X627205Y-4376674D01*
X627205Y-4376674D02*
X608158Y-4386198D01*
X608158Y-4386198D02*
X570063Y-4386198D01*
X570063Y-4386198D02*
X551015Y-4395722D01*
X551015Y-4395722D02*
X541491Y-4405246D01*
X541491Y-4405246D02*
X531967Y-4424293D01*
X531967Y-4424293D02*
X531967Y-4462389D01*
X531967Y-4462389D02*
X541491Y-4481436D01*
X541491Y-4481436D02*
X551015Y-4490960D01*
X551015Y-4490960D02*
X570063Y-4500484D01*
X570063Y-4500484D02*
X608158Y-4500484D01*
X608158Y-4500484D02*
X627205Y-4490960D01*
X627205Y-4490960D02*
X636729Y-4481436D01*
X636729Y-4481436D02*
X646253Y-4462389D01*
X646253Y-4462389D02*
X646253Y-4424293D01*
X646253Y-4424293D02*
X636729Y-4405246D01*
X636729Y-4405246D02*
X627205Y-4395722D01*
X627205Y-4395722D02*
X608158Y-4386198D01*
X770062Y-4300484D02*
X789110Y-4300484D01*
X789110Y-4300484D02*
X808158Y-4310008D01*
X808158Y-4310008D02*
X817682Y-4319531D01*
X817682Y-4319531D02*
X827205Y-4338579D01*
X827205Y-4338579D02*
X836729Y-4376674D01*
X836729Y-4376674D02*
X836729Y-4424293D01*
X836729Y-4424293D02*
X827205Y-4462389D01*
X827205Y-4462389D02*
X817682Y-4481436D01*
X817682Y-4481436D02*
X808158Y-4490960D01*
X808158Y-4490960D02*
X789110Y-4500484D01*
X789110Y-4500484D02*
X770062Y-4500484D01*
X770062Y-4500484D02*
X751015Y-4490960D01*
X751015Y-4490960D02*
X741491Y-4481436D01*
X741491Y-4481436D02*
X731967Y-4462389D01*
X731967Y-4462389D02*
X722443Y-4424293D01*
X722443Y-4424293D02*
X722443Y-4376674D01*
X722443Y-4376674D02*
X731967Y-4338579D01*
X731967Y-4338579D02*
X741491Y-4319531D01*
X741491Y-4319531D02*
X751015Y-4310008D01*
X751015Y-4310008D02*
X770062Y-4300484D01*
X960539Y-4300484D02*
X979586Y-4300484D01*
X979586Y-4300484D02*
X998634Y-4310008D01*
X998634Y-4310008D02*
X1008158Y-4319531D01*
X1008158Y-4319531D02*
X1017682Y-4338579D01*
X1017682Y-4338579D02*
X1027205Y-4376674D01*
X1027205Y-4376674D02*
X1027205Y-4424293D01*
X1027205Y-4424293D02*
X1017682Y-4462389D01*
X1017682Y-4462389D02*
X1008158Y-4481436D01*
X1008158Y-4481436D02*
X998634Y-4490960D01*
X998634Y-4490960D02*
X979586Y-4500484D01*
X979586Y-4500484D02*
X960539Y-4500484D01*
X960539Y-4500484D02*
X941491Y-4490960D01*
X941491Y-4490960D02*
X931967Y-4481436D01*
X931967Y-4481436D02*
X922443Y-4462389D01*
X922443Y-4462389D02*
X912920Y-4424293D01*
X912920Y-4424293D02*
X912920Y-4376674D01*
X912920Y-4376674D02*
X922443Y-4338579D01*
X922443Y-4338579D02*
X931967Y-4319531D01*
X931967Y-4319531D02*
X941491Y-4310008D01*
X941491Y-4310008D02*
X960539Y-4300484D01*
X1112920Y-4500484D02*
X1112920Y-4367150D01*
X1112920Y-4386198D02*
X1122444Y-4376674D01*
X1122444Y-4376674D02*
X1141491Y-4367150D01*
X1141491Y-4367150D02*
X1170063Y-4367150D01*
X1170063Y-4367150D02*
X1189110Y-4376674D01*
X1189110Y-4376674D02*
X1198634Y-4395722D01*
X1198634Y-4395722D02*
X1198634Y-4500484D01*
X1198634Y-4395722D02*
X1208158Y-4376674D01*
X1208158Y-4376674D02*
X1227205Y-4367150D01*
X1227205Y-4367150D02*
X1255777Y-4367150D01*
X1255777Y-4367150D02*
X1274825Y-4376674D01*
X1274825Y-4376674D02*
X1284348Y-4395722D01*
X1284348Y-4395722D02*
X1284348Y-4500484D01*
X1379586Y-4500484D02*
X1379586Y-4367150D01*
X1379586Y-4386198D02*
X1389110Y-4376674D01*
X1389110Y-4376674D02*
X1408158Y-4367150D01*
X1408158Y-4367150D02*
X1436729Y-4367150D01*
X1436729Y-4367150D02*
X1455777Y-4376674D01*
X1455777Y-4376674D02*
X1465301Y-4395722D01*
X1465301Y-4395722D02*
X1465301Y-4500484D01*
X1465301Y-4395722D02*
X1474824Y-4376674D01*
X1474824Y-4376674D02*
X1493872Y-4367150D01*
X1493872Y-4367150D02*
X1522443Y-4367150D01*
X1522443Y-4367150D02*
X1541491Y-4376674D01*
X1541491Y-4376674D02*
X1551015Y-4395722D01*
X1551015Y-4395722D02*
X1551015Y-4500484D01*
X1941491Y-4290960D02*
X1770063Y-4548103D01*
X2198634Y-4300484D02*
X2217682Y-4300484D01*
X2217682Y-4300484D02*
X2236729Y-4310008D01*
X2236729Y-4310008D02*
X2246253Y-4319531D01*
X2246253Y-4319531D02*
X2255777Y-4338579D01*
X2255777Y-4338579D02*
X2265301Y-4376674D01*
X2265301Y-4376674D02*
X2265301Y-4424293D01*
X2265301Y-4424293D02*
X2255777Y-4462389D01*
X2255777Y-4462389D02*
X2246253Y-4481436D01*
X2246253Y-4481436D02*
X2236729Y-4490960D01*
X2236729Y-4490960D02*
X2217682Y-4500484D01*
X2217682Y-4500484D02*
X2198634Y-4500484D01*
X2198634Y-4500484D02*
X2179587Y-4490960D01*
X2179587Y-4490960D02*
X2170063Y-4481436D01*
X2170063Y-4481436D02*
X2160539Y-4462389D01*
X2160539Y-4462389D02*
X2151015Y-4424293D01*
X2151015Y-4424293D02*
X2151015Y-4376674D01*
X2151015Y-4376674D02*
X2160539Y-4338579D01*
X2160539Y-4338579D02*
X2170063Y-4319531D01*
X2170063Y-4319531D02*
X2179587Y-4310008D01*
X2179587Y-4310008D02*
X2198634Y-4300484D01*
X2351015Y-4481436D02*
X2360539Y-4490960D01*
X2360539Y-4490960D02*
X2351015Y-4500484D01*
X2351015Y-4500484D02*
X2341491Y-4490960D01*
X2341491Y-4490960D02*
X2351015Y-4481436D01*
X2351015Y-4481436D02*
X2351015Y-4500484D01*
X2484348Y-4300484D02*
X2503396Y-4300484D01*
X2503396Y-4300484D02*
X2522444Y-4310008D01*
X2522444Y-4310008D02*
X2531968Y-4319531D01*
X2531968Y-4319531D02*
X2541491Y-4338579D01*
X2541491Y-4338579D02*
X2551015Y-4376674D01*
X2551015Y-4376674D02*
X2551015Y-4424293D01*
X2551015Y-4424293D02*
X2541491Y-4462389D01*
X2541491Y-4462389D02*
X2531968Y-4481436D01*
X2531968Y-4481436D02*
X2522444Y-4490960D01*
X2522444Y-4490960D02*
X2503396Y-4500484D01*
X2503396Y-4500484D02*
X2484348Y-4500484D01*
X2484348Y-4500484D02*
X2465301Y-4490960D01*
X2465301Y-4490960D02*
X2455777Y-4481436D01*
X2455777Y-4481436D02*
X2446253Y-4462389D01*
X2446253Y-4462389D02*
X2436729Y-4424293D01*
X2436729Y-4424293D02*
X2436729Y-4376674D01*
X2436729Y-4376674D02*
X2446253Y-4338579D01*
X2446253Y-4338579D02*
X2455777Y-4319531D01*
X2455777Y-4319531D02*
X2465301Y-4310008D01*
X2465301Y-4310008D02*
X2484348Y-4300484D01*
X2617682Y-4300484D02*
X2741491Y-4300484D01*
X2741491Y-4300484D02*
X2674825Y-4376674D01*
X2674825Y-4376674D02*
X2703396Y-4376674D01*
X2703396Y-4376674D02*
X2722444Y-4386198D01*
X2722444Y-4386198D02*
X2731968Y-4395722D01*
X2731968Y-4395722D02*
X2741491Y-4414770D01*
X2741491Y-4414770D02*
X2741491Y-4462389D01*
X2741491Y-4462389D02*
X2731968Y-4481436D01*
X2731968Y-4481436D02*
X2722444Y-4490960D01*
X2722444Y-4490960D02*
X2703396Y-4500484D01*
X2703396Y-4500484D02*
X2646253Y-4500484D01*
X2646253Y-4500484D02*
X2627206Y-4490960D01*
X2627206Y-4490960D02*
X2617682Y-4481436D01*
X2931967Y-4500484D02*
X2817682Y-4500484D01*
X2874825Y-4500484D02*
X2874825Y-4300484D01*
X2874825Y-4300484D02*
X2855777Y-4329055D01*
X2855777Y-4329055D02*
X2836729Y-4348103D01*
X2836729Y-4348103D02*
X2817682Y-4357627D01*
X3112920Y-4300484D02*
X3017682Y-4300484D01*
X3017682Y-4300484D02*
X3008158Y-4395722D01*
X3008158Y-4395722D02*
X3017682Y-4386198D01*
X3017682Y-4386198D02*
X3036729Y-4376674D01*
X3036729Y-4376674D02*
X3084348Y-4376674D01*
X3084348Y-4376674D02*
X3103396Y-4386198D01*
X3103396Y-4386198D02*
X3112920Y-4395722D01*
X3112920Y-4395722D02*
X3122444Y-4414770D01*
X3122444Y-4414770D02*
X3122444Y-4462389D01*
X3122444Y-4462389D02*
X3112920Y-4481436D01*
X3112920Y-4481436D02*
X3103396Y-4490960D01*
X3103396Y-4490960D02*
X3084348Y-4500484D01*
X3084348Y-4500484D02*
X3036729Y-4500484D01*
X3036729Y-4500484D02*
X3017682Y-4490960D01*
X3017682Y-4490960D02*
X3008158Y-4481436D01*
X3198634Y-4300484D02*
X3198634Y-4338579D01*
X3274825Y-4300484D02*
X3274825Y-4338579D01*
X3570063Y-4576674D02*
X3560539Y-4567150D01*
X3560539Y-4567150D02*
X3541491Y-4538579D01*
X3541491Y-4538579D02*
X3531968Y-4519531D01*
X3531968Y-4519531D02*
X3522444Y-4490960D01*
X3522444Y-4490960D02*
X3512920Y-4443341D01*
X3512920Y-4443341D02*
X3512920Y-4405246D01*
X3512920Y-4405246D02*
X3522444Y-4357627D01*
X3522444Y-4357627D02*
X3531968Y-4329055D01*
X3531968Y-4329055D02*
X3541491Y-4310008D01*
X3541491Y-4310008D02*
X3560539Y-4281436D01*
X3560539Y-4281436D02*
X3570063Y-4271912D01*
X3731968Y-4300484D02*
X3693872Y-4300484D01*
X3693872Y-4300484D02*
X3674825Y-4310008D01*
X3674825Y-4310008D02*
X3665301Y-4319531D01*
X3665301Y-4319531D02*
X3646253Y-4348103D01*
X3646253Y-4348103D02*
X3636729Y-4386198D01*
X3636729Y-4386198D02*
X3636729Y-4462389D01*
X3636729Y-4462389D02*
X3646253Y-4481436D01*
X3646253Y-4481436D02*
X3655777Y-4490960D01*
X3655777Y-4490960D02*
X3674825Y-4500484D01*
X3674825Y-4500484D02*
X3712920Y-4500484D01*
X3712920Y-4500484D02*
X3731968Y-4490960D01*
X3731968Y-4490960D02*
X3741491Y-4481436D01*
X3741491Y-4481436D02*
X3751015Y-4462389D01*
X3751015Y-4462389D02*
X3751015Y-4414770D01*
X3751015Y-4414770D02*
X3741491Y-4395722D01*
X3741491Y-4395722D02*
X3731968Y-4386198D01*
X3731968Y-4386198D02*
X3712920Y-4376674D01*
X3712920Y-4376674D02*
X3674825Y-4376674D01*
X3674825Y-4376674D02*
X3655777Y-4386198D01*
X3655777Y-4386198D02*
X3646253Y-4395722D01*
X3646253Y-4395722D02*
X3636729Y-4414770D01*
X3989110Y-4500484D02*
X3989110Y-4300484D01*
X4074825Y-4500484D02*
X4074825Y-4395722D01*
X4074825Y-4395722D02*
X4065301Y-4376674D01*
X4065301Y-4376674D02*
X4046253Y-4367150D01*
X4046253Y-4367150D02*
X4017682Y-4367150D01*
X4017682Y-4367150D02*
X3998634Y-4376674D01*
X3998634Y-4376674D02*
X3989110Y-4386198D01*
X4198634Y-4500484D02*
X4179587Y-4490960D01*
X4179587Y-4490960D02*
X4170063Y-4481436D01*
X4170063Y-4481436D02*
X4160539Y-4462389D01*
X4160539Y-4462389D02*
X4160539Y-4405246D01*
X4160539Y-4405246D02*
X4170063Y-4386198D01*
X4170063Y-4386198D02*
X4179587Y-4376674D01*
X4179587Y-4376674D02*
X4198634Y-4367150D01*
X4198634Y-4367150D02*
X4227206Y-4367150D01*
X4227206Y-4367150D02*
X4246253Y-4376674D01*
X4246253Y-4376674D02*
X4255777Y-4386198D01*
X4255777Y-4386198D02*
X4265301Y-4405246D01*
X4265301Y-4405246D02*
X4265301Y-4462389D01*
X4265301Y-4462389D02*
X4255777Y-4481436D01*
X4255777Y-4481436D02*
X4246253Y-4490960D01*
X4246253Y-4490960D02*
X4227206Y-4500484D01*
X4227206Y-4500484D02*
X4198634Y-4500484D01*
X4379587Y-4500484D02*
X4360539Y-4490960D01*
X4360539Y-4490960D02*
X4351015Y-4471912D01*
X4351015Y-4471912D02*
X4351015Y-4300484D01*
X4531968Y-4490960D02*
X4512920Y-4500484D01*
X4512920Y-4500484D02*
X4474825Y-4500484D01*
X4474825Y-4500484D02*
X4455777Y-4490960D01*
X4455777Y-4490960D02*
X4446253Y-4471912D01*
X4446253Y-4471912D02*
X4446253Y-4395722D01*
X4446253Y-4395722D02*
X4455777Y-4376674D01*
X4455777Y-4376674D02*
X4474825Y-4367150D01*
X4474825Y-4367150D02*
X4512920Y-4367150D01*
X4512920Y-4367150D02*
X4531968Y-4376674D01*
X4531968Y-4376674D02*
X4541492Y-4395722D01*
X4541492Y-4395722D02*
X4541492Y-4414770D01*
X4541492Y-4414770D02*
X4446253Y-4433817D01*
X4617682Y-4490960D02*
X4636730Y-4500484D01*
X4636730Y-4500484D02*
X4674825Y-4500484D01*
X4674825Y-4500484D02*
X4693873Y-4490960D01*
X4693873Y-4490960D02*
X4703396Y-4471912D01*
X4703396Y-4471912D02*
X4703396Y-4462389D01*
X4703396Y-4462389D02*
X4693873Y-4443341D01*
X4693873Y-4443341D02*
X4674825Y-4433817D01*
X4674825Y-4433817D02*
X4646253Y-4433817D01*
X4646253Y-4433817D02*
X4627206Y-4424293D01*
X4627206Y-4424293D02*
X4617682Y-4405246D01*
X4617682Y-4405246D02*
X4617682Y-4395722D01*
X4617682Y-4395722D02*
X4627206Y-4376674D01*
X4627206Y-4376674D02*
X4646253Y-4367150D01*
X4646253Y-4367150D02*
X4674825Y-4367150D01*
X4674825Y-4367150D02*
X4693873Y-4376674D01*
X4770063Y-4576674D02*
X4779587Y-4567150D01*
X4779587Y-4567150D02*
X4798634Y-4538579D01*
X4798634Y-4538579D02*
X4808158Y-4519531D01*
X4808158Y-4519531D02*
X4817682Y-4490960D01*
X4817682Y-4490960D02*
X4827206Y-4443341D01*
X4827206Y-4443341D02*
X4827206Y-4405246D01*
X4827206Y-4405246D02*
X4817682Y-4357627D01*
X4817682Y-4357627D02*
X4808158Y-4329055D01*
X4808158Y-4329055D02*
X4798634Y-4310008D01*
X4798634Y-4310008D02*
X4779587Y-4281436D01*
X4779587Y-4281436D02*
X4770063Y-4271912D01*
D14*
X-50000Y-4628000D02*
X-50000Y-4718000D01*
X-95000Y-4673000D02*
X-5000Y-4673000D01*
D11*
X293872Y-4564484D02*
X312920Y-4564484D01*
X312920Y-4564484D02*
X331967Y-4574008D01*
X331967Y-4574008D02*
X341491Y-4583531D01*
X341491Y-4583531D02*
X351015Y-4602579D01*
X351015Y-4602579D02*
X360539Y-4640674D01*
X360539Y-4640674D02*
X360539Y-4688293D01*
X360539Y-4688293D02*
X351015Y-4726389D01*
X351015Y-4726389D02*
X341491Y-4745436D01*
X341491Y-4745436D02*
X331967Y-4754960D01*
X331967Y-4754960D02*
X312920Y-4764484D01*
X312920Y-4764484D02*
X293872Y-4764484D01*
X293872Y-4764484D02*
X274824Y-4754960D01*
X274824Y-4754960D02*
X265301Y-4745436D01*
X265301Y-4745436D02*
X255777Y-4726389D01*
X255777Y-4726389D02*
X246253Y-4688293D01*
X246253Y-4688293D02*
X246253Y-4640674D01*
X246253Y-4640674D02*
X255777Y-4602579D01*
X255777Y-4602579D02*
X265301Y-4583531D01*
X265301Y-4583531D02*
X274824Y-4574008D01*
X274824Y-4574008D02*
X293872Y-4564484D01*
X446253Y-4745436D02*
X455777Y-4754960D01*
X455777Y-4754960D02*
X446253Y-4764484D01*
X446253Y-4764484D02*
X436729Y-4754960D01*
X436729Y-4754960D02*
X446253Y-4745436D01*
X446253Y-4745436D02*
X446253Y-4764484D01*
X551015Y-4764484D02*
X589110Y-4764484D01*
X589110Y-4764484D02*
X608158Y-4754960D01*
X608158Y-4754960D02*
X617682Y-4745436D01*
X617682Y-4745436D02*
X636729Y-4716865D01*
X636729Y-4716865D02*
X646253Y-4678770D01*
X646253Y-4678770D02*
X646253Y-4602579D01*
X646253Y-4602579D02*
X636729Y-4583531D01*
X636729Y-4583531D02*
X627205Y-4574008D01*
X627205Y-4574008D02*
X608158Y-4564484D01*
X608158Y-4564484D02*
X570063Y-4564484D01*
X570063Y-4564484D02*
X551015Y-4574008D01*
X551015Y-4574008D02*
X541491Y-4583531D01*
X541491Y-4583531D02*
X531967Y-4602579D01*
X531967Y-4602579D02*
X531967Y-4650198D01*
X531967Y-4650198D02*
X541491Y-4669246D01*
X541491Y-4669246D02*
X551015Y-4678770D01*
X551015Y-4678770D02*
X570063Y-4688293D01*
X570063Y-4688293D02*
X608158Y-4688293D01*
X608158Y-4688293D02*
X627205Y-4678770D01*
X627205Y-4678770D02*
X636729Y-4669246D01*
X636729Y-4669246D02*
X646253Y-4650198D01*
X770062Y-4564484D02*
X789110Y-4564484D01*
X789110Y-4564484D02*
X808158Y-4574008D01*
X808158Y-4574008D02*
X817682Y-4583531D01*
X817682Y-4583531D02*
X827205Y-4602579D01*
X827205Y-4602579D02*
X836729Y-4640674D01*
X836729Y-4640674D02*
X836729Y-4688293D01*
X836729Y-4688293D02*
X827205Y-4726389D01*
X827205Y-4726389D02*
X817682Y-4745436D01*
X817682Y-4745436D02*
X808158Y-4754960D01*
X808158Y-4754960D02*
X789110Y-4764484D01*
X789110Y-4764484D02*
X770062Y-4764484D01*
X770062Y-4764484D02*
X751015Y-4754960D01*
X751015Y-4754960D02*
X741491Y-4745436D01*
X741491Y-4745436D02*
X731967Y-4726389D01*
X731967Y-4726389D02*
X722443Y-4688293D01*
X722443Y-4688293D02*
X722443Y-4640674D01*
X722443Y-4640674D02*
X731967Y-4602579D01*
X731967Y-4602579D02*
X741491Y-4583531D01*
X741491Y-4583531D02*
X751015Y-4574008D01*
X751015Y-4574008D02*
X770062Y-4564484D01*
X960539Y-4564484D02*
X979586Y-4564484D01*
X979586Y-4564484D02*
X998634Y-4574008D01*
X998634Y-4574008D02*
X1008158Y-4583531D01*
X1008158Y-4583531D02*
X1017682Y-4602579D01*
X1017682Y-4602579D02*
X1027205Y-4640674D01*
X1027205Y-4640674D02*
X1027205Y-4688293D01*
X1027205Y-4688293D02*
X1017682Y-4726389D01*
X1017682Y-4726389D02*
X1008158Y-4745436D01*
X1008158Y-4745436D02*
X998634Y-4754960D01*
X998634Y-4754960D02*
X979586Y-4764484D01*
X979586Y-4764484D02*
X960539Y-4764484D01*
X960539Y-4764484D02*
X941491Y-4754960D01*
X941491Y-4754960D02*
X931967Y-4745436D01*
X931967Y-4745436D02*
X922443Y-4726389D01*
X922443Y-4726389D02*
X912920Y-4688293D01*
X912920Y-4688293D02*
X912920Y-4640674D01*
X912920Y-4640674D02*
X922443Y-4602579D01*
X922443Y-4602579D02*
X931967Y-4583531D01*
X931967Y-4583531D02*
X941491Y-4574008D01*
X941491Y-4574008D02*
X960539Y-4564484D01*
X1112920Y-4764484D02*
X1112920Y-4631150D01*
X1112920Y-4650198D02*
X1122444Y-4640674D01*
X1122444Y-4640674D02*
X1141491Y-4631150D01*
X1141491Y-4631150D02*
X1170063Y-4631150D01*
X1170063Y-4631150D02*
X1189110Y-4640674D01*
X1189110Y-4640674D02*
X1198634Y-4659722D01*
X1198634Y-4659722D02*
X1198634Y-4764484D01*
X1198634Y-4659722D02*
X1208158Y-4640674D01*
X1208158Y-4640674D02*
X1227205Y-4631150D01*
X1227205Y-4631150D02*
X1255777Y-4631150D01*
X1255777Y-4631150D02*
X1274825Y-4640674D01*
X1274825Y-4640674D02*
X1284348Y-4659722D01*
X1284348Y-4659722D02*
X1284348Y-4764484D01*
X1379586Y-4764484D02*
X1379586Y-4631150D01*
X1379586Y-4650198D02*
X1389110Y-4640674D01*
X1389110Y-4640674D02*
X1408158Y-4631150D01*
X1408158Y-4631150D02*
X1436729Y-4631150D01*
X1436729Y-4631150D02*
X1455777Y-4640674D01*
X1455777Y-4640674D02*
X1465301Y-4659722D01*
X1465301Y-4659722D02*
X1465301Y-4764484D01*
X1465301Y-4659722D02*
X1474824Y-4640674D01*
X1474824Y-4640674D02*
X1493872Y-4631150D01*
X1493872Y-4631150D02*
X1522443Y-4631150D01*
X1522443Y-4631150D02*
X1541491Y-4640674D01*
X1541491Y-4640674D02*
X1551015Y-4659722D01*
X1551015Y-4659722D02*
X1551015Y-4764484D01*
X1941491Y-4554960D02*
X1770063Y-4812103D01*
X2198634Y-4564484D02*
X2217682Y-4564484D01*
X2217682Y-4564484D02*
X2236729Y-4574008D01*
X2236729Y-4574008D02*
X2246253Y-4583531D01*
X2246253Y-4583531D02*
X2255777Y-4602579D01*
X2255777Y-4602579D02*
X2265301Y-4640674D01*
X2265301Y-4640674D02*
X2265301Y-4688293D01*
X2265301Y-4688293D02*
X2255777Y-4726389D01*
X2255777Y-4726389D02*
X2246253Y-4745436D01*
X2246253Y-4745436D02*
X2236729Y-4754960D01*
X2236729Y-4754960D02*
X2217682Y-4764484D01*
X2217682Y-4764484D02*
X2198634Y-4764484D01*
X2198634Y-4764484D02*
X2179587Y-4754960D01*
X2179587Y-4754960D02*
X2170063Y-4745436D01*
X2170063Y-4745436D02*
X2160539Y-4726389D01*
X2160539Y-4726389D02*
X2151015Y-4688293D01*
X2151015Y-4688293D02*
X2151015Y-4640674D01*
X2151015Y-4640674D02*
X2160539Y-4602579D01*
X2160539Y-4602579D02*
X2170063Y-4583531D01*
X2170063Y-4583531D02*
X2179587Y-4574008D01*
X2179587Y-4574008D02*
X2198634Y-4564484D01*
X2351015Y-4745436D02*
X2360539Y-4754960D01*
X2360539Y-4754960D02*
X2351015Y-4764484D01*
X2351015Y-4764484D02*
X2341491Y-4754960D01*
X2341491Y-4754960D02*
X2351015Y-4745436D01*
X2351015Y-4745436D02*
X2351015Y-4764484D01*
X2484348Y-4564484D02*
X2503396Y-4564484D01*
X2503396Y-4564484D02*
X2522444Y-4574008D01*
X2522444Y-4574008D02*
X2531968Y-4583531D01*
X2531968Y-4583531D02*
X2541491Y-4602579D01*
X2541491Y-4602579D02*
X2551015Y-4640674D01*
X2551015Y-4640674D02*
X2551015Y-4688293D01*
X2551015Y-4688293D02*
X2541491Y-4726389D01*
X2541491Y-4726389D02*
X2531968Y-4745436D01*
X2531968Y-4745436D02*
X2522444Y-4754960D01*
X2522444Y-4754960D02*
X2503396Y-4764484D01*
X2503396Y-4764484D02*
X2484348Y-4764484D01*
X2484348Y-4764484D02*
X2465301Y-4754960D01*
X2465301Y-4754960D02*
X2455777Y-4745436D01*
X2455777Y-4745436D02*
X2446253Y-4726389D01*
X2446253Y-4726389D02*
X2436729Y-4688293D01*
X2436729Y-4688293D02*
X2436729Y-4640674D01*
X2436729Y-4640674D02*
X2446253Y-4602579D01*
X2446253Y-4602579D02*
X2455777Y-4583531D01*
X2455777Y-4583531D02*
X2465301Y-4574008D01*
X2465301Y-4574008D02*
X2484348Y-4564484D01*
X2617682Y-4564484D02*
X2741491Y-4564484D01*
X2741491Y-4564484D02*
X2674825Y-4640674D01*
X2674825Y-4640674D02*
X2703396Y-4640674D01*
X2703396Y-4640674D02*
X2722444Y-4650198D01*
X2722444Y-4650198D02*
X2731968Y-4659722D01*
X2731968Y-4659722D02*
X2741491Y-4678770D01*
X2741491Y-4678770D02*
X2741491Y-4726389D01*
X2741491Y-4726389D02*
X2731968Y-4745436D01*
X2731968Y-4745436D02*
X2722444Y-4754960D01*
X2722444Y-4754960D02*
X2703396Y-4764484D01*
X2703396Y-4764484D02*
X2646253Y-4764484D01*
X2646253Y-4764484D02*
X2627206Y-4754960D01*
X2627206Y-4754960D02*
X2617682Y-4745436D01*
X2922444Y-4564484D02*
X2827206Y-4564484D01*
X2827206Y-4564484D02*
X2817682Y-4659722D01*
X2817682Y-4659722D02*
X2827206Y-4650198D01*
X2827206Y-4650198D02*
X2846253Y-4640674D01*
X2846253Y-4640674D02*
X2893872Y-4640674D01*
X2893872Y-4640674D02*
X2912920Y-4650198D01*
X2912920Y-4650198D02*
X2922444Y-4659722D01*
X2922444Y-4659722D02*
X2931967Y-4678770D01*
X2931967Y-4678770D02*
X2931967Y-4726389D01*
X2931967Y-4726389D02*
X2922444Y-4745436D01*
X2922444Y-4745436D02*
X2912920Y-4754960D01*
X2912920Y-4754960D02*
X2893872Y-4764484D01*
X2893872Y-4764484D02*
X2846253Y-4764484D01*
X2846253Y-4764484D02*
X2827206Y-4754960D01*
X2827206Y-4754960D02*
X2817682Y-4745436D01*
X3103396Y-4631150D02*
X3103396Y-4764484D01*
X3055777Y-4554960D02*
X3008158Y-4697817D01*
X3008158Y-4697817D02*
X3131967Y-4697817D01*
X3198634Y-4564484D02*
X3198634Y-4602579D01*
X3274825Y-4564484D02*
X3274825Y-4602579D01*
X3570063Y-4840674D02*
X3560539Y-4831150D01*
X3560539Y-4831150D02*
X3541491Y-4802579D01*
X3541491Y-4802579D02*
X3531968Y-4783531D01*
X3531968Y-4783531D02*
X3522444Y-4754960D01*
X3522444Y-4754960D02*
X3512920Y-4707341D01*
X3512920Y-4707341D02*
X3512920Y-4669246D01*
X3512920Y-4669246D02*
X3522444Y-4621627D01*
X3522444Y-4621627D02*
X3531968Y-4593055D01*
X3531968Y-4593055D02*
X3541491Y-4574008D01*
X3541491Y-4574008D02*
X3560539Y-4545436D01*
X3560539Y-4545436D02*
X3570063Y-4535912D01*
X3731968Y-4631150D02*
X3731968Y-4764484D01*
X3684348Y-4554960D02*
X3636729Y-4697817D01*
X3636729Y-4697817D02*
X3760539Y-4697817D01*
X3989110Y-4764484D02*
X3989110Y-4564484D01*
X4074825Y-4764484D02*
X4074825Y-4659722D01*
X4074825Y-4659722D02*
X4065301Y-4640674D01*
X4065301Y-4640674D02*
X4046253Y-4631150D01*
X4046253Y-4631150D02*
X4017682Y-4631150D01*
X4017682Y-4631150D02*
X3998634Y-4640674D01*
X3998634Y-4640674D02*
X3989110Y-4650198D01*
X4198634Y-4764484D02*
X4179587Y-4754960D01*
X4179587Y-4754960D02*
X4170063Y-4745436D01*
X4170063Y-4745436D02*
X4160539Y-4726389D01*
X4160539Y-4726389D02*
X4160539Y-4669246D01*
X4160539Y-4669246D02*
X4170063Y-4650198D01*
X4170063Y-4650198D02*
X4179587Y-4640674D01*
X4179587Y-4640674D02*
X4198634Y-4631150D01*
X4198634Y-4631150D02*
X4227206Y-4631150D01*
X4227206Y-4631150D02*
X4246253Y-4640674D01*
X4246253Y-4640674D02*
X4255777Y-4650198D01*
X4255777Y-4650198D02*
X4265301Y-4669246D01*
X4265301Y-4669246D02*
X4265301Y-4726389D01*
X4265301Y-4726389D02*
X4255777Y-4745436D01*
X4255777Y-4745436D02*
X4246253Y-4754960D01*
X4246253Y-4754960D02*
X4227206Y-4764484D01*
X4227206Y-4764484D02*
X4198634Y-4764484D01*
X4379587Y-4764484D02*
X4360539Y-4754960D01*
X4360539Y-4754960D02*
X4351015Y-4735912D01*
X4351015Y-4735912D02*
X4351015Y-4564484D01*
X4531968Y-4754960D02*
X4512920Y-4764484D01*
X4512920Y-4764484D02*
X4474825Y-4764484D01*
X4474825Y-4764484D02*
X4455777Y-4754960D01*
X4455777Y-4754960D02*
X4446253Y-4735912D01*
X4446253Y-4735912D02*
X4446253Y-4659722D01*
X4446253Y-4659722D02*
X4455777Y-4640674D01*
X4455777Y-4640674D02*
X4474825Y-4631150D01*
X4474825Y-4631150D02*
X4512920Y-4631150D01*
X4512920Y-4631150D02*
X4531968Y-4640674D01*
X4531968Y-4640674D02*
X4541492Y-4659722D01*
X4541492Y-4659722D02*
X4541492Y-4678770D01*
X4541492Y-4678770D02*
X4446253Y-4697817D01*
X4617682Y-4754960D02*
X4636730Y-4764484D01*
X4636730Y-4764484D02*
X4674825Y-4764484D01*
X4674825Y-4764484D02*
X4693873Y-4754960D01*
X4693873Y-4754960D02*
X4703396Y-4735912D01*
X4703396Y-4735912D02*
X4703396Y-4726389D01*
X4703396Y-4726389D02*
X4693873Y-4707341D01*
X4693873Y-4707341D02*
X4674825Y-4697817D01*
X4674825Y-4697817D02*
X4646253Y-4697817D01*
X4646253Y-4697817D02*
X4627206Y-4688293D01*
X4627206Y-4688293D02*
X4617682Y-4669246D01*
X4617682Y-4669246D02*
X4617682Y-4659722D01*
X4617682Y-4659722D02*
X4627206Y-4640674D01*
X4627206Y-4640674D02*
X4646253Y-4631150D01*
X4646253Y-4631150D02*
X4674825Y-4631150D01*
X4674825Y-4631150D02*
X4693873Y-4640674D01*
X4770063Y-4840674D02*
X4779587Y-4831150D01*
X4779587Y-4831150D02*
X4798634Y-4802579D01*
X4798634Y-4802579D02*
X4808158Y-4783531D01*
X4808158Y-4783531D02*
X4817682Y-4754960D01*
X4817682Y-4754960D02*
X4827206Y-4707341D01*
X4827206Y-4707341D02*
X4827206Y-4669246D01*
X4827206Y-4669246D02*
X4817682Y-4621627D01*
X4817682Y-4621627D02*
X4808158Y-4593055D01*
X4808158Y-4593055D02*
X4798634Y-4574008D01*
X4798634Y-4574008D02*
X4779587Y-4545436D01*
X4779587Y-4545436D02*
X4770063Y-4535912D01*
D10*
X-19644Y-4972356D02*
X-19644Y-4901644D01*
X-90356Y-4901644D01*
X-90356Y-4972356D01*
X-19644Y-4972356D01*
D11*
X360539Y-5028484D02*
X246253Y-5028484D01*
X303396Y-5028484D02*
X303396Y-4828484D01*
X303396Y-4828484D02*
X284348Y-4857055D01*
X284348Y-4857055D02*
X265301Y-4876103D01*
X265301Y-4876103D02*
X246253Y-4885627D01*
X446253Y-5009436D02*
X455777Y-5018960D01*
X455777Y-5018960D02*
X446253Y-5028484D01*
X446253Y-5028484D02*
X436729Y-5018960D01*
X436729Y-5018960D02*
X446253Y-5009436D01*
X446253Y-5009436D02*
X446253Y-5028484D01*
X579586Y-4828484D02*
X598634Y-4828484D01*
X598634Y-4828484D02*
X617682Y-4838008D01*
X617682Y-4838008D02*
X627205Y-4847531D01*
X627205Y-4847531D02*
X636729Y-4866579D01*
X636729Y-4866579D02*
X646253Y-4904674D01*
X646253Y-4904674D02*
X646253Y-4952293D01*
X646253Y-4952293D02*
X636729Y-4990389D01*
X636729Y-4990389D02*
X627205Y-5009436D01*
X627205Y-5009436D02*
X617682Y-5018960D01*
X617682Y-5018960D02*
X598634Y-5028484D01*
X598634Y-5028484D02*
X579586Y-5028484D01*
X579586Y-5028484D02*
X560539Y-5018960D01*
X560539Y-5018960D02*
X551015Y-5009436D01*
X551015Y-5009436D02*
X541491Y-4990389D01*
X541491Y-4990389D02*
X531967Y-4952293D01*
X531967Y-4952293D02*
X531967Y-4904674D01*
X531967Y-4904674D02*
X541491Y-4866579D01*
X541491Y-4866579D02*
X551015Y-4847531D01*
X551015Y-4847531D02*
X560539Y-4838008D01*
X560539Y-4838008D02*
X579586Y-4828484D01*
X770062Y-4828484D02*
X789110Y-4828484D01*
X789110Y-4828484D02*
X808158Y-4838008D01*
X808158Y-4838008D02*
X817682Y-4847531D01*
X817682Y-4847531D02*
X827205Y-4866579D01*
X827205Y-4866579D02*
X836729Y-4904674D01*
X836729Y-4904674D02*
X836729Y-4952293D01*
X836729Y-4952293D02*
X827205Y-4990389D01*
X827205Y-4990389D02*
X817682Y-5009436D01*
X817682Y-5009436D02*
X808158Y-5018960D01*
X808158Y-5018960D02*
X789110Y-5028484D01*
X789110Y-5028484D02*
X770062Y-5028484D01*
X770062Y-5028484D02*
X751015Y-5018960D01*
X751015Y-5018960D02*
X741491Y-5009436D01*
X741491Y-5009436D02*
X731967Y-4990389D01*
X731967Y-4990389D02*
X722443Y-4952293D01*
X722443Y-4952293D02*
X722443Y-4904674D01*
X722443Y-4904674D02*
X731967Y-4866579D01*
X731967Y-4866579D02*
X741491Y-4847531D01*
X741491Y-4847531D02*
X751015Y-4838008D01*
X751015Y-4838008D02*
X770062Y-4828484D01*
X960539Y-4828484D02*
X979586Y-4828484D01*
X979586Y-4828484D02*
X998634Y-4838008D01*
X998634Y-4838008D02*
X1008158Y-4847531D01*
X1008158Y-4847531D02*
X1017682Y-4866579D01*
X1017682Y-4866579D02*
X1027205Y-4904674D01*
X1027205Y-4904674D02*
X1027205Y-4952293D01*
X1027205Y-4952293D02*
X1017682Y-4990389D01*
X1017682Y-4990389D02*
X1008158Y-5009436D01*
X1008158Y-5009436D02*
X998634Y-5018960D01*
X998634Y-5018960D02*
X979586Y-5028484D01*
X979586Y-5028484D02*
X960539Y-5028484D01*
X960539Y-5028484D02*
X941491Y-5018960D01*
X941491Y-5018960D02*
X931967Y-5009436D01*
X931967Y-5009436D02*
X922443Y-4990389D01*
X922443Y-4990389D02*
X912920Y-4952293D01*
X912920Y-4952293D02*
X912920Y-4904674D01*
X912920Y-4904674D02*
X922443Y-4866579D01*
X922443Y-4866579D02*
X931967Y-4847531D01*
X931967Y-4847531D02*
X941491Y-4838008D01*
X941491Y-4838008D02*
X960539Y-4828484D01*
X1112920Y-5028484D02*
X1112920Y-4895150D01*
X1112920Y-4914198D02*
X1122444Y-4904674D01*
X1122444Y-4904674D02*
X1141491Y-4895150D01*
X1141491Y-4895150D02*
X1170063Y-4895150D01*
X1170063Y-4895150D02*
X1189110Y-4904674D01*
X1189110Y-4904674D02*
X1198634Y-4923722D01*
X1198634Y-4923722D02*
X1198634Y-5028484D01*
X1198634Y-4923722D02*
X1208158Y-4904674D01*
X1208158Y-4904674D02*
X1227205Y-4895150D01*
X1227205Y-4895150D02*
X1255777Y-4895150D01*
X1255777Y-4895150D02*
X1274825Y-4904674D01*
X1274825Y-4904674D02*
X1284348Y-4923722D01*
X1284348Y-4923722D02*
X1284348Y-5028484D01*
X1379586Y-5028484D02*
X1379586Y-4895150D01*
X1379586Y-4914198D02*
X1389110Y-4904674D01*
X1389110Y-4904674D02*
X1408158Y-4895150D01*
X1408158Y-4895150D02*
X1436729Y-4895150D01*
X1436729Y-4895150D02*
X1455777Y-4904674D01*
X1455777Y-4904674D02*
X1465301Y-4923722D01*
X1465301Y-4923722D02*
X1465301Y-5028484D01*
X1465301Y-4923722D02*
X1474824Y-4904674D01*
X1474824Y-4904674D02*
X1493872Y-4895150D01*
X1493872Y-4895150D02*
X1522443Y-4895150D01*
X1522443Y-4895150D02*
X1541491Y-4904674D01*
X1541491Y-4904674D02*
X1551015Y-4923722D01*
X1551015Y-4923722D02*
X1551015Y-5028484D01*
X1941491Y-4818960D02*
X1770063Y-5076103D01*
X2198634Y-4828484D02*
X2217682Y-4828484D01*
X2217682Y-4828484D02*
X2236729Y-4838008D01*
X2236729Y-4838008D02*
X2246253Y-4847531D01*
X2246253Y-4847531D02*
X2255777Y-4866579D01*
X2255777Y-4866579D02*
X2265301Y-4904674D01*
X2265301Y-4904674D02*
X2265301Y-4952293D01*
X2265301Y-4952293D02*
X2255777Y-4990389D01*
X2255777Y-4990389D02*
X2246253Y-5009436D01*
X2246253Y-5009436D02*
X2236729Y-5018960D01*
X2236729Y-5018960D02*
X2217682Y-5028484D01*
X2217682Y-5028484D02*
X2198634Y-5028484D01*
X2198634Y-5028484D02*
X2179587Y-5018960D01*
X2179587Y-5018960D02*
X2170063Y-5009436D01*
X2170063Y-5009436D02*
X2160539Y-4990389D01*
X2160539Y-4990389D02*
X2151015Y-4952293D01*
X2151015Y-4952293D02*
X2151015Y-4904674D01*
X2151015Y-4904674D02*
X2160539Y-4866579D01*
X2160539Y-4866579D02*
X2170063Y-4847531D01*
X2170063Y-4847531D02*
X2179587Y-4838008D01*
X2179587Y-4838008D02*
X2198634Y-4828484D01*
X2351015Y-5009436D02*
X2360539Y-5018960D01*
X2360539Y-5018960D02*
X2351015Y-5028484D01*
X2351015Y-5028484D02*
X2341491Y-5018960D01*
X2341491Y-5018960D02*
X2351015Y-5009436D01*
X2351015Y-5009436D02*
X2351015Y-5028484D01*
X2484348Y-4828484D02*
X2503396Y-4828484D01*
X2503396Y-4828484D02*
X2522444Y-4838008D01*
X2522444Y-4838008D02*
X2531968Y-4847531D01*
X2531968Y-4847531D02*
X2541491Y-4866579D01*
X2541491Y-4866579D02*
X2551015Y-4904674D01*
X2551015Y-4904674D02*
X2551015Y-4952293D01*
X2551015Y-4952293D02*
X2541491Y-4990389D01*
X2541491Y-4990389D02*
X2531968Y-5009436D01*
X2531968Y-5009436D02*
X2522444Y-5018960D01*
X2522444Y-5018960D02*
X2503396Y-5028484D01*
X2503396Y-5028484D02*
X2484348Y-5028484D01*
X2484348Y-5028484D02*
X2465301Y-5018960D01*
X2465301Y-5018960D02*
X2455777Y-5009436D01*
X2455777Y-5009436D02*
X2446253Y-4990389D01*
X2446253Y-4990389D02*
X2436729Y-4952293D01*
X2436729Y-4952293D02*
X2436729Y-4904674D01*
X2436729Y-4904674D02*
X2446253Y-4866579D01*
X2446253Y-4866579D02*
X2455777Y-4847531D01*
X2455777Y-4847531D02*
X2465301Y-4838008D01*
X2465301Y-4838008D02*
X2484348Y-4828484D01*
X2617682Y-4828484D02*
X2741491Y-4828484D01*
X2741491Y-4828484D02*
X2674825Y-4904674D01*
X2674825Y-4904674D02*
X2703396Y-4904674D01*
X2703396Y-4904674D02*
X2722444Y-4914198D01*
X2722444Y-4914198D02*
X2731968Y-4923722D01*
X2731968Y-4923722D02*
X2741491Y-4942770D01*
X2741491Y-4942770D02*
X2741491Y-4990389D01*
X2741491Y-4990389D02*
X2731968Y-5009436D01*
X2731968Y-5009436D02*
X2722444Y-5018960D01*
X2722444Y-5018960D02*
X2703396Y-5028484D01*
X2703396Y-5028484D02*
X2646253Y-5028484D01*
X2646253Y-5028484D02*
X2627206Y-5018960D01*
X2627206Y-5018960D02*
X2617682Y-5009436D01*
X2836729Y-5028484D02*
X2874825Y-5028484D01*
X2874825Y-5028484D02*
X2893872Y-5018960D01*
X2893872Y-5018960D02*
X2903396Y-5009436D01*
X2903396Y-5009436D02*
X2922444Y-4980865D01*
X2922444Y-4980865D02*
X2931967Y-4942770D01*
X2931967Y-4942770D02*
X2931967Y-4866579D01*
X2931967Y-4866579D02*
X2922444Y-4847531D01*
X2922444Y-4847531D02*
X2912920Y-4838008D01*
X2912920Y-4838008D02*
X2893872Y-4828484D01*
X2893872Y-4828484D02*
X2855777Y-4828484D01*
X2855777Y-4828484D02*
X2836729Y-4838008D01*
X2836729Y-4838008D02*
X2827206Y-4847531D01*
X2827206Y-4847531D02*
X2817682Y-4866579D01*
X2817682Y-4866579D02*
X2817682Y-4914198D01*
X2817682Y-4914198D02*
X2827206Y-4933246D01*
X2827206Y-4933246D02*
X2836729Y-4942770D01*
X2836729Y-4942770D02*
X2855777Y-4952293D01*
X2855777Y-4952293D02*
X2893872Y-4952293D01*
X2893872Y-4952293D02*
X2912920Y-4942770D01*
X2912920Y-4942770D02*
X2922444Y-4933246D01*
X2922444Y-4933246D02*
X2931967Y-4914198D01*
X3103396Y-4895150D02*
X3103396Y-5028484D01*
X3055777Y-4818960D02*
X3008158Y-4961817D01*
X3008158Y-4961817D02*
X3131967Y-4961817D01*
X3198634Y-4828484D02*
X3198634Y-4866579D01*
X3274825Y-4828484D02*
X3274825Y-4866579D01*
X3570063Y-5104674D02*
X3560539Y-5095150D01*
X3560539Y-5095150D02*
X3541491Y-5066579D01*
X3541491Y-5066579D02*
X3531968Y-5047531D01*
X3531968Y-5047531D02*
X3522444Y-5018960D01*
X3522444Y-5018960D02*
X3512920Y-4971341D01*
X3512920Y-4971341D02*
X3512920Y-4933246D01*
X3512920Y-4933246D02*
X3522444Y-4885627D01*
X3522444Y-4885627D02*
X3531968Y-4857055D01*
X3531968Y-4857055D02*
X3541491Y-4838008D01*
X3541491Y-4838008D02*
X3560539Y-4809436D01*
X3560539Y-4809436D02*
X3570063Y-4799912D01*
X3731968Y-4828484D02*
X3693872Y-4828484D01*
X3693872Y-4828484D02*
X3674825Y-4838008D01*
X3674825Y-4838008D02*
X3665301Y-4847531D01*
X3665301Y-4847531D02*
X3646253Y-4876103D01*
X3646253Y-4876103D02*
X3636729Y-4914198D01*
X3636729Y-4914198D02*
X3636729Y-4990389D01*
X3636729Y-4990389D02*
X3646253Y-5009436D01*
X3646253Y-5009436D02*
X3655777Y-5018960D01*
X3655777Y-5018960D02*
X3674825Y-5028484D01*
X3674825Y-5028484D02*
X3712920Y-5028484D01*
X3712920Y-5028484D02*
X3731968Y-5018960D01*
X3731968Y-5018960D02*
X3741491Y-5009436D01*
X3741491Y-5009436D02*
X3751015Y-4990389D01*
X3751015Y-4990389D02*
X3751015Y-4942770D01*
X3751015Y-4942770D02*
X3741491Y-4923722D01*
X3741491Y-4923722D02*
X3731968Y-4914198D01*
X3731968Y-4914198D02*
X3712920Y-4904674D01*
X3712920Y-4904674D02*
X3674825Y-4904674D01*
X3674825Y-4904674D02*
X3655777Y-4914198D01*
X3655777Y-4914198D02*
X3646253Y-4923722D01*
X3646253Y-4923722D02*
X3636729Y-4942770D01*
X3989110Y-5028484D02*
X3989110Y-4828484D01*
X4074825Y-5028484D02*
X4074825Y-4923722D01*
X4074825Y-4923722D02*
X4065301Y-4904674D01*
X4065301Y-4904674D02*
X4046253Y-4895150D01*
X4046253Y-4895150D02*
X4017682Y-4895150D01*
X4017682Y-4895150D02*
X3998634Y-4904674D01*
X3998634Y-4904674D02*
X3989110Y-4914198D01*
X4198634Y-5028484D02*
X4179587Y-5018960D01*
X4179587Y-5018960D02*
X4170063Y-5009436D01*
X4170063Y-5009436D02*
X4160539Y-4990389D01*
X4160539Y-4990389D02*
X4160539Y-4933246D01*
X4160539Y-4933246D02*
X4170063Y-4914198D01*
X4170063Y-4914198D02*
X4179587Y-4904674D01*
X4179587Y-4904674D02*
X4198634Y-4895150D01*
X4198634Y-4895150D02*
X4227206Y-4895150D01*
X4227206Y-4895150D02*
X4246253Y-4904674D01*
X4246253Y-4904674D02*
X4255777Y-4914198D01*
X4255777Y-4914198D02*
X4265301Y-4933246D01*
X4265301Y-4933246D02*
X4265301Y-4990389D01*
X4265301Y-4990389D02*
X4255777Y-5009436D01*
X4255777Y-5009436D02*
X4246253Y-5018960D01*
X4246253Y-5018960D02*
X4227206Y-5028484D01*
X4227206Y-5028484D02*
X4198634Y-5028484D01*
X4379587Y-5028484D02*
X4360539Y-5018960D01*
X4360539Y-5018960D02*
X4351015Y-4999912D01*
X4351015Y-4999912D02*
X4351015Y-4828484D01*
X4531968Y-5018960D02*
X4512920Y-5028484D01*
X4512920Y-5028484D02*
X4474825Y-5028484D01*
X4474825Y-5028484D02*
X4455777Y-5018960D01*
X4455777Y-5018960D02*
X4446253Y-4999912D01*
X4446253Y-4999912D02*
X4446253Y-4923722D01*
X4446253Y-4923722D02*
X4455777Y-4904674D01*
X4455777Y-4904674D02*
X4474825Y-4895150D01*
X4474825Y-4895150D02*
X4512920Y-4895150D01*
X4512920Y-4895150D02*
X4531968Y-4904674D01*
X4531968Y-4904674D02*
X4541492Y-4923722D01*
X4541492Y-4923722D02*
X4541492Y-4942770D01*
X4541492Y-4942770D02*
X4446253Y-4961817D01*
X4617682Y-5018960D02*
X4636730Y-5028484D01*
X4636730Y-5028484D02*
X4674825Y-5028484D01*
X4674825Y-5028484D02*
X4693873Y-5018960D01*
X4693873Y-5018960D02*
X4703396Y-4999912D01*
X4703396Y-4999912D02*
X4703396Y-4990389D01*
X4703396Y-4990389D02*
X4693873Y-4971341D01*
X4693873Y-4971341D02*
X4674825Y-4961817D01*
X4674825Y-4961817D02*
X4646253Y-4961817D01*
X4646253Y-4961817D02*
X4627206Y-4952293D01*
X4627206Y-4952293D02*
X4617682Y-4933246D01*
X4617682Y-4933246D02*
X4617682Y-4923722D01*
X4617682Y-4923722D02*
X4627206Y-4904674D01*
X4627206Y-4904674D02*
X4646253Y-4895150D01*
X4646253Y-4895150D02*
X4674825Y-4895150D01*
X4674825Y-4895150D02*
X4693873Y-4904674D01*
X4770063Y-5104674D02*
X4779587Y-5095150D01*
X4779587Y-5095150D02*
X4798634Y-5066579D01*
X4798634Y-5066579D02*
X4808158Y-5047531D01*
X4808158Y-5047531D02*
X4817682Y-5018960D01*
X4817682Y-5018960D02*
X4827206Y-4971341D01*
X4827206Y-4971341D02*
X4827206Y-4933246D01*
X4827206Y-4933246D02*
X4817682Y-4885627D01*
X4817682Y-4885627D02*
X4808158Y-4857055D01*
X4808158Y-4857055D02*
X4798634Y-4838008D01*
X4798634Y-4838008D02*
X4779587Y-4809436D01*
X4779587Y-4809436D02*
X4770063Y-4799912D01*
D15*
X-60000Y-5256000D02*
X-5000Y-5201000D01*
X-60000Y-5146000D01*
X-115000Y-5201000D01*
X-60000Y-5256000D01*
D11*
X360539Y-5292484D02*
X246253Y-5292484D01*
X303396Y-5292484D02*
X303396Y-5092484D01*
X303396Y-5092484D02*
X284348Y-5121055D01*
X284348Y-5121055D02*
X265301Y-5140103D01*
X265301Y-5140103D02*
X246253Y-5149627D01*
X446253Y-5273436D02*
X455777Y-5282960D01*
X455777Y-5282960D02*
X446253Y-5292484D01*
X446253Y-5292484D02*
X436729Y-5282960D01*
X436729Y-5282960D02*
X446253Y-5273436D01*
X446253Y-5273436D02*
X446253Y-5292484D01*
X646253Y-5292484D02*
X531967Y-5292484D01*
X589110Y-5292484D02*
X589110Y-5092484D01*
X589110Y-5092484D02*
X570063Y-5121055D01*
X570063Y-5121055D02*
X551015Y-5140103D01*
X551015Y-5140103D02*
X531967Y-5149627D01*
X770062Y-5092484D02*
X789110Y-5092484D01*
X789110Y-5092484D02*
X808158Y-5102008D01*
X808158Y-5102008D02*
X817682Y-5111531D01*
X817682Y-5111531D02*
X827205Y-5130579D01*
X827205Y-5130579D02*
X836729Y-5168674D01*
X836729Y-5168674D02*
X836729Y-5216293D01*
X836729Y-5216293D02*
X827205Y-5254389D01*
X827205Y-5254389D02*
X817682Y-5273436D01*
X817682Y-5273436D02*
X808158Y-5282960D01*
X808158Y-5282960D02*
X789110Y-5292484D01*
X789110Y-5292484D02*
X770062Y-5292484D01*
X770062Y-5292484D02*
X751015Y-5282960D01*
X751015Y-5282960D02*
X741491Y-5273436D01*
X741491Y-5273436D02*
X731967Y-5254389D01*
X731967Y-5254389D02*
X722443Y-5216293D01*
X722443Y-5216293D02*
X722443Y-5168674D01*
X722443Y-5168674D02*
X731967Y-5130579D01*
X731967Y-5130579D02*
X741491Y-5111531D01*
X741491Y-5111531D02*
X751015Y-5102008D01*
X751015Y-5102008D02*
X770062Y-5092484D01*
X960539Y-5092484D02*
X979586Y-5092484D01*
X979586Y-5092484D02*
X998634Y-5102008D01*
X998634Y-5102008D02*
X1008158Y-5111531D01*
X1008158Y-5111531D02*
X1017682Y-5130579D01*
X1017682Y-5130579D02*
X1027205Y-5168674D01*
X1027205Y-5168674D02*
X1027205Y-5216293D01*
X1027205Y-5216293D02*
X1017682Y-5254389D01*
X1017682Y-5254389D02*
X1008158Y-5273436D01*
X1008158Y-5273436D02*
X998634Y-5282960D01*
X998634Y-5282960D02*
X979586Y-5292484D01*
X979586Y-5292484D02*
X960539Y-5292484D01*
X960539Y-5292484D02*
X941491Y-5282960D01*
X941491Y-5282960D02*
X931967Y-5273436D01*
X931967Y-5273436D02*
X922443Y-5254389D01*
X922443Y-5254389D02*
X912920Y-5216293D01*
X912920Y-5216293D02*
X912920Y-5168674D01*
X912920Y-5168674D02*
X922443Y-5130579D01*
X922443Y-5130579D02*
X931967Y-5111531D01*
X931967Y-5111531D02*
X941491Y-5102008D01*
X941491Y-5102008D02*
X960539Y-5092484D01*
X1112920Y-5292484D02*
X1112920Y-5159150D01*
X1112920Y-5178198D02*
X1122444Y-5168674D01*
X1122444Y-5168674D02*
X1141491Y-5159150D01*
X1141491Y-5159150D02*
X1170063Y-5159150D01*
X1170063Y-5159150D02*
X1189110Y-5168674D01*
X1189110Y-5168674D02*
X1198634Y-5187722D01*
X1198634Y-5187722D02*
X1198634Y-5292484D01*
X1198634Y-5187722D02*
X1208158Y-5168674D01*
X1208158Y-5168674D02*
X1227205Y-5159150D01*
X1227205Y-5159150D02*
X1255777Y-5159150D01*
X1255777Y-5159150D02*
X1274825Y-5168674D01*
X1274825Y-5168674D02*
X1284348Y-5187722D01*
X1284348Y-5187722D02*
X1284348Y-5292484D01*
X1379586Y-5292484D02*
X1379586Y-5159150D01*
X1379586Y-5178198D02*
X1389110Y-5168674D01*
X1389110Y-5168674D02*
X1408158Y-5159150D01*
X1408158Y-5159150D02*
X1436729Y-5159150D01*
X1436729Y-5159150D02*
X1455777Y-5168674D01*
X1455777Y-5168674D02*
X1465301Y-5187722D01*
X1465301Y-5187722D02*
X1465301Y-5292484D01*
X1465301Y-5187722D02*
X1474824Y-5168674D01*
X1474824Y-5168674D02*
X1493872Y-5159150D01*
X1493872Y-5159150D02*
X1522443Y-5159150D01*
X1522443Y-5159150D02*
X1541491Y-5168674D01*
X1541491Y-5168674D02*
X1551015Y-5187722D01*
X1551015Y-5187722D02*
X1551015Y-5292484D01*
X1941491Y-5082960D02*
X1770063Y-5340103D01*
X2198634Y-5092484D02*
X2217682Y-5092484D01*
X2217682Y-5092484D02*
X2236729Y-5102008D01*
X2236729Y-5102008D02*
X2246253Y-5111531D01*
X2246253Y-5111531D02*
X2255777Y-5130579D01*
X2255777Y-5130579D02*
X2265301Y-5168674D01*
X2265301Y-5168674D02*
X2265301Y-5216293D01*
X2265301Y-5216293D02*
X2255777Y-5254389D01*
X2255777Y-5254389D02*
X2246253Y-5273436D01*
X2246253Y-5273436D02*
X2236729Y-5282960D01*
X2236729Y-5282960D02*
X2217682Y-5292484D01*
X2217682Y-5292484D02*
X2198634Y-5292484D01*
X2198634Y-5292484D02*
X2179587Y-5282960D01*
X2179587Y-5282960D02*
X2170063Y-5273436D01*
X2170063Y-5273436D02*
X2160539Y-5254389D01*
X2160539Y-5254389D02*
X2151015Y-5216293D01*
X2151015Y-5216293D02*
X2151015Y-5168674D01*
X2151015Y-5168674D02*
X2160539Y-5130579D01*
X2160539Y-5130579D02*
X2170063Y-5111531D01*
X2170063Y-5111531D02*
X2179587Y-5102008D01*
X2179587Y-5102008D02*
X2198634Y-5092484D01*
X2351015Y-5273436D02*
X2360539Y-5282960D01*
X2360539Y-5282960D02*
X2351015Y-5292484D01*
X2351015Y-5292484D02*
X2341491Y-5282960D01*
X2341491Y-5282960D02*
X2351015Y-5273436D01*
X2351015Y-5273436D02*
X2351015Y-5292484D01*
X2484348Y-5092484D02*
X2503396Y-5092484D01*
X2503396Y-5092484D02*
X2522444Y-5102008D01*
X2522444Y-5102008D02*
X2531968Y-5111531D01*
X2531968Y-5111531D02*
X2541491Y-5130579D01*
X2541491Y-5130579D02*
X2551015Y-5168674D01*
X2551015Y-5168674D02*
X2551015Y-5216293D01*
X2551015Y-5216293D02*
X2541491Y-5254389D01*
X2541491Y-5254389D02*
X2531968Y-5273436D01*
X2531968Y-5273436D02*
X2522444Y-5282960D01*
X2522444Y-5282960D02*
X2503396Y-5292484D01*
X2503396Y-5292484D02*
X2484348Y-5292484D01*
X2484348Y-5292484D02*
X2465301Y-5282960D01*
X2465301Y-5282960D02*
X2455777Y-5273436D01*
X2455777Y-5273436D02*
X2446253Y-5254389D01*
X2446253Y-5254389D02*
X2436729Y-5216293D01*
X2436729Y-5216293D02*
X2436729Y-5168674D01*
X2436729Y-5168674D02*
X2446253Y-5130579D01*
X2446253Y-5130579D02*
X2455777Y-5111531D01*
X2455777Y-5111531D02*
X2465301Y-5102008D01*
X2465301Y-5102008D02*
X2484348Y-5092484D01*
X2722444Y-5159150D02*
X2722444Y-5292484D01*
X2674825Y-5082960D02*
X2627206Y-5225817D01*
X2627206Y-5225817D02*
X2751015Y-5225817D01*
X2808158Y-5092484D02*
X2931967Y-5092484D01*
X2931967Y-5092484D02*
X2865301Y-5168674D01*
X2865301Y-5168674D02*
X2893872Y-5168674D01*
X2893872Y-5168674D02*
X2912920Y-5178198D01*
X2912920Y-5178198D02*
X2922444Y-5187722D01*
X2922444Y-5187722D02*
X2931967Y-5206770D01*
X2931967Y-5206770D02*
X2931967Y-5254389D01*
X2931967Y-5254389D02*
X2922444Y-5273436D01*
X2922444Y-5273436D02*
X2912920Y-5282960D01*
X2912920Y-5282960D02*
X2893872Y-5292484D01*
X2893872Y-5292484D02*
X2836729Y-5292484D01*
X2836729Y-5292484D02*
X2817682Y-5282960D01*
X2817682Y-5282960D02*
X2808158Y-5273436D01*
X2998634Y-5092484D02*
X3122444Y-5092484D01*
X3122444Y-5092484D02*
X3055777Y-5168674D01*
X3055777Y-5168674D02*
X3084348Y-5168674D01*
X3084348Y-5168674D02*
X3103396Y-5178198D01*
X3103396Y-5178198D02*
X3112920Y-5187722D01*
X3112920Y-5187722D02*
X3122444Y-5206770D01*
X3122444Y-5206770D02*
X3122444Y-5254389D01*
X3122444Y-5254389D02*
X3112920Y-5273436D01*
X3112920Y-5273436D02*
X3103396Y-5282960D01*
X3103396Y-5282960D02*
X3084348Y-5292484D01*
X3084348Y-5292484D02*
X3027206Y-5292484D01*
X3027206Y-5292484D02*
X3008158Y-5282960D01*
X3008158Y-5282960D02*
X2998634Y-5273436D01*
X3198634Y-5092484D02*
X3198634Y-5130579D01*
X3274825Y-5092484D02*
X3274825Y-5130579D01*
X3570063Y-5368674D02*
X3560539Y-5359150D01*
X3560539Y-5359150D02*
X3541491Y-5330579D01*
X3541491Y-5330579D02*
X3531968Y-5311531D01*
X3531968Y-5311531D02*
X3522444Y-5282960D01*
X3522444Y-5282960D02*
X3512920Y-5235341D01*
X3512920Y-5235341D02*
X3512920Y-5197246D01*
X3512920Y-5197246D02*
X3522444Y-5149627D01*
X3522444Y-5149627D02*
X3531968Y-5121055D01*
X3531968Y-5121055D02*
X3541491Y-5102008D01*
X3541491Y-5102008D02*
X3560539Y-5073436D01*
X3560539Y-5073436D02*
X3570063Y-5063912D01*
X3731968Y-5092484D02*
X3693872Y-5092484D01*
X3693872Y-5092484D02*
X3674825Y-5102008D01*
X3674825Y-5102008D02*
X3665301Y-5111531D01*
X3665301Y-5111531D02*
X3646253Y-5140103D01*
X3646253Y-5140103D02*
X3636729Y-5178198D01*
X3636729Y-5178198D02*
X3636729Y-5254389D01*
X3636729Y-5254389D02*
X3646253Y-5273436D01*
X3646253Y-5273436D02*
X3655777Y-5282960D01*
X3655777Y-5282960D02*
X3674825Y-5292484D01*
X3674825Y-5292484D02*
X3712920Y-5292484D01*
X3712920Y-5292484D02*
X3731968Y-5282960D01*
X3731968Y-5282960D02*
X3741491Y-5273436D01*
X3741491Y-5273436D02*
X3751015Y-5254389D01*
X3751015Y-5254389D02*
X3751015Y-5206770D01*
X3751015Y-5206770D02*
X3741491Y-5187722D01*
X3741491Y-5187722D02*
X3731968Y-5178198D01*
X3731968Y-5178198D02*
X3712920Y-5168674D01*
X3712920Y-5168674D02*
X3674825Y-5168674D01*
X3674825Y-5168674D02*
X3655777Y-5178198D01*
X3655777Y-5178198D02*
X3646253Y-5187722D01*
X3646253Y-5187722D02*
X3636729Y-5206770D01*
X3989110Y-5292484D02*
X3989110Y-5092484D01*
X4074825Y-5292484D02*
X4074825Y-5187722D01*
X4074825Y-5187722D02*
X4065301Y-5168674D01*
X4065301Y-5168674D02*
X4046253Y-5159150D01*
X4046253Y-5159150D02*
X4017682Y-5159150D01*
X4017682Y-5159150D02*
X3998634Y-5168674D01*
X3998634Y-5168674D02*
X3989110Y-5178198D01*
X4198634Y-5292484D02*
X4179587Y-5282960D01*
X4179587Y-5282960D02*
X4170063Y-5273436D01*
X4170063Y-5273436D02*
X4160539Y-5254389D01*
X4160539Y-5254389D02*
X4160539Y-5197246D01*
X4160539Y-5197246D02*
X4170063Y-5178198D01*
X4170063Y-5178198D02*
X4179587Y-5168674D01*
X4179587Y-5168674D02*
X4198634Y-5159150D01*
X4198634Y-5159150D02*
X4227206Y-5159150D01*
X4227206Y-5159150D02*
X4246253Y-5168674D01*
X4246253Y-5168674D02*
X4255777Y-5178198D01*
X4255777Y-5178198D02*
X4265301Y-5197246D01*
X4265301Y-5197246D02*
X4265301Y-5254389D01*
X4265301Y-5254389D02*
X4255777Y-5273436D01*
X4255777Y-5273436D02*
X4246253Y-5282960D01*
X4246253Y-5282960D02*
X4227206Y-5292484D01*
X4227206Y-5292484D02*
X4198634Y-5292484D01*
X4379587Y-5292484D02*
X4360539Y-5282960D01*
X4360539Y-5282960D02*
X4351015Y-5263912D01*
X4351015Y-5263912D02*
X4351015Y-5092484D01*
X4531968Y-5282960D02*
X4512920Y-5292484D01*
X4512920Y-5292484D02*
X4474825Y-5292484D01*
X4474825Y-5292484D02*
X4455777Y-5282960D01*
X4455777Y-5282960D02*
X4446253Y-5263912D01*
X4446253Y-5263912D02*
X4446253Y-5187722D01*
X4446253Y-5187722D02*
X4455777Y-5168674D01*
X4455777Y-5168674D02*
X4474825Y-5159150D01*
X4474825Y-5159150D02*
X4512920Y-5159150D01*
X4512920Y-5159150D02*
X4531968Y-5168674D01*
X4531968Y-5168674D02*
X4541492Y-5187722D01*
X4541492Y-5187722D02*
X4541492Y-5206770D01*
X4541492Y-5206770D02*
X4446253Y-5225817D01*
X4617682Y-5282960D02*
X4636730Y-5292484D01*
X4636730Y-5292484D02*
X4674825Y-5292484D01*
X4674825Y-5292484D02*
X4693873Y-5282960D01*
X4693873Y-5282960D02*
X4703396Y-5263912D01*
X4703396Y-5263912D02*
X4703396Y-5254389D01*
X4703396Y-5254389D02*
X4693873Y-5235341D01*
X4693873Y-5235341D02*
X4674825Y-5225817D01*
X4674825Y-5225817D02*
X4646253Y-5225817D01*
X4646253Y-5225817D02*
X4627206Y-5216293D01*
X4627206Y-5216293D02*
X4617682Y-5197246D01*
X4617682Y-5197246D02*
X4617682Y-5187722D01*
X4617682Y-5187722D02*
X4627206Y-5168674D01*
X4627206Y-5168674D02*
X4646253Y-5159150D01*
X4646253Y-5159150D02*
X4674825Y-5159150D01*
X4674825Y-5159150D02*
X4693873Y-5168674D01*
X4770063Y-5368674D02*
X4779587Y-5359150D01*
X4779587Y-5359150D02*
X4798634Y-5330579D01*
X4798634Y-5330579D02*
X4808158Y-5311531D01*
X4808158Y-5311531D02*
X4817682Y-5282960D01*
X4817682Y-5282960D02*
X4827206Y-5235341D01*
X4827206Y-5235341D02*
X4827206Y-5197246D01*
X4827206Y-5197246D02*
X4817682Y-5149627D01*
X4817682Y-5149627D02*
X4808158Y-5121055D01*
X4808158Y-5121055D02*
X4798634Y-5102008D01*
X4798634Y-5102008D02*
X4779587Y-5073436D01*
X4779587Y-5073436D02*
X4770063Y-5063912D01*
X-205000Y-5365000D02*
X-5000Y-5565000D01*
X-5000Y-5365000D02*
X-205000Y-5565000D01*
X-5000Y-5465000D02*
G75*
G03*
X-5000Y-5465000I-100000J0D01*
G01*
X246253Y-5375531D02*
X255777Y-5366008D01*
X255777Y-5366008D02*
X274824Y-5356484D01*
X274824Y-5356484D02*
X322444Y-5356484D01*
X322444Y-5356484D02*
X341491Y-5366008D01*
X341491Y-5366008D02*
X351015Y-5375531D01*
X351015Y-5375531D02*
X360539Y-5394579D01*
X360539Y-5394579D02*
X360539Y-5413627D01*
X360539Y-5413627D02*
X351015Y-5442198D01*
X351015Y-5442198D02*
X236729Y-5556484D01*
X236729Y-5556484D02*
X360539Y-5556484D01*
X446253Y-5537436D02*
X455777Y-5546960D01*
X455777Y-5546960D02*
X446253Y-5556484D01*
X446253Y-5556484D02*
X436729Y-5546960D01*
X436729Y-5546960D02*
X446253Y-5537436D01*
X446253Y-5537436D02*
X446253Y-5556484D01*
X636729Y-5356484D02*
X541491Y-5356484D01*
X541491Y-5356484D02*
X531967Y-5451722D01*
X531967Y-5451722D02*
X541491Y-5442198D01*
X541491Y-5442198D02*
X560539Y-5432674D01*
X560539Y-5432674D02*
X608158Y-5432674D01*
X608158Y-5432674D02*
X627205Y-5442198D01*
X627205Y-5442198D02*
X636729Y-5451722D01*
X636729Y-5451722D02*
X646253Y-5470770D01*
X646253Y-5470770D02*
X646253Y-5518389D01*
X646253Y-5518389D02*
X636729Y-5537436D01*
X636729Y-5537436D02*
X627205Y-5546960D01*
X627205Y-5546960D02*
X608158Y-5556484D01*
X608158Y-5556484D02*
X560539Y-5556484D01*
X560539Y-5556484D02*
X541491Y-5546960D01*
X541491Y-5546960D02*
X531967Y-5537436D01*
X770062Y-5356484D02*
X789110Y-5356484D01*
X789110Y-5356484D02*
X808158Y-5366008D01*
X808158Y-5366008D02*
X817682Y-5375531D01*
X817682Y-5375531D02*
X827205Y-5394579D01*
X827205Y-5394579D02*
X836729Y-5432674D01*
X836729Y-5432674D02*
X836729Y-5480293D01*
X836729Y-5480293D02*
X827205Y-5518389D01*
X827205Y-5518389D02*
X817682Y-5537436D01*
X817682Y-5537436D02*
X808158Y-5546960D01*
X808158Y-5546960D02*
X789110Y-5556484D01*
X789110Y-5556484D02*
X770062Y-5556484D01*
X770062Y-5556484D02*
X751015Y-5546960D01*
X751015Y-5546960D02*
X741491Y-5537436D01*
X741491Y-5537436D02*
X731967Y-5518389D01*
X731967Y-5518389D02*
X722443Y-5480293D01*
X722443Y-5480293D02*
X722443Y-5432674D01*
X722443Y-5432674D02*
X731967Y-5394579D01*
X731967Y-5394579D02*
X741491Y-5375531D01*
X741491Y-5375531D02*
X751015Y-5366008D01*
X751015Y-5366008D02*
X770062Y-5356484D01*
X960539Y-5356484D02*
X979586Y-5356484D01*
X979586Y-5356484D02*
X998634Y-5366008D01*
X998634Y-5366008D02*
X1008158Y-5375531D01*
X1008158Y-5375531D02*
X1017682Y-5394579D01*
X1017682Y-5394579D02*
X1027205Y-5432674D01*
X1027205Y-5432674D02*
X1027205Y-5480293D01*
X1027205Y-5480293D02*
X1017682Y-5518389D01*
X1017682Y-5518389D02*
X1008158Y-5537436D01*
X1008158Y-5537436D02*
X998634Y-5546960D01*
X998634Y-5546960D02*
X979586Y-5556484D01*
X979586Y-5556484D02*
X960539Y-5556484D01*
X960539Y-5556484D02*
X941491Y-5546960D01*
X941491Y-5546960D02*
X931967Y-5537436D01*
X931967Y-5537436D02*
X922443Y-5518389D01*
X922443Y-5518389D02*
X912920Y-5480293D01*
X912920Y-5480293D02*
X912920Y-5432674D01*
X912920Y-5432674D02*
X922443Y-5394579D01*
X922443Y-5394579D02*
X931967Y-5375531D01*
X931967Y-5375531D02*
X941491Y-5366008D01*
X941491Y-5366008D02*
X960539Y-5356484D01*
X1112920Y-5556484D02*
X1112920Y-5423150D01*
X1112920Y-5442198D02*
X1122444Y-5432674D01*
X1122444Y-5432674D02*
X1141491Y-5423150D01*
X1141491Y-5423150D02*
X1170063Y-5423150D01*
X1170063Y-5423150D02*
X1189110Y-5432674D01*
X1189110Y-5432674D02*
X1198634Y-5451722D01*
X1198634Y-5451722D02*
X1198634Y-5556484D01*
X1198634Y-5451722D02*
X1208158Y-5432674D01*
X1208158Y-5432674D02*
X1227205Y-5423150D01*
X1227205Y-5423150D02*
X1255777Y-5423150D01*
X1255777Y-5423150D02*
X1274825Y-5432674D01*
X1274825Y-5432674D02*
X1284348Y-5451722D01*
X1284348Y-5451722D02*
X1284348Y-5556484D01*
X1379586Y-5556484D02*
X1379586Y-5423150D01*
X1379586Y-5442198D02*
X1389110Y-5432674D01*
X1389110Y-5432674D02*
X1408158Y-5423150D01*
X1408158Y-5423150D02*
X1436729Y-5423150D01*
X1436729Y-5423150D02*
X1455777Y-5432674D01*
X1455777Y-5432674D02*
X1465301Y-5451722D01*
X1465301Y-5451722D02*
X1465301Y-5556484D01*
X1465301Y-5451722D02*
X1474824Y-5432674D01*
X1474824Y-5432674D02*
X1493872Y-5423150D01*
X1493872Y-5423150D02*
X1522443Y-5423150D01*
X1522443Y-5423150D02*
X1541491Y-5432674D01*
X1541491Y-5432674D02*
X1551015Y-5451722D01*
X1551015Y-5451722D02*
X1551015Y-5556484D01*
X1941491Y-5346960D02*
X1770063Y-5604103D01*
X2198634Y-5356484D02*
X2217682Y-5356484D01*
X2217682Y-5356484D02*
X2236729Y-5366008D01*
X2236729Y-5366008D02*
X2246253Y-5375531D01*
X2246253Y-5375531D02*
X2255777Y-5394579D01*
X2255777Y-5394579D02*
X2265301Y-5432674D01*
X2265301Y-5432674D02*
X2265301Y-5480293D01*
X2265301Y-5480293D02*
X2255777Y-5518389D01*
X2255777Y-5518389D02*
X2246253Y-5537436D01*
X2246253Y-5537436D02*
X2236729Y-5546960D01*
X2236729Y-5546960D02*
X2217682Y-5556484D01*
X2217682Y-5556484D02*
X2198634Y-5556484D01*
X2198634Y-5556484D02*
X2179587Y-5546960D01*
X2179587Y-5546960D02*
X2170063Y-5537436D01*
X2170063Y-5537436D02*
X2160539Y-5518389D01*
X2160539Y-5518389D02*
X2151015Y-5480293D01*
X2151015Y-5480293D02*
X2151015Y-5432674D01*
X2151015Y-5432674D02*
X2160539Y-5394579D01*
X2160539Y-5394579D02*
X2170063Y-5375531D01*
X2170063Y-5375531D02*
X2179587Y-5366008D01*
X2179587Y-5366008D02*
X2198634Y-5356484D01*
X2351015Y-5537436D02*
X2360539Y-5546960D01*
X2360539Y-5546960D02*
X2351015Y-5556484D01*
X2351015Y-5556484D02*
X2341491Y-5546960D01*
X2341491Y-5546960D02*
X2351015Y-5537436D01*
X2351015Y-5537436D02*
X2351015Y-5556484D01*
X2484348Y-5356484D02*
X2503396Y-5356484D01*
X2503396Y-5356484D02*
X2522444Y-5366008D01*
X2522444Y-5366008D02*
X2531968Y-5375531D01*
X2531968Y-5375531D02*
X2541491Y-5394579D01*
X2541491Y-5394579D02*
X2551015Y-5432674D01*
X2551015Y-5432674D02*
X2551015Y-5480293D01*
X2551015Y-5480293D02*
X2541491Y-5518389D01*
X2541491Y-5518389D02*
X2531968Y-5537436D01*
X2531968Y-5537436D02*
X2522444Y-5546960D01*
X2522444Y-5546960D02*
X2503396Y-5556484D01*
X2503396Y-5556484D02*
X2484348Y-5556484D01*
X2484348Y-5556484D02*
X2465301Y-5546960D01*
X2465301Y-5546960D02*
X2455777Y-5537436D01*
X2455777Y-5537436D02*
X2446253Y-5518389D01*
X2446253Y-5518389D02*
X2436729Y-5480293D01*
X2436729Y-5480293D02*
X2436729Y-5432674D01*
X2436729Y-5432674D02*
X2446253Y-5394579D01*
X2446253Y-5394579D02*
X2455777Y-5375531D01*
X2455777Y-5375531D02*
X2465301Y-5366008D01*
X2465301Y-5366008D02*
X2484348Y-5356484D01*
X2646253Y-5556484D02*
X2684348Y-5556484D01*
X2684348Y-5556484D02*
X2703396Y-5546960D01*
X2703396Y-5546960D02*
X2712920Y-5537436D01*
X2712920Y-5537436D02*
X2731968Y-5508865D01*
X2731968Y-5508865D02*
X2741491Y-5470770D01*
X2741491Y-5470770D02*
X2741491Y-5394579D01*
X2741491Y-5394579D02*
X2731968Y-5375531D01*
X2731968Y-5375531D02*
X2722444Y-5366008D01*
X2722444Y-5366008D02*
X2703396Y-5356484D01*
X2703396Y-5356484D02*
X2665301Y-5356484D01*
X2665301Y-5356484D02*
X2646253Y-5366008D01*
X2646253Y-5366008D02*
X2636729Y-5375531D01*
X2636729Y-5375531D02*
X2627206Y-5394579D01*
X2627206Y-5394579D02*
X2627206Y-5442198D01*
X2627206Y-5442198D02*
X2636729Y-5461246D01*
X2636729Y-5461246D02*
X2646253Y-5470770D01*
X2646253Y-5470770D02*
X2665301Y-5480293D01*
X2665301Y-5480293D02*
X2703396Y-5480293D01*
X2703396Y-5480293D02*
X2722444Y-5470770D01*
X2722444Y-5470770D02*
X2731968Y-5461246D01*
X2731968Y-5461246D02*
X2741491Y-5442198D01*
X2855777Y-5442198D02*
X2836729Y-5432674D01*
X2836729Y-5432674D02*
X2827206Y-5423150D01*
X2827206Y-5423150D02*
X2817682Y-5404103D01*
X2817682Y-5404103D02*
X2817682Y-5394579D01*
X2817682Y-5394579D02*
X2827206Y-5375531D01*
X2827206Y-5375531D02*
X2836729Y-5366008D01*
X2836729Y-5366008D02*
X2855777Y-5356484D01*
X2855777Y-5356484D02*
X2893872Y-5356484D01*
X2893872Y-5356484D02*
X2912920Y-5366008D01*
X2912920Y-5366008D02*
X2922444Y-5375531D01*
X2922444Y-5375531D02*
X2931967Y-5394579D01*
X2931967Y-5394579D02*
X2931967Y-5404103D01*
X2931967Y-5404103D02*
X2922444Y-5423150D01*
X2922444Y-5423150D02*
X2912920Y-5432674D01*
X2912920Y-5432674D02*
X2893872Y-5442198D01*
X2893872Y-5442198D02*
X2855777Y-5442198D01*
X2855777Y-5442198D02*
X2836729Y-5451722D01*
X2836729Y-5451722D02*
X2827206Y-5461246D01*
X2827206Y-5461246D02*
X2817682Y-5480293D01*
X2817682Y-5480293D02*
X2817682Y-5518389D01*
X2817682Y-5518389D02*
X2827206Y-5537436D01*
X2827206Y-5537436D02*
X2836729Y-5546960D01*
X2836729Y-5546960D02*
X2855777Y-5556484D01*
X2855777Y-5556484D02*
X2893872Y-5556484D01*
X2893872Y-5556484D02*
X2912920Y-5546960D01*
X2912920Y-5546960D02*
X2922444Y-5537436D01*
X2922444Y-5537436D02*
X2931967Y-5518389D01*
X2931967Y-5518389D02*
X2931967Y-5480293D01*
X2931967Y-5480293D02*
X2922444Y-5461246D01*
X2922444Y-5461246D02*
X2912920Y-5451722D01*
X2912920Y-5451722D02*
X2893872Y-5442198D01*
X3103396Y-5423150D02*
X3103396Y-5556484D01*
X3055777Y-5346960D02*
X3008158Y-5489817D01*
X3008158Y-5489817D02*
X3131967Y-5489817D01*
X3198634Y-5356484D02*
X3198634Y-5394579D01*
X3274825Y-5356484D02*
X3274825Y-5394579D01*
X3570063Y-5632674D02*
X3560539Y-5623150D01*
X3560539Y-5623150D02*
X3541491Y-5594579D01*
X3541491Y-5594579D02*
X3531968Y-5575531D01*
X3531968Y-5575531D02*
X3522444Y-5546960D01*
X3522444Y-5546960D02*
X3512920Y-5499341D01*
X3512920Y-5499341D02*
X3512920Y-5461246D01*
X3512920Y-5461246D02*
X3522444Y-5413627D01*
X3522444Y-5413627D02*
X3531968Y-5385055D01*
X3531968Y-5385055D02*
X3541491Y-5366008D01*
X3541491Y-5366008D02*
X3560539Y-5337436D01*
X3560539Y-5337436D02*
X3570063Y-5327912D01*
X3731968Y-5423150D02*
X3731968Y-5556484D01*
X3684348Y-5346960D02*
X3636729Y-5489817D01*
X3636729Y-5489817D02*
X3760539Y-5489817D01*
X3989110Y-5556484D02*
X3989110Y-5356484D01*
X4074825Y-5556484D02*
X4074825Y-5451722D01*
X4074825Y-5451722D02*
X4065301Y-5432674D01*
X4065301Y-5432674D02*
X4046253Y-5423150D01*
X4046253Y-5423150D02*
X4017682Y-5423150D01*
X4017682Y-5423150D02*
X3998634Y-5432674D01*
X3998634Y-5432674D02*
X3989110Y-5442198D01*
X4198634Y-5556484D02*
X4179587Y-5546960D01*
X4179587Y-5546960D02*
X4170063Y-5537436D01*
X4170063Y-5537436D02*
X4160539Y-5518389D01*
X4160539Y-5518389D02*
X4160539Y-5461246D01*
X4160539Y-5461246D02*
X4170063Y-5442198D01*
X4170063Y-5442198D02*
X4179587Y-5432674D01*
X4179587Y-5432674D02*
X4198634Y-5423150D01*
X4198634Y-5423150D02*
X4227206Y-5423150D01*
X4227206Y-5423150D02*
X4246253Y-5432674D01*
X4246253Y-5432674D02*
X4255777Y-5442198D01*
X4255777Y-5442198D02*
X4265301Y-5461246D01*
X4265301Y-5461246D02*
X4265301Y-5518389D01*
X4265301Y-5518389D02*
X4255777Y-5537436D01*
X4255777Y-5537436D02*
X4246253Y-5546960D01*
X4246253Y-5546960D02*
X4227206Y-5556484D01*
X4227206Y-5556484D02*
X4198634Y-5556484D01*
X4379587Y-5556484D02*
X4360539Y-5546960D01*
X4360539Y-5546960D02*
X4351015Y-5527912D01*
X4351015Y-5527912D02*
X4351015Y-5356484D01*
X4531968Y-5546960D02*
X4512920Y-5556484D01*
X4512920Y-5556484D02*
X4474825Y-5556484D01*
X4474825Y-5556484D02*
X4455777Y-5546960D01*
X4455777Y-5546960D02*
X4446253Y-5527912D01*
X4446253Y-5527912D02*
X4446253Y-5451722D01*
X4446253Y-5451722D02*
X4455777Y-5432674D01*
X4455777Y-5432674D02*
X4474825Y-5423150D01*
X4474825Y-5423150D02*
X4512920Y-5423150D01*
X4512920Y-5423150D02*
X4531968Y-5432674D01*
X4531968Y-5432674D02*
X4541492Y-5451722D01*
X4541492Y-5451722D02*
X4541492Y-5470770D01*
X4541492Y-5470770D02*
X4446253Y-5489817D01*
X4617682Y-5546960D02*
X4636730Y-5556484D01*
X4636730Y-5556484D02*
X4674825Y-5556484D01*
X4674825Y-5556484D02*
X4693873Y-5546960D01*
X4693873Y-5546960D02*
X4703396Y-5527912D01*
X4703396Y-5527912D02*
X4703396Y-5518389D01*
X4703396Y-5518389D02*
X4693873Y-5499341D01*
X4693873Y-5499341D02*
X4674825Y-5489817D01*
X4674825Y-5489817D02*
X4646253Y-5489817D01*
X4646253Y-5489817D02*
X4627206Y-5480293D01*
X4627206Y-5480293D02*
X4617682Y-5461246D01*
X4617682Y-5461246D02*
X4617682Y-5451722D01*
X4617682Y-5451722D02*
X4627206Y-5432674D01*
X4627206Y-5432674D02*
X4646253Y-5423150D01*
X4646253Y-5423150D02*
X4674825Y-5423150D01*
X4674825Y-5423150D02*
X4693873Y-5432674D01*
X4770063Y-5632674D02*
X4779587Y-5623150D01*
X4779587Y-5623150D02*
X4798634Y-5594579D01*
X4798634Y-5594579D02*
X4808158Y-5575531D01*
X4808158Y-5575531D02*
X4817682Y-5546960D01*
X4817682Y-5546960D02*
X4827206Y-5499341D01*
X4827206Y-5499341D02*
X4827206Y-5461246D01*
X4827206Y-5461246D02*
X4817682Y-5413627D01*
X4817682Y-5413627D02*
X4808158Y-5385055D01*
X4808158Y-5385055D02*
X4798634Y-5366008D01*
X4798634Y-5366008D02*
X4779587Y-5337436D01*
X4779587Y-5337436D02*
X4770063Y-5327912D01*
M02*
