%TF.GenerationSoftware,KiCad,Pcbnew,7.0.7*%
%TF.CreationDate,2024-02-22T12:36:16+00:00*%
%TF.ProjectId,solenoidInterface_rev0,736f6c65-6e6f-4696-9449-6e7465726661,rev?*%
%TF.SameCoordinates,Original*%
%TF.FileFunction,Copper,L2,Bot*%
%TF.FilePolarity,Positive*%
%FSLAX46Y46*%
G04 Gerber Fmt 4.6, Leading zero omitted, Abs format (unit mm)*
G04 Created by KiCad (PCBNEW 7.0.7) date 2024-02-22 12:36:16*
%MOMM*%
%LPD*%
G01*
G04 APERTURE LIST*
G04 Aperture macros list*
%AMRoundRect*
0 Rectangle with rounded corners*
0 $1 Rounding radius*
0 $2 $3 $4 $5 $6 $7 $8 $9 X,Y pos of 4 corners*
0 Add a 4 corners polygon primitive as box body*
4,1,4,$2,$3,$4,$5,$6,$7,$8,$9,$2,$3,0*
0 Add four circle primitives for the rounded corners*
1,1,$1+$1,$2,$3*
1,1,$1+$1,$4,$5*
1,1,$1+$1,$6,$7*
1,1,$1+$1,$8,$9*
0 Add four rect primitives between the rounded corners*
20,1,$1+$1,$2,$3,$4,$5,0*
20,1,$1+$1,$4,$5,$6,$7,0*
20,1,$1+$1,$6,$7,$8,$9,0*
20,1,$1+$1,$8,$9,$2,$3,0*%
G04 Aperture macros list end*
%TA.AperFunction,ComponentPad*%
%ADD10C,1.600000*%
%TD*%
%TA.AperFunction,ComponentPad*%
%ADD11R,1.700000X1.700000*%
%TD*%
%TA.AperFunction,ComponentPad*%
%ADD12O,1.700000X1.700000*%
%TD*%
%TA.AperFunction,ComponentPad*%
%ADD13R,1.600000X1.600000*%
%TD*%
%TA.AperFunction,ComponentPad*%
%ADD14O,1.600000X1.600000*%
%TD*%
%TA.AperFunction,ComponentPad*%
%ADD15C,0.800000*%
%TD*%
%TA.AperFunction,ComponentPad*%
%ADD16C,5.000000*%
%TD*%
%TA.AperFunction,ComponentPad*%
%ADD17R,1.800000X1.800000*%
%TD*%
%TA.AperFunction,ComponentPad*%
%ADD18C,1.800000*%
%TD*%
%TA.AperFunction,ComponentPad*%
%ADD19O,1.800000X1.800000*%
%TD*%
%TA.AperFunction,SMDPad,CuDef*%
%ADD20RoundRect,0.249999X1.075001X-0.450001X1.075001X0.450001X-1.075001X0.450001X-1.075001X-0.450001X0*%
%TD*%
%TA.AperFunction,Conductor*%
%ADD21C,0.750000*%
%TD*%
%TA.AperFunction,Conductor*%
%ADD22C,0.500000*%
%TD*%
G04 APERTURE END LIST*
D10*
%TO.P,J2,1,Pin_1*%
%TO.N,statusLED-*%
X8650000Y-3200000D03*
%TO.P,J2,2,Pin_2*%
%TO.N,statusLED+*%
X11190000Y-3200000D03*
%TO.P,J2,3,Pin_3*%
%TO.N,solenoidStateReturn*%
X13730000Y-3200000D03*
%TO.P,J2,4,Pin_4*%
%TO.N,solenoidState_BUS*%
X16270000Y-3200000D03*
%TO.P,J2,5,Pin_5*%
%TO.N,24VDC_GND*%
X18810000Y-3200000D03*
%TO.P,J2,6,Pin_6*%
%TO.N,solenoid+*%
X21350000Y-3200000D03*
%TD*%
D11*
%TO.P,J1,1,Pin_1*%
%TO.N,24VDC_HOT*%
X21350000Y-24000000D03*
D12*
%TO.P,J1,2,Pin_2*%
%TO.N,24VDC_GND*%
X18810000Y-24000000D03*
%TO.P,J1,3,Pin_3*%
%TO.N,solenoidSignal*%
X16270000Y-24000000D03*
%TO.P,J1,4,Pin_4*%
%TO.N,arduino_GND*%
X13730000Y-24000000D03*
%TO.P,J1,5,Pin_5*%
%TO.N,solenoidState_BUS*%
X11190000Y-24000000D03*
%TO.P,J1,6,Pin_6*%
%TO.N,solenoidStateReturn*%
X8650000Y-24000000D03*
%TD*%
D13*
%TO.P,U1,1*%
%TO.N,solenoidSignal*%
X28000000Y-19000000D03*
D14*
%TO.P,U1,2*%
%TO.N,Net-(R1-Pad1)*%
X28000000Y-16460000D03*
%TO.P,U1,3*%
%TO.N,unconnected-(U1-Pad3)*%
X28000000Y-13920000D03*
%TO.P,U1,4*%
%TO.N,solenoid+*%
X20380000Y-13920000D03*
%TO.P,U1,5*%
%TO.N,unconnected-(U1-Pad5)*%
X20380000Y-16460000D03*
%TO.P,U1,6*%
%TO.N,24VDC_HOT*%
X20380000Y-19000000D03*
%TD*%
D15*
%TO.P,H3,1,1*%
%TO.N,24VDC_GND*%
X25125000Y-32000000D03*
X25674175Y-30674175D03*
X25674175Y-33325825D03*
X27000000Y-30125000D03*
D16*
X27000000Y-32000000D03*
D15*
X27000000Y-33875000D03*
X28325825Y-30674175D03*
X28325825Y-33325825D03*
X28875000Y-32000000D03*
%TD*%
%TO.P,H1,1,1*%
%TO.N,24VDC_GND*%
X1125000Y-3000000D03*
X1674175Y-1674175D03*
X1674175Y-4325825D03*
X3000000Y-1125000D03*
D16*
X3000000Y-3000000D03*
D15*
X3000000Y-4875000D03*
X4325825Y-1674175D03*
X4325825Y-4325825D03*
X4875000Y-3000000D03*
%TD*%
%TO.P,H4,1,1*%
%TO.N,24VDC_GND*%
X1125000Y-32000000D03*
X1674175Y-30674175D03*
X1674175Y-33325825D03*
X3000000Y-30125000D03*
D16*
X3000000Y-32000000D03*
D15*
X3000000Y-33875000D03*
X4325825Y-30674175D03*
X4325825Y-33325825D03*
X4875000Y-32000000D03*
%TD*%
%TO.P,H2,1,1*%
%TO.N,24VDC_GND*%
X25125000Y-3000000D03*
X25674175Y-1674175D03*
X25674175Y-4325825D03*
X27000000Y-1125000D03*
D16*
X27000000Y-3000000D03*
D15*
X27000000Y-4875000D03*
X28325825Y-1674175D03*
X28325825Y-4325825D03*
X28875000Y-3000000D03*
%TD*%
D17*
%TO.P,D2,1,K*%
%TO.N,statusLED-*%
X2725000Y-14000000D03*
D18*
%TO.P,D2,2,A*%
%TO.N,statusLED+*%
X5265000Y-14000000D03*
%TD*%
D17*
%TO.P,D1,1,K*%
%TO.N,Net-(D1-K)*%
X16810000Y-14500000D03*
D19*
%TO.P,D1,2,A*%
%TO.N,24VDC_GND*%
X9190000Y-14500000D03*
%TD*%
D20*
%TO.P,R3,1*%
%TO.N,24VDC_GND*%
X3500000Y-24500000D03*
%TO.P,R3,2*%
%TO.N,statusLED-*%
X3500000Y-19700000D03*
%TD*%
%TO.P,R1,1*%
%TO.N,Net-(R1-Pad1)*%
X24000000Y-18875000D03*
%TO.P,R1,2*%
%TO.N,arduino_GND*%
X24000000Y-14075000D03*
%TD*%
D21*
%TO.N,statusLED-*%
X2725000Y-16225000D02*
X3500000Y-17000000D01*
X2725000Y-14000000D02*
X2725000Y-16225000D01*
X3500000Y-17000000D02*
X3500000Y-19700000D01*
D22*
%TO.N,solenoidSignal*%
X25000000Y-22000000D02*
X28000000Y-19000000D01*
X16270000Y-24000000D02*
X18270000Y-22000000D01*
X18270000Y-22000000D02*
X25000000Y-22000000D01*
%TO.N,solenoidStateReturn*%
X8650000Y-24000000D02*
X8650000Y-19350000D01*
X8650000Y-19350000D02*
X11000000Y-17000000D01*
X11000000Y-10500000D02*
X13730000Y-7770000D01*
X13730000Y-7770000D02*
X13730000Y-3200000D01*
X11000000Y-17000000D02*
X11000000Y-10500000D01*
%TO.N,solenoidState_BUS*%
X12000000Y-11000000D02*
X16270000Y-6730000D01*
X16270000Y-6730000D02*
X16270000Y-3200000D01*
X11190000Y-24000000D02*
X11190000Y-18310000D01*
X12000000Y-17500000D02*
X12000000Y-11000000D01*
X11190000Y-18310000D02*
X12000000Y-17500000D01*
%TO.N,Net-(R1-Pad1)*%
X24000000Y-18500000D02*
X26040000Y-16460000D01*
X24000000Y-18875000D02*
X24000000Y-18500000D01*
X26040000Y-16460000D02*
X28000000Y-16460000D01*
%TO.N,arduino_GND*%
X24000000Y-15000000D02*
X22000000Y-17000000D01*
X24000000Y-14075000D02*
X24000000Y-15000000D01*
X22000000Y-17000000D02*
X22000000Y-20500000D01*
X22000000Y-20500000D02*
X21200000Y-21300000D01*
X16430000Y-21300000D02*
X13730000Y-24000000D01*
X21200000Y-21300000D02*
X16430000Y-21300000D01*
%TD*%
%TA.AperFunction,Conductor*%
%TO.N,24VDC_GND*%
G36*
X20003270Y-22770185D02*
G01*
X20049025Y-22822989D01*
X20058969Y-22892147D01*
X20052413Y-22917833D01*
X20005908Y-23042517D01*
X19999501Y-23102116D01*
X19999501Y-23102123D01*
X19999500Y-23102135D01*
X19999500Y-23112689D01*
X19979815Y-23179728D01*
X19963181Y-23200370D01*
X19418949Y-23744602D01*
X19357626Y-23778087D01*
X19287934Y-23773103D01*
X19232001Y-23731231D01*
X19226953Y-23723961D01*
X19191761Y-23669202D01*
X19191760Y-23669201D01*
X19083100Y-23575048D01*
X19083099Y-23575047D01*
X19076398Y-23569241D01*
X19078708Y-23566574D01*
X19044005Y-23526528D01*
X19034058Y-23457370D01*
X19063080Y-23393813D01*
X19069116Y-23387330D01*
X19571457Y-22884989D01*
X19585161Y-22816807D01*
X19633776Y-22766624D01*
X19694922Y-22750500D01*
X19936231Y-22750500D01*
X20003270Y-22770185D01*
G37*
%TD.AperFunction*%
%TA.AperFunction,Conductor*%
G36*
X25833444Y-20185D02*
G01*
X25879199Y-72989D01*
X25889143Y-142147D01*
X25860118Y-205703D01*
X25812673Y-238365D01*
X25813057Y-239255D01*
X25809739Y-240685D01*
X25497461Y-397519D01*
X25205485Y-589554D01*
X25062817Y-709264D01*
X25599034Y-1245481D01*
X25632519Y-1306804D01*
X25627535Y-1376496D01*
X25585663Y-1432429D01*
X25580245Y-1436263D01*
X25493935Y-1493934D01*
X25493934Y-1493935D01*
X25436263Y-1580245D01*
X25382651Y-1625049D01*
X25313326Y-1633756D01*
X25250299Y-1603601D01*
X25245481Y-1599034D01*
X24706148Y-1059701D01*
X24706146Y-1059701D01*
X24697973Y-1068366D01*
X24489289Y-1348677D01*
X24314561Y-1651316D01*
X24314555Y-1651329D01*
X24176145Y-1972199D01*
X24075916Y-2306988D01*
X24075914Y-2306997D01*
X24015236Y-2651119D01*
X24015235Y-2651130D01*
X23994916Y-2999996D01*
X23994916Y-3000003D01*
X24015235Y-3348869D01*
X24015236Y-3348880D01*
X24075914Y-3693002D01*
X24075916Y-3693011D01*
X24176145Y-4027800D01*
X24314555Y-4348670D01*
X24314561Y-4348683D01*
X24489289Y-4651322D01*
X24697972Y-4931631D01*
X24697976Y-4931636D01*
X24706147Y-4940297D01*
X24706148Y-4940298D01*
X25245481Y-4400964D01*
X25306804Y-4367479D01*
X25376495Y-4372463D01*
X25432429Y-4414334D01*
X25436264Y-4419754D01*
X25438679Y-4423369D01*
X25438680Y-4423370D01*
X25479953Y-4485139D01*
X25493935Y-4506065D01*
X25580243Y-4563734D01*
X25625049Y-4617346D01*
X25633756Y-4686671D01*
X25603602Y-4749698D01*
X25599034Y-4754517D01*
X25062817Y-5290733D01*
X25062818Y-5290734D01*
X25205480Y-5410442D01*
X25497461Y-5602480D01*
X25809739Y-5759314D01*
X25809745Y-5759316D01*
X26138130Y-5878838D01*
X26138133Y-5878839D01*
X26478171Y-5959429D01*
X26825276Y-5999999D01*
X26825277Y-6000000D01*
X27174723Y-6000000D01*
X27174723Y-5999999D01*
X27521827Y-5959429D01*
X27521829Y-5959429D01*
X27861866Y-5878839D01*
X27861869Y-5878838D01*
X28190254Y-5759316D01*
X28190260Y-5759314D01*
X28502538Y-5602480D01*
X28794515Y-5410445D01*
X28937180Y-5290734D01*
X28937181Y-5290733D01*
X28400965Y-4754517D01*
X28367480Y-4693194D01*
X28372464Y-4623502D01*
X28414336Y-4567569D01*
X28419756Y-4563733D01*
X28423366Y-4561320D01*
X28423370Y-4561320D01*
X28506065Y-4506065D01*
X28561320Y-4423370D01*
X28561320Y-4423368D01*
X28563735Y-4419755D01*
X28617347Y-4374950D01*
X28686672Y-4366243D01*
X28749699Y-4396397D01*
X28754518Y-4400965D01*
X29293850Y-4940297D01*
X29302032Y-4931625D01*
X29510710Y-4651322D01*
X29685438Y-4348683D01*
X29685444Y-4348670D01*
X29761641Y-4172027D01*
X29806269Y-4118267D01*
X29872877Y-4097169D01*
X29940318Y-4115431D01*
X29987179Y-4167255D01*
X29999500Y-4221141D01*
X29999500Y-30778858D01*
X29979815Y-30845897D01*
X29927011Y-30891652D01*
X29857853Y-30901596D01*
X29794297Y-30872571D01*
X29761641Y-30827972D01*
X29685444Y-30651329D01*
X29685438Y-30651316D01*
X29510710Y-30348677D01*
X29302029Y-30068371D01*
X29293850Y-30059701D01*
X29293850Y-30059700D01*
X28754517Y-30599034D01*
X28693194Y-30632519D01*
X28623502Y-30627535D01*
X28567569Y-30585663D01*
X28563734Y-30580243D01*
X28506065Y-30493935D01*
X28419754Y-30436264D01*
X28374949Y-30382652D01*
X28366242Y-30313327D01*
X28396396Y-30250299D01*
X28400964Y-30245481D01*
X28937181Y-29709265D01*
X28937180Y-29709264D01*
X28794519Y-29589557D01*
X28502538Y-29397519D01*
X28190260Y-29240685D01*
X28190254Y-29240683D01*
X27861869Y-29121161D01*
X27861866Y-29121160D01*
X27521828Y-29040570D01*
X27174723Y-29000000D01*
X26825277Y-29000000D01*
X26478172Y-29040570D01*
X26478170Y-29040570D01*
X26138133Y-29121160D01*
X26138130Y-29121161D01*
X25809745Y-29240683D01*
X25809739Y-29240685D01*
X25497461Y-29397519D01*
X25205485Y-29589554D01*
X25062817Y-29709264D01*
X25599034Y-30245481D01*
X25632519Y-30306804D01*
X25627535Y-30376496D01*
X25585663Y-30432429D01*
X25580245Y-30436263D01*
X25493935Y-30493934D01*
X25493934Y-30493935D01*
X25436263Y-30580245D01*
X25382651Y-30625049D01*
X25313326Y-30633756D01*
X25250299Y-30603601D01*
X25245481Y-30599034D01*
X24706148Y-30059701D01*
X24706146Y-30059701D01*
X24697973Y-30068366D01*
X24489289Y-30348677D01*
X24314561Y-30651316D01*
X24314555Y-30651329D01*
X24176145Y-30972199D01*
X24075916Y-31306988D01*
X24075914Y-31306997D01*
X24015236Y-31651119D01*
X24015235Y-31651130D01*
X23994916Y-31999996D01*
X23994916Y-32000003D01*
X24015235Y-32348869D01*
X24015236Y-32348880D01*
X24075914Y-32693002D01*
X24075916Y-32693011D01*
X24176145Y-33027800D01*
X24314555Y-33348670D01*
X24314561Y-33348683D01*
X24489289Y-33651322D01*
X24697972Y-33931631D01*
X24697976Y-33931636D01*
X24706147Y-33940297D01*
X24706148Y-33940298D01*
X25245481Y-33400964D01*
X25306804Y-33367479D01*
X25376495Y-33372463D01*
X25432429Y-33414334D01*
X25436264Y-33419754D01*
X25493935Y-33506065D01*
X25580243Y-33563734D01*
X25625049Y-33617346D01*
X25633756Y-33686671D01*
X25603602Y-33749698D01*
X25599034Y-33754517D01*
X25062817Y-34290733D01*
X25062818Y-34290734D01*
X25205480Y-34410442D01*
X25497461Y-34602480D01*
X25809739Y-34759314D01*
X25813057Y-34760745D01*
X25812612Y-34761774D01*
X25865079Y-34800404D01*
X25890015Y-34865673D01*
X25875705Y-34934062D01*
X25826694Y-34983857D01*
X25766405Y-34999500D01*
X4233595Y-34999500D01*
X4166556Y-34979815D01*
X4120801Y-34927011D01*
X4110857Y-34857853D01*
X4139882Y-34794297D01*
X4187326Y-34761634D01*
X4186943Y-34760745D01*
X4190260Y-34759314D01*
X4502538Y-34602480D01*
X4794515Y-34410445D01*
X4937180Y-34290734D01*
X4937181Y-34290733D01*
X4400965Y-33754517D01*
X4367480Y-33693194D01*
X4372464Y-33623502D01*
X4414336Y-33567569D01*
X4419756Y-33563733D01*
X4423366Y-33561320D01*
X4423370Y-33561320D01*
X4506065Y-33506065D01*
X4561320Y-33423370D01*
X4561320Y-33423368D01*
X4563735Y-33419755D01*
X4617347Y-33374950D01*
X4686672Y-33366243D01*
X4749699Y-33396397D01*
X4754518Y-33400965D01*
X5293850Y-33940297D01*
X5302032Y-33931625D01*
X5510710Y-33651322D01*
X5685438Y-33348683D01*
X5685444Y-33348670D01*
X5823854Y-33027800D01*
X5924083Y-32693011D01*
X5924085Y-32693002D01*
X5984763Y-32348880D01*
X5984764Y-32348869D01*
X6005084Y-32000003D01*
X6005084Y-31999996D01*
X5984764Y-31651130D01*
X5984763Y-31651119D01*
X5924085Y-31306997D01*
X5924083Y-31306988D01*
X5823854Y-30972199D01*
X5685444Y-30651329D01*
X5685438Y-30651316D01*
X5510710Y-30348677D01*
X5302029Y-30068371D01*
X5293850Y-30059701D01*
X5293850Y-30059700D01*
X4754517Y-30599034D01*
X4693194Y-30632519D01*
X4623502Y-30627535D01*
X4567569Y-30585663D01*
X4563734Y-30580243D01*
X4506065Y-30493935D01*
X4419754Y-30436264D01*
X4374949Y-30382652D01*
X4366242Y-30313327D01*
X4396396Y-30250299D01*
X4400964Y-30245481D01*
X4937181Y-29709265D01*
X4937180Y-29709264D01*
X4794519Y-29589557D01*
X4502538Y-29397519D01*
X4190260Y-29240685D01*
X4190254Y-29240683D01*
X3861869Y-29121161D01*
X3861866Y-29121160D01*
X3521828Y-29040570D01*
X3174723Y-29000000D01*
X2825277Y-29000000D01*
X2478172Y-29040570D01*
X2478170Y-29040570D01*
X2138133Y-29121160D01*
X2138130Y-29121161D01*
X1809745Y-29240683D01*
X1809739Y-29240685D01*
X1497461Y-29397519D01*
X1205485Y-29589554D01*
X1062817Y-29709264D01*
X1599034Y-30245481D01*
X1632519Y-30306804D01*
X1627535Y-30376496D01*
X1585663Y-30432429D01*
X1580245Y-30436263D01*
X1493935Y-30493934D01*
X1493934Y-30493935D01*
X1436263Y-30580245D01*
X1382651Y-30625049D01*
X1313326Y-30633756D01*
X1250299Y-30603601D01*
X1245481Y-30599034D01*
X706148Y-30059701D01*
X706146Y-30059701D01*
X697973Y-30068366D01*
X489289Y-30348677D01*
X314561Y-30651316D01*
X314555Y-30651329D01*
X238359Y-30827972D01*
X193731Y-30881732D01*
X127123Y-30902830D01*
X59682Y-30884568D01*
X12821Y-30832744D01*
X500Y-30778858D01*
X500Y-24750000D01*
X1675001Y-24750000D01*
X1675001Y-24999986D01*
X1685494Y-25102696D01*
X1685494Y-25102698D01*
X1740640Y-25269119D01*
X1740645Y-25269130D01*
X1832680Y-25418340D01*
X1832683Y-25418344D01*
X1956655Y-25542316D01*
X1956659Y-25542319D01*
X2105869Y-25634354D01*
X2105880Y-25634359D01*
X2272302Y-25689505D01*
X2375020Y-25699999D01*
X3249999Y-25699999D01*
X3250000Y-25699998D01*
X3250000Y-24750000D01*
X3750000Y-24750000D01*
X3750000Y-25699999D01*
X4624972Y-25699999D01*
X4624986Y-25699998D01*
X4727696Y-25689505D01*
X4727698Y-25689505D01*
X4894119Y-25634359D01*
X4894130Y-25634354D01*
X5043340Y-25542319D01*
X5043344Y-25542316D01*
X5167316Y-25418344D01*
X5167319Y-25418340D01*
X5259354Y-25269130D01*
X5259359Y-25269119D01*
X5314505Y-25102697D01*
X5324999Y-24999986D01*
X5325000Y-24999973D01*
X5325000Y-24750000D01*
X3750000Y-24750000D01*
X3250000Y-24750000D01*
X1675001Y-24750000D01*
X500Y-24750000D01*
X500Y-24250000D01*
X1675000Y-24250000D01*
X3250000Y-24250000D01*
X3250000Y-23300000D01*
X3750000Y-23300000D01*
X3750000Y-24250000D01*
X5324999Y-24250000D01*
X5324999Y-24000028D01*
X5324998Y-24000013D01*
X5324997Y-24000000D01*
X7294341Y-24000000D01*
X7314936Y-24235403D01*
X7314938Y-24235413D01*
X7376094Y-24463655D01*
X7376096Y-24463659D01*
X7376097Y-24463663D01*
X7442568Y-24606210D01*
X7475965Y-24677830D01*
X7475967Y-24677834D01*
X7584281Y-24832521D01*
X7611505Y-24871401D01*
X7778599Y-25038495D01*
X7870287Y-25102696D01*
X7972165Y-25174032D01*
X7972167Y-25174033D01*
X7972170Y-25174035D01*
X8186337Y-25273903D01*
X8414592Y-25335063D01*
X8591034Y-25350500D01*
X8649999Y-25355659D01*
X8650000Y-25355659D01*
X8650001Y-25355659D01*
X8708966Y-25350500D01*
X8885408Y-25335063D01*
X9113663Y-25273903D01*
X9327830Y-25174035D01*
X9521401Y-25038495D01*
X9688495Y-24871401D01*
X9818424Y-24685842D01*
X9873002Y-24642217D01*
X9942500Y-24635023D01*
X10004855Y-24666546D01*
X10021575Y-24685842D01*
X10151500Y-24871395D01*
X10151505Y-24871401D01*
X10318599Y-25038495D01*
X10410287Y-25102696D01*
X10512165Y-25174032D01*
X10512167Y-25174033D01*
X10512170Y-25174035D01*
X10726337Y-25273903D01*
X10954592Y-25335063D01*
X11131034Y-25350500D01*
X11189999Y-25355659D01*
X11190000Y-25355659D01*
X11190001Y-25355659D01*
X11248966Y-25350500D01*
X11425408Y-25335063D01*
X11653663Y-25273903D01*
X11867830Y-25174035D01*
X12061401Y-25038495D01*
X12228495Y-24871401D01*
X12358424Y-24685842D01*
X12413002Y-24642217D01*
X12482500Y-24635023D01*
X12544855Y-24666546D01*
X12561575Y-24685842D01*
X12691500Y-24871395D01*
X12691505Y-24871401D01*
X12858599Y-25038495D01*
X12950287Y-25102696D01*
X13052165Y-25174032D01*
X13052167Y-25174033D01*
X13052170Y-25174035D01*
X13266337Y-25273903D01*
X13494592Y-25335063D01*
X13671034Y-25350500D01*
X13729999Y-25355659D01*
X13730000Y-25355659D01*
X13730001Y-25355659D01*
X13788966Y-25350500D01*
X13965408Y-25335063D01*
X14193663Y-25273903D01*
X14407830Y-25174035D01*
X14601401Y-25038495D01*
X14768495Y-24871401D01*
X14898424Y-24685842D01*
X14953002Y-24642217D01*
X15022500Y-24635023D01*
X15084855Y-24666546D01*
X15101575Y-24685842D01*
X15231500Y-24871395D01*
X15231505Y-24871401D01*
X15398599Y-25038495D01*
X15490287Y-25102696D01*
X15592165Y-25174032D01*
X15592167Y-25174033D01*
X15592170Y-25174035D01*
X15806337Y-25273903D01*
X16034592Y-25335063D01*
X16211034Y-25350500D01*
X16269999Y-25355659D01*
X16270000Y-25355659D01*
X16270001Y-25355659D01*
X16328966Y-25350500D01*
X16505408Y-25335063D01*
X16733663Y-25273903D01*
X16947830Y-25174035D01*
X17141401Y-25038495D01*
X17308495Y-24871401D01*
X17438732Y-24685403D01*
X17493307Y-24641780D01*
X17562805Y-24634586D01*
X17625160Y-24666109D01*
X17641880Y-24685405D01*
X17695073Y-24761373D01*
X18201050Y-24255395D01*
X18262373Y-24221910D01*
X18332064Y-24226894D01*
X18387998Y-24268765D01*
X18393039Y-24276025D01*
X18393048Y-24276039D01*
X18428239Y-24330798D01*
X18543602Y-24430759D01*
X18541293Y-24433422D01*
X18576006Y-24473499D01*
X18585935Y-24542660D01*
X18556898Y-24606210D01*
X18550882Y-24612669D01*
X18048625Y-25114925D01*
X18132421Y-25173599D01*
X18346507Y-25273429D01*
X18346516Y-25273433D01*
X18574673Y-25334567D01*
X18574684Y-25334569D01*
X18809998Y-25355157D01*
X18810002Y-25355157D01*
X19045315Y-25334569D01*
X19045326Y-25334567D01*
X19273483Y-25273433D01*
X19273492Y-25273429D01*
X19487578Y-25173600D01*
X19487582Y-25173598D01*
X19571373Y-25114926D01*
X19571373Y-25114925D01*
X19069116Y-24612669D01*
X19035631Y-24551346D01*
X19040615Y-24481655D01*
X19077640Y-24432193D01*
X19076398Y-24430759D01*
X19083100Y-24424952D01*
X19191761Y-24330798D01*
X19226954Y-24276037D01*
X19279755Y-24230283D01*
X19348914Y-24220339D01*
X19412470Y-24249363D01*
X19418949Y-24255396D01*
X19963181Y-24799629D01*
X19996666Y-24860952D01*
X19999500Y-24887301D01*
X19999500Y-24897865D01*
X19999501Y-24897876D01*
X20005908Y-24957483D01*
X20056202Y-25092328D01*
X20056206Y-25092335D01*
X20142452Y-25207544D01*
X20142455Y-25207547D01*
X20257664Y-25293793D01*
X20257671Y-25293797D01*
X20392517Y-25344091D01*
X20392516Y-25344091D01*
X20399444Y-25344835D01*
X20452127Y-25350500D01*
X22247872Y-25350499D01*
X22307483Y-25344091D01*
X22442331Y-25293796D01*
X22557546Y-25207546D01*
X22643796Y-25092331D01*
X22694091Y-24957483D01*
X22700500Y-24897873D01*
X22700499Y-23102128D01*
X22694091Y-23042517D01*
X22647587Y-22917833D01*
X22642603Y-22848141D01*
X22676088Y-22786818D01*
X22737411Y-22753334D01*
X22763769Y-22750500D01*
X24936295Y-22750500D01*
X24954265Y-22751809D01*
X24978023Y-22755289D01*
X25030068Y-22750735D01*
X25035470Y-22750500D01*
X25043704Y-22750500D01*
X25043709Y-22750500D01*
X25055327Y-22749141D01*
X25076276Y-22746693D01*
X25089028Y-22745577D01*
X25152797Y-22739999D01*
X25152805Y-22739996D01*
X25159866Y-22738539D01*
X25159878Y-22738598D01*
X25167243Y-22736965D01*
X25167229Y-22736906D01*
X25174246Y-22735241D01*
X25174255Y-22735241D01*
X25246423Y-22708974D01*
X25319334Y-22684814D01*
X25319343Y-22684807D01*
X25325882Y-22681760D01*
X25325908Y-22681816D01*
X25332690Y-22678532D01*
X25332663Y-22678478D01*
X25339106Y-22675240D01*
X25339117Y-22675237D01*
X25403283Y-22633034D01*
X25468656Y-22592712D01*
X25468662Y-22592705D01*
X25474325Y-22588229D01*
X25474362Y-22588277D01*
X25480204Y-22583518D01*
X25480164Y-22583471D01*
X25485691Y-22578832D01*
X25485696Y-22578830D01*
X25538386Y-22522981D01*
X27724548Y-20336817D01*
X27785871Y-20303333D01*
X27812229Y-20300499D01*
X28847871Y-20300499D01*
X28847872Y-20300499D01*
X28907483Y-20294091D01*
X29042331Y-20243796D01*
X29157546Y-20157546D01*
X29243796Y-20042331D01*
X29294091Y-19907483D01*
X29300500Y-19847873D01*
X29300499Y-18152128D01*
X29294091Y-18092517D01*
X29287830Y-18075731D01*
X29243797Y-17957671D01*
X29243793Y-17957664D01*
X29157547Y-17842455D01*
X29157544Y-17842452D01*
X29042335Y-17756206D01*
X29042328Y-17756202D01*
X28907482Y-17705908D01*
X28907483Y-17705908D01*
X28872404Y-17702137D01*
X28807853Y-17675399D01*
X28768005Y-17618006D01*
X28765512Y-17548181D01*
X28801165Y-17488092D01*
X28814539Y-17477272D01*
X28839140Y-17460046D01*
X29000045Y-17299141D01*
X29000045Y-17299140D01*
X29000047Y-17299139D01*
X29130568Y-17112734D01*
X29226739Y-16906496D01*
X29285635Y-16686692D01*
X29302634Y-16492384D01*
X29305468Y-16460001D01*
X29305468Y-16459998D01*
X29299283Y-16389303D01*
X29285635Y-16233308D01*
X29238434Y-16057151D01*
X29226741Y-16013511D01*
X29226738Y-16013502D01*
X29130568Y-15807266D01*
X29000047Y-15620861D01*
X29000045Y-15620858D01*
X28839141Y-15459954D01*
X28699672Y-15362298D01*
X28652734Y-15329432D01*
X28594722Y-15302380D01*
X28542284Y-15256208D01*
X28523133Y-15189014D01*
X28543349Y-15122133D01*
X28594721Y-15077619D01*
X28652734Y-15050568D01*
X28839139Y-14920047D01*
X29000047Y-14759139D01*
X29130568Y-14572734D01*
X29226739Y-14366496D01*
X29285635Y-14146692D01*
X29305468Y-13920000D01*
X29285635Y-13693308D01*
X29240916Y-13526415D01*
X29226741Y-13473511D01*
X29226738Y-13473502D01*
X29226132Y-13472202D01*
X29130568Y-13267266D01*
X29000047Y-13080861D01*
X29000045Y-13080858D01*
X28839141Y-12919954D01*
X28652734Y-12789432D01*
X28652732Y-12789431D01*
X28446497Y-12693261D01*
X28446488Y-12693258D01*
X28226697Y-12634366D01*
X28226693Y-12634365D01*
X28226692Y-12634365D01*
X28226691Y-12634364D01*
X28226686Y-12634364D01*
X28000002Y-12614532D01*
X27999998Y-12614532D01*
X27773313Y-12634364D01*
X27773302Y-12634366D01*
X27553511Y-12693258D01*
X27553502Y-12693261D01*
X27347267Y-12789431D01*
X27347265Y-12789432D01*
X27160858Y-12919954D01*
X26999954Y-13080858D01*
X26869432Y-13267265D01*
X26869431Y-13267267D01*
X26773261Y-13473502D01*
X26773258Y-13473511D01*
X26714366Y-13693302D01*
X26714364Y-13693313D01*
X26694532Y-13919998D01*
X26694532Y-13920001D01*
X26714364Y-14146686D01*
X26714366Y-14146697D01*
X26773258Y-14366488D01*
X26773261Y-14366497D01*
X26869431Y-14572732D01*
X26869432Y-14572734D01*
X26999954Y-14759141D01*
X27160858Y-14920045D01*
X27323479Y-15033912D01*
X27347266Y-15050568D01*
X27405278Y-15077619D01*
X27457713Y-15123788D01*
X27476866Y-15190982D01*
X27456651Y-15257863D01*
X27405277Y-15302380D01*
X27347268Y-15329430D01*
X27347265Y-15329432D01*
X27160858Y-15459954D01*
X26999954Y-15620858D01*
X26974912Y-15656623D01*
X26920335Y-15700248D01*
X26873337Y-15709500D01*
X26103705Y-15709500D01*
X26085735Y-15708191D01*
X26061972Y-15704710D01*
X26016533Y-15708686D01*
X26009931Y-15709264D01*
X26004530Y-15709500D01*
X25996289Y-15709500D01*
X25974579Y-15712037D01*
X25963724Y-15713306D01*
X25948419Y-15714644D01*
X25887199Y-15720001D01*
X25880132Y-15721460D01*
X25880120Y-15721404D01*
X25872763Y-15723035D01*
X25872777Y-15723092D01*
X25865743Y-15724759D01*
X25793575Y-15751025D01*
X25720675Y-15775181D01*
X25714126Y-15778236D01*
X25714101Y-15778183D01*
X25707308Y-15781471D01*
X25707334Y-15781523D01*
X25700880Y-15784764D01*
X25636708Y-15826971D01*
X25571347Y-15867285D01*
X25565683Y-15871765D01*
X25565647Y-15871719D01*
X25559798Y-15876484D01*
X25559835Y-15876528D01*
X25554310Y-15881164D01*
X25554304Y-15881169D01*
X25554304Y-15881170D01*
X25537789Y-15898675D01*
X25501597Y-15937035D01*
X23800451Y-17638181D01*
X23739128Y-17671666D01*
X23712770Y-17674500D01*
X22874500Y-17674500D01*
X22807461Y-17654815D01*
X22761706Y-17602011D01*
X22750500Y-17550500D01*
X22750500Y-17362228D01*
X22770185Y-17295189D01*
X22786814Y-17274552D01*
X24485638Y-15575727D01*
X24499267Y-15563950D01*
X24518530Y-15549610D01*
X24518532Y-15549606D01*
X24518534Y-15549606D01*
X24543658Y-15519663D01*
X24552113Y-15509585D01*
X24555767Y-15505599D01*
X24561589Y-15499778D01*
X24581928Y-15474054D01*
X24587162Y-15467815D01*
X24631302Y-15415214D01*
X24631304Y-15415209D01*
X24635272Y-15409179D01*
X24635323Y-15409212D01*
X24639372Y-15402856D01*
X24639320Y-15402824D01*
X24643110Y-15396678D01*
X24643109Y-15396678D01*
X24643111Y-15396677D01*
X24656629Y-15367687D01*
X24666232Y-15347095D01*
X24712404Y-15294656D01*
X24778614Y-15275500D01*
X25125005Y-15275500D01*
X25125010Y-15275500D01*
X25227798Y-15264999D01*
X25394335Y-15209814D01*
X25543656Y-15117712D01*
X25667712Y-14993656D01*
X25759814Y-14844335D01*
X25814999Y-14677798D01*
X25825500Y-14575010D01*
X25825500Y-13574990D01*
X25814999Y-13472202D01*
X25759814Y-13305665D01*
X25667712Y-13156344D01*
X25543656Y-13032288D01*
X25436322Y-12966084D01*
X25394337Y-12940187D01*
X25394332Y-12940185D01*
X25377197Y-12934507D01*
X25227798Y-12885001D01*
X25227796Y-12885000D01*
X25125017Y-12874500D01*
X25125010Y-12874500D01*
X22874990Y-12874500D01*
X22874982Y-12874500D01*
X22772203Y-12885000D01*
X22772202Y-12885001D01*
X22689669Y-12912349D01*
X22605667Y-12940185D01*
X22605662Y-12940187D01*
X22456342Y-13032289D01*
X22332289Y-13156342D01*
X22240187Y-13305662D01*
X22240185Y-13305667D01*
X22222953Y-13357671D01*
X22185001Y-13472202D01*
X22185001Y-13472203D01*
X22185000Y-13472203D01*
X22174500Y-13574982D01*
X22174500Y-14575017D01*
X22185000Y-14677796D01*
X22208926Y-14750000D01*
X22240186Y-14844335D01*
X22332288Y-14993656D01*
X22456344Y-15117712D01*
X22548359Y-15174467D01*
X22595083Y-15226415D01*
X22606306Y-15295378D01*
X22578462Y-15359460D01*
X22570943Y-15367687D01*
X21825890Y-16112740D01*
X21764567Y-16146225D01*
X21694875Y-16141241D01*
X21638942Y-16099369D01*
X21618434Y-16057151D01*
X21606742Y-16013513D01*
X21606738Y-16013502D01*
X21510568Y-15807266D01*
X21380047Y-15620861D01*
X21380045Y-15620858D01*
X21219141Y-15459954D01*
X21032734Y-15329432D01*
X21032728Y-15329429D01*
X20974725Y-15302382D01*
X20922285Y-15256210D01*
X20903133Y-15189017D01*
X20923348Y-15122135D01*
X20974725Y-15077618D01*
X21032734Y-15050568D01*
X21219139Y-14920047D01*
X21380047Y-14759139D01*
X21510568Y-14572734D01*
X21606739Y-14366496D01*
X21665635Y-14146692D01*
X21685468Y-13920000D01*
X21665635Y-13693308D01*
X21620916Y-13526415D01*
X21606741Y-13473511D01*
X21606738Y-13473502D01*
X21606132Y-13472202D01*
X21510568Y-13267266D01*
X21380047Y-13080861D01*
X21380045Y-13080858D01*
X21219141Y-12919954D01*
X21032734Y-12789432D01*
X21032732Y-12789431D01*
X20826497Y-12693261D01*
X20826488Y-12693258D01*
X20606697Y-12634366D01*
X20606693Y-12634365D01*
X20606692Y-12634365D01*
X20606691Y-12634364D01*
X20606686Y-12634364D01*
X20380002Y-12614532D01*
X20379998Y-12614532D01*
X20153313Y-12634364D01*
X20153302Y-12634366D01*
X19933511Y-12693258D01*
X19933502Y-12693261D01*
X19727267Y-12789431D01*
X19727265Y-12789432D01*
X19540858Y-12919954D01*
X19379954Y-13080858D01*
X19249432Y-13267265D01*
X19249431Y-13267267D01*
X19153261Y-13473502D01*
X19153258Y-13473511D01*
X19094366Y-13693302D01*
X19094364Y-13693313D01*
X19074532Y-13919998D01*
X19074532Y-13920001D01*
X19094364Y-14146686D01*
X19094366Y-14146697D01*
X19153258Y-14366488D01*
X19153261Y-14366497D01*
X19249431Y-14572732D01*
X19249432Y-14572734D01*
X19379954Y-14759141D01*
X19540858Y-14920045D01*
X19540861Y-14920047D01*
X19727266Y-15050568D01*
X19785275Y-15077618D01*
X19837714Y-15123791D01*
X19856866Y-15190984D01*
X19836650Y-15257865D01*
X19785275Y-15302382D01*
X19727267Y-15329431D01*
X19727265Y-15329432D01*
X19540858Y-15459954D01*
X19379954Y-15620858D01*
X19249432Y-15807265D01*
X19249431Y-15807267D01*
X19153261Y-16013502D01*
X19153258Y-16013511D01*
X19094366Y-16233302D01*
X19094364Y-16233313D01*
X19074532Y-16459998D01*
X19074532Y-16460001D01*
X19094364Y-16686686D01*
X19094366Y-16686697D01*
X19153258Y-16906488D01*
X19153261Y-16906497D01*
X19249431Y-17112732D01*
X19249432Y-17112734D01*
X19379954Y-17299141D01*
X19540858Y-17460045D01*
X19580914Y-17488092D01*
X19727266Y-17590568D01*
X19785275Y-17617618D01*
X19837714Y-17663791D01*
X19856866Y-17730984D01*
X19836650Y-17797865D01*
X19785275Y-17842381D01*
X19785118Y-17842455D01*
X19727267Y-17869431D01*
X19727265Y-17869432D01*
X19540858Y-17999954D01*
X19379954Y-18160858D01*
X19249432Y-18347265D01*
X19249431Y-18347267D01*
X19153261Y-18553502D01*
X19153258Y-18553511D01*
X19094366Y-18773302D01*
X19094364Y-18773313D01*
X19074532Y-18999998D01*
X19074532Y-19000001D01*
X19094364Y-19226686D01*
X19094366Y-19226697D01*
X19153258Y-19446488D01*
X19153261Y-19446497D01*
X19249431Y-19652732D01*
X19249432Y-19652734D01*
X19379954Y-19839141D01*
X19540858Y-20000045D01*
X19540861Y-20000047D01*
X19727266Y-20130568D01*
X19933504Y-20226739D01*
X20153308Y-20285635D01*
X20295262Y-20298054D01*
X20340039Y-20301972D01*
X20379124Y-20317260D01*
X20395833Y-20306523D01*
X20419961Y-20301972D01*
X20458828Y-20298571D01*
X20606692Y-20285635D01*
X20826496Y-20226739D01*
X20911281Y-20187202D01*
X20980356Y-20176711D01*
X21044140Y-20205230D01*
X21082380Y-20263706D01*
X21082935Y-20333574D01*
X21051366Y-20387265D01*
X20925449Y-20513182D01*
X20864129Y-20546666D01*
X20837770Y-20549500D01*
X20430768Y-20549500D01*
X20378332Y-20534102D01*
X20353664Y-20547069D01*
X20329232Y-20549500D01*
X16493705Y-20549500D01*
X16475735Y-20548191D01*
X16451972Y-20544710D01*
X16406533Y-20548686D01*
X16399931Y-20549264D01*
X16394530Y-20549500D01*
X16386289Y-20549500D01*
X16364579Y-20552037D01*
X16353724Y-20553306D01*
X16338419Y-20554644D01*
X16277199Y-20560001D01*
X16270132Y-20561460D01*
X16270120Y-20561404D01*
X16262763Y-20563035D01*
X16262777Y-20563092D01*
X16255743Y-20564759D01*
X16183575Y-20591025D01*
X16110675Y-20615181D01*
X16104126Y-20618236D01*
X16104101Y-20618183D01*
X16097308Y-20621471D01*
X16097334Y-20621523D01*
X16090880Y-20624764D01*
X16026708Y-20666971D01*
X15961347Y-20707285D01*
X15955683Y-20711765D01*
X15955647Y-20711719D01*
X15949798Y-20716484D01*
X15949835Y-20716528D01*
X15944310Y-20721164D01*
X15944304Y-20721169D01*
X15944304Y-20721170D01*
X15909141Y-20758440D01*
X15891597Y-20777035D01*
X14041500Y-22627130D01*
X13980177Y-22660615D01*
X13943012Y-22662977D01*
X13730002Y-22644341D01*
X13729999Y-22644341D01*
X13494596Y-22664936D01*
X13494586Y-22664938D01*
X13266344Y-22726094D01*
X13266335Y-22726098D01*
X13052171Y-22825964D01*
X13052169Y-22825965D01*
X12858597Y-22961505D01*
X12691505Y-23128597D01*
X12561575Y-23314158D01*
X12506998Y-23357783D01*
X12437500Y-23364977D01*
X12375145Y-23333454D01*
X12358425Y-23314158D01*
X12228494Y-23128597D01*
X12061404Y-22961507D01*
X11993375Y-22913872D01*
X11949751Y-22859294D01*
X11940500Y-22812298D01*
X11940500Y-18672229D01*
X11960185Y-18605190D01*
X11976815Y-18584552D01*
X12485642Y-18075724D01*
X12499271Y-18063947D01*
X12518530Y-18049610D01*
X12552101Y-18009601D01*
X12555761Y-18005606D01*
X12561590Y-17999778D01*
X12581941Y-17974039D01*
X12587948Y-17966879D01*
X12631302Y-17915214D01*
X12631306Y-17915205D01*
X12635274Y-17909175D01*
X12635325Y-17909208D01*
X12639372Y-17902856D01*
X12639320Y-17902824D01*
X12643112Y-17896675D01*
X12675575Y-17827058D01*
X12710036Y-17758440D01*
X12710040Y-17758433D01*
X12710042Y-17758421D01*
X12712509Y-17751646D01*
X12712567Y-17751667D01*
X12715043Y-17744546D01*
X12714986Y-17744528D01*
X12717257Y-17737673D01*
X12732792Y-17662434D01*
X12750498Y-17587728D01*
X12750500Y-17587721D01*
X12750500Y-17587710D01*
X12751338Y-17580548D01*
X12751398Y-17580555D01*
X12752164Y-17573055D01*
X12752105Y-17573050D01*
X12752734Y-17565860D01*
X12750500Y-17489083D01*
X12750500Y-15447870D01*
X15409500Y-15447870D01*
X15409501Y-15447876D01*
X15415908Y-15507483D01*
X15466202Y-15642328D01*
X15466206Y-15642335D01*
X15552452Y-15757544D01*
X15552455Y-15757547D01*
X15667664Y-15843793D01*
X15667671Y-15843797D01*
X15802517Y-15894091D01*
X15802516Y-15894091D01*
X15809444Y-15894835D01*
X15862127Y-15900500D01*
X17757872Y-15900499D01*
X17817483Y-15894091D01*
X17952331Y-15843796D01*
X18067546Y-15757546D01*
X18153796Y-15642331D01*
X18204091Y-15507483D01*
X18210500Y-15447873D01*
X18210499Y-13552128D01*
X18204091Y-13492517D01*
X18197002Y-13473511D01*
X18153797Y-13357671D01*
X18153793Y-13357664D01*
X18067547Y-13242455D01*
X18067544Y-13242452D01*
X17952335Y-13156206D01*
X17952328Y-13156202D01*
X17817482Y-13105908D01*
X17817483Y-13105908D01*
X17757883Y-13099501D01*
X17757881Y-13099500D01*
X17757873Y-13099500D01*
X17757864Y-13099500D01*
X15862129Y-13099500D01*
X15862123Y-13099501D01*
X15802516Y-13105908D01*
X15667671Y-13156202D01*
X15667664Y-13156206D01*
X15552455Y-13242452D01*
X15552452Y-13242455D01*
X15466206Y-13357664D01*
X15466202Y-13357671D01*
X15415908Y-13492517D01*
X15410406Y-13543699D01*
X15409501Y-13552123D01*
X15409500Y-13552135D01*
X15409500Y-15447870D01*
X12750500Y-15447870D01*
X12750500Y-11362229D01*
X12770185Y-11295190D01*
X12786819Y-11274548D01*
X14137095Y-9924272D01*
X16755642Y-7305724D01*
X16769271Y-7293947D01*
X16788530Y-7279610D01*
X16822101Y-7239601D01*
X16825761Y-7235606D01*
X16828288Y-7233080D01*
X16831591Y-7229777D01*
X16851940Y-7204040D01*
X16901302Y-7145214D01*
X16901306Y-7145205D01*
X16905274Y-7139175D01*
X16905325Y-7139208D01*
X16909372Y-7132856D01*
X16909320Y-7132824D01*
X16913112Y-7126675D01*
X16945575Y-7057058D01*
X16980036Y-6988440D01*
X16980040Y-6988433D01*
X16980042Y-6988421D01*
X16982509Y-6981646D01*
X16982567Y-6981667D01*
X16985043Y-6974546D01*
X16984986Y-6974528D01*
X16987257Y-6967673D01*
X17002792Y-6892434D01*
X17020498Y-6817728D01*
X17020500Y-6817721D01*
X17020500Y-6817710D01*
X17021338Y-6810548D01*
X17021398Y-6810555D01*
X17022164Y-6803055D01*
X17022105Y-6803050D01*
X17022734Y-6795860D01*
X17020500Y-6719082D01*
X17020500Y-4326662D01*
X17040185Y-4259623D01*
X17073379Y-4225086D01*
X17109139Y-4200047D01*
X17270047Y-4039139D01*
X17400568Y-3852734D01*
X17427895Y-3794129D01*
X17474064Y-3741695D01*
X17541257Y-3722542D01*
X17608139Y-3742757D01*
X17652657Y-3794133D01*
X17679865Y-3852481D01*
X17679866Y-3852483D01*
X17730973Y-3925471D01*
X17730973Y-3925472D01*
X18161481Y-3494963D01*
X18222804Y-3461478D01*
X18292495Y-3466462D01*
X18348429Y-3508333D01*
X18351514Y-3513249D01*
X18351549Y-3513225D01*
X18356441Y-3520156D01*
X18426089Y-3594730D01*
X18459638Y-3630652D01*
X18494698Y-3651973D01*
X18541749Y-3703623D01*
X18553407Y-3772513D01*
X18525970Y-3836770D01*
X18517950Y-3845601D01*
X18084526Y-4279025D01*
X18084526Y-4279026D01*
X18157512Y-4330131D01*
X18157516Y-4330133D01*
X18363673Y-4426265D01*
X18363682Y-4426269D01*
X18583389Y-4485139D01*
X18583400Y-4485141D01*
X18809998Y-4504966D01*
X18810002Y-4504966D01*
X19036599Y-4485141D01*
X19036610Y-4485139D01*
X19256317Y-4426269D01*
X19256331Y-4426264D01*
X19462478Y-4330136D01*
X19535472Y-4279025D01*
X19103165Y-3846719D01*
X19069680Y-3785396D01*
X19074664Y-3715705D01*
X19112589Y-3662852D01*
X19215739Y-3578934D01*
X19266052Y-3507655D01*
X19320793Y-3464239D01*
X19390318Y-3457309D01*
X19452553Y-3489067D01*
X19455037Y-3491483D01*
X19889025Y-3925472D01*
X19940133Y-3852482D01*
X19967341Y-3794135D01*
X20013513Y-3741696D01*
X20080707Y-3722543D01*
X20147588Y-3742758D01*
X20192105Y-3794132D01*
X20219432Y-3852734D01*
X20270363Y-3925471D01*
X20349954Y-4039141D01*
X20510858Y-4200045D01*
X20510861Y-4200047D01*
X20697266Y-4330568D01*
X20903504Y-4426739D01*
X21123308Y-4485635D01*
X21285230Y-4499801D01*
X21349998Y-4505468D01*
X21350000Y-4505468D01*
X21350002Y-4505468D01*
X21406672Y-4500509D01*
X21576692Y-4485635D01*
X21796496Y-4426739D01*
X22002734Y-4330568D01*
X22189139Y-4200047D01*
X22350047Y-4039139D01*
X22480568Y-3852734D01*
X22576739Y-3646496D01*
X22635635Y-3426692D01*
X22655468Y-3200000D01*
X22652709Y-3168470D01*
X22645586Y-3087047D01*
X22635635Y-2973308D01*
X22576739Y-2753504D01*
X22480568Y-2547266D01*
X22350047Y-2360861D01*
X22350045Y-2360858D01*
X22189141Y-2199954D01*
X22002734Y-2069432D01*
X22002732Y-2069431D01*
X21796497Y-1973261D01*
X21796488Y-1973258D01*
X21576697Y-1914366D01*
X21576693Y-1914365D01*
X21576692Y-1914365D01*
X21576691Y-1914364D01*
X21576686Y-1914364D01*
X21350002Y-1894532D01*
X21349998Y-1894532D01*
X21123313Y-1914364D01*
X21123302Y-1914366D01*
X20903511Y-1973258D01*
X20903502Y-1973261D01*
X20697267Y-2069431D01*
X20697265Y-2069432D01*
X20510858Y-2199954D01*
X20349954Y-2360858D01*
X20219433Y-2547264D01*
X20192106Y-2605867D01*
X20145933Y-2658306D01*
X20078739Y-2677457D01*
X20011858Y-2657241D01*
X19967342Y-2605865D01*
X19940135Y-2547520D01*
X19940131Y-2547512D01*
X19889025Y-2474526D01*
X19458517Y-2905035D01*
X19397194Y-2938520D01*
X19327502Y-2933536D01*
X19271569Y-2891664D01*
X19268486Y-2886750D01*
X19268451Y-2886775D01*
X19263558Y-2879843D01*
X19160360Y-2769346D01*
X19160358Y-2769345D01*
X19125300Y-2748026D01*
X19078248Y-2696375D01*
X19066590Y-2627485D01*
X19094027Y-2563228D01*
X19102047Y-2554397D01*
X19535472Y-2120973D01*
X19462483Y-2069866D01*
X19462481Y-2069865D01*
X19256326Y-1973734D01*
X19256317Y-1973730D01*
X19036610Y-1914860D01*
X19036599Y-1914858D01*
X18810002Y-1895034D01*
X18809998Y-1895034D01*
X18583400Y-1914858D01*
X18583389Y-1914860D01*
X18363682Y-1973730D01*
X18363673Y-1973734D01*
X18157513Y-2069868D01*
X18084527Y-2120972D01*
X18084526Y-2120973D01*
X18516834Y-2553280D01*
X18550319Y-2614603D01*
X18545335Y-2684294D01*
X18507408Y-2737149D01*
X18404261Y-2821066D01*
X18404260Y-2821067D01*
X18404258Y-2821069D01*
X18353947Y-2892344D01*
X18299205Y-2935761D01*
X18229680Y-2942690D01*
X18167445Y-2910931D01*
X18164962Y-2908516D01*
X17730973Y-2474526D01*
X17730972Y-2474527D01*
X17679869Y-2547511D01*
X17652657Y-2605867D01*
X17606484Y-2658306D01*
X17539290Y-2677457D01*
X17472409Y-2657241D01*
X17427893Y-2605865D01*
X17400682Y-2547512D01*
X17400568Y-2547266D01*
X17270047Y-2360861D01*
X17270045Y-2360858D01*
X17109141Y-2199954D01*
X16922734Y-2069432D01*
X16922732Y-2069431D01*
X16716497Y-1973261D01*
X16716488Y-1973258D01*
X16496697Y-1914366D01*
X16496693Y-1914365D01*
X16496692Y-1914365D01*
X16496691Y-1914364D01*
X16496686Y-1914364D01*
X16270002Y-1894532D01*
X16269998Y-1894532D01*
X16043313Y-1914364D01*
X16043302Y-1914366D01*
X15823511Y-1973258D01*
X15823502Y-1973261D01*
X15617267Y-2069431D01*
X15617265Y-2069432D01*
X15430858Y-2199954D01*
X15269954Y-2360858D01*
X15139432Y-2547265D01*
X15139431Y-2547267D01*
X15112382Y-2605275D01*
X15066209Y-2657714D01*
X14999016Y-2676866D01*
X14932135Y-2656650D01*
X14887618Y-2605275D01*
X14860686Y-2547520D01*
X14860568Y-2547266D01*
X14730047Y-2360861D01*
X14730045Y-2360858D01*
X14569141Y-2199954D01*
X14382734Y-2069432D01*
X14382732Y-2069431D01*
X14176497Y-1973261D01*
X14176488Y-1973258D01*
X13956697Y-1914366D01*
X13956693Y-1914365D01*
X13956692Y-1914365D01*
X13956691Y-1914364D01*
X13956686Y-1914364D01*
X13730002Y-1894532D01*
X13729998Y-1894532D01*
X13503313Y-1914364D01*
X13503302Y-1914366D01*
X13283511Y-1973258D01*
X13283502Y-1973261D01*
X13077267Y-2069431D01*
X13077265Y-2069432D01*
X12890858Y-2199954D01*
X12729954Y-2360858D01*
X12599432Y-2547265D01*
X12599431Y-2547267D01*
X12572382Y-2605275D01*
X12526209Y-2657714D01*
X12459016Y-2676866D01*
X12392135Y-2656650D01*
X12347618Y-2605275D01*
X12320686Y-2547520D01*
X12320568Y-2547266D01*
X12190047Y-2360861D01*
X12190045Y-2360858D01*
X12029141Y-2199954D01*
X11842734Y-2069432D01*
X11842732Y-2069431D01*
X11636497Y-1973261D01*
X11636488Y-1973258D01*
X11416697Y-1914366D01*
X11416693Y-1914365D01*
X11416692Y-1914365D01*
X11416691Y-1914364D01*
X11416686Y-1914364D01*
X11190002Y-1894532D01*
X11189998Y-1894532D01*
X10963313Y-1914364D01*
X10963302Y-1914366D01*
X10743511Y-1973258D01*
X10743502Y-1973261D01*
X10537267Y-2069431D01*
X10537265Y-2069432D01*
X10350858Y-2199954D01*
X10189954Y-2360858D01*
X10059432Y-2547265D01*
X10059431Y-2547267D01*
X10032382Y-2605275D01*
X9986209Y-2657714D01*
X9919016Y-2676866D01*
X9852135Y-2656650D01*
X9807618Y-2605275D01*
X9780686Y-2547520D01*
X9780568Y-2547266D01*
X9650047Y-2360861D01*
X9650045Y-2360858D01*
X9489141Y-2199954D01*
X9302734Y-2069432D01*
X9302732Y-2069431D01*
X9096497Y-1973261D01*
X9096488Y-1973258D01*
X8876697Y-1914366D01*
X8876693Y-1914365D01*
X8876692Y-1914365D01*
X8876691Y-1914364D01*
X8876686Y-1914364D01*
X8650002Y-1894532D01*
X8649998Y-1894532D01*
X8423313Y-1914364D01*
X8423302Y-1914366D01*
X8203511Y-1973258D01*
X8203502Y-1973261D01*
X7997267Y-2069431D01*
X7997265Y-2069432D01*
X7810858Y-2199954D01*
X7649954Y-2360858D01*
X7519432Y-2547265D01*
X7519431Y-2547267D01*
X7423261Y-2753502D01*
X7423258Y-2753511D01*
X7364366Y-2973302D01*
X7364364Y-2973313D01*
X7344532Y-3199998D01*
X7344532Y-3200001D01*
X7364364Y-3426686D01*
X7364366Y-3426697D01*
X7423258Y-3646488D01*
X7423261Y-3646497D01*
X7519431Y-3852732D01*
X7519432Y-3852734D01*
X7649954Y-4039141D01*
X7810858Y-4200045D01*
X7810861Y-4200047D01*
X7997266Y-4330568D01*
X8203504Y-4426739D01*
X8423308Y-4485635D01*
X8585230Y-4499801D01*
X8649998Y-4505468D01*
X8650000Y-4505468D01*
X8650002Y-4505468D01*
X8706672Y-4500509D01*
X8876692Y-4485635D01*
X9096496Y-4426739D01*
X9302734Y-4330568D01*
X9489139Y-4200047D01*
X9650047Y-4039139D01*
X9780568Y-3852734D01*
X9807618Y-3794724D01*
X9853790Y-3742285D01*
X9920983Y-3723133D01*
X9987865Y-3743348D01*
X10032382Y-3794725D01*
X10059429Y-3852728D01*
X10059432Y-3852734D01*
X10189954Y-4039141D01*
X10350858Y-4200045D01*
X10350861Y-4200047D01*
X10537266Y-4330568D01*
X10743504Y-4426739D01*
X10963308Y-4485635D01*
X11125230Y-4499801D01*
X11189998Y-4505468D01*
X11190000Y-4505468D01*
X11190002Y-4505468D01*
X11246672Y-4500509D01*
X11416692Y-4485635D01*
X11636496Y-4426739D01*
X11842734Y-4330568D01*
X12029139Y-4200047D01*
X12190047Y-4039139D01*
X12320568Y-3852734D01*
X12347619Y-3794721D01*
X12393788Y-3742286D01*
X12460981Y-3723133D01*
X12527862Y-3743348D01*
X12572380Y-3794722D01*
X12599432Y-3852734D01*
X12650363Y-3925471D01*
X12729954Y-4039141D01*
X12890859Y-4200046D01*
X12904824Y-4209824D01*
X12926619Y-4225085D01*
X12926621Y-4225086D01*
X12970247Y-4279662D01*
X12979500Y-4326662D01*
X12979500Y-7407769D01*
X12959815Y-7474808D01*
X12943181Y-7495450D01*
X10514358Y-9924272D01*
X10500729Y-9936051D01*
X10481468Y-9950390D01*
X10447898Y-9990397D01*
X10444253Y-9994376D01*
X10438409Y-10000222D01*
X10418059Y-10025959D01*
X10368695Y-10084789D01*
X10364729Y-10090819D01*
X10364682Y-10090788D01*
X10360630Y-10097147D01*
X10360679Y-10097177D01*
X10356889Y-10103321D01*
X10324424Y-10172941D01*
X10289960Y-10241566D01*
X10287488Y-10248357D01*
X10287432Y-10248336D01*
X10284960Y-10255450D01*
X10285015Y-10255469D01*
X10282742Y-10262327D01*
X10274975Y-10299946D01*
X10267207Y-10337565D01*
X10254001Y-10393284D01*
X10249498Y-10412286D01*
X10248661Y-10419454D01*
X10248601Y-10419447D01*
X10247835Y-10426945D01*
X10247895Y-10426951D01*
X10247265Y-10434140D01*
X10249500Y-10510916D01*
X10249500Y-13296914D01*
X10229815Y-13363953D01*
X10177011Y-13409708D01*
X10107853Y-13419652D01*
X10049338Y-13394767D01*
X9958356Y-13323953D01*
X9958351Y-13323949D01*
X9754302Y-13213523D01*
X9754293Y-13213520D01*
X9534861Y-13138188D01*
X9440000Y-13122359D01*
X9440000Y-13938178D01*
X9420315Y-14005217D01*
X9367511Y-14050972D01*
X9298353Y-14060916D01*
X9279454Y-14056670D01*
X9257829Y-14050000D01*
X9257827Y-14050000D01*
X9156276Y-14050000D01*
X9156268Y-14050000D01*
X9082481Y-14061122D01*
X9013256Y-14051649D01*
X8960143Y-14006254D01*
X8940003Y-13939350D01*
X8940000Y-13938507D01*
X8940000Y-13122359D01*
X8939999Y-13122359D01*
X8845138Y-13138188D01*
X8625706Y-13213520D01*
X8625697Y-13213523D01*
X8421648Y-13323949D01*
X8421644Y-13323952D01*
X8238562Y-13466451D01*
X8238558Y-13466454D01*
X8081414Y-13637157D01*
X7954516Y-13831390D01*
X7861317Y-14043864D01*
X7809117Y-14250000D01*
X8629997Y-14250000D01*
X8697036Y-14269685D01*
X8742791Y-14322489D01*
X8752735Y-14391647D01*
X8750888Y-14401592D01*
X8736189Y-14465992D01*
X8736189Y-14465993D01*
X8747021Y-14610532D01*
X8744920Y-14610689D01*
X8741405Y-14668139D01*
X8700110Y-14724499D01*
X8634899Y-14749587D01*
X8624784Y-14750000D01*
X7809117Y-14750000D01*
X7861317Y-14956135D01*
X7954516Y-15168609D01*
X8081414Y-15362842D01*
X8238558Y-15533545D01*
X8238562Y-15533548D01*
X8421644Y-15676047D01*
X8421648Y-15676050D01*
X8625697Y-15786476D01*
X8625706Y-15786479D01*
X8845139Y-15861811D01*
X8939999Y-15877640D01*
X8940000Y-15877639D01*
X8940000Y-15061821D01*
X8959685Y-14994782D01*
X9012489Y-14949027D01*
X9081647Y-14939083D01*
X9100547Y-14943329D01*
X9122173Y-14950000D01*
X9223723Y-14950000D01*
X9223724Y-14950000D01*
X9297519Y-14938877D01*
X9366742Y-14948350D01*
X9419857Y-14993744D01*
X9439997Y-15060648D01*
X9440000Y-15061492D01*
X9440000Y-15877640D01*
X9534860Y-15861811D01*
X9754293Y-15786479D01*
X9754302Y-15786476D01*
X9958350Y-15676050D01*
X10049337Y-15605232D01*
X10114331Y-15579589D01*
X10182871Y-15593155D01*
X10233196Y-15641623D01*
X10249500Y-15703085D01*
X10249500Y-16637769D01*
X10229815Y-16704808D01*
X10213181Y-16725450D01*
X8164358Y-18774272D01*
X8150729Y-18786051D01*
X8131468Y-18800390D01*
X8097898Y-18840397D01*
X8094253Y-18844376D01*
X8088409Y-18850222D01*
X8068059Y-18875959D01*
X8018695Y-18934789D01*
X8014729Y-18940819D01*
X8014682Y-18940788D01*
X8010630Y-18947147D01*
X8010679Y-18947177D01*
X8006889Y-18953321D01*
X7974424Y-19022941D01*
X7939960Y-19091566D01*
X7937488Y-19098357D01*
X7937432Y-19098336D01*
X7934960Y-19105450D01*
X7935015Y-19105469D01*
X7932742Y-19112327D01*
X7919865Y-19174688D01*
X7917207Y-19187565D01*
X7914264Y-19199982D01*
X7899501Y-19262270D01*
X7898663Y-19269443D01*
X7898605Y-19269436D01*
X7897837Y-19276950D01*
X7897894Y-19276955D01*
X7897265Y-19284137D01*
X7899500Y-19360916D01*
X7899500Y-22812298D01*
X7879815Y-22879337D01*
X7846625Y-22913872D01*
X7778595Y-22961507D01*
X7611505Y-23128597D01*
X7475965Y-23322169D01*
X7475964Y-23322171D01*
X7376098Y-23536335D01*
X7376094Y-23536344D01*
X7314938Y-23764586D01*
X7314936Y-23764596D01*
X7294341Y-23999999D01*
X7294341Y-24000000D01*
X5324997Y-24000000D01*
X5314505Y-23897303D01*
X5314505Y-23897301D01*
X5259359Y-23730880D01*
X5259354Y-23730869D01*
X5167319Y-23581659D01*
X5167316Y-23581655D01*
X5043344Y-23457683D01*
X5043340Y-23457680D01*
X4894130Y-23365645D01*
X4894119Y-23365640D01*
X4727697Y-23310494D01*
X4624986Y-23300000D01*
X3750000Y-23300000D01*
X3250000Y-23300000D01*
X2375028Y-23300000D01*
X2375012Y-23300001D01*
X2272303Y-23310494D01*
X2272301Y-23310494D01*
X2105880Y-23365640D01*
X2105869Y-23365645D01*
X1956659Y-23457680D01*
X1956655Y-23457683D01*
X1832683Y-23581655D01*
X1832680Y-23581659D01*
X1740645Y-23730869D01*
X1740640Y-23730880D01*
X1685494Y-23897302D01*
X1675000Y-24000013D01*
X1675000Y-24250000D01*
X500Y-24250000D01*
X500Y-14947870D01*
X1324500Y-14947870D01*
X1324501Y-14947876D01*
X1330908Y-15007483D01*
X1381202Y-15142328D01*
X1381206Y-15142335D01*
X1467452Y-15257544D01*
X1467455Y-15257547D01*
X1582664Y-15343793D01*
X1582671Y-15343797D01*
X1591514Y-15347095D01*
X1717517Y-15394091D01*
X1738756Y-15396374D01*
X1803304Y-15423110D01*
X1843154Y-15480502D01*
X1849500Y-15519663D01*
X1849500Y-16186897D01*
X1849295Y-16191931D01*
X1844660Y-16248843D01*
X1855914Y-16331441D01*
X1864927Y-16414316D01*
X1864929Y-16414327D01*
X1864990Y-16414506D01*
X1870340Y-16437331D01*
X1870366Y-16437525D01*
X1870368Y-16437535D01*
X1870369Y-16437537D01*
X1878621Y-16459998D01*
X1899119Y-16515794D01*
X1925730Y-16594774D01*
X1925734Y-16594782D01*
X1925832Y-16594945D01*
X1935969Y-16616099D01*
X1936036Y-16616283D01*
X1936038Y-16616286D01*
X1980939Y-16686535D01*
X1982502Y-16689132D01*
X2023911Y-16757954D01*
X2024042Y-16758092D01*
X2038495Y-16776579D01*
X2038602Y-16776747D01*
X2097552Y-16835696D01*
X2152326Y-16893521D01*
X2154871Y-16896207D01*
X2155028Y-16896314D01*
X2173121Y-16911265D01*
X2588181Y-17326325D01*
X2621666Y-17387648D01*
X2624500Y-17414006D01*
X2624500Y-18375500D01*
X2604815Y-18442539D01*
X2552011Y-18488294D01*
X2500500Y-18499500D01*
X2374982Y-18499500D01*
X2272203Y-18510000D01*
X2272202Y-18510001D01*
X2189669Y-18537349D01*
X2105667Y-18565185D01*
X2105662Y-18565187D01*
X1956342Y-18657289D01*
X1832289Y-18781342D01*
X1740187Y-18930662D01*
X1740185Y-18930667D01*
X1732678Y-18953323D01*
X1685001Y-19097202D01*
X1685001Y-19097203D01*
X1685000Y-19097203D01*
X1674500Y-19199982D01*
X1674500Y-20200017D01*
X1685000Y-20302796D01*
X1686235Y-20306523D01*
X1740186Y-20469335D01*
X1832288Y-20618656D01*
X1956344Y-20742712D01*
X2105665Y-20834814D01*
X2272202Y-20889999D01*
X2374990Y-20900500D01*
X2374995Y-20900500D01*
X4625005Y-20900500D01*
X4625010Y-20900500D01*
X4727798Y-20889999D01*
X4894335Y-20834814D01*
X5043656Y-20742712D01*
X5167712Y-20618656D01*
X5259814Y-20469335D01*
X5314999Y-20302798D01*
X5325500Y-20200010D01*
X5325500Y-19199990D01*
X5314999Y-19097202D01*
X5259814Y-18930665D01*
X5167712Y-18781344D01*
X5043656Y-18657288D01*
X4894335Y-18565186D01*
X4727798Y-18510001D01*
X4727796Y-18510000D01*
X4625017Y-18499500D01*
X4625010Y-18499500D01*
X4499500Y-18499500D01*
X4432461Y-18479815D01*
X4386706Y-18427011D01*
X4375500Y-18375500D01*
X4375500Y-17038110D01*
X4375705Y-17033075D01*
X4380340Y-16976154D01*
X4380340Y-16976152D01*
X4369082Y-16893521D01*
X4360073Y-16810684D01*
X4360016Y-16810515D01*
X4354656Y-16787646D01*
X4354632Y-16787463D01*
X4354630Y-16787458D01*
X4354630Y-16787456D01*
X4325874Y-16709187D01*
X4299267Y-16630220D01*
X4299266Y-16630218D01*
X4299173Y-16630063D01*
X4289026Y-16608889D01*
X4288961Y-16608712D01*
X4244059Y-16538463D01*
X4201089Y-16467046D01*
X4200955Y-16466904D01*
X4186504Y-16448419D01*
X4186400Y-16448256D01*
X4127447Y-16389303D01*
X4070129Y-16328793D01*
X4069970Y-16328685D01*
X4051877Y-16313733D01*
X3636819Y-15898675D01*
X3603334Y-15837352D01*
X3600500Y-15810994D01*
X3600500Y-15519663D01*
X3620185Y-15452624D01*
X3672989Y-15406869D01*
X3711248Y-15396373D01*
X3732483Y-15394091D01*
X3867331Y-15343796D01*
X3982546Y-15257546D01*
X4068796Y-15142331D01*
X4076329Y-15122135D01*
X4097455Y-15065493D01*
X4139326Y-15009559D01*
X4204790Y-14985141D01*
X4273063Y-14999992D01*
X4304866Y-15024843D01*
X4312302Y-15032920D01*
X4313215Y-15033912D01*
X4313222Y-15033918D01*
X4496365Y-15176464D01*
X4496371Y-15176468D01*
X4496374Y-15176470D01*
X4700497Y-15286936D01*
X4745487Y-15302381D01*
X4920015Y-15362297D01*
X4920017Y-15362297D01*
X4920019Y-15362298D01*
X5148951Y-15400500D01*
X5148952Y-15400500D01*
X5381048Y-15400500D01*
X5381049Y-15400500D01*
X5609981Y-15362298D01*
X5829503Y-15286936D01*
X6033626Y-15176470D01*
X6036200Y-15174467D01*
X6109121Y-15117710D01*
X6216784Y-15033913D01*
X6373979Y-14863153D01*
X6500924Y-14668849D01*
X6594157Y-14456300D01*
X6651134Y-14231305D01*
X6664903Y-14065135D01*
X6670300Y-14000006D01*
X6670300Y-13999993D01*
X6651135Y-13768702D01*
X6651133Y-13768691D01*
X6594157Y-13543699D01*
X6500924Y-13331151D01*
X6373983Y-13136852D01*
X6373980Y-13136849D01*
X6373979Y-13136847D01*
X6216784Y-12966087D01*
X6216779Y-12966083D01*
X6216777Y-12966081D01*
X6033634Y-12823535D01*
X6033628Y-12823531D01*
X5829504Y-12713064D01*
X5829495Y-12713061D01*
X5609984Y-12637702D01*
X5419450Y-12605908D01*
X5381049Y-12599500D01*
X5148951Y-12599500D01*
X5110550Y-12605908D01*
X4920015Y-12637702D01*
X4700504Y-12713061D01*
X4700495Y-12713064D01*
X4496371Y-12823531D01*
X4496365Y-12823535D01*
X4313222Y-12966081D01*
X4313218Y-12966085D01*
X4304866Y-12975158D01*
X4244979Y-13011148D01*
X4175141Y-13009047D01*
X4117525Y-12969522D01*
X4097455Y-12934507D01*
X4068797Y-12857671D01*
X4068793Y-12857664D01*
X3982547Y-12742455D01*
X3982544Y-12742452D01*
X3867335Y-12656206D01*
X3867328Y-12656202D01*
X3732482Y-12605908D01*
X3732483Y-12605908D01*
X3672883Y-12599501D01*
X3672881Y-12599500D01*
X3672873Y-12599500D01*
X3672864Y-12599500D01*
X1777129Y-12599500D01*
X1777123Y-12599501D01*
X1717516Y-12605908D01*
X1582671Y-12656202D01*
X1582664Y-12656206D01*
X1467455Y-12742452D01*
X1467452Y-12742455D01*
X1381206Y-12857664D01*
X1381202Y-12857671D01*
X1330908Y-12992517D01*
X1324501Y-13052116D01*
X1324500Y-13052135D01*
X1324500Y-14947870D01*
X500Y-14947870D01*
X500Y-4221141D01*
X20185Y-4154102D01*
X72989Y-4108347D01*
X142147Y-4098403D01*
X205703Y-4127428D01*
X238359Y-4172027D01*
X314555Y-4348670D01*
X314561Y-4348683D01*
X489289Y-4651322D01*
X697972Y-4931631D01*
X697976Y-4931636D01*
X706147Y-4940297D01*
X706148Y-4940298D01*
X1245481Y-4400964D01*
X1306804Y-4367479D01*
X1376495Y-4372463D01*
X1432429Y-4414334D01*
X1436264Y-4419754D01*
X1438679Y-4423369D01*
X1438680Y-4423370D01*
X1479953Y-4485139D01*
X1493935Y-4506065D01*
X1580243Y-4563734D01*
X1625049Y-4617346D01*
X1633756Y-4686671D01*
X1603602Y-4749698D01*
X1599034Y-4754517D01*
X1062817Y-5290733D01*
X1062818Y-5290734D01*
X1205480Y-5410442D01*
X1497461Y-5602480D01*
X1809739Y-5759314D01*
X1809745Y-5759316D01*
X2138130Y-5878838D01*
X2138133Y-5878839D01*
X2478171Y-5959429D01*
X2825276Y-5999999D01*
X2825277Y-6000000D01*
X3174723Y-6000000D01*
X3174723Y-5999999D01*
X3521827Y-5959429D01*
X3521829Y-5959429D01*
X3861866Y-5878839D01*
X3861869Y-5878838D01*
X4190254Y-5759316D01*
X4190260Y-5759314D01*
X4502538Y-5602480D01*
X4794515Y-5410445D01*
X4937180Y-5290734D01*
X4937181Y-5290733D01*
X4400965Y-4754517D01*
X4367480Y-4693194D01*
X4372464Y-4623502D01*
X4414336Y-4567569D01*
X4419756Y-4563733D01*
X4423366Y-4561320D01*
X4423370Y-4561320D01*
X4506065Y-4506065D01*
X4561320Y-4423370D01*
X4561320Y-4423368D01*
X4563735Y-4419755D01*
X4617347Y-4374950D01*
X4686672Y-4366243D01*
X4749699Y-4396397D01*
X4754518Y-4400965D01*
X5293850Y-4940297D01*
X5302032Y-4931625D01*
X5510710Y-4651322D01*
X5685438Y-4348683D01*
X5685444Y-4348670D01*
X5823854Y-4027800D01*
X5924083Y-3693011D01*
X5924085Y-3693002D01*
X5984763Y-3348880D01*
X5984764Y-3348869D01*
X6005084Y-3000003D01*
X6005084Y-2999996D01*
X5984764Y-2651130D01*
X5984763Y-2651119D01*
X5924085Y-2306997D01*
X5924083Y-2306988D01*
X5823854Y-1972199D01*
X5685444Y-1651329D01*
X5685438Y-1651316D01*
X5510710Y-1348677D01*
X5302029Y-1068371D01*
X5293850Y-1059701D01*
X5293850Y-1059700D01*
X4754517Y-1599034D01*
X4693194Y-1632519D01*
X4623502Y-1627535D01*
X4567569Y-1585663D01*
X4563734Y-1580243D01*
X4506065Y-1493935D01*
X4419754Y-1436264D01*
X4374949Y-1382652D01*
X4366242Y-1313327D01*
X4396396Y-1250299D01*
X4400964Y-1245481D01*
X4937181Y-709265D01*
X4937180Y-709264D01*
X4794519Y-589557D01*
X4502538Y-397519D01*
X4190260Y-240685D01*
X4186943Y-239255D01*
X4187387Y-238225D01*
X4134921Y-199596D01*
X4109985Y-134327D01*
X4124295Y-65938D01*
X4173306Y-16143D01*
X4233595Y-500D01*
X25766405Y-500D01*
X25833444Y-20185D01*
G37*
%TD.AperFunction*%
%TA.AperFunction,Conductor*%
G36*
X4099619Y-32763588D02*
G01*
X4146585Y-32793032D01*
X4250684Y-32897131D01*
X4284169Y-32958454D01*
X4279185Y-33028146D01*
X4237313Y-33084079D01*
X4231895Y-33087913D01*
X4145585Y-33145584D01*
X4145584Y-33145585D01*
X4087913Y-33231895D01*
X4034301Y-33276699D01*
X3964976Y-33285406D01*
X3901949Y-33255251D01*
X3897131Y-33250684D01*
X3792786Y-33146339D01*
X3759301Y-33085016D01*
X3764285Y-33015324D01*
X3806157Y-32959391D01*
X3807427Y-32958454D01*
X3825747Y-32945144D01*
X3969279Y-32795020D01*
X4029833Y-32760169D01*
X4099619Y-32763588D01*
G37*
%TD.AperFunction*%
%TA.AperFunction,Conductor*%
G36*
X25986564Y-32762395D02*
G01*
X26040177Y-32801264D01*
X26092852Y-32867317D01*
X26092854Y-32867318D01*
X26092855Y-32867320D01*
X26161046Y-32926896D01*
X26202916Y-32963477D01*
X26240450Y-33022409D01*
X26240165Y-33092278D01*
X26209012Y-33144539D01*
X26102867Y-33250684D01*
X26041544Y-33284169D01*
X25971852Y-33279185D01*
X25915919Y-33237313D01*
X25912084Y-33231893D01*
X25854415Y-33145585D01*
X25768104Y-33087914D01*
X25723299Y-33034302D01*
X25714592Y-32964977D01*
X25744746Y-32901949D01*
X25749314Y-32897131D01*
X25855549Y-32790896D01*
X25916872Y-32757411D01*
X25986564Y-32762395D01*
G37*
%TD.AperFunction*%
%TA.AperFunction,Conductor*%
G36*
X4028146Y-30720813D02*
G01*
X4084079Y-30762685D01*
X4087914Y-30768104D01*
X4090329Y-30771719D01*
X4090330Y-30771720D01*
X4145585Y-30854415D01*
X4216196Y-30901596D01*
X4231893Y-30912084D01*
X4276699Y-30965696D01*
X4285406Y-31035021D01*
X4255252Y-31098048D01*
X4250684Y-31102867D01*
X4144449Y-31209102D01*
X4083126Y-31242587D01*
X4013434Y-31237603D01*
X3959821Y-31198733D01*
X3907149Y-31132684D01*
X3907146Y-31132681D01*
X3907145Y-31132680D01*
X3802832Y-31041545D01*
X3797082Y-31036521D01*
X3759548Y-30977589D01*
X3759833Y-30907720D01*
X3790986Y-30855459D01*
X3897131Y-30749314D01*
X3958454Y-30715829D01*
X4028146Y-30720813D01*
G37*
%TD.AperFunction*%
%TA.AperFunction,Conductor*%
G36*
X28028146Y-30720813D02*
G01*
X28084079Y-30762685D01*
X28087914Y-30768104D01*
X28090329Y-30771719D01*
X28090330Y-30771720D01*
X28145585Y-30854415D01*
X28216196Y-30901596D01*
X28231893Y-30912084D01*
X28276699Y-30965696D01*
X28285406Y-31035021D01*
X28255252Y-31098048D01*
X28250684Y-31102867D01*
X28144449Y-31209102D01*
X28083126Y-31242587D01*
X28013434Y-31237603D01*
X27959821Y-31198733D01*
X27907149Y-31132684D01*
X27907146Y-31132681D01*
X27907145Y-31132680D01*
X27802832Y-31041545D01*
X27797082Y-31036521D01*
X27759548Y-30977589D01*
X27759833Y-30907720D01*
X27790986Y-30855459D01*
X27897131Y-30749314D01*
X27958454Y-30715829D01*
X28028146Y-30720813D01*
G37*
%TD.AperFunction*%
%TA.AperFunction,Conductor*%
G36*
X2098049Y-30744747D02*
G01*
X2102868Y-30749315D01*
X2207212Y-30853659D01*
X2240697Y-30914982D01*
X2235713Y-30984674D01*
X2193841Y-31040607D01*
X2192419Y-31041656D01*
X2174258Y-31054850D01*
X2174250Y-31054857D01*
X2030721Y-31204978D01*
X1970165Y-31239830D01*
X1900379Y-31236411D01*
X1853414Y-31206967D01*
X1749315Y-31102868D01*
X1715830Y-31041545D01*
X1720814Y-30971853D01*
X1762686Y-30915920D01*
X1768105Y-30912085D01*
X1771718Y-30909670D01*
X1771720Y-30909670D01*
X1854415Y-30854415D01*
X1909670Y-30771720D01*
X1909670Y-30771718D01*
X1912085Y-30768105D01*
X1965697Y-30723300D01*
X2035022Y-30714593D01*
X2098049Y-30744747D01*
G37*
%TD.AperFunction*%
%TA.AperFunction,Conductor*%
G36*
X26098049Y-30744747D02*
G01*
X26102868Y-30749315D01*
X26207212Y-30853659D01*
X26240697Y-30914982D01*
X26235713Y-30984674D01*
X26193841Y-31040607D01*
X26192419Y-31041656D01*
X26174258Y-31054850D01*
X26174250Y-31054857D01*
X26030721Y-31204978D01*
X25970165Y-31239830D01*
X25900379Y-31236411D01*
X25853414Y-31206967D01*
X25749315Y-31102868D01*
X25715830Y-31041545D01*
X25720814Y-30971853D01*
X25762686Y-30915920D01*
X25768105Y-30912085D01*
X25771718Y-30909670D01*
X25771720Y-30909670D01*
X25854415Y-30854415D01*
X25909670Y-30771720D01*
X25909670Y-30771718D01*
X25912085Y-30768105D01*
X25965697Y-30723300D01*
X26035022Y-30714593D01*
X26098049Y-30744747D01*
G37*
%TD.AperFunction*%
%TA.AperFunction,Conductor*%
G36*
X4099619Y-3763588D02*
G01*
X4146585Y-3793032D01*
X4250684Y-3897131D01*
X4284169Y-3958454D01*
X4279185Y-4028146D01*
X4237313Y-4084079D01*
X4231895Y-4087913D01*
X4145585Y-4145584D01*
X4145584Y-4145585D01*
X4087913Y-4231895D01*
X4034301Y-4276699D01*
X3964976Y-4285406D01*
X3901949Y-4255251D01*
X3897131Y-4250684D01*
X3792786Y-4146339D01*
X3759301Y-4085016D01*
X3764285Y-4015324D01*
X3806157Y-3959391D01*
X3807427Y-3958454D01*
X3825747Y-3945144D01*
X3969279Y-3795020D01*
X4029833Y-3760169D01*
X4099619Y-3763588D01*
G37*
%TD.AperFunction*%
%TA.AperFunction,Conductor*%
G36*
X28099619Y-3763588D02*
G01*
X28146585Y-3793032D01*
X28250684Y-3897131D01*
X28284169Y-3958454D01*
X28279185Y-4028146D01*
X28237313Y-4084079D01*
X28231895Y-4087913D01*
X28145585Y-4145584D01*
X28145584Y-4145585D01*
X28087913Y-4231895D01*
X28034301Y-4276699D01*
X27964976Y-4285406D01*
X27901949Y-4255251D01*
X27897131Y-4250684D01*
X27792786Y-4146339D01*
X27759301Y-4085016D01*
X27764285Y-4015324D01*
X27806157Y-3959391D01*
X27807427Y-3958454D01*
X27825747Y-3945144D01*
X27969279Y-3795020D01*
X28029833Y-3760169D01*
X28099619Y-3763588D01*
G37*
%TD.AperFunction*%
%TA.AperFunction,Conductor*%
G36*
X1986564Y-3762395D02*
G01*
X2040177Y-3801264D01*
X2092852Y-3867317D01*
X2092854Y-3867318D01*
X2092855Y-3867320D01*
X2159415Y-3925471D01*
X2202916Y-3963477D01*
X2240450Y-4022409D01*
X2240165Y-4092278D01*
X2209012Y-4144539D01*
X2102867Y-4250684D01*
X2041544Y-4284169D01*
X1971852Y-4279185D01*
X1915919Y-4237313D01*
X1912084Y-4231893D01*
X1854415Y-4145585D01*
X1768104Y-4087914D01*
X1723299Y-4034302D01*
X1714592Y-3964977D01*
X1744746Y-3901949D01*
X1749314Y-3897131D01*
X1855549Y-3790896D01*
X1916872Y-3757411D01*
X1986564Y-3762395D01*
G37*
%TD.AperFunction*%
%TA.AperFunction,Conductor*%
G36*
X25986564Y-3762395D02*
G01*
X26040177Y-3801264D01*
X26092852Y-3867317D01*
X26092854Y-3867318D01*
X26092855Y-3867320D01*
X26159415Y-3925471D01*
X26202916Y-3963477D01*
X26240450Y-4022409D01*
X26240165Y-4092278D01*
X26209012Y-4144539D01*
X26102867Y-4250684D01*
X26041544Y-4284169D01*
X25971852Y-4279185D01*
X25915919Y-4237313D01*
X25912084Y-4231893D01*
X25854415Y-4145585D01*
X25768104Y-4087914D01*
X25723299Y-4034302D01*
X25714592Y-3964977D01*
X25744746Y-3901949D01*
X25749314Y-3897131D01*
X25855549Y-3790896D01*
X25916872Y-3757411D01*
X25986564Y-3762395D01*
G37*
%TD.AperFunction*%
%TA.AperFunction,Conductor*%
G36*
X4028146Y-1720813D02*
G01*
X4084079Y-1762685D01*
X4087914Y-1768104D01*
X4090329Y-1771719D01*
X4090330Y-1771720D01*
X4145585Y-1854415D01*
X4205624Y-1894532D01*
X4231893Y-1912084D01*
X4276699Y-1965696D01*
X4285406Y-2035021D01*
X4255252Y-2098048D01*
X4250684Y-2102867D01*
X4144449Y-2209102D01*
X4083126Y-2242587D01*
X4013434Y-2237603D01*
X3959821Y-2198733D01*
X3907149Y-2132684D01*
X3907146Y-2132681D01*
X3907145Y-2132680D01*
X3835247Y-2069865D01*
X3797082Y-2036521D01*
X3759548Y-1977589D01*
X3759833Y-1907720D01*
X3790986Y-1855459D01*
X3897131Y-1749314D01*
X3958454Y-1715829D01*
X4028146Y-1720813D01*
G37*
%TD.AperFunction*%
%TA.AperFunction,Conductor*%
G36*
X26098049Y-1744747D02*
G01*
X26102868Y-1749315D01*
X26207212Y-1853659D01*
X26240697Y-1914982D01*
X26235713Y-1984674D01*
X26193841Y-2040607D01*
X26192419Y-2041656D01*
X26174258Y-2054850D01*
X26174250Y-2054857D01*
X26030721Y-2204978D01*
X25970165Y-2239830D01*
X25900379Y-2236411D01*
X25853414Y-2206967D01*
X25749315Y-2102868D01*
X25715830Y-2041545D01*
X25720814Y-1971853D01*
X25762686Y-1915920D01*
X25768105Y-1912085D01*
X25771718Y-1909670D01*
X25771720Y-1909670D01*
X25854415Y-1854415D01*
X25909670Y-1771720D01*
X25909670Y-1771718D01*
X25912085Y-1768105D01*
X25965697Y-1723300D01*
X26035022Y-1714593D01*
X26098049Y-1744747D01*
G37*
%TD.AperFunction*%
%TD*%
M02*
