%TF.GenerationSoftware,KiCad,Pcbnew,7.0.7*%
%TF.CreationDate,2024-02-22T12:36:16+00:00*%
%TF.ProjectId,solenoidInterface_rev0,736f6c65-6e6f-4696-9449-6e7465726661,rev?*%
%TF.SameCoordinates,Original*%
%TF.FileFunction,Soldermask,Top*%
%TF.FilePolarity,Negative*%
%FSLAX46Y46*%
G04 Gerber Fmt 4.6, Leading zero omitted, Abs format (unit mm)*
G04 Created by KiCad (PCBNEW 7.0.7) date 2024-02-22 12:36:16*
%MOMM*%
%LPD*%
G01*
G04 APERTURE LIST*
G04 Aperture macros list*
%AMRoundRect*
0 Rectangle with rounded corners*
0 $1 Rounding radius*
0 $2 $3 $4 $5 $6 $7 $8 $9 X,Y pos of 4 corners*
0 Add a 4 corners polygon primitive as box body*
4,1,4,$2,$3,$4,$5,$6,$7,$8,$9,$2,$3,0*
0 Add four circle primitives for the rounded corners*
1,1,$1+$1,$2,$3*
1,1,$1+$1,$4,$5*
1,1,$1+$1,$6,$7*
1,1,$1+$1,$8,$9*
0 Add four rect primitives between the rounded corners*
20,1,$1+$1,$2,$3,$4,$5,0*
20,1,$1+$1,$4,$5,$6,$7,0*
20,1,$1+$1,$6,$7,$8,$9,0*
20,1,$1+$1,$8,$9,$2,$3,0*%
G04 Aperture macros list end*
%ADD10C,1.600000*%
%ADD11R,1.700000X1.700000*%
%ADD12O,1.700000X1.700000*%
%ADD13R,1.600000X1.600000*%
%ADD14O,1.600000X1.600000*%
%ADD15C,0.800000*%
%ADD16C,5.000000*%
%ADD17RoundRect,0.249999X0.450001X1.075001X-0.450001X1.075001X-0.450001X-1.075001X0.450001X-1.075001X0*%
%ADD18R,1.800000X1.800000*%
%ADD19C,1.800000*%
%ADD20O,1.800000X1.800000*%
G04 APERTURE END LIST*
D10*
%TO.C,J2*%
X8650000Y-3200000D03*
X11190000Y-3200000D03*
X13730000Y-3200000D03*
X16270000Y-3200000D03*
X18810000Y-3200000D03*
X21350000Y-3200000D03*
%TD*%
D11*
%TO.C,J1*%
X21350000Y-24000000D03*
D12*
X18810000Y-24000000D03*
X16270000Y-24000000D03*
X13730000Y-24000000D03*
X11190000Y-24000000D03*
X8650000Y-24000000D03*
%TD*%
D13*
%TO.C,U1*%
X28000000Y-19000000D03*
D14*
X28000000Y-16460000D03*
X28000000Y-13920000D03*
X20380000Y-13920000D03*
X20380000Y-16460000D03*
X20380000Y-19000000D03*
%TD*%
D15*
%TO.C,H3*%
X25125000Y-32000000D03*
X25674175Y-30674175D03*
X25674175Y-33325825D03*
X27000000Y-30125000D03*
D16*
X27000000Y-32000000D03*
D15*
X27000000Y-33875000D03*
X28325825Y-30674175D03*
X28325825Y-33325825D03*
X28875000Y-32000000D03*
%TD*%
%TO.C,H1*%
X1125000Y-3000000D03*
X1674175Y-1674175D03*
X1674175Y-4325825D03*
X3000000Y-1125000D03*
D16*
X3000000Y-3000000D03*
D15*
X3000000Y-4875000D03*
X4325825Y-1674175D03*
X4325825Y-4325825D03*
X4875000Y-3000000D03*
%TD*%
D17*
%TO.C,R2*%
X17000000Y-19500000D03*
X12200000Y-19500000D03*
%TD*%
D15*
%TO.C,H4*%
X1125000Y-32000000D03*
X1674175Y-30674175D03*
X1674175Y-33325825D03*
X3000000Y-30125000D03*
D16*
X3000000Y-32000000D03*
D15*
X3000000Y-33875000D03*
X4325825Y-30674175D03*
X4325825Y-33325825D03*
X4875000Y-32000000D03*
%TD*%
%TO.C,H2*%
X25125000Y-3000000D03*
X25674175Y-1674175D03*
X25674175Y-4325825D03*
X27000000Y-1125000D03*
D16*
X27000000Y-3000000D03*
D15*
X27000000Y-4875000D03*
X28325825Y-1674175D03*
X28325825Y-4325825D03*
X28875000Y-3000000D03*
%TD*%
D18*
%TO.C,D2*%
X2725000Y-14000000D03*
D19*
X5265000Y-14000000D03*
%TD*%
D18*
%TO.C,D1*%
X16810000Y-14500000D03*
D20*
X9190000Y-14500000D03*
%TD*%
M02*
