%TF.GenerationSoftware,KiCad,Pcbnew,7.0.7*%
%TF.CreationDate,2024-02-22T12:36:16+00:00*%
%TF.ProjectId,solenoidInterface_rev0,736f6c65-6e6f-4696-9449-6e7465726661,rev?*%
%TF.SameCoordinates,Original*%
%TF.FileFunction,Copper,L1,Top*%
%TF.FilePolarity,Positive*%
%FSLAX46Y46*%
G04 Gerber Fmt 4.6, Leading zero omitted, Abs format (unit mm)*
G04 Created by KiCad (PCBNEW 7.0.7) date 2024-02-22 12:36:16*
%MOMM*%
%LPD*%
G01*
G04 APERTURE LIST*
G04 Aperture macros list*
%AMRoundRect*
0 Rectangle with rounded corners*
0 $1 Rounding radius*
0 $2 $3 $4 $5 $6 $7 $8 $9 X,Y pos of 4 corners*
0 Add a 4 corners polygon primitive as box body*
4,1,4,$2,$3,$4,$5,$6,$7,$8,$9,$2,$3,0*
0 Add four circle primitives for the rounded corners*
1,1,$1+$1,$2,$3*
1,1,$1+$1,$4,$5*
1,1,$1+$1,$6,$7*
1,1,$1+$1,$8,$9*
0 Add four rect primitives between the rounded corners*
20,1,$1+$1,$2,$3,$4,$5,0*
20,1,$1+$1,$4,$5,$6,$7,0*
20,1,$1+$1,$6,$7,$8,$9,0*
20,1,$1+$1,$8,$9,$2,$3,0*%
G04 Aperture macros list end*
%TA.AperFunction,ComponentPad*%
%ADD10C,1.600000*%
%TD*%
%TA.AperFunction,ComponentPad*%
%ADD11R,1.700000X1.700000*%
%TD*%
%TA.AperFunction,ComponentPad*%
%ADD12O,1.700000X1.700000*%
%TD*%
%TA.AperFunction,ComponentPad*%
%ADD13R,1.600000X1.600000*%
%TD*%
%TA.AperFunction,ComponentPad*%
%ADD14O,1.600000X1.600000*%
%TD*%
%TA.AperFunction,ComponentPad*%
%ADD15C,0.800000*%
%TD*%
%TA.AperFunction,ComponentPad*%
%ADD16C,5.000000*%
%TD*%
%TA.AperFunction,SMDPad,CuDef*%
%ADD17RoundRect,0.249999X0.450001X1.075001X-0.450001X1.075001X-0.450001X-1.075001X0.450001X-1.075001X0*%
%TD*%
%TA.AperFunction,ComponentPad*%
%ADD18R,1.800000X1.800000*%
%TD*%
%TA.AperFunction,ComponentPad*%
%ADD19C,1.800000*%
%TD*%
%TA.AperFunction,ComponentPad*%
%ADD20O,1.800000X1.800000*%
%TD*%
%TA.AperFunction,Conductor*%
%ADD21C,0.500000*%
%TD*%
%TA.AperFunction,Conductor*%
%ADD22C,0.750000*%
%TD*%
%TA.AperFunction,Conductor*%
%ADD23C,1.500000*%
%TD*%
G04 APERTURE END LIST*
D10*
%TO.P,J2,1,Pin_1*%
%TO.N,statusLED-*%
X8650000Y-3200000D03*
%TO.P,J2,2,Pin_2*%
%TO.N,statusLED+*%
X11190000Y-3200000D03*
%TO.P,J2,3,Pin_3*%
%TO.N,solenoidStateReturn*%
X13730000Y-3200000D03*
%TO.P,J2,4,Pin_4*%
%TO.N,solenoidState_BUS*%
X16270000Y-3200000D03*
%TO.P,J2,5,Pin_5*%
%TO.N,24VDC_GND*%
X18810000Y-3200000D03*
%TO.P,J2,6,Pin_6*%
%TO.N,solenoid+*%
X21350000Y-3200000D03*
%TD*%
D11*
%TO.P,J1,1,Pin_1*%
%TO.N,24VDC_HOT*%
X21350000Y-24000000D03*
D12*
%TO.P,J1,2,Pin_2*%
%TO.N,24VDC_GND*%
X18810000Y-24000000D03*
%TO.P,J1,3,Pin_3*%
%TO.N,solenoidSignal*%
X16270000Y-24000000D03*
%TO.P,J1,4,Pin_4*%
%TO.N,arduino_GND*%
X13730000Y-24000000D03*
%TO.P,J1,5,Pin_5*%
%TO.N,solenoidState_BUS*%
X11190000Y-24000000D03*
%TO.P,J1,6,Pin_6*%
%TO.N,solenoidStateReturn*%
X8650000Y-24000000D03*
%TD*%
D13*
%TO.P,U1,1*%
%TO.N,solenoidSignal*%
X28000000Y-19000000D03*
D14*
%TO.P,U1,2*%
%TO.N,Net-(R1-Pad1)*%
X28000000Y-16460000D03*
%TO.P,U1,3*%
%TO.N,unconnected-(U1-Pad3)*%
X28000000Y-13920000D03*
%TO.P,U1,4*%
%TO.N,solenoid+*%
X20380000Y-13920000D03*
%TO.P,U1,5*%
%TO.N,unconnected-(U1-Pad5)*%
X20380000Y-16460000D03*
%TO.P,U1,6*%
%TO.N,24VDC_HOT*%
X20380000Y-19000000D03*
%TD*%
D15*
%TO.P,H3,1,1*%
%TO.N,24VDC_GND*%
X25125000Y-32000000D03*
X25674175Y-30674175D03*
X25674175Y-33325825D03*
X27000000Y-30125000D03*
D16*
X27000000Y-32000000D03*
D15*
X27000000Y-33875000D03*
X28325825Y-30674175D03*
X28325825Y-33325825D03*
X28875000Y-32000000D03*
%TD*%
%TO.P,H1,1,1*%
%TO.N,24VDC_GND*%
X1125000Y-3000000D03*
X1674175Y-1674175D03*
X1674175Y-4325825D03*
X3000000Y-1125000D03*
D16*
X3000000Y-3000000D03*
D15*
X3000000Y-4875000D03*
X4325825Y-1674175D03*
X4325825Y-4325825D03*
X4875000Y-3000000D03*
%TD*%
D17*
%TO.P,R2,1*%
%TO.N,solenoid+*%
X17000000Y-19500000D03*
%TO.P,R2,2*%
%TO.N,Net-(D1-K)*%
X12200000Y-19500000D03*
%TD*%
D15*
%TO.P,H4,1,1*%
%TO.N,24VDC_GND*%
X1125000Y-32000000D03*
X1674175Y-30674175D03*
X1674175Y-33325825D03*
X3000000Y-30125000D03*
D16*
X3000000Y-32000000D03*
D15*
X3000000Y-33875000D03*
X4325825Y-30674175D03*
X4325825Y-33325825D03*
X4875000Y-32000000D03*
%TD*%
%TO.P,H2,1,1*%
%TO.N,24VDC_GND*%
X25125000Y-3000000D03*
X25674175Y-1674175D03*
X25674175Y-4325825D03*
X27000000Y-1125000D03*
D16*
X27000000Y-3000000D03*
D15*
X27000000Y-4875000D03*
X28325825Y-1674175D03*
X28325825Y-4325825D03*
X28875000Y-3000000D03*
%TD*%
D18*
%TO.P,D2,1,K*%
%TO.N,statusLED-*%
X2725000Y-14000000D03*
D19*
%TO.P,D2,2,A*%
%TO.N,statusLED+*%
X5265000Y-14000000D03*
%TD*%
D18*
%TO.P,D1,1,K*%
%TO.N,Net-(D1-K)*%
X16810000Y-14500000D03*
D20*
%TO.P,D1,2,A*%
%TO.N,24VDC_GND*%
X9190000Y-14500000D03*
%TD*%
D21*
%TO.N,Net-(D1-K)*%
X12500000Y-17000000D02*
X12000000Y-17500000D01*
X15000000Y-17000000D02*
X12500000Y-17000000D01*
X16810000Y-15190000D02*
X15000000Y-17000000D01*
X12000000Y-19300000D02*
X12200000Y-19500000D01*
X16810000Y-14500000D02*
X16810000Y-15190000D01*
X12000000Y-17500000D02*
X12000000Y-19300000D01*
D22*
%TO.N,statusLED-*%
X8650000Y-6350000D02*
X8650000Y-3200000D01*
X2725000Y-12275000D02*
X8650000Y-6350000D01*
X2725000Y-14000000D02*
X2725000Y-12275000D01*
%TO.N,statusLED+*%
X11190000Y-5310000D02*
X11190000Y-3200000D01*
X5265000Y-14000000D02*
X5265000Y-11235000D01*
X5265000Y-11235000D02*
X11190000Y-5310000D01*
D23*
%TO.N,24VDC_HOT*%
X20380000Y-20880000D02*
X21350000Y-21850000D01*
X20380000Y-19000000D02*
X20380000Y-20880000D01*
X21350000Y-21850000D02*
X21350000Y-24000000D01*
D21*
%TO.N,solenoid+*%
X17000000Y-19500000D02*
X17000000Y-18000000D01*
D23*
X20380000Y-13920000D02*
X20380000Y-10620000D01*
D21*
X18500000Y-15800000D02*
X20380000Y-13920000D01*
D23*
X21350000Y-9650000D02*
X21350000Y-3200000D01*
D21*
X17000000Y-18000000D02*
X18500000Y-16500000D01*
X18500000Y-16500000D02*
X18500000Y-15800000D01*
D23*
X20380000Y-10620000D02*
X21350000Y-9650000D01*
%TD*%
%TA.AperFunction,Conductor*%
%TO.N,24VDC_GND*%
G36*
X25833444Y-20185D02*
G01*
X25879199Y-72989D01*
X25889143Y-142147D01*
X25860118Y-205703D01*
X25812673Y-238365D01*
X25813057Y-239255D01*
X25809739Y-240685D01*
X25497461Y-397519D01*
X25205485Y-589554D01*
X25062817Y-709264D01*
X25599034Y-1245481D01*
X25632519Y-1306804D01*
X25627535Y-1376496D01*
X25585663Y-1432429D01*
X25580245Y-1436263D01*
X25493935Y-1493934D01*
X25493934Y-1493935D01*
X25436263Y-1580245D01*
X25382651Y-1625049D01*
X25313326Y-1633756D01*
X25250299Y-1603601D01*
X25245481Y-1599034D01*
X24706148Y-1059701D01*
X24706146Y-1059701D01*
X24697973Y-1068366D01*
X24489289Y-1348677D01*
X24314561Y-1651316D01*
X24314555Y-1651329D01*
X24176145Y-1972199D01*
X24075916Y-2306988D01*
X24075914Y-2306997D01*
X24015236Y-2651119D01*
X24015235Y-2651130D01*
X23994916Y-2999996D01*
X23994916Y-3000003D01*
X24015235Y-3348869D01*
X24015236Y-3348880D01*
X24075914Y-3693002D01*
X24075916Y-3693011D01*
X24176145Y-4027800D01*
X24314555Y-4348670D01*
X24314561Y-4348683D01*
X24489289Y-4651322D01*
X24697972Y-4931631D01*
X24697976Y-4931636D01*
X24706147Y-4940297D01*
X24706148Y-4940298D01*
X25245481Y-4400964D01*
X25306804Y-4367479D01*
X25376495Y-4372463D01*
X25432429Y-4414334D01*
X25436264Y-4419754D01*
X25438679Y-4423369D01*
X25438680Y-4423370D01*
X25479953Y-4485139D01*
X25493935Y-4506065D01*
X25580243Y-4563734D01*
X25625049Y-4617346D01*
X25633756Y-4686671D01*
X25603602Y-4749698D01*
X25599034Y-4754517D01*
X25062817Y-5290733D01*
X25062818Y-5290734D01*
X25205480Y-5410442D01*
X25497461Y-5602480D01*
X25809739Y-5759314D01*
X25809745Y-5759316D01*
X26138130Y-5878838D01*
X26138133Y-5878839D01*
X26478171Y-5959429D01*
X26825276Y-5999999D01*
X26825277Y-6000000D01*
X27174723Y-6000000D01*
X27174723Y-5999999D01*
X27521827Y-5959429D01*
X27521829Y-5959429D01*
X27861866Y-5878839D01*
X27861869Y-5878838D01*
X28190254Y-5759316D01*
X28190260Y-5759314D01*
X28502538Y-5602480D01*
X28794515Y-5410445D01*
X28937180Y-5290734D01*
X28937181Y-5290733D01*
X28400965Y-4754517D01*
X28367480Y-4693194D01*
X28372464Y-4623502D01*
X28414336Y-4567569D01*
X28419756Y-4563733D01*
X28423366Y-4561320D01*
X28423370Y-4561320D01*
X28506065Y-4506065D01*
X28561320Y-4423370D01*
X28561320Y-4423368D01*
X28563735Y-4419755D01*
X28617347Y-4374950D01*
X28686672Y-4366243D01*
X28749699Y-4396397D01*
X28754518Y-4400965D01*
X29293850Y-4940297D01*
X29302032Y-4931625D01*
X29510710Y-4651322D01*
X29685438Y-4348683D01*
X29685444Y-4348670D01*
X29761641Y-4172027D01*
X29806269Y-4118267D01*
X29872877Y-4097169D01*
X29940318Y-4115431D01*
X29987179Y-4167255D01*
X29999500Y-4221141D01*
X29999500Y-30778858D01*
X29979815Y-30845897D01*
X29927011Y-30891652D01*
X29857853Y-30901596D01*
X29794297Y-30872571D01*
X29761641Y-30827972D01*
X29685444Y-30651329D01*
X29685438Y-30651316D01*
X29510710Y-30348677D01*
X29302029Y-30068371D01*
X29293850Y-30059701D01*
X29293850Y-30059700D01*
X28754517Y-30599034D01*
X28693194Y-30632519D01*
X28623502Y-30627535D01*
X28567569Y-30585663D01*
X28563734Y-30580243D01*
X28506065Y-30493935D01*
X28419754Y-30436264D01*
X28374949Y-30382652D01*
X28366242Y-30313327D01*
X28396396Y-30250299D01*
X28400964Y-30245481D01*
X28937181Y-29709265D01*
X28937180Y-29709264D01*
X28794519Y-29589557D01*
X28502538Y-29397519D01*
X28190260Y-29240685D01*
X28190254Y-29240683D01*
X27861869Y-29121161D01*
X27861866Y-29121160D01*
X27521828Y-29040570D01*
X27174723Y-29000000D01*
X26825277Y-29000000D01*
X26478172Y-29040570D01*
X26478170Y-29040570D01*
X26138133Y-29121160D01*
X26138130Y-29121161D01*
X25809745Y-29240683D01*
X25809739Y-29240685D01*
X25497461Y-29397519D01*
X25205485Y-29589554D01*
X25062817Y-29709264D01*
X25599034Y-30245481D01*
X25632519Y-30306804D01*
X25627535Y-30376496D01*
X25585663Y-30432429D01*
X25580245Y-30436263D01*
X25493935Y-30493934D01*
X25493934Y-30493935D01*
X25436263Y-30580245D01*
X25382651Y-30625049D01*
X25313326Y-30633756D01*
X25250299Y-30603601D01*
X25245481Y-30599034D01*
X24706148Y-30059701D01*
X24706146Y-30059701D01*
X24697973Y-30068366D01*
X24489289Y-30348677D01*
X24314561Y-30651316D01*
X24314555Y-30651329D01*
X24176145Y-30972199D01*
X24075916Y-31306988D01*
X24075914Y-31306997D01*
X24015236Y-31651119D01*
X24015235Y-31651130D01*
X23994916Y-31999996D01*
X23994916Y-32000003D01*
X24015235Y-32348869D01*
X24015236Y-32348880D01*
X24075914Y-32693002D01*
X24075916Y-32693011D01*
X24176145Y-33027800D01*
X24314555Y-33348670D01*
X24314561Y-33348683D01*
X24489289Y-33651322D01*
X24697972Y-33931631D01*
X24697976Y-33931636D01*
X24706147Y-33940297D01*
X24706148Y-33940298D01*
X25245481Y-33400964D01*
X25306804Y-33367479D01*
X25376495Y-33372463D01*
X25432429Y-33414334D01*
X25436264Y-33419754D01*
X25493935Y-33506065D01*
X25580243Y-33563734D01*
X25625049Y-33617346D01*
X25633756Y-33686671D01*
X25603602Y-33749698D01*
X25599034Y-33754517D01*
X25062817Y-34290733D01*
X25062818Y-34290734D01*
X25205480Y-34410442D01*
X25497461Y-34602480D01*
X25809739Y-34759314D01*
X25813057Y-34760745D01*
X25812612Y-34761774D01*
X25865079Y-34800404D01*
X25890015Y-34865673D01*
X25875705Y-34934062D01*
X25826694Y-34983857D01*
X25766405Y-34999500D01*
X4233595Y-34999500D01*
X4166556Y-34979815D01*
X4120801Y-34927011D01*
X4110857Y-34857853D01*
X4139882Y-34794297D01*
X4187326Y-34761634D01*
X4186943Y-34760745D01*
X4190260Y-34759314D01*
X4502538Y-34602480D01*
X4794515Y-34410445D01*
X4937180Y-34290734D01*
X4937181Y-34290733D01*
X4400965Y-33754517D01*
X4367480Y-33693194D01*
X4372464Y-33623502D01*
X4414336Y-33567569D01*
X4419756Y-33563733D01*
X4423366Y-33561320D01*
X4423370Y-33561320D01*
X4506065Y-33506065D01*
X4561320Y-33423370D01*
X4561320Y-33423368D01*
X4563735Y-33419755D01*
X4617347Y-33374950D01*
X4686672Y-33366243D01*
X4749699Y-33396397D01*
X4754518Y-33400965D01*
X5293850Y-33940297D01*
X5302032Y-33931625D01*
X5510710Y-33651322D01*
X5685438Y-33348683D01*
X5685444Y-33348670D01*
X5823854Y-33027800D01*
X5924083Y-32693011D01*
X5924085Y-32693002D01*
X5984763Y-32348880D01*
X5984764Y-32348869D01*
X6005084Y-32000003D01*
X6005084Y-31999996D01*
X5984764Y-31651130D01*
X5984763Y-31651119D01*
X5924085Y-31306997D01*
X5924083Y-31306988D01*
X5823854Y-30972199D01*
X5685444Y-30651329D01*
X5685438Y-30651316D01*
X5510710Y-30348677D01*
X5302029Y-30068371D01*
X5293850Y-30059701D01*
X5293850Y-30059700D01*
X4754517Y-30599034D01*
X4693194Y-30632519D01*
X4623502Y-30627535D01*
X4567569Y-30585663D01*
X4563734Y-30580243D01*
X4506065Y-30493935D01*
X4419754Y-30436264D01*
X4374949Y-30382652D01*
X4366242Y-30313327D01*
X4396396Y-30250299D01*
X4400964Y-30245481D01*
X4937181Y-29709265D01*
X4937180Y-29709264D01*
X4794519Y-29589557D01*
X4502538Y-29397519D01*
X4190260Y-29240685D01*
X4190254Y-29240683D01*
X3861869Y-29121161D01*
X3861866Y-29121160D01*
X3521828Y-29040570D01*
X3174723Y-29000000D01*
X2825277Y-29000000D01*
X2478172Y-29040570D01*
X2478170Y-29040570D01*
X2138133Y-29121160D01*
X2138130Y-29121161D01*
X1809745Y-29240683D01*
X1809739Y-29240685D01*
X1497461Y-29397519D01*
X1205485Y-29589554D01*
X1062817Y-29709264D01*
X1599034Y-30245481D01*
X1632519Y-30306804D01*
X1627535Y-30376496D01*
X1585663Y-30432429D01*
X1580245Y-30436263D01*
X1493935Y-30493934D01*
X1493934Y-30493935D01*
X1436263Y-30580245D01*
X1382651Y-30625049D01*
X1313326Y-30633756D01*
X1250299Y-30603601D01*
X1245481Y-30599034D01*
X706148Y-30059701D01*
X706146Y-30059701D01*
X697973Y-30068366D01*
X489289Y-30348677D01*
X314561Y-30651316D01*
X314555Y-30651329D01*
X238359Y-30827972D01*
X193731Y-30881732D01*
X127123Y-30902830D01*
X59682Y-30884568D01*
X12821Y-30832744D01*
X500Y-30778858D01*
X500Y-14947870D01*
X1324500Y-14947870D01*
X1324501Y-14947876D01*
X1330908Y-15007483D01*
X1381202Y-15142328D01*
X1381206Y-15142335D01*
X1467452Y-15257544D01*
X1467455Y-15257547D01*
X1582664Y-15343793D01*
X1582671Y-15343797D01*
X1717517Y-15394091D01*
X1717516Y-15394091D01*
X1724444Y-15394835D01*
X1777127Y-15400500D01*
X3672872Y-15400499D01*
X3732483Y-15394091D01*
X3867331Y-15343796D01*
X3982546Y-15257546D01*
X4068796Y-15142331D01*
X4076329Y-15122135D01*
X4097455Y-15065493D01*
X4139326Y-15009559D01*
X4204790Y-14985141D01*
X4273063Y-14999992D01*
X4304866Y-15024843D01*
X4312302Y-15032920D01*
X4313215Y-15033912D01*
X4313222Y-15033918D01*
X4496365Y-15176464D01*
X4496371Y-15176468D01*
X4496374Y-15176470D01*
X4700497Y-15286936D01*
X4745487Y-15302381D01*
X4920015Y-15362297D01*
X4920017Y-15362297D01*
X4920019Y-15362298D01*
X5148951Y-15400500D01*
X5148952Y-15400500D01*
X5381048Y-15400500D01*
X5381049Y-15400500D01*
X5609981Y-15362298D01*
X5829503Y-15286936D01*
X6033626Y-15176470D01*
X6216784Y-15033913D01*
X6373979Y-14863153D01*
X6447905Y-14750000D01*
X7809117Y-14750000D01*
X7861317Y-14956135D01*
X7954516Y-15168609D01*
X8081414Y-15362842D01*
X8238558Y-15533545D01*
X8238562Y-15533548D01*
X8421644Y-15676047D01*
X8421648Y-15676050D01*
X8625697Y-15786476D01*
X8625706Y-15786479D01*
X8845139Y-15861811D01*
X8939999Y-15877640D01*
X8940000Y-15877639D01*
X8940000Y-15061821D01*
X8959685Y-14994782D01*
X9012489Y-14949027D01*
X9081647Y-14939083D01*
X9100547Y-14943329D01*
X9122173Y-14950000D01*
X9223723Y-14950000D01*
X9223724Y-14950000D01*
X9297519Y-14938877D01*
X9366742Y-14948350D01*
X9419857Y-14993744D01*
X9439997Y-15060648D01*
X9440000Y-15061492D01*
X9440000Y-15877640D01*
X9534860Y-15861811D01*
X9754293Y-15786479D01*
X9754302Y-15786476D01*
X9958351Y-15676050D01*
X9958355Y-15676047D01*
X10141437Y-15533548D01*
X10141441Y-15533545D01*
X10298585Y-15362842D01*
X10425483Y-15168609D01*
X10518682Y-14956135D01*
X10570883Y-14750000D01*
X9750003Y-14750000D01*
X9682964Y-14730315D01*
X9637209Y-14677511D01*
X9627265Y-14608353D01*
X9629112Y-14598408D01*
X9643810Y-14534007D01*
X9643810Y-14534006D01*
X9632979Y-14389468D01*
X9635079Y-14389310D01*
X9638595Y-14331861D01*
X9679890Y-14275501D01*
X9745101Y-14250413D01*
X9755216Y-14250000D01*
X10570883Y-14250000D01*
X10518682Y-14043864D01*
X10425483Y-13831390D01*
X10298585Y-13637157D01*
X10141441Y-13466454D01*
X10141437Y-13466451D01*
X9958355Y-13323952D01*
X9958351Y-13323949D01*
X9754302Y-13213523D01*
X9754293Y-13213520D01*
X9534861Y-13138188D01*
X9440000Y-13122359D01*
X9440000Y-13938178D01*
X9420315Y-14005217D01*
X9367511Y-14050972D01*
X9298353Y-14060916D01*
X9279454Y-14056670D01*
X9257829Y-14050000D01*
X9257827Y-14050000D01*
X9156276Y-14050000D01*
X9156268Y-14050000D01*
X9082481Y-14061122D01*
X9013256Y-14051649D01*
X8960143Y-14006254D01*
X8940003Y-13939350D01*
X8940000Y-13938507D01*
X8940000Y-13122359D01*
X8939999Y-13122359D01*
X8845138Y-13138188D01*
X8625706Y-13213520D01*
X8625697Y-13213523D01*
X8421648Y-13323949D01*
X8421644Y-13323952D01*
X8238562Y-13466451D01*
X8238558Y-13466454D01*
X8081414Y-13637157D01*
X7954516Y-13831390D01*
X7861317Y-14043864D01*
X7809117Y-14250000D01*
X8629997Y-14250000D01*
X8697036Y-14269685D01*
X8742791Y-14322489D01*
X8752735Y-14391647D01*
X8750888Y-14401592D01*
X8736189Y-14465992D01*
X8736189Y-14465993D01*
X8747021Y-14610532D01*
X8744920Y-14610689D01*
X8741405Y-14668139D01*
X8700110Y-14724499D01*
X8634899Y-14749587D01*
X8624784Y-14750000D01*
X7809117Y-14750000D01*
X6447905Y-14750000D01*
X6500924Y-14668849D01*
X6594157Y-14456300D01*
X6651134Y-14231305D01*
X6664903Y-14065135D01*
X6670300Y-14000006D01*
X6670300Y-13999993D01*
X6651135Y-13768702D01*
X6651133Y-13768691D01*
X6594157Y-13543699D01*
X6500924Y-13331151D01*
X6373983Y-13136852D01*
X6373980Y-13136849D01*
X6373979Y-13136847D01*
X6216784Y-12966087D01*
X6214156Y-12964041D01*
X6188336Y-12943944D01*
X6147524Y-12887233D01*
X6140500Y-12846092D01*
X6140500Y-11649005D01*
X6160185Y-11581966D01*
X6176814Y-11561329D01*
X11782142Y-5956000D01*
X11785810Y-5952618D01*
X11829357Y-5915631D01*
X11879808Y-5849262D01*
X11932030Y-5784297D01*
X11932109Y-5784138D01*
X11944489Y-5764177D01*
X11944602Y-5764029D01*
X11946783Y-5759316D01*
X11979610Y-5688359D01*
X12016641Y-5613693D01*
X12016685Y-5613514D01*
X12024484Y-5591363D01*
X12024562Y-5591197D01*
X12042484Y-5509775D01*
X12062600Y-5428890D01*
X12062604Y-5428714D01*
X12065461Y-5405391D01*
X12065500Y-5405216D01*
X12065500Y-5321840D01*
X12067757Y-5238527D01*
X12067720Y-5238334D01*
X12065500Y-5214975D01*
X12065500Y-4215048D01*
X12085185Y-4148009D01*
X12101814Y-4127371D01*
X12190047Y-4039139D01*
X12320568Y-3852734D01*
X12347619Y-3794721D01*
X12393788Y-3742286D01*
X12460981Y-3723133D01*
X12527862Y-3743348D01*
X12572380Y-3794722D01*
X12599432Y-3852734D01*
X12649546Y-3924305D01*
X12729954Y-4039141D01*
X12890858Y-4200045D01*
X12890861Y-4200047D01*
X13077266Y-4330568D01*
X13283504Y-4426739D01*
X13503308Y-4485635D01*
X13665230Y-4499801D01*
X13729998Y-4505468D01*
X13730000Y-4505468D01*
X13730002Y-4505468D01*
X13786672Y-4500509D01*
X13956692Y-4485635D01*
X14176496Y-4426739D01*
X14382734Y-4330568D01*
X14569139Y-4200047D01*
X14730047Y-4039139D01*
X14860568Y-3852734D01*
X14887618Y-3794724D01*
X14933790Y-3742285D01*
X15000983Y-3723133D01*
X15067865Y-3743348D01*
X15112382Y-3794725D01*
X15139429Y-3852728D01*
X15139432Y-3852734D01*
X15269954Y-4039141D01*
X15430858Y-4200045D01*
X15430861Y-4200047D01*
X15617266Y-4330568D01*
X15823504Y-4426739D01*
X16043308Y-4485635D01*
X16205230Y-4499801D01*
X16269998Y-4505468D01*
X16270000Y-4505468D01*
X16270002Y-4505468D01*
X16326672Y-4500509D01*
X16496692Y-4485635D01*
X16716496Y-4426739D01*
X16922734Y-4330568D01*
X17109139Y-4200047D01*
X17270047Y-4039139D01*
X17400568Y-3852734D01*
X17427895Y-3794129D01*
X17474064Y-3741695D01*
X17541257Y-3722542D01*
X17608139Y-3742757D01*
X17652657Y-3794133D01*
X17679865Y-3852481D01*
X17679866Y-3852483D01*
X17730973Y-3925471D01*
X17730973Y-3925472D01*
X18161481Y-3494963D01*
X18222804Y-3461478D01*
X18292495Y-3466462D01*
X18348429Y-3508333D01*
X18351514Y-3513249D01*
X18351549Y-3513225D01*
X18356441Y-3520156D01*
X18426089Y-3594730D01*
X18459638Y-3630652D01*
X18494698Y-3651973D01*
X18541749Y-3703623D01*
X18553407Y-3772513D01*
X18525970Y-3836770D01*
X18517950Y-3845601D01*
X18084526Y-4279025D01*
X18084526Y-4279026D01*
X18157512Y-4330131D01*
X18157516Y-4330133D01*
X18363673Y-4426265D01*
X18363682Y-4426269D01*
X18583389Y-4485139D01*
X18583400Y-4485141D01*
X18809998Y-4504966D01*
X18810002Y-4504966D01*
X19036599Y-4485141D01*
X19036610Y-4485139D01*
X19256317Y-4426269D01*
X19256331Y-4426264D01*
X19462478Y-4330136D01*
X19535472Y-4279025D01*
X19103165Y-3846719D01*
X19069680Y-3785396D01*
X19074664Y-3715705D01*
X19112589Y-3662852D01*
X19215739Y-3578934D01*
X19266052Y-3507655D01*
X19320793Y-3464239D01*
X19390318Y-3457309D01*
X19452553Y-3489067D01*
X19455037Y-3491483D01*
X19889025Y-3925472D01*
X19902363Y-3924305D01*
X19928501Y-3903413D01*
X19997999Y-3896219D01*
X20060354Y-3927741D01*
X20095769Y-3987971D01*
X20099500Y-4018161D01*
X20099500Y-9080663D01*
X20079815Y-9147702D01*
X20063181Y-9168344D01*
X19547885Y-9683639D01*
X19542699Y-9688274D01*
X19512337Y-9712488D01*
X19512333Y-9712492D01*
X19467365Y-9763960D01*
X19464521Y-9767003D01*
X19456064Y-9775461D01*
X19456054Y-9775472D01*
X19429049Y-9807818D01*
X19364234Y-9882004D01*
X19364230Y-9882010D01*
X19361981Y-9885774D01*
X19350746Y-9901608D01*
X19347934Y-9904977D01*
X19347932Y-9904981D01*
X19299316Y-9990659D01*
X19271321Y-10037514D01*
X19248783Y-10075238D01*
X19247247Y-10079332D01*
X19239008Y-10096945D01*
X19236850Y-10100747D01*
X19236846Y-10100757D01*
X19204307Y-10193746D01*
X19169694Y-10285970D01*
X19169689Y-10285988D01*
X19168909Y-10290288D01*
X19163952Y-10309069D01*
X19162503Y-10313209D01*
X19162502Y-10313215D01*
X19147089Y-10410527D01*
X19129500Y-10507448D01*
X19129500Y-10511827D01*
X19127973Y-10531229D01*
X19127289Y-10535540D01*
X19129500Y-10634021D01*
X19129500Y-13545856D01*
X19125275Y-13577949D01*
X19094366Y-13693302D01*
X19094364Y-13693313D01*
X19074532Y-13919998D01*
X19074532Y-13920003D01*
X19089129Y-14086861D01*
X19075362Y-14155360D01*
X19053282Y-14185348D01*
X18422180Y-14816451D01*
X18360857Y-14849936D01*
X18291166Y-14844952D01*
X18235232Y-14803081D01*
X18210815Y-14737616D01*
X18210499Y-14728770D01*
X18210499Y-13552129D01*
X18210498Y-13552123D01*
X18210497Y-13552116D01*
X18204091Y-13492517D01*
X18197002Y-13473511D01*
X18153797Y-13357671D01*
X18153793Y-13357664D01*
X18067547Y-13242455D01*
X18067544Y-13242452D01*
X17952335Y-13156206D01*
X17952328Y-13156202D01*
X17817482Y-13105908D01*
X17817483Y-13105908D01*
X17757883Y-13099501D01*
X17757881Y-13099500D01*
X17757873Y-13099500D01*
X17757864Y-13099500D01*
X15862129Y-13099500D01*
X15862123Y-13099501D01*
X15802516Y-13105908D01*
X15667671Y-13156202D01*
X15667664Y-13156206D01*
X15552455Y-13242452D01*
X15552452Y-13242455D01*
X15466206Y-13357664D01*
X15466202Y-13357671D01*
X15415908Y-13492517D01*
X15410406Y-13543699D01*
X15409501Y-13552123D01*
X15409500Y-13552135D01*
X15409500Y-15447870D01*
X15409501Y-15447883D01*
X15411047Y-15462262D01*
X15398639Y-15531021D01*
X15375438Y-15563193D01*
X14725451Y-16213181D01*
X14664128Y-16246666D01*
X14637770Y-16249500D01*
X12563705Y-16249500D01*
X12545735Y-16248191D01*
X12521972Y-16244710D01*
X12476533Y-16248686D01*
X12469931Y-16249264D01*
X12464530Y-16249500D01*
X12456289Y-16249500D01*
X12434579Y-16252037D01*
X12423724Y-16253306D01*
X12408419Y-16254645D01*
X12347199Y-16260001D01*
X12340132Y-16261460D01*
X12340120Y-16261404D01*
X12332763Y-16263035D01*
X12332777Y-16263092D01*
X12325743Y-16264759D01*
X12253575Y-16291025D01*
X12180675Y-16315181D01*
X12174126Y-16318236D01*
X12174101Y-16318183D01*
X12167308Y-16321471D01*
X12167334Y-16321523D01*
X12160880Y-16324764D01*
X12096708Y-16366971D01*
X12031347Y-16407285D01*
X12025683Y-16411765D01*
X12025647Y-16411719D01*
X12019798Y-16416484D01*
X12019835Y-16416528D01*
X12014310Y-16421164D01*
X11961599Y-16477033D01*
X11514358Y-16924272D01*
X11500729Y-16936051D01*
X11481468Y-16950390D01*
X11447898Y-16990397D01*
X11444253Y-16994376D01*
X11438409Y-17000222D01*
X11418059Y-17025959D01*
X11368695Y-17084789D01*
X11364729Y-17090819D01*
X11364682Y-17090788D01*
X11360630Y-17097147D01*
X11360679Y-17097177D01*
X11356889Y-17103321D01*
X11324424Y-17172941D01*
X11289960Y-17241566D01*
X11287488Y-17248357D01*
X11287432Y-17248336D01*
X11284960Y-17255450D01*
X11285015Y-17255469D01*
X11282742Y-17262327D01*
X11275142Y-17299139D01*
X11267207Y-17337565D01*
X11254001Y-17393284D01*
X11249498Y-17412286D01*
X11248661Y-17419454D01*
X11248601Y-17419447D01*
X11247835Y-17426945D01*
X11247895Y-17426951D01*
X11247265Y-17434140D01*
X11249500Y-17510916D01*
X11249500Y-17812768D01*
X11229815Y-17879807D01*
X11213183Y-17900448D01*
X11157287Y-17956344D01*
X11065187Y-18105662D01*
X11065185Y-18105667D01*
X11049791Y-18152123D01*
X11010001Y-18272202D01*
X11010001Y-18272203D01*
X11010000Y-18272203D01*
X10999500Y-18374982D01*
X10999500Y-20625017D01*
X11010000Y-20727796D01*
X11065185Y-20894332D01*
X11065187Y-20894337D01*
X11083598Y-20924186D01*
X11157288Y-21043656D01*
X11281344Y-21167712D01*
X11430665Y-21259814D01*
X11597202Y-21314999D01*
X11699990Y-21325500D01*
X11699995Y-21325500D01*
X12700005Y-21325500D01*
X12700010Y-21325500D01*
X12802798Y-21314999D01*
X12969335Y-21259814D01*
X13118656Y-21167712D01*
X13242712Y-21043656D01*
X13334814Y-20894335D01*
X13389999Y-20727798D01*
X13400500Y-20625010D01*
X13400500Y-18374990D01*
X13389999Y-18272202D01*
X13334814Y-18105665D01*
X13242712Y-17956344D01*
X13242708Y-17956340D01*
X13238812Y-17951413D01*
X13212671Y-17886618D01*
X13225710Y-17817975D01*
X13273789Y-17767279D01*
X13336077Y-17750500D01*
X14936295Y-17750500D01*
X14954265Y-17751809D01*
X14978023Y-17755289D01*
X15030068Y-17750735D01*
X15035470Y-17750500D01*
X15043704Y-17750500D01*
X15043709Y-17750500D01*
X15055327Y-17749141D01*
X15076276Y-17746693D01*
X15089028Y-17745577D01*
X15152797Y-17739999D01*
X15152805Y-17739996D01*
X15159866Y-17738539D01*
X15159878Y-17738598D01*
X15167243Y-17736965D01*
X15167229Y-17736906D01*
X15174246Y-17735241D01*
X15174255Y-17735241D01*
X15246423Y-17708974D01*
X15319334Y-17684814D01*
X15319343Y-17684807D01*
X15325882Y-17681760D01*
X15325908Y-17681816D01*
X15332690Y-17678532D01*
X15332663Y-17678478D01*
X15339106Y-17675240D01*
X15339117Y-17675237D01*
X15403283Y-17633034D01*
X15468656Y-17592712D01*
X15468662Y-17592705D01*
X15474325Y-17588229D01*
X15474362Y-17588277D01*
X15480204Y-17583518D01*
X15480164Y-17583471D01*
X15485691Y-17578832D01*
X15485696Y-17578830D01*
X15514612Y-17548181D01*
X15538386Y-17522981D01*
X17124548Y-15936818D01*
X17185871Y-15903333D01*
X17212229Y-15900499D01*
X17625500Y-15900499D01*
X17692539Y-15920184D01*
X17738294Y-15972988D01*
X17749500Y-16024499D01*
X17749500Y-16137769D01*
X17729815Y-16204808D01*
X17713181Y-16225450D01*
X16514358Y-17424272D01*
X16500729Y-17436051D01*
X16481468Y-17450390D01*
X16447898Y-17490397D01*
X16444253Y-17494376D01*
X16438409Y-17500222D01*
X16418059Y-17525959D01*
X16368695Y-17584789D01*
X16364729Y-17590819D01*
X16364682Y-17590788D01*
X16360630Y-17597147D01*
X16360679Y-17597177D01*
X16356891Y-17603317D01*
X16343034Y-17633034D01*
X16327076Y-17667253D01*
X16280905Y-17719691D01*
X16253704Y-17732551D01*
X16230665Y-17740185D01*
X16081342Y-17832289D01*
X15957289Y-17956342D01*
X15865187Y-18105662D01*
X15865185Y-18105667D01*
X15849791Y-18152123D01*
X15810001Y-18272202D01*
X15810001Y-18272203D01*
X15810000Y-18272203D01*
X15799500Y-18374982D01*
X15799500Y-20625017D01*
X15810000Y-20727796D01*
X15865185Y-20894332D01*
X15865187Y-20894337D01*
X15883598Y-20924186D01*
X15957288Y-21043656D01*
X16081344Y-21167712D01*
X16230665Y-21259814D01*
X16397202Y-21314999D01*
X16499990Y-21325500D01*
X16499995Y-21325500D01*
X17500005Y-21325500D01*
X17500010Y-21325500D01*
X17602798Y-21314999D01*
X17769335Y-21259814D01*
X17918656Y-21167712D01*
X18042712Y-21043656D01*
X18134814Y-20894335D01*
X18189999Y-20727798D01*
X18200500Y-20625010D01*
X18200500Y-18374990D01*
X18189999Y-18272202D01*
X18134814Y-18105665D01*
X18134810Y-18105658D01*
X18117954Y-18078330D01*
X18099514Y-18010938D01*
X18120437Y-17944274D01*
X18135807Y-17925558D01*
X18985638Y-17075727D01*
X18999267Y-17063950D01*
X19018530Y-17049610D01*
X19022912Y-17044386D01*
X19081080Y-17005681D01*
X19150941Y-17004567D01*
X19210314Y-17041400D01*
X19230287Y-17071678D01*
X19239213Y-17090819D01*
X19249431Y-17112732D01*
X19249432Y-17112734D01*
X19379954Y-17299141D01*
X19540858Y-17460045D01*
X19580914Y-17488092D01*
X19727266Y-17590568D01*
X19785275Y-17617618D01*
X19837714Y-17663791D01*
X19856866Y-17730984D01*
X19836650Y-17797865D01*
X19785275Y-17842381D01*
X19785118Y-17842455D01*
X19727267Y-17869431D01*
X19727265Y-17869432D01*
X19540858Y-17999954D01*
X19379954Y-18160858D01*
X19249432Y-18347265D01*
X19249431Y-18347267D01*
X19153261Y-18553502D01*
X19153258Y-18553511D01*
X19094366Y-18773302D01*
X19094364Y-18773313D01*
X19074532Y-18999998D01*
X19074532Y-19000000D01*
X19094365Y-19226692D01*
X19125275Y-19342052D01*
X19129500Y-19374142D01*
X19129500Y-20806293D01*
X19129110Y-20813231D01*
X19126792Y-20833804D01*
X19124762Y-20851823D01*
X19124761Y-20851831D01*
X19129359Y-20920013D01*
X19129500Y-20924186D01*
X19129500Y-20936156D01*
X19133277Y-20978124D01*
X19139903Y-21076407D01*
X19139903Y-21076412D01*
X19140972Y-21080652D01*
X19144230Y-21099824D01*
X19144623Y-21104190D01*
X19170835Y-21199165D01*
X19194903Y-21294681D01*
X19196715Y-21298670D01*
X19203340Y-21316944D01*
X19204504Y-21321162D01*
X19204507Y-21321170D01*
X19247253Y-21409935D01*
X19287993Y-21499626D01*
X19287994Y-21499629D01*
X19290483Y-21503221D01*
X19300269Y-21520026D01*
X19302166Y-21523965D01*
X19302174Y-21523979D01*
X19360078Y-21603676D01*
X19416180Y-21684655D01*
X19419273Y-21687748D01*
X19431907Y-21702539D01*
X19434478Y-21706078D01*
X19434481Y-21706081D01*
X19505677Y-21774151D01*
X20063181Y-22331655D01*
X20096666Y-22392978D01*
X20099500Y-22419336D01*
X20099500Y-22808561D01*
X20079815Y-22875600D01*
X20074767Y-22882872D01*
X20056204Y-22907668D01*
X20056202Y-22907671D01*
X20005908Y-23042517D01*
X19999501Y-23102116D01*
X19999501Y-23102123D01*
X19999500Y-23102135D01*
X19999500Y-23112689D01*
X19979815Y-23179728D01*
X19963181Y-23200370D01*
X19418949Y-23744602D01*
X19357626Y-23778087D01*
X19287934Y-23773103D01*
X19232001Y-23731231D01*
X19226953Y-23723961D01*
X19191761Y-23669202D01*
X19076398Y-23569241D01*
X19078708Y-23566574D01*
X19044005Y-23526528D01*
X19034058Y-23457370D01*
X19063080Y-23393813D01*
X19069116Y-23387330D01*
X19571373Y-22885073D01*
X19571373Y-22885072D01*
X19487583Y-22826402D01*
X19487579Y-22826400D01*
X19273492Y-22726570D01*
X19273483Y-22726566D01*
X19045326Y-22665432D01*
X19045315Y-22665430D01*
X18810002Y-22644843D01*
X18809998Y-22644843D01*
X18574684Y-22665430D01*
X18574673Y-22665432D01*
X18346516Y-22726566D01*
X18346507Y-22726570D01*
X18132419Y-22826401D01*
X18048625Y-22885072D01*
X18550883Y-23387330D01*
X18584368Y-23448653D01*
X18579384Y-23518345D01*
X18542357Y-23567805D01*
X18543602Y-23569241D01*
X18428238Y-23669202D01*
X18393046Y-23723962D01*
X18340242Y-23769717D01*
X18271083Y-23779660D01*
X18207528Y-23750634D01*
X18201050Y-23744603D01*
X17695073Y-23238626D01*
X17641881Y-23314594D01*
X17587304Y-23358219D01*
X17517806Y-23365413D01*
X17455451Y-23333891D01*
X17438730Y-23314594D01*
X17308494Y-23128597D01*
X17141402Y-22961506D01*
X17141395Y-22961501D01*
X16947834Y-22825967D01*
X16947830Y-22825965D01*
X16947829Y-22825964D01*
X16733663Y-22726097D01*
X16733659Y-22726096D01*
X16733655Y-22726094D01*
X16505413Y-22664938D01*
X16505403Y-22664936D01*
X16270001Y-22644341D01*
X16269999Y-22644341D01*
X16034596Y-22664936D01*
X16034586Y-22664938D01*
X15806344Y-22726094D01*
X15806335Y-22726098D01*
X15592171Y-22825964D01*
X15592169Y-22825965D01*
X15398597Y-22961505D01*
X15231505Y-23128597D01*
X15101575Y-23314158D01*
X15046998Y-23357783D01*
X14977500Y-23364977D01*
X14915145Y-23333454D01*
X14898425Y-23314158D01*
X14768494Y-23128597D01*
X14601402Y-22961506D01*
X14601395Y-22961501D01*
X14407834Y-22825967D01*
X14407830Y-22825965D01*
X14407829Y-22825964D01*
X14193663Y-22726097D01*
X14193659Y-22726096D01*
X14193655Y-22726094D01*
X13965413Y-22664938D01*
X13965403Y-22664936D01*
X13730001Y-22644341D01*
X13729999Y-22644341D01*
X13494596Y-22664936D01*
X13494586Y-22664938D01*
X13266344Y-22726094D01*
X13266335Y-22726098D01*
X13052171Y-22825964D01*
X13052169Y-22825965D01*
X12858597Y-22961505D01*
X12691505Y-23128597D01*
X12561575Y-23314158D01*
X12506998Y-23357783D01*
X12437500Y-23364977D01*
X12375145Y-23333454D01*
X12358425Y-23314158D01*
X12228494Y-23128597D01*
X12061402Y-22961506D01*
X12061395Y-22961501D01*
X11867834Y-22825967D01*
X11867830Y-22825965D01*
X11867830Y-22825964D01*
X11653663Y-22726097D01*
X11653659Y-22726096D01*
X11653655Y-22726094D01*
X11425413Y-22664938D01*
X11425403Y-22664936D01*
X11190001Y-22644341D01*
X11189999Y-22644341D01*
X10954596Y-22664936D01*
X10954586Y-22664938D01*
X10726344Y-22726094D01*
X10726335Y-22726098D01*
X10512171Y-22825964D01*
X10512169Y-22825965D01*
X10318597Y-22961505D01*
X10151505Y-23128597D01*
X10021575Y-23314158D01*
X9966998Y-23357783D01*
X9897500Y-23364977D01*
X9835145Y-23333454D01*
X9818425Y-23314158D01*
X9688494Y-23128597D01*
X9521402Y-22961506D01*
X9521395Y-22961501D01*
X9327834Y-22825967D01*
X9327830Y-22825965D01*
X9327830Y-22825964D01*
X9113663Y-22726097D01*
X9113659Y-22726096D01*
X9113655Y-22726094D01*
X8885413Y-22664938D01*
X8885403Y-22664936D01*
X8650001Y-22644341D01*
X8649999Y-22644341D01*
X8414596Y-22664936D01*
X8414586Y-22664938D01*
X8186344Y-22726094D01*
X8186335Y-22726098D01*
X7972171Y-22825964D01*
X7972169Y-22825965D01*
X7778597Y-22961505D01*
X7611505Y-23128597D01*
X7475965Y-23322169D01*
X7475964Y-23322171D01*
X7376098Y-23536335D01*
X7376094Y-23536344D01*
X7314938Y-23764586D01*
X7314936Y-23764596D01*
X7294341Y-23999999D01*
X7294341Y-24000000D01*
X7314936Y-24235403D01*
X7314938Y-24235413D01*
X7376094Y-24463655D01*
X7376096Y-24463659D01*
X7376097Y-24463663D01*
X7442568Y-24606210D01*
X7475965Y-24677830D01*
X7475967Y-24677834D01*
X7584281Y-24832521D01*
X7611505Y-24871401D01*
X7778599Y-25038495D01*
X7875384Y-25106264D01*
X7972165Y-25174032D01*
X7972167Y-25174033D01*
X7972170Y-25174035D01*
X8186337Y-25273903D01*
X8414592Y-25335063D01*
X8591034Y-25350500D01*
X8649999Y-25355659D01*
X8650000Y-25355659D01*
X8650001Y-25355659D01*
X8708966Y-25350500D01*
X8885408Y-25335063D01*
X9113663Y-25273903D01*
X9327830Y-25174035D01*
X9521401Y-25038495D01*
X9688495Y-24871401D01*
X9818424Y-24685842D01*
X9873002Y-24642217D01*
X9942500Y-24635023D01*
X10004855Y-24666546D01*
X10021575Y-24685842D01*
X10151500Y-24871395D01*
X10151505Y-24871401D01*
X10318599Y-25038495D01*
X10415384Y-25106264D01*
X10512165Y-25174032D01*
X10512167Y-25174033D01*
X10512170Y-25174035D01*
X10726337Y-25273903D01*
X10954592Y-25335063D01*
X11131034Y-25350500D01*
X11189999Y-25355659D01*
X11190000Y-25355659D01*
X11190001Y-25355659D01*
X11248966Y-25350500D01*
X11425408Y-25335063D01*
X11653663Y-25273903D01*
X11867830Y-25174035D01*
X12061401Y-25038495D01*
X12228495Y-24871401D01*
X12358424Y-24685842D01*
X12413002Y-24642217D01*
X12482500Y-24635023D01*
X12544855Y-24666546D01*
X12561575Y-24685842D01*
X12691500Y-24871395D01*
X12691505Y-24871401D01*
X12858599Y-25038495D01*
X12955384Y-25106264D01*
X13052165Y-25174032D01*
X13052167Y-25174033D01*
X13052170Y-25174035D01*
X13266337Y-25273903D01*
X13494592Y-25335063D01*
X13671034Y-25350500D01*
X13729999Y-25355659D01*
X13730000Y-25355659D01*
X13730001Y-25355659D01*
X13788966Y-25350500D01*
X13965408Y-25335063D01*
X14193663Y-25273903D01*
X14407830Y-25174035D01*
X14601401Y-25038495D01*
X14768495Y-24871401D01*
X14898424Y-24685842D01*
X14953002Y-24642217D01*
X15022500Y-24635023D01*
X15084855Y-24666546D01*
X15101575Y-24685842D01*
X15231500Y-24871395D01*
X15231505Y-24871401D01*
X15398599Y-25038495D01*
X15495384Y-25106264D01*
X15592165Y-25174032D01*
X15592167Y-25174033D01*
X15592170Y-25174035D01*
X15806337Y-25273903D01*
X16034592Y-25335063D01*
X16211034Y-25350500D01*
X16269999Y-25355659D01*
X16270000Y-25355659D01*
X16270001Y-25355659D01*
X16328966Y-25350500D01*
X16505408Y-25335063D01*
X16733663Y-25273903D01*
X16947830Y-25174035D01*
X17141401Y-25038495D01*
X17308495Y-24871401D01*
X17438732Y-24685403D01*
X17493307Y-24641780D01*
X17562805Y-24634586D01*
X17625160Y-24666109D01*
X17641880Y-24685405D01*
X17695073Y-24761373D01*
X18201050Y-24255395D01*
X18262373Y-24221910D01*
X18332064Y-24226894D01*
X18387998Y-24268765D01*
X18393039Y-24276025D01*
X18393048Y-24276039D01*
X18428239Y-24330798D01*
X18543602Y-24430759D01*
X18541293Y-24433422D01*
X18576006Y-24473499D01*
X18585935Y-24542660D01*
X18556898Y-24606210D01*
X18550882Y-24612669D01*
X18048625Y-25114925D01*
X18132421Y-25173599D01*
X18346507Y-25273429D01*
X18346516Y-25273433D01*
X18574673Y-25334567D01*
X18574684Y-25334569D01*
X18809998Y-25355157D01*
X18810002Y-25355157D01*
X19045315Y-25334569D01*
X19045326Y-25334567D01*
X19273483Y-25273433D01*
X19273492Y-25273429D01*
X19487578Y-25173600D01*
X19487582Y-25173598D01*
X19571373Y-25114926D01*
X19571373Y-25114925D01*
X19069116Y-24612669D01*
X19035631Y-24551346D01*
X19040615Y-24481655D01*
X19077640Y-24432193D01*
X19076398Y-24430759D01*
X19083100Y-24424952D01*
X19191761Y-24330798D01*
X19226954Y-24276037D01*
X19279755Y-24230283D01*
X19348914Y-24220339D01*
X19412470Y-24249363D01*
X19418949Y-24255396D01*
X19963181Y-24799629D01*
X19996666Y-24860952D01*
X19999500Y-24887301D01*
X19999500Y-24897865D01*
X19999501Y-24897876D01*
X20005908Y-24957483D01*
X20056202Y-25092328D01*
X20056206Y-25092335D01*
X20142452Y-25207544D01*
X20142455Y-25207547D01*
X20257664Y-25293793D01*
X20257671Y-25293797D01*
X20392517Y-25344091D01*
X20392516Y-25344091D01*
X20399444Y-25344835D01*
X20452127Y-25350500D01*
X22247872Y-25350499D01*
X22307483Y-25344091D01*
X22442331Y-25293796D01*
X22557546Y-25207546D01*
X22643796Y-25092331D01*
X22694091Y-24957483D01*
X22700500Y-24897873D01*
X22700499Y-23102128D01*
X22694091Y-23042517D01*
X22643796Y-22907669D01*
X22625233Y-22882872D01*
X22600816Y-22817408D01*
X22600500Y-22808561D01*
X22600500Y-21923696D01*
X22600889Y-21916758D01*
X22605237Y-21878172D01*
X22600639Y-21809976D01*
X22600500Y-21805821D01*
X22600500Y-21793850D01*
X22600500Y-21793845D01*
X22596721Y-21751858D01*
X22590096Y-21653588D01*
X22589027Y-21649348D01*
X22585768Y-21630169D01*
X22585377Y-21625812D01*
X22559166Y-21530840D01*
X22535096Y-21435316D01*
X22533290Y-21431340D01*
X22526654Y-21413039D01*
X22525493Y-21408830D01*
X22482749Y-21320071D01*
X22442007Y-21230374D01*
X22439517Y-21226780D01*
X22429725Y-21209964D01*
X22427831Y-21206030D01*
X22369921Y-21126322D01*
X22313826Y-21045354D01*
X22313823Y-21045350D01*
X22313820Y-21045346D01*
X22310729Y-21042255D01*
X22298093Y-21027461D01*
X22295521Y-21023921D01*
X22295519Y-21023919D01*
X22224320Y-20955846D01*
X21666819Y-20398344D01*
X21633334Y-20337021D01*
X21630500Y-20310663D01*
X21630500Y-19374142D01*
X21634724Y-19342052D01*
X21665635Y-19226692D01*
X21685468Y-19000000D01*
X21665635Y-18773308D01*
X21606739Y-18553504D01*
X21510568Y-18347266D01*
X21380047Y-18160861D01*
X21380045Y-18160858D01*
X21219141Y-17999954D01*
X21032734Y-17869432D01*
X21032728Y-17869429D01*
X20974882Y-17842455D01*
X20974724Y-17842381D01*
X20922285Y-17796210D01*
X20903133Y-17729017D01*
X20923348Y-17662135D01*
X20974725Y-17617618D01*
X21032734Y-17590568D01*
X21219139Y-17460047D01*
X21380047Y-17299139D01*
X21510568Y-17112734D01*
X21606739Y-16906496D01*
X21665635Y-16686692D01*
X21685468Y-16460001D01*
X26694532Y-16460001D01*
X26714364Y-16686686D01*
X26714366Y-16686697D01*
X26773258Y-16906488D01*
X26773261Y-16906497D01*
X26869431Y-17112732D01*
X26869432Y-17112734D01*
X26999954Y-17299141D01*
X27160858Y-17460045D01*
X27185462Y-17477273D01*
X27229087Y-17531849D01*
X27236281Y-17601348D01*
X27204758Y-17663703D01*
X27144529Y-17699117D01*
X27127593Y-17702138D01*
X27092516Y-17705908D01*
X26957671Y-17756202D01*
X26957664Y-17756206D01*
X26842455Y-17842452D01*
X26842452Y-17842455D01*
X26756206Y-17957664D01*
X26756202Y-17957671D01*
X26705908Y-18092517D01*
X26699501Y-18152116D01*
X26699501Y-18152123D01*
X26699500Y-18152135D01*
X26699500Y-19847870D01*
X26699501Y-19847876D01*
X26705908Y-19907483D01*
X26756202Y-20042328D01*
X26756206Y-20042335D01*
X26842452Y-20157544D01*
X26842455Y-20157547D01*
X26957664Y-20243793D01*
X26957671Y-20243797D01*
X27092517Y-20294091D01*
X27092516Y-20294091D01*
X27099444Y-20294835D01*
X27152127Y-20300500D01*
X28847872Y-20300499D01*
X28907483Y-20294091D01*
X29042331Y-20243796D01*
X29157546Y-20157546D01*
X29243796Y-20042331D01*
X29294091Y-19907483D01*
X29300500Y-19847873D01*
X29300499Y-18152128D01*
X29294091Y-18092517D01*
X29259567Y-17999954D01*
X29243797Y-17957671D01*
X29243793Y-17957664D01*
X29157547Y-17842455D01*
X29157544Y-17842452D01*
X29042335Y-17756206D01*
X29042328Y-17756202D01*
X28907482Y-17705908D01*
X28907483Y-17705908D01*
X28872404Y-17702137D01*
X28807853Y-17675399D01*
X28768005Y-17618006D01*
X28765512Y-17548181D01*
X28801165Y-17488092D01*
X28814539Y-17477272D01*
X28839140Y-17460046D01*
X29000045Y-17299141D01*
X29000045Y-17299140D01*
X29000047Y-17299139D01*
X29130568Y-17112734D01*
X29226739Y-16906496D01*
X29285635Y-16686692D01*
X29305468Y-16460000D01*
X29285635Y-16233308D01*
X29226739Y-16013504D01*
X29130568Y-15807266D01*
X29000047Y-15620861D01*
X29000045Y-15620858D01*
X28839141Y-15459954D01*
X28699672Y-15362298D01*
X28652734Y-15329432D01*
X28594722Y-15302380D01*
X28542284Y-15256208D01*
X28523133Y-15189014D01*
X28543349Y-15122133D01*
X28594721Y-15077619D01*
X28652734Y-15050568D01*
X28839139Y-14920047D01*
X29000047Y-14759139D01*
X29130568Y-14572734D01*
X29226739Y-14366496D01*
X29285635Y-14146692D01*
X29305468Y-13920000D01*
X29285635Y-13693308D01*
X29240916Y-13526415D01*
X29226741Y-13473511D01*
X29226738Y-13473502D01*
X29130568Y-13267266D01*
X29000047Y-13080861D01*
X29000045Y-13080858D01*
X28839141Y-12919954D01*
X28652734Y-12789432D01*
X28652732Y-12789431D01*
X28446497Y-12693261D01*
X28446488Y-12693258D01*
X28226697Y-12634366D01*
X28226693Y-12634365D01*
X28226692Y-12634365D01*
X28226691Y-12634364D01*
X28226686Y-12634364D01*
X28000002Y-12614532D01*
X27999998Y-12614532D01*
X27773313Y-12634364D01*
X27773302Y-12634366D01*
X27553511Y-12693258D01*
X27553502Y-12693261D01*
X27347267Y-12789431D01*
X27347265Y-12789432D01*
X27160858Y-12919954D01*
X26999954Y-13080858D01*
X26869432Y-13267265D01*
X26869431Y-13267267D01*
X26773261Y-13473502D01*
X26773258Y-13473511D01*
X26714366Y-13693302D01*
X26714364Y-13693313D01*
X26694532Y-13919998D01*
X26694532Y-13920001D01*
X26714364Y-14146686D01*
X26714366Y-14146697D01*
X26773258Y-14366488D01*
X26773261Y-14366497D01*
X26869431Y-14572732D01*
X26869432Y-14572734D01*
X26999954Y-14759141D01*
X27160858Y-14920045D01*
X27323479Y-15033912D01*
X27347266Y-15050568D01*
X27405278Y-15077619D01*
X27457713Y-15123788D01*
X27476866Y-15190982D01*
X27456651Y-15257863D01*
X27405277Y-15302380D01*
X27347268Y-15329430D01*
X27347265Y-15329432D01*
X27160858Y-15459954D01*
X26999954Y-15620858D01*
X26869432Y-15807265D01*
X26869431Y-15807267D01*
X26773261Y-16013502D01*
X26773258Y-16013511D01*
X26714366Y-16233302D01*
X26714364Y-16233313D01*
X26694532Y-16459998D01*
X26694532Y-16460001D01*
X21685468Y-16460001D01*
X21685468Y-16460000D01*
X21665635Y-16233308D01*
X21606739Y-16013504D01*
X21510568Y-15807266D01*
X21380047Y-15620861D01*
X21380045Y-15620858D01*
X21219141Y-15459954D01*
X21032734Y-15329432D01*
X21032728Y-15329429D01*
X20974725Y-15302382D01*
X20922285Y-15256210D01*
X20903133Y-15189017D01*
X20923348Y-15122135D01*
X20974725Y-15077618D01*
X21032734Y-15050568D01*
X21219139Y-14920047D01*
X21380047Y-14759139D01*
X21510568Y-14572734D01*
X21606739Y-14366496D01*
X21665635Y-14146692D01*
X21685468Y-13920000D01*
X21665635Y-13693308D01*
X21634725Y-13577949D01*
X21630500Y-13545856D01*
X21630500Y-11189336D01*
X21650185Y-11122297D01*
X21666819Y-11101655D01*
X21666819Y-11101654D01*
X22182136Y-10586337D01*
X22187296Y-10581726D01*
X22217666Y-10557508D01*
X22262638Y-10506031D01*
X22265455Y-10503018D01*
X22273945Y-10494530D01*
X22300964Y-10462165D01*
X22365765Y-10387996D01*
X22368004Y-10384248D01*
X22379265Y-10368375D01*
X22382068Y-10365019D01*
X22430683Y-10279340D01*
X22481215Y-10194764D01*
X22482747Y-10190679D01*
X22491003Y-10173033D01*
X22493153Y-10169245D01*
X22525692Y-10076253D01*
X22560307Y-9984024D01*
X22561085Y-9979737D01*
X22566056Y-9960902D01*
X22567498Y-9956783D01*
X22582910Y-9859472D01*
X22592284Y-9807818D01*
X22600500Y-9762549D01*
X22600500Y-9758169D01*
X22602027Y-9738770D01*
X22602710Y-9734460D01*
X22600500Y-9635997D01*
X22600500Y-3574142D01*
X22604724Y-3542052D01*
X22635635Y-3426692D01*
X22655468Y-3200000D01*
X22652709Y-3168470D01*
X22645586Y-3087047D01*
X22635635Y-2973308D01*
X22576739Y-2753504D01*
X22480568Y-2547266D01*
X22350047Y-2360861D01*
X22350045Y-2360858D01*
X22189141Y-2199954D01*
X22002734Y-2069432D01*
X22002732Y-2069431D01*
X21796497Y-1973261D01*
X21796488Y-1973258D01*
X21576697Y-1914366D01*
X21576693Y-1914365D01*
X21576692Y-1914365D01*
X21576691Y-1914364D01*
X21576686Y-1914364D01*
X21350002Y-1894532D01*
X21349998Y-1894532D01*
X21123313Y-1914364D01*
X21123302Y-1914366D01*
X20903511Y-1973258D01*
X20903502Y-1973261D01*
X20697267Y-2069431D01*
X20697265Y-2069432D01*
X20510858Y-2199954D01*
X20349954Y-2360858D01*
X20219433Y-2547264D01*
X20192106Y-2605867D01*
X20145933Y-2658306D01*
X20078739Y-2677457D01*
X20011858Y-2657241D01*
X19967342Y-2605865D01*
X19940135Y-2547520D01*
X19940131Y-2547512D01*
X19889025Y-2474526D01*
X19458517Y-2905035D01*
X19397194Y-2938520D01*
X19327502Y-2933536D01*
X19271569Y-2891664D01*
X19268486Y-2886750D01*
X19268451Y-2886775D01*
X19263558Y-2879843D01*
X19160360Y-2769346D01*
X19160358Y-2769345D01*
X19125300Y-2748026D01*
X19078248Y-2696375D01*
X19066590Y-2627485D01*
X19094027Y-2563228D01*
X19102047Y-2554397D01*
X19535472Y-2120973D01*
X19462483Y-2069866D01*
X19462481Y-2069865D01*
X19256326Y-1973734D01*
X19256317Y-1973730D01*
X19036610Y-1914860D01*
X19036599Y-1914858D01*
X18810002Y-1895034D01*
X18809998Y-1895034D01*
X18583400Y-1914858D01*
X18583389Y-1914860D01*
X18363682Y-1973730D01*
X18363673Y-1973734D01*
X18157513Y-2069868D01*
X18084527Y-2120972D01*
X18084526Y-2120973D01*
X18516834Y-2553280D01*
X18550319Y-2614603D01*
X18545335Y-2684294D01*
X18507408Y-2737149D01*
X18404261Y-2821066D01*
X18404260Y-2821067D01*
X18404258Y-2821069D01*
X18353947Y-2892344D01*
X18299205Y-2935761D01*
X18229680Y-2942690D01*
X18167445Y-2910931D01*
X18164962Y-2908516D01*
X17730973Y-2474526D01*
X17730972Y-2474527D01*
X17679869Y-2547511D01*
X17652657Y-2605867D01*
X17606484Y-2658306D01*
X17539290Y-2677457D01*
X17472409Y-2657241D01*
X17427893Y-2605865D01*
X17400682Y-2547512D01*
X17400568Y-2547266D01*
X17270047Y-2360861D01*
X17270045Y-2360858D01*
X17109141Y-2199954D01*
X16922734Y-2069432D01*
X16922732Y-2069431D01*
X16716497Y-1973261D01*
X16716488Y-1973258D01*
X16496697Y-1914366D01*
X16496693Y-1914365D01*
X16496692Y-1914365D01*
X16496691Y-1914364D01*
X16496686Y-1914364D01*
X16270002Y-1894532D01*
X16269998Y-1894532D01*
X16043313Y-1914364D01*
X16043302Y-1914366D01*
X15823511Y-1973258D01*
X15823502Y-1973261D01*
X15617267Y-2069431D01*
X15617265Y-2069432D01*
X15430858Y-2199954D01*
X15269954Y-2360858D01*
X15139432Y-2547265D01*
X15139431Y-2547267D01*
X15112382Y-2605275D01*
X15066209Y-2657714D01*
X14999016Y-2676866D01*
X14932135Y-2656650D01*
X14887618Y-2605275D01*
X14860686Y-2547520D01*
X14860568Y-2547266D01*
X14730047Y-2360861D01*
X14730045Y-2360858D01*
X14569141Y-2199954D01*
X14382734Y-2069432D01*
X14382732Y-2069431D01*
X14176497Y-1973261D01*
X14176488Y-1973258D01*
X13956697Y-1914366D01*
X13956693Y-1914365D01*
X13956692Y-1914365D01*
X13956691Y-1914364D01*
X13956686Y-1914364D01*
X13730002Y-1894532D01*
X13729998Y-1894532D01*
X13503313Y-1914364D01*
X13503302Y-1914366D01*
X13283511Y-1973258D01*
X13283502Y-1973261D01*
X13077267Y-2069431D01*
X13077265Y-2069432D01*
X12890858Y-2199954D01*
X12729954Y-2360858D01*
X12599432Y-2547265D01*
X12599431Y-2547267D01*
X12572382Y-2605275D01*
X12526209Y-2657714D01*
X12459016Y-2676866D01*
X12392135Y-2656650D01*
X12347618Y-2605275D01*
X12320686Y-2547520D01*
X12320568Y-2547266D01*
X12190047Y-2360861D01*
X12190045Y-2360858D01*
X12029141Y-2199954D01*
X11842734Y-2069432D01*
X11842732Y-2069431D01*
X11636497Y-1973261D01*
X11636488Y-1973258D01*
X11416697Y-1914366D01*
X11416693Y-1914365D01*
X11416692Y-1914365D01*
X11416691Y-1914364D01*
X11416686Y-1914364D01*
X11190002Y-1894532D01*
X11189998Y-1894532D01*
X10963313Y-1914364D01*
X10963302Y-1914366D01*
X10743511Y-1973258D01*
X10743502Y-1973261D01*
X10537267Y-2069431D01*
X10537265Y-2069432D01*
X10350858Y-2199954D01*
X10189954Y-2360858D01*
X10059432Y-2547265D01*
X10059431Y-2547267D01*
X10032382Y-2605275D01*
X9986209Y-2657714D01*
X9919016Y-2676866D01*
X9852135Y-2656650D01*
X9807618Y-2605275D01*
X9780686Y-2547520D01*
X9780568Y-2547266D01*
X9650047Y-2360861D01*
X9650045Y-2360858D01*
X9489141Y-2199954D01*
X9302734Y-2069432D01*
X9302732Y-2069431D01*
X9096497Y-1973261D01*
X9096488Y-1973258D01*
X8876697Y-1914366D01*
X8876693Y-1914365D01*
X8876692Y-1914365D01*
X8876691Y-1914364D01*
X8876686Y-1914364D01*
X8650002Y-1894532D01*
X8649998Y-1894532D01*
X8423313Y-1914364D01*
X8423302Y-1914366D01*
X8203511Y-1973258D01*
X8203502Y-1973261D01*
X7997267Y-2069431D01*
X7997265Y-2069432D01*
X7810858Y-2199954D01*
X7649954Y-2360858D01*
X7519432Y-2547265D01*
X7519431Y-2547267D01*
X7423261Y-2753502D01*
X7423258Y-2753511D01*
X7364366Y-2973302D01*
X7364364Y-2973313D01*
X7344532Y-3199998D01*
X7344532Y-3200001D01*
X7364364Y-3426686D01*
X7364366Y-3426697D01*
X7423258Y-3646488D01*
X7423261Y-3646497D01*
X7519431Y-3852732D01*
X7519432Y-3852734D01*
X7649951Y-4039137D01*
X7649952Y-4039138D01*
X7649953Y-4039139D01*
X7738182Y-4127368D01*
X7771666Y-4188689D01*
X7774500Y-4215048D01*
X7774500Y-5935992D01*
X7754815Y-6003031D01*
X7738181Y-6023673D01*
X2132873Y-11628982D01*
X2129170Y-11632396D01*
X2085641Y-11669370D01*
X2035191Y-11735737D01*
X1982970Y-11800701D01*
X1982968Y-11800704D01*
X1982879Y-11800885D01*
X1970529Y-11820796D01*
X1970400Y-11820964D01*
X1970397Y-11820970D01*
X1949605Y-11865913D01*
X1935389Y-11896640D01*
X1916798Y-11934124D01*
X1898359Y-11971305D01*
X1898354Y-11971319D01*
X1898309Y-11971503D01*
X1890527Y-11993609D01*
X1890441Y-11993794D01*
X1890438Y-11993803D01*
X1872514Y-12075229D01*
X1852399Y-12156113D01*
X1852394Y-12156310D01*
X1849545Y-12179575D01*
X1849500Y-12179778D01*
X1849500Y-12263160D01*
X1847243Y-12346472D01*
X1847279Y-12346660D01*
X1849499Y-12370019D01*
X1849499Y-12480336D01*
X1829814Y-12547375D01*
X1777010Y-12593130D01*
X1738753Y-12603626D01*
X1717516Y-12605909D01*
X1582671Y-12656202D01*
X1582664Y-12656206D01*
X1467455Y-12742452D01*
X1467452Y-12742455D01*
X1381206Y-12857664D01*
X1381202Y-12857671D01*
X1330908Y-12992517D01*
X1324501Y-13052116D01*
X1324500Y-13052135D01*
X1324500Y-14947870D01*
X500Y-14947870D01*
X500Y-4221141D01*
X20185Y-4154102D01*
X72989Y-4108347D01*
X142147Y-4098403D01*
X205703Y-4127428D01*
X238359Y-4172027D01*
X314555Y-4348670D01*
X314561Y-4348683D01*
X489289Y-4651322D01*
X697972Y-4931631D01*
X697976Y-4931636D01*
X706147Y-4940297D01*
X706148Y-4940298D01*
X1245481Y-4400964D01*
X1306804Y-4367479D01*
X1376495Y-4372463D01*
X1432429Y-4414334D01*
X1436264Y-4419754D01*
X1438679Y-4423369D01*
X1438680Y-4423370D01*
X1479953Y-4485139D01*
X1493935Y-4506065D01*
X1580243Y-4563734D01*
X1625049Y-4617346D01*
X1633756Y-4686671D01*
X1603602Y-4749698D01*
X1599034Y-4754517D01*
X1062817Y-5290733D01*
X1062818Y-5290734D01*
X1205480Y-5410442D01*
X1497461Y-5602480D01*
X1809739Y-5759314D01*
X1809745Y-5759316D01*
X2138130Y-5878838D01*
X2138133Y-5878839D01*
X2478171Y-5959429D01*
X2825276Y-5999999D01*
X2825277Y-6000000D01*
X3174723Y-6000000D01*
X3174723Y-5999999D01*
X3521827Y-5959429D01*
X3521829Y-5959429D01*
X3861866Y-5878839D01*
X3861869Y-5878838D01*
X4190254Y-5759316D01*
X4190260Y-5759314D01*
X4502538Y-5602480D01*
X4794515Y-5410445D01*
X4937180Y-5290734D01*
X4937181Y-5290733D01*
X4400965Y-4754517D01*
X4367480Y-4693194D01*
X4372464Y-4623502D01*
X4414336Y-4567569D01*
X4419756Y-4563733D01*
X4423366Y-4561320D01*
X4423370Y-4561320D01*
X4506065Y-4506065D01*
X4561320Y-4423370D01*
X4561320Y-4423368D01*
X4563735Y-4419755D01*
X4617347Y-4374950D01*
X4686672Y-4366243D01*
X4749699Y-4396397D01*
X4754518Y-4400965D01*
X5293850Y-4940297D01*
X5302032Y-4931625D01*
X5510710Y-4651322D01*
X5685438Y-4348683D01*
X5685444Y-4348670D01*
X5823854Y-4027800D01*
X5924083Y-3693011D01*
X5924085Y-3693002D01*
X5984763Y-3348880D01*
X5984764Y-3348869D01*
X6005084Y-3000003D01*
X6005084Y-2999996D01*
X5984764Y-2651130D01*
X5984763Y-2651119D01*
X5924085Y-2306997D01*
X5924083Y-2306988D01*
X5823854Y-1972199D01*
X5685444Y-1651329D01*
X5685438Y-1651316D01*
X5510710Y-1348677D01*
X5302029Y-1068371D01*
X5293850Y-1059701D01*
X5293850Y-1059700D01*
X4754517Y-1599034D01*
X4693194Y-1632519D01*
X4623502Y-1627535D01*
X4567569Y-1585663D01*
X4563734Y-1580243D01*
X4506065Y-1493935D01*
X4419754Y-1436264D01*
X4374949Y-1382652D01*
X4366242Y-1313327D01*
X4396396Y-1250299D01*
X4400964Y-1245481D01*
X4937181Y-709265D01*
X4937180Y-709264D01*
X4794519Y-589557D01*
X4502538Y-397519D01*
X4190260Y-240685D01*
X4186943Y-239255D01*
X4187387Y-238225D01*
X4134921Y-199596D01*
X4109985Y-134327D01*
X4124295Y-65938D01*
X4173306Y-16143D01*
X4233595Y-500D01*
X25766405Y-500D01*
X25833444Y-20185D01*
G37*
%TD.AperFunction*%
%TA.AperFunction,Conductor*%
G36*
X4099619Y-32763588D02*
G01*
X4146585Y-32793032D01*
X4250684Y-32897131D01*
X4284169Y-32958454D01*
X4279185Y-33028146D01*
X4237313Y-33084079D01*
X4231895Y-33087913D01*
X4145585Y-33145584D01*
X4145584Y-33145585D01*
X4087913Y-33231895D01*
X4034301Y-33276699D01*
X3964976Y-33285406D01*
X3901949Y-33255251D01*
X3897131Y-33250684D01*
X3792786Y-33146339D01*
X3759301Y-33085016D01*
X3764285Y-33015324D01*
X3806157Y-32959391D01*
X3807427Y-32958454D01*
X3825747Y-32945144D01*
X3969279Y-32795020D01*
X4029833Y-32760169D01*
X4099619Y-32763588D01*
G37*
%TD.AperFunction*%
%TA.AperFunction,Conductor*%
G36*
X25986564Y-32762395D02*
G01*
X26040177Y-32801264D01*
X26092852Y-32867317D01*
X26092854Y-32867318D01*
X26092855Y-32867320D01*
X26161046Y-32926896D01*
X26202916Y-32963477D01*
X26240450Y-33022409D01*
X26240165Y-33092278D01*
X26209012Y-33144539D01*
X26102867Y-33250684D01*
X26041544Y-33284169D01*
X25971852Y-33279185D01*
X25915919Y-33237313D01*
X25912084Y-33231893D01*
X25854415Y-33145585D01*
X25768104Y-33087914D01*
X25723299Y-33034302D01*
X25714592Y-32964977D01*
X25744746Y-32901949D01*
X25749314Y-32897131D01*
X25855549Y-32790896D01*
X25916872Y-32757411D01*
X25986564Y-32762395D01*
G37*
%TD.AperFunction*%
%TA.AperFunction,Conductor*%
G36*
X4028146Y-30720813D02*
G01*
X4084079Y-30762685D01*
X4087914Y-30768104D01*
X4090329Y-30771719D01*
X4090330Y-30771720D01*
X4145585Y-30854415D01*
X4216196Y-30901596D01*
X4231893Y-30912084D01*
X4276699Y-30965696D01*
X4285406Y-31035021D01*
X4255252Y-31098048D01*
X4250684Y-31102867D01*
X4144449Y-31209102D01*
X4083126Y-31242587D01*
X4013434Y-31237603D01*
X3959821Y-31198733D01*
X3907149Y-31132684D01*
X3907146Y-31132681D01*
X3907145Y-31132680D01*
X3802832Y-31041545D01*
X3797082Y-31036521D01*
X3759548Y-30977589D01*
X3759833Y-30907720D01*
X3790986Y-30855459D01*
X3897131Y-30749314D01*
X3958454Y-30715829D01*
X4028146Y-30720813D01*
G37*
%TD.AperFunction*%
%TA.AperFunction,Conductor*%
G36*
X28028146Y-30720813D02*
G01*
X28084079Y-30762685D01*
X28087914Y-30768104D01*
X28090329Y-30771719D01*
X28090330Y-30771720D01*
X28145585Y-30854415D01*
X28216196Y-30901596D01*
X28231893Y-30912084D01*
X28276699Y-30965696D01*
X28285406Y-31035021D01*
X28255252Y-31098048D01*
X28250684Y-31102867D01*
X28144449Y-31209102D01*
X28083126Y-31242587D01*
X28013434Y-31237603D01*
X27959821Y-31198733D01*
X27907149Y-31132684D01*
X27907146Y-31132681D01*
X27907145Y-31132680D01*
X27802832Y-31041545D01*
X27797082Y-31036521D01*
X27759548Y-30977589D01*
X27759833Y-30907720D01*
X27790986Y-30855459D01*
X27897131Y-30749314D01*
X27958454Y-30715829D01*
X28028146Y-30720813D01*
G37*
%TD.AperFunction*%
%TA.AperFunction,Conductor*%
G36*
X2098049Y-30744747D02*
G01*
X2102868Y-30749315D01*
X2207212Y-30853659D01*
X2240697Y-30914982D01*
X2235713Y-30984674D01*
X2193841Y-31040607D01*
X2192419Y-31041656D01*
X2174258Y-31054850D01*
X2174250Y-31054857D01*
X2030721Y-31204978D01*
X1970165Y-31239830D01*
X1900379Y-31236411D01*
X1853414Y-31206967D01*
X1749315Y-31102868D01*
X1715830Y-31041545D01*
X1720814Y-30971853D01*
X1762686Y-30915920D01*
X1768105Y-30912085D01*
X1771718Y-30909670D01*
X1771720Y-30909670D01*
X1854415Y-30854415D01*
X1909670Y-30771720D01*
X1909670Y-30771718D01*
X1912085Y-30768105D01*
X1965697Y-30723300D01*
X2035022Y-30714593D01*
X2098049Y-30744747D01*
G37*
%TD.AperFunction*%
%TA.AperFunction,Conductor*%
G36*
X26098049Y-30744747D02*
G01*
X26102868Y-30749315D01*
X26207212Y-30853659D01*
X26240697Y-30914982D01*
X26235713Y-30984674D01*
X26193841Y-31040607D01*
X26192419Y-31041656D01*
X26174258Y-31054850D01*
X26174250Y-31054857D01*
X26030721Y-31204978D01*
X25970165Y-31239830D01*
X25900379Y-31236411D01*
X25853414Y-31206967D01*
X25749315Y-31102868D01*
X25715830Y-31041545D01*
X25720814Y-30971853D01*
X25762686Y-30915920D01*
X25768105Y-30912085D01*
X25771718Y-30909670D01*
X25771720Y-30909670D01*
X25854415Y-30854415D01*
X25909670Y-30771720D01*
X25909670Y-30771718D01*
X25912085Y-30768105D01*
X25965697Y-30723300D01*
X26035022Y-30714593D01*
X26098049Y-30744747D01*
G37*
%TD.AperFunction*%
%TA.AperFunction,Conductor*%
G36*
X4099619Y-3763588D02*
G01*
X4146585Y-3793032D01*
X4250684Y-3897131D01*
X4284169Y-3958454D01*
X4279185Y-4028146D01*
X4237313Y-4084079D01*
X4231895Y-4087913D01*
X4145585Y-4145584D01*
X4145584Y-4145585D01*
X4087913Y-4231895D01*
X4034301Y-4276699D01*
X3964976Y-4285406D01*
X3901949Y-4255251D01*
X3897131Y-4250684D01*
X3792786Y-4146339D01*
X3759301Y-4085016D01*
X3764285Y-4015324D01*
X3806157Y-3959391D01*
X3807427Y-3958454D01*
X3825747Y-3945144D01*
X3969279Y-3795020D01*
X4029833Y-3760169D01*
X4099619Y-3763588D01*
G37*
%TD.AperFunction*%
%TA.AperFunction,Conductor*%
G36*
X28099619Y-3763588D02*
G01*
X28146585Y-3793032D01*
X28250684Y-3897131D01*
X28284169Y-3958454D01*
X28279185Y-4028146D01*
X28237313Y-4084079D01*
X28231895Y-4087913D01*
X28145585Y-4145584D01*
X28145584Y-4145585D01*
X28087913Y-4231895D01*
X28034301Y-4276699D01*
X27964976Y-4285406D01*
X27901949Y-4255251D01*
X27897131Y-4250684D01*
X27792786Y-4146339D01*
X27759301Y-4085016D01*
X27764285Y-4015324D01*
X27806157Y-3959391D01*
X27807427Y-3958454D01*
X27825747Y-3945144D01*
X27969279Y-3795020D01*
X28029833Y-3760169D01*
X28099619Y-3763588D01*
G37*
%TD.AperFunction*%
%TA.AperFunction,Conductor*%
G36*
X1986564Y-3762395D02*
G01*
X2040177Y-3801264D01*
X2092852Y-3867317D01*
X2092854Y-3867318D01*
X2092855Y-3867320D01*
X2134167Y-3903413D01*
X2202916Y-3963477D01*
X2240450Y-4022409D01*
X2240165Y-4092278D01*
X2209012Y-4144539D01*
X2102867Y-4250684D01*
X2041544Y-4284169D01*
X1971852Y-4279185D01*
X1915919Y-4237313D01*
X1912084Y-4231893D01*
X1854415Y-4145585D01*
X1768104Y-4087914D01*
X1723299Y-4034302D01*
X1714592Y-3964977D01*
X1744746Y-3901949D01*
X1749314Y-3897131D01*
X1855549Y-3790896D01*
X1916872Y-3757411D01*
X1986564Y-3762395D01*
G37*
%TD.AperFunction*%
%TA.AperFunction,Conductor*%
G36*
X25986564Y-3762395D02*
G01*
X26040177Y-3801264D01*
X26092852Y-3867317D01*
X26092854Y-3867318D01*
X26092855Y-3867320D01*
X26134167Y-3903413D01*
X26202916Y-3963477D01*
X26240450Y-4022409D01*
X26240165Y-4092278D01*
X26209012Y-4144539D01*
X26102867Y-4250684D01*
X26041544Y-4284169D01*
X25971852Y-4279185D01*
X25915919Y-4237313D01*
X25912084Y-4231893D01*
X25854415Y-4145585D01*
X25768104Y-4087914D01*
X25723299Y-4034302D01*
X25714592Y-3964977D01*
X25744746Y-3901949D01*
X25749314Y-3897131D01*
X25855549Y-3790896D01*
X25916872Y-3757411D01*
X25986564Y-3762395D01*
G37*
%TD.AperFunction*%
%TA.AperFunction,Conductor*%
G36*
X4028146Y-1720813D02*
G01*
X4084079Y-1762685D01*
X4087914Y-1768104D01*
X4090329Y-1771719D01*
X4090330Y-1771720D01*
X4145585Y-1854415D01*
X4205624Y-1894532D01*
X4231893Y-1912084D01*
X4276699Y-1965696D01*
X4285406Y-2035021D01*
X4255252Y-2098048D01*
X4250684Y-2102867D01*
X4144449Y-2209102D01*
X4083126Y-2242587D01*
X4013434Y-2237603D01*
X3959821Y-2198733D01*
X3907149Y-2132684D01*
X3907146Y-2132681D01*
X3907145Y-2132680D01*
X3835247Y-2069865D01*
X3797082Y-2036521D01*
X3759548Y-1977589D01*
X3759833Y-1907720D01*
X3790986Y-1855459D01*
X3897131Y-1749314D01*
X3958454Y-1715829D01*
X4028146Y-1720813D01*
G37*
%TD.AperFunction*%
%TA.AperFunction,Conductor*%
G36*
X26098049Y-1744747D02*
G01*
X26102868Y-1749315D01*
X26207212Y-1853659D01*
X26240697Y-1914982D01*
X26235713Y-1984674D01*
X26193841Y-2040607D01*
X26192419Y-2041656D01*
X26174258Y-2054850D01*
X26174250Y-2054857D01*
X26030721Y-2204978D01*
X25970165Y-2239830D01*
X25900379Y-2236411D01*
X25853414Y-2206967D01*
X25749315Y-2102868D01*
X25715830Y-2041545D01*
X25720814Y-1971853D01*
X25762686Y-1915920D01*
X25768105Y-1912085D01*
X25771718Y-1909670D01*
X25771720Y-1909670D01*
X25854415Y-1854415D01*
X25909670Y-1771720D01*
X25909670Y-1771718D01*
X25912085Y-1768105D01*
X25965697Y-1723300D01*
X26035022Y-1714593D01*
X26098049Y-1744747D01*
G37*
%TD.AperFunction*%
%TD*%
M02*
